<svg width="25" height="24" fill="none" xmlns="http://www.w3.org/2000/svg"><path d="M14.893 12c0 1.269-1.072 2.297-2.393 2.297-1.321 0-2.393-1.028-2.393-2.297 0-1.269 1.072-2.297 2.393-2.297 1.321 0 2.393 1.028 2.393 2.297z" fill="#fff"/><path d="M18.095 7.936c-.115-.3-.298-.57-.537-.792a2.233 2.233 0 00-.825-.516c-.253-.094-.633-.206-1.333-.237-.757-.033-.984-.04-2.9-.04-1.917 0-2.144.007-2.9.04-.7.03-1.08.143-1.333.237-.312.11-.594.287-.825.516a2.13 2.13 0 00-.538.792c-.098.243-.215.608-.247 1.28-.034.726-.042.944-.042 2.784 0 1.84.008 2.058.042 2.785.032.671.15 1.036.247 1.279.116.3.299.57.537.792.232.23.514.405.826.516.253.094.633.206 1.333.237.756.033.983.04 2.9.04 1.917 0 2.144-.007 2.9-.04.7-.03 1.08-.143 1.333-.237a2.331 2.331 0 001.362-1.308c.099-.243.216-.608.248-1.28.034-.726.041-.944.041-2.784 0-1.84-.007-2.058-.041-2.784-.032-.672-.15-1.037-.248-1.28zM12.5 15.538c-2.036 0-3.686-1.584-3.686-3.538 0-1.954 1.65-3.538 3.686-3.538s3.686 1.584 3.686 3.538c0 1.954-1.65 3.538-3.686 3.538zm3.831-6.39c-.475 0-.86-.37-.86-.826 0-.457.385-.827.86-.827.476 0 .862.37.862.827 0 .456-.386.827-.862.827z" fill="#fff"/><path d="M12.5 0C5.598 0 0 5.374 0 12s5.598 12 12.5 12S25 18.626 25 12 19.402 0 12.5 0zm7.134 14.84c-.034.734-.156 1.235-.333 1.674a3.6 3.6 0 01-2.1 2.015c-.456.17-.978.287-1.742.32-.765.034-1.01.042-2.959.042-1.95 0-2.194-.008-2.96-.042-.763-.033-1.285-.15-1.741-.32a3.533 3.533 0 01-1.272-.795 3.366 3.366 0 01-.828-1.22c-.177-.439-.299-.94-.333-1.673-.036-.735-.044-.97-.044-2.841 0-1.871.008-2.106.044-2.84.034-.734.156-1.235.333-1.674.18-.46.463-.876.828-1.22.359-.35.792-.622 1.271-.795.457-.17.979-.287 1.743-.32.765-.034 1.01-.042 2.959-.042 1.95 0 2.194.008 2.96.042.763.033 1.285.15 1.742.32a3.54 3.54 0 011.271.795c.365.344.648.76.828 1.22.177.439.299.94.334 1.673.034.735.043.97.043 2.841 0 1.871-.009 2.106-.044 2.84z" fill="#fff"/></svg>