<svg width="24" height="24" fill="none" xmlns="http://www.w3.org/2000/svg"><path d="M12 0C5.392 0 .022 5.37.022 11.98A11.96 11.96 0 007.21 22.966c-.042-.826 0-1.859.206-2.767.248-.992 1.529-6.527 1.529-6.527s-.372-.785-.372-1.9c0-1.776 1.033-3.098 2.313-3.098 1.074 0 1.611.826 1.611 1.817 0 1.074-.702 2.726-1.074 4.255-.289 1.28.62 2.313 1.9 2.313 2.272 0 3.8-2.933 3.8-6.361 0-2.644-1.776-4.585-4.998-4.585-3.635 0-5.907 2.726-5.907 5.741 0 1.033.29 1.777.785 2.355.207.248.248.372.165.66-.04.207-.206.744-.247.95-.083.29-.33.414-.62.29-1.694-.702-2.437-2.52-2.437-4.585 0-3.387 2.85-7.477 8.55-7.477 4.586 0 7.601 3.305 7.601 6.857 0 4.71-2.602 8.22-6.444 8.22-1.28 0-2.52-.702-2.933-1.486 0 0-.702 2.767-.826 3.304-.248.909-.743 1.859-1.198 2.561 1.074.33 2.23.496 3.388.496 6.609 0 11.979-5.37 11.979-11.98C23.98 5.412 18.61 0 12 0z" fill="#fff"/></svg>