<svg width="52" height="52" fill="none" xmlns="http://www.w3.org/2000/svg"><g clip-path="url(#clip0)" fill="#01BA57"><path d="M13.866 11.268V7.8A.867.867 0 0013 6.934H.867A.867.867 0 000 7.801v3.467h13.866zM0 13v28.6h13.866V13H0zm10.4 11.267H3.467A.867.867 0 012.6 23.4v-6.933c0-.478.388-.866.867-.866H10.4c.478 0 .866.388.866.866V23.4a.867.867 0 01-.866.867zM0 46.8v4.333c0 .479.388.867.867.867H13a.867.867 0 00.866-.867V46.8H0zm0-3.467h13.866v1.734H0v-1.734zm15.6 0h11.266v1.734H15.6v-1.734zM26.866 3.467v-2.6A.867.867 0 0026 .001h-9.533a.867.867 0 00-.866.866v2.6h11.266zM15.6 9.534h11.266V41.6H15.6V9.534zm0 37.266v4.333c0 .479.388.867.866.867H26a.867.867 0 00.867-.867V46.8H15.6zm0-41.6h11.266v2.6H15.6V5.2zm12.978 12.748l.464 1.78 14.677-3.914-.464-1.78-14.677 3.914zm7.244 27.762l14.676-3.913-.929-3.563-14.677 3.914.93 3.563zm13.31-9.153l-4.974-19.066-14.677 3.914 4.973 19.066 14.678-3.914z"/><path d="M28.141 16.27l14.676-3.913-1.244-4.773a.886.886 0 00-1.066-.624l-13 3.467a.873.873 0 00-.615 1.057l1.249 4.786zm22.795 27.204l-14.678 3.914 1.034 3.962a.87.87 0 00.407.529c.131.079.28.12.434.12.075 0 .151-.008.225-.025l13-3.466a.874.874 0 00.615-1.058l-1.037-3.976z"/></g><defs><clipPath id="clip0"><path fill="#fff" d="M0 0h52v52H0z"/></clipPath></defs></svg>