<svg width="52" height="52" fill="none" xmlns="http://www.w3.org/2000/svg"><path d="M38.133 0v13.867H52L38.133 0zM17.287 49.846L14.63 39.193c1.657-1.577 2.704-3.796 2.704-6.26 0-4.777-3.89-8.667-8.666-8.667-4.777 0-8.666 3.89-8.666 8.666 0 2.465 1.047 4.684 2.703 6.261L.051 49.846a1.746 1.746 0 00.6 1.774 1.74 1.74 0 001.858.198l6.16-3.082 6.156 3.082a1.75 1.75 0 001.862-.198 1.744 1.744 0 00.6-1.774zM8.669 38.132a5.206 5.206 0 01-5.2-5.2c0-2.866 2.333-5.2 5.2-5.2s5.2 2.334 5.2 5.2c0 2.867-2.333 5.2-5.2 5.2z" fill="#01BA57"/><path d="M38.133 17.333a3.472 3.472 0 01-3.467-3.466V0H13.867a3.472 3.472 0 00-3.466 3.466v17.51c5.865.849 10.4 5.858 10.4 11.955 0 2.621-.833 5.11-2.372 7.18l2.101 8.42h28.002A3.468 3.468 0 0052 45.065V17.333H38.133zm-19.066-3.466a1.734 1.734 0 010-3.467h10.4a1.734 1.734 0 010 3.467h-10.4zm24.266 20.799H26a1.734 1.734 0 010-3.467h17.333a1.734 1.734 0 010 3.467zm0-10.4h-20.8a1.734 1.734 0 010-3.466h20.8a1.734 1.734 0 010 3.466z" fill="#01BA57"/></svg>