<svg width="52" height="52" fill="none" xmlns="http://www.w3.org/2000/svg"><g clip-path="url(#clip0)" fill="#01BA57"><path d="M33.84 11.683a17.785 17.785 0 00-15.964-9.957C8.019 1.726 0 9.7 0 19.5c0 2.663.572 5.216 1.7 7.596L.031 35.45a1.524 1.524 0 001.789 1.793l8.458-1.672a17.52 17.52 0 003.527 1.234C11.092 23.953 20.833 11.89 33.84 11.683z"/><path d="M50.3 40.095c.291-.616.545-1.243.762-1.88h-.056c3.804-11.164-4.194-22.896-16.002-23.468v-.001c-10.16-.469-18.601 7.666-18.601 17.753 0 9.791 7.958 17.758 17.747 17.772a17.58 17.58 0 007.573-1.7c9.263 1.83 8.54 1.7 8.753 1.7.963 0 1.682-.882 1.494-1.821l-1.67-8.355z"/></g><defs><clipPath id="clip0"><path fill="#fff" d="M0 0h52v52H0z"/></clipPath></defs></svg>