<svg width="52" height="52" fill="none" xmlns="http://www.w3.org/2000/svg"><g clip-path="url(#clip0)" fill="#01BA57"><path d="M13.71 0c-2.52 0-4.57 2.05-4.57 4.57 0 2.52 2.05 4.57 4.57 4.57a4.575 4.575 0 004.571-4.57c0-2.52-2.05-4.57-4.57-4.57zm33.72 0H25.898c-2.52 0-4.57 2.05-4.57 4.57v5.414c.451.262.883.563 1.262.942l2.987 2.987 2.166-1.083c1.453-.723 2.715-.754 4.035-.465l7.31-3.656a4.564 4.564 0 016.13 2.04 4.564 4.564 0 01-2.041 6.137l-7.006 3.503a6.038 6.038 0 01-2.98 3.345l-1.282.641h15.52c2.52 0 4.571-2.05 4.571-4.57V4.57C52 2.05 49.95 0 47.43 0z"/><path d="M42.496 12.116a1.526 1.526 0 00-2.045-.682l-8.495 4.248c-.846-.485-1.887-.606-2.85-.126l-4.13 2.065-4.54-4.54a3.026 3.026 0 00-2.155-.894H6.094A6.1 6.1 0 000 18.281v9.242c0 2.1 2.092 3.575 4.063 2.873l2.03-.717v19.274a3.047 3.047 0 006.095 0V38.187a1.523 1.523 0 113.046 0v10.766a3.047 3.047 0 006.094 0V23.469l2.03.715c.85.301 1.651.232 2.38-.13l6.093-3.047c1.054-.526 1.63-1.582 1.649-2.68l8.334-4.167a1.523 1.523 0 00.682-2.044z"/></g><defs><clipPath id="clip0"><path fill="#fff" d="M0 0h52v52H0z"/></clipPath></defs></svg>