<svg width="52" height="52" fill="none" xmlns="http://www.w3.org/2000/svg"><g clip-path="url(#clip0)" fill="#01BA57"><path d="M25.465 24.38c.336.124.712.133 1.071 0l19.271-7.227v16.66c.49-.123.997-.195 1.524-.195s1.034.072 1.523.195V16.01l2.161-.772c1.313-.494 1.315-2.36 0-2.854L26.536 3.242a1.543 1.543 0 00-1.071 0L.985 12.384c-1.312.493-1.314 2.36 0 2.854l24.48 9.141zm21.866 12.285c-2.605 0-4.57 3.274-4.57 7.617v3.048c0 .842.68 1.523 1.523 1.523h6.094c.842 0 1.524-.681 1.524-1.523v-3.047c0-4.344-1.966-7.618-4.571-7.618z"/><path d="M41.76 21.925l-14.153 5.308a4.58 4.58 0 01-3.2.003l-14.164-5.31c-1.271 4.657-.948 7.713-1.001 8.644a1.525 1.525 0 002.087 1.415c.036-.013 3.598-1.415 7.054-1.415 3.216 0 6.635 2.688 6.669 2.716a1.53 1.53 0 001.901-.002c.944-.756 3.98-2.714 6.666-2.714 3.456 0 7.018 1.402 7.054 1.415a1.526 1.526 0 002.088-1.415c-.052-.893.262-4.015-1.001-8.645z"/></g><defs><clipPath id="clip0"><path fill="#fff" d="M0 0h52v52H0z"/></clipPath></defs></svg>