<svg width="73" height="73" fill="none" xmlns="http://www.w3.org/2000/svg"><g clip-path="url(#clip0)" fill="#01BA57"><path d="M36.571 56.534a7.129 7.129 0 100-14.257 7.129 7.129 0 000 14.257z"/><path d="M70.861 0H2.14A2.139 2.139 0 000 2.139v51.325a2.14 2.14 0 002.139 2.139h24.864C22.101 48.06 27.54 38 36.571 38c9.033 0 14.471 10.06 9.568 17.603h24.722A2.139 2.139 0 0073 53.464V2.14A2.139 2.139 0 0070.861 0zM27.945 8.697h17.11a2.139 2.139 0 110 4.277h-17.11a2.139 2.139 0 110-4.277zM57.887 34.36H15.113a2.139 2.139 0 110-4.277h42.774a2.139 2.139 0 110 4.277zm0-8.555H15.113a2.139 2.139 0 010-4.277h42.774a2.139 2.139 0 110 4.277zM28.052 56.979v13.879c0 1.696 1.893 2.728 3.32 1.782l5.27-3.493 5.27 3.493c1.406.932 3.321-.067 3.321-1.782V56.814c-4.506 5.26-12.572 5.343-17.181.165z"/></g><defs><clipPath id="clip0"><path fill="#fff" d="M0 0h73v73H0z"/></clipPath></defs></svg>