<svg width="84" height="84" fill="none" xmlns="http://www.w3.org/2000/svg"><g clip-path="url(#clip0)"><path d="M83.456 23.526a1.353 1.353 0 00-1.597-.018L60.072 39.03a1.349 1.349 0 00-.477 1.592 4.42 4.42 0 01.313 1.608 4.403 4.403 0 01-4.4 4.399 4.405 4.405 0 01-4.4-4.4c0-2.32 1.83-4.24 4.163-4.367a1.353 1.353 0 001.147-1.931L43.22 8.104c-.45-.95-1.999-.95-2.448 0l-13.208 27.85a1.358 1.358 0 001.108 1.93 4.351 4.351 0 014.004 4.346 4.404 4.404 0 01-4.4 4.399 4.404 4.404 0 01-4.399-4.4c0-.43.084-.893.257-1.408a1.348 1.348 0 00-.482-1.522L2.154 23.52a1.352 1.352 0 00-1.604.002c-.476.355-.67.973-.476 1.533l13.368 38.484c4.816-3.973 19.884-5.126 28.558-5.126 8.673 0 23.737 1.152 28.557 5.127l13.367-38.485a1.348 1.348 0 00-.468-1.528zM43.23 21.892l-5.66 11.922c2.09 2.297 3.234 5.247 3.234 8.41a1.355 1.355 0 01-2.708 0c0-2.755-1.094-5.289-3.08-7.149a1.35 1.35 0 01-.298-1.563l6.06-12.787a1.36 1.36 0 011.803-.643c.68.328.967 1.136.649 1.81zm26.188 44.396c0-1.544-9.325-5.161-27.41-5.161-18.087 0-27.413 3.617-27.413 5.16 0 .128-.04.24-.07.35l1.08 3.109c.01.029.04.043.051.066.476 5.356 17.35 6.797 26.352 6.797 9 0 25.87-1.436 26.346-6.797.01-.027.043-.045.053-.066l1.079-3.109c-.031-.11-.068-.222-.068-.35zm-27.41 7.614c-14.846 0-23.438-2.853-23.69-4.312.234-1.465 8.813-4.328 23.69-4.328 14.878 0 23.452 2.863 23.687 4.317-.25 1.47-8.843 4.323-23.687 4.323z" fill="#01BA57"/></g><defs><clipPath id="clip0"><path fill="#fff" d="M0 0h84v84H0z"/></clipPath></defs></svg>