<svg width="76" height="76" fill="none" xmlns="http://www.w3.org/2000/svg"><path d="M40.345 26.208A12.032 12.032 0 0038 25.977c-6.63 0-12.023 5.393-12.023 12.023S31.37 50.023 38 50.023 50.023 44.63 50.023 38c0-.803-.08-1.586-.23-2.345l-7.07 7.068A6.636 6.636 0 0138 44.68a6.636 6.636 0 01-4.723-1.957A6.636 6.636 0 0131.32 38c0-1.784.695-3.462 1.957-4.723l7.068-7.07z" fill="#01BA57"/><path d="M72.6 22.294l-4.791 4.79c-.48.48-1.02.877-1.604 1.186a29.717 29.717 0 011.63 9.73c0 16.452-13.383 29.836-29.835 29.836S8.164 54.452 8.164 38C8.164 21.548 21.548 8.164 38 8.164c3.407 0 6.681.576 9.734 1.632a6.683 6.683 0 011.182-1.605l4.79-4.79A37.776 37.776 0 0038 0C17.047 0 0 17.047 0 38s17.047 38 38 38 38-17.047 38-38a37.778 37.778 0 00-3.4-15.706z" fill="#01BA57"/><path d="M47.457 19.096l-.406-4.81A25.24 25.24 0 0038 12.617c-13.996 0-25.383 11.387-25.383 25.383 0 13.996 11.387 25.383 25.383 25.383 13.996 0 25.383-11.387 25.383-25.383a25.24 25.24 0 00-1.669-9.051l-4.81-.406-3.53 3.53A16.389 16.389 0 0154.476 38c0 9.085-7.392 16.477-16.477 16.477S21.523 47.085 21.523 38 28.915 21.523 38 21.523c2.089 0 4.087.392 5.927 1.104l3.53-3.53z" fill="#01BA57"/><path d="M51.42 13.101l.648 7.682-15.642 15.643a2.226 2.226 0 103.148 3.148l15.643-15.642 7.682.647a2.227 2.227 0 001.762-.644l9.445-9.447a2.226 2.226 0 00-1.387-3.792l-6.838-.577-.577-6.838a2.227 2.227 0 00-3.793-1.388l-9.446 9.447a2.227 2.227 0 00-.645 1.761z" fill="#01BA57"/></svg>