<svg width="80" height="80" fill="none" xmlns="http://www.w3.org/2000/svg"><g clip-path="url(#clip0)" fill="#01BA57"><path d="M40 11.523a2.5 2.5 0 01-2.5-2.5V2.5a2.5 2.5 0 015 0v6.523a2.5 2.5 0 01-2.5 2.5zm21.904 9.074a2.5 2.5 0 01-1.767-4.27l4.613-4.614a2.5 2.5 0 013.537 3.537l-4.614 4.613c-.49.487-1.13.734-1.77.734zM77.5 42.5h-6.524a2.5 2.5 0 010-5H77.5a2.5 2.5 0 010 5zM66.517 69.017a2.48 2.48 0 01-1.767-.734l-4.613-4.613a2.5 2.5 0 113.536-3.537l4.614 4.614a2.5 2.5 0 01-1.77 4.27zm-53.034 0a2.5 2.5 0 01-1.767-4.27l4.614-4.614a2.5 2.5 0 113.537 3.537l-4.614 4.613c-.49.49-1.13.734-1.77.734zM9.023 42.5H2.5a2.5 2.5 0 010-5h6.523a2.5 2.5 0 010 5zm9.074-21.903a2.48 2.48 0 01-1.767-.734l-4.613-4.613a2.5 2.5 0 013.536-3.537l4.614 4.614a2.5 2.5 0 01-1.77 4.27zM50 70v4.167c0 3.2-2.633 5.833-5.833 5.833h-8.334C33.033 80 30 77.867 30 73.2V70h20zm4.7-48.133C49.233 17.433 42.033 15.7 35 17.2c-8.834 1.833-16 9.033-17.834 17.867-1.866 9.066 1.534 18.066 8.8 23.566 1.967 1.467 3.334 3.734 3.8 6.367v.033C29.833 65 29.933 65 30 65h20a.3.3 0 01.166.033V65c.467-2.533 1.967-4.867 4.267-6.667 5.633-4.466 8.9-11.133 8.9-18.333A23.242 23.242 0 0054.7 21.867zm-2.2 19.8a2.518 2.518 0 01-2.5-2.5C50 34.1 45.9 30 40.833 30a2.518 2.518 0 01-2.5-2.5c0-1.367 1.133-2.5 2.5-2.5C48.633 25 55 31.367 55 39.167a2.52 2.52 0 01-2.5 2.5z"/><path d="M29.767 65H30c-.067 0-.167 0-.233.033V65zm20.4 0v.033C50.1 65 50.067 65 50 65h.167z"/></g><defs><clipPath id="clip0"><path fill="#fff" d="M0 0h80v80H0z"/></clipPath></defs></svg>