<svg width="18" height="18" fill="none" xmlns="http://www.w3.org/2000/svg"><path d="M16.2 1.8h-.9V.9c0-.54-.36-.9-.9-.9s-.9.36-.9.9v.9h-9V.9c0-.54-.36-.9-.9-.9s-.9.36-.9.9v.9H.9c-.45 0-.9.36-.9.9v12.6c0 .54.45.9.9.9h5.49a7.215 7.215 0 01-.99-3.6c0-3.96 3.24-7.2 7.2-7.2 1.71 0 3.24.63 4.5 1.62V2.7c0-.45-.45-.9-.9-.9z" fill="#01B555"/><path d="M12.6 7.2c-2.97 0-5.4 2.43-5.4 5.4S9.63 18 12.6 18s5.4-2.43 5.4-5.4-2.43-5.4-5.4-5.4zm1.8 6.3h-1.8c-.54 0-.9-.36-.9-.9V9.9c0-.54.36-.9.9-.9s.9.36.9.9v1.8h.9c.54 0 .9.36.9.9s-.36.9-.9.9z" fill="#01B555"/></svg>