<svg width="32" height="32" fill="none" xmlns="http://www.w3.org/2000/svg"><g clip-path="url(#clip0)" fill="#01BA57"><path d="M29.142 28.572c.72 0 1.343-.238 1.873-.707l-9.066-9.066-.628.45c-.678.5-1.229.89-1.652 1.17-.422.28-.985.566-1.687.857-.703.292-1.357.438-1.965.438h-.035c-.607 0-1.262-.145-1.965-.438-.702-.291-1.265-.577-1.687-.857-.423-.28-.973-.67-1.652-1.17-.19-.138-.399-.29-.626-.453L.984 27.865c.53.469 1.154.707 1.873.707h26.285zM1.804 13.09A9.467 9.467 0 010 11.535v13.793l7.99-7.99a616.691 616.691 0 00-6.186-4.25zm28.411 0a526.282 526.282 0 00-6.202 4.252L32 25.33V11.536a9.853 9.853 0 01-1.785 1.553z"/><path d="M29.143 3.428H2.857c-.917 0-1.622.31-2.115.929C.247 4.976 0 5.75 0 6.678c0 .75.328 1.563.983 2.438.654.875 1.35 1.562 2.089 2.062a770.29 770.29 0 003.66 2.545 1193.746 1193.746 0 014.68 3.259l.266.19.492.355c.387.28.709.506.964.678.256.173.566.366.93.58a5.34 5.34 0 001.026.483c.322.107.619.16.893.16h.035c.274 0 .572-.053.893-.16a5.409 5.409 0 001.027-.482 19.1 19.1 0 00.929-.58c.256-.173.577-.4.964-.68a127.991 127.991 0 01.76-.544l1.806-1.256c1.48-1.029 3.661-2.542 6.55-4.548a8.496 8.496 0 002.179-2.196c.582-.857.874-1.756.874-2.696a2.74 2.74 0 00-.848-2.018c-.566-.56-1.235-.84-2.01-.84z"/></g><defs><clipPath id="clip0"><path fill="#fff" d="M0 0h32v32H0z"/></clipPath></defs></svg>