<svg width="13" height="17" fill="none" xmlns="http://www.w3.org/2000/svg"><path d="M11.425 7.328h-.312V5.87c0-2.698-2.141-4.953-4.818-5.001h-.292c-2.677.047-4.819 2.301-4.819 5v1.46H.872c-.48 0-.872.495-.872 1.108v7.318c0 .611.392 1.112.872 1.112h10.553c.48 0 .873-.5.873-1.112V8.436c0-.612-.392-1.108-.873-1.108zm-4.287 4.76V14.3a.472.472 0 01-.466.467H5.626a.472.472 0 01-.466-.467v-2.212a1.316 1.316 0 01-.389-.946c0-.702.542-1.304 1.232-1.332.073-.003.22-.003.292 0 .69.028 1.231.63 1.231 1.332 0 .37-.143.704-.388.946zm1.92-4.76H3.24V5.87c0-1.607 1.307-2.937 2.91-2.937 1.603 0 2.91 1.33 2.91 2.937v1.46z" fill="#FF609B"/></svg>