<svg width="32" height="32" fill="none" xmlns="http://www.w3.org/2000/svg"><g clip-path="url(#clip0)" fill="#01BA57"><path d="M22.11 16.778c-.062.093-.062.187-.093.311a.76.76 0 00.684.809.76.76 0 00.809-.685c0-.093 0-.186.03-.342v-.342c0-.902-.155-1.772-.435-2.612-.373-1.088-1.026-2.053-1.803-2.861a7.872 7.872 0 00-3.483-2.022 8.25 8.25 0 00-1.96-.248c-.217 0-.435 0-.684.03l-.653.094c-.404.062-.684.467-.59.84.061.404.466.684.839.59.187-.03.342-.062.529-.062h.093c.155 0 .311-.03.466-.03 1.71 0 3.297.683 4.416 1.834a6.266 6.266 0 011.835 4.354v.342z"/><path d="M26.216 17.462a.76.76 0 00.684.809.76.76 0 00.809-.685c.03-.342.03-.684.03-1.026 0-.684-.062-1.337-.155-1.99-.404-2.488-1.617-4.727-3.327-6.438-1.96-1.959-4.572-3.234-7.464-3.451-.311-.032-.653-.032-.964-.032-.342 0-.684 0-1.026.032-.343.03-.685.062-1.027.124-.404.062-.684.466-.59.84.062.404.466.684.84.59.217-.03.403-.062.621-.093.093 0 .187-.031.28-.031.311-.031.622-.031.902-.031 1.057 0 2.052.155 3.016.435 1.68.498 3.172 1.4 4.385 2.613a10.682 10.682 0 012.333 3.514 10.51 10.51 0 01.746 3.856v.31a2.543 2.543 0 00-.093.654z"/><path d="M27.273 5.147A16.145 16.145 0 0015.798.389c-.467 0-.933.031-1.4.062-.466.031-.933.093-1.4.187-.403.062-.683.466-.59.84.062.404.466.684.84.59.217-.03.404-.062.622-.093a4.64 4.64 0 01.653-.062c.435-.031.84-.062 1.275-.062 4.042 0 7.712 1.648 10.387 4.291a14.64 14.64 0 014.291 10.387v.684c0 .187-.03.373-.03.591a.76.76 0 00.683.809.76.76 0 00.809-.684c.03-.467.062-.933.062-1.369 0-4.447-1.804-8.49-4.727-11.413zm3.577 18.846l-5.505-2.955c-1.835-.995-1.897-.342-3.825 1.71-.467.498-1.338 1.804-2.364 1.556-2.146-.53-6.157-3.67-7.464-5.1-.622-.685-3.296-3.95-3.327-5.007-.062-1.617 3.483-2.426 2.332-5.505L8.241 3.188C5.939-2.1-.5 6.36.03 10.309c1.368 9.734 18.44 25.47 27.957 20.276 2.115-1.181 4.976-5.317 2.861-6.592z"/></g><defs><clipPath id="clip0"><path fill="#fff" d="M0 0h32v32H0z"/></clipPath></defs></svg>