<svg width="20" height="20" fill="none" xmlns="http://www.w3.org/2000/svg"><g clip-path="url(#clip0)" fill="#FF609B"><path d="M13.345 14.202c-.2-.2-.478-.309-.783-.309-.321 0-.63.125-.85.344l-1.383 1.384-.374-.207c-.822-.456-1.95-1.082-3.14-2.274-1.194-1.193-1.82-2.322-2.278-3.148l-.204-.364 1.386-1.386c.458-.46.474-1.192.035-1.632L3.193 4.05a1.092 1.092 0 00-.782-.31c-.32 0-.63.126-.85.345l-.628.633-.059.097c-.234.3-.426.638-.569 1.005a4.17 4.17 0 00-.254 1.018c-.33 2.744.935 5.263 4.368 8.695 4.068 4.068 7.468 4.384 8.413 4.384.163 0 .26-.009.287-.011.35-.043.684-.127 1.021-.257.364-.142.7-.332 1-.566l.143-.113.589-.578c.457-.458.472-1.189.033-1.629l-2.56-2.561z"/><path d="M10.634 9.466A4.46 4.46 0 008.613 8.31l-.352-.094-.101.348c-.038.129-.083.25-.133.36l-.19.406.436.113a3.288 3.288 0 012.368 2.309l.073.263.55.031.165.018.517.048-.12-.505a4.481 4.481 0 00-1.192-2.14zm1.798-1.798A6.977 6.977 0 008.61 5.716l-.51-.085.08.509c.024.151.045.301.062.453l.033.268.27.054a5.792 5.792 0 014.724 5.096l.03.284.431.062c.07.006.14.005.239.006l.52.018-.042-.424a6.953 6.953 0 00-2.015-4.289z"/><path d="M14.384 5.716a9.78 9.78 0 00-6.366-2.845l-.468-.03.078.461c.024.15.053.304.084.464l.057.279.282.017a8.597 8.597 0 015.495 2.493 8.606 8.606 0 012.48 5.428l.027.367.366-.022c.087-.004.172-.012.297-.023l.523-.041-.029-.371a9.789 9.789 0 00-2.826-6.177z"/><path d="M19.97 11.63a12.564 12.564 0 00-3.632-7.867A12.52 12.52 0 007.929.098l-.36-.015-.028.362c-.006.1-.01.2-.014.301l-.022.526.373.013a11.334 11.334 0 017.62 3.317 11.385 11.385 0 013.29 7.126l.03.378.38-.037c.13-.014.26-.024.392-.034l.41-.032-.03-.373z"/></g><defs><clipPath id="clip0"><path fill="#fff" d="M0 0h20v20H0z"/></clipPath></defs></svg>