<svg width="21" height="21" fill="none" xmlns="http://www.w3.org/2000/svg"><path d="M10.2 0C4.576 0 0 4.576 0 10.2s4.576 10.2 10.2 10.2 10.2-4.576 10.2-10.2S15.824 0 10.2 0zm0 19.38c-5.063 0-9.18-4.117-9.18-9.18s4.117-9.18 9.18-9.18 9.18 4.117 9.18 9.18-4.117 9.18-9.18 9.18z" fill="#01BA57"/><path d="M14.992 9.838l-2.866-2.866c-.2-.2-.52-.2-.72 0-.2.2-.2.52 0 .72l1.997 1.996H5.77a.511.511 0 100 1.024h7.63l-1.998 1.996c-.2.2-.2.52 0 .72.2.2.52.2.72 0l2.866-2.866c.1-.1.15-.229.15-.362a.503.503 0 00-.146-.362z" fill="#01BA57"/></svg>