<svg width="5" height="5" fill="none" xmlns="http://www.w3.org/2000/svg"><g clip-path="url(#clip0)"><path d="M4.92 2.306L3.114.5a.272.272 0 00-.193-.08.272.272 0 00-.194.08l-.164.164a.277.277 0 000 .39l1.054 1.055H.27c-.15 0-.27.118-.27.269v.232c0 .15.12.28.27.28h3.36L2.563 3.953a.27.27 0 000 .384l.164.164a.27.27 0 00.194.08.272.272 0 00.193-.08L4.92 2.694A.272.272 0 005 2.5a.272.272 0 00-.08-.194z" fill="#000" fill-opacity=".2"/></g><defs><clipPath id="clip0"><path fill="#fff" d="M0 0h5v5H0z"/></clipPath></defs></svg>