<svg width="324" height="136" fill="none" xmlns="http://www.w3.org/2000/svg"><g clip-path="url(#clip0)"><path d="M12.707 135.624s-27.362-32.719-1.782-57.98c16.05-15.857 21.45-4.615 31.08-29.533C54.89 14.77 103.945-2.8 142.73 32.874c25.724 23.657 34.025 29.621 46.655 24.11 14.477-6.317 20.842-25.327 43.51-21.31 26.2 4.647 22.691 32.818 41.994 27.906 37.224-9.461 64.807 44.58 39.073 72.409l-301.254-.365z" fill="#E9F3FE"/><path d="M221.671 80.63c0 3.387-.31 6.695-.897 9.915-4.671 25.66-27.14 45.112-54.147 45.112-22.47 0-41.784-13.455-50.34-32.741a54.154 54.154 0 01-2.801-7.912 54.926 54.926 0 01-1.892-14.362c0-4.061.442-8.022 1.272-11.84 2.292-10.423 7.538-19.75 14.81-27.043a56.478 56.478 0 016.663-5.698 54.826 54.826 0 0132.288-10.457c1.394 0 2.789.056 4.161.155 1.937.144 3.841.388 5.723.73 12.817 2.324 24.085 9.074 32.154 18.623a56.53 56.53 0 014.483 6.097c5.401 8.509 8.523 18.6 8.523 29.422z" fill="#CAE2FF"/><path d="M221.671 80.63c0 3.387-.31 6.695-.896 9.915-2.236-.32-5.158-.642-6.963-.432-3.243.377-6.486 7.06-13.171 7.326-6.686.265-14.887-4.847-23.665-1.406-8.777 3.43-13.36-.188-14.887-2.666-1.528-2.479 3.819-8.2 3.332-10.69-.487-2.478.675-10.876 8.113-10.876s10.88-3.818 11.832-5.533c.952-1.715 6.686-.376 9.729-3.629 3.055-3.242-2.291-8.963 0-12.78 2.292-3.818 13.548-4.747 13.548-4.747 8.147 9.582 13.028 21.986 13.028 35.519zm-81.133-9.35c-2.667 3.763.952 11.586-1.339 15.591-2.291 4.006-6.685 3.242-9.929 5.157-2.822 1.66-3.94 8.487-12.983 10.888a54.78 54.78 0 01-4.704-22.274c0-4.061.443-8.022 1.273-11.84 1.848-1.859 4.372-3.53 7.814-4.437 10.881-2.866 13.581-3.518 17.92-2.821 3.299.53 4.616 5.975 1.948 9.737z" fill="#AFCDFB"/><path d="M181.57 50.523s-6.686-1.339-10.305.951c-3.631 2.29-10.969 6.396-10.017 8.775.952 2.39 7.925 4.194 10.781 4.105 2.866-.1 11.256-4.393 14.787-4.105 3.531.288 1.517-9.505-5.246-9.726zm-31.789 65.471c-2.922 2.125-3.62 8.675-5.479 9.583-.941.453-2.38 2.091-3.587 3.607a55.2 55.2 0 01-19.038-16.808c3.31-2.29 9.497-6.163 13.792-6.274 0 0 2.147-.022 3.741-4.381.631-1.715 1.295-3.242 2.081-4.393 1.195-1.77 2.645-2.634 4.571-1.948.819.3 1.34.753 1.727 1.34 1.107 1.659 1.184 4.281 4.317 6.815 4.217 3.419.797 10.335-2.125 12.459z" fill="#AFCDFB"/><path d="M117.316 112.531h-1.073v22.894h1.073v-22.894z" fill="#1C468A"/><path d="M115.789 111.734c0-.586.442-1.051.996-1.051.553 0 .996.476.996 1.051 0 .587-.443 1.052-.996 1.052-.554 0-.996-.465-.996-1.052zm1.926 23.381h-1.926v.542h1.926v-.542z" fill="#1C468A"/><path d="M117.604 112.354h-1.627v.443h1.627v-.443z" fill="#1C468A"/><path d="M69.08 118.783c-6.11 0-12.674-.155-19.658-.531-17.931-.952-30.361-2.866-30.483-2.888l.188-1.328c.122.022 12.507 1.925 30.383 2.877 16.481.874 41.142 1.084 64.973-2.877l.199 1.328c-10.15 1.682-25.48 3.419-45.603 3.419zm99.185 0c-6.11 0-12.674-.155-19.658-.531-17.931-.952-30.361-2.866-30.483-2.888l.188-1.328c.122.022 12.508 1.925 30.384 2.877 16.481.874 41.142 1.084 64.972-2.877l.2 1.328c-10.15 1.682-25.491 3.419-45.603 3.419zm99.119 0a365.58 365.58 0 01-19.657-.531c-17.932-.952-30.362-2.866-30.483-2.888l.188-1.328c.122.022 12.507 1.925 30.383 2.877 16.481.874 41.142 1.084 64.973-2.877l.199 1.328c-10.15 1.682-25.48 3.419-45.603 3.419z" fill="#739AF0"/><path d="M18.22 112.531h-1.074v22.894h1.073v-22.894z" fill="#1C468A"/><path d="M16.692 111.734c0-.586.442-1.051.996-1.051.553 0 .996.476.996 1.051 0 .587-.443 1.052-.996 1.052-.554 0-.996-.465-.996-1.052zm1.926 23.381h-1.926v.542h1.926v-.542z" fill="#1C468A"/><path d="M18.507 112.354H16.88v.443h1.627v-.443zm2.789 1.87l-.254 1.582-2.27-.387.277-1.538 2.247.343z" fill="#1C468A"/><path d="M20.079 114.368a.658.658 0 00-.332-.244h-.011c-.011 0-.022-.011-.034-.011l-.664-.11-.387-.067a.59.59 0 00-.41.089c-.01.011-.022.011-.033.022a.597.597 0 00-.232.409.668.668 0 00.265.631.54.54 0 00.233.089l.343.055.144.022.564.089c.034 0 .067.011.089.011.288 0 .542-.222.587-.543a.693.693 0 00-.122-.442zm-.033.454c-.045.265-.266.442-.52.409l-.565-.089-.144-.022-.354-.055a.508.508 0 01-.255-.133.5.5 0 01-.133-.42.553.553 0 01.133-.266.194.194 0 01.056-.044.428.428 0 01.343-.089l.387.067.1.022.564.088a.486.486 0 01.3.189.41.41 0 01.088.343zm93.363.863l-.199-1.583 2.28-.343.166 1.56-2.247.366z" fill="#1C468A"/><path d="M116.531 114.401a.594.594 0 00-.288-.454.521.521 0 00-.387-.077l-.344.055-.708.111a.216.216 0 00-.089.022.5.5 0 00-.21.122.636.636 0 00-.199.575.672.672 0 00.232.421c.034.033.078.055.122.077.1.044.21.066.321.044l.664-.11.388-.067a.486.486 0 00.21-.077.637.637 0 00.177-.166c.1-.144.133-.31.111-.476zm-.222.387a.482.482 0 01-.299.2l-.387.066-.664.111a.418.418 0 01-.332-.089s-.011 0-.011-.011a.446.446 0 01-.177-.321.521.521 0 01.088-.365.454.454 0 01.299-.188l.709-.111.354-.055a.396.396 0 01.365.122.524.524 0 01.155.287.612.612 0 01-.1.354zm100.182-2.257h-1.074v22.894h1.074v-22.894z" fill="#1C468A"/><path d="M214.963 111.734c0-.586.443-1.051.997-1.051.553 0 .996.476.996 1.051 0 .587-.443 1.052-.996 1.052-.554 0-.997-.465-.997-1.052zm1.926 23.381h-1.926v.542h1.926v-.542z" fill="#1C468A"/><path d="M216.778 112.354h-1.627v.443h1.627v-.443zm-96.307 1.87l-.254 1.582-2.269-.387.276-1.538 2.247.343z" fill="#1C468A"/><path d="M119.253 114.368a.654.654 0 00-.332-.244h-.011c-.011 0-.022-.011-.033-.011l-.664-.11-.388-.067a.59.59 0 00-.409.089c-.011.011-.022.011-.033.022a.596.596 0 00-.233.409.67.67 0 00.266.631.539.539 0 00.232.089l.343.055.144.022.565.089c.033 0 .066.011.088.011.288 0 .543-.222.587-.543a.692.692 0 00-.122-.442zm-.022.454c-.044.265-.266.442-.52.409l-.565-.089-.144-.022-.354-.055a.507.507 0 01-.254-.133.499.499 0 01-.133-.42.546.546 0 01.133-.266c.022-.022.033-.033.055-.044a.428.428 0 01.343-.089l.388.067.099.022.565.088a.49.49 0 01.299.189c.077.088.099.21.088.343zm93.364.863l-.199-1.583 2.28-.343.155 1.56-2.236.366z" fill="#1C468A"/><path d="M215.705 114.401a.594.594 0 00-.288-.454.52.52 0 00-.387-.077l-.343.055-.708.111a.208.208 0 00-.089.022.494.494 0 00-.21.122.637.637 0 00-.2.575.673.673 0 00.233.421.444.444 0 00.122.077c.099.044.21.066.321.044l.664-.11.387-.067a.482.482 0 00.21-.077.62.62 0 00.288-.642zm-.221.387a.479.479 0 01-.299.2l-.387.066-.664.111a.42.42 0 01-.333-.089s-.011 0-.011-.011a.45.45 0 01-.177-.321.516.516 0 01.089-.365.452.452 0 01.299-.188l.708-.111.354-.055a.397.397 0 01.366.122.523.523 0 01.154.287.539.539 0 01-.099.354zm100.137-2.257h-1.073v22.894h1.073v-22.894z" fill="#1C468A"/><path d="M314.083 111.734c0-.586.443-1.051.996-1.051.554 0 .996.476.996 1.051 0 .587-.442 1.052-.996 1.052-.553 0-.996-.465-.996-1.052zm1.926 23.381h-1.926v.542h1.926v-.542z" fill="#1C468A"/><path d="M315.898 112.354h-1.627v.443h1.627v-.443zm-96.308 1.87l-.255 1.582-2.269-.387.288-1.538 2.236.343z" fill="#1C468A"/><path d="M218.383 114.368a.654.654 0 00-.332-.244h-.011c-.011 0-.022-.011-.033-.011l-.664-.11-.387-.067a.592.592 0 00-.41.089c-.011.011-.022.011-.033.022a.595.595 0 00-.232.409.667.667 0 00.265.631.543.543 0 00.233.089l.343.055.144.022.564.089c.033 0 .066.011.089.011.287 0 .542-.222.586-.543a.767.767 0 00-.122-.442zm-.033.454c-.044.265-.265.442-.52.409l-.564-.089-.144-.022-.354-.055a.506.506 0 01-.255-.133.499.499 0 01-.133-.42.555.555 0 01.133-.266c.022-.022.033-.033.055-.044a.43.43 0 01.343-.089l.388.067.099.022.565.088a.487.487 0 01.299.189.41.41 0 01.088.343zm93.364.863l-.199-1.583 2.28-.343.155 1.56-2.236.366z" fill="#1C468A"/><path d="M314.836 114.401a.594.594 0 00-.288-.454.521.521 0 00-.387-.077l-.344.055-.708.111a.216.216 0 00-.089.022.494.494 0 00-.21.122.636.636 0 00-.199.575.672.672 0 00.232.421c.034.033.078.055.122.077.1.044.21.066.321.044l.664-.11.388-.067a.486.486 0 00.21-.077.637.637 0 00.177-.166.725.725 0 00.111-.476zm-.222.387a.482.482 0 01-.299.2l-.387.066-.664.111a.417.417 0 01-.332-.089s-.011 0-.011-.011a.446.446 0 01-.177-.321.521.521 0 01.088-.365.454.454 0 01.299-.188l.709-.111.354-.055a.396.396 0 01.365.122.524.524 0 01.155.287.708.708 0 01-.1.354z" fill="#1C468A"/><path d="M105.107 44.647s-6.198-2.976-14.223-1.339c0 0 9.165-.63 14.6 5.19 0 0 3.796-5.831 10.083-7.16.011-.01-4.671-.575-10.46 3.31zm-17.477-2.81s-4.782-2.335-10.991-1.107c0 0 7.095-.442 11.268 4.083 0 0 2.966-4.492 7.836-5.5 0 0-3.62-.453-8.113 2.524zM72.2 39.712s-4.438-1.936-10.039-.575c0 0 6.431-.675 10.405 3.275 0 0 2.523-4.194 6.918-5.3 0-.011-3.31-.277-7.283 2.6zm-8.655-4.47s-3.122-1.03-6.808.243c0 0 4.295-.863 7.228 1.55 0 0 1.44-2.988 4.328-4.006 0 0-2.247.033-4.748 2.213zm30.969-10.965s-3.054-1.184-6.807-.111c0 0 4.34-.642 7.14 1.925 0 0 1.593-2.91 4.527-3.773 0 0-2.247-.1-4.86 1.959zm15.087 10.567s-4.272-2.147-9.862-1.118c0 0 6.376-.31 10.072 3.795 0 0 2.723-3.994 7.106-4.846 0 0-3.254-.443-7.316 2.169zm-5.955-6.684s-4.018-1.836-9.143-.697c0 0 5.878-.509 9.442 3.154 0 0 2.369-3.784 6.387-4.725 0 .022-3.011-.288-6.686 2.268z" fill="#9FC1F4"/><path d="M197.187 24.819c-5.346 0-9.674 4.658-9.674 10.401 0 5.743 9.674 14.916 9.674 14.916s9.674-9.173 9.674-14.916-4.328-10.401-9.674-10.401zm0 15.49a5.691 5.691 0 01-5.7-5.698 5.698 5.698 0 015.7-5.698 5.698 5.698 0 110 11.397z" fill="#F78E48"/><path d="M197.276 133.079s-.255 2.456.299 2.722c.553.265 7.15.033 7.15.033s-.022-.83-1.151-.985c-1.14-.155-3.144-.796-3.52-2.29-.365-1.494-2.778.52-2.778.52z" fill="#182C4C"/><path d="M195.715 70.55s4.317 1.693 4.771.72c.066-.388.121-.753.155-1.063.143-1.15.155-1.803.155-1.803l-2.845-2.302-.642-.52a7.375 7.375 0 01-.089 1.516.395.395 0 01-.022.11c-.454 2.767-1.483 3.343-1.483 3.343z" fill="#FFB27D"/><path d="M197.176 67.165s.011.01.022.044c.177.32 1.406 2.4 3.442 2.998.144-1.15.155-1.803.155-1.803l-2.844-2.302c-.377.443-.631.841-.731.996a.273.273 0 01-.044.067z" fill="#E8945B"/><path d="M201.615 68.337s-4.439.742-4.86-2.035c-.42-2.767-1.272-4.537 1.55-5.135 2.812-.586 3.531.388 3.896 1.273.366.896.565 5.632-.586 5.897z" fill="#FFB27D"/><path d="M197.574 65.582s-.586-.597-.254-.973c.343-.377.531.199.808.177.265-.023.752-.808.786-1.516.033-.72 2.612.376 3.652.033 1.041-.343 1.948-1.726.321-2.468-.952-.442-5.711-2.7-7.515-.409-2.303 2.921.775 5.986 1.184 6.45.41.466.642.333.642.333s.731-.974.376-1.627z" fill="#2C3A64"/><path d="M195.283 60.703c.011-.21.056-.775.255-1.129 0 0-.011.586.066.885.078.299-.321.244-.321.244z" fill="#2C3A64"/><path d="M194.807 60.227s.565.055.598.498l-.199.265s.033-.553-.399-.763z" fill="#2C3A64"/><path d="M190.701 133.079s-.266 2.523.287 2.788c.233.111 7.427.044 7.427.044s-.287-.896-1.427-1.062c-1.14-.155-3.144-.797-3.52-2.29-.354-1.494-2.767.52-2.767.52z" fill="#233862"/><path d="M194.121 95.325s.011.266.011.752c.067 3.132.332 15.248.587 21.998l.033.719c0 .122.011.243.011.365.155 3.264.598 6.462 1.041 9.018.575 3.264 1.151 5.477 1.151 5.477 2.18.443 3.586-.387 3.586-.387s.586-5.057.808-8.122c.077-.996.432-4.382.885-8.509.343-3.187.753-6.816 1.118-10.113.022-.177.033-.354.056-.52.597-5.334 1.095-9.682 1.095-9.682l-3.851-.365-6.531-.631z" fill="#2B478B"/><path d="M195.815 128.177l6.431-11.541c.343-3.186.752-6.816 1.117-10.113.023-.177.034-.354.056-.52.598-5.334 1.096-9.682 1.096-9.682l-3.852-.365-6.531.132 1.683 32.089z" fill="#233862"/><path d="M203.795 96.343s-3.597 17.77-6.53 26.346c-2.934 8.575-2.967 10.954-2.967 10.954s-2.689.587-3.874-.088c0 0-.675-16.255 1.096-20.57 1.173-2.855 2.07-8.93 1.76-11.121-.31-2.19-.587-6.583-.587-6.583l11.102 1.062z" fill="#2B478B"/><path d="M193.656 97.295c.853.597 2.192.818 3.664.796 1.727-.033 3.63-.387 5.158-.84.819-.244 1.527-.52 2.037-.786 2.28-1.184.487-18.988-2.546-23.823-1.384-2.213-5.59-2.9-5.59-2.9-.675.322-2.535 3.862-2.645 6.308-.122 2.722.121 6.14.121 9.272 0 2.578-.487 4.869-.841 6.761-.454 2.456-.697 4.26.642 5.212z" fill="#B64C41"/><path d="M197.331 98.091c1.727-.033 3.63-.387 5.158-.84.642-1.539.919-4.095.332-8.322-.454-3.22-3.741-16.199-3.741-16.199-2.679-.343-8.069 18.213-1.749 25.361z" fill="#963333"/><path d="M196.589 104.487a1.87 1.87 0 01.864-1.638c.896-.586 2.435-1.283 4.549-1.15 3.564.221 4.361 2.201 4.472 3.728.11 1.527 1.306 3.729 1.582 5.433.288 1.693.753 6.009-1.771 6.352-2.523.343-10.991 0-10.991 0s-1.97-2.313 0-6.75c1.174-2.622 1.318-4.813 1.295-5.975z" fill="#056D35"/><path d="M197.674 102.207l.676-.121s-.023-.62.21-1.074c.188-.354.487-.553.908-.586.398-.033.708.111.907.432.288.453.288 1.15.288 1.15h.675c0-.044 0-1.173-.498-1.98-.343-.554-.819-.797-1.417-.764-.62.056-1.085.387-1.394.996-.41.852-.355 1.903-.355 1.947z" fill="#D37129"/><path d="M193.579 117.212s8.467.343 10.991 0c2.523-.332 2.059-4.648 1.771-6.352-.277-1.693-1.472-3.906-1.583-5.433a4.65 4.65 0 00-.155-.918c-.365-1.306-1.439-2.633-4.306-2.81-2.114-.133-3.652.564-4.549 1.15a1.92 1.92 0 00-.874 1.638c0 .133.011.299.011.465-.022 1.239-.266 3.208-1.295 5.521-1.993 4.437-.011 6.739-.011 6.739z" fill="#01BA57"/><path opacity=".4" d="M205.201 111.491h-5.059s-.343 3.696 2.07 3.806c2.424.111 3.066-1.438 2.989-3.806z" fill="#056D35"/><path d="M205.201 111.491s-.863 1.317-2.457 1.284c-1.583-.034-2.601-1.284-2.601-1.284h5.058z" fill="#056D35"/><path opacity=".4" d="M199.124 111.491h-5.058s-.343 3.696 2.07 3.806c2.424.111 3.066-1.438 2.988-3.806z" fill="#056D35"/><path d="M199.124 111.491s-.863 1.317-2.457 1.284c-1.583-.034-2.601-1.284-2.601-1.284h5.058z" fill="#056D35"/><path opacity=".4" d="M194.863 104.487c0 .133.011.299.011.465.929 1.172 2.512 2.567 4.648 2.5 3.62-.11 5.081-2.932 5.081-2.932-.365-1.306-1.439-2.633-4.306-2.81-2.114-.133-3.652.564-4.549 1.15a1.824 1.824 0 00-.885 1.627z" fill="#056D35"/><path d="M199.633 108.183a.41.41 0 00.41-.41v-.376a.408.408 0 00-.41-.409.408.408 0 00-.409.409v.376a.402.402 0 00.409.41z" fill="#056D35"/><path d="M200.12 98.158s1.096 2.124.554 2.943c-.554.819-2.513-.232-2.668-.708-.155-.476 0-2.744 0-2.744l2.114.509z" fill="#DA935B"/><path d="M200.297 98.091s.498.465.532.82c.033.353.42 1.117.321 1.194-.321.232-.853-.72-.853-.72l-.188-1.04.188-.254z" fill="#DA935B"/><path d="M194.497 76.902s.521 7.38.51 10.434c-.011 3.054 2.424 11.176 2.424 11.176s1.605.132 2.235.044c.731-.089 1.163-.432 1.163-.432s-.532-9.593.487-13.266c1.018-3.674 1.073-11.066 1.073-11.066s-.564-1.593-3.951-1.095c-4.018.597-3.941 4.205-3.941 4.205z" fill="#B64C41"/><path d="M94.98 68.205s-3.144-1.649-7.638-1.98a5.282 5.282 0 00-5.401 3.606 4.796 4.796 0 00-.122.41c-1.051 3.795-.476 15.303 3.077 18.301C88.45 91.541 94.98 90.28 94.98 90.28V68.205z" fill="#233862"/><path d="M104.776 95.004l-.83 10.468c-.609 7.756-2.923 27.098-2.923 27.098s.487.774-1.892.265c0 0-2.922-6.583-3.531-14.163l-.033-.376c-.565-7.712-1.44-23.956-1.44-23.956l10.649.664z" fill="#2B478B"/><path d="M104.909 93.356s-.51 6.395-.963 12.105l-8.346 13.2-.033-.376c-.565-7.712-1.44-23.956-1.44-23.956l10.782-.973z" fill="#233862"/><path d="M103.038 92.16l-14.345 41.273s-1.505-.288-1.837-.941c0 0-.41-17.46 2.014-21.665 1.373-2.379 2.07-9.051 2.17-11.308.287-6.706.996-8.531.996-8.531l11.002 1.172z" fill="#2B478B"/><path d="M98.787 135.956h1.162c.388-.067.675-.177 1.085-.233.609-.077.885.166.941.233l.011.011h4.959c.121-.177 0-.587-.111-.896a.68.68 0 00-.465-.421c-.531-.155-1.561-.288-2.513-1.151-.531-.487-2.579-1.77-2.579-1.77h-.011c-.044 0-.254.066-1.195.852-.476.409-1.306-.575-1.306-.575s-.155.132-.266.365a1.33 1.33 0 00-.11.763c.077.443-.166 1.273-.355 1.837-.11.343-.21.586-.21.586s-.044.266.963.399z" fill="#233862"/><path d="M98.787 135.967h1.162c.388-.067.687-.188 1.085-.244.609-.077.886.166.941.233l.011.011h4.959c.121-.177 0-.587-.111-.896-.155-.133-.188.586-.277.697-.088.11-4.051.044-4.272-.122-.233-.166-.919-.454-1.871-.232-.83.199-2.058-.31-2.368-.443-.111.343-.21.586-.21.586s-.056.288.951.41zm-11.931-.011h1.173c.387-.067.675-.177 1.085-.233.608-.077.885.166.94.233l.011.011h4.96c.12-.177 0-.587-.112-.896a.679.679 0 00-.464-.421c-.532-.155-1.561-.288-2.513-1.151-.531-.487-2.579-1.77-2.579-1.77h-.011c-.044 0-.255.066-1.195.852-.476.409-1.306-.575-1.306-.575s-.156.132-.266.365a1.33 1.33 0 00-.11.763c.077.443-.167 1.273-.355 1.837-.11.343-.21.586-.21.586s-.056.266.952.399z" fill="#233862"/><path d="M86.856 135.967h1.162c.387-.067.686-.188 1.084-.244.61-.077.886.166.941.233l.011.011h4.96c.12-.177 0-.587-.112-.896-.155-.133-.188.586-.276.697-.089.11-4.051.044-4.273-.122-.232-.166-.918-.454-1.87-.232-.83.199-2.06-.31-2.37-.443-.11.343-.21.586-.21.586s-.055.288.953.41z" fill="#233862"/><path d="M94.228 67.54s4.648 2.291 7.338 1.44c0 0-.664-.842-1.815-1.483.066-.388.121-.753.155-1.063.144-1.15.155-1.803.155-1.803l-2.845-2.302-.642-.52a7.406 7.406 0 01-.088 1.516.392.392 0 01-.023.11c-.464 2.767-2.235 4.106-2.235 4.106z" fill="#FFB27D"/><path d="M91.57 91.884c-.01.299.599.62.864.741 1.174.531 2.303.963 3.465 1.262.808.21 1.627.365 2.49.453 2.491.255 5.435-.31 6.442-.287a.467.467 0 00.288-.111c.066-.055.122-3.098.066-6.927 0-.144 0-.31-.011-.454v-.055a131.976 131.976 0 00-.133-4.625c-.143-3.441-.42-6.772-.874-8.609-.542-2.168-2.579-4.88-3.929-5.62-1.14-.631-4.904-1.284-5.092-1.151-2.203 1.648-3.42 6.528-3.398 12.06v.532c.011.575.033 1.15.066 1.737.244 4.083-.01 7.624-.143 9.682-.056.575-.089 1.04-.1 1.372z" fill="#01BA57"/><path d="M96.441 63.403s.011.01.022.044c.177.32 1.406 2.4 3.443 2.998.143-1.15.155-1.803.155-1.803l-2.845-2.302c-.376.443-.63.841-.73.996-.023.044-.045.067-.045.067z" fill="#E8945B"/><path d="M100.879 64.564s-4.438.742-4.859-2.036c-.42-2.766-1.272-4.536 1.55-5.134 2.811-.586 3.531.388 3.896 1.273.365.907.565 5.632-.587 5.897z" fill="#FFB27D"/><path d="M96.84 61.82s-.587-.597-.255-.974c.343-.376.531.2.808.178.266-.023.753-.808.786-1.516.033-.72 2.612.376 3.652.033 1.041-.343 1.949-1.726.321-2.468-.951-.442-5.711-2.7-7.515-.41-2.302 2.922.775 5.987 1.184 6.452.41.465.642.332.642.332s.73-.985.377-1.627z" fill="#2C3A64"/><path d="M94.538 56.94c.01-.21.055-.774.254-1.128 0 0-.01.586.067.885.088.288-.321.244-.321.244z" fill="#2C3A64"/><path d="M94.072 56.465s.564.055.598.498l-.2.265c-.01-.01.034-.564-.398-.763z" fill="#2C3A64"/><path d="M91.637 81.571l-.133-.84c2.06-.333 3.72-1.328 4.948-2.944.93-1.217 1.572-2.822 1.782-4.382.41-3.031-.387-4.758-2.446-5.278-1.837-.464-3.963.974-3.985.985l-.487-.708c.1-.066 2.457-1.67 4.682-1.107 1.727.443 3.664 1.87 3.077 6.23-.133 1.007-.564 2.966-1.959 4.791-1.35 1.782-3.199 2.877-5.479 3.253z" fill="#233862"/><path d="M99.74 86.628s.586-.299.907-.443c.321-.143.941-.53.996-.254.045.276.299.797-.287.896-.598.089-1.616-.199-1.616-.199z" fill="#FFB27D"/><path d="M103.193 84.548l.409.121c.2.056.421-.055.476-.254l.078-.255c.055-.199-.056-.42-.255-.475l-.409-.122c-.2-.055-.421.055-.476.254l-.078.255c-.066.2.044.41.255.476z" fill="#415DA5"/><path d="M101.831 84.304l-1.439 4.836a.62.62 0 00.421.774l1.837.543a.62.62 0 00.775-.421l1.439-4.835a.62.62 0 00-.421-.775l-1.837-.542a.62.62 0 00-.775.42z" fill="#CADEFF"/><path d="M101.776 84.504l-1.384 4.636a.62.62 0 00.421.774l1.837.543a.62.62 0 00.775-.421l1.351-4.548c-.266-.088-.897-.276-1.34-.243-.442.033-1.273-.476-1.66-.742z" fill="#86B1FC"/><path d="M100.747 87.96l3.024.897.901-3.034-3.024-.897-.901 3.033z" fill="#415DA5"/><path d="M102.451 86.506c-.819-.21-1.561.299-2.712.122 0 0-5.678-3.983-6.674-4.98-.72-.718 2.17-3.972 3.674-6.483a.64.64 0 01-.232-.078c-1.151-.686-3.465-1.925-5.368-2.113a.527.527 0 01-.2-.056c-1.217 2.645-2.479 6.053-2.866 9.516a1.35 1.35 0 00.454 1.162c1.394 1.206 5.235 3.353 9.85 4.68 0 0 1.03.698 2.015.875.985.188 1.395-.365 2.834.465.664.376.874-.432.785-.852-.099-.576-.641-2.025-1.56-2.258z" fill="#FFB27D"/><path d="M93.574 68.271s-2.346 2.29-3.453 5.533c0 0 2.202 1.914 6.32 2.301 0 0 1.693-3.11.454-4.691-1.229-1.572-3.321-3.143-3.321-3.143z" fill="#01BA57"/><path d="M63.357 80.84s-.122 6.02.166 7.78c.298 1.759-.388 9.925-.388 9.925l-1.405-.177s-3.531-13.344-3.166-15.048c.354-1.727 4.793-2.48 4.793-2.48z" fill="#FFB27D"/><path d="M63.135 98.534s.542 1.826.41 2.18c-.133.354-.82 1.073-1.395 1.527-.576.442-.066-1.173.044-1.693s-.73-.565-.598-1.372l.133-.808 1.406.166z" fill="#FFB27D"/><path d="M61.596 99.176s0 1.516-.01 1.814c-.012.299.298.022.342-.232.045-.266.31-.697.443-.741.133-.045-.775-.841-.775-.841z" fill="#FFB27D"/><path d="M52.963 121.737c.51 5.101 2.335 12.935 2.335 12.935l1.428-1.029s2.502-17.582 2.911-19.021c2.845-9.936 3.166-19.706 3.166-19.706l-8.324-2.457c-.852 1.428-1.505 3.773-1.306 6.418.886 11.596-.819 16.752-.21 22.86z" fill="#233862"/><path d="M44.55 98.788s-.032.565-.464 1.118c-.1.122-.387.454-.487.332-.11-.122.299-1.007.055-1.55-.077-.187.897.1.897.1z" fill="#FFB27D"/><path d="M61.386 135.181a.556.556 0 00-.376-.343c-.42-.122-1.262-.232-2.026-.929-.431-.388-2.08-1.439-2.08-1.439h-.012c-.033 0-.21.056-.963.686-.387.332-1.051-.464-1.051-.464s-.122.099-.221.298a.975.975 0 00-.089.62c.055.365-.133 1.029-.288 1.483-.088.276-.177.464-.177.464s-.044.222.764.332h.94c.322-.055.554-.143.875-.188.487-.066.72.133.764.188l.011.011h4.007c.11-.143.022-.475-.078-.719z" fill="#37598C"/><path d="M48.293 121.35c.509 5.101 2.224 13.101 2.224 13.101l1.262.409s2.778-19.186 3.188-20.614c2.845-9.936 3.287-21.742 3.287-21.742l-8.434-.421c-.852 1.427-1.505 3.773-1.306 6.418.874 11.585-.83 16.741-.221 22.849z" fill="#2B478B"/><path d="M56.638 135.181a.555.555 0 00-.377-.343c-.42-.122-1.261-.232-2.025-.929-.432-.388-2.081-1.439-2.081-1.439h-.011c-.033 0-.21.056-.963.686-.387.332-1.018-.487-1.018-.487s-.155.122-.255.31a.974.974 0 00-.088.62c.055.365-.133 1.029-.288 1.483-.089.276-.177.464-.177.464s-.045.222.763.332h.941c.321-.055.554-.144.875-.188.487-.066.72.133.763.188l.011.011h4.007c.111-.132.011-.464-.077-.708z" fill="#466AA5"/><path d="M29.1 133.909a1.413 1.413 0 01-.776 1.881c-.752.31-1.616-.022-1.937-.753a1.413 1.413 0 01.775-1.881c.742-.309 1.616.022 1.937.753zm10.58 0a1.412 1.412 0 01-.774 1.881c-.753.31-1.616-.022-1.937-.753a1.413 1.413 0 01.775-1.881c.741-.309 1.616.022 1.937.753z" fill="#1C468A"/><path d="M26.044 133.732l2.092.73c.21.077.432.111.664.111l11.899-.122 1.295-2.091-15.95 1.372zm6.763-23.104l3.32-8.022v-.011c.023-.067.543-1.793 3.531-2.18h.011l2.469-.454c.32-.077 1.24-.221 1.66.122.188.155.266.398.233.73-.067.675-2.27 5.876-3.742 9.206l.476.2c.377-.852 3.697-8.399 3.786-9.361.044-.509-.089-.897-.41-1.162-.686-.565-1.97-.266-2.114-.233l-2.435.443c-3.22.42-3.885 2.313-3.951 2.534l-3.31 8 .476.188z" fill="#DD772A"/><path d="M39.183 108.249l6.42 1.25s1.87.742 1.505 3.928c-.332 2.8-1.76 18.534-1.76 18.534s-.299 3.276-7.504 2.324l1.34-26.036z" fill="#DD772A"/><path d="M42.747 112.575l-1.727 17.627a3.855 3.855 0 01-.73 1.914 4.109 4.109 0 01-3.32 1.682l-5.956.033h-.144l-3.73.022c-.376 0-.741-.044-1.085-.132l-.232-.067a4.08 4.08 0 01-2.656-2.689 3.973 3.973 0 01-.111-1.704l2.7-16.863c.288-1.792 1.794-3.175 3.664-3.352l1.052-.1.254-.022.21-.022 3.52-.332.432-.044 3.398-.31a4.36 4.36 0 011.528.133l.1.033.199.066c1.649.62 2.811 2.269 2.634 4.127z" fill="#F99746"/><path d="M40.29 132.116a4.109 4.109 0 01-3.32 1.682l-5.955.033h-.144l-3.73.022a4.37 4.37 0 01-1.085-.132 19.725 19.725 0 00-.233-.067c-1.295-.42-2.778-1.936-2.8-3.541 0 0 12.596-.154 15.23.233 1.35.21 1.75 1.128 2.037 1.77z" fill="#EF8A3F"/><path d="M30.926 108.924c-.022.011-2.79 1.649-3.155 3.087-.376 1.472-2.867 18.678-2.889 18.855 0 .011-.066 1.682 1.35 2.91l-.188-.044-.232-.067c-1.328-1.283-1.151-2.766-1.14-2.832.1-.709 2.523-17.395 2.9-18.877.332-1.306 2.28-2.601 2.91-2.988l.256-.022.188-.022zm3.951-.376c-.398.265-1.915 1.383-2.236 3.452-.376 2.423-1.86 20.039-1.881 20.216v.022c0 .011-.21.963.398 1.604h-.299c-.586-.697-.354-1.538-.32-1.659.043-.543 1.505-17.804 1.88-20.216.278-1.782 1.407-2.888 2.027-3.375l.431-.044zm5.213-.078c-.01.011-.586.321-1.084.863a4.89 4.89 0 00-1.218 2.567c-.376 2.424-1.56 19.973-1.572 20.15v.022c0 .011-.055 1.084.554 1.726h-.377c-.464-.586-.442-1.66-.398-1.781.033-.565 1.195-17.749 1.572-20.161.354-2.257 1.904-3.297 2.225-3.496l.1.033.198.077z" fill="#DD772A"/><path d="M62.925 96.63c-.73.864-7.15.698-8.59.377-.984-.221-1.76-1.261-2.302-3.132-.177 1.306-.586 2.822-1.494 2.922-1.494.155-2.103-.1-2.291-.664-.033-.089.277-4.028.531-7.978.177-2.722.343-5.466.365-6.96v-.498c-2.357-.133-3.287-.022-3.287-.022s1.118-3.64 3.708-6.595c2.391-2.733 8.08-1.914 10.394-1.239 1.45.431 2.822 1.992 2.114 5.3-.42 1.947.177 5.068.42 9.67.222 4.405.587 8.632.432 8.82z" fill="#739AF0"/><path d="M61.154 73.483s1.782 1.45 2.812 8.022c0 0-.576.797-2.28.575-1.716-.21-.532-8.597-.532-8.597z" fill="#739AF0"/><path d="M59.173 62.053s-4.14-4.692-6.166-1.56c0 0-1.56.697-2.058 3.407-.51 2.756 1.372 4.792 2.302 4.25.598-.344 1.085.697 1.085.697l4.837-6.794z" fill="#233862"/><path d="M53.428 59.995s-.597-2.136-3.74-1.373c0 0 1.504-.232 1.936.343 0 0-1.218-.52-1.948-.033-.742.476-.82 2.025-.697 2.5.121.466.996 1.849 1.538 1.827.554-.011 1.185-.52 1.185-.52l1.726-2.744z" fill="#233862"/><path d="M54.037 72.11c-.089-.464.376-1.283.299-3.883l.199.033 3.41.575s.077 2.767.11 3.774c.01.83-4.084.243-4.018-.498z" fill="#FFB27D"/><path d="M57.933 68.835s.033 1.007.055 2.003c-1.893 0-3.022-1.637-3.464-2.578l3.409.575z" fill="#E8945B"/><path d="M54.17 67.895s-1.041-1.538-1.318-2.877c-.199-.952.189-4.514 3.775-4.105 0 0 1.04.077 2.025.708.786.498 1.937 1.593.775 4.725l-.299 1.05-4.959.499z" fill="#233862"/><path d="M58.597 69.765s-4.483.2-4.56-2.59c-.078-2.788-.709-4.647 2.147-4.89 2.856-.243 3.442.808 3.697 1.726.255.93-.122 5.632-1.284 5.754z" fill="#FFB27D"/><path d="M58.221 62.163s-1.14 3.309-3.01 3.84c-1.871.53-2.701.055-2.701.055s1.416-1.184 1.66-3.198c0 0 3.077-2.235 4.051-.697z" fill="#233862"/><path d="M57.922 62.429s.94.708 1.184 1.405c.244.708.388 2.169.808 2.102 0 0 .864-2.246-.21-3.485-1.14-1.295-1.782-.022-1.782-.022z" fill="#233862"/><path d="M58.1 62.54s-.776 3.452-3.122 4.613c0 0 2.313-2.168 2.457-4.437.133-2.268.664-.177.664-.177z" fill="#233862"/><path d="M43.51 96.432s-1.117 1.305-1.239 1.98c-.122.675-.055 2.49.288 2.556.365.067.586-1.184.708-1.438.399-.83 1.184-.443 1.295-.742.1-.298.21-1.737.21-1.737l-1.261-.62zm3.797-17.904s-3.022 5.898-3.199 8.365c-.166 2.468-.586 9.528-.586 9.528l1.25.63s2.59-9.305 2.757-10.71c.177-1.572 5.313-6.784 5.313-6.784l-5.535-1.029z" fill="#FFB27D"/><path d="M52.687 76.26H48.17l-2.313 4.393s3.686 3.043 7.35 1.814c3.663-1.239-.52-6.207-.52-6.207z" fill="#739AF0"/><path d="M278.928 125.123h4.195s.919.155 1.296 2.943c.376 2.789 1.483 7.757 1.483 7.757h-5.557l-1.417-10.7z" fill="#163560"/><path d="M281.762 135.812c-.487-.055-22.58 0-22.58 0s-.896-.122-.099-3.917a3.53 3.53 0 00.077-.609c.067-1.029-.11-2.268-.044-3.253 0 0-.288-3.175 3.951-2.91 4.24.266 11.955.288 14.866-.011 2.911-.299 3.575 1.959 3.442 3.386-.022.232-.011.575.011.996.144 2.18.786 6.373.376 6.318z" fill="#1C468A"/><path d="M275.21 126.429c-.011-.022-1.461-2.357-3.863-2.512-2.424-.144-4.848 2.235-4.881 2.257l-.521-.52c.111-.11 2.679-2.644 5.446-2.478 2.789.166 4.383 2.755 4.45 2.866l-.631.387z" fill="#1C468A"/><path d="M256.028 120.553a2.254 2.254 0 011.04-1.958c1.074-.697 2.911-1.527 5.435-1.372 4.261.265 5.202 2.633 5.346 4.459.133 1.826 1.55 4.459 1.893 6.484.343 2.025.907 7.181-2.114 7.591-3.022.409-13.128 0-13.128 0s-2.357-2.756 0-8.067c1.395-3.142 1.572-5.765 1.528-7.137z" fill="#5D8FE8"/><path d="M253.98 120.553a2.253 2.253 0 011.041-1.958c1.073-.697 2.911-1.527 5.434-1.372 4.262.265 5.202 2.633 5.346 4.459.133 1.826 1.55 4.459 1.893 6.484.343 2.025.908 7.181-2.114 7.591-3.022.409-13.127 0-13.127 0s-2.358-2.756 0-8.067c1.383-3.142 1.56-5.765 1.527-7.137z" fill="#739AF0"/><path d="M266.144 128.907h-6.032s-.41 4.415 2.479 4.548c2.878.144 3.653-1.704 3.553-4.548z" fill="#5D8FE8"/><path d="M266.145 128.907s-1.041 1.583-2.934 1.527c-1.892-.044-3.11-1.527-3.11-1.527h6.044z" fill="#739AF0"/><path d="M258.883 128.907h-6.043s-.409 4.415 2.479 4.548c2.889.144 3.653-1.704 3.564-4.548z" fill="#5D8FE8"/><path d="M258.883 128.907s-1.04 1.583-2.933 1.527c-1.893-.044-3.11-1.527-3.11-1.527h6.043z" fill="#739AF0"/><path d="M257.976 125.499h3.21a2.711 2.711 0 002.701-2.7 2.711 2.711 0 00-2.701-2.699h-3.21a2.711 2.711 0 00-2.701 2.699c0 1.483 1.218 2.7 2.701 2.7z" fill="#5D8FE8"/><path d="M263.643 119.867s-1.439 2.191-4.062 2.125c-2.623-.067-4.306-2.125-4.306-2.125h8.368zm-6.298-2.047l.808-.077s-.033-.432.254-.764c.222-.254.587-.387 1.085-.409.476-.022.852.077 1.085.31.343.321.354.807.354.819h.808c0-.034 0-.83-.598-1.406-.409-.398-.974-.564-1.693-.542-.731.033-1.295.277-1.66.708-.521.587-.454 1.328-.443 1.361z" fill="#739AF0"/><path d="M242.048 132.614s.199 3.154.808 3.198c.078.011 3.088.011 3.088.011l3.841-.022s-.022-.93-1.151-1.118c-1.129-.199-3-.984-3.686-2.467-.708-1.571-2.9.398-2.9.398z" fill="#163560"/><path d="M241.827 132.835s1.173.388 2.081.388c1.018 0 1.948-.277 1.948-.277s.221-2.124 1.428-6.816c.63-2.456 1.538-5.61 2.833-9.538 3.564-10.844 4.649-17.195 4.749-17.793 0-.033.011-.044.011-.044h-.011l-10.958-4.813s1.35 14.949-.377 20.68a23.705 23.705 0 00-.631 2.745c-1.095 6.24-1.073 15.468-1.073 15.468z" fill="#01BA57"/><path d="M242.9 117.378l4.383 8.763c.631-2.456 1.539-5.61 2.834-9.538 3.564-10.844 4.649-17.195 4.748-17.792v-.056l-10.958-4.813s1.351 14.949-.376 20.68a23.921 23.921 0 00-.631 2.756z" fill="#0B924A"/><path d="M250.615 132.614s.199 3.154.808 3.198c.078.011 3.088.011 3.088.011l3.841-.022s-.022-.93-1.151-1.118c-1.129-.199-3-.984-3.686-2.467-.708-1.571-2.9.398-2.9.398z" fill="#163560"/><path d="M256.824 94.296s.144 9.682-1.538 21.577c-1.672 11.895-1.107 16.94-1.107 16.94s-1.151.376-1.616.41c-1.184.099-2.402-.277-2.402-.277s-2.402-11.895-1.716-17.848c.687-5.953-3.287-20.426-3.287-20.426l11.666-.376z" fill="#01BA57"/><path d="M247.97 71.325s-5.557 5.665-5.833 7.9c-.277 2.236 2.734 5.732 2.734 5.732l3.099-13.632z" fill="#5D8FE8"/><path d="M249.055 71.624l2.136 1.405 3.088-.575c-.044-.255-.243-1.284-.431-2.224l-.034-.166a126.52 126.52 0 00-.298-1.483l-2.889-1.273-1.074-.475c0 .022.089.885.1 1.007.21 2.257-.598 3.784-.598 3.784z" fill="#FFB27D"/><path d="M253.493 70.916c-.055-.022-3.498-1.284-3.896-1.151-.399.133-1.162 1.195-1.162 1.195l6.298 1.228c0 .011-.476-.951-1.24-1.272z" fill="#5D8FE8"/><path d="M243.631 95.491c.62 2.833 10.958 3.165 13.615.597.298-.287.32-1.66.199-3.496-.222-3.596-.941-8.996-.974-11.751-.011-1.328-.2-2.7-.443-3.928a32.444 32.444 0 00-1.306-4.703s-5.047-1.626-5.988-1.35c-4.538 1.317-5.723 21.798-5.103 24.631z" fill="#739AF0"/><path d="M257.455 92.592c-.221-3.596-.94-8.996-.974-11.751-.011-1.328-.199-2.7-.442-3.928l-3.033-.531c0-.011-2.966 12.116 4.449 16.21z" fill="#5D8FE8"/><path d="M249.874 67.884c.63 1.073 2.999 2.003 3.984 2.346l-.033-.166c-.155-.797-.299-1.483-.299-1.483l-2.889-1.273c-.642 0-1.029.133-.763.576z" fill="#FCA56B"/><path d="M254.611 68.415s-4.649 1.45-5.512-1.46c-.863-2.91-2.037-4.681.896-5.732 2.934-1.051 3.841-.11 4.362.796.531.897 1.45 5.942.254 6.396z" fill="#FFB27D"/><path d="M254.179 61.732s-.299 3.386-.996 3.242c-.697-.144-1.339-.255-1.229.763.1 1.018 0 2.457-2.158 2.634-2.159.177-4.184-5.643-3.597-6.695 1.704-3.043 10.459-3.651 7.98.056z" fill="#163560"/><path d="M256.083 87.137s.398.885.764 1.062c.464.233.774.587.808.742.132.509.077 1.46-.321 1.958-.266.343.022-1.173-1.417-1.516-.465-.11-1.129-.465-1.129-1.106-.011-.764.088-1.34.088-1.34l1.207.2z" fill="#FFB27D"/><path d="M254.876 88.675s.72 1.638.908 1.582c.498-.155-.055-.73-.011-1.195.033-.31-.897-.387-.897-.387z" fill="#FFB27D"/><path d="M252.419 71.469s2.966.553 5.324 4.028c2.358 3.474 3.907 6.063 3.476 7.314-.432 1.25-3.354 5.598-4.029 5.598-.687 0-2.491-.453-2.557-1.57 0 0 1.948-4.327 1.671-5.113-.31-.84-3.387-2.744-3.874-1.505-.808 2.047-.011-8.752-.011-8.752z" fill="#739AF0"/><path d="M148.352 92.692s.255.298.41.475c.143.177.332.874.232.996s-.708.288-.719-.077c-.034-.354.077-1.394.077-1.394zm22.546-2.844s.554 1.261 1.616 1.505c1.296.31 1.871 1.947 1.871 2.312 0 .376-1.66-.84-2.313-.863-.653-.022-1.008.31-1.45-.553-.443-.874-1.007-1.715-1.007-1.715l1.283-.686z" fill="#FFB27D"/><path d="M154.296 90.368a3.52 3.52 0 001.561-.343c5.622-2.788.398-21.953.398-21.953s-.232-.952-1.284-1.328c-.387-.133-1.262-.122-2.291-.2-3.365-.242-3.531 1.716-3.642 2.413-.133.686-2.8 21.367 5.258 21.41z" fill="#2B478B"/><path d="M155.857 90.014c5.623-2.789.398-21.953.398-21.953s-.265-.863-1.284-1.328c-2.169.575-2.623 1.605-2.745 2.213-.11.653-2.402 18.401 3.631 21.068zm4.139 42.821s-.31 2.501.255 2.778c.564.276 7.283.188 7.283.188s0-.841-1.151-1.029c-1.151-.188-3.188-.874-3.531-2.401-.354-1.527-2.856.464-2.856.464z" fill="#233862"/><path d="M166.073 94.694l-.83 10.423c-.609 7.735-1.34 17.229-1.406 19.021-.122 3.121-.62 8.122-.62 8.122s-1.184 1.184-3.564.686c0 0-2.114-7.137-2.723-14.683l-.033-.376c-.565-7.68-1.439-23.857-1.439-23.857l10.615.664z" fill="#2B478B"/><path d="M166.073 94.694l-.83 10.424-8.313 13.156-.033-.376c-.565-7.68-1.439-23.857-1.439-23.857l10.615.653z" fill="#233862"/><path d="M164.346 95.259s-6.84 17.139-11.334 25.206c-4.494 8.055-5.9 10.301-5.9 10.301s-2.579-1.029-2.811-1.737c0 0 1.715-15.557 4.737-19.342 1.705-2.146 3.697-8.575 3.797-10.821.088-2.246.608-6.695.608-6.695l10.903 3.088z" fill="#2B478B"/><path d="M162.642 70.174c-2.679.841-7.295-1.438-7.295-1.438s1.727-1.295 2.214-3.973c.089-.52.144-1.095.122-1.715l2.501 2.014.974.786s0 .265-.044.752a31.14 31.14 0 01-.265 2.103 6.573 6.573 0 011.793 1.471z" fill="#FFB27D"/><path d="M170.932 91.386c.598-.487.719-.863.719-.863s-4.837-6.617-5.246-7.27c-.41-.642-3.453-11.01-3.453-11.01l-7.704-1.56s6.431 13.267 7.493 14.883c1.76 2.666 7.294 6.318 7.294 6.318s.454-.144.897-.498z" fill="#0B924A"/><path d="M152.901 92.957c-.011.155.166.332.377.476.166.122.365.21.487.265.586.266 1.173.498 1.737.709 1.362.509 2.712.852 4.173.996 1.561.154 3.299 0 4.627-.133.742-.089 1.361-.155 1.727-.155h.044c.111 0 .21-.044.288-.11.055-.045.11-2.38.077-5.522 0-.443-.011-.897-.011-1.361 0-.144 0-.31-.022-.465v-.044a108.155 108.155 0 00-.133-4.581v-.033c-.144-3.43-.409-6.728-.874-8.565-.421-1.693-2.092-3.607-3.343-4.846a5.023 5.023 0 00-2.025-1.228c-1.329-.41-3.376-.963-3.797-.598-.321.255-.62.575-.885.963-.023.01-.023.01-.023.022h-.011c-.221.31-.42.664-.608 1.062-.31.62-.565 1.339-.786 2.136-.598 2.146-.897 4.857-.886 7.756 0 .742.022 1.483.067 2.235l.033.631a67.6 67.6 0 01.033 5.134v.045a74.54 74.54 0 01-.21 3.817c-.011.597-.045 1.073-.056 1.394z" fill="#01BA57"/><path d="M152.979 91.574c.144-2.047.387-5.566.144-9.638a38.569 38.569 0 01-.067-2.246 124.984 124.984 0 011.661-3.828h2.302c.011 0 1.705 11.54-4.04 15.712z" fill="#058A43"/><path d="M161.147 65.848s0 .265-.044.752c-1.992-.232-3.498-1.781-3.553-1.825l2.623.298.974.775z" fill="#E8945B"/><path d="M161.966 65.781s-4.416.73-4.825-2.025c-.41-2.755-1.262-4.514 1.538-5.1 2.8-.587 3.509.387 3.874 1.272.354.885.554 5.588-.587 5.853z" fill="#FFB27D"/><path d="M157.129 63.49s.454-.077.377-.696c-.078-.62-.078-1.439.431-1.284.509.155.531.554.742.321.21-.232.21-1.24 1.726-1.306 1.506-.066 2.126.454 2.823.144.697-.31.742-1.372.742-1.372s-.2.377-.499.498c0 0 1.174-1.604-.188-2.7-1.361-1.095-2.734-.376-3.519-.332-1.727.1-2.845.21-3.41 1.34-.564 1.139-.332 4.292.775 5.388z" fill="#2B478B"/><path d="M133.774 133.366c.366.83-.033 1.804-.885 2.158-.863.354-1.86-.033-2.225-.863s.033-1.804.886-2.158c.863-.354 1.859.034 2.224.863zm12.143 0c.365.83-.033 1.804-.885 2.158-.864.354-1.86-.033-2.225-.863-.366-.83.033-1.804.885-2.158.864-.354 1.86.034 2.225.863z" fill="#1C468A"/><path d="M130.277 133.167l2.402.841c.243.089.498.122.763.122l13.659-.133 1.494-2.401-18.318 1.571zm7.759-26.522l3.819-9.207v-.022c.022-.077.62-2.058 4.051-2.5h.011l2.823-.52c.365-.089 1.416-.255 1.904.143.21.177.298.454.265.841-.066.775-2.612 6.75-4.294 10.567l.542.222c.432-.985 4.239-9.638 4.35-10.744.055-.587-.111-1.03-.476-1.328-.786-.642-2.269-.299-2.424-.266l-2.789.51c-3.697.475-4.461 2.655-4.538 2.898l-3.808 9.184.564.222z" fill="#DD772A"/><path d="M145.353 103.922l7.371 1.428s2.148.852 1.727 4.503c-.376 3.22-2.025 21.278-2.025 21.278s-.344 3.762-8.612 2.667l1.539-29.876z" fill="#DD772A"/><path d="M149.437 108.891l-1.981 20.227a4.399 4.399 0 01-.842 2.201 4.74 4.74 0 01-3.818 1.937l-6.841.044h-.166l-4.283.022c-.432 0-.841-.055-1.24-.155-.089-.022-.188-.055-.277-.077-1.483-.476-2.623-1.649-3.044-3.087a4.447 4.447 0 01-.121-1.959l3.099-19.352c.332-2.059 2.059-3.652 4.206-3.851l1.206-.111.288-.022.244-.022 4.04-.376.498-.044 3.896-.366c.609-.055 1.206 0 1.749.155.033.011.077.022.111.033l.221.078c1.937.697 3.265 2.578 3.055 4.725z" fill="#F99746"/><path d="M146.614 131.32a4.743 4.743 0 01-3.819 1.936l-6.84.044h-.166l-4.284.022c-.431 0-.841-.055-1.239-.155-.089-.022-.189-.055-.277-.077-1.483-.476-3.188-2.224-3.21-4.072 0 0 14.467-.188 17.488.266 1.561.243 2.026 1.294 2.347 2.036z" fill="#EF8A3F"/><path d="M135.878 104.686c-.033.022-3.199 1.892-3.62 3.541-.431 1.693-3.287 21.444-3.32 21.643 0 .011-.078 1.925 1.549 3.342l-.221-.056c-.088-.022-.188-.055-.277-.077-1.527-1.472-1.328-3.176-1.317-3.253.122-.819 2.889-19.962 3.321-21.666.376-1.493 2.612-2.987 3.343-3.43l.287-.022.255-.022zm4.538-.42c-.454.298-2.202 1.582-2.568 3.961-.431 2.777-2.136 22.993-2.158 23.192v.022c0 .011-.243 1.107.454 1.837h-.343c-.675-.797-.41-1.77-.366-1.903.056-.62 1.727-20.437 2.159-23.204.321-2.047 1.616-3.319 2.324-3.872l.498-.033zm5.977-.1c-.011.011-.675.365-1.239.996a5.667 5.667 0 00-1.395 2.943c-.432 2.777-1.782 22.927-1.804 23.126v.022c0 .011-.067 1.239.642 1.981h-.432c-.531-.675-.498-1.903-.454-2.047.045-.642 1.373-20.371 1.804-23.137.41-2.601 2.181-3.784 2.557-4.017.034.011.078.022.111.033l.21.1z" fill="#DD772A"/><path d="M149.404 89.87l-.963 2.357a1.316 1.316 0 00-.033.874c.188.609.321 1.803-1.096 2.656 0 0-.863.431-.996-.233s.022-.42-.199-1.36c-.188-.82.232-1.329.509-1.893.133-.277.177-.553.21-.786l.199-1.482 2.369-.133z" fill="#FFB27D"/><path d="M147.334 92.492c.83.166 1.727.1 1.727.1s2.468-7.613 2.778-8.31c.321-.697 7.316-8.42 7.316-8.42l-4.438-6.064s-6.055 10.91-6.829 12.692c-1.273 2.932-1.716 9.515-1.716 9.515s.52.366 1.162.487z" fill="#01BA57"/><path d="M153.189 87.701v.044c1.262-.298 2.324-.874 3.254-1.637 1.716-1.405 2.889-3.464 3.63-5.61 1.141-3.353 1.229-6.949.653-8.72a2.911 2.911 0 00-.265-.586 4.1 4.1 0 00-.808-1.007c-.963-.918-2.192-1.272-3.099-1.394-.266-.044-.498-.044-.698-.055-.276-.011-.453 0-.498 0h-.011c-.575.166-1.007.564-.609 1.062.178-.022.344-.022.498-.022.698-.022 1.296.066 1.794.243a3.621 3.621 0 011.892 1.394c1.218 1.705.952 4.16.952 4.16a20.872 20.872 0 01-.553 3.453c-.576 2.324-1.494 3.973-2.435 5.123-1.76 2.18-3.675 2.656-3.675 2.656s-.055.166-.066.465a1.29 1.29 0 00.044.431z" fill="#233862"/><path d="M170.699 92.404s.355.553.742.697c.387.144.996.653 1.052.52.055-.133-.034-.365-.266-.531-.233-.166-.299-.365-.244-.487.067-.133-1.284-.2-1.284-.2z" fill="#FFB27D"/><path d="M135.966 41.837c-5.733 0-10.371 4.99-10.371 11.153s10.371 16 10.371 16 10.372-9.847 10.372-16c0-6.152-4.649-11.153-10.372-11.153zm0 16.608a6.1 6.1 0 01-6.11-6.108 6.114 6.114 0 016.11-6.107c3.365 0 6.11 2.744 6.11 6.108a6.107 6.107 0 01-6.11 6.107z" fill="#F78E48"/><path d="M139.298 40.63h-.055a.393.393 0 01-.332-.43c0-.012.033-.277.111-.764a.387.387 0 01.763.121c-.077.476-.11.753-.11.753a.372.372 0 01-.377.32zm.377-2.29c-.023 0-.045 0-.067-.01a.38.38 0 01-.31-.443c.089-.51.188-1.03.288-1.55a.381.381 0 01.454-.298.38.38 0 01.299.453c-.1.52-.199 1.03-.288 1.538a.38.38 0 01-.376.31zm.608-3.076c-.022 0-.055 0-.077-.01a.381.381 0 01-.299-.455c.111-.508.221-1.029.332-1.538a.38.38 0 01.454-.287.38.38 0 01.288.453l-.332 1.527a.369.369 0 01-.366.31zm.687-3.054c-.034 0-.056 0-.089-.01a.385.385 0 01-.288-.466c.122-.509.255-1.018.377-1.527a.38.38 0 01.465-.276c.21.055.332.265.276.465-.133.497-.254 1.006-.376 1.515a.358.358 0 01-.365.3zm.774-3.02c-.033 0-.066 0-.099-.012a.389.389 0 01-.266-.475c.133-.51.277-1.018.421-1.505a.393.393 0 01.476-.266.393.393 0 01.265.476c-.144.487-.287.996-.42 1.494a.4.4 0 01-.377.287zm.875-3.01c-.033 0-.078 0-.111-.022-.199-.067-.321-.277-.254-.476.155-.498.31-1.007.476-1.494.066-.2.287-.31.487-.243a.389.389 0 01.243.486c-.155.487-.321.985-.465 1.483a.402.402 0 01-.376.266zm.963-2.966a.402.402 0 01-.122-.022.373.373 0 01-.232-.487c.177-.497.354-.995.531-1.482a.4.4 0 01.498-.233.399.399 0 01.232.498 58.37 58.37 0 00-.52 1.46.427.427 0 01-.387.266zm45.459-.907a.41.41 0 01-.355-.221 48.72 48.72 0 00-.664-1.405.385.385 0 01.177-.51.385.385 0 01.51.178c.232.475.464.951.675 1.416a.39.39 0 01-.188.509.358.358 0 01-.155.033zm-44.374-2.025c-.045 0-.089-.01-.144-.022a.384.384 0 01-.222-.498c.188-.487.388-.974.587-1.45a.383.383 0 01.708.288c-.199.465-.387.952-.586 1.439a.346.346 0 01-.343.243zm42.99-.785a.392.392 0 01-.343-.21 54.407 54.407 0 00-.742-1.373.39.39 0 01.144-.52.389.389 0 01.52.144c.255.454.51.918.753 1.383.1.188.022.42-.166.52-.044.044-.1.056-.166.056zm-41.784-2.092a.354.354 0 01-.155-.033.4.4 0 01-.199-.509c.221-.487.443-.963.664-1.427a.375.375 0 01.509-.177c.188.088.277.32.177.509-.221.453-.443.93-.653 1.416a.378.378 0 01-.343.221zm40.268-.642a.388.388 0 01-.332-.188c-.266-.442-.532-.896-.808-1.327a.39.39 0 01.121-.531.392.392 0 01.532.121c.276.443.553.896.819 1.339.11.177.044.42-.133.52a.29.29 0 01-.199.067zm-38.918-2.18a.387.387 0 01-.343-.564c.244-.475.498-.94.742-1.383a.37.37 0 01.52-.144.37.37 0 01.144.52c-.244.443-.487.897-.731 1.361a.352.352 0 01-.332.21zm37.257-.464a.39.39 0 01-.321-.166 35.553 35.553 0 00-.885-1.272.375.375 0 01.088-.532.376.376 0 01.532.089c.299.42.597.852.896 1.295a.38.38 0 01-.11.53.417.417 0 01-.2.056zm-35.74-2.268a.447.447 0 01-.199-.056.39.39 0 01-.133-.53c.276-.455.553-.908.841-1.34a.39.39 0 01.531-.11.39.39 0 01.111.53 37.6 37.6 0 00-.819 1.306.378.378 0 01-.332.2zm33.914-.277a.405.405 0 01-.31-.155c-.321-.41-.642-.819-.963-1.217a.385.385 0 11.598-.487c.332.398.653.819.985 1.24.133.165.1.409-.066.541a.4.4 0 01-.244.078zM150.455 9.25a.338.338 0 01-.221-.077.376.376 0 01-.088-.531c.309-.432.63-.852.951-1.262a.385.385 0 11.598.487c-.31.388-.631.808-.93 1.228a.372.372 0 01-.31.155zm30.218-.077a.372.372 0 01-.288-.133 25.269 25.269 0 00-1.052-1.129.386.386 0 01.011-.542.385.385 0 01.543.011c.354.365.719.764 1.073 1.151a.389.389 0 01-.287.642zm-2.181-2.246a.395.395 0 01-.265-.1 33.377 33.377 0 00-1.152-1.029c-.166-.133-.177-.376-.044-.542.133-.166.376-.177.543-.044.398.332.785.686 1.184 1.05a.384.384 0 01.022.543.395.395 0 01-.288.122zm-26.077-.111a.369.369 0 01-.255-.1.395.395 0 01-.033-.542c.354-.398.73-.785 1.096-1.15a.394.394 0 01.542 0 .394.394 0 010 .542c-.354.354-.708.719-1.063 1.106a.365.365 0 01-.287.144zm23.697-1.903a.367.367 0 01-.232-.078c-.41-.31-.83-.608-1.251-.885a.39.39 0 01-.11-.53.39.39 0 01.531-.112c.432.288.863.598 1.295.919a.398.398 0 01.077.542.43.43 0 01-.31.144zm-21.473-.277a.356.356 0 01-.287-.133.385.385 0 01.044-.542c.409-.343.83-.675 1.251-.985a.375.375 0 01.531.089.375.375 0 01-.089.531c-.398.288-.808.609-1.206.94a.345.345 0 01-.244.1zm18.872-1.438a.291.291 0 01-.188-.056 26.652 26.652 0 00-1.361-.708c-.188-.088-.277-.32-.188-.509a.389.389 0 01.509-.188c.465.222.941.465 1.405.73.189.1.255.344.144.52a.341.341 0 01-.321.21zm-16.337-.376a.388.388 0 01-.332-.189.378.378 0 01.133-.52c.465-.276.941-.52 1.417-.74a.39.39 0 01.509.187.39.39 0 01-.188.51c-.454.21-.908.442-1.351.707a.521.521 0 01-.188.045zm13.515-.952a.557.557 0 01-.133-.022 17.076 17.076 0 00-1.45-.476.389.389 0 01-.266-.476.389.389 0 01.476-.265c.509.144 1.019.31 1.517.498a.384.384 0 01.221.498.393.393 0 01-.365.243zm-10.692-.354a.39.39 0 01-.366-.266.39.39 0 01.244-.487c.509-.165 1.018-.32 1.538-.431a.382.382 0 01.454.288.382.382 0 01-.288.453c-.487.111-.974.244-1.461.41-.044.033-.088.033-.121.033zm7.692-.476c-.022 0-.044 0-.066-.011a17.515 17.515 0 00-1.505-.2.394.394 0 01-.355-.42c.022-.21.2-.365.421-.354.531.045 1.062.122 1.583.21.21.034.343.244.31.443a.41.41 0 01-.388.332zm-4.66-.188a.367.367 0 01-.376-.343.385.385 0 01.343-.42c.166-.023.321-.034.487-.045.365-.022.742-.044 1.107-.044a.383.383 0 01.011.763c-.354 0-.708.012-1.062.045a6.09 6.09 0 00-.465.044h-.045zm26.908 23.558a.384.384 0 01-.354-.244s-.1-.255-.288-.697a.378.378 0 01.21-.498c.2-.078.421.011.498.21.189.454.288.708.299.72a.383.383 0 01-.221.497c-.044 0-.1.011-.144.011z" fill="#F99746"/></g><defs><clipPath id="clip0"><path fill="#fff" d="M0 0h324v136H0z"/></clipPath></defs></svg>