<svg width="247" height="126" fill="none" xmlns="http://www.w3.org/2000/svg"><g clip-path="url(#clip0)"><path d="M22.488 125.94s-43.611-54.489-9.365-87.886c50.96-49.712 85.64 20.934 105.277-8.297C150.871-18.61 257.105-6.199 224.607 53.95c-17.053 31.555 40.003 26.839 16.74 72.061l-218.859-.07z" fill="#EBF3FA"/><path d="M168.42 58.157l1.574-3.703.035-.087a.971.971 0 00-.409-1.214l-2.922-1.65c-.052-.027-.096-.062-.13-.088a.947.947 0 01-.313-.987c.608-2.148.782-4.393.513-6.611a.965.965 0 01.617-1.013l2.618-.987a.973.973 0 00.608-.804c.009-.105 0-.227-.026-.34l-1.026-3.983a.974.974 0 00-1.113-.716l-3.661.629a.945.945 0 01-.931-.393 13.584 13.584 0 00-.982-1.258 16.409 16.409 0 00-2.113-2.07c-.314-.253-.435-.672-.314-1.057l1.183-3.598.061-.183a.946.946 0 00-.522-1.17l-3.765-1.616a.991.991 0 00-1.244.419l-1.826 3.266a.937.937 0 01-1.017.472 16.799 16.799 0 00-5.166-.149.957.957 0 01-1.009-.62l-1.174-3.109a.978.978 0 00-1.156-.602l-3.983 1.03a.94.94 0 00-.687 1.066l.721 4.332a.989.989 0 01-.391.96c-.374.27-.73.56-1.087.865a16.476 16.476 0 00-1.826 1.834.923.923 0 01-1.009.288l-4.305-1.432a.96.96 0 00-1.182.532l-1.618 3.8a.976.976 0 00.409 1.214l3.6 2.035a.937.937 0 01.47 1.03c-.018.096-.044.192-.052.297a16.948 16.948 0 00-.287 3.572.931.931 0 01-.618.908l-3.27 1.25a.977.977 0 00-.591 1.16l.226.883.8 3.092a.95.95 0 001.087.707l3.609-.611a.943.943 0 01.966.454 17.05 17.05 0 003.469 4.244l-.252.752-1.017 3.1a.927.927 0 00.521 1.162l3.792 1.633a.957.957 0 001.209-.42l1.243-2.227a.959.959 0 011.079-.454c1.722.472 3.504.664 5.27.568.417-.026.8.227.93.611l1.479 3.93a.929.929 0 001.095.568l4.027-1.048a.944.944 0 00.695-1.065l-.756-4.507a.948.948 0 01.443-.978 16.219 16.219 0 003.087-2.49.963.963 0 01.974-.244l4.149 1.354a.962.962 0 001.191-.533zm-10.74-17.38c1.861 2.743 2.087 5.843 1.061 8.219-3.6 8.331-14.775 7.59-17.306-1.005-.617-2.21-.356-4.663 1.227-7.065 3.722-5.537 11.461-5.38 15.018-.149z" fill="#DFEDFB"/><path d="M117.147 108.795l3.617-6.227.087-.149a1.73 1.73 0 00-.461-2.244l-4.817-3.581a1.53 1.53 0 01-.218-.192c-.452-.49-.6-1.206-.33-1.826a30.375 30.375 0 002.374-11.633 1.8 1.8 0 01.069-.48 1.739 1.739 0 011.235-1.18l4.862-1.17a1.756 1.756 0 001.269-1.292c.035-.192.052-.393.026-.603l-.939-7.3a1.749 1.749 0 00-1.809-1.53l-6.644.289a1.683 1.683 0 01-1.565-.908 32.032 32.032 0 00-1.461-2.455 29.763 29.763 0 00-3.296-4.148l-.009-.009a1.738 1.738 0 01-.321-1.947l2.887-6.131.139-.306a1.695 1.695 0 00-.67-2.192l-6.331-3.712a1.764 1.764 0 00-2.295.472l-3.966 5.38a1.688 1.688 0 01-1.904.61 29.779 29.779 0 00-9.14-1.414 1.72 1.72 0 01-1.661-1.319l-1.391-5.781a1.746 1.746 0 00-1.922-1.328l-7.296.943a1.675 1.675 0 00-1.453 1.738l.33 7.843a1.753 1.753 0 01-.904 1.616 30.398 30.398 0 00-5.757 4.131 1.652 1.652 0 01-1.86.288l-7.349-3.493a1.716 1.716 0 00-2.218.69l-3.713 6.384a1.733 1.733 0 00.27 2.078c.052.053.122.114.191.158l5.948 4.419c.557.41.818 1.1.661 1.773a1.026 1.026 0 01-.043.174 5.02 5.02 0 00-.157.516 30.161 30.161 0 00-1.296 6.28 1.669 1.669 0 01-1.286 1.475l-6.088 1.485a1.757 1.757 0 00-1.313 1.93l.209 1.624.73 5.66c.105.89.887 1.537 1.783 1.51l6.548-.287c.696-.035 1.33.384 1.609 1.03a30.514 30.514 0 002.661 4.97 29.858 29.858 0 002.565 3.345l-.608 1.283-2.487 5.276a1.676 1.676 0 00.321 1.912c.105.105.218.192.348.271l6.374 3.755a1.716 1.716 0 002.236-.471l2.704-3.686a1.704 1.704 0 012.009-.568 29.961 29.961 0 009.227 2.184 1.661 1.661 0 011.521 1.292l1.757 7.311c.2.82.974 1.353 1.818 1.248l7.374-.96a1.679 1.679 0 001.47-1.747l-.348-8.166a1.718 1.718 0 011.009-1.642 28.64 28.64 0 004.009-2.253 31.938 31.938 0 002.026-1.467 1.727 1.727 0 011.791-.21l7.035 3.354c.792.384 1.766.087 2.227-.69zm-15.227-33.25c.904 1.774 1.539 3.782 1.843 6.027.07.472.087 1.013.087 1.58-.052 2.438-.783 5.39-1.852 7.224-8.236 13.991-27.915 10.174-30.507-5.642-.043-.262-.078-.524-.113-.786-.313-2.472.461-6.28 1.705-8.428a19.592 19.592 0 012.156-3.048c7.81-9.022 21.515-7.013 26.681 3.074z" fill="#D6E8FC"/><path d="M32.385 125.467s-.192-1.502-.635-2.393c-.444-.891-3.279-.323-3.279-.323s-.565.489-.687 2.76l4.6-.044zm9.652-.017c-.67-.411-.287-3.45-.287-3.45s3.105-2.489 3.531-.585c.426 1.904 2.948 2.76 4.383 2.996.991.157 1.296.716 1.392 1.039h-9.019z" fill="#233862"/><path d="M35.611 103.319c.13.699.209 1.275.226 1.685.287 5.642 4.731 18.559 5.531 18.856 1.226.463 3.165-.524 4.183-.847.417-.131.704-.559.609-.995-2.2-10.158-3.01-24.795-3.305-33.45-.148-4.367-.896-7.38-.896-7.38s-10.835-2.909-10.905.768c-.052 3.25 3.592 16 4.557 21.363z" fill="#213F7A"/><path d="M35.611 103.319l7.244-14.76c-.148-4.367-.896-7.38-.896-7.38s-10.835-2.908-10.905.769c-.052 3.257 3.592 16.008 4.557 21.371z" fill="#233862"/><path d="M38.029 81.965l-5.73 41.703s-2.514.611-4.47.122c0 0-1.68-22.183-1.54-27.545.14-5.363-1.2-14.35.304-15.337 1.505-.987 11.436 1.057 11.436 1.057z" fill="#213F7A"/><path d="M25.471 81.275a.792.792 0 00.574.821c.8.236 1.722.393 3.496.769 1.67.349 3.914.655 6.679.672 4.392.026 6.053-1.493 6.053-1.493.19 0-.096-.917-.357-5.302a174.21 174.21 0 01-.235-5.746c-.052-2.14-.095-4.69-.095-7.703-.01-3.634-5.6-7.538-5.705-7.538 0 .524-.818 1.485-2.087 1.572-1.496.097-3.34-.654-3.34-1.52 0-.008-2.713 4.359-3.678 9.005a22.728 22.728 0 00-.296 1.87c-.226 1.964-.009.558-1.009 14.593z" fill="#01BA57"/><path d="M35.872 55.747s5.2-.044 6.453 1.72c1.252 1.764 4 11.258 2.565 14.41-1.435 3.162-4.113-1.31-5.6-3.24-1.487-1.93-3.418-12.89-3.418-12.89z" fill="#01BA57"/><path d="M35.933 54.952v.541s.148 1.686-1.922 1.94c-2.07.244-3.617-.315-3.556-1.616.182-1.014.365-2.053.374-2.891a6.083 6.083 0 00-.07-1.013l4.018-.079 1.182.192-.026 2.926z" fill="#FFB27D"/><path d="M35.942 52.026l-.017 2.926a3.36 3.36 0 01-1.444.323c-1.844 0-3.035-1.362-3.661-2.34a6.073 6.073 0 00-.07-1.014l4.018-.078 1.174.183z" fill="#E2915A"/><path d="M30.436 51.266c.47 2.516 3.705 2.437 5.096 2.28.392-.044.644-.096.644-.096.443-.122.687-.821.809-1.738.226-1.817-.061-4.49-.366-5.17-.46-1.031-1.33-2.14-4.583-1.337-3.26.795-2.191 2.83-1.6 6.061z" fill="#FFB27D"/><path d="M41.194 62.821s2.01 4.463 1.957 5.8c0 0-1-.036-1.957.252-1.574.472 0-6.052 0-6.052z" fill="#118547"/><path d="M37.62 44.14s-1.434-.114-3.121-.847c-1.375-.603-3.105.06-3.67.358a.878.878 0 01.139-.34s-.252.182-.287.427c-.026.017-.035.035-.035.035s-.287-.052-.47.026c0 0 .13-.017.174.061.009.009.009.018.018.026-2.14 1.04-2.34 4.437-1.653 5.223.827.943 2.061 3.048 2.061 3.048s.13-.48-.026-1.31c-.148-.83.566-.83 1.47-1.214.904-.375.148-1.44.94-2.078.79-.647 3.695-.262 3.652-.76 1.087-.385.808-2.542.808-2.655z" fill="#233862"/><path d="M29.785 71.18c.852 3.423 10.035 5.196 12.131 5.554a173.939 173.939 0 01-.235-5.747l-11.896.192z" fill="#118547"/><path d="M31.802 72.297c-.087 0-2.044-.297-2.392-.472-.347-.174-1.947-2.463-.904-3.048 1.052-.585 3.861 1.756 3.861 1.756l-.565 1.764z" fill="#FFB27D"/><path d="M43.69 72.978s-7.566.41-12.636-.681c0 0-.13-1.476 1.47-2.122 0 0 7.914-1.686 9.81-1.214 1.895.463 1.356 4.017 1.356 4.017z" fill="#01BA57"/><path d="M26.323 67.013c1.566 1.904 3.618 3.45 5.88 3.817.016-.026.686-1.048.556-2.533-.061-.69-.287-1.485-.826-2.332a5.395 5.395 0 01-.444-.9c-1.235-3.161-1.052-9.266-1.052-9.266s-5.244.55-6.879 2.9c-.991 1.432.287 5.31 2.765 8.314z" fill="#01BA57"/><path d="M35.542 53.537c.391-.044.643-.096.643-.096.444-.122.687-.82.81-1.738-.836.21-1.21.847-1.375 1.127-.078.122-.096.401-.078.707z" fill="#E2915A"/><path d="M37.655 54.96s1.809-3.004.4-3.135c-1.409-.13-1.974.83-2.174 1.18-.2.349.052 1.938.052 1.938l1.722.018z" fill="#FFB27D"/><path d="M30.75 68.192c.052.385.165.734.313 1.04a5.013 5.013 0 001.157 1.598c4.705-2.131 5.652-9.459 5.818-13.476.06-1.616 0-2.699 0-2.699-2.122-.707-2.722.524-2.722.524s-2.505 5.983-3.81 9.895c-.504 1.485-.825 2.681-.756 3.118z" fill="#01BA57"/><path d="M26.323 67.013c1.566 1.904 3.618 3.45 5.879 3.817 4.705-2.131 5.653-9.459 5.818-13.476 0 0-2.227 8.105-5.253 10.943-.548.515-1.122.856-1.713.943 0 0-3.818-1.083-4.618-2.105a.523.523 0 00-.113-.122z" fill="#118547"/><path d="M222.397 110.926s-2.304-2.699-.139-4.411c0 0 1.574-.96 2.861-.882 0 0-1.826 3.066-1.235 3.371.592.306 1.783-3.563 1.783-3.563s3.592-.349 4.74.21c0 0-3.07 2.524-2.418 2.672.643.149 3.957-2.323 3.957-2.323s3.339.568 3.165 2.62c-.174 2.044-1.33 2.681-1.835 2.62-.504-.052-3.461-1.187-3.53-.768-.061.419 1.713 1.773 2.965 1.843 0 0-2.357 2.611-3.922 1.851-1.565-.751-1.696-1.948-2.678-2.393-.974-.445-1.809-.445-1.409.009.4.454 2.165.899 2.722 1.895.556.987 1.061 1.659-.557 1.415-1.617-.245-4.252-1.432-4.365-2.795l-.105-1.371z" fill="#C8DBF4"/><path d="M233.477 108.673s-9.07-.35-11.071 2.253c0 0-.443 1.336-1.808 2.55l-.209.585s1.574-1.668 2.131-1.764c0-.009-.888-3.231 10.957-3.624z" fill="#C8DBF4"/><path d="M220.598 113.476s-1.948 1.45-2.079 4.026l.357.035s.626-2.672 1.748-3.72c1.113-1.04-.026-.341-.026-.341zm-6.244-5.939s3.661-2.061 1.948-4.856c0 0-1.365-1.712-2.826-2.157 0 0 .782 4.166 0 4.262-.783.096-.539-4.707-.539-4.707s-3.853-1.86-5.366-1.712c0 0 2.392 4.07 1.609 3.974-.783-.096-3.461-4.219-3.461-4.219s-3.957-.733-4.583 1.616c-.635 2.349.391 3.528.974 3.677.582.148 4.339.096 4.244.585-.096.489-2.635 1.275-4.053.83 0 0 1.565 3.869 3.609 3.677 2.052-.193 2.687-1.468 3.957-1.572 1.27-.097 2.2.244 1.565.585-.635.34-2.783.113-3.809.987-1.026.873-1.852 1.414.052 1.807 1.905.393 5.323.149 6.001-1.327l.678-1.45z" fill="#C8DBF4"/><path d="M202.936 100.48s10.244 3.337 11.418 7.057c0 0-.052 1.668.974 3.581v.734s-1.07-2.498-1.661-2.839c.009-.009 2.296-3.24-10.731-8.533z" fill="#C8DBF4"/><path d="M215.336 111.118s1.583 2.41.679 5.345l-.409-.114s.391-3.231-.435-4.855c-.826-1.625.165-.376.165-.376z" fill="#C8DBF4"/><path d="M220.18 104.699s-4.826-2.716-2.574-6.393c0 0 1.801-2.262 3.731-2.839 0 0-1.026 5.494 0 5.625 1.026.131.704-6.201.704-6.201s5.079-2.454 7.079-2.262c0 0-3.148 5.362-2.122 5.231 1.026-.13 4.566-5.554 4.566-5.554s5.209-.97 6.044 2.13c.835 3.101-.513 4.656-1.287 4.848-.774.192-5.722.13-5.601.777.131.646 3.47 1.677 5.34 1.101 0 0-2.061 5.1-4.757 4.847-2.705-.262-3.539-1.939-5.209-2.07-1.67-.131-2.896.323-2.061.777s3.67.149 5.018 1.302c1.348 1.152 2.443 1.86-.061 2.384-2.505.515-7.009.192-7.914-1.747l-.896-1.956z" fill="#D4E4F8"/><path d="M235.234 95.397s-13.505 4.393-15.053 9.302c0 0 .06 2.192-1.287 4.716v.969s1.417-3.292 2.182-3.746c0 0-3.017-4.262 14.158-11.24z" fill="#D4E4F8"/><path d="M218.894 109.415s-2.088 3.179-.896 7.048l.539-.149s-.522-4.262.574-6.401c1.078-2.14-.217-.498-.217-.498z" fill="#D4E4F8"/><path d="M220.015 124.847c5.218 0 9.453-4.253 9.453-9.493h-18.897c-.009 5.24 4.226 9.493 9.444 9.493z" fill="#D4E4F8"/><path d="M229.599 125.328h-19.158c0-.647.521-1.171 1.165-1.171h16.827c.644 0 1.166.524 1.166 1.171z" fill="#D4E4F8"/><path d="M229.685 115.354h-19.427v.288h19.427v-.288z" fill="#9FC1F4"/><path d="M187.152 52.061c-1.391-.725-2.504-.27-2.504-.27-4.253-.498-5.496 4.48-5.444 6.2.061 1.712.252 3.555-1.652 5.782-5.488 6.437 6.009 6.725 6.009 6.725.095-5.144 6.235-3.267 5.965-2.743 7.871 1.896.792-14.043-2.374-15.694z" fill="#163560"/><path d="M170.733 73.502s-.748-1.144-1.348-1.17c-.6-.026-1.722-.34-1.635-.114.087.227.783.245.853.385.069.13-1.027.34-1.34.358-.313.026-1.052 0-1.026.157.026.157 1.331.803 2.253.716.921-.087 2.061.27 2.061.27l.182-.602z" fill="#FFB27D"/><path d="M181.56 73.878s-.408.812-1.148 1.738c-.887 1.118-2.261 2.41-3.982 2.663-.827.123-1.627-.052-2.366-.384-2.087-.934-3.661-3.074-3.661-3.074-.365-1.013.235-1.694.235-1.694s4.226.952 4.626.75c.4-.2 2.748-6.986 3.305-7.842.556-.856 2.461-1.293 2.461-1.293l.53 9.136z" fill="#F9DDBF"/><path d="M180.412 75.616c-.887 1.118-2.261 2.41-3.983 2.663-.826.123-1.626-.052-2.365-.384.078.009 2.174.271 3-1.222.852-1.529 1.765-3.948 3.026-3.145.548.35.522 1.214.322 2.088z" fill="#F2CCAA"/><path d="M197.309 119.651s1.287 1.179 1.035 2.017c-.253.839-1.418 1.398-1.575 2.428-.156 1.022-.782 1.581-1.347 1.581h-2.696s-.418-.725.591-.943c1.009-.219 1.383-1.424 1.322-2.542-.061-1.118.096-2.611.096-2.611l2.139-.498.435.568zm-10.905.506s.461 5.005-.105 5.284l-7.235-.017s0-.839 1.165-1.022c1.166-.184 3.209-.874 3.549-2.393.347-1.529 2.626-1.852 2.626-1.852z" fill="#233862"/><path d="M191.56 84.262c-1.487-3.354-2.4-4.314-2.226-5.362.131-.778-.391-14.455-.391-14.455-.174-.052-.531-.104-.722-.148a1.845 1.845 0 01-1.33-1.162c-.253-.716-.453-1.764-.453-3.083l-.191.035-3.209.638s.07 1.013.078 1.974v.026c0 .83-.539 1.563-1.33 1.79-.409.114-.757.219-.757.219s-1.174 3.38-1.4 6.847c-.226 3.467 2.139 4.978-.017 11.912-2.218 7.092 12.775 2.62 11.948.769z" fill="#FFB27D"/><path d="M183.038 60.734s.07 1.013.079 1.974c1.791-.053 2.748-1.695 3.13-2.612l-3.209.638z" fill="#E8945B"/><path d="M182.438 61.642s4.253.07 4.253-2.585.556-4.437-2.157-4.594c-2.713-.157-3.244.856-3.452 1.747-.218.873.252 5.345 1.356 5.432z" fill="#FFB27D"/><path d="M182.595 54.393s1.166 3.118 2.948 3.58c1.783.464 2.557-.017 2.557-.017s-1.365-1.091-1.652-2.995c0-.009-2.974-2.053-3.853-.568z" fill="#163560"/><path d="M182.882 54.646s-.861.323-1.218.952c-.347.62-.643 1.433-.574 2.437 0 0-.878-2.122.105-3.319 1.052-1.266 1.687-.07 1.687-.07z" fill="#163560"/><path d="M183.36 59.991s-.296.385-.878.358c-.47-.026-.652-.436-.652-.436s.869-.21 1.53.078z" fill="#EBF3FA"/><path d="M191.969 70.498s.105 1.528 0 3.362c-.069 1.214-1.295 2.839-1.469 3.25-.435 1.012-.931 1.17-.931 1.17l-3.8.934-1.339.332-4.218-1.267s-1.922-5.38-1.148-8.41c.774-3.03 1.948-5.135 1.948-5.135s3.435 3.38 7.914-.289l3.043 6.053z" fill="#F9DDBF"/><path d="M190.865 74.358c-.07 1.214-.183 2.35-.357 2.751-.435 1.013-.93 1.17-.93 1.17l-3.8.935-1.653-.49s5.514-.838 4.896-5.597l1.844 1.231z" fill="#F2CCAA"/><path d="M180.49 79.1s-2.087 6.525-2.217 8.743c-.131 2.218 3.991 31.554 4.156 32.576.157.961 1.348 1.581 1.348 1.581s.548.323 1.331.105c1.087-.306 1.426-.681 1.426-.681s1.626-20.926.617-28.393c-1.008-7.476-1.017-13.94-1.017-13.94h-5.644v.01z" fill="#118547"/><path d="M189.335 78.9s3.182 4.288 3.478 7.187c.296 2.9.47 13.083 1.096 15.913.635 2.83 2.957 8.271 2.957 17.083 0 0-.244.507-.992.777-.235.088-.556.166-.869.245a1.37 1.37 0 01-1.531-.725c-1.574-3.179-6.574-13.424-6.827-15.546-.182-1.502-1.765-11.467-5.209-17.31-.826-1.406.505-6.978.505-6.978l7.392-.646z" fill="#01BA57"/><path d="M183.273 60.061s-.069.315-.852.262c0 0-.652-.043-.635-.384 0 0 .635-.245 1.487.122z" fill="#fff"/><path d="M180.16 78.087s.835.664 2.504.699c1.992.044 6.914-.507 6.914-.507s.217.612.209 1.267c0 0-6.018 1.528-9.505.218 0 0-.444-.847-.122-1.677z" fill="#233862"/><path d="M182.186 80.507c-.504 0-.904-.463-.904-1.031 0-.568.408-1.03.904-1.03.496 0 .905.462.905 1.03 0 .568-.409 1.03-.905 1.03zm0-1.756c-.33 0-.609.323-.609.725 0 .402.27.725.609.725.339 0 .609-.323.609-.725 0-.402-.278-.725-.609-.725z" fill="#fff"/><path d="M188.718 70.797l-6.165 5.391 7.35 8.478 6.165-5.392-7.35-8.477z" fill="#B5453C"/><path d="M188.186 79.293s-2.261.262-2.252.803c.009.542.565 1.642.844 1.694.278.053 1.835-1.493 1.835-1.493l-.427-1.004z" fill="#FFB27D"/><path d="M188.943 64.454s3.018.21 4.175 3.03c1.156 2.822 3.348 7.564 3.348 8.359 0 .795-1.226 3.257-7.801 4.664 0 0-.678-.717-.643-1.284 0 0 4.104-3.546 4.096-3.957-.018-.786-.67-1.816-4.279-5.44-.983-.988 1.104-5.372 1.104-5.372z" fill="#F9DDBF"/><path d="M213.015 47.556l1.8 6.314c.026.096.035.184.026.28a.82.82 0 01-.582.724l-10.914 3.136a.805.805 0 01-.879-.306.805.805 0 01-.121-.244l-1.801-6.306a.812.812 0 01.557-1.005l10.914-3.135a.79.79 0 011 .542z" fill="#CDE0FB"/><path d="M214.841 54.148a.82.82 0 01-.583.725l-10.914 3.136a.803.803 0 01-.878-.306l5.557-5.083 6.818 1.529z" fill="#BED7FB"/><path d="M213.015 47.555l-4.887 6.096-7.488-2.184-.096-.323a.812.812 0 01.557-1.004l10.914-3.136a.802.802 0 011 .55z" fill="#DFEBFD"/><path d="M126.452 125.511h-.035a.33.33 0 01-.33-.332l.496-21.554 1.461-.175-1.244 21.729a.352.352 0 01-.348.332z" fill="#B0D4FF"/><path d="M117.947 125.511h-.035a.33.33 0 01-.33-.332l.495-21.554 1.461-.175-1.243 21.729a.34.34 0 01-.348.332z" fill="#95C0F4"/><path d="M141.409 125.511h.035a.331.331 0 00.331-.332l-.496-21.554-1.461-.175 1.243 21.729a.346.346 0 00.348.332zm-24.427-23.231V87.511c0-2.603 2.096-4.707 4.687-4.707h10.601c2.591 0 4.687 2.104 4.687 4.707v15.336l-19.975-.567z" fill="#B0D4FF"/><path d="M138.853 104.611h-20.462a1.41 1.41 0 01-1.409-1.414v-.917h21.871v2.331z" fill="#95C0F4"/><path d="M141.305 104.611h-15.479a1.049 1.049 0 01-1.044-1.048v-.244c0-.577.47-1.048 1.044-1.048h15.479c.574 0 1.044.471 1.044 1.048v.244c0 .577-.47 1.048-1.044 1.048z" fill="#B0D4FF"/><path d="M140.706 98.594c-1.522 2.655-3.427 3.677-3.427 3.677h-7.939c-.009.009 12.522-5.695 11.366-3.677z" fill="#233862"/><path d="M134.601 119.127c-.209.235-.235.506-.13.786.191.524.817 1.109 1.539 1.703.095.078.174.139.243.209l.052.053c.018.008.027.026.044.035.678.628.426.768 1.644 2.043 1.391 1.45 2.348 1.476 2.617 1.345.226-.113-.235-.882-.756-1.746-.027-.044-.053-.088-.079-.123-.069-.113-.139-.236-.208-.349-.609-1.039-.453-1.528-.305-3.083.113-1.258 1.948-7.039 1.948-7.039l-2.661-.463s-.8 4.602-1.687 5.31c-.47.375-1 .384-1.452.664-.035.017-.061.043-.096.061-.243.183-.504.358-.713.594z" fill="#FFB27D"/><path d="M134.601 119.127c-.209.236-.235.506-.13.786.234.524.843 1.109 1.547 1.694.096.079.174.149.244.21l.052.052c.017.009.026.026.044.035.678.629.426.769 1.643 2.044 1.392 1.449 2.348 1.476 2.618 1.345.226-.114-.235-.882-.757-1.747a5.87 5.87 0 01-2.478-1.834c-.835-1.074-1.392-2.446-1.966-3.249-.034.017-.06.044-.095.061-.252.192-.513.367-.722.603z" fill="#233862"/><path d="M156.063 117.459c.165.821 1.339.69 2.643.366 1.305-.323 1.001.062 2.862-.148 1.861-.21 2.426-.908 2.487-1.179.052-.245-.87-.332-1.853-.446-.121-.017-.252-.026-.374-.043-1.113-.14-1.93-.865-2.939-1.459-.956-.559-2.391-2.847-2.391-2.847l-2.557.201s1.339 2.044 1.861 2.934c.304.525.287 1.214.252 1.747-.026.288-.043.585.009.874z" fill="#FFB27D"/><path d="M158.707 117.825c1.304-.323 1 .061 2.861-.148 1.861-.21 2.426-.908 2.487-1.179.052-.245-.87-.332-1.852-.446l-.009.018s-1.113.795-2.67.83c-1.261.035-2.6-.332-3.469-.315-.018.288-.035.585.017.874.156.829 1.33.689 2.635.366zm-12.427-16.768l-2.392 6.454-3.113 8.428s-.844.079-1.652-.149c-.748-.218-1.601-.786-1.601-.786s.87-9.048 2.479-14.235c.417-1.337.878-2.41 1.391-3.022 2.496-2.97 4.888 3.31 4.888 3.31z" fill="#233862"/><path d="M143.853 90.812c-1.565-.506-6.026.14-10.505 1.022l-.939-1.555-9.679-.76s-3.192 7.11-1.444 11.643c.261.663.765 1.091 1.635 1.109h7.775c4.817 0 10.183-3.319 10.879-3.459 1.139-.227 1.591 2.061 2.73 4.454 1.139 2.402 10.697 10.629 10.697 10.629s1.469.018 2.078-.209c.652-.245.887-.568.887-.568s-10.592-21.162-14.114-22.306z" fill="#2B478B"/><path d="M132.027 61.983c-1.244-.655-3.131-.743-3.435-.786-3.67-.498-5.879 4.855-6.009 6.48-.244 2.987-1.818 3.44-4.027 5.319-4.444 3.755-3.139 8.113-.713 9.738 1.461.97 4.026 0 4.026 0 .035.026 7.027-3.922 10.479-5.834 5.166-.743 2.835-13.258-.321-14.917z" fill="#233862"/><path d="M129.462 75.275c.017.009-1.696.594-2.844.087-1.078-.48-1.896-2.253-1.878-2.253.487-.026 1.026-.454 1.443-3.275l.209.079 3.504 1.266s-.252 1.127-.417 2.201c-.139.9-.209 1.764-.017 1.895z" fill="#FFB27D"/><path d="M129.896 71.17s-.252 1.127-.418 2.201c-2.017-.367-2.8-2.375-3.087-3.476l3.505 1.275z" fill="#ED975D"/><path d="M130.418 72.297s-4.801-.646-4.348-3.642c.443-2.996.13-5.092 3.209-4.803 3.078.288 3.504 1.52 3.6 2.55.096 1.039-1.2 5.982-2.461 5.895z" fill="#FFB27D"/><path d="M132.705 64.76s-3.069 2.655-5.157 2.873c-2.087.219-2.878-.463-2.878-.463s1.235-1.03 1.974-2.68a1.48 1.48 0 011.209-.874c1.487-.123 4.313-.184 4.852 1.144z" fill="#233862"/><path d="M130.783 64.524s1.026.996 1.348 1.738c.313.716.408 2.42.156 3.1 0 0 1.6-3.126.696-4.646-.957-1.607-2.2-.192-2.2-.192z" fill="#233862"/><path d="M133.496 82.367c-.148 9.747-.044 7.712-1.105 8.637-.252.227-.974.358-1.921.42-2.975.2-8.21-.297-8.41-.848-.687-1.912-.2-2.506-.774-5.432a24.94 24.94 0 00-.217-1.013c-.478-2.009-.939-2.69.748-5.921 1.539-2.926 3.13-5.302 3.278-5.214 4.053 2.419 4.383.384 4.383.384s4.087 4.236 4.018 8.987z" fill="#fff"/><path d="M143.888 107.511l-3.113 8.428s-.844.079-1.652-.149c-.748-.218-1.601-.786-1.601-.786s.87-9.048 2.479-14.235l3.887 6.742z" fill="#2B478B"/><path d="M129.478 73.38s4.174.707 4.661 2.515c.487 1.808 3.375 12.41 3.375 12.41s-2.122.385-3.105-.602c-.983-.987-3.409-9.127-3.409-9.127l-1.522-5.196z" fill="#fff"/><path d="M130.479 91.424c-2.974.2-8.209-.297-8.409-.848-.687-1.912-.2-2.506-.774-5.432l1.435-4.06s-.235 4.523 1.087 5.71c1.33 1.189 5.435 2.298 6.078 3.293.313.48.522.952.583 1.337z" fill="#EBF3FF"/><path d="M127.061 89.528s2.94-.655 3.409-.393c.47.262 1.635 1.214 1.774 1.546.148.332-1.052-.253-1.443-.358-.253-.07-.922.166-1.244.271-1.383.463-2.235.227-2.235.227l-.261-1.293z" fill="#FFB27D"/><path d="M125.096 72.996s-3.94.244-5.305 2.157c-1.922 2.69-5.731 14.166-3.548 15.694 2.461 1.72 11.201.454 11.201.454s.286-1.362-.114-2.026c-.408-.664-6.983-1.73-7.278-2.035-.305-.305 3.791-5.939 3.791-6.856-.008-.917 1.253-7.388 1.253-7.388z" fill="#fff"/><path d="M130.618 89.948s.617.794.817.89c.2.097.331.07.331.07l-.418-.75-.73-.21zm-.14-.821l1.792.873s-.078.122-.296.114c-.217-.01-.774-.219-.774-.219l-.722-.768z" fill="#FFB27D"/><path d="M131.436 92.061h14.149l4.261-10.629h-14.132l-4.278 10.63z" fill="#01BA57"/><path d="M145.75 91.65h-18.689v.411h18.523l.166-.41z" fill="#118547"/><path d="M142.019 86.751c.104-.375-.104-.672-.478-.672s-.757.305-.87.672c-.104.376.104.673.478.673s.757-.306.87-.673z" fill="#fff"/><path d="M65.978 104.105h-.043a.962.962 0 01-.957-.961V82.952a.96.96 0 01.957-.96h.043a.96.96 0 01.957.96v20.192a.956.956 0 01-.957.961z" fill="#B0D4FF"/><path d="M65.952 125.511h-.034a.33.33 0 01-.33-.332l.495-21.554 1.46-.175-1.243 21.729a.352.352 0 01-.348.332z" fill="#95C0F4"/><path d="M89.406 125.511h.035a.33.33 0 00.33-.332l-.495-21.554-1.461-.175 1.244 21.729a.352.352 0 00.347.332z" fill="#B0D4FF"/><path d="M89.302 102.28H64.978v.917a1.41 1.41 0 001.41 1.414h22.913c.574 0 1.043-.471 1.043-1.048v-.244a1.04 1.04 0 00-1.043-1.039z" fill="#B0D4FF"/><path d="M101.476 120.9s-.356 4.471.435 4.532c.105.009 4.044.009 4.044.009l5.026-.026s-.034-1.214-1.504-1.476c-1.47-.253-4.374-1.502-5.261-3.45-.931-2.052-2.74.411-2.74.411z" fill="#163560"/><path d="M71.249 96.41s.165 4.394.939 5.87h17.775s4.27.445 4.661.733c.487.367-1.713 3.983 6.54 18.131l4.043-.105s-4.226-22.943-4.974-23.52c-1.122-.864-14.27-3.895-16.523-3.956-2.252-.07-12.461 2.847-12.461 2.847z" fill="#1C468A"/><path d="M81.214 70.384c1.374.856 1.453 2.55 1.453 2.55-3.349.865-8.21-2.864-8.21-2.864s2.157-1.45 2.948-4.646a6.54 6.54 0 00.113-.498 10.77 10.77 0 00.183-1.747l1.54 1.38 2.556 2.297s-.061.952-.374 2.594c-.07.297-.14.602-.209.934z" fill="#FFB27D"/><path d="M83.101 88.017c-.113.752.113 1.354.226 1.913.044.21.07.42.052.629-.182 2.07.557 2.34.322 3.004 0 0-.783.463-2.226 1.013-.626.236-1.374.49-2.244.734-.043.009-.087.026-.139.035-3.34.908-6.861 1.1-7.853 1.074-1.895-.052-2.278-4.882-1.574-10.96 1.096-9.476 2.574-14.07 6.488-17.39.243-.209.078.507 1.391 1.136 1.218.585 2.678.725 3.809.472l.896.917c1.774 2.812 1.956 6.157 1.809 8.943-.183 3.511-.627 6.323-.957 8.48z" fill="#B0D4FF"/><path d="M81.78 66.865s.138-.14-.183 1.493c-2.827-.82-3.748-2.27-4.131-3.231-.104-.271 1.052-.42 1.757-.568l2.556 2.306z" fill="#ED975D"/><path d="M83.101 66.873s-5.461.786-5.896-2.637c-.435-3.424-1.435-5.625 2.035-6.27 3.47-.647 4.313.575 4.73 1.676.427 1.11.54 6.943-.869 7.231z" fill="#FFB27D"/><path d="M103.653 92.248l.415.13 3.421-10.986-.415-.13-3.421 10.986z" fill="#1C468A"/><path d="M92.043 92.253l12.026.126.008-.725-12.026-.126-.008.725z" fill="#1C468A"/><path d="M75.466 58.035c-.043-.052-.148-.096-.374-.105 0 0 .183-.113.426-.113.053-.315.227-.874.766-1.005 0 0-.296.157-.33.49.634-.647 1.982-1.11 5.713-.778 4.913.428 3.27 3.58 2.626 3.948-.644.375-2.235-.673-3.418-.586-1.191.088-1.426 1.808-1.826 2.035-.4.236-.243-.183-.783-.436-.539-.254-.6.655-.452 1.249.157.594-.6 1.362-.6 1.362l-.748-.82c-.748-.822-1.435-4.298-1.087-5.031.018-.079.052-.14.087-.21z" fill="#2C3A64"/><path d="M83.702 93.555s-.783.462-2.227 1.013C75.25 90 75.275 79.197 75.25 79.013l7.827 6.917.26 4c.044.21.07.42.053.629-.192 2.07.547 2.332.313 2.996z" fill="#91B8EF"/><path d="M94.98 88.472s.505.078 1.027-.166c.53-.254 2.356-1.04 2.695-.926.34.105 1.461.742 1.722.865.261.122.731.742.731.742-.191.192-.87-.253-1.174-.245-.304.01-2.548 1.24-3.21 1.267-.669.026-1.704-.114-1.704-.114l-.086-1.423z" fill="#FFB27D"/><path d="M99.05 88.576c.01.035.818.944 1.444.656l-.678-.673-.766.017zm-3.035-.27s.73-.681.974-1.005c0 0 .148.07.148.192.009.21-.191.586-.191.586l-.93.227z" fill="#FFB27D"/><path d="M81.658 72.183c-4.009-2.454-8.74 1.834-6.757 6.105 2.305 4.952 6.148 10.996 9.2 11.354 2.175.253 8.393 1.057 11.028.559 0 0 1.278.061.582-2 0 0-8.504-2.384-9.922-4.227-.757-.987-2.052-2.996-4.044-11.73 0-.034-.052-.043-.087-.06z" fill="#B0D4FF"/><path d="M189.492 125.511h.044c.252 0 .461-.21.452-.463l-.687-29.782-2.018-.235 1.722 30.017a.488.488 0 00.487.463zm-99.085 0h-.044a.452.452 0 01-.452-.463l.687-29.782 2.018-.235-1.722 30.017a.494.494 0 01-.487.463z" fill="#739AF0"/><path d="M191.249 95.808H88.389a1.361 1.361 0 01-1.356-1.363v-.873a1.36 1.36 0 011.356-1.362H191.24a1.36 1.36 0 011.356 1.362v.873c.009.76-.6 1.363-1.347 1.363z" fill="#739AF0"/><path d="M174.299 19.668c0 2.498.878 4.786 2.348 6.568a8.632 8.632 0 011.974 5.476v2.882c0 1.834 1.495 3.336 3.322 3.336h5.313c1.826 0 3.322-1.502 3.322-3.336v-2.89c0-2.01.713-3.94 1.983-5.486a10.312 10.312 0 002.33-6.62c-.034-5.703-4.617-10.27-10.287-10.27-.635 0-1.253.06-1.844.166l-.391.078a10.343 10.343 0 00-8.07 10.096z" fill="#F9DDBF"/><path d="M187.23 37.93l-.009.087-.147 1.127-.035.297-.035.297-.148 1.127-.035.297-.034.297-.018.165c-.078.568-.722 1.005-1.496 1.005h-1.747a1.907 1.907 0 01-.931-.236l-.009-.009a1.641 1.641 0 01-.261-.2.952.952 0 01-.287-.55l-.06-.437-.044-.271v-.009l-.035-.27-.147-1.04-.035-.27v-.01l-.035-.27-.157-1.127h5.705z" fill="#95C0F4"/><path d="M186.534 37.93h-.983a699.76 699.76 0 01-3.913 1.127l.034.27v.01l.035.27c.592-.166 2.018-.576 5.505-1.59l.009-.087h-.687zm-4.626 2.987l.043.28c.687-.193 2.105-.603 5.053-1.459l.035-.297.034-.297c-1.861.542-4.122 1.197-5.209 1.511l.044.262zm.651 1.467l.009.009c.122.07.261.131.409.166.808-.236 2.009-.585 3.791-1.1l.035-.297.035-.297c-1.592.462-3.426.995-4.557 1.318.087.079.183.149.278.201z" fill="#739AF0"/><path d="M180.753 24.672l-.463.08 2.231 13.226.463-.079-2.231-13.227zm7.622.198l-2.372 13.015.462.085 2.372-13.016-.462-.085z" fill="#fff"/><path d="M185.821 27.11a.846.846 0 01-.2-.027c-.121-.026-.2-.113-.226-.253-.052-.288.174-.83.496-1.284-.165-.297-.391-.533-.626-.611-.348-.105-.878.218-1.244.628.07.096.131.193.183.297.191.358.322.821.139 1.03-.07.08-.209.15-.487.044-.348-.13-.478-.427-.348-.812.061-.192.183-.384.331-.567-.287-.376-.67-.655-1.044-.612-.2.026-.374.096-.513.192.244.454.296 1.022.13 1.328-.113.21-.313.27-.556.183-.174-.06-.27-.305-.235-.629.035-.323.2-.68.487-.925a1.507 1.507 0 00-.269-.306c-.653-.507-1.183.035-1.209.061l-.105-.096c.009-.009.653-.655 1.392-.07.113.088.209.201.295.323.157-.104.348-.183.574-.218.427-.052.844.245 1.157.646.4-.436.974-.76 1.374-.637.252.078.487.323.67.62.165-.218.356-.41.539-.533.295-.192.487-.148.591-.079a1 1 0 01.287.289c.087-.07.183-.131.27-.175.339-.175.652-.157.878.035l-.087.105c-.243-.21-.556-.096-.73-.018a1.31 1.31 0 00-.261.166c.226.41.269.944.139 1.206-.078.165-.226.218-.4.157-.305-.114-.383-.323-.392-.49-.017-.305.192-.646.47-.899a.894.894 0 00-.252-.262c-.131-.087-.313-.009-.444.079a2.502 2.502 0 00-.547.55c.208.402.321.873.243 1.179-.035.166-.148.384-.47.384zm.14-1.424c-.279.41-.479.873-.427 1.117.018.08.053.123.122.14.278.061.444-.017.505-.244.06-.254-.027-.655-.2-1.013zm-2.035-.01a1.783 1.783 0 00-.287.49c-.105.314-.018.533.261.637.113.044.26.08.33-.008.113-.123.043-.48-.157-.874-.043-.078-.095-.157-.147-.244zm-1.766-.444a1.343 1.343 0 00-.417.812c-.026.244.035.436.148.48.182.061.313.026.391-.122.139-.262.087-.769-.122-1.17zm5.201.087c-.244.236-.409.541-.4.768.008.166.113.289.295.358.105.035.174.01.226-.087.113-.21.07-.672-.121-1.04z" fill="#fff"/><path d="M64.048 46.28h-1.722v6.349h1.722v-6.35zm-.218-.63h-1.218a.216.216 0 01-.217-.218c0-.122.095-.218.217-.218h1.218c.121 0 .217.096.217.218-.009.123-.104.219-.217.219zm-2.748-4.357H59.36V52.62h1.722V41.293zm-.252-.472h-1.21a.216.216 0 01-.217-.218c0-.123.095-.219.217-.219h1.209c.122 0 .217.096.217.219-.008.122-.104.218-.217.218zm-2.584-7.415h-1.721V52.63h1.721V33.406zm-.26-.524h-1.208a.216.216 0 01-.218-.218c0-.122.096-.218.218-.218h1.208c.122 0 .218.096.218.218a.216.216 0 01-.218.218zm-2.653 4.008h-1.721v15.73h1.721V36.89zm-.26-.418h-1.209a.216.216 0 01-.217-.219c0-.122.096-.218.217-.218h1.21c.12 0 .217.096.217.218a.216.216 0 01-.218.219zm-2.574-8.315h-1.722V52.62H52.5V28.157zm-.261-.463h-1.21a.216.216 0 01-.216-.218c0-.122.095-.218.217-.218h1.209c.121 0 .217.096.217.218a.216.216 0 01-.217.218zm-2.505 4.289h-1.721V52.62h1.721V31.983zm-.261-.437h-1.209a.216.216 0 01-.217-.218c0-.123.096-.219.217-.219h1.21c.12 0 .217.096.217.218a.216.216 0 01-.218.219z" fill="#D6E8FC"/><path d="M175.968 92.218H161.82l-4.262-10.637h14.132l4.278 10.637z" fill="#2B478B"/><path d="M161.646 91.8h18.697v.418h-18.524l-.173-.419z" fill="#2B478B"/><path d="M165.385 86.9c-.104-.376.105-.673.479-.673.373 0 .756.306.869.672.105.376-.104.673-.478.673s-.757-.297-.87-.672z" fill="#fff"/></g><defs><clipPath id="clip0"><path fill="#fff" d="M0 0h247v126H0z"/></clipPath></defs></svg>