<svg width="210" height="123" fill="none" xmlns="http://www.w3.org/2000/svg"><g clip-path="url(#clip0)"><path d="M16.594 122.939S-9.1 91.899 3.453 59.938c8.182-20.835 38.889-32.245 56.224-20.835 7.38 4.858 31.058.16 43.703-19.961 24.571-39.11 110.317-15.356 94.701 44.696-7.557 29.064 22.989 30.114 7.426 59.17l-188.913-.069z" fill="#EBF3FA"/><path d="M35.62 71.852s-2.59-3.034-.161-4.958c0 0 1.772-1.08 3.224-.988 0 0-2.055 3.448-1.39 3.793.664.345 2.009-4.008 2.009-4.008s4.041-.39 5.34.238c0 0-3.453 2.835-2.727 3.004.726.168 4.462-2.613 4.462-2.613s3.759.643 3.56 2.942c-.199 2.299-1.497 3.012-2.063 2.95-.573-.061-3.904-1.34-3.973-.866-.076.468 1.933 2 3.339 2.07 0 0-2.651 2.934-4.416 2.084-1.765-.843-1.91-2.192-3.01-2.69-1.1-.506-2.04-.506-1.582.008.45.513 2.445 1.011 3.072 2.13.626 1.11 1.191 1.87-.635 1.594s-4.79-1.617-4.92-3.15l-.13-1.54z" fill="#C8DBF4"/><path d="M48.088 69.316s-10.215-.399-12.477 2.536c0 0-.496 1.502-2.032 2.866l-.237.651s1.773-1.87 2.407-1.984c0 0-.994-3.632 12.339-4.07z" fill="#C8DBF4"/><path d="M33.579 74.71s-2.193 1.625-2.346 4.537l.398.038s.703-3.004 1.963-4.184c1.268-1.172-.015-.39-.015-.39zm-7.021-6.674s4.125-2.314 2.2-5.456c0 0-1.536-1.93-3.186-2.429 0 0 .879 4.69 0 4.797-.879.108-.604-5.295-.604-5.295s-4.34-2.091-6.043-1.93c0 0 2.697 4.574 1.81 4.467-.878-.108-3.904-4.743-3.904-4.743s-4.454-.828-5.164 1.816c-.719 2.643.443 3.969 1.1 4.137.657.169 4.89.108 4.783.66-.107.551-2.965 1.432-4.562.934 0 0 1.758 4.353 4.065 4.138 2.307-.222 3.026-1.655 4.454-1.762 1.43-.108 2.476.275 1.758.659-.719.383-3.133.13-4.287 1.11-1.153.982-2.085 1.595.054 2.031 2.147.445 5.99.169 6.762-1.486l.764-1.648z" fill="#C8DBF4"/><path d="M13.691 60.098s11.545 3.747 12.859 7.938c0 0-.054 1.878 1.1 4.023v.828s-1.207-2.813-1.872-3.196c.008 0 2.59-3.64-12.087-9.593zM27.657 72.06s1.78 2.712.765 6.007l-.459-.123s.443-3.632-.489-5.463c-.932-1.824.183-.422.183-.422z" fill="#C8DBF4"/><path d="M33.113 64.84s-5.433-3.049-2.896-7.194c0 0 2.032-2.544 4.202-3.196 0 0-1.161 6.176 0 6.322 1.161.146.795-6.973.795-6.973s5.722-2.758 7.968-2.544c0 0-3.552 6.03-2.39 5.885 1.16-.146 5.141-6.253 5.141-6.253s5.868-1.088 6.807 2.399c.94 3.486-.58 5.233-1.451 5.448-.871.214-6.449.145-6.303.873.145.728 3.911 1.893 6.013 1.234 0 0-2.316 5.74-5.364 5.448-3.04-.291-3.988-2.184-5.868-2.322-1.887-.145-3.262.36-2.315.874.94.506 4.134.169 5.654 1.464 1.52 1.294 2.75 2.099-.069 2.674-2.827.582-7.9.214-8.908-1.962l-1.016-2.176z" fill="#D4E4F8"/><path d="M50.066 54.382s-15.219 4.942-16.953 10.467c0 0 .069 2.467-1.452 5.302v1.088s1.597-3.709 2.46-4.214c.008 0-3.4-4.797 15.945-12.644z" fill="#D4E4F8"/><path d="M31.66 70.151s-2.345 3.57-1.008 7.923l.604-.16s-.588-4.79.642-7.204c1.23-2.413-.237-.559-.237-.559z" fill="#D4E4F8"/><path d="M32.93 87.507c5.875 0 10.642-4.782 10.642-10.674H22.286c0 5.892 4.768 10.674 10.643 10.674z" fill="#D4E4F8"/><path d="M43.725 88.05H22.142c0-.727.588-1.317 1.314-1.317H42.41c.726 0 1.314.59 1.314 1.318z" fill="#D4E4F8"/><path d="M43.817 76.833H21.935v.33h21.882v-.33z" fill="#9FC1F4"/><path d="M87.856 122.717h.053c.428-.008.764-.361.718-.767l-2.872-28.742-2.506.222 4.118 28.896c.045.23.252.398.489.391zm-27.628 0h-.053c-.428-.008-.764-.361-.718-.767l2.872-28.742 2.506.222-4.118 28.896a.48.48 0 01-.489.391zm47.874 0h.053c.428-.008.764-.361.719-.767l-2.873-28.742-2.506.222 4.118 28.896c.038.23.244.398.489.391zM61.084 89.032l-5.096-25.225c-.657-3.418 2.17-6.537 5.83-6.452l9.825.222a7.753 7.753 0 017.273 5.617l7.45 25.838H61.084z" fill="#8CB4F4"/><path d="M64.163 89.032l-5.096-25.225c-.657-3.418 2.17-6.537 5.83-6.452l9.825.222a7.753 7.753 0 017.273 5.617l7.45 25.838H64.162zm-1.658 4.605h38.866a1.43 1.43 0 001.421-1.425v-1.755a1.43 1.43 0 00-1.421-1.425H61.084v3.18c0 .781.634 1.425 1.42 1.425z" fill="#8CB4F4"/><path d="M80.742 93.637h24.77c.626 0 1.146-.513 1.146-1.15v-2.306c0-.628-.512-1.15-1.146-1.15H80.734c-.626 0-1.146.514-1.146 1.15v2.307c.008.628.52 1.149 1.154 1.149z" fill="#8CB4F4"/><path d="M49.486 88.702v.859c0 .298-.1.543-.214.543H17.955c-.123 0-.214-.245-.214-.543v-.859c0-.299.099-.544.214-.544h31.317c.115 0 .214.245.214.544z" fill="#9ABFE2"/><path d="M49.486 88.702v.859c0 .298-.092.543-.199.543H24.426c-.107 0-.199-.245-.199-.543v-.859c0-.299.092-.544.199-.544h24.861c.107 0 .199.245.199.544z" fill="#BAD4F4"/><path d="M41.563 90.112H19.33v32.497h22.233V90.112z" fill="#C8DBF4"/><path d="M47.797 90.112H25.564v32.497h22.233V90.112z" fill="#DFEBFD"/><path d="M46.598 120.816H26.756V91.032h19.842v29.784zm-19.628-.214h19.414V91.246H26.97v29.356z" fill="#B7D3F3"/><path d="M46.49 100.886H26.864v.214H46.49v-.214zm0 10.045H26.864v.215H46.49v-.215zm-7.8-17.984h-3.644a.323.323 0 01-.321-.322c0-.176.145-.321.32-.321h3.645c.176 0 .321.145.321.322a.318.318 0 01-.32.321zm0 9.824h-3.644a.324.324 0 01-.321-.322c0-.176.145-.322.32-.322h3.645c.176 0 .321.146.321.322a.318.318 0 01-.32.322zm0 10.245h-3.644a.324.324 0 01-.321-.322c0-.176.145-.322.32-.322h3.645c.176 0 .321.146.321.322a.324.324 0 01-.32.322z" fill="#B7D3F3"/><path d="M136.76 31.685h-14.088c-.65 0-1.177-.529-1.177-1.18V16.858c0-.652.527-1.18 1.177-1.18h14.088c.65 0 1.177.528 1.177 1.18v13.64c0 .65-.527 1.187-1.177 1.187z" fill="#C0D8FB"/><path d="M136.149 30.988h-12.874a1.083 1.083 0 01-1.077-1.08V17.454c0-.59.481-1.08 1.077-1.08h12.874c.588 0 1.077.483 1.077 1.08v12.46a1.08 1.08 0 01-1.077 1.073z" fill="#DFEBFD"/><path d="M129.716 18.183a.344.344 0 000-.69.344.344 0 00-.343.346c0 .19.153.344.343.344zm2.407.138a.338.338 0 01.466-.13.34.34 0 01.13.468.338.338 0 01-.466.13.351.351 0 01-.13-.468zm2.353 1.87a.35.35 0 01.474.1.353.353 0 01-.1.475.35.35 0 01-.473-.1.34.34 0 01.099-.475zm1.17 2.904c.191 0 .343.153.343.345a.343.343 0 11-.687 0c0-.192.153-.345.344-.345zm-.597 3.372c.13.13.13.352 0 .482a.345.345 0 01-.481 0 .347.347 0 010-.482c.13-.13.344-.13.481 0zm-2.139 2.153c.13.13.13.352 0 .483a.345.345 0 01-.481 0 .347.347 0 010-.483.331.331 0 01.481 0zm-3.537 1.11a.343.343 0 11.687 0 .343.343 0 01-.344.346.352.352 0 01-.343-.345zm-2.079-11.409a.338.338 0 00-.466-.13.341.341 0 00-.13.468.338.338 0 00.466.13.35.35 0 00.13-.468zm-2.353 1.869a.35.35 0 00-.473.1.353.353 0 00.099.476c.16.1.367.053.474-.1a.339.339 0 00-.1-.475zm-1.169 2.905a.343.343 0 00-.344.345c0 .191.153.345.344.345a.343.343 0 00.344-.345.343.343 0 00-.344-.345zm.596 3.372a.347.347 0 000 .482c.13.13.351.13.481 0a.347.347 0 000-.482.345.345 0 00-.481 0zm2.384 2.735a.344.344 0 10-.002-.688.344.344 0 00.002.688zm2.872-5.762c0-.192.153-.345.344-.345.191 0 .344.153.344.345a.343.343 0 01-.344.345.343.343 0 01-.344-.345z" fill="#B7D3F3"/><path d="M130.006 19.172h-.091v4.268h.091v-4.268z" fill="#B7D3F3"/><path d="M132.091 21.544l-2.254 1.774.175.223 2.253-1.774-.174-.223z" fill="#B7D3F3"/><path d="M94.938 83.752c-2.101 3.67-4.745 5.088-4.745 5.088H79.191s17.351-7.885 15.747-5.088z" fill="#233862"/><path d="M108.507 120.211c-.123 1.157 1.49 1.456 3.346 1.571 1.864.115 1.291.49 3.843.98 2.544.491 3.576-.199 3.767-.544.168-.306-1.016-.796-2.277-1.356-.16-.069-.321-.138-.474-.214-1.413-.644-2.2-1.931-3.3-3.134-1.039-1.134-2.002-4.751-2.002-4.751l-3.461-.782s.94 3.249 1.261 4.636c.191.812-.115 1.724-.382 2.414-.13.391-.283.774-.321 1.18z" fill="#FFB27D"/><path d="M111.853 121.782c1.864.115 1.291.49 3.843.981 2.545.49 3.576-.2 3.767-.545.168-.306-1.016-.796-2.277-1.356l-.023.023s-1.803.59-3.866.008c-1.681-.475-3.308-1.51-4.469-1.847-.145.376-.291.759-.329 1.165-.114 1.157 1.498 1.456 3.354 1.571z" fill="#0F2549"/><path d="M103.266 79.998c-1.865-1.31-14.18-3.648-20.469-4.33l-6.952-6.053s-5.914 8.789-5.96 15.509c-.023 3.134 1.421 3.448 1.421 3.448s22.28.169 23.257.268c1.597.169 3.706 4.161 4.233 7.793.527 3.64 9.818 18.429 9.818 18.429s1.94.62 2.834.567c.963-.054 1.406-.384 1.406-.384s-5.394-32.29-9.588-35.247z" fill="#233862"/><path d="M102.746 120.211c-.122 1.157 1.49 1.456 3.347 1.571 1.864.115 1.291.49 3.843.98 2.552.491 3.575-.199 3.766-.544.168-.306-1.016-.796-2.276-1.356a9.323 9.323 0 01-.474-.214c-1.414-.644-2.201-1.931-3.301-3.134-1.039-1.134-2.001-4.751-2.001-4.751l-3.462-.782s.94 3.249 1.261 4.636c.191.812-.114 1.724-.382 2.414-.137.391-.283.774-.321 1.18z" fill="#FFB27D"/><path d="M106.092 121.782c1.864.115 1.291.49 3.843.981 2.552.49 3.576-.2 3.767-.545.168-.306-1.016-.796-2.277-1.356l-.023.023s-1.803.59-3.866.008c-1.681-.475-3.308-1.51-4.47-1.847-.145.376-.29.759-.328 1.165-.115 1.157 1.49 1.456 3.354 1.571z" fill="#233862"/><path d="M97.452 79.998c-1.62-1.142-6.487-2.023-11.858-2.682a3.634 3.634 0 01-3.072-2.72l-12.491-4.981s-5.914 8.789-5.96 15.509c-.023 3.134 1.421 3.448 1.421 3.448s22.28.169 23.257.268c1.597.169 3.706 4.161 4.233 7.793.527 3.64 9.818 18.429 9.818 18.429s1.94.62 2.834.567c.963-.054 1.406-.384 1.406-.384s-5.386-32.29-9.588-35.247z" fill="#2B478B"/><path d="M80.727 33.11c-1.72-.904-4.332-1.027-4.752-1.08-5.081-.682-8.137 6.72-8.313 8.957-.329 4.138-2.514 4.766-5.585 7.356-6.158 5.196-4.347 11.226-.986 13.463 2.017 1.35 5.578 0 5.578 0 .053.039 9.733-5.425 14.508-8.06 7.16-1.027 3.928-18.33-.45-20.636z" fill="#233862"/><path d="M79.673 51.194c.022.008-2.254 1.05-3.905.505-1.55-.513-2.91-2.85-2.888-2.85.673-.1 1.353-.758 1.544-4.697l.298.076 5.004 1.265s-.199 1.586-.283 3.088c-.068 1.264-.053 2.46.23 2.613z" fill="#FFB27D"/><path d="M79.726 45.493s0 .33-.183 1.808c-2.827-.712-4.08-1.655-4.959-2.735l5.142.927z" fill="#ED975D"/><path d="M80.788 45.692s-6.617 1.08-7.22-3.065c-.604-4.138-1.872-6.789 2.33-7.655 4.194-.866 5.249.598 5.791 1.931.535 1.333.803 8.398-.901 8.79z" fill="#FFB27D"/><path d="M80.795 34.796s-3.002 4.758-5.684 5.885c-2.682 1.126-3.996.552-3.996.552s1.223-1.855 1.536-4.345a2.042 2.042 0 011.253-1.64c1.925-.774 5.646-1.992 6.891-.452z" fill="#233862"/><path d="M78.16 35.256s1.757.904 2.483 1.754c.703.82 1.505 3.042 1.451 4.038 0 0 .871-4.78-.94-6.42-1.917-1.748-2.994.628-2.994.628z" fill="#233862"/><path d="M84.96 61.309c-.2 13.486-.054 10.666-1.529 11.945-.351.307-1.352.49-2.659.575-4.125.276-11.368-.406-11.643-1.172-.948-2.644-.283-3.464-1.07-7.517-.084-.43-.183-.897-.305-1.402-.665-2.782-1.307-3.724 1.039-8.192 2.131-4.046 4.63-7.333 4.828-7.21 5.616 3.34 5.807.544 5.807.544s5.63 5.854 5.531 12.428z" fill="#fff"/><path d="M79.428 48.88s5.745.98 6.425 3.47l4.668 17.165s-2.933.529-4.293-.835c-1.36-1.364-4.722-12.628-4.722-12.628l-2.078-7.172z" fill="#fff"/><path d="M80.773 73.837c-4.126.276-11.369-.406-11.644-1.172-.947-2.644-.283-3.464-1.07-7.518l1.987-5.616s-.329 6.252 1.513 7.9c1.833 1.647 7.525 3.172 8.42 4.552.427.658.71 1.325.794 1.854z" fill="#EBF3FF"/><path d="M76.051 71.209s4.065-.912 4.722-.544c.657.36 2.261 1.678 2.46 2.137.198.46-1.46-.345-2.002-.49-.351-.092-1.268.23-1.727.383-1.917.644-3.094.314-3.094.314l-.359-1.8z" fill="#FFB27D"/><path d="M73.621 48.343s-5.753.337-7.647 2.981c-2.66 3.724-7.939 19.586-4.913 21.7 3.408 2.384 15.51.621 15.51.621s.404-1.885-.16-2.804c-.559-.912-9.666-2.391-10.086-2.813-.42-.42 5.249-8.214 5.249-9.478 0-1.257 2.047-10.207 2.047-10.207z" fill="#fff"/><path d="M80.97 71.799s.857 1.103 1.132 1.233c.282.13.458.1.458.1l-.573-1.035-1.016-.298zm-.198-1.142l2.476 1.203s-.107.176-.413.16c-.305-.015-1.077-.298-1.077-.298l-.986-1.065z" fill="#FFB27D"/><path d="M89.903 73.523H78.396a.92.92 0 01.917-.92h10.59v.92z" fill="#078A44"/><path d="M89.864 60.948h17.795l-4.264 12.575H85.487l4.377-12.575z" fill="#078A44"/><path d="M107.919 60.948l-4.264 12.575H85.747l4.385-12.575h17.787z" fill="#01BA57"/><path d="M98.33 67.117c-.107.483-.588.866-1.07.866-.481 0-.779-.391-.664-.866.106-.483.588-.866 1.07-.866.473 0 .77.39.664.866z" fill="#fff"/><path d="M74.416 76.35h77.969a.598.598 0 00.596-.597v-1.64a.598.598 0 00-.596-.598h-77.97a.598.598 0 00-.595.598v1.64c0 .329.267.597.596.597z" fill="#182D4F"/><path d="M154.294 122.931l.031-.008a.72.72 0 00.634-.796l-6.945-47.171-2.544.076 8.175 47.424a.576.576 0 00.649.475zm-82.491 0l-.03-.008a.72.72 0 01-.635-.796l6.945-47.171 2.544.076-8.175 47.424a.576.576 0 01-.65.475zm16.083 0l-.03-.008a.72.72 0 01-.635-.796l6.945-47.171 2.544.076-8.175 47.424a.576.576 0 01-.65.475z" fill="#182D4F"/><path d="M128.875 122.893h13.791c.665-.812.42-3.809.321-4.782-.023-.199-.038-.314-.038-.314s-4.707-3.777-5.356-.881l-.069.268c-.817 2.705-4.469 3.931-6.578 4.276-1.375.214-1.88.935-2.071 1.433z" fill="#233862"/><path d="M166.496 77.96c-.496 0-23.616 4.352-27.443 9.103-1.91 2.375-2.193 29.761-2.193 29.761s2.361 2.942 7.464 1.234c0 0 3.744-18.743 3.469-24.421-.076-1.57 15.793-.23 18.703-.98 2.911-.752 10.002-7.096 8.443-10.184-1.566-3.088-8.443-4.514-8.443-4.514z" fill="#233862"/><path d="M139.159 71.254s-4.66.062-5.768.537c-1.1.475-3.339 1.563-2.743 1.732.596.168 3.453-.07 4.072.023.619.092 1.376-.023 1.758-.023h2.139l.542-2.269zm-5.455-11.225s-1.589-1.142-3.132-1.364c-.879-.123-1.735-.284-2.254-.468-1.421-.505-4.279-3.072-4.057-3.379.688-.965 4.019 1.08 4.599.858.581-.222-1.115-1.432-.527-1.854.306-.222 1.032.889 1.62 1.004.795.153 1.421 1.28 1.658 1.34.466.116 2.513 1.64 2.513 1.64l-.42 2.223z" fill="#FFB27D"/><path d="M164.197 46.727s-3.553 1.103-7.045 10.766c-3.499 9.662-4.828 10.183-6.097 10.559-1.268.375-12.43 2.605-12.43 2.605v2.866h17.198s6.448-6.153 8.381-10.291c1.926-4.146-.007-16.505-.007-16.505z" fill="#0C954B"/><path d="M122.786 122.893h13.791c.665-.812.42-3.809.321-4.782-.023-.199-.038-.314-.038-.314s-4.707-3.777-5.356-.881l-.069.268c-.817 2.705-4.469 3.931-6.578 4.276-1.375.214-1.88.935-2.071 1.433z" fill="#1B3051"/><path d="M159.689 77.96c-.497 0-23.616 4.352-27.444 9.103-1.91 2.375-2.193 29.761-2.193 29.761s2.361 2.942 7.465 1.234c0 0 3.744-18.743 3.469-24.421-.077-1.57 15.792-.23 18.703-.98 2.903-.752 10.001-7.096 8.442-10.184-1.566-3.088-8.442-4.514-8.442-4.514z" fill="#2B478B"/><path d="M161.133 49.784c1.666-.138 3.408-.582 4.913-1.073 1.887-.613 3.4-1.51 2.422-3.233-.902-1.594-2.361-5.15-2.262-8.092l-3.507 2.835-2.383 1.923s.007 1.134.267 3.127c.046.36.107.75.168 1.172a.855.855 0 01-.39.858c-.015.008-.038.023-.053.03-1.177.736-.565 2.568.825 2.453z" fill="#FFB27D"/><path d="M160.323 41.67s-.122.413.084 1.93c2.124-.345 4.11-2.046 4.11-2.046-1.077-.299-1.474-1.47-2.276-1.356l-1.918 1.471z" fill="#ED975D"/><path d="M158.359 42.022s8.168 1.364 8.932-3.755c.764-5.11 2.338-8.383-2.842-9.463-5.18-1.088-6.487.712-7.159 2.36-.673 1.64-1.039 10.367 1.069 10.858z" fill="#FFB27D"/><path d="M156.083 28.896c-.351 1.233.588 2.728 2.162 3.226 2.338.735 1.819 3.609 2.873 3.57 1.054-.038 1.475-1.655 2.414-.36.803 1.104-.664 2.406-.565 3.012.176 1.034 1.788 3.157 3.247 3.05 1.459-.108 4.187-7.058 3.644-9.203-.542-2.154-2.727-4.414-4.79-4.728-2.063-.314-4.936.582-5.6.582-.665 0-3.194.184-3.385.85z" fill="#2B478B"/><path d="M175.046 53.822c-1.177-4.766-4.439-9.762-6.647-9.762-3.759.008-9.161 1.004-11.346 6.398-1.605 3.977-3.752 26.842-1.33 28.467 5.54 3.716 18.375 11.31 20.652 3.57 2.093-7.087.718-20.405-1.329-28.673z" fill="#01BA57"/><path d="M165.915 49.079c-1.069-2.797-4.53-3.762-6.891-1.923-1.276.996-2.835 2.413-4.722 4.429-7.013 7.494-8.442 7.448-9.756 7.287-1.314-.154-12.446-2.521-12.446-2.521s-.573.421-.91 1.103c-.45.912-.221 1.533-.221 1.533-.436-.284 3.942 2.743 6.127 3.954 2.881 1.593 7.22 3.088 8.947 3.655a2.31 2.31 0 001.505-.023c2.567-.927 11.178-4.307 18.192-10.169 1.849-1.547 1.176-4.727.175-7.325z" fill="#01BA57"/><path d="M168.78 44.106l-.848-1.923s-7.617.62-8.901 4.973c0 0 5.906-2.958 9.749-3.05z" fill="#fff"/><path d="M187.27 122.717h.054c.427-.008.764-.361.718-.767l-2.873-28.742-2.506.222 4.118 28.896c.046.23.252.398.489.391zm-14.768 0h.053c.428-.008.764-.361.718-.767l-2.872-28.742-2.506.222 4.118 28.896c.045.23.252.398.489.391z" fill="#8CB4F4"/><path d="M144.775 122.717h-.053c-.428-.008-.764-.361-.719-.767l2.873-28.742 2.506.222-4.118 28.896a.475.475 0 01-.489.391z" fill="#73A2E5"/><path d="M186.46 89.139l2.72-24.007c.359-3.456-.795-6.843-5.776-7.11l-8.756-.537c-5.188-.215-7.533 4.115-8.19 7.456l-5.196 26.39 25.198-2.192z" fill="#8CB4F4"/><path d="M185.001 93.637h-38.866a1.43 1.43 0 01-1.421-1.425v-1.755a1.43 1.43 0 011.421-1.425h40.28v3.18c0 .781-.634 1.425-1.414 1.425z" fill="#73A2E5"/><path d="M185.314 93.637h-22.943c-.604 0-1.1-.498-1.1-1.103v-2.391c0-.606.496-1.104 1.1-1.104h24.051v3.495a1.118 1.118 0 01-1.108 1.103z" fill="#8CB4F4"/></g><defs><clipPath id="clip0"><path fill="#fff" d="M0 0h210v123H0z"/></clipPath></defs></svg>