<svg width="219" height="122" fill="none" xmlns="http://www.w3.org/2000/svg"><g clip-path="url(#clip0)"><path d="M10.315 122s-16.036-18.018-8.11-52.813C7.193 47.303 28.363 33.82 56.218 37.493c25.788 3.4 25.362-10.245 47.923-23.277 48.269-27.86 118.086-16.028 101.382 46.643-8.087 30.333 25.434 30.816 8.778 61.133H10.315V122z" fill="#EBF3FA"/><path d="M147.075 8.538l-2.253-.105h-.056a.54.54 0 00-.555.451l-.29 1.86c-.008.033-.008.065-.024.09a.53.53 0 01-.459.354 9.409 9.409 0 00-3.572 1.03.52.52 0 01-.145.049.568.568 0 01-.507-.17l-1.03-1.183a.54.54 0 00-.716-.08l-1.891 1.32a.548.548 0 00-.161.725l1.046 1.812a.525.525 0 01-.024.572 9.467 9.467 0 00-1.134 2.288.536.536 0 01-.491.37l-2.124.089-.105.008a.52.52 0 00-.507.507l-.105 2.304a.552.552 0 00.467.572l2.068.322a.54.54 0 01.451.443 9.3 9.3 0 00.941 2.754.532.532 0 01-.129.653l-1.4 1.232a.557.557 0 00-.088.733l1.327 1.9c.161.226.459.29.692.154l2.124-1.232a.557.557 0 01.58.016 10.13 10.13 0 001.987 1.007.53.53 0 01.354.475l.097 2.553a.535.535 0 00.515.515l2.309.105a.556.556 0 00.539-.378c.008-.025.016-.049.016-.073l.362-2.303a.534.534 0 01.394-.444c.017-.008.041-.008.057-.016.056-.008.112-.016.169-.032a9.582 9.582 0 001.931-.548.52.52 0 01.595.145l1.296 1.482c.185.21.499.25.724.089l.418-.29 1.465-1.03a.545.545 0 00.161-.718l-1.038-1.78a.522.522 0 01.048-.596c.37-.443.7-.934.99-1.466.217-.394.402-.797.555-1.2l.442-.016 1.827-.072a.528.528 0 00.507-.508l.112-2.32a.542.542 0 00-.458-.555l-1.416-.218a.538.538 0 01-.451-.475 9.708 9.708 0 00-.74-2.891.516.516 0 01.137-.613l1.77-1.554a.52.52 0 00.08-.685l-1.344-1.917a.524.524 0 00-.7-.153l-2.212 1.281a.535.535 0 01-.604-.04c-.37-.29-.78-.556-1.207-.79a13.77 13.77 0 00-.7-.354.558.558 0 01-.322-.467l-.096-2.449a.516.516 0 00-.499-.54zm-6.992 9.077a5.906 5.906 0 011.4-1.393c.121-.09.265-.17.426-.25.684-.338 1.61-.564 2.269-.532 5.078.266 6.888 6.299 2.889 9.32-.064.047-.137.096-.201.144-.636.451-1.811.782-2.583.75a6.505 6.505 0 01-1.159-.154 5.073 5.073 0 01-3.041-7.885z" fill="#DFEDFB"/><path d="M177.634 24.59l-3.436-.588-.08-.016a.824.824 0 00-.934.588l-.796 2.795a2.223 2.223 0 01-.048.129.82.82 0 01-.773.459 14.439 14.439 0 00-5.664.894 1.14 1.14 0 01-.226.048.863.863 0 01-.748-.362l-1.36-2.014a.832.832 0 00-1.078-.266l-3.146 1.66c-.386.2-.555.676-.386 1.079l1.263 2.972a.84.84 0 01-.145.87c-.306.346-.587.7-.861 1.08a14.392 14.392 0 00-1.319 2.206.835.835 0 01-.829.475l-3.267-.274-.161-.016a.82.82 0 00-.877.677l-.611 3.528a.856.856 0 00.603.966l3.114.894a.837.837 0 01.604.765 14.66 14.66 0 00.909 4.398.834.834 0 01-.314.975l-2.382 1.61a.852.852 0 00-.273 1.104l1.665 3.157a.817.817 0 001.03.37l3.492-1.481a.846.846 0 01.885.137c.298.258.612.507.942.74a14.77 14.77 0 001.907 1.177.811.811 0 01.442.797l-.338 3.93a.839.839 0 00.692.895l3.524.604a.832.832 0 00.934-.588l.989-3.456a.84.84 0 01.692-.604c.033-.008.057-.008.089-.008.088 0 .169 0 .257-.016 1.03-.048 2.06-.21 3.066-.475.33-.097.692.04.885.338l1.706 2.513a.848.848 0 001.094.274l.7-.37 2.438-1.297a.83.83 0 00.378-1.063l-1.239-2.932a.793.793 0 01.193-.902 14.817 14.817 0 002.873-3.786l.684.056 2.808.234a.805.805 0 00.812-.475.804.804 0 00.065-.201l.611-3.536a.843.843 0 00-.595-.943l-2.124-.604a.837.837 0 01-.604-.813 14.558 14.558 0 00-.579-4.567.802.802 0 01.322-.91l3.009-2.038a.802.802 0 00.258-1.039l-1.69-3.19a.809.809 0 00-1.038-.37l-3.637 1.538a.83.83 0 01-.917-.177 14.031 14.031 0 00-1.698-1.442c-.33-.241-.668-.467-1.014-.668a.864.864 0 01-.402-.781l.322-3.77a.81.81 0 00-.668-.894zM165.17 37.147a9.052 9.052 0 012.414-1.86 5.24 5.24 0 01.7-.307c1.111-.386 2.575-.555 3.581-.378 7.732 1.377 9.349 10.978 2.631 14.836-.113.064-.225.12-.338.185-1.062.564-2.921.854-4.104.653a10.286 10.286 0 01-1.746-.46c-5.399-2.03-6.823-8.61-3.138-12.67z" fill="#CDE3FD"/><path d="M63.596 49.559c-.193-4.793 3.822-6.919 7.926-6.919 4.103 0 8.569 1.063 8.955 7.434.25 4.1-1.931 6.62-8.223 6.62-2.116 0-3.766-.337-5.029-.933l-3.146 2.794 1.545-3.866c-1.368-1.272-1.947-3.068-2.028-5.13z" fill="#DFEDFB"/><path d="M24.557 121.766s-.17-1.329-.563-2.118c-.395-.789-2.905-.29-2.905-.29s-.5.427-.612 2.441l4.08-.033zm8.553-.016c-.588-.362-.258-3.052-.258-3.052s2.752-2.199 3.13-.516c.378 1.684 2.615 2.441 3.886 2.65.877.145 1.15.628 1.231.918h-7.99z" fill="#233862"/><path d="M27.42 102.194c.113.62.186 1.12.202 1.49.257 4.986 4.192 16.399 4.9 16.665 1.094.411 2.808-.467 3.709-.749.37-.121.62-.492.54-.878-1.948-8.981-2.672-21.908-2.93-29.56-.128-3.858-.796-6.516-.796-6.516s-9.607-2.57-9.664.677c-.056 2.867 3.179 14.135 4.04 18.871z" fill="#213F7A"/><path d="M27.42 102.194l6.421-13.04c-.128-3.858-.796-6.516-.796-6.516s-9.607-2.57-9.664.677c-.056 2.875 3.179 14.143 4.04 18.879z" fill="#233862"/><path d="M29.553 83.33l-5.078 36.858s-2.228.539-3.966.104c0 0-1.489-19.604-1.36-24.34.12-4.736-1.07-12.677.273-13.555 1.336-.878 10.13.934 10.13.934z" fill="#213F7A"/><path d="M19.06 73.867l-.635 8.852a.697.697 0 00.507.725c.708.209 1.529.346 3.098.676 1.48.306 3.468.58 5.914.596 3.894.024 5.366-1.32 5.366-1.32.17 0-.088-.814-.322-4.688-.08-1.313-.152-2.98-.209-5.083a305.11 305.11 0 01-.088-6.806c-.008-3.205-4.965-6.66-5.061-6.66 0 .458-.724 1.312-1.85 1.385-1.328.088-2.962-.572-2.962-1.345 0-.008-2.406 3.85-3.259 7.957a16.51 16.51 0 00-.257 1.651v.025a3.99 3.99 0 00-.032.322c0 .016 0 .04-.008.056-.008.097-.016.194-.032.298 0 .024-.008.057-.008.089l-.025.274v.024c-.008.064-.008.137-.016.201 0 .048-.008.097-.008.145-.008.08-.008.161-.016.242 0 .04-.008.08-.008.12-.008.081-.008.154-.016.234 0 .032-.008.073-.008.105-.008.113-.016.225-.016.338v.024c-.008.113-.008.218-.016.33v.081c-.008.105-.008.21-.016.314v.049c.008.265 0 .523-.016.789v.024-.024z" fill="#01BA57"/><path d="M27.654 60.158s4.61-.04 5.72 1.523c1.111 1.562 3.549 9.947 2.278 12.734-1.272 2.786-3.645-1.152-4.965-2.868-1.327-1.707-3.033-11.389-3.033-11.389z" fill="#01BA57"/><path d="M27.703 59.458v.475s.128 1.49-1.706 1.707c-1.835.218-3.194-.282-3.146-1.433.169-.894.314-1.804.33-2.538a5.126 5.126 0 00-.065-.893l3.557-.073 1.046.17-.016 2.585z" fill="#FFB27D"/><path d="M27.71 56.872l-.015 2.586a2.985 2.985 0 01-1.28.282c-1.633 0-2.695-1.2-3.242-2.07a5.136 5.136 0 00-.065-.895l3.556-.072 1.046.17z" fill="#E2915A"/><path d="M22.835 56.196c.41 2.223 3.283 2.15 4.522 2.013.346-.04.571-.08.571-.08.394-.105.612-.725.716-1.539.201-1.61-.056-3.963-.322-4.567-.41-.91-1.174-1.892-4.063-1.184-2.905.71-1.955 2.513-1.424 5.357z" fill="#FFB27D"/><path d="M32.37 66.409s1.786 3.946 1.73 5.13c0 0-.886-.032-1.73.226-1.393.41 0-5.356 0-5.356z" fill="#12954F"/><path d="M29.199 49.905s-1.272-.097-2.768-.749c-1.215-.532-2.752.056-3.251.314a.8.8 0 01.12-.298s-.225.161-.257.379c-.024.016-.032.032-.024.032 0 0-.257-.048-.418.024 0 0 .112-.016.153.056.008.009.008.017.016.025-1.9.918-2.076 3.922-1.465 4.615.733.837 1.618 2.722 1.618 2.722s.321-.443.185-1.184c-.137-.733.498-.733 1.303-1.071.805-.338.137-1.273.837-1.837.7-.571 3.275-.233 3.242-.668.95-.354.709-2.263.709-2.36z" fill="#233862"/><path d="M22.247 73.802c.756 3.029 8.9 4.591 10.75 4.914-.08-1.313-.153-2.98-.21-5.083l-10.54.17z" fill="#12954F"/><path d="M24.041 74.785c-.08 0-1.81-.258-2.124-.41-.314-.154-1.73-2.175-.796-2.69.933-.516 3.427 1.554 3.427 1.554l-.507 1.546z" fill="#FFB27D"/><path d="M34.582 75.381s-6.703.363-11.2-.604c0 0-.113-1.305 1.303-1.877 0 0 7.008-1.49 8.698-1.07 1.673.418 1.199 3.551 1.199 3.551z" fill="#01BA57"/><path d="M19.19 70.114c1.391 1.675 3.21 3.052 5.213 3.374.017-.024.604-.926.5-2.239-.049-.612-.25-1.313-.733-2.054a4.328 4.328 0 01-.394-.797c-1.094-2.795-.933-8.183-.933-8.183s-4.651.491-6.1 2.561c-.884 1.256.242 4.688 2.447 7.338z" fill="#01BA57"/><path d="M27.349 58.21c.346-.041.57-.081.57-.081.395-.105.612-.725.717-1.539-.74.185-1.078.75-1.215.999-.064.105-.08.346-.072.62z" fill="#E2915A"/><path d="M29.223 59.466s1.61-2.65.354-2.771c-1.247-.113-1.754.733-1.93 1.039-.178.314.048 1.716.048 1.716l1.528.016z" fill="#FFB27D"/><path d="M23.108 71.16c.049.339.153.645.274.919a4.471 4.471 0 001.022 1.41c4.168-1.885 5.012-8.353 5.157-11.913.056-1.426 0-2.384 0-2.384-1.883-.62-2.414.459-2.414.459s-2.22 5.292-3.371 8.747c-.442 1.32-.724 2.376-.668 2.763z" fill="#01BA57"/><path d="M19.19 70.114c1.391 1.675 3.21 3.052 5.213 3.374 4.168-1.884 5.013-8.352 5.158-11.912 0 0-1.971 7.168-4.659 9.665-.483.451-.998.757-1.52.83 0 0-3.388-.959-4.096-1.86-.056-.057-.088-.09-.097-.097z" fill="#12954F"/><path d="M152.329 93.206s2.647-3.11.153-5.075c0 0-1.826-1.095-3.307-1.007 0 0 2.116 3.528 1.432 3.883-.683.354-2.075-4.1-2.075-4.1s-4.144-.395-5.48.258c0 0 3.557 2.891 2.808 3.069-.748.177-4.586-2.666-4.586-2.666s-3.854.668-3.645 3.02c.209 2.36 1.545 3.077 2.132 3.012.588-.064 3.999-1.377 4.072-.902.072.475-1.98 2.054-3.42 2.127 0 0 2.728 2.996 4.538 2.126 1.802-.87 1.955-2.247 3.082-2.763 1.126-.515 2.084-.523 1.625.008-.467.524-2.502 1.047-3.146 2.183-.644 1.144-1.215 1.917.652 1.627 1.866-.29 4.908-1.667 5.037-3.238l.128-1.563z" fill="#C8DBF4"/><path d="M139.528 90.644s10.484-.435 12.801 2.561c0 0 .515 1.53 2.092 2.924l.25.669s-1.819-1.91-2.471-2.03c0 .008 1.006-3.713-12.672-4.124z" fill="#C8DBF4"/><path d="M154.429 96.13s2.253 1.659 2.422 4.631l-.41.04s-.724-3.077-2.028-4.277c-1.303-1.192.016-.395.016-.395zm11.957-11.132s-4.232-2.36-2.269-5.582c0 0 1.577-1.981 3.267-2.489 0 0-.885 4.801.016 4.914.901.113.604-5.42.604-5.42s4.449-2.16 6.195-1.99c0 0-2.752 4.695-1.85 4.575.901-.121 3.99-4.865 3.99-4.865s4.563-.862 5.303 1.844c.74 2.707-.443 4.068-1.119 4.237-.675.169-5.02.129-4.9.693.113.563 3.05 1.457 4.683.95 0 0-1.794 4.462-4.16 4.245-2.365-.218-3.106-1.684-4.57-1.797-1.464-.112-2.534.29-1.802.685.732.395 3.21.12 4.401 1.128 1.191 1.006 2.148 1.619-.048 2.078-2.197.459-6.148.185-6.936-1.506l-.805-1.7z" fill="#C8DBF4"/><path d="M179.558 76.839s-11.828 3.874-13.172 8.167c0 0 .065 1.917-1.118 4.124v.846s1.231-2.884 1.907-3.278c.008-.008-2.655-3.722 12.383-9.86z" fill="#C8DBF4"/><path d="M165.276 89.122s-1.819 2.779-.765 6.153l.467-.128s-.467-3.722.483-5.598c.949-1.869-.185-.427-.185-.427z" fill="#C8DBF4"/><path d="M159.651 81.752s5.568-3.141 2.953-7.378c0 0-2.092-2.601-4.321-3.262 0 0 1.207 6.323.016 6.476-1.19.153-.836-7.144-.836-7.144s-5.882-2.811-8.183-2.578c0 0 3.661 6.162 2.47 6.017-1.191-.145-5.294-6.387-5.294-6.387s-6.027-1.096-6.976 2.473c-.958 3.576.611 5.356 1.504 5.573.893.218 6.614.13 6.469.878-.145.741-4.007 1.95-6.163 1.28 0 0 2.398 5.872 5.512 5.566 3.121-.306 4.079-2.247 6.01-2.4 1.931-.153 3.347.363 2.382.886-.966.524-4.233.185-5.794 1.514-1.56 1.33-2.816 2.159.081 2.739 2.897.588 8.102.201 9.14-2.038l1.03-2.215z" fill="#D4E4F8"/><path d="M142.231 71.08s15.626 5.018 17.42 10.664c0 0-.064 2.53 1.505 5.429v1.12s-1.649-3.794-2.543-4.31c0 0 3.484-4.921-16.382-12.903z" fill="#D4E4F8"/><path d="M161.156 87.173s2.414 3.648 1.054 8.11l-.62-.16s.588-4.906-.675-7.37c-1.272-2.465.241-.58.241-.58z" fill="#D4E4F8"/><path d="M195.987 121.122l-45.766.113c-6.807-7.805-7.499-18.348 1.545-27.232 1.134-1.12 3.315-1.909 5.672-2.465 4.337-1.03 9.245-1.264 9.286-1.28.016-.008 2.598-2.103 4.151-3.987 4.828-5.848 8.94-5.349 8.94-5.349 4.924-.958 9.116-1.232 12.23.5 2.88 1.61 4.835 4.953 5.56 11.09.136 1.16.233 2.425.281 3.794.177 4.986 1.159 9.416 1.738 13.169.845 5.429.845 9.44-3.637 11.647z" fill="#01BA57"/><path d="M189.607 87.567c-2.985 1.628-3.323 6.992-7.99 8.377-4.675 1.385-12.608 1.257-17.106 6.137-4.345 4.712-9.124-7.28-7.065-10.656 4.337-1.03 9.245-1.264 9.286-1.28.016-.008 2.598-2.102 4.151-3.987 4.828-5.847 8.94-5.348 8.94-5.348 4.924-.959 9.116-1.233 12.23.5 1.569 1.73.539 4.63-2.446 6.257z" fill="#12954F"/><path d="M171.27 89.106s-14.982-.194-16.985 1.08c-1.996 1.28 2.06 21.593 2.06 21.593s3.878.113 4.184-.918c0 0-.725-9.521-.121-11.172.603-1.643.225-3.922.225-3.922s7.588 1.136 9.985.564c2.398-.572.652-7.225.652-7.225z" fill="#233862"/><path d="M174.738 78.603c0 .008-2.108 4.921-3.138 5.445-1.03.523-4.748 4.8-5.544 4.728-.797-.073.933.652.933.652s6.501-3.004 6.88-3.19c.378-.185 2.373-3.471 2.647-5.13.273-1.667-1.778-2.505-1.778-2.505zm-13.727 34.69c-.499.967-.611 2.739-.764 3.343-.145.604-2.768 2.65-2.993 2.545-.572-.258-.025-1.257.321-1.989.016-.033.025-.057.041-.089.346-.733.048-2.376.225-3.23.177-.846-.684-3.133-.684-3.133l1.448-1.828s1.014 1.933 1.746 2.287c.129.065.25.137.354.226.499.41.716 1.079.306 1.868zm-5.085 5.654c-1.006.411-2.229 1.7-2.736 2.062-.499.363-3.822.234-3.926.008-.282-.588.877-1.006 1.617-1.353.008-.008.024-.008.032-.016.732-.37 1.545-1.78 2.221-2.303.684-.532 1.496-2.836 1.496-2.836l2.286-.467s-.467 2.135-.145 2.876c.032.072.056.137.08.209.209.701-.016 1.442-.925 1.82z" fill="#FFB27D"/><path d="M179.043 76.428c-.306-.354 4.514-1.804 5.544 2.15 0 0 8.866-2.36 3.419-6.314-1.891-1.37-2.076-2.827-2.349-4.164-.274-1.337-2.157-5.179-5.423-3.27 0 0-1.497.008-2.438.83-2.157 1.852-4.506 13.7 1.247 10.768z" fill="#163560"/><path d="M177.538 89.799s-15.537 1.578-16.905 3.165c-1.368 1.587-6.735 22.238-6.735 22.238s1.585.886 3.026.057c0 0 4.111-7.008 5.93-9.207 1.818-2.198 2.502-8.988 2.8-9.06.297-.073 10.041 1.36 13.388-1.217 3.356-2.561-1.504-5.976-1.504-5.976z" fill="#2A4E96"/><path d="M186.187 75.687s-3.709-1.659-8.408-.902c-.957.153-1.826.467-2.51 1.603-.974 1.603-1.425 2.456-1.425 2.456s.097.742 1.417 1.33c-.362 1.328.329 3.64-.306 4.542-.636.902-4.586 3.125-4.78 4.366-.362 2.28 6.751 6.411 8.867 5.968 6.099-1.257 10.243-17.615 7.145-19.363z" fill="#F9DDBF"/><path d="M184.095 70.992s.732-1.442.829-2.618c.072-.846-.644-3.874-3.685-3.141 0 0-.885.169-1.674.821-.627.516-1.504 1.587-.169 4.164l.362.878 4.337-.105z" fill="#163560"/><path d="M179.919 75.848c-.306.323-.185 1.402 1.255 1.321.95-.056 2.969-1.224 2.784-2.03-.088-.386-.82-1.377-.989-3.656l-.169.048-2.889.814s.137.918.209 1.788c.057.733-.072 1.578-.201 1.715z" fill="#FFB27D"/><path d="M179.911 72.345s.137.918.209 1.788c1.634-.177 2.39-1.74 2.68-2.602l-2.889.814z" fill="#F4A269"/><path d="M179.847 73.682s3.773-.95 3.146-3.295c-.628-2.343-.563-4.05-3.001-3.543-2.438.507-2.664 1.53-2.648 2.36.025.837 1.505 4.663 2.503 4.478z" fill="#FFB27D"/><path d="M178.27 67.246s1.271 2.416 3.661 2.682c1.4.153 1.786 1.08 1.786 1.08s-.418-2.642-1.126-4.253c0-.008-3.903-1.031-4.321.491z" fill="#163560"/><path d="M178.696 67.568s-.828.846-1.086 1.442c-.378.886.362 2.739.66 3.141 0 0-1.754-2.988-1.167-4.277.628-1.377 1.593-.306 1.593-.306z" fill="#163560"/><path d="M167.183 89.34s-.749.797-.845.837c-.499.234-1.127.097-1.433.177-.305.073-.249-.112-.024-.266.226-.152.773-.096.547-.152-.225-.057-1.44-.282-1.898-.162-.725.194-1.296-.032-1.344-.104-.048-.073 1.657-.902 2.14-.878.483.024 1.883-.04 1.883-.04l.974.587zm20.284-12.179s.45 11.091-.853 12.645c-1.296 1.547-9.221-.169-9.221-.169l-.547-.813s7.032-1.031 7.507-1.168c.676-.193.209-7.829.209-7.829l2.905-2.666z" fill="#FFB27D"/><path d="M185.721 75.51c.112 0 1.512.467 2.518 2.457.99 1.957 1.344 2.907 1.344 2.907s-4.385 3.4-6.123 2.15c-1.746-1.256.651-7.554 2.261-7.514z" fill="#F9DDBF"/><path d="M177.393 89.63s-.627.636-.869.966c-.241.33-1.915.918-1.955.74-.04-.176.748-.708.821-.901.072-.202.933-1.2 1.456-1.313.523-.113.547.507.547.507z" fill="#FFB27D"/><path d="M176.846 88.824s-2.583.596-3.026.781c-.442.177-1.368 1.498-.997 1.692.233.12 1.255-.411 1.77-.524.515-.113 1.987.145 2.655-1.184.08-.153-.402-.765-.402-.765z" fill="#FFB27D"/><path d="M155.926 118.947c-1.006.411-2.229 1.7-2.736 2.062-.499.363-3.822.234-3.926.008-.282-.588.877-1.006 1.617-1.353.008-.008.024-.008.032-.016l.105-.032s1.432.507 2.623 0c.925-.395 2.301-1.877 3.21-2.481.209.693-.016 1.434-.925 1.812zm5.085-5.654c-.499.967-.611 2.739-.764 3.343-.145.604-2.768 2.65-2.993 2.545-.572-.258-.025-1.256.321-1.989.21-.017.483-.081.797-.298.652-.435 1.762-2.087 1.867-3.061.08-.789.032-1.925.466-2.408.499.41.716 1.079.306 1.868z" fill="#2E3552"/><path d="M173.515 91.627H162.25l-3.387-8.433h11.248l3.404 8.433z" fill="#F99746"/><path d="M162.121 91.297h14.869v.33h-14.74l-.129-.33z" fill="#ED7D2B"/><path d="M165.099 87.414c-.089-.298.088-.54.386-.54.298 0 .603.242.692.54.088.298-.089.54-.386.54a.776.776 0 01-.692-.54z" fill="#fff"/><path d="M186.405 91.579s-1.473 1.377-7.636 1.578c-6.164.202-14.194 7.008-14.274 8.933-.072 1.925 12.399 4.848 12.592 4.574.193-.273 7.918-6.91 7.918-6.91l1.4-8.175z" fill="#01BA57"/><path d="M199.624 109.363c-3.315-5.977-10.894 2.263-12.777-.524-1.883-2.787 2.663-6.331 6.759-9.383 4.015-2.988 3.999-6.895 3.999-7.056.136 1.16.233 2.424.281 3.794.177 4.985 1.159 9.415 1.738 13.169z" fill="#12954F"/><path d="M50.578 66.392c-.258-.499 5.608-2.287 5.705 2.618 0 0 10.99-.274 5.745-6.403-1.819-2.127-1.634-3.874-1.578-5.51.057-1.634-1.134-6.386-5.197-5.903 0 0-1.062-.435-2.398.258-3.025 1.562-9.8 16.745-2.277 14.94z" fill="#163560"/><path d="M68.545 71.87s.716-1.088 1.295-1.112c.58-.024 1.642-.322 1.561-.105-.088.218-.748.234-.812.363-.065.128.981.322 1.279.338.298.024 1.006 0 .982.153-.024.153-1.272.773-2.149.685-.885-.089-1.971.257-1.971.257l-.185-.58z" fill="#FFB27D"/><path d="M58.198 72.224s.386.773 1.094 1.659c.853 1.063 2.164 2.296 3.806 2.537.788.113 1.553-.056 2.26-.37 1.996-.886 3.5-2.932 3.5-2.932.355-.959-.224-1.611-.224-1.611s-4.04.91-4.418.717c-.386-.194-2.623-6.661-3.162-7.475-.53-.813-2.357-1.232-2.357-1.232l-.5 8.707z" fill="#F9DDBF"/><path d="M59.292 73.875c.853 1.063 2.164 2.295 3.806 2.537.788.113 1.553-.056 2.26-.37-.08.008-2.075.257-2.872-1.168-.812-1.45-1.69-3.762-2.896-2.997-.515.347-.491 1.168-.298 1.998z" fill="#F2CCAA"/><path d="M43.143 115.83s-1.23 1.128-.99 1.925c.242.798 1.352 1.329 1.505 2.312.153.974.749 1.506 1.296 1.506h2.575s.394-.685-.564-.894c-.957-.209-1.327-1.353-1.263-2.424.056-1.064-.088-2.489-.088-2.489l-2.044-.475-.427.539zm10.42.476s-.442 4.768.097 5.034l6.92-.017s0-.797-1.11-.974c-1.111-.177-3.066-.83-3.396-2.28-.33-1.449-2.51-1.763-2.51-1.763z" fill="#233862"/><path d="M48.631 82.115c1.424-3.198 2.293-4.116 2.132-5.107-.12-.74.378-13.765.378-13.765.17-.056.507-.096.692-.137a1.733 1.733 0 001.272-1.103c.241-.677.434-1.684.434-2.94l.185.032 3.066.604s-.073.967-.073 1.877v.024c0 .79.515 1.49 1.272 1.708l.724.209s1.126 3.222 1.344 6.524c.217 3.302-2.052 4.744.016 11.349 2.1 6.75-12.23 2.489-11.442.725z" fill="#FFB27D"/><path d="M56.782 59.7s-.073.966-.073 1.876c-1.714-.048-2.623-1.619-2.993-2.48l3.066.603z" fill="#E8945B"/><path d="M57.353 60.561s-4.064.064-4.064-2.465-.53-4.228 2.06-4.381c2.591-.153 3.098.813 3.307 1.659.21.854-.25 5.106-1.303 5.187z" fill="#FFB27D"/><path d="M57.2 53.658s-1.11 2.972-2.817 3.407c-1.705.443-2.446-.016-2.446-.016s1.312-1.039 1.578-2.859c0 0 2.848-1.95 3.685-.532z" fill="#163560"/><path d="M56.926 53.9s.82.306 1.167.91c.33.588.611 1.37.547 2.328 0 0 .837-2.022-.105-3.157-.997-1.217-1.609-.081-1.609-.081z" fill="#163560"/><path d="M56.468 58.99s.281.37.836.347c.45-.024.628-.411.628-.411s-.829-.201-1.465.064z" fill="#EBF3FA"/><path d="M48.245 69.002s-.105 1.458 0 3.198c.072 1.16 1.239 2.706 1.408 3.093.418.958.885 1.12.885 1.12l3.637.893 1.279.314 4.031-1.208s1.834-5.123 1.094-8.014c-.74-2.883-1.858-4.889-1.858-4.889s-3.291 3.222-7.564-.274l-2.912 5.767z" fill="#F9DDBF"/><path d="M49.306 72.683c.073 1.16.177 2.239.338 2.618.419.958.885 1.12.885 1.12l3.637.893 1.577-.467s-5.27-.797-4.683-5.332l-1.754 1.168z" fill="#F2CCAA"/><path d="M59.212 77.193s1.995 6.218 2.124 8.329c.129 2.118-3.814 30.067-3.975 31.041-.153.918-1.287 1.506-1.287 1.506s-.523.306-1.271.097c-1.038-.29-1.368-.644-1.368-.644s-1.553-19.935-.596-27.055c.958-7.12.974-13.274.974-13.274h5.399z" fill="#12954F"/><path d="M50.763 77.008s-3.041 4.084-3.323 6.846c-.282 2.763-.442 12.469-1.046 15.159-.603 2.69-2.824 7.877-2.824 16.278 0 0 .233.483.941.741.225.08.531.161.829.233a1.298 1.298 0 001.456-.692c1.505-3.029 6.284-12.783 6.526-14.813.177-1.433 1.681-10.921 4.98-16.487.789-1.337-.483-6.653-.483-6.653l-7.056-.612z" fill="#01BA57"/><path d="M56.557 59.063s.072.298.812.25c0 0 .62-.04.604-.363 0-.008-.604-.233-1.416.113z" fill="#fff"/><path d="M59.534 76.235s-.805.636-2.39.668c-1.899.04-6.606-.483-6.606-.483s-.21.588-.201 1.2c0 0 5.753 1.45 9.084.21-.008 0 .426-.806.113-1.595z" fill="#233862"/><path d="M56.725 77.556c0-.54.387-.983.87-.983.474 0 .868.443.868.983s-.386.983-.869.983c-.474 0-.869-.436-.869-.983zm.29 0c0 .386.258.693.58.693.321 0 .579-.315.579-.693 0-.387-.258-.693-.58-.693-.313 0-.579.314-.579.693z" fill="#fff"/><path d="M44.338 77.354l5.893 5.136 7.022-8.073-5.892-5.136-7.023 8.073z" fill="#B5453C"/><path d="M51.857 77.379s2.157.25 2.148.765c-.008.515-.539 1.57-.804 1.61-.266.049-1.754-1.425-1.754-1.425l.41-.95z" fill="#FFB27D"/><path d="M51.142 63.243s-2.881.201-3.991 2.892c-1.103 2.69-3.203 7.2-3.203 7.965 0 .758 1.175 3.102 7.459 4.447 0 0 .652-.685.612-1.225 0 0-3.927-3.374-3.919-3.77.016-.748.644-1.73 4.087-5.178.95-.95-1.045-5.13-1.045-5.13z" fill="#F9DDBF"/><path d="M76.06 121.428h-.024a.289.289 0 01-.29-.29l.435-18.871 1.28-.153-1.095 19.024a.308.308 0 01-.306.29z" fill="#95C0F4"/><path d="M96.666 121.428h.024c.161 0 .29-.129.29-.29l-.435-18.871-1.279-.153 1.094 19.024c0 .161.137.29.306.29zm-21.459-20.337V88.155a4.12 4.12 0 014.12-4.123h9.309a4.12 4.12 0 014.12 4.123v13.427l-17.549-.491z" fill="#B0D4FF"/><path d="M94.421 103.137H76.446a1.24 1.24 0 01-1.239-1.241v-.805h19.206v2.046h.008z" fill="#95C0F4"/><path d="M96.57 103.137H82.972a.918.918 0 01-.917-.919v-.209c0-.507.41-.918.917-.918H96.57c.507 0 .917.411.917.918v.209c0 .508-.41.919-.917.919z" fill="#B0D4FF"/><path d="M96.047 97.869c-1.336 2.32-3.01 3.222-3.01 3.222h-6.976c-.008 0 11-4.994 9.986-3.222z" fill="#233862"/><path d="M90.688 115.846c-.185.21-.201.443-.113.693.169.459.716.975 1.352 1.49.08.065.153.129.217.185a.195.195 0 00.048.041c.016.008.024.024.04.032.596.548.37.677 1.44 1.788 1.224 1.273 2.06 1.297 2.302 1.176.201-.097-.21-.773-.66-1.53-.024-.041-.04-.073-.064-.113a6.398 6.398 0 01-.177-.306c-.531-.91-.394-1.337-.274-2.698.105-1.104 1.714-6.162 1.714-6.162l-2.341-.403s-.708 4.027-1.48 4.648c-.42.33-.878.338-1.28.58a.29.29 0 00-.08.056c-.234.153-.467.314-.644.523z" fill="#FFB27D"/><path d="M90.688 115.846c-.185.21-.201.443-.113.693.201.459.74.975 1.36 1.482.08.065.153.129.217.185a.195.195 0 00.048.041c.016.008.025.024.04.032.596.548.37.676 1.44 1.788 1.224 1.273 2.06 1.297 2.302 1.176.201-.097-.21-.773-.66-1.53a5.206 5.206 0 01-2.172-1.603c-.732-.935-1.223-2.143-1.722-2.843a.29.29 0 00-.08.056c-.25.153-.483.314-.66.523z" fill="#233862"/><path d="M109.532 114.381c.145.724 1.174.604 2.325.322 1.151-.282.877.056 2.51-.129 1.634-.185 2.133-.789 2.181-1.039.048-.218-.764-.29-1.633-.395-.113-.016-.218-.024-.33-.04-.982-.121-1.698-.757-2.583-1.273-.845-.491-2.1-2.497-2.1-2.497l-2.245.178s1.175 1.788 1.633 2.569c.266.459.258 1.063.218 1.53-.008.258-.025.524.024.774z" fill="#FFB27D"/><path d="M111.857 114.703c1.151-.282.877.056 2.51-.129 1.634-.185 2.133-.789 2.181-1.039.048-.218-.764-.29-1.633-.395l-.008.016s-.982.693-2.342.725c-1.11.024-2.285-.29-3.049-.282-.016.258-.033.516.016.765.145.741 1.174.621 2.325.339zm-10.919-14.675l-2.1 5.646-2.735 7.378s-.74.072-1.457-.137c-.651-.194-1.408-.685-1.408-.685s.757-7.917 2.18-12.46c.363-1.168.773-2.11 1.224-2.642 2.196-2.61 4.296 2.9 4.296 2.9z" fill="#233862"/><path d="M98.806 91.055c-1.376-.443-5.294.129-9.229.894l-.82-1.361-8.505-.669s-2.808 6.226-1.272 10.197c.226.58.676.959 1.44.967h6.824c4.224 0 8.947-2.908 9.558-3.029.998-.201 1.4 1.804 2.398 3.899.998 2.102 9.398 9.302 9.398 9.302s1.288.017 1.827-.185c.571-.217.78-.491.78-.491s-9.301-18.525-12.399-19.524z" fill="#2B478B"/><path d="M88.419 65.813c-1.087-.572-2.744-.653-3.018-.685-3.218-.435-5.157 4.253-5.278 5.67-.21 2.618-1.593 3.013-3.54 4.656-3.903 3.286-2.76 7.104-.628 8.521 1.28.854 3.54 0 3.54 0 .033.024 6.172-3.439 9.197-5.106 4.554-.645 2.503-11.599-.273-13.056z" fill="#B5453C"/><path d="M86.166 77.451c.016.008-1.489.524-2.495.08-.94-.418-1.657-1.973-1.649-1.973.426-.016.901-.394 1.263-2.867l.185.064 3.082 1.112s-.225.99-.37 1.933c-.113.781-.185 1.538-.016 1.651z" fill="#FFB27D"/><path d="M86.552 73.859s-.225.99-.37 1.933c-1.77-.322-2.462-2.086-2.712-3.037l3.082 1.104z" fill="#ED975D"/><path d="M87.01 74.841s-4.216-.563-3.821-3.19c.394-2.617.112-4.461 2.816-4.203 2.703.25 3.081 1.329 3.162 2.239.088.902-1.046 5.235-2.157 5.154z" fill="#FFB27D"/><path d="M89.014 68.245s-2.695 2.328-4.53 2.513c-1.834.185-2.526-.403-2.526-.403s1.078-.902 1.73-2.352a1.286 1.286 0 011.061-.757c1.312-.113 3.798-.16 4.265.999z" fill="#B5453C"/><path d="M87.332 68.036s.902.87 1.183 1.522c.274.628.354 2.118.137 2.714 0 0 1.408-2.738.612-4.067-.845-1.41-1.931-.17-1.931-.17z" fill="#B5453C"/><path d="M89.714 83.661c-.128 8.538-.032 6.75-.965 7.563-.225.194-.853.314-1.69.363-2.615.177-7.21-.258-7.386-.741-.604-1.676-.177-2.191-.684-4.752-.056-.274-.12-.564-.193-.886-.419-1.764-.829-2.36.66-5.188 1.351-2.56 2.751-4.639 2.88-4.566 3.565 2.118 3.846.338 3.846.338s3.597 3.705 3.532 7.87z" fill="#F9DDBF"/><path d="M98.838 105.674l-2.735 7.378s-.74.072-1.457-.137c-.651-.194-1.408-.685-1.408-.685s.757-7.917 2.18-12.46l3.42 5.904z" fill="#2B478B"/><path d="M86.19 75.792s3.661.62 4.096 2.199c.426 1.578 2.96 10.865 2.96 10.865s-1.866.338-2.719-.523c-.86-.862-2.993-7.99-2.993-7.99l-1.344-4.551z" fill="#F9DDBF"/><path d="M87.059 91.595c-2.615.177-7.21-.258-7.386-.741-.604-1.676-.178-2.191-.684-4.752l1.263-3.552s-.21 3.954.957 5.001c1.167 1.04 4.772 2.014 5.343 2.884.273.403.459.821.507 1.16z" fill="#F2CCAA"/><path d="M84.066 89.927s2.583-.572 2.993-.346c.419.226 1.433 1.063 1.561 1.353.129.29-.925-.217-1.271-.314-.225-.056-.805.145-1.094.242-1.215.402-1.964.193-1.964.193l-.225-1.128z" fill="#FFB27D"/><path d="M82.336 75.454s-3.46.217-4.659 1.884c-1.69 2.36-5.037 12.396-3.114 13.741 2.165 1.506 9.833.395 9.833.395s.257-1.192-.097-1.772c-.354-.58-6.131-1.514-6.397-1.78-.265-.266 3.332-5.203 3.332-6-.008-.806 1.102-6.468 1.102-6.468z" fill="#F9DDBF"/><path d="M87.188 90.298s.54.7.716.781c.177.08.29.065.29.065l-.362-.653-.644-.193zm-.128-.717l1.568.765s-.064.113-.257.105c-.193-.008-.684-.185-.684-.185l-.628-.685z" fill="#FFB27D"/><path d="M87.904 92.15h12.432l3.733-9.31H91.662l-3.758 9.31z" fill="#01BA57"/><path d="M100.48 91.788H84.066v.362h16.269l.145-.362z" fill="#ED7D2B"/><path d="M97.197 87.495c.097-.33-.097-.596-.418-.596-.322 0-.668.266-.765.596-.096.33.097.596.419.596.321 0 .667-.266.764-.596z" fill="#fff"/><path d="M127.29 121.686h.04c.209 0 .386-.193.378-.427l-.571-27.538-1.698-.218 1.449 27.756c.008.242.185.427.402.427zm-42.814 0h-.032c-.21 0-.387-.193-.379-.427l.572-27.538 1.697-.218-1.448 27.756c-.016.242-.193.427-.41.427z" fill="#233862"/><path d="M130.074 94.124H82.328a.684.684 0 01-.684-.685v-.596c0-.379.306-.685.684-.685h47.746c.378 0 .683.306.683.685v.596c0 .37-.305.685-.683.685z" fill="#233862"/><path d="M164.535 16.39l9.318 1.475-6.131-4.326-.338 1.354-2.277.378-.572 1.12z" fill="#9EC3F6"/><path d="M173.853 17.865l-7.717-4.132-7.611-.5 15.328 4.632zm-6.131-4.325l6.131 4.325-4.699-6.677-1.432 2.351z" fill="#fff"/><path d="M75.15 25.557l-12.133 3.495 7.434-6.75.668 1.74 3.082.121.95 1.394z" fill="#9EC3F6"/><path d="M63.017 29.052l9.559-6.758L82.6 20.386l-19.584 8.666z" fill="#EBF3FA"/><path d="M70.451 22.303l-7.434 6.75 5.141-9.65 2.293 2.9z" fill="#EBF3FA"/></g><defs><clipPath id="clip0"><path fill="#fff" d="M0 0h219v122H0z"/></clipPath></defs></svg>