<svg width="184" height="109" fill="none" xmlns="http://www.w3.org/2000/svg"><g clip-path="url(#clip0)"><path d="M14.541 108.951S-7.97 81.442 3.03 53.119c7.174-18.458 34.08-28.573 49.26-18.458 6.466 4.307 27.21.146 38.294-17.692 21.528-34.661 96.661-13.609 82.979 39.608-6.619 25.756 20.142 26.688 6.508 52.43l-165.529-.056z" fill="#EBF3FA"/><path d="M103.329 108.687h-.056c-.478-.007-.845-.397-.797-.849l3.175-31.83 2.772.25-4.561 31.998a.531.531 0 01-.533.431z" fill="#ACC7EB"/><path d="M133.902 108.687h.055c.478-.007.846-.397.797-.849l-3.174-31.83-2.773.25 4.561 31.998c.042.25.263.431.534.431z" fill="#C8DBF4"/><path d="M80.927 108.687h-.055c-.478-.007-.846-.397-.797-.849l3.174-31.83 2.773.25-4.56 31.998c-.036.25-.264.431-.535.431zm52.025-37.312l5.635-27.934c.721-3.784-2.398-7.242-6.452-7.145l-10.868.25a8.591 8.591 0 00-8.054 6.22l-8.248 28.616h27.987v-.007z" fill="#BAD4F4"/><path d="M129.542 71.375l5.635-27.934c.721-3.784-2.398-7.242-6.453-7.145l-10.868.25c-3.749.084-7.007 2.603-8.054 6.22l-8.248 28.616h27.988v-.007z" fill="#ACC7EB"/><path d="M131.386 76.475h-43a1.58 1.58 0 01-1.574-1.58v-1.94c0-.87.707-1.58 1.574-1.58h44.574v3.52a1.589 1.589 0 01-1.574 1.58z" fill="#C8DBF4"/><path d="M111.203 76.475H83.79c-.693 0-1.268-.57-1.268-1.273v-2.554c0-.696.568-1.273 1.268-1.273h27.413c.693 0 1.268.57 1.268 1.273v2.553c0 .696-.568 1.274-1.268 1.274z" fill="#ACC7EB"/><path d="M94.478 44.937c-.603-.5 12.601-11.688 15.428-5.413 0 0 6.779-5.245.534-8.314-3.514-1.725-4.02-5.364-4.852-7.507-.831-2.142-5.045-7.973-9.911-3.875 0 0-2.468.439-3.798 2.074-3.022 3.708-9.746 28.517 2.599 23.035z" fill="#163560"/><path d="M103.017 40.707s-2.294 4.147-5.517 7.584c-1.698 1.816-3.66 3.437-5.67 4.14-.984.347-1.975.472-2.96.298-.63-.11-.353-3.833.52-6.665 1.151-3.729 4.734-12.996 4.734-12.996l2.052.877s-2.849 11.667-2.51 11.716l3.009-7.646 6.342 2.692z" fill="#E5925A"/><path d="M107.397 59.617s-22.866-.362-25.915 1.58c-3.05 1.947 3.05 33.046 3.05 33.046s5.912.188 6.383-1.384c0 0-1.06-14.569-.132-17.087.93-2.519.354-6.004.354-6.004s11.568 1.774 15.241.897c3.674-.87 1.019-11.048 1.019-11.048z" fill="#10A053"/><path d="M85.786 92.664s1.303 3.5 1.026 4.794c-.277 1.294.166 3.812-.36 4.94-.527 1.127-1.477 2.762-.569 3.172.347.16 4.346-2.964 4.575-3.882.229-.918.409-3.632 1.171-5.107.77-1.475.125-2.664-.984-3.2-1.109-.543-2.655-3.507-2.655-3.507l-2.204 2.79z" fill="#163560"/><path d="M81.905 98.091s-1.255 3.513-2.301 4.327c-1.047.814-2.322 3.02-3.452 3.542-1.13.515-2.897 1.155-2.474 2.059.16.341 5.226.557 5.988 0 .77-.557 2.648-2.512 4.18-3.138 1.531-.626 1.802-1.955 1.31-3.082-.5-1.134.228-4.397.228-4.397l-3.479.689z" fill="#2A4E96"/><path d="M120.365 58.796s-27.135 4.265-29.221 6.686c-2.094 2.421-10.37 33.987-10.37 33.987s2.42 1.363 4.617.104c0 0 6.3-10.7 9.086-14.054 2.787-3.353 3.854-13.74 4.312-13.845.457-.104 15.061 1.767 20.439-1.802 3.168-2.108 1.137-11.076 1.137-11.076z" fill="#01BA57"/><path d="M110.994 36.108c-1.601-1.21-6.418-2.546-9.433-1.182-1.428.647-3.59 1.488-4.886 3.103-1.4 1.746-3.008 7.646-3.008 7.646.526 3.11 2.987 3.485 2.987 3.485-1.442 5.469 5.351 4.042 4.907 7.076-.762 5.294 4.166 8.07 6.855 9.309 3.521 1.614 13.405 3.652 13.418 0 .049-16.628-6.237-25.958-10.84-29.437z" fill="#fff"/><path d="M110.447 42.008s-1.781 9.664-6.612 12.495h-4.547l4.796-6.018 6.363-6.477z" fill="#EBF3FA"/><path d="M94.284 34.056s-1.477-1.767-1.733-2.303c-.257-.536.229-2.838.825-2.825.38.007.845 1.406 1.261 1.914.416.508 2.218 1.231 1.456 3.36-.09.237-1.81-.146-1.81-.146z" fill="#E5925A"/><path d="M98.033 37.583c-.415.627.09 2.387 2.454 1.837 1.553-.362 4.568-2.88 4.027-4.167-.256-.613-1.747-2.046-2.675-5.782l-.271.132-4.546 2.178s.492 1.482.859 2.908c.298 1.183.326 2.637.152 2.894z" fill="#FFB27D"/><path d="M97.014 31.767s.493 1.482.86 2.908c2.661-.758 3.452-3.576 3.687-5.086l-4.547 2.178z" fill="#F4A269"/><path d="M94.429 32.588s6.37 1.482 7.229-2.512c.86-3.993 2.26-6.498-1.767-7.61-4.034-1.114-5.15.236-5.76 1.502-.617 1.26-1.338 8.133.298 8.62z" fill="#FFB27D"/><path d="M97 21.735s.042 4.598 3.418 6.832c1.975 1.308 2.065 2.643 2.065 2.643s1.172-3.937 1.352-6.894c0 0-5.04-4.53-6.834-2.581z" fill="#163560"/><path d="M97.395 22.549s-1.885.626-2.723 1.322c-1.241 1.03-1.567 4.383-1.414 5.218 0 0-.34-5.824 1.532-7.306 1.982-1.579 2.605.766 2.605.766z" fill="#163560"/><path d="M110.447 42.008a33.797 33.797 0 01-2.197 4.335c-3.043 5.044-6.758 8.09-8.103 6.672-.374-.39-1.31-.967-.326-3.075.756-1.636 1.692-3.674 2.613-5.685 1.9-4.14 3.716-8.147 3.716-8.147.582 0 6.674.21 4.297 5.9z" fill="#FFB27D"/><path d="M104.085 48.478c-.208-.125-11.672 2.672-15.221 3.542-.652.16-1.04.257-1.04.257v1.343s11.86.556 13.717-.292c1.85-.856 3.618-2.839 3.618-2.839l-1.074-2.01z" fill="#FFB27D"/><path d="M110.447 42.008a33.797 33.797 0 01-2.197 4.335c-2.475-.32-4.762-1.482-5.815-2.088 1.899-4.14 3.715-8.147 3.715-8.147.582 0 6.674.21 4.297 5.9z" fill="#fff"/><path d="M66.975 53.62h12.733c0-.564-.458-1.016-1.012-1.016h-11.72v1.016z" fill="#017638"/><path d="M67.01 39.698H47.326l4.72 13.922h19.816L67.01 39.698z" fill="#017638"/><path d="M47.035 39.698l4.72 13.922H71.57l-4.845-13.922h-19.69z" fill="#01BA57"/><path d="M57.653 46.53c.125.53.652.96 1.178.96.527 0 .86-.43.735-.96-.125-.528-.651-.96-1.178-.96-.527 0-.86.432-.735.96z" fill="#fff"/><path d="M140.48 76.433v.807c0 .285.09.515.201.515h29.45c.111 0 .201-.23.201-.515v-.807c0-.285-.09-.515-.201-.515h-29.45c-.104 0-.201.237-.201.515z" fill="#9ABFE2"/><path d="M140.48 76.433v.807c0 .285.083.515.187.515h23.385c.104 0 .188-.23.188-.515v-.807c0-.285-.084-.515-.188-.515h-23.385c-.104 0-.187.237-.187.515z" fill="#BAD4F4"/><path d="M147.934 108.352h20.911V77.761h-20.911v30.591z" fill="#C8DBF4"/><path d="M142.078 108.352h20.912V77.761h-20.912v30.591z" fill="#DFEBFD"/><path d="M143.197 78.624h18.665v28.038h-18.665V78.624zm18.464.202h-18.256v27.635h18.256V78.826z" fill="#B7D3F3"/><path d="M161.765 87.898h-18.464v.202h18.464v-.2zm0 9.455h-18.464v.202h18.464v-.202zm-11.124-16.92h3.424a.308.308 0 00.305-.306.308.308 0 00-.305-.306h-3.424a.308.308 0 00-.305.306c0 .167.138.306.305.306zm0 9.247h3.424a.31.31 0 00.305-.307.309.309 0 00-.305-.306h-3.424a.308.308 0 00-.305.306c0 .174.138.307.305.307zm0 9.642h3.424a.308.308 0 00.305-.306.309.309 0 00-.305-.306h-3.424a.308.308 0 00-.305.306c0 .167.138.306.305.306z" fill="#B7D3F3"/><path d="M136.065 24.003h-11.963c-.548 0-.998-.453-.998-1.002V11.41c0-.55.45-1.002.998-1.002h11.963c.547 0 .998.452.998 1.002V23c0 .55-.451 1.003-.998 1.003z" fill="#C0D8FB"/><path d="M135.545 23.418h-10.924a.92.92 0 01-.914-.918V11.918a.92.92 0 01.914-.918h10.924a.92.92 0 01.915.918V22.5a.92.92 0 01-.915.918z" fill="#DFEBFD"/><path d="M129.792 12.238c0-.16.131-.292.291-.292.159 0 .291.132.291.292 0 .16-.132.292-.291.292a.293.293 0 01-.291-.292zm2.336.41a.292.292 0 01.395-.11.294.294 0 01.11.396.292.292 0 01-.395.11.294.294 0 01-.11-.396zm2.003 1.594a.297.297 0 01.402.083.293.293 0 01-.083.404.297.297 0 01-.402-.084.287.287 0 01.083-.403zm.984 2.469a.293.293 0 010 .584.294.294 0 01-.291-.291c0-.16.132-.293.291-.293zm-.506 2.867a.294.294 0 010 .41.292.292 0 01-.409 0 .295.295 0 010-.41.28.28 0 01.409 0zm-1.816 1.822c.111.112.111.3 0 .411a.292.292 0 01-.409 0 .295.295 0 010-.41.292.292 0 01.409 0zm-3.001.947c0-.16.131-.292.291-.292.159 0 .291.132.291.292 0 .16-.132.292-.291.292a.297.297 0 01-.291-.292zm-1.76-9.699a.292.292 0 00-.395-.11.294.294 0 00-.111.396.29.29 0 00.395.11.295.295 0 00.111-.396zm-1.997 1.594a.297.297 0 00-.402.083.3.3 0 00.083.404.297.297 0 00.402-.084.3.3 0 00-.083-.403zm-.991 2.469a.294.294 0 00-.291.293c0 .16.132.292.291.292a.293.293 0 000-.585zm.506 2.867a.295.295 0 000 .41.292.292 0 00.409 0 .295.295 0 000-.41.28.28 0 00-.409 0zm1.816 1.822a.295.295 0 000 .411.292.292 0 00.409 0 .295.295 0 000-.41.292.292 0 00-.409 0zm2.641-4.396c0-.16.132-.293.291-.293a.293.293 0 010 .584.294.294 0 01-.291-.291z" fill="#B7D3F3"/><path d="M130.333 13.379h-.076v3.625h.076v-3.625z" fill="#B7D3F3"/><path d="M132.107 15.4l-1.913 1.508.145.186 1.914-1.507-.146-.187z" fill="#B7D3F3"/><path d="M37.76 86.924s3.425-4.014.209-6.56c0 0-2.35-1.427-4.263-1.315 0 0 2.717 4.57 1.837 5.023-.88.452-2.662-5.308-2.662-5.308s-5.344-.522-7.063.306c0 0 4.568 3.757 3.605 3.98-.964.222-5.899-3.459-5.899-3.459s-4.976.85-4.713 3.897c.264 3.047 1.982 3.986 2.731 3.903.755-.084 5.164-1.767 5.254-1.148.097.619-2.558 2.643-4.415 2.74 0 0 3.507 3.883 5.836 2.763s2.53-2.894 3.985-3.562c1.456-.668 2.696-.668 2.093.014-.603.681-3.23 1.342-4.061 2.817-.832 1.475-1.574 2.47.838 2.108 2.412-.361 6.335-2.136 6.502-4.167l.187-2.032z" fill="#C8DBF4"/><path d="M21.264 83.571s13.516-.522 16.496 3.353c0 0 .659 1.983 2.69 3.792l.319.863s-2.343-2.477-3.182-2.63c0 .007 1.31-4.8-16.323-5.378z" fill="#C8DBF4"/><path d="M40.45 90.716s2.897 2.15 3.105 5.997l-.527.05s-.928-3.98-2.599-5.532c-1.677-1.551.02-.515.02-.515zm9.294-8.836s-5.455-3.06-2.91-7.221c0 0 2.037-2.554 4.213-3.208 0 0-1.164 6.2 0 6.346 1.165.146.797-7.007.797-7.007s5.746-2.776 7.999-2.553c0 0-3.563 6.053-2.398 5.914 1.164-.146 5.163-6.276 5.163-6.276s5.892-1.092 6.834 2.408c.943 3.5-.582 5.252-1.455 5.475-.873.216-6.467.146-6.321.877.145.73 3.923 1.899 6.03 1.238 0 0-2.329 5.768-5.379 5.475-3.05-.292-3.999-2.191-5.891-2.337-1.892-.146-3.272.362-2.329.876.943.508 4.145.167 5.67 1.468 1.524 1.301 2.765 2.108-.07 2.693-2.835.584-7.922.215-8.94-1.97l-1.013-2.198z" fill="#C8DBF4"/><path d="M66.754 71.375s-15.263 4.96-17.01 10.505c0 0 .07 2.484-1.455 5.33v1.092s1.601-3.722 2.474-4.23c0 0-3.417-4.821 15.99-12.697z" fill="#C8DBF4"/><path d="M48.29 87.21s-2.358 3.59-1.013 7.959l.603-.16s-.589-4.815.645-7.229c1.233-2.428-.236-.57-.236-.57z" fill="#C8DBF4"/><path d="M41.067 77.657s7.187-4.042 3.833-9.524c0 0-2.683-3.367-5.56-4.23 0 0 1.532 8.175 0 8.37-1.531.194-1.053-9.233-1.053-9.233s-7.569-3.652-10.542-3.367c0 0 4.692 7.98 3.16 7.792-1.531-.195-6.806-8.272-6.806-8.272s-7.763-1.44-9.01 3.172c-1.248 4.62.77 6.923 1.913 7.215 1.15.285 8.525.195 8.338 1.155-.194.96-5.178 2.498-7.95 1.635 0 0 3.063 7.597 7.09 7.215 4.027-.383 5.268-2.888 7.763-3.076 2.489-.194 4.311.48 3.064 1.155-1.248.675-5.462.223-7.472 1.941-2.01 1.719-3.639 2.776.097 3.542 3.736.772 10.445.285 11.783-2.595l1.352-2.895z" fill="#D4E4F8"/><path d="M18.644 63.805s20.121 6.54 22.422 13.852c0 0-.097 3.27 1.913 7.02v1.44s-2.107-4.904-3.257-5.58c.007 0 4.512-6.344-21.078-16.732z" fill="#D4E4F8"/><path d="M42.986 84.677s3.106 4.731 1.331 10.492l-.797-.216s.776-6.345-.845-9.531c-1.622-3.194.312-.745.312-.745z" fill="#D4E4F8"/><path d="M41.31 107.65c-7.778 0-14.078-6.324-14.078-14.13h28.154c0 7.806-6.3 14.13-14.077 14.13z" fill="#D4E4F8"/><path d="M27.038 108.367h28.543c0-.96-.777-1.746-1.74-1.746H28.778a1.748 1.748 0 00-1.74 1.746z" fill="#D4E4F8"/><path d="M26.915 93.952h28.938v-.431H26.915v.431z" fill="#9FC1F4"/><path d="M46.944 56.75H113.2c.658 0 1.185-.535 1.185-1.189v-.744c0-.661-.534-1.19-1.185-1.19H46.944c-.658 0-1.185.536-1.185 1.19v.744a1.183 1.183 0 001.185 1.19z" fill="#2A4E96"/><path d="M47.776 108.339l-.035-.007a.795.795 0 01-.7-.883l6.73-52.264 3.77.112-9.044 52.52a.645.645 0 01-.721.522zm65.665 0l.035-.007a.794.794 0 00.7-.883l-6.73-52.264-3.77.112 9.045 52.52a.644.644 0 00.72.522z" fill="#2A4E96"/><path d="M154.716 63.04l-.78.126 1.474 9.211.78-.126-1.474-9.211z" fill="#B5453C"/><path d="M154.078 61.482l-.131 1.683.776-.125-.645-1.558z" fill="#EFCBAB"/><path d="M163.167 63.966l-.777-.145-1.698 9.173.777.145 1.698-9.173z" fill="#B5453C"/><path d="M163.075 62.275l-.686 1.544.769.146-.083-1.69z" fill="#EFCBAB"/><path d="M162.18 61.276l-.777-.144-1.697 9.173.777.144 1.697-9.173z" fill="#B5453C"/><path d="M162.091 59.59l-.686 1.537.776.146-.09-1.684z" fill="#EFCBAB"/><path d="M163.075 66.936h-6.21v8.989h6.21v-8.989z" fill="#017638"/><path d="M159.97 66.936h-6.21v8.989h6.21v-8.989z" fill="#01BA57"/><path d="M151.5 106.008c-.062.133-.208.863-.471 1.461-.153.362-.354.675-.596.787-.652.306-1.74-.216-1.74-.216s-1.871.216-2.052.132c-.18-.083-.36-2.901-.36-2.901s1.456-1.517 1.58-1.559c.132-.041 1.192.522 1.373.522.18 0 1.247-.695 1.531-.522.299.174.839 2.074.735 2.296z" fill="#fff"/><path d="M149.247 104.227s-.326.738-.416.8c-.09.063-.963-1.322-.963-1.322.131-.041 1.192.522 1.379.522zm1.505.209s-1.331 1.231-1.31 1.35c.02.118 1.434.939 1.49.911.048-.028-.305-.967-.284-1.127l.104-1.134zm.748 1.572c-.062.133-.208.863-.471 1.461l.159-1.377-.416-2.386c.291.18.832 2.08.728 2.302zm-2.8 2.032s-1.871.216-2.051.132c-.18-.083-.361-2.901-.361-2.901s.409 1.447.416 1.517c.007.069.582-.084.582-.084l1.414 1.336zm-1.927-2.769l.208.744h.43l-.319-.313-.319-.431z" fill="#F2F7FE"/><path d="M70.49 106.008c-.063.133-.209.863-.472 1.461-.153.362-.354.675-.596.787-.652.306-1.74-.216-1.74-.216s-1.871.216-2.052.132c-.18-.083-.36-2.901-.36-2.901s1.456-1.517 1.58-1.559c.132-.041 1.192.522 1.373.522.18 0 1.247-.695 1.531-.522.291.174.84 2.074.735 2.296z" fill="#fff"/><path d="M68.23 104.227s-.326.738-.416.8c-.09.063-.963-1.322-.963-1.322.131-.041 1.199.522 1.379.522zm1.51.209s-1.33 1.231-1.31 1.35c.021.118 1.435.939 1.49.911.05-.028-.304-.967-.284-1.127l.104-1.134zm.75 1.572c-.063.133-.208.863-.472 1.461l.16-1.377-.416-2.386c.284.18.832 2.08.728 2.302zm-2.808 2.032s-1.871.216-2.052.132c-.18-.083-.36-2.901-.36-2.901s.409 1.447.416 1.517c.007.069.582-.084.582-.084l1.414 1.336zm-1.927-2.769l.208.744h.43l-.319-.313-.319-.431z" fill="#F2F7FE"/><path d="M157.35 73.497c-.056.139-.166.89-.395 1.51-.139.375-.319.702-.562.834-.644.348-1.781-.125-1.781-.125s-1.885.327-2.072.25c-.187-.076-.534-2.928-.534-2.928s1.393-1.621 1.518-1.67c.132-.049 1.241.46 1.428.452.187-.007 1.227-.779 1.525-.619.305.167.963 2.066.873 2.296z" fill="#fff"/><path d="M154.959 71.82s-.291.766-.375.835c-.09.07-1.046-1.287-1.046-1.287.125-.049 1.234.46 1.421.452zm1.539.125s-1.283 1.33-1.255 1.448c.021.118 1.511.87 1.56.841.048-.034-.361-.967-.354-1.127a64.1 64.1 0 00.049-1.162zm.852 1.552c-.055.139-.166.89-.395 1.51l.083-1.406-.554-2.4c.298.167.956 2.066.866 2.296zm-2.731 2.226s-1.885.327-2.072.25c-.188-.076-.534-2.928-.534-2.928s.492 1.44.506 1.516c.014.077.589-.118.589-.118l1.511 1.28zm-2.114-2.706l.249.744.437-.027-.34-.3-.346-.417z" fill="#F2F7FE"/><path d="M146.683 74.144c-.048.097-.132.598-.305 1.03-.104.257-.249.48-.437.57-.499.244-1.379-.063-1.379-.063s-1.462.244-1.608.195c-.145-.048-.409-1.969-.409-1.969s1.081-1.113 1.178-1.148c.097-.034.964.3 1.109.286.146-.007.95-.543 1.186-.432.228.098.741 1.378.665 1.53z" fill="#fff"/><path d="M144.833 73.038s-.222.522-.292.57c-.069.049-.811-.856-.811-.856.098-.034.957.293 1.103.286z" fill="#C4D9E8"/><path d="M146.032 73.107s-.991.912-.977.988c.02.077 1.171.57 1.212.55.042-.02-.277-.647-.27-.758 0-.105.035-.78.035-.78z" fill="#DFEBF5"/><path d="M146.683 74.144c-.048.097-.131.598-.305 1.03l.063-.954-.43-1.614c.236.105.749 1.385.672 1.538z" fill="#C4D9E8"/><path d="M144.569 75.681s-1.462.244-1.608.195c-.146-.048-.409-1.969-.409-1.969s.381.968.395 1.016c.007.049.458-.09.458-.09l1.164.849zm-1.643-1.808l.194.5.34-.02-.263-.195-.271-.285z" fill="#DFEBF5"/><path d="M88.864 52.02s-3.778-1.093-4.824-.786c-.742.215-1.692 1.314-2.184 1.94a.28.28 0 00.222.453c.63-.007 1.657-.049 2.19-.327.506-.264 1.255.32 2.094.327h1.469l1.033-1.607z" fill="#FFB27D"/></g><defs><clipPath id="clip0"><path fill="#fff" d="M0 0h184v109H0z"/></clipPath></defs></svg>