<svg width="194" height="105" fill="none" xmlns="http://www.w3.org/2000/svg"><g clip-path="url(#clip0)"><path opacity=".5" d="M190.234 104.333c-.014.027-.034.054-.047.081-.107.193-.22.387-.333.587l-174.526-.054s-.167-.186-.474-.553c-.02-.02-.033-.04-.053-.067-.78-.934-2.347-2.91-4.187-5.686C5.741 91.267-1.006 78.201.127 63.699a39.665 39.665 0 013.067-12.526c5.453-12.82 21.714-21.462 36.368-21.636 5.673-.066 11.1 1.135 15.567 3.851.793.48 1.787.854 2.947 1.108.973.213 2.066.347 3.253.387 9.514.334 24.994-5.032 34.175-18.539 4.873-7.174 12.36-11.865 20.96-14.314.4-.114.807-.22 1.207-.327a52.007 52.007 0 016.007-1.168l1.107-.14c9.073-1.055 18.794.033 27.714 3.05 1.173.393 2.333.827 3.48 1.287 16.781 6.8 29.835 20.688 28.688 40.081a41.369 41.369 0 01-.207 2.329 46.972 46.972 0 01-1.467 7.354c-6.913 24.578 20.728 25.693 7.241 49.837z" fill="#DCEAFF"/><path d="M190.233 104.333l-135.845.013 1.174-40.641V52.667h5.08v-8.622h10.134v7.32h3.093v-13.54h.674v-.948h.12v.948h2.446v-.948h.12v.948h3.46v-.948h.12v.948h2.18v-.948h.12v.948h.894v12.64h3.42v-2.043l4.033.02v-3.31h.814v-.654h.106v.654h3.734v-.654h.106v.654h.754v6.587h4.8v2.423h2.673v-1.408h2.474v-5.586h1.233v-2.61h.187v2.61h2.96v-4.885h.293v4.885h1.96v-9.59h.58v-.727h.094v.727h4.32v-.727h.093v.727h.787v5.105h.553-.006v-.974h.006v-.674h-.006v-.974h.006v-.674h-.006v-.975h6.147l.14.08v6.514h.966v-.941h11.067v7.32h3.38v-13.54h.734v-.948h.133v.948h2.667v-.948h.133v.948h3.78v-.948h.134v.948h2.38v-.948h.133v.948h.98v12.64h3.734v-2.043l4.4.02v-3.31h.886v-.654h.12v.654h4.081v-.654h.12v.654h.82v6.587h5.24v2.423h2.913v-1.408h2.7v-5.586h1.347v-2.61h.207v2.61h3.233v-4.885h.32v4.885h1.587a46.933 46.933 0 01-1.467 7.354c-6.907 24.572 20.734 25.686 7.247 49.831z" fill="#DFEBFA"/><path d="M155.978 4.731v99.602h-3.48V3.443c1.18.394 2.34.828 3.48 1.288z" fill="#AFCDFB"/><path d="M58.075 34.488v69.905H14.854c-.02-.02-.034-.04-.053-.067-.78-.934-2.347-2.91-4.187-5.686C5.74 91.266-1.006 78.2.127 63.698a39.665 39.665 0 013.066-12.526c5.454-12.82 21.714-21.462 36.368-21.635 5.62.06 10.974 1.274 15.42 3.85.834.48 1.88.848 3.094 1.101z" fill="#CEE1FD"/><path d="M124.791.394v12.265c0 .955-.234 1.736-.52 1.736h-.074c-.286 0-.52-.781-.52-1.736V.534c.374-.054.74-.1 1.114-.14z" fill="#9FC1F4"/><path d="M123.944 11.445c-4.04 0-7.314 3.463-7.314 7.741h14.628c0-4.277-3.274-7.741-7.314-7.741z" fill="#FF9843"/><path d="M124.53 11.538a2.974 2.974 0 00-.64-.066c-2.633 0-4.766 3.457-4.766 7.714h1.286c-.006-3.91 1.794-7.14 4.12-7.648z" fill="#FFC48A"/><path d="M172.106 92.921s-1.947-2.276-.12-3.717c0 0 1.333-.807 2.42-.74 0 0-1.54 2.588-1.04 2.842.5.26 1.507-3.003 1.507-3.003s3.033-.294 4.013.174c0 0-2.593 2.122-2.047 2.248.547.127 3.347-1.962 3.347-1.962s2.827.481 2.674 2.21c-.154 1.721-1.127 2.255-1.554 2.208-.426-.046-2.933-1-2.986-.654-.054.354 1.453 1.495 2.506 1.549 0 0-1.993 2.195-3.313 1.561-1.327-.634-1.434-1.641-2.26-2.015-.827-.38-1.527-.374-1.187.006.34.388 1.833.761 2.307 1.595.473.835.893 1.402-.474 1.195-1.366-.207-3.593-1.208-3.693-2.356l-.1-1.14z" fill="#77A4E5"/><path d="M181.473 91.02s-7.673-.294-9.367 1.901c0 0-.373 1.121-1.527 2.149l-.18.487s1.327-1.401 1.807-1.488c-.007 0-.747-2.723 9.267-3.05z" fill="#77A4E5"/><path d="M170.573 95.063s-1.647 1.221-1.76 3.397l.3.027s.526-2.256 1.473-3.137c.953-.874-.013-.287-.013-.287zm-5.274-5.005s3.093-1.735 1.653-4.09c0 0-1.153-1.449-2.393-1.816 0 0 .66 3.51 0 3.597-.66.08-.453-3.964-.453-3.964s-3.26-1.568-4.541-1.448c0 0 2.021 3.43 1.361 3.343-.66-.086-2.934-3.55-2.934-3.55s-3.34-.62-3.88 1.362c-.533 1.981.333 2.976.827 3.096.493.127 3.673.08 3.593.494-.08.414-2.227 1.074-3.427.7 0 0 1.32 3.264 3.054 3.097 1.733-.167 2.273-1.241 3.34-1.321 1.073-.08 1.86.206 1.32.493-.533.287-2.353.094-3.22.835-.867.74-1.567 1.194.04 1.521 1.607.334 4.5.127 5.073-1.114l.587-1.235z" fill="#77A4E5"/><path d="M155.639 84.112s8.667 2.81 9.66 5.946c0 0-.04 1.402.827 3.016v.621s-.907-2.109-1.4-2.396c-.007 0 1.933-2.729-9.087-7.187z" fill="#77A4E5"/><path d="M166.126 93.075s1.333 2.028.573 4.504l-.347-.093s.334-2.723-.366-4.098c-.694-1.361.14-.314.14-.314z" fill="#77A4E5"/><path d="M170.226 87.669s-4.08-2.289-2.174-5.392c0 0 1.527-1.909 3.154-2.396 0 0-.873 4.632 0 4.738.873.107.6-5.225.6-5.225s4.3-2.069 5.987-1.909c0 0-2.667 4.518-1.794 4.412.874-.107 3.861-4.685 3.861-4.685s4.406-.814 5.113 1.795c.707 2.616-.433 3.924-1.087 4.084-.653.16-4.84.107-4.733.654.106.547 2.94 1.415 4.513.928 0 0-1.74 4.304-4.027 4.084-2.286-.22-2.993-1.635-4.406-1.742-1.414-.107-2.447.274-1.74.654.706.38 3.1.127 4.246 1.094 1.147.968 2.067 1.569-.053 2.01-2.12.433-5.933.16-6.693-1.469-.76-1.628-.767-1.635-.767-1.635z" fill="#9FC1F4"/><path d="M182.953 79.828s-11.427 3.703-12.734 7.841c0 0 .053 1.849-1.087 3.977v.815s1.2-2.777 1.847-3.157c.007 0-2.553-3.597 11.974-9.476z" fill="#9FC1F4"/><path d="M169.139 91.64s-1.76 2.676-.76 5.94l.454-.12s-.44-3.591.48-5.4c.92-1.808-.174-.42-.174-.42z" fill="#9FC1F4"/><path d="M170.086 104.653c4.414 0 7.994-3.584 7.994-8.002h-15.987c0 4.418 3.58 8.002 7.993 8.002z" fill="#9FC1F4"/><path d="M172.052 104.593a8.11 8.11 0 01-.993.06c-4.414 0-7.994-3.584-7.994-8.002h1.987a8.002 8.002 0 007 7.942z" fill="#AFCDFB"/><path d="M178.266 96.651h-16.434v.247h16.434v-.246z" fill="#9FC1F4"/><path d="M132.878 104.259l-7.853-32.633.546-1.281 7.781 33.914a.137.137 0 01-.134.167h-.126a.216.216 0 01-.214-.167zm-35.448.167a.266.266 0 01-.26-.307l2.314-14.034h.993l-2.76 14.101a.293.293 0 01-.287.24zm22.188 0a.265.265 0 01-.26-.307l2.313-14.034h.994l-2.76 14.101a.293.293 0 01-.287.24z" fill="#77A4E5"/><path d="M124.998 90.112H97.37l5.727-35.917h27.628l-5.727 35.917z" fill="#F5FBFF"/><path d="M127.064 89.838H95.337v1.054h31.727v-1.054z" fill="#77A4E5"/><path d="M114.037 61.71c-.02.286-.06.56-.126.834-.574 2.569-2.86 4.53-5.441 4.538-2.853.006-4.993-2.396-4.773-5.36.22-2.962 2.707-5.371 5.567-5.371a4.753 4.753 0 012.36.614c.46.26.873.6 1.22 1a5.1 5.1 0 01.52.721 5.163 5.163 0 01.647 1.902c.033.254.046.52.046.788l-.02.333z" fill="#BDD1F9"/><path d="M113.597 59.147l-4.733 2.569s1.953-3.443 2.753-4.758c.46.26.874.6 1.22 1 .194.221.367.468.52.722.094.153.174.313.24.467z" fill="#fff"/><path d="M114.091 58.5l-4.32 2.349s1.78-3.144 2.513-4.345c.42.24.8.547 1.114.914a4.764 4.764 0 01.693 1.081z" fill="#F99746"/><path d="M122.798 87.382h-22.741l2.3-13.133h22.741l-2.3 13.133zm-22.554-.133h22.42l2.254-12.867h-22.421l-2.253 12.867z" fill="#BDD1F9"/><path d="M121.444 85.58h-20.167s3.58-1.922 4.56-1.822c.98.1 2.393.881 3.3.908.907.033 1.887-2.696 2.9-2.57 1.007.127 1.387 2.543 1.914 2.303.52-.234 2.093-.34 2.993 0 .907.34 2.22-1.074 3.014-1.028.793.054 1.486 2.21 1.486 2.21zm-15.319-3.857h-3.846l.033-.207h3.853l-.04.207zm-.075.434h-3.853l.033-.2h3.854l-.034.2z" fill="#F99746"/><path d="M102.43 79h20.168s-2.907-1.922-3.92-1.822c-1.02.1-2.7.881-3.62.908-.92.033-.947-2.696-2.001-2.57-1.053.127-2.28 2.537-2.72 2.303-.44-.234-1.973-.34-2.993 0-1.02.34-1.847-1.074-2.653-1.028-.814.047-2.261 2.21-2.261 2.21zm4.789-3.483h-3.854l.034-.207h3.853l-.033.207zm-.082.433h-3.853l.04-.206h3.847l-.034.207zm-3.4-3.536h-.887l.773-4.145h.88l-.766 4.145zm1.206 0h-.887l.6-3.21h.88l-.593 3.21zm1.207 0h-.887l.62-3.35h.887l-.62 3.35zm1.2 0h-.88l.474-2.55h.88l-.474 2.55zm1.207 0h-.887l.507-2.73h.887l-.507 2.73zm1.206 0h-.887l.394-2.116h.887l-.394 2.116z" fill="#BDD1F9"/><path d="M115.57 72.414h-.886l.773-4.145h.88l-.767 4.145zm1.207 0h-.887l.593-3.21h.887l-.593 3.21zm1.207 0h-.887l.62-3.35h.887l-.62 3.35zm1.2 0h-.88l.467-2.55h.886l-.473 2.55zm1.207 0h-.887l.507-2.73h.887l-.507 2.73zm1.206 0h-.887l.394-2.116h.886l-.393 2.116z" fill="#F99746"/><path d="M119.832 58.873h-2.881l.074-.393h2.88l-.073.393zm3.533 0h-3.18l.073-.393h3.181l-.074.393zm2.267 0h-2.027l.073-.393h2.027l-.073.393zm1.893 0h-1.567l.074-.393h1.567l-.074.393zm-8.007 1.682h-2.88l.073-.394h2.88l-.073.394zm3.526 0h-3.18l.08-.394h3.174l-.074.394zm2.267 0h-2.027l.074-.394h2.026l-.073.394zm1.894 0h-1.567l.08-.394h1.56l-.073.394zm-5.66-2.603h-4.42l.073-.393h4.42l-.073.393zm2.967 0h-2.547l.073-.393h2.547l-.073.393zm3.186 0h-2.827l.073-.393h2.827l-.073.393zm-6.494 1.788h-4.413l.073-.393h4.414l-.074.394zm2.967 0h-2.546l.073-.393h2.547l-.074.394zm3.187 0h-2.827l.074-.393h2.827l-.074.394zm-8.16 2.503h-2.88l.073-.394h2.88l-.073.394zm3.533 0h-3.18l.074-.394h3.18l-.074.394zm2.267 0h-2.026l.073-.394h2.027l-.074.394zm1.894 0h-1.567l.074-.394h1.566l-.073.394zm-6.001-.814h-4.42l.073-.4h4.42l-.073.4zm2.967 0h-2.547l.074-.4h2.546l-.073.4zm3.186 0h-2.826l.073-.4h2.827l-.074.4zm-8.139 2.389h-2.881l.074-.394h2.88l-.073.394zm3.526 0h-3.173l.073-.394h3.18l-.08.394zm2.267 0h-2.027l.073-.394h2.034l-.08.394zm1.894 0h-1.561l.074-.394h1.56l-.073.394zm-6-.814h-4.414l.073-.394h4.414l-.073.394zm2.966 0h-2.546l.08-.394h2.546l-.08.394zm3.194 0h-2.834l.074-.394h2.833l-.073.394zm-14.401 5.879h-1.413l.04-.193h1.406l-.033.193zm1.726 0h-1.554l.034-.193h1.56l-.04.193zm-1.88.827h-1.413l.04-.193h1.407l-.034.194zm1.727 0h-1.56l.04-.193h1.553l-.033.194zm-.74-1.274h-2.16l.033-.193h2.167l-.04.193zm1.453 0h-1.247l.04-.193h1.247l-.04.193zm-1.613.874h-2.167l.04-.193h2.16l-.033.193zm1.453 0h-1.247l.034-.193h1.247l-.034.193zm9.161-.427h-1.407l.034-.193h1.413l-.04.193zm1.733 0h-1.56l.04-.193h1.553l-.033.193zm-1.887.827h-1.406l.033-.193h1.407l-.034.194zm1.727 0h-1.553l.033-.193h1.56l-.04.194zm-.733-1.274h-2.16l.033-.193h2.16l-.033.193zm1.453 0h-1.246l.033-.193h1.247l-.034.193zm-1.62.874h-2.16l.033-.193h2.167l-.04.193zm1.454 0h-1.247l.04-.193h1.24l-.033.193z" fill="#BDD1F9"/><path d="M131.138 103.892c-.047.674-1 .681-2.08.554s-.794.147-2.307.167c-1.513.02-2.033-.481-2.107-.694-.066-.194.66-.354 1.44-.541.1-.026.194-.046.294-.073.88-.22 1.46-.881 2.213-1.455.714-.547 1.634-2.516 1.634-2.516l2.066-.093s-.866 1.768-1.193 2.529c-.193.447-.113 1.001-.027 1.421.04.227.087.461.067.701z" fill="#FFB27D"/><path d="M129.058 104.446c-1.08-.127-.794.147-2.307.167-1.513.02-2.033-.481-2.107-.694-.066-.194.66-.354 1.44-.541l.007.014s.973.52 2.22.4c1.013-.1 2.054-.527 2.754-.601.046.227.086.468.073.701-.047.674-1 .681-2.08.554z" fill="#233862"/><path d="M145.405 104.032c-.047.674-1 .681-2.08.561-1.08-.127-.793.147-2.307.173-1.513.02-2.033-.473-2.107-.694-.066-.193.661-.353 1.441-.547.1-.027.193-.047.293-.073.88-.227 1.46-.881 2.213-1.462.714-.547 0-3.77 0-3.77l2.274-.22s-.107 2.716-.107 3.95c0 .487.227.955.307 1.382.046.227.086.46.073.7z" fill="#FFB27D"/><path d="M143.325 104.593c-1.08-.127-.793.147-2.307.173-1.513.02-2.033-.473-2.107-.694-.066-.193.661-.353 1.441-.547l.006.014s.974.52 2.22.393c1.014-.1 2.047-.527 2.754-.607.046.227.086.467.073.701-.053.68-1 .687-2.08.567z" fill="#233862"/><path d="M138.772 48.256c-.394-1.609.173-2.363.686-2.756.24-.594.52-1.022.8-1.182.514-.293 1.134-.327 1.567-.3-.113-.113-.333-.16-.333-.16.266-.04.867.227.867.227 3.733-1.442 4.32 4.064 4.24 5.339-.08 1.28-.067 2.782 1.873 3.79 3.707 1.922-1.233 9.163-1.233 9.163.093-1.035-4.667-6.487-7.154-8.115-.607-.894-.82-2.463-.833-2.59.106 1.248.32 1.95.506 2.343-1.12-1.041-1.286-3.544-.986-5.76z" fill="#A9453D"/><path d="M140.245 54.349c-.014.006 1.2.634 2.113.387.86-.234 1.42-1.348 1.407-1.348-.36-.074-.467-.574-.46-2.716l-.167.033-2.76.547s.06.868.067 1.688c0 .681-.04 1.335-.2 1.409z" fill="#FFB27D"/><path d="M140.378 51.245s.06.868.067 1.689c1.547-.047 2.36-1.455 2.694-2.236l-2.761.547z" fill="#ED975D"/><path d="M129.151 100.429a.675.675 0 00.613.881l1.08.053 1.14.033a.91.91 0 00.741-.34c.913-1.121 3.713-4.845 5.413-10.264.047-.153.1-.307.153-.46 1.12-3.277 3.454-7.394 4.681-11.118.193-.594.373-1.155.526-1.682.054-.167.1-.334.147-.5.907-3.144 1.167-5.212 1.407-7.415l-8.861.074c-.006.007-1.866 14.521-7.04 30.738z" fill="#2A4E96"/><path d="M137.425 64.606c.02 4.217-.62 6.032-.62 6.032s3.793 1.929 8.3.508c.053-.02 3.227-.915 3.227-.915-.073-.173-.7-2.996-.773-3.15-.954-2.048-1.214-2.903-1.327-3.536-.207-1.175-.214-2.39-.107-3.537.273-3.037 1.094-5.553 1.094-5.553-1.227-.28-2.381-.774-3.661-1.248-.293.367-1.193.748-1.973.734-.9-.02-1.187-.407-1.14-.827-.96.534-1.72 1.034-1.72 1.034-.814 1.415-2.46 2.79-2.58 4.959-.027.534 1.28 5.379 1.28 5.499z" fill="#fff"/><path d="M145.045 65.073c.387.547 1.127 3.884 2.98 4.304-.953-2.376-1.673-3.417-1.787-4.15-.206-1.362-.213-2.777-.106-4.105a62.413 62.413 0 00-1.08-1.828c-.047-.174-.98-3.07-1.28-.48-.307 2.582.84 5.645 1.273 6.259z" fill="#5F9AA8"/><path d="M139.865 52.02s3.653.06 3.66-2.216c0-2.276.473-3.804-1.86-3.937-2.334-.134-2.787.734-2.974 1.494-.186.755.22 4.585 1.174 4.659z" fill="#FFB27D"/><path d="M139.998 45.806s1 2.677 2.533 3.07c1.534.394 2.2-.013 2.2-.013s-1.18-.934-1.42-2.57c.007-.006-2.56-1.761-3.313-.486z" fill="#A9453D"/><path d="M140.245 46.02s-.747.594-.927 1.175c-.18.58-.267 1.775-.613 1.735 0 0-.754-1.816.093-2.843.9-1.088 1.447-.067 1.447-.067z" fill="#A9453D"/><path d="M134.111 67.535l-1.72 5.266.98.393 2.854-4.651-2.114-1.008z" fill="#FFB27D"/><path d="M138.765 53.835s-2.034.807-2.627 2.068c-.587 1.262-1.48 9.717-1.833 10.584-.354.868-.62 1.555-.62 1.555s1.026.868 2.06.928c1.033.067 3.02-15.135 3.02-15.135z" fill="#01BA57"/><path d="M140.445 53.114s-2.114 5.225-2.174 6.286c-.06 1.062-.246 17.305-.246 17.305s.126.747-1.307.433c-1.434-.313-1.8-.62-1.8-.62s1.366-10.024.993-13.507c-.373-3.484 2.86-9.17 2.86-9.17l1.674-.727z" fill="#01BA57"/><path d="M130.845 101.363l1.24.04a.707.707 0 00.573-.26c.834-1.008 3.734-4.785 5.48-10.344.047-.154.1-.307.154-.46 1.12-3.277 3.453-7.395 4.68-11.118a59.993 59.993 0 00.673-2.183l-1.306-.987s-3.921 6.346-5.127 12.325c-1.06 5.192-5.281 11.432-6.367 12.987z" fill="#1E3D70"/><path d="M142.198 88.93c-.02 2.75.107 8.876.44 11.872.034.274.26.481.54.481h.927c.387 0 .68 0 .873-.007.167 0 .314-.12.34-.287.92-4.684 1.58-8.575 2.06-11.932.401-2.816.761-5.225 1.034-7.3.28-2.09.473-3.838.54-5.32.013-.233.02-.46.02-.68.007-.22.007-.434.007-.647l-7.654-.748c.1 5.099.887 12.88.873 14.568z" fill="#2A4E96"/><path d="M144.105 101.283c.353 0 .62 0 .813-.007.207 0 .38-.147.42-.347.914-4.658 1.567-8.528 2.047-11.872.4-2.816.76-5.225 1.033-7.3.28-2.09.474-3.838.54-5.32l-2.806 1.656s1.793.634 1.106 5.425c-.686 4.792-2.2 17.084-3.153 17.765z" fill="#1E3D70"/><path d="M143.745 76.39s.54 1.95 2.407 1.703c1.866-.247 4.52-1.368 4.52-1.368s-.8-2.523-1.787-5.833c-1.2-4.01-2.687-9.183-3.387-12.44-.193-.914-.333-1.674-.38-2.222l-1.547-3.003s-2.306 5.186-2.433 6.494c-.133 1.294 2.607 16.67 2.607 16.67z" fill="#01BA57"/><path d="M145.605 59.514l-2.04-6.3c.006 0 2.58.767 3.873 1.422 0 0 .807 1.047 1.313 3.456 0 0 .527 5.786-.653 7.902 0 0-3.733.747-9.7-1.308v-1.368s6.527.34 7.867.5l-.66-4.304z" fill="#FFB27D"/><path d="M143.825 62.45c.087 2.116.58 6.226 5.014 8.422.013.007.026.013.033.02-1.2-4.01-2.687-9.183-3.387-12.44-.806 1.215-1.706 2.83-1.66 3.998z" fill="#10934D"/><path d="M143.565 53.22s3.787.268 4.7 2.303c.914 2.035 1.201 8.796.04 10.791 0 0-1.6.454-4.426-.073-.034-.007-.067-.014-.107-.02 0 0-.9-2.21-.093-2.643 0 0 2.386.127 2.133-.66-.247-.801-2.247-9.697-2.247-9.697z" fill="#01BA57"/><path d="M134.071 64.165l.114.36 6.213-1.935s.08-.093.04-.22c-.046-.14-.153-.14-.153-.14l-6.214 1.935z" fill="#A9453D"/><path d="M133.618 64.505l.453-.34.107.36-.56-.02z" fill="#A9453D"/><path d="M132.631 72.654s-1.573.874-1.787 1.535c-.206.667-.066 2.055.187 2.035.253-.02.627-1.495.833-1.602.207-.106.5-.413.5-.186 0 .226-.206.64-.106.707.106.06.433-.58.666-.707.227-.127.327-1.148.547-1.429.22-.266-.84-.353-.84-.353zm5.767-9.336s-1.406-.868-2-.734c-.593.133-2.1 1.227-1.373 1.461.726.234 1.313-.013 1.593.16.28.174.487.487 1.787.48 1.287 0-.007-1.367-.007-1.367z" fill="#FFB27D"/><g opacity=".6" fill="#77A4E5"><path opacity=".6" d="M70.13 104.419h-.02a.246.246 0 01-.248-.247l.374-16.056 1.093-.127-.926 16.183a.28.28 0 01-.274.247zm-6.354 0h-.02a.246.246 0 01-.247-.247l.373-16.056 1.093-.127-.933 16.183a.268.268 0 01-.267.247zm17.534 0h.02c.14 0 .246-.113.246-.247l-.373-16.056-1.094-.127.927 16.183a.274.274 0 00.273.247zM63.055 87.122V76.117a3.501 3.501 0 013.5-3.503h7.92a3.501 3.501 0 013.501 3.503v11.425l-14.92-.42z"/><path opacity=".6" d="M79.396 88.857H64.109c-.58 0-1.054-.474-1.054-1.055v-.687h16.341v1.742z"/><path opacity=".6" d="M81.23 88.857H69.661a.781.781 0 01-.78-.78v-.181c0-.427.347-.78.78-.78H81.23a.78.78 0 01.78.78v.18a.78.78 0 01-.78.78z"/></g><path d="M89.883 98.02c.114.553.9.46 1.78.246.88-.213.674.04 1.92-.1 1.254-.14 1.634-.607 1.667-.794.034-.167-.586-.227-1.246-.3-.087-.007-.167-.02-.254-.034-.746-.093-1.3-.58-1.98-.974-.646-.373-1.607-1.908-1.607-1.908l-1.72.133s.9 1.368 1.247 1.969c.207.354.193.814.167 1.174 0 .194-.014.394.026.587z" fill="#FFB27D"/><path d="M91.663 98.266c.88-.213.674.04 1.92-.1 1.254-.14 1.634-.607 1.667-.794.033-.167-.587-.227-1.247-.3l-.006.013s-.754.534-1.794.56c-.847.02-1.746-.22-2.333-.213-.014.194-.027.394.013.588.113.553.9.46 1.78.246z" fill="#233862"/><path d="M75.123 100.495c-.34.448.246.981.993 1.495.74.521.414.527 1.347 1.382.933.847 1.533.82 1.7.727.147-.087-.22-.587-.6-1.134-.047-.067-.093-.141-.147-.207-.426-.628-.426-1.355-.58-2.129-.146-.734 1.054-3.43 1.054-3.43l-1.92-.24s-.254 1.628-.467 2.282c-.127.387-.66.64-.947.854-.153.12-.313.24-.433.4z" fill="#FFB27D"/><path d="M76.116 101.99c.74.521.413.527 1.347 1.382.933.847 1.533.82 1.7.727.147-.087-.22-.587-.6-1.134l-.014.006s-.893-.213-1.606-.974c-.58-.627-.994-1.462-1.387-1.895-.153.12-.313.24-.433.4-.34.441.253.968.993 1.488z" fill="#233862"/><path d="M82.97 86.721l-1.754 4.725-2.293 6.173s-.62.06-1.22-.113c-.547-.16-1.18-.574-1.18-.574s.633-6.627 1.82-10.43c.306-.975.647-1.77 1.02-2.21 1.853-2.175 3.607 2.43 3.607 2.43z" fill="#163560"/><path d="M81.19 79.214c-1.147-.374-4.614-.147-7.907.494l-.507-.881-7.114-.554s-2.346 5.212-1.06 8.529c.187.487.567.8 1.207.814h5.713c3.54 0 7.487-2.436 8-2.536.834-.167 1.174 1.508 2.007 3.263.834 1.755 7.86 7.781 7.86 7.781s1.08.014 1.528-.153c.48-.18.653-.414.653-.414s-7.787-15.502-10.38-16.343z" fill="#2A4E96"/><path d="M70.282 57.272c-1-.24-2.36.04-2.586.066-2.7.314-3.307 4.518-3.107 5.693.373 2.162-.667 2.776-1.907 4.504-2.487 3.47-.767 6.333 1.253 7.04 1.214.428 2.867-.733 2.867-.733.034.013 4.294-4.064 6.407-6.046 3.554-1.455-.373-9.91-2.927-10.525z" fill="#233862"/><path d="M70.862 67.175c.014.007-1.1.734-2.007.58-.853-.14-1.753-1.254-1.746-1.26.346-.108.646-.508.433-2.584l.16.014 2.727.26s.026.848.1 1.642c.073.667.173 1.294.333 1.348z" fill="#FFB27D"/><path d="M70.436 64.185s.027.848.1 1.642c-1.5.107-2.427-1.181-2.827-1.902l2.727.26z" fill="#ED975D"/><path d="M71.01 64.886s-3.534.414-3.754-1.795c-.22-2.21-.827-3.637 1.413-3.998 2.247-.36 2.767.44 3.027 1.161.253.721.227 4.472-.687 4.632z" fill="#FFB27D"/><path d="M71.269 59.127s-1.707 2.442-3.154 2.976c-1.446.534-2.133.2-2.133.2s.693-.954.92-2.262c.067-.387.333-.707.707-.834 1.04-.374 3.04-.928 3.66-.08z" fill="#233862"/><path d="M69.863 59.307s.913.52 1.273.987c.354.448.727 1.642.674 2.17 0 0 .573-2.51-.347-3.424-.973-.968-1.6.267-1.6.267z" fill="#233862"/><path d="M73.582 73.034c-.106 7.14-.026 5.653-.806 6.327-.187.16-.72.26-1.414.307-2.187.146-6.033-.214-6.18-.621-.507-1.401-.147-1.835-.567-3.977a36.48 36.48 0 00-.16-.741c-.353-1.475-.693-1.975.554-4.338 1.126-2.142 2.346-3.857 2.453-3.79 2.98 1.768 3.173.253 3.173.253s2.994 3.09 2.947 6.58z" fill="#fff"/><path d="M81.216 91.446l-2.34 6.427s-.84.273-1.453.187c-.627-.094-.967-.434-.967-.434s.713-7.32 1.9-11.125l2.86 4.945z" fill="#2A4E96"/><path d="M70.63 66.448s3.066.52 3.426 1.841c.36 1.322 2.994 8.602 2.994 8.602s-2.074.768-2.794.047c-.72-.72-2.507-6.687-2.507-6.687l-1.12-3.803z" fill="#fff"/><path d="M71.356 79.668c-2.187.146-6.033-.214-6.18-.621-.507-1.401-.147-1.835-.567-3.977l1.027-2.336s-.147 2.676.833 3.55c.974.874 3.994 1.682 4.467 2.41.227.34.38.687.42.974z" fill="#DFEBFD"/><path d="M71.536 78.14s.654.56.84.607c.187.046.294 0 .294 0l-.474-.554-.66-.054zm-.26-.661l1.647.427s-.04.12-.227.147c-.187.026-.687-.047-.687-.047l-.733-.527z" fill="#FFB27D"/><path d="M68.483 78.386s2.353-1.047 2.8-.907c.44.14 1.573.74 1.753.994.18.254-.927-.033-1.273-.053-.227-.014-.74.293-1 .44-1.087.62-1.84.567-1.84.567l-.44-1.04z" fill="#FFB27D"/><path d="M67.456 66.187s-3.334.627-3.947 1.549c-1.347 2.015-4.214 10.377-2.607 11.498 1.807 1.261 8.227.327 8.227.327s.213-1.001-.087-1.482c-.3-.48-5.126-1.268-5.353-1.488-.22-.22 2.2-3.45 1.947-4.07-.827-1.976 1.82-6.334 1.82-6.334z" fill="#fff"/><path d="M80.623 78.033s2.333.627 2.573.994c.24.36.707 1.468.687 1.762-.02.287-.653-.574-.893-.794-.154-.14-.714-.227-.987-.274-.693-.114-1.027-.427-1.287-.587-.173-.107-.386-.087-.386-.087l.293-1.014z" fill="#FFB27D"/><path d="M82.996 79.66s.14.795.247.935c.107.14.207.174.207.174l-.014-.688-.44-.42zm.2-.633l.947 1.288s-.1.06-.253-.027c-.154-.087-.474-.44-.474-.44l-.22-.821zm-2.48.107s.214.527.647.714c.433.187.747.474.82.367.067-.1-.327-.634-.327-.634l-1.14-.447z" fill="#FFB27D"/><path d="M76.43 75.17l4.906 3.103s-.513.687-.686.754c-.907.334-4.994.013-6.394-2.089l2.174-1.768z" fill="#fff"/><path d="M74.482 78.54c.287 0 3.167-.2 3.167-.2s-.08.513.093.78l-2.807.54-.573-.166.12-.954z" fill="#F9DDBF"/><path d="M69.682 79.007l4.8-.46s-.166.887.46 1.12l-5.293.388c0-.007-.427-.608.033-1.048z" fill="#F99746"/><path d="M77.642 78.406l-3.246.247s.026-.113.086-.113 3.227-.234 3.227-.234l-.013.087-.054.013zm-2.7 1.254l2.854-.54-.02-.073-3.047.58.213.034z" fill="#F99746"/><path d="M41.688 104.399h-.027a.276.276 0 01-.273-.28l.413-17.931 1.213-.14-1.033 18.071a.302.302 0 01-.294.28zm-7.054 0h-.026a.276.276 0 01-.274-.28l.414-17.931 1.213-.14-1.033 18.071a.302.302 0 01-.294.28zm19.461 0h.027a.276.276 0 00.273-.28l-.413-17.931-1.214-.14 1.034 18.071c.006.154.14.28.293.28zM33.835 85.08V72.794c0-2.162 1.74-3.917 3.886-3.917h8.794c2.147 0 3.887 1.755 3.887 3.917v12.753l-16.567-.467z" fill="#77A4E5"/><path d="M51.975 87.015H35a1.176 1.176 0 01-1.174-1.174v-.768h18.141v1.942h.007z" fill="#77A4E5"/><path d="M54.008 87.015h-12.84a.865.865 0 01-.867-.868v-.206c0-.48.387-.868.867-.868h12.834c.48 0 .866.387.866.868v.206a.864.864 0 01-.86.868z" fill="#77A4E5"/><path d="M47.101 64.339s-.733.627-.893 2.249c-.12 1.234.733 10.81 1.38 11.571 1.813 2.143 4.08 1.235 4.967 1.562l.84-.754s-2.947-2.176-3.174-2.89c-.866-2.73-.333-10.704-3.12-11.738z" fill="#F9DDBF"/><path d="M46.574 56.524s.047-1.755-2.267-2.102c-2.313-.347-2.953.2-3.346.787-.394.594-1.134 3.003-1.06 3.964.073.961 2.713 2.15 2.673 2.71-.047.56 4-5.359 4-5.359z" fill="#163560"/><path d="M57.308 102.878c-.074.594.733.767 1.673.854.94.08.647.267 1.934.554 1.286.287 1.813-.053 1.913-.227.087-.153-.5-.42-1.133-.727-.08-.04-.16-.074-.24-.114-.707-.347-1.087-1.021-1.627-1.655-.513-.6-.953-2.469-.953-2.469l-1.74-.447s.433 1.682.58 2.402c.086.421-.08.881-.227 1.235-.074.193-.154.387-.18.594z" fill="#FFB27D"/><path d="M58.981 103.732c.94.08.647.267 1.933.554 1.287.287 1.814-.053 1.914-.227.086-.153-.5-.42-1.134-.727l-.013.013s-.92.28-1.96-.047c-.847-.267-1.653-.821-2.24-1.007-.08.193-.153.387-.18.594-.067.587.74.767 1.68.847z" fill="#233862"/><path d="M44.268 78.673s11.647 1.208 13.567 2.997c1.92 1.781 1.58 18.412 1.58 18.412-.3.313-.52.3-.994.267-.453-.034-1.38-.427-1.38-.427s-2.493-8.162-2.526-10.057c-.034-1.889-.427-5.099-1.22-5.286-.794-.187-10.22.868-11.254-2.108-1.033-2.984.68-5.433.68-5.433l1.547 1.635z" fill="#10934D"/><path d="M38.827 81.676c.5.334 1.4.855 2.907.908 2.7.1 6.067-.227 6.727-.848.173-.16.253-.427.28-.767.073-1.034-.42-2.743-.753-4.151-.214-.914-.36-1.708-.24-2.115.366-1.235 1.5-3.744 1.6-4.565.1-.828-.887-5.245-2.247-5.793-1.36-.547-6.607 0-6.607 0-2.053.414-2.14 4.792-1.453 8.516.02.093.033.193.053.287.733 3.777-1.667 7.587-.267 8.528z" fill="#F9DDBF"/><path d="M45.608 65.146c-.04.24-.694.627-2.094.26-1.346-.353-1.506-.794-1.506-1.08 0-.341.586-.801.58-2.91l.16.033 2.713.54s-.06.855-.067 1.656c-.006.667.274 1.1.214 1.501z" fill="#FFB27D"/><path d="M45.454 61.976s-.06.855-.066 1.655c-1.52-.04-2.32-1.428-2.647-2.195l2.713.54z" fill="#ED975D"/><path d="M45.96 62.737s-3.586.06-3.593-2.175c0-2.236-.466-3.738 1.827-3.871 2.294-.134 2.74.72 2.92 1.468.18.748-.22 4.505-1.153 4.578z" fill="#FFB27D"/><path d="M45.828 56.638s-.98 2.622-2.494 3.016c-1.513.394-2.16-.014-2.16-.014s1.153-.92 1.394-2.522c.006-.007 2.52-1.728 3.26-.48z" fill="#163560"/><path d="M45.588 56.851s.733.587.913 1.155c.18.567.26 1.741.6 1.701 0 0 .74-1.782-.093-2.796-.887-1.068-1.42-.06-1.42-.06z" fill="#163560"/><path d="M48.56 103.372c-.006.6.814.68 1.76.654.948-.027.674.193 1.981.327 1.307.133 1.793-.267 1.873-.447.074-.167-.546-.361-1.206-.588-.08-.026-.167-.06-.247-.086-.74-.267-1.193-.888-1.8-1.455-.573-.534.693-3.123.693-3.123l-1.66-.821s-.313 1.848-.72 3.463c-.107.421-.447 1.108-.553 1.468-.06.187-.113.394-.12.608z" fill="#FFB27D"/><path d="M38.9 81.23c.5.333 1.327 1.3 2.84 1.354 2.487-.567 5.32-1.228 7.007-1.622.074-1.034-.42-2.743-.753-4.15-1.967.6-4.887-1.449-5.873-2.256-1.034-.848-1-3.677-1-3.677l-2.08 1.975c.02.093.033.194.053.287.733 3.784-1.6 7.147-.194 8.088z" fill="#F2CCAA"/><path d="M50.32 104.019c.948-.027.674.194 1.981.327s1.793-.267 1.873-.447c.074-.167-.546-.361-1.206-.587l-.007.013s-.88.387-1.953.18c-.874-.167-1.734-.621-2.334-.741-.053.201-.113.401-.113.614-.007.588.813.668 1.76.641z" fill="#233862"/><path d="M41.754 79.387c2.96-.086 11.787.62 13.487 1.902 2.087 1.575-3.88 18.62-3.88 18.62s-.693.066-.913.04c-.947-.108-1.334-.395-1.334-.395s.02-10.03.72-11.952c.647-1.775 1.04-2.402.234-2.509-.807-.107-10.88 1.181-11.72-1.862-.654-2.375.313-4.578.313-4.578s.366.814 3.093.734z" fill="#01BA57"/><path d="M40.494 64.339s-2.053.173-2.213 1.802c-.12 1.234-1.014 9.983-.374 10.744 1.814 2.142 7.847 2.596 8.734 2.923l.247-1.015s-6.447-3.25-6.347-3.99c.1-.734 1.92-10.758-.047-10.464z" fill="#F9DDBF"/><path d="M42.08 55.31s.147-.935-1.153-1.182c-1.3-.24-1.32 2.523-1.46 3.184-.14.667.207 1.067.7 1.107.494.04 1.914-3.11 1.914-3.11z" fill="#163560"/><path d="M46.954 78.747s1.834-.52 2.274-.4c.44.12 1.933 1.114 1.726 1.38-.213.268-1.533-.16-2.14-.08-.606.08-1.08.381-1.513.314-.44-.067-.894-.233-.894-.233l.547-.981z" fill="#FFB27D"/><path d="M46.954 78.747s.9-.46 1.153-.728c.034-.033.087-.026.114.014.066.106.133.313-.18.527-.454.3-1.087.187-1.087.187zm6.434.227s1.906.106 2.28.36c.373.26 1.466 1.682 1.18 1.868-.287.187-1.394-.647-1.994-.767-.6-.12-1.14.013-1.533-.194a5.245 5.245 0 01-.767-.513l.834-.754z" fill="#FFB27D"/><path d="M40.308 104.553h-7.754c-.373-.454-.233-2.136-.18-2.683l.02-.173s2.647-2.116 3.007-.494c.013.053.026.1.04.147.46 1.515 2.513 2.209 3.7 2.402.773.12 1.06.521 1.167.801z" fill="#1B3051"/><path d="M19.16 79.347c.28 0 13.274 2.443 15.421 5.106 1.074 1.328 1.234 16.696 1.234 16.696s-1.327 1.649-4.2.694c0 0-2.107-10.51-1.947-13.7.04-.881-8.88-.127-10.514-.554-1.633-.42-5.62-3.977-4.74-5.713.887-1.728 4.747-2.529 4.747-2.529z" fill="#233862"/><path d="M28.568 78.627s.833.72 1.686.92c.487.114.96.247 1.24.374.774.354 2.234 1.935 2.1 2.096-.433.507-2.193-.808-2.533-.714-.333.093.553.854.2 1.06-.187.107-.533-.553-.853-.647-.44-.126-.727-.787-.86-.834-.254-.087-1.327-1.048-1.327-1.048l.347-1.207z" fill="#FFB27D"/><path d="M43.735 104.553H35.98c-.373-.454-.233-2.136-.18-2.683l.02-.173s2.647-2.116 3.007-.494c.013.053.027.1.04.147.46 1.515 2.514 2.209 3.7 2.402.774.12 1.06.521 1.167.801z" fill="#1E3C68"/><path d="M22.994 79.347c.28 0 13.274 2.443 15.42 5.106 1.074 1.328 1.234 16.696 1.234 16.696s-1.327 1.649-4.2.694c0 0-2.107-10.51-1.947-13.7.04-.881-8.88-.127-10.513-.554-1.634-.42-5.62-3.977-4.74-5.713.88-1.728 4.746-2.529 4.746-2.529z" fill="#2B478B"/><path d="M22.181 63.545c-.933-.08-1.913-.327-2.76-.601-1.06-.347-1.913-.848-1.36-1.815.507-.895 1.327-2.89 1.273-4.538l1.974 1.588 1.34 1.081s-.007.634-.154 1.755c-.026.2-.06.42-.093.661a.49.49 0 00.22.48c.014.007.02.014.034.02.646.4.306 1.429-.474 1.369z" fill="#FFB27D"/><path d="M22.634 58.993s.067.234-.047 1.088c-1.193-.194-2.306-1.148-2.306-1.148.606-.167.826-.82 1.28-.76l1.073.82z" fill="#ED975D"/><path d="M23.74 59.187s-4.586.76-5.02-2.102c-.433-2.87-1.313-4.705 1.6-5.312 2.914-.608 3.647.4 4.027 1.32.367.922.574 5.82-.606 6.094z" fill="#FFB27D"/><path d="M25.015 51.826c.2.694-.334 1.535-1.214 1.809-1.313.413-1.026 2.022-1.613 2.002-.593-.02-.833-.928-1.36-.207-.454.614.373 1.348.32 1.688-.1.58-1.007 1.768-1.827 1.708-.82-.06-2.353-3.957-2.047-5.165.307-1.208 1.534-2.476 2.694-2.656 1.16-.173 2.773.327 3.146.327.367.007 1.794.12 1.9.494z" fill="#2B478B"/><path d="M26.154 78.486c-.08.661-.213 1.115-.433 1.262a38.924 38.924 0 01-2.607 1.595c-3.593 2.002-8.507 3.937-9.507.554-1.173-3.978-.4-11.445.747-16.09.66-2.676 2.5-5.479 3.733-5.472 2.114.006 5.147.56 6.374 3.59.473 1.175 1.173 5.239 1.527 8.962.22 2.216.313 4.311.166 5.6z" fill="#fff"/><path d="M17.88 60.355l.48-1.081s4.24.433 4.96 2.87c0 .006-3.28-1.736-5.44-1.79zm8.274 18.131c-.08.661-.213 1.115-.433 1.262a38.955 38.955 0 01-2.607 1.595c-1.053-.641-3.227-2.176-3.733-3.984-.66-2.363-.2-5.272-.2-5.272l6.973 6.4z" fill="#DFEBFD"/><path d="M18.741 63.992s.367 10.163.947 12.172c.986 3.424 9.96 4.645 9.96 4.645s.527-.6.293-1.595c0 0-5.366-4.238-5.526-5.039-.16-.807 1.166-6.266-.347-8.255-1.514-1.988-4.307-3.71-5.327-1.928z" fill="#fff"/><path d="M7.487 104.459H7.46c-.24-.006-.426-.2-.406-.427l1.613-16.123 1.407.127-2.32 16.203c-.014.127-.134.22-.267.22zm8.3 0h-.026c-.24-.006-.427-.2-.407-.427l1.613-16.123 1.407.127-2.32 16.203c-.013.127-.133.22-.267.22zm15.588 0h.026c.24-.006.427-.2.407-.427l-1.613-16.123-1.407.127 2.313 16.21c.02.12.134.213.274.213zM7.94 85.62L6.407 72.153c-.2-1.942.447-3.844 3.247-3.99l4.92-.3c2.92-.12 4.234 2.308 4.6 4.177l2.92 14.802L7.94 85.62z" fill="#77A4E5"/><path d="M8.767 88.136h21.84c.44 0 .8-.36.8-.8v-.982c0-.44-.36-.8-.8-.8H7.968v1.781c0 .448.36.801.8.801z" fill="#77A4E5"/><path d="M8.587 88.136h12.9c.34 0 .62-.28.62-.62v-1.342c0-.34-.28-.62-.62-.62H7.967v1.962c0 .347.28.62.62.62zm33.967-43.417h-7.56a.638.638 0 01-.633-.634v-7.308c0-.347.286-.634.633-.634h7.56c.347 0 .634.287.634.634v7.308a.638.638 0 01-.634.634z" fill="#77A4E5"/><path d="M42.228 44.345H35.32a.574.574 0 01-.573-.574v-6.673c0-.32.26-.574.573-.574h6.907c.32 0 .573.26.573.574v6.673a.574.574 0 01-.573.574z" fill="#DFEBFD"/><path d="M38.774 37.478a.18.18 0 100-.36.18.18 0 000 .36zm1.293.08a.185.185 0 01.247-.073c.087.047.12.16.074.247a.185.185 0 01-.247.073.174.174 0 01-.074-.247zm1.26 1.008a.182.182 0 01.253.053c.053.087.033.2-.053.254a.183.183 0 01-.254-.054.189.189 0 01.054-.253zm.627 1.554c.1 0 .18.08.18.18a.18.18 0 01-.18.181.18.18 0 01-.18-.18c0-.1.08-.18.18-.18zm-.447 2.116a.18.18 0 100-.36.18.18 0 000 .36zm-1.02.841a.182.182 0 010 .26.181.181 0 01-.26 0 .181.181 0 010-.26.181.181 0 01.26 0zm-1.713.774a.18.18 0 100-.36.18.18 0 000 .36zm-1.3-6.293a.185.185 0 00-.247-.073.185.185 0 00-.073.247c.046.086.16.12.246.073a.174.174 0 00.074-.247zm-1.26 1.008a.182.182 0 00-.254.053.183.183 0 00.054.254c.086.053.2.033.253-.054a.182.182 0 00-.053-.253zm-.627 1.554c-.1 0-.18.08-.18.18 0 .101.08.181.18.181.1 0 .18-.08.18-.18 0-.1-.08-.18-.18-.18zm.446 2.116a.18.18 0 100-.36.18.18 0 000 .36zm1.021.841a.181.181 0 000 .26.181.181 0 00.26 0 .182.182 0 000-.26.181.181 0 00-.26 0zm1.673-2.776c0-.1.08-.18.18-.18.1 0 .18.08.18.18 0 .1-.08.18-.18.18-.1.007-.18-.08-.18-.18z" fill="#77A4E5"/><path d="M38.928 38.019h-.047v2.289h.047v-2.29z" fill="#77A4E5"/><path d="M40.051 39.285l-1.211.951.09.116 1.212-.952-.09-.115z" fill="#77A4E5"/></g><defs><clipPath id="clip0"><path fill="#fff" d="M0 0h194v105H0z"/></clipPath></defs></svg>