<svg width="219" height="137" fill="none" xmlns="http://www.w3.org/2000/svg"><path d="M26.437 123.855l58.323-.308 15.549-.007h5.153l15.576-.007 71.162-.021s16.274-21.084-1.109-41.106c-18.027-20.763-26.793-3.857-32.33-33.08C144.813-24.234 6.919 18.578 43.088 81.18c13.01 22.544-25.65 10.563-16.65 42.676z" fill="#EBF3FA"/><path d="M93.896 120.307s.219 2.568-.322 2.829l-6.933-.014s0-.801 1.116-.98c1.115-.178 3.073-.828 3.401-2.281.336-1.452 2.738.446 2.738.446zm19.901-.994s.205 3.555-.335 3.823l-6.933-.014s0-.802 1.115-.98c1.116-.178 3.073-.828 3.402-2.281.328-1.452 2.751-.548 2.751-.548z" fill="#233862"/><path d="M114.03 119.752s-1.376.712-1.964.835c-.657.144-1.882.055-1.882.055-2.362-6.329-9.671-32.05-9.671-32.05-.314 7.11-1.601 14.206-2.936 19.912a9.281 9.281 0 01-.11.452 8.71 8.71 0 00-.095.411c0 .007 0 .014-.007.021-1.615 6.726-3.237 11.309-3.237 11.309s-.417.527-1.588.288c-1.334-.281-1.779-.863-1.779-.863l1.348-42.868s11.573-6.26 14.721-.91c3.141 5.35 7.2 43.408 7.2 43.408z" fill="#2A4E96"/><path d="M109.363 80.042c-1.499-5.37-1.745-10.466-1.739-14.693.014-6.007.555-10.24-1.252-10.953 0 0-5.585-1.624-9.424-2.343-.609-.335-1.293-.692-1.807-.897-1.211-.493-5.94-7.378-6.74-9.022-.801-1.65-2.13-8.822-2.13-8.822l-1.84.589s-.554 8.055-.287 10.158c.266 2.103 6.118 11.132 6.604 11.92 2.087 7.623 0 20.035.951 22.803.493 1.425 9.581 4.035 14.557 3.706.246-.014.486-.041.711-.069 1.177-.164 2.033-.54 2.348-1.198.157-.33.178-.713.048-1.179z" fill="#AEC3FF"/><path d="M86.272 33.312s1.04-3.028.28-3.117c-.76-.09-2.675-.076-2.908.431-.233.514.787 3.275.787 3.275l1.84-.59z" fill="#FFB27D"/><path d="M66.445 40.853l-6.146-3.72a1.939 1.939 0 011.177-.87 1.9 1.9 0 011.444.22c.397.24.917.11 1.157-.288l1.663-2.753 1.437.87-1.663 2.753a.81.81 0 00-.096.637.857.857 0 00.384.521c.451.274.746.706.869 1.178.116.48.048 1-.226 1.452z" fill="#ED7D2B"/><path d="M66.445 40.853l-4.086-2.472c-.944-.788-.486-1.466-.007-1.583a1.9 1.9 0 011.445.22.844.844 0 001.156-.288l1.663-2.754.568.343-1.663 2.753a.81.81 0 00-.096.637.858.858 0 00.384.52c.451.275.746.706.869 1.18.11.472.04.992-.233 1.444z" fill="#F99746"/><path d="M84.43 22.913l-4.975 6.275c-1.731 2.863-4.722 4.233-7.582 4.35a9.38 9.38 0 01-2.827-.309c-.739-.198-1.588.199-2.053.966l-.096.165c-.287.48-.534.876-.534.876l-1.047-.637s.247-.404.534-.883c.513-.85.486-1.884-.075-2.507-2.396-2.679-3.292-7.118-1.006-10.906l3.367-7.247 16.295 9.857z" fill="#F99746"/><path d="M63.619 25.4c.404-2.35-.733-3.63-1.93-4.987-.965-1.082-1.958-2.206-2.17-3.877-.24-1.85.623-3.74 2.142-4.706 1.157-.733 2.43-.754 3.504-.069 1.52.98 2.088 2.87 1.636 5.48a15.341 15.341 0 01-1.081 3.508l-.958-.446c.027-.054 2.655-5.836-.171-7.651-.979-.63-1.903-.226-2.375.068-1.164.733-1.848 2.247-1.663 3.679.17 1.35 1.02 2.302 1.916 3.308 1.252 1.412 2.676 3.014 2.183 5.87L63.62 25.4z" fill="#ED7D2B"/><path d="M75.48 32.579c1.888-1.453 3.551-1.042 5.31-.603 1.41.35 2.86.712 4.435.123 1.752-.65 3.018-2.288 3.168-4.082.11-1.364-.465-2.508-1.567-3.138-1.574-.897-3.51-.514-5.605 1.096a15.563 15.563 0 00-2.6 2.583l.835.643c.04-.047 3.928-5.062 6.85-3.404 1.006.575 1.081 1.582 1.04 2.137-.11 1.37-1.129 2.679-2.484 3.179-1.273.472-2.512.164-3.819-.158-1.834-.452-3.914-.973-6.207.788l.643.836z" fill="#F99746"/><path d="M71.865 33.544a9.38 9.38 0 01-2.826-.308c-.74-.198-1.588.199-2.053.966l-.096.165c-.37.191-.644.424-.773.732l-.808-.486s.246-.404.534-.884c.513-.849.486-1.883-.076-2.507-2.395-2.678-3.291-7.117-1.005-10.905l3.367-7.247 2.696 1.63c0-.014-10.936 14.817 1.04 18.845z" fill="#ED7D2B"/><path d="M67.02 35.873l-2.683-1.623a.777.777 0 01-.26-1.062.776.776 0 011.061-.26l2.683 1.623c.363.22.479.7.26 1.062a.77.77 0 01-1.06.26z" fill="#F99746"/><path d="M67.841 26.852l.288-.48c1.361.74 1.54.651 2.1-.273l2.82-4.665c.397-.658.199-.85-.294-1.233l-.35-.302.26-.425c1.062.487 2.328.898 3.245 1.083l-3.97 6.569c-.574.952-.568 1.116.705 1.973l-.287.48-4.517-2.727z" fill="#fff"/><path d="M83.644 30.626s-.096 1.042.233 1.24c.335.199.451-1.24.451-1.24s.02 1.179.274 1.26c.253.083.41-1.355.41-1.355s.028 1.143.2 1.102c.17-.04.293-1.102.293-1.102s.076.828.315.678c.233-.151.459-1.035.459-1.035l-2.635.452zm2.628 2.686s.711-.562.869-1.07c.157-.513.616-1.369.376-1.472-.246-.102-.965 1-.965 1l-.28 1.542zm12.346 17.919l-.09.466s-.417 1.432 1.335 2c1.752.569 3.224.829 3.395-.301.014-.904-.014-2.309.116-3.035.048-.267.123-.548.233-.856l-3.456-.754-1.054-.034-.48 2.514z" fill="#FFB27D"/><path d="M99.104 48.71l-.322 1.7c3.285.87 4.722-.597 4.832-.905l-3.456-.754-1.054-.04z" fill="#E2915A"/><path d="M104.12 48.8c-1.019 2.068-3.818 1.205-4.996.726-.335-.138-.533-.24-.533-.24-.356-.213-.404-.884-.281-1.706.246-1.637 1.143-3.884 1.58-4.398.651-.78 1.678-1.534 4.319-.04 2.642 1.493 1.218 3-.089 5.657z" fill="#FFB27D"/><path d="M99.603 40.853s1.273.254 2.929.028c1.342-.185 2.69.815 3.107 1.205a.847.847 0 00-.034-.328s.178.219.151.445c.02.02.027.034.02.04 0 0 .26.028.404.145 0 0-.11-.048-.171.014-.007.006-.014.013-.021.013 1.615 1.425.958 4.425.165 4.939-.952.617-2.587 2.322-2.587 2.322s.054-.623.39-1.308c.335-.685-.288-.863-.986-1.411s.219-1.288-.315-2.035c-.533-.753-3.155-1.13-2.997-1.548-.856-.61-.082-2.425-.055-2.52z" fill="#233862"/><path d="M100.021 48.032s-.171.254-.856-.048c0 0-.575-.253-.438-.555 0 0 .65-.006 1.294.603z" fill="#fff"/><path d="M99.254 55.04S97.68 65.513 85.888 72.78l-1.102 3.2h4.257s10.56-8.865 11.272-20.64l-1.06-.301z" fill="#0F984E"/><path d="M99.254 55.04v-1.59l1.944.555-.89 1.336-1.054-.301z" fill="#01BA57"/><path d="M98.618 51.231l-1.136.973s-.315 1.356.451 2.836l2.293-1.316s-1.355-.65-1.608-2.493zm1.608 2.493s.226 1.234.822 1.843c0 0 2.58-.452 3.298-1.692l-1.081-1.692c.007 0-.253 1.158-3.039 1.541z" fill="#9DB0F4"/><path d="M115.699 80.871s.007 2.343-.212 2.809c-.219.465-1.184 1.986-1.629 2.308-.444.322.096-1.877-.041-2.281-.136-.404-.308.795-.52.843-.205.047-.26-1.007-.308-1.391-.048-.384.876-1.432 1.157-2.281.274-.85 1.553-.007 1.553-.007z" fill="#FFB27D"/><path d="M106.344 54.396s2.272.616 3.812 4.007c1.615 3.555 5.934 11.453 6.091 12.542.158 1.09-.287 11.269-.287 11.269s-1.889.075-2.478-.822c0 0-.657-8.933-.951-9.42-.294-.485-7.733-9.363-7.104-11.617.63-2.26.917-5.96.917-5.96z" fill="#AEC3FF"/><path d="M109.315 81.214c-.562.486-1.321.904-2.348 1.198a1.725 1.725 0 01-.711.069c-4.155-.432-3.518-16.598-1.506-17.79 2.121-1.26 2.874.651 2.874.651-.013 4.22.233 9.323 1.739 14.693.13.473.109.857-.048 1.179z" fill="#9DB0F4"/><path d="M97.372 109.367c.027-.123.062-.26.096-.411-.034.137-.069.274-.096.411zm.205-.863c1.273-6.028-.096-22.174.513-22.482.63-.315 2.423 2.569 2.423 2.569-.322 7.117-1.608 14.207-2.936 19.913z" fill="#233862"/><path d="M66.472 120.807l-.37-2.638 1.54-1.294.487 3.5-1.657.432z" fill="#FFB27D"/><path d="M71.585 123.17h-6.276s-.15-.959.178-1.685c.315-.699.801-1.131.849-1.665.397.411.89.678 1.8.555.11.178.718 1.144 1.088 1.411.404.302 2.238.192 2.361 1.384z" fill="#233862"/><path d="M70.326 85.118a318.51 318.51 0 00-1.02 9.33c-1.465 15.481-1.177 24.941-1.177 24.941s-.103.28-1.013.28a5.424 5.424 0 01-1.013-.109s-3.271-10.111-3.018-15.858c.027-.692.11-1.322.253-1.863.787-2.946-2.902-14.2 1.109-18.385 4.01-4.193 6.063.15 5.879 1.664z" fill="#01BA57"/><path d="M70.326 85.118a318.51 318.51 0 00-1.02 9.33l-6.221 9.254c.027-.692.11-1.322.253-1.863.787-2.946-2.902-14.2 1.109-18.385 4.01-4.193 6.063.15 5.879 1.664z" fill="#0F984E"/><path d="M75.267 53.58s-.15-.753-.322-1.328c-.075-.254.452-1.932.815-2.137.362-.206 1.314.924 1.04 1.787-.137.446-.363 1.891-.363 1.891l-1.17-.212z" fill="#FFB27D"/><path d="M75.267 53.58s-.199-.438-.376-.506c-.178-.069-.37-.788-.5-1.069 0 0 .123-.185.349.055.137.144.438.575.438.575l.089.946zM49.35 56.122c-.041.082-.09.22-.137.356v-.11c0-.267-.993-1.712-1.403-1.8-.41-.09-.986 1.266-.473 2.013.26.384.904 1.706.904 1.706l1.06-.548s.062-.48.213-.596c.15-.124.123-.863.164-1.172-.014 0-.192-.143-.328.151zm6.59 63.897c-.09-.85-.11-3.076-.11-3.076s2.273-.726 2.184-.226c-.411 2.452-.302 3.665-.302 3.665l-.917.548-.855-.911z" fill="#FFB27D"/><path d="M68.43 84.96s-8.767 24.051-10.492 34.483c0 0-.397.274-1.143.185-.848-.102-1.074-.691-1.074-.691s-1.588-12.502 1.56-16.845c2.163-2.98-.93-16.083 4.107-17.131 5.03-1.049 7.042 0 7.042 0z" fill="#01BA57"/><path d="M66.87 61.828c0-.007 0-.007 0 0 0-.014-.007-.02-.007-.034-.048-.212-.11-.418-.164-.63a15.166 15.166 0 00-.637-1.768 9.507 9.507 0 00-.479-.945c-.335-.569-.684-.966-1-1.082-.574-.22-1.21-.158-1.648-.069.095-.137.314-.212.314-.212-.28 0-.855.363-.855.363-4.038-.904-3.798 4.816-3.525 6.11.274 1.295-1.026 1.925-2.86 3.254-3.498 2.528-3.443 5.213-3.443 5.213a.595.595 0 01.103.048c.144-.35.438-1.007.753-1.144-.007.034-.26.883-.336 1.356a40.72 40.72 0 012.074 1.26c1.075.685 2.252 1.48 3.203 2.117-.048-.26-.09-.63-.02-.843l.3.939.041.123c.603.411 1.082.74 1.328.904.028.014.048.035.069.048l.11.076c-.083-.329.273-1.192.861-2.281a29.107 29.107 0 011.02-1.72 25.468 25.468 0 01.746-1.137c.472-.692.965-1.383 1.458-2.014.712-.918 1.41-1.719 1.998-2.24.02-.04.034-.082.055-.123a4.3 4.3 0 00.219-.692c.014-.075.034-.144.048-.219.144-.767.15-1.534.144-1.712.047.74.027 1.301-.02 1.726-.015.096-.021.178-.035.26a5.908 5.908 0 01-.103.452c.096-.116.178-.246.253-.39.048-.096.096-.192.13-.295.445-1.212.315-3.014-.095-4.699z" fill="#163560"/><path d="M66.117 67.616c.014.007-1.13.836-2.101.72-.91-.11-1.656-1.165-1.643-1.165.363-.13.39-.658.055-2.85l.171.007 2.909.137s.068.898.192 1.74c.102.699.24 1.363.417 1.411z" fill="#FFB27D"/><path d="M65.507 64.465s.069.898.192 1.74c-1.588.192-2.635-1.13-3.1-1.877l2.908.137z" fill="#ED975D"/><path d="M62.263 64.061s-1.02-1.185-1.389-2.274c-.26-.78-.294-3.802 2.744-3.816 0 0 .877-.04 1.773.384.712.343 1.786 1.144 1.122 3.884l-.143.911-4.107.911z" fill="#163560"/><path d="M70.688 84.502s-3.784 2.246-8.527 1.096c-.055-.014-3.908-.63-3.908-.63.069-.179.561-3.165.63-3.33.842-2.178 2.381-13.987 3.668-14.57.328.356 1.266.603 2.074.535.924-.083 1.232-.48 1.156-.911 1.027.486 1.814.931 1.814.931.93 1.404 3.093 16.879 3.093 16.879z" fill="#fff"/><path d="M66.15 65.178s-3.73.616-4.078-1.713c-.35-2.329-1.068-3.822 1.3-4.315 2.368-.493 2.964.329 3.272 1.075.307.754.472 4.734-.493 4.953z" fill="#FFB27D"/><path d="M65.07 58.842s-.616 2.883-2.129 3.527c-1.512.637-2.252.315-2.252.315s1.061-1.137 1.061-2.85c0 .008 2.355-2.178 3.32-.992z" fill="#163560"/><path d="M64.85 59.102s.856.493 1.13 1.062c.274.568.54 1.774.89 1.678 0 0 .492-1.973-.528-2.898-1.088-.972-1.491.158-1.491.158z" fill="#163560"/><path d="M76.465 53.636c-.15-.055-.377-.179-.664-.206-.26-.02-.589.062-.589.062s-1.054 6.548-1.129 6.89c-.075.35-4.51 5.344-5.708 5.33-1.081-.02-2.36.815-2.594.98 0 0 2.512 5.322 2.642 6.322.137 1.09 1.437 17.838 1.437 17.838s-.075.78 1.376.363c1.458-.418 1.82-.768 1.82-.768s-1.334-13.186-1.615-17.282a7.904 7.904 0 00-.253-1.528 1.533 1.533 0 01.253-1.315c1.841-2.528 4.743-6.617 4.907-7.487.22-1.302.117-9.2.117-9.2z" fill="#2B478B"/><path d="M61.175 123.17H54.9s-.15-.959.178-1.685c.314-.699.8-1.131.848-1.665.397.411.89.678 1.8.555.11.178.719 1.144 1.088 1.411.404.302 2.231.192 2.361 1.384z" fill="#233862"/><path d="M65.487 73.521c-.212-1.302-2.916-6.535-2.916-6.535s-1.71-.514-2.833-.103c-1.122.411-6.94-2.877-7.124-3.185-.185-.301-3.299-6.11-3.299-6.11s-.26-.15-.67.068c-.411.213-.411.63-.411.63s2.402 7.316 3.045 8.447c.383.685 3.627 3.055 6.146 4.836.479.342.732.918.65 1.5-.335 2.5-.424 3.911-.815 8.2-.321 3.561-.444 10.453-.444 10.453s2.813.972 4.756 1.102c1.944.13 2.368-1.918 2.368-1.918s1.766-16.042 1.547-17.385z" fill="#2B478B"/><path d="M64.933 64.027s.451.267.985.185c.37-.055.452-.493.452-.493s-.253-.083-.664 0a3.008 3.008 0 00-.773.308z" fill="#fff"/><path d="M137.566 63.54s1.157 1.912-1.02 3.117c0 0 1.677.603 2.259.377 0 0-.144.15-.254.206 0 0 1.575.5 2.355.226.787-.274 2.47-7.898-2.17-8.302 0 0-3.661-1.316-4.434 2.78-.774 4.097-2.184 3.693-2.184 3.693s.343.287.534.342c0 0 .301-.02.397-.144 0 0-.116.206-.205.26 0 0 1.485.562 2.395.247.91-.315 2.313-1.918 2.327-2.801z" fill="#163560"/><path d="M132.898 123.725h5.927s.144-.904-.164-1.589c-.294-.658-.76-1.062-.801-1.569-.376.39-.842.637-1.697.52-.103.172-.678 1.083-1.027 1.336-.39.281-2.114.185-2.238 1.302z" fill="#233862"/><path d="M137.799 121.464s-.506.165-1.033.213c-.931.082-1.068-.192-1.068-.192s-.924-8.261-3.928-24.058c-.431-2.28-.602-3.54-.76-5.569a112.26 112.26 0 01-.144-2.075c-.136-2.13.185-5.713 1.78-6.651.725-.432 1.711-.309 3.045.74.103.082.212.17.322.266 3.887 3.37 2.293 13.036 2.45 17.584.027.754.103 1.37.253 1.788.199.541.63 1.295.732 2.007.815 5.885-1.649 15.947-1.649 15.947z" fill="#2B478B"/><path d="M138.463 101.716l-7.453-9.864a112.26 112.26 0 01-.144-2.076c-.136-2.13.185-5.713 1.78-6.651l3.045.74c.103.082.213.17.322.267 3.887 3.363 2.293 13.035 2.45 17.584zm21.072 9.535l-2.464-5.391s-.883.246-1.376.815c-.472.541-.814.445-1.895-.301.403.63.458 1 .711 1.829.199.027 1.328 1.116 2.485 1.418.465.116 1.471 1.986 2.539 1.63z" fill="#233862"/><path d="M133.686 85.495s5.311 18.467 7.254 19.659c1.944 1.192 12.169 2.823 14.249 3.713 0 0 .253-.363.103-1.137-.035-.171-.329-.795-.329-.795s-6.351-4.781-10.532-5.26c-1.041-.117 2.114-15.975-4.9-16.612-6.392-.575-5.845.432-5.845.432z" fill="#2B478B"/><path d="M126.11 55.19s.144-.712.301-1.253c.068-.24-.424-1.822-.767-2.014-.342-.192-1.238.87-.985 1.685.13.418.342 1.788.342 1.788l1.109-.206z" fill="#FFB27D"/><path d="M126.11 55.19s.184-.41.356-.479c.171-.069.349-.74.472-1.014 0 0-.117-.178-.329.048-.13.137-.41.541-.41.541l-.089.904zm24.459 2.398c.035.075.089.212.13.336v-.103c0-.254.938-1.617 1.321-1.706.384-.082.931 1.192.445 1.904-.246.364-.848 1.61-.848 1.61l-1-.514s-.054-.452-.198-.561c-.144-.117-.116-.815-.158-1.103.007-.007.172-.144.308.137zm-15.823 10.843c-.013.007 1.068.788 1.985.679.862-.103 1.56-1.096 1.554-1.103-.343-.124-.37-.617-.055-2.692l-.164.007-2.745.13s-.061.85-.178 1.637c-.102.671-.232 1.294-.397 1.343z" fill="#FFB27D"/><path d="M135.321 65.452s-.061.85-.177 1.637c1.498.178 2.484-1.062 2.922-1.767l-2.745.13z" fill="#ED975D"/><path d="M138.381 65.075s.965-1.117 1.307-2.144c.246-.733.281-3.59-2.587-3.603 0 0-.828-.041-1.67.363-.671.322-1.683 1.082-1.061 3.665l.13.863 3.881.856z" fill="#163560"/><path d="M131.311 84.782s2.689 1.7 7.172.61c.055-.014 2.546-.41 2.546-.41-.062-.172-2.683-4.508-2.744-4.666-.794-2.055 1.047-11.857-.172-12.405-.307.336-1.197.569-1.95.5-.876-.075-1.163-.452-1.095-.863-.965.459-1.711.883-1.711.883-.883 1.33-2.046 16.352-2.046 16.352zm3.401-18.652s3.518.582 3.847-1.617c.328-2.199 1.006-3.603-1.225-4.069-2.231-.465-2.793.309-3.087 1.014-.287.706-.445 4.46.465 4.672z" fill="#FFB27D"/><path d="M135.732 60.15s.582 2.726 2.005 3.322c1.424.603 2.129.301 2.129.301s-.999-1.075-1.006-2.685c.007.007-2.218-2.055-3.128-.938z" fill="#163560"/><path d="M135.944 60.396s-.807.466-1.067 1c-.26.535-.507 1.672-.842 1.583 0 0-.465-1.863.5-2.733 1.026-.918 1.409.15 1.409.15z" fill="#163560"/><path d="M151.39 59.622s-2.265 6.905-2.874 7.967c-.363.644-4.448 3.192-6.823 4.87a.385.385 0 00-.089.11c-.596.918-2.43 6.59-1.992 7.603 1.848 4.282 3.121 5.933 3.58 7.131a1.142 1.142 0 01-.685 1.487 19.16 19.16 0 01-3.983.952c-3.648.466-6.111-.39-7.371-1.028a1.66 1.66 0 01-.91-1.582c.075-1.356.753-2.692 1.054-5.946.233-2.473-1.896-6.227-1.807-7.542.035-.52.445-1.144.664-1.548.39-.712.609-1.356.349-1.72-1.738-2.383-5.482-5.67-5.632-6.493-.226-1.206-.123-8.658-.123-8.658.143-.048.356-.172.629-.192.247-.02.555.055.555.055s.992 6.178 1.067 6.5c.076.33 4.257 5.042 5.386 5.028 1.02-.02 2.457.767 2.676.925 0 0-.917 1.623-1.143 3.809-.157 1.534.863.849 1.506-.2.869-1.417 2.621-3.445 2.621-3.445s1.424-.37 2.484.014c1.061.384 6.55-2.72 6.728-3 .178-.288 3.114-5.768 3.114-5.768s.246-.144.636.062c.383.219.383.61.383.61z" fill="#01BA57"/><path d="M135.732 64.938s-.15.301-.356.308c-.205.007-.718-.04-.752-.096-.035-.055-.124-.37-.124-.37s.856-.034 1.232.158z" fill="#fff"/><path d="M142.514 88.803c-.76.274-1.882.61-3.203.836-1.259-1.733-3.388-3.918-2.84-7.94.568-4.15 4.647-8.52 5.133-9.123-.596.918-2.43 6.59-1.992 7.603 1.848 4.281 3.121 5.932 3.579 7.131a1.147 1.147 0 01-.677 1.493zm-12.346-16.7c.39-.712.609-1.356.349-1.72-1.738-2.383-5.481-5.671-5.632-6.493.37.89 4.907 3.555 6.187 4.7 1.252 1.143-.856 3.458-.904 3.513z" fill="#0F984E"/><path d="M54.011 39.237s.849 1.164.76 2.493c-.069.987-.945 1.987-1.006 2.028l1.389.74s1.026-1.83.684-3.357c-.11-.466-.595-1.22-.958-1.548-.404-.37-.869-.356-.869-.356z" fill="#6BB7BF"/><path d="M51.177 39.36l-.876-1.945s4.1.137 5.462 3.48c-.007.006-2.875-2.042-4.586-1.535z" fill="#86D1CD"/><path d="M35.69 88.817s-.978-.74-1.232-1.842c-.184-.822.281-1.85.322-1.891l-1.307-.26s-.39 1.74.267 2.897c.198.356.787.843 1.163 1.028.41.191.787.068.787.068z" fill="#6BB7BF"/><path d="M37.97 88.016l1.19 1.363s-3.367.897-5.29-1.487c-.007 0 2.833.96 4.1.124z" fill="#86D1CD"/><path d="M185.555 95.167s-.089-1.28 2.32-1.904c1.074-.281 3.476.219 1.957 2.575-1.581 2.46-2.991 1.569-2.991 1.569s3.299-2.582 1.978-3.767c-1.458-1.302-2.019 1.28-2.019 1.28s-.588-.02-1.245.247z" fill="#F1A34F"/><path d="M186.403 97.564s-.896-.486-.54-1.568l1.293.226s-.5 1.171.719 1.315c0-.007-1.171.274-1.472.027z" fill="#DB7714"/><path d="M102.095 28.811s1.341-1.939 3.401-.569l1.252-1.198s-1.17-.89-3.873.705c-1.766 1.048-.78 1.062-.78 1.062z" fill="#5685D8"/><path d="M100.767 30.709s-.267-2.22 3.449-3.61c0 0-1.341.65-1.759 2.87l-1.69.74z" fill="#739AF0"/><path d="M115.7 18.927s1.102-.692 1.212-1.535c0 0 1.067.055 1.3.404 0 0-.493 1.39-1.068 1.651.007 0-1.293.082-1.444-.52zM80.352 98.154s-1.17-.74-1.294-1.638c0 0-1.143.062-1.39.432 0 0 .528 1.48 1.144 1.76 0 0 1.39.096 1.54-.554z" fill="#F99746"/><path d="M128.457 40.799s1.177-.747 1.3-1.644c0 0 1.143.061 1.396.431 0 0-.527 1.487-1.143 1.767-.007.007-1.403.096-1.553-.554z" fill="#86D1CD"/><path d="M151.363 74.912s-.678-.83-1.048-.946c-.362-.116-1.074-.664-1.163-.438-.089.226.479.575.445.836-.028.26-1.807.67-1.793.945.013.274.417.931 1.095.856.677-.075 2.395-.486 2.751-.308.349.185-.287-.945-.287-.945z" fill="#FFB27D"/><path d="M169.683 70.89a14.55 14.55 0 01-3.388 3.254c-3.839 2.672-8 3.07-8 3.07-.999-.323-4.058-.651-5.872-.946-.787-.13-1.341-.247-1.375-.35l.048-1.575s6.645-.35 7.747-.863c1.738-1.493 3.271-3.439 4.263-4.96.842-1.28 1.786-2.226 3.347-2.78 2.251-.809 6.351.965 3.23 5.15z" fill="#AEC3FF"/><path d="M166.638 73.151l-.336.993c-3.839 2.672-8 3.07-8 3.07-.801 0-4.058-.651-5.872-.946.069.007 4.928.383 6.002.274 1.081-.11 6.118-4.48 6.118-4.48l2.088 1.09z" fill="#9DB0F4"/><path d="M162.306 123.17h7.343c.527-.356-.143-3.85-.143-3.85s-2.006-.76-2.348.788c-.349 1.548-2.553 2.041-3.723 2.226-.801.13-1.054.569-1.129.836zm10.888 0h7.344c.527-.356-.144-3.85-.144-3.85s-2.005-.76-2.347.788c-.349 1.548-2.553 2.041-3.723 2.226-.801.13-1.054.569-1.13.836z" fill="#233862"/><path d="M164.277 87.55s.328 4.124.718 9.076c.527 6.734 1.951 23.413 1.951 23.413s.93.795 2.997.363c0 0 1.759-5.754 2.286-12.33.007-.109.014-.219.027-.322.486-6.685 1.253-20.776 1.253-20.776l-9.232.576z" fill="#2B478B"/><path d="M164.167 86.125s.445 5.549.828 10.501l7.227 11.453c.007-.109.014-.219.027-.322.486-6.685 1.253-20.776 1.253-20.776l-9.335-.856z" fill="#233862"/><path d="M166.275 86.125s5.242 13.063 6.919 18.016c1.191 3.527 4.565 15.905 4.565 15.905s1.465.445 2.696-.418c0 0 1.253-12.645-1.279-16.207-1.342-1.89-.336-19.66-5.777-19.81-5.447-.15-7.124 2.514-7.124 2.514z" fill="#2B478B"/><path d="M168.616 66.87c.801.424 1.581.445 2.258.301.623-.13 1.15-.404 1.533-.644.39-.246.616-.466.616-.466l-.075-.116c-.24-.404-.951-1.863-.637-4.2.007-.026-.225.015-.574.097-1.041.246-3.135.842-3.224.87h-.007s-.027.493-.109 1.377l-.021.24c-.013.102-.02.212-.034.328-.096.911.274 2.213.274 2.213z" fill="#FFB27D"/><path d="M168.396 64.082c1.554.356 3.874-1.939 3.874-1.939a2.583 2.583 0 00-.534-.301c-1.04.246-3.134.842-3.223.87h-.007s-.021.486-.11 1.37z" fill="#ED975D"/><path d="M167.87 62.582s.636.226 1.451.335c1.191.158 2.758.069 3.251-1.377.828-2.425 1.888-3.884-.555-4.877-1.307-.527-2.142-.561-2.71-.356-.493.178-.78.52-1.006.87-.465.753-1.417 4.98-.431 5.405z" fill="#FFB27D"/><path d="M166.391 57.376c1.41 1.013 3.367.02 3.97.287.609.267.718 1.288.725 1.61.014.322.055.596.876.404.137-.034.233-.02.301.02.342.206-.096 1.186-.226 1.398 0 0-.191.706.233 1.048.048.041.876.404 2.868-2.644.314-.48.609-1.555.13-2.596-.486-1.041-2.498-2.041-4.209-2.576-.644-.198-1.116-.191-1.485-.054-.623.226-.952.815-1.28 1.404-.554.986-1.903 1.699-1.903 1.699z" fill="#A9453D"/><path d="M175.473 87.043s-.684.15-1.547.294c-.841.144-1.861.281-2.586.275-3.682-.028-6.762-1.117-6.762-1.117-.691 0-1.006-1.076-1.122-2.569-.076-1.014-.062-2.22-.007-3.425l.061-1.157c.048-.76.103-1.487.158-2.124.048-.603.096-1.13.116-1.541 0 0-.096-2.87-.062-5.391.028-1.808 1.041-3.46 1.301-3.727.739-.78 2.874-1.274 3.298-1.342.035-.007.048-.007.048-.007 1.759.986 4.12-.35 4.12-.35.055.008.103.021.158.035.171-.034 1.95.226 2.361.452 1.02.555 1.615 6.74 1.615 6.74.171 4.2-.041 10.92.287 13.488.124.836-.698 1.295-1.437 1.466z" fill="#AEC3FF"/><path d="M172.647 64.897s-2.614 2.699-4.489 2.15c0 0-.247-.362.595-.479.842-.123 1.752-.075 3.894-1.671z" fill="#9DB0F4"/><path d="M167.849 61.02s-.048.315.678.561c0 0 .616.213.725-.11 0 0-.486-.465-1.403-.451z" fill="#fff"/><path d="M174.084 75.11s-3.798 6.364-5.954 7.48c-1.458.76-3.497 1.158-4.668 1.336-.075-1.014-.061-2.22-.006-3.425 1.546-.185 3.894-.486 3.894-.486l6.734-4.905z" fill="#9DB0F4"/><path d="M169.074 71.918l-2.026 7.316s-2.381.15-3.531.11c.048-.76.048-.781.103-1.425 0 0 2.737-1.432 5.454-6z" fill="#9DB0F4"/><path d="M156.879 79.775s-.678-.829-1.047-.945c-.363-.117-1.075-.665-1.164-.439-.089.226.479.576.445.836-.027.26-1.807.671-1.793.945.014.274.418.932 1.095.857.678-.076 2.395-.487 2.751-.309.349.178-.287-.945-.287-.945z" fill="#FFB27D"/><path d="M176.849 69.623s.116 3.877-8.705 11.652l-1.773-3.178c-.328-.192 5.701-13.166 7.432-13.063 3.354.199 3.046 4.59 3.046 4.59z" fill="#AEC3FF"/><path d="M167.425 77.72s-10.04 1.15-10.409 1.35c-.37.198-1.17.98-.903 1.952 0 0 5.194.65 8.055.644 2.463-.014 4.058-.404 4.058-.404l-.801-3.542z" fill="#AEC3FF"/></svg>