<svg width="272" height="118" fill="none" xmlns="http://www.w3.org/2000/svg"><g clip-path="url(#clip0)"><path d="M272 116.142H.327s-.232-2.236-.306-5.846c-.042-2.11-.02-4.682.127-7.547.01-.231.02-.473.042-.714.084-1.312.19-2.687.326-4.104.01-.126.021-.252.042-.378a87.32 87.32 0 01.6-4.597c.2-1.28.431-2.603.694-3.937.021-.094.043-.188.053-.283.137-.682.284-1.364.442-2.057.063-.273.126-.546.19-.808.126-.525.263-1.06.4-1.596a72.098 72.098 0 011.136-3.946l.126-.41a75.805 75.805 0 011.61-4.471c.221-.567.453-1.123.695-1.69 2.283-5.311 5.335-10.517 9.408-15.178 9.334-10.675 24.035-18.484 47.103-18.253 4.64.042 8.945-.073 12.975-.346H76c1.222-.084 2.421-.179 3.59-.284h.01c26.645-2.446 39.999-11.556 52.144-20.447l1.304-.955c4.241-3.117 8.398-6.182 12.976-8.88a69.871 69.871 0 013.609-2.005c7.588-3.925 16.575-6.77 28.982-7.389a30.482 30.482 0 013.536.021c.442.031.873.063 1.305.115 4.83.525 9.092 2.247 12.67 4.955 9.292 7.064 13.923 20.866 11.502 38.08-1.641 11.662 2.063 17.991 8.408 22.127 17.543 11.44 55.301 6.12 55.964 50.823z" fill="#F8FBFF"/><path d="M140.657 71.501V66.18h-1.252v-9.152h-6.714v9.153h-6.272V51.264h-6.924v9.678h-1.579V49.385h-6.924V71.06h-8.756v12.648h-3.273v-5.626H91.45v3.328h-4.315V66.505h-5.336v11.032h-5.324v40.41h69.528V71.501h-5.346zm75.148 18.306v28.141h-67.192V93.46h5.156v-6.676h5.146v9.027h4.168v-2.016h7.261v3.412h3.167v-7.663h8.461V76.403h6.693v7.011h1.526v-5.867h6.693v9.037h6.061v-5.552h6.483v5.552h1.21v3.223h5.167z" fill="#E7F1FB"/><path d="M77.158 78.775v39.036H15.901V83.845h4.694v-9.268h4.693v12.522h3.799v-2.803h6.63v4.734H38.6V78.408h7.714V60.186h6.093v9.72h1.39V61.76H59.9v12.544h5.524V66.61h5.915v7.694h1.105v4.471h4.714z" fill="#E7F1FB"/><path d="M149.612 7.431v110.265h-3.609V9.426a74.18 74.18 0 013.609-1.995zM79.589 39.718v77.978h-3.61V40.002l3.61-.284z" fill="#DEEDFF"/><path d="M133.027 18.306v8.575c0 1.081-.273 1.963-.61 1.963h-.084c-.337 0-.611-.882-.611-1.963v-7.62c.442-.315.874-.63 1.305-.955z" fill="#F99746"/><path d="M132.038 25.38c-4.746 0-8.598 4.062-8.598 9.069h17.206c-.01-5.007-3.862-9.069-8.608-9.069z" fill="#F99746"/><path d="M132.722 25.496a3.567 3.567 0 00-.758-.084c-3.094 0-5.609 4.051-5.609 9.047h1.516c0-4.586 2.115-8.376 4.851-8.963z" fill="#FFB278"/><path d="M183.445.178v24.635c0 .22 0 .43-.01.63-.042 1.92-.295 3.4-.6 3.4h-.084c-.284 0-.516-1.27-.59-2.99-.01-.137-.01-.284-.01-.43v-.032c0-.19-.011-.378-.011-.578V.063c.442.031.874.063 1.305.115z" fill="#F99746"/><path d="M182.456 25.38c-4.746 0-8.598 4.062-8.598 9.069h17.206c-.01-5.007-3.862-9.069-8.608-9.069z" fill="#F99746"/><path d="M183.14 25.496a3.56 3.56 0 00-.758-.084c-3.093 0-5.609 4.051-5.609 9.047h1.516c0-4.586 2.115-8.376 4.851-8.963z" fill="#FFB278"/><path d="M272 117.832h-56.195v.021h-19.69V5.133c9.303 7.158 13.934 21.16 11.513 38.647-1.642 11.84 2.063 18.264 8.408 22.462 17.543 11.62 55.301 6.204 55.964 51.59z" fill="#DEEDFF"/><path d="M237.294 104.512s-2.168-2.519-.137-4.125c0 0 1.484-.903 2.694-.83 0 0-1.715 2.877-1.157 3.16.557.284 1.683-3.338 1.683-3.338s3.378-.325 4.473.2c0 0-2.894 2.362-2.284 2.498.611.136 3.736-2.173 3.736-2.173s3.147.536 2.978 2.446c-.168 1.921-1.252 2.509-1.726 2.456-.473-.052-3.262-1.113-3.325-.724-.063.388 1.621 1.658 2.789 1.721 0 0-2.221 2.446-3.694 1.732-1.473-.703-1.6-1.826-2.526-2.236-.915-.42-1.705-.42-1.326.011.379.43 2.042.84 2.568 1.774.526.923 1 1.553-.526 1.322-1.526-.231-4.01-1.343-4.115-2.613l-.105-1.281z" fill="#82B378"/><path d="M247.733 102.402s-8.555-.325-10.439 2.11c0 0-.421 1.249-1.705 2.383l-.2.546s1.484-1.554 2.01-1.648c.011 0-.821-3.023 10.334-3.391z" fill="#82B378"/><path d="M235.6 106.905s-1.831 1.354-1.968 3.769l.337.031s.589-2.498 1.641-3.474c1.063-.987-.01-.326-.01-.326z" fill="#82B378"/><path d="M229.717 101.342s3.452-1.931 1.841-4.545c0 0-1.283-1.606-2.672-2.015 0 0 .736 3.905 0 3.989-.737.094-.506-4.409-.506-4.409s-3.63-1.742-5.061-1.606c0 0 2.252 3.81 1.515 3.716-.737-.094-3.262-3.947-3.262-3.947s-3.726-.692-4.325 1.512c-.6 2.204.368 3.306.915 3.443.547.136 4.094.094 3.999.545-.095.462-2.484 1.197-3.82.777 0 0 1.473 3.621 3.399 3.443 1.936-.179 2.526-1.375 3.725-1.47 1.2-.094 2.074.231 1.474.546-.6.326-2.621.105-3.589.924-.968.819-1.747 1.322.042 1.69 1.789.367 5.009.136 5.662-1.239l.663-1.354z" fill="#A8D29F"/><path d="M218.952 94.74s9.66 3.117 10.765 6.602c0 0-.042 1.564.916 3.349v.692s-1.011-2.34-1.568-2.666c.01 0 2.168-3.023-10.113-7.977zm11.681 9.951s1.494 2.256.641 5.006l-.378-.105s.368-3.023-.411-4.545c-.779-1.522.148-.356.148-.356z" fill="#82B378"/><path d="M235.199 98.687s-4.546-2.54-2.42-5.983c0 0 1.694-2.12 3.515-2.666 0 0-.968 5.143 0 5.258.968.126.663-5.804.663-5.804s4.788-2.299 6.672-2.12c0 0-2.968 5.017-2 4.901.968-.126 4.304-5.206 4.304-5.206s4.915-.902 5.704 1.995c.789 2.907-.484 4.356-1.21 4.534-.726.178-5.399.126-5.273.724.127.609 3.273 1.575 5.031 1.029 0 0-1.937 4.776-4.483 4.534-2.547-.241-3.336-1.816-4.915-1.931-1.578-.126-2.725.304-1.936.724.789.42 3.452.137 4.725 1.218 1.273 1.081 2.305 1.742-.063 2.225-2.368.483-6.609.178-7.461-1.637l-.853-1.795z" fill="#A8D29F"/><path d="M249.396 89.975s-12.734 4.114-14.186 8.712c0 0 .063 2.057-1.21 4.419v.902s1.336-3.086 2.063-3.505c-.011 0-2.863-4 13.333-10.528z" fill="#82B378"/><path d="M233.989 103.106s-1.968 2.97-.842 6.591l.506-.136s-.495-3.989.536-5.993c1.032-2.005-.2-.462-.2-.462z" fill="#82B378"/><path d="M235.052 117.549c4.925 0 8.903-3.978 8.903-8.891h-17.816c0 4.913 3.988 8.891 8.913 8.891z" fill="#F1A34F"/><path d="M237.241 117.475a9.615 9.615 0 01-1.105.063c-4.925 0-8.903-3.978-8.903-8.89h2.21a8.885 8.885 0 007.798 8.827z" fill="#FFB973"/><path d="M244.081 118h-18.058c0-.609.495-1.092 1.095-1.092h15.869c.6-.01 1.094.483 1.094 1.092z" fill="#F1A34F"/><path d="M244.166 108.658h-18.311v.273h18.311v-.273z" fill="#D86713"/><path d="M197.61 90.153c.158-3.915.515-7.326.926-9.699.663-3.789 1.263-5.961 1.273-5.982.084-.336 1.358-1.68 4.168-1.638 2.82.042 2.546 1.805 2.546 1.805a.61.61 0 01-.021.158c-.031.094-2.61 9.31-2.504 21.213 0 .168.021.451.01.65 0 0-6.524.169-6.524 0-.221-1.038-.116-3.914.126-6.507z" fill="#D1A586"/><path d="M196.789 95.958c0 .168.095.293.2.293.105 0 .2-.136.2-.293h5.588c0 .168.095.293.2.293.105 0 .2-.136.2-.304a82.583 82.583 0 01.463-9.394c.747-7.001 2.115-11.683 2.136-11.756a.613.613 0 00.021-.157s.263-1.764-2.546-1.806c-2.821-.042-4.083 1.302-4.168 1.638 0 .02-.347 1.249-.799 3.463a75.235 75.235 0 00-.474 2.52c-.421 2.372-.768 5.783-.926 9.698-.242 2.593-.326 4.765-.095 5.805z" fill="#E5BD9E"/><path d="M196.789 95.958c0 .168.095.293.2.293.105 0 .2-.136.2-.293h5.588c0 .168.095.293.2.293.105 0 .2-.136.2-.304a82.583 82.583 0 01.463-9.394c-.926-4.44-4.493-7.84-5.356-8.607a75.235 75.235 0 00-.474 2.519c-.421 2.372-.768 5.784-.926 9.699-.242 2.582-.326 4.754-.095 5.794z" fill="#DFB697"/><path d="M202.419 95.905l-.01-.01s-.011-.01-.011-.032a.16.16 0 00-.042-.115c-.179-.179-.852-.168-1.715-.158-.937.01-2.105.021-3.263-.178-.6-.105-.2-4.65.232-8.912.073-.724.126-1.29.158-1.626.273-3.622 1.883-10.045 1.894-10.098.074-.273 1.042-1.27 3.136-1.239.789.01 1.357.21 1.673.578.316.378.263.787.253.808 0 .042 0 .084-.021.126-.011.031-1.453 8.344-1.695 10.339-.389 3.285-.547 10.087-.547 10.475v.032l-.042.01zm-1.252-.388c.631 0 1.063.031 1.22.189 0-.158.011-.452.032-1.008.021-.65.053-1.669.095-2.813.084-2.005.221-4.765.431-6.518.242-2.047 1.684-10.329 1.695-10.35.01-.031.01-.073.01-.105 0-.01.053-.409-.242-.755-.305-.357-.852-.546-1.621-.557-2.062-.031-2.999.935-3.072 1.197-.022.063-1.621 6.455-1.895 10.087-.021.336-.084.903-.158 1.627-.284 2.834-.873 8.733-.284 8.838 1.158.2 2.315.189 3.252.178.2-.01.379-.01.537-.01z" fill="#D1A586"/><path d="M203.587 96.251h-21.92s.515-2.036 13.207-1.731c8.987.22 8.713 1.731 8.713 1.731z" fill="#E5BD9E"/><path d="M205.376 117.486c-2.546-12.659-1.883-20.426-1.883-20.531.01-.2-.358-.368-.558-.378-.2 0-1.073-.053-1.179.105-.136.22-.642 9.793 3.147 20.793h.473v.011zm-20.479 0c2.547-12.659 1.884-20.426 1.884-20.531-.01-.2.358-.368.558-.378.2 0 1.073-.053 1.178.105.137.22.642 9.793-3.146 20.793h-.474v.011z" fill="#D1A586"/><path d="M180.846 117.486c2.547-12.659 1.884-20.426 1.884-20.531-.011-.2.357-.368.557-.378.2 0 1.074-.053 1.179.105.137.22.642 9.793-3.147 20.793h-.473v.011zm20.436 0c-2.546-12.659-1.883-20.426-1.883-20.531.01-.2-.358-.368-.558-.378-.2 0-1.073-.053-1.179.105-.136.22-.642 9.793 3.147 20.793h.473v.011z" fill="#A0795F"/><path d="M181.646 96.902h21.93c.243 0 .442-.2.442-.44v-.284a.443.443 0 00-.442-.44h-21.93a.444.444 0 00-.442.44v.283c0 .242.2.441.442.441zm-67.014-7.127c.158-3.967.516-7.42.926-9.835.663-3.841 1.263-6.046 1.273-6.067.085-.336 1.358-1.7 4.168-1.658 2.82.042 2.546 1.837 2.546 1.837 0 .063-.01.115-.021.157-.031.095-2.609 9.436-2.504 21.507 0 .168.021.462.01.662 0 0-6.524.167-6.524 0-.221-1.06-.116-3.979.126-6.603z" fill="#D1A586"/><path d="M113.811 95.653c0 .168.095.305.2.305.106 0 .2-.137.2-.305h5.588c0 .168.095.305.2.305.106 0 .2-.137.2-.315a85.574 85.574 0 01.463-9.53c.747-7.107 2.116-11.851 2.137-11.914a.66.66 0 00.021-.158s.263-1.795-2.547-1.837c-2.82-.042-4.083 1.323-4.167 1.659 0 .02-.348 1.27-.8 3.516a78.333 78.333 0 00-.474 2.55c-.421 2.404-.768 5.858-.926 9.836-.242 2.634-.326 4.839-.095 5.888z" fill="#E5BD9E"/><path d="M113.811 95.653c0 .168.095.305.2.305.106 0 .2-.137.2-.305h5.588c0 .168.095.305.2.305.106 0 .2-.137.2-.315a85.574 85.574 0 01.463-9.53c-.926-4.504-4.493-7.957-5.356-8.734a78.333 78.333 0 00-.474 2.55c-.421 2.404-.768 5.858-.926 9.836-.242 2.634-.326 4.839-.095 5.888z" fill="#DFB697"/><path d="M119.441 95.6l-.01-.01s-.011-.01-.011-.031c0-.053-.01-.084-.042-.116-.179-.178-.852-.178-1.715-.168-.937.01-2.105.021-3.262-.178-.6-.105-.2-4.713.231-9.027.074-.735.126-1.312.158-1.658.274-3.653 1.884-10.182 1.894-10.234.074-.273 1.042-1.291 3.136-1.26.789.01 1.347.21 1.663.577.326.378.263.809.263.82 0 .041 0 .083-.021.125-.011.032-1.452 8.46-1.694 10.486-.39 3.327-.548 10.234-.548 10.612v.031l-.042.032zm-1.242-.388c.621 0 1.063.032 1.221.19 0-.158.011-.452.032-1.019.021-.661.052-1.69.094-2.855.085-2.036.221-4.828.432-6.613.242-2.067 1.684-10.464 1.694-10.496.011-.031.011-.073.011-.105 0-.01.052-.42-.253-.777-.305-.357-.842-.545-1.61-.556h-.095c-1.989 0-2.904.955-2.978 1.207-.021.063-1.62 6.55-1.894 10.224h-.032.032c-.021.346-.084.923-.158 1.658-.284 2.876-.873 8.859-.284 8.964 1.158.2 2.315.189 3.252.178h.536z" fill="#D1A586"/><path d="M120.609 95.958h-21.92s.516-2.058 13.207-1.753c8.987.22 8.713 1.753 8.713 1.753z" fill="#E5BD9E"/><path d="M122.399 117.486c-2.547-12.837-1.895-20.71-1.884-20.815.01-.2-.358-.378-.558-.388-.2 0-1.073-.063-1.178.115-.137.22-.642 9.93 3.146 21.088h.474zm-20.48 0c2.547-12.837 1.895-20.71 1.895-20.815-.011-.2.357-.378.557-.388.2 0 1.074-.063 1.179.115.137.22.642 9.93-3.146 21.088h-.485z" fill="#D1A586"/><path d="M97.868 117.486c2.536-12.837 1.884-20.71 1.884-20.815-.01-.2.358-.378.558-.388.2 0 1.073-.063 1.178.115.137.22.642 9.93-3.146 21.088h-.474zm20.447 0c-2.546-12.837-1.894-20.71-1.894-20.815.01-.2-.358-.378-.558-.388-.2 0-1.073-.063-1.178.115-.137.22-.642 9.93 3.146 21.088h.484z" fill="#A0795F"/><path d="M98.668 96.619h21.931c.242 0 .452-.2.452-.451v-.294c0-.242-.2-.452-.452-.452H98.668c-.242 0-.453.2-.453.452v.294c.01.251.21.45.453.45z" fill="#D1A586"/><path d="M128.933 79.363s1.81.735 3.105-1.113c0 0-2.094-.357-3.105 1.113zm-.126-.756s-.126-.65-.884-.672c0 0 .284.651.884.672zm.389-3.778s.874.094 1.21-.872c-.01 0-.957.105-1.21.872zm2.084-12.701c-1.768-.378-1.8-1.826-1.8-1.826 2.084.66 1.8 1.826 1.8 1.826zm.116-.325s1.105.45 1.894-.683c0 0-1.273-.21-1.894.683z" fill="#6BB7BF"/><path d="M128.975 83.603l-.231.263c-.032.042-.105.01-.105-.042.01-7.442.957-14.055 1.757-17.96.874-4.26 1.747-6.78 1.758-6.801-.011.021-.8 2.582-1.674 6.833-.8 3.905-1.705 9.016-1.473 17.603a.178.178 0 01-.032.105z" fill="#6BB7BF"/><path d="M132.143 58.055c-.284.231-1.368 1.197-.316 1.942 0 0 .8.252 1.074-.367.2-.473.263-.997.273-1.218a.114.114 0 00-.094-.115c-.064-.01-.148-.021-.232-.053-.095-.042-.147-.189-.284-.22a.724.724 0 00-.263-.032.215.215 0 00-.158.063z" fill="#F99746"/><path d="M131.543 59.724s.316.252.2.662v.146s.085-.377.474-.493c0 0-.358.042-.674-.315z" fill="#6BB7BF"/><path d="M131.28 62.128c-1.768-.378-1.8-1.826-1.8-1.826s1.4.776 1.8 1.826z" fill="#8AD8DB"/><path d="M129.576 61.141s-1.116.43-1.874-.713c-.01 0 1.274-.19 1.874.713z" fill="#6BB7BF"/><path d="M131.565 82.984l.221.263c.031.042.105.02.105-.032.137-7.442-.674-14.076-1.4-17.99-.779-4.273-1.61-6.813-1.62-6.834.01.021.747 2.603 1.536 6.865.716 3.925 1.526 9.048 1.126 17.634-.01.031.011.063.032.094z" fill="#6BB7BF"/><path d="M128.902 57.373c.274.231 1.336 1.218.274 1.942 0 0-.811.241-1.063-.389-.19-.472-.242-1.007-.253-1.227 0-.063.042-.105.105-.116.063 0 .148-.021.232-.042.105-.031.158-.189.284-.22a.765.765 0 01.274-.021.63.63 0 01.147.073z" fill="#F99746"/><path d="M129.47 59.053s-.326.251-.21.66v.148s-.074-.378-.474-.504c0 .01.358.052.684-.304zm.578.787s1.179.2 1.695-1.07c0 0-1.295.062-1.695 1.07z" fill="#6BB7BF"/><path d="M132.448 81.64l-.169.305c-.021.042-.094.032-.105-.01-1.61-7.264-2.136-13.93-2.21-17.907-.084-4.346.221-6.99.232-7.022 0 .02-.221 2.697-.137 7.032.074 3.989.305 9.174 2.41 17.498a.392.392 0 01-.021.105z" fill="#6BB7BF"/><path d="M129.954 56.019c-.232.283-1.073 1.459.116 1.963 0 0 .842.073.968-.588.095-.504.031-1.029 0-1.249-.011-.053-.063-.095-.116-.084a.847.847 0 01-.231 0c-.106-.021-.19-.147-.327-.157-.084 0-.179 0-.263.031-.063 0-.115.042-.147.084z" fill="#F99746"/><path d="M129.733 57.772s.368.178.347.609l.032.147s0-.389.357-.588c-.01 0-.347.115-.736-.168zm1.284.756s0-.934.8-1.218c0 0 .179.777-.8 1.218z" fill="#6BB7BF"/><path d="M129.134 57.037s.021-.714-.632-.913c0 0-.158.661.632.913zm2.157 4.262c.021.02.347-.693-.305-1.26 0 0-.274.766.305 1.26z" fill="#ED9F4A"/><path d="M131.743 61.246c-.021 0 0-.357.337-.41 0 .011.052.305-.337.41zm-3.367-1.206s-.284-.589-1.2-.484c.011 0 .147.63 1.2.483z" fill="#6BB7BF"/><path d="M133.417 84.475h-5.841a.65.65 0 01-.642-.735l2.715-18.694a.35.35 0 01.347-.305h.874c.189 0 .347.137.379.326l2.788 18.694a.626.626 0 01-.62.714z" fill="#01BA57"/><path d="M128.87 83.908l1.442-19.166a.346.346 0 00-.305.304l-2.715 18.694a.644.644 0 00.642.735h1.168a.67.67 0 01-.232-.567z" fill="#118949"/><path d="M186.171 82.428s-4.01 4.566-4.83 4.492c-.842-.073-1.347-.336-2.084 0-.526.242-2.178 1.575-1.736 1.48a24.384 24.384 0 011.462-.21c.295-.031.758-.031 1.084-.094.2-.032.926-.053 1.168-.063 1.053-.032 6.041-2.94 6.041-2.94l-1.105-2.665z" fill="#FFB27D"/><path d="M179.573 77.558c-.158-.095-.474-.064-.695-.011v-.325c0-.074 0-.147-.01-.21H175.5c-.011.073-.01.136-.01.21v.66a1.693 1.693 0 002.967 1.114s.8-.2 1.052-.494c.253-.304.337-.787.064-.944zm-.179.608c-.085.22-.463.336-.653.378.074-.168.127-.357.137-.556.116-.158.305-.252.432-.231.126.021.199.126.084.41z" fill="#C45446"/><path d="M175.763 77.211v.661c0 .935.768 1.69 1.694 1.69.074 0 .158-.01.232-.02a1.7 1.7 0 01-1.473-1.68V77.2c0-.074 0-.147.01-.21h-.452c-.011.084-.011.157-.011.22z" fill="#E37970"/><path d="M177.878 79.426h-1.389v.21h1.389v-.21z" fill="#C45446"/><path d="M188.949 59.241s.178-2.288 3.483-1.7c.873.158 1.473-1.396 2.904-.84 3.084 1.197 3.262-.378 4.157 1.827.368.923 2.747 2.005 2.02 3.6-.726 1.595.485 2.677-.368 3.926-.442.65-.263 1.805-2.336 1.847-1.031.02-2.652 1.931-3.81 2.278-1.157.346-4.651-.158-4.514-1.743.105-1.238-1.347-1.133-2.242-2.56-.778-1.25.611-1.565-.136-3.58-.537-1.46.884-1.816.842-3.055z" fill="#1C468A"/><path d="M170.775 115.659c.074.767-1 .955-2.242 1.018-1.241.063-.862.315-2.567.62-1.705.304-2.379-.158-2.505-.389-.105-.199.684-.524 1.526-.881.105-.042.211-.095.316-.137.947-.42 1.484-1.259 2.22-2.047.705-.745 1.368-3.127 1.368-3.127l2.305-.494s-.653 2.141-.874 3.065c-.136.535.064 1.144.232 1.596.095.252.189.503.221.776z" fill="#FFB27D"/><path d="M168.533 116.677c-1.241.063-.863.315-2.567.62-1.705.304-2.379-.158-2.505-.389-.105-.199.684-.524 1.526-.881l.011.01s1.199.41 2.578.032c1.126-.305 2.21-.977 2.988-1.186.095.251.19.503.211.776.063.767-1 .955-2.242 1.018z" fill="#C65447"/><path d="M191.222 86.616s-12.797.577-15.691 2.393c-2.894 1.816-7.524 23.008-7.524 23.008s.284.231.926.294c.589.063 1.905-.283 1.905-.283s6.661-9.479 7.124-11.872c.474-2.393.358-4.513 1.421-4.576 1.073-.053 14.385 1.616 16.395-1.921 2.021-3.537-4.556-7.043-4.556-7.043z" fill="#163560"/><path d="M176.047 115.743c.074.767-.999.955-2.241 1.018-1.242.063-.863.315-2.568.62-1.694.304-2.378-.158-2.504-.389-.106-.199.684-.524 1.526-.881.105-.042.21-.095.315-.137.947-.42 1.484-1.259 2.221-2.047.705-.745 1.368-3.127 1.368-3.127l2.304-.494s-.652 2.141-.873 3.065c-.137.535.063 1.144.231 1.596.106.252.2.514.221.776z" fill="#FFB27D"/><path d="M173.806 116.761c-1.242.063-.863.315-2.568.62-1.694.304-2.378-.158-2.504-.389-.106-.199.684-.524 1.525-.881l.011.01s1.2.41 2.578.032c1.126-.305 2.21-.976 2.989-1.186.095.252.189.503.21.776.074.767-.999.955-2.241 1.018z" fill="#C65447"/><path d="M196.179 86.92s-13.628.64-16.449 2.572c-2.82 1.931-6.619 23.281-6.619 23.281s.295.22.937.262c.6.042 1.894-.357 1.894-.357s6.282-9.73 6.661-12.133c.379-2.404.179-4.524 1.242-4.63 1.063-.094 14.438 1.05 16.311-2.56 1.874-3.611-3.977-6.435-3.977-6.435z" fill="#1C468A"/><path d="M200.261 69.549c0-.01-.01-.01-.021-.021a2.316 2.316 0 00-.379-.336c-1.115-.777-3.104-.945-3.104-.945s-.221-.02-.558-.031c-.263-.672-.557-1.67-.652-3.128l-.2.052-3.315.893s.147 1.05.21 2.046c.011.22.032.43.032.63-.095.032-2.157.325-2.61.808-.452.483-1.347 3.685-1.568 4.251l12.776.21c-.011-.01.315-3.337-.611-4.43z" fill="#FFB27D"/><path d="M200.735 92.326c-1.515.147-6.609-2.929-8.303-3.926-.032-.02-.063-.031-.084-.052-.705-.41-1.705-.609-2.652-.766-1.21-.2-2.326-.326-2.694-.756-.432-.514.831-1.081 1.841-1.67.506-.293.958-.597 1.095-.902.105-.241.095-.755.031-1.427-.01-.126-.031-.252-.042-.389a5.485 5.485 0 01-.305.525 7.672 7.672 0 01-1.084 1.26c-.484.451-.957.797-1.252.86-.2.053-.4.021-.6-.052-.526-.21-1.042-.787-1.452-1.354-.095-.137-.19-.263-.274-.389-.273-.42-.473-.766-.547-.85-.231-.252.916-.745 1.379-1.112.463-.368 2.294-7.579 2.294-7.579.231-.566 1.126-3.768 1.568-4.25 0 0 1.747 2.13 4.02 2.004 2.252-.115 6.114-2.288 6.177-2.32.2.084.4.357.4.357.926 1.092.6 4.42.6 4.42s-1.768 7.767-1.768 8.543c0 1.438 1.189 4.745 1.757 7.117.379 1.522.495 2.655-.105 2.708z" fill="#6BB7BF"/><path d="M192.032 66.022s.148 1.05.211 2.047c1.873-.179 2.757-1.953 3.104-2.929l-3.315.882z" fill="#F4A269"/><path d="M191.464 67.009s4.452-.22 4.273-2.992c-.179-2.76.273-4.66-2.579-4.629-2.851.021-3.335 1.113-3.504 2.058-.158.934.642 5.542 1.81 5.563z" fill="#FFB27D"/><path d="M191.275 60.364s1.063-.251 1.41.273c.347.515.095.809.873 1.019.779.22 1.042.199.968.745-.073.546.779.944.821 1.375.032.43.39.65.737.682.337.032.189-5.594-1.137-5.846-1.315-.252-2.599.042-2.978.356-.389.326-.694 1.396-.694 1.396z" fill="#1C468A"/><path d="M191.274 60.364s-1.031-.073-1.22.515c-.19.588.063.724-.2 1.081s-.116.987-.116.987-2.052-3.758.116-4.01c2.157-.23 2.104.2 1.42 1.428z" fill="#1C468A"/><path d="M189.927 81.567c-.294.882-.82 1.858-1.378 2.677-.484.451-.958.797-1.252.86-.2.053-.4.021-.6-.052-.526-.21-1.042-.787-1.452-1.354-.095-.137-.19-.262-.274-.388 1.41-1.134 4.094-3.727 4.378-7.274.379-4.84.589 5.752.578 5.531z" fill="#599DAD"/><path d="M186.686 85.041c.495-.755 1.495-1.49 2.936-2.078-.663.987-1.799 1.995-2.336 2.131-.2.052-.4.032-.6-.052zm11.776-9.321s-1.116 11.148-6.041 12.68c-.031-.02-.063-.031-.084-.052-.705-.41-1.705-.609-2.652-.766-1.21-.2-2.325-.326-2.694-.756-.431-.514.832-1.081 1.842-1.67.505-.293.957-.597 1.094-.902.106-.241.095-.755.032-1.427 4.799-1.753 8.503-7.106 8.503-7.106z" fill="#599DAD"/><path d="M199.714 72.425c-.515-2.32-2.851-.987-2.851-.987-.811-.189-6.767 9.436-7.241 9.657-.399.189-5.893-1.407-7.555-1.89-.432-.335-1.937-1.511-2.21-1.522-.305-.02-2.379.504-2.358.83.011.325.495.808 1.263.923.579.095 1.558.473 2.179.567 0 0 6.051 4.115 8.629 4.619 2.326.44 10.66-9.877 10.144-12.197z" fill="#FFB27D"/><path d="M185.992 80.287s-1.399 3.579.274 4.933c1.673 1.364 5.304.903 9.282-4.629 3.978-5.532 5.588-8.544 3.525-9.415-2.063-.882-3.767.504-4.83 2.655-1.105 2.236-3.126 5.332-4.346 5.448-1.211.115-3.905 1.008-3.905 1.008z" fill="#6BB7BF"/><path d="M150.991 46.667v.535s-.147 1.69 1.936 1.931c2.084.252 3.799.21 3.736-1.091-.189-1.008-.526-2.572-.537-3.412 0-.314.021-.64.074-1.007l-4.041-.084-1.189.189.021 2.939z" fill="#FFB27D"/><path d="M150.98 43.738l.01 2.918c.432.2.916.326 1.452.326 1.853 0 3.063-1.354 3.684-2.341 0-.315.021-.64.073-1.008l-4.041-.084-1.178.19z" fill="#E2915A"/><path d="M156.515 42.983c-.473 2.519-3.725 2.435-5.135 2.277-.4-.042-.642-.094-.642-.094-.442-.116-.695-.819-.81-1.743-.232-1.816.063-4.482.368-5.174.463-1.029 1.336-2.142 4.62-1.333 3.272.797 2.199 2.834 1.599 6.067z" fill="#FFB27D"/><path d="M159.178 117.486h-4.609c.031-.242.147-.977.368-1.648.074-.231.158-.462.263-.662.453-.892 3.294-.325 3.294-.325s.263.231.473 1.092c.095.378.169.881.211 1.543zm-13.933-1.449c-.011.63-.095 1.218-.316 1.449h-9.124c.116-.326.442-.83 1.379-.976 1.063-.168 2.725-.683 3.693-1.701.348-.367.6-.787.716-1.291.432-1.91 3.546.588 3.546.588s.127.997.106 1.931z" fill="#233862"/><path d="M151.306 95.433c-.126.703-.21 1.27-.231 1.68-.295 5.646-4.768 18.546-5.567 18.851-1.242.461-3.189-.525-4.21-.851-.421-.136-.705-.556-.61-.986 2.21-10.161 3.031-24.782 3.325-33.442.148-4.366.905-7.379.905-7.379s10.913-2.907 10.976.767c.063 3.243-3.609 15.996-4.588 21.36z" fill="#2B478B"/><path d="M151.306 95.433l-7.293-14.748c.148-4.366.905-7.379.905-7.379s10.913-2.907 10.976.767c.064 3.243-3.609 15.996-4.588 21.36z" fill="#233862"/><path d="M148.886 74.083l5.767 41.692s2.536.609 4.504.126c0 0 1.684-22.169 1.547-27.532-.137-5.364 1.21-14.349-.305-15.335-1.526-.998-11.513 1.05-11.513 1.05z" fill="#2B478B"/><path d="M149.296 35.855s1.442-.115 3.147-.85c1.378-.598 3.125.063 3.693.357a.771.771 0 00-.136-.336s.252.179.294.43c.021.022.042.032.032.043 0 0 .284-.053.473.031 0 0-.126-.02-.179.063 0 .01-.01.021-.021.021 2.158 1.04 2.358 4.44 1.663 5.217-.831.944-1.831 3.075-1.831 3.075s-.368-.504-.21-1.333c.147-.829-.569-.829-1.484-1.207-.905-.378-.148-1.438-.947-2.078-.8-.64-3.715-.263-3.684-.756-1.094-.399-.81-2.561-.81-2.676z" fill="#233862"/><path d="M157.168 48.776l-1.326 28.414s-11.082.179-10.766-2.32c.316-2.498 3.999-25.222 3.999-25.222l8.093-.872z" fill="#E9F3FE"/><path d="M161.125 64.878c-.663 1.973.578 8.597 1.031 10.832.095.473.158.756.158.756-1.537 2.488-7.156 2.456-7.156 2.456-1.084-4.765-1.642-12.354-1.642-12.354l4.315-18.852 5.43 5.007s-.411 3.055-.916 6.151c-.41 2.456-.863 4.965-1.22 6.004z" fill="#22407A"/><path d="M151.896 43.392s-.106.325-.927.21c0 0-.694-.095-.641-.462.01 0 .694-.21 1.568.252z" fill="#fff"/><path d="M145.666 49.175v.01c-.263.253-7.661 7.422-9.093 10.224-1.462 2.845 6.672 8.513 6.672 8.513s.527.21.884.126c-.379 3.149-.81 6.056-.557 7.295.463 2.236 2.536 2.991 2.536 2.823 0-.052.757-8.145 1.168-12.364.884-9.048 3.104-18.033 3.104-18.033-2.42.252-4.714 1.406-4.714 1.406zm-4.399 11.473c-.011-.01-.011-.032-.011-.042 0-.41 1.568-1.312 3.263-2.383l.031-.031c-.031.871-.031 1.732.021 2.519.095 1.48-.01 3.243-.189 5.038-.8-1.26-2.957-4.64-3.115-5.101z" fill="#22407A"/><path d="M157.484 47.685c.01-.273-1.274-.65-1.274-.65s-1.473 2.035-3.904 2.077c0 0 .695 1.344 1.505 1.69 0 0 3.588-1.511 3.673-3.117zm-5.178 1.375s-1.284-.756-1.295-1.585c0 0-.831-.105-1.189.294 0 0-.305 1.417.095 2.236 0 .01 1.852-.273 2.389-.945z" fill="#D9E9F9"/><path d="M153.18 48.944l-1.747-.42s-.232.022-.221.305c.01.283.494 1.113.705 1.176.21.063 1.673-.494 1.263-1.06z" fill="#BA4C43"/><path d="M157.273 47.548c.011-.273-.863-.829-.863-.829s-1.683 1.963-4.114 2.005c0 0 .694 1.344 1.504 1.69.011-.01 3.399-1.26 3.473-2.866z" fill="#E9F3FE"/><path d="M152.306 48.714s-1.305-.693-1.305-1.512c0 0-.789.346-1.147.745 0 0-.337.892.074 1.711-.011 0 1.841-.273 2.378-.944z" fill="#E9F3FE"/><path d="M148.896 68.32c.064.662.369 1.281.853 1.733l.768.713a.452.452 0 00.663-.052l.958-1.218c.252-.325.378-.734.336-1.144-.094-.913-.252-2.687-.389-4.387-.105-1.386-.2-2.73-.2-3.538-.021-2.613.495-10.926.495-10.926l-.632.031s-1.557 3.233-2.368 7.62a28.928 28.928 0 00-.431 3.422c0-.01-.326 4.745-.053 7.747z" fill="#C65447"/><path d="M148.896 68.32c.064.662.369 1.281.853 1.733l.768.713a.452.452 0 00.663-.052l.958-1.218c.252-.325.378-.734.336-1.144-.094-.913-.252-2.687-.389-4.387-1.736-1.942-2.431-4.63-2.705-6.812a28.93 28.93 0 00-.431 3.422c0-.011-.326 4.744-.053 7.746z" fill="#BA4C43"/><path d="M142.73 68.394c0-.724.642-1.301 1.357-1.196a.78.78 0 01.505.273c.495.66.969 2.56.085 2.655-.358.032-.811-.21-1.169-.483-.357-.273-.778-.692-.778-1.144v-.105z" fill="#FFB27D"/><path d="M162.145 75.72c-1.589-1.647-4.335-4.89-4.241-7.557.127-3.726 4.42-9.278 4.42-9.278-.4 2.456-.852 4.954-1.21 6.003-.653 1.963.589 8.587 1.031 10.833z" fill="#233862"/><path d="M162.104 69.223s-1.148.567-1.832.284c-.694-.284-1.504-.504-2.283.378-.779.881-.937 1.49-.779 1.816.169.325 1.968.199 2.273 0 .295-.2.779-.704 1.074-.62.831.242 1.525-.388 1.915-.892.231-.294-.4-.44-.368-.966z" fill="#FFB27D"/><path d="M157.82 47.716s4.546.504 5.62 2.478c1.073 1.973 6.65 9.982 6.472 13.309-.179 3.327-7.609 7.064-7.609 7.064s-1.642-.693-1.673-1.438c-.021-.745 5.135-5.206 4.82-6.035-.316-.83-5.999-7.41-6.546-9.584-.537-2.172-1.084-5.794-1.084-5.794z" fill="#22407A"/><path d="M144.55 58.181l-.032.032c-1.694 1.07-3.262 1.973-3.262 2.382-.231-.724 1.979-3.736 2.694-4.356.716-.619.6 1.942.6 1.942zm11.871-11.472s-3.452 14.432-2.905 19.859c0 0 1.274-5.805 4.325-10.57 0 0-1.115-.976-1.052-1.343 0 0 .831-.242 1.631-.084 0 0-.084-6.225-.589-6.876-.505-.64-1.41-.986-1.41-.986zm-5.42.493c.074-.042-3.42 14.097-3.715 18.61 0 0 .348-8.04.316-10.36 0 0 1.431-.755 1.431-1.018 0-.262-1.526-.987-1.526-.987s.969-4.954 1.495-5.5c.526-.546 1.999-.745 1.999-.745z" fill="#233862"/><path d="M106.066 109.697c.179.21.211.441.116.693-.168.462-.716.976-1.358 1.491-.084.063-.157.126-.221.178-.021.011-.031.031-.052.042-.011.01-.021.021-.042.031-.6.546-.369.672-1.442 1.795-1.221 1.27-2.073 1.291-2.305 1.176-.2-.095.211-.777.663-1.533.021-.031.042-.073.063-.115.064-.105.127-.199.179-.304.537-.914.4-1.344.274-2.698-.105-1.102-1.715-6.161-1.715-6.161l2.346-.399s.705 4.03 1.484 4.65c.421.325.884.336 1.284.577.032.021.053.032.084.053.232.167.463.325.642.524z" fill="#FFB27D"/><path d="M106.066 109.697c.179.21.211.441.116.693-.2.462-.747.976-1.357 1.48-.084.063-.148.126-.221.189-.021.011-.032.032-.053.042a.139.139 0 01-.042.032c-.6.545-.368.671-1.442 1.794-1.22 1.27-2.073 1.291-2.304 1.176-.2-.095.21-.777.663-1.532a5.122 5.122 0 002.178-1.606c.737-.935 1.231-2.142 1.736-2.845l.085.053c.231.167.463.325.641.524z" fill="#C65447"/><path d="M87.145 108.238c-.147.725-1.178.599-2.336.326-1.158-.284-.884.052-2.526-.126-1.641-.179-2.136-.787-2.189-1.039-.042-.221.769-.294 1.642-.389.105-.01.221-.021.326-.042.979-.126 1.705-.755 2.6-1.27.841-.493 2.104-2.498 2.104-2.498l2.252.179s-1.178 1.795-1.641 2.571c-.274.462-.253 1.06-.221 1.533.02.241.042.504-.01.755z" fill="#FFB27D"/><path d="M84.809 108.564c-1.158-.284-.884.052-2.526-.126-1.641-.179-2.136-.787-2.189-1.039-.042-.221.769-.294 1.642-.389l.01.021s.99.693 2.347.725c1.116.031 2.294-.294 3.063-.284a2.67 2.67 0 01-.021.766c-.137.725-1.169.609-2.326.326z" fill="#C65447"/><path d="M92.154 75.248s-.536-1.312-1.126-1.364c-.59-.053-2.473-.347-2.6-.084-.136.262 0 1.228.4 1.574.4.347 2.895.913 2.895.913l.431-1.039z" fill="#FFB27D"/><path d="M95.774 93.88l4.852 13.025s.747.074 1.463-.136c.662-.189 1.41-.682 1.41-.682s-1.2-12.512-3.41-15.115c-2.21-2.593-4.315 2.907-4.315 2.907z" fill="#AA413E"/><path d="M114.969 88.61s-13.943-4.702-17.058-3.705c-3.105.997-12.45 19.534-12.45 19.534s.21.283.79.493c.536.199 1.83.189 1.83.189s8.43-7.2 9.43-9.31c1-2.1 1.4-4.104 2.41-3.905.999.2 12.944 4.902 15.648 2.1 2.705-2.803 2-6.445 2-6.445l-2.6 1.05z" fill="#C65447"/><path d="M106.445 66.725c-.221-.462-.474-1.27-.589-2.729.021.147.273 1.974.978 3.013 2.905 1.9 8.461 8.24 8.345 9.446 0 0 1.958-3.316 1.989-3.327 0 0 3.61-4.576-.673-7.2-2.179-1.334-2.168-3.044-2.073-4.535.094-1.49-.59-7.883-4.957-6.214 0 0-.694-.315-1.01-.262 0 0 .252.052.389.178-.505-.031-1.231.01-1.831.347-1.589.913-3.02 9.037-.568 11.283z" fill="#B5453C"/><path d="M107.003 67.114c-.011.01 1.399.734 2.462.451 1-.273 1.652-1.564 1.642-1.574-.421-.084-.547-.662-.537-3.16l-.189.042-3.22.64s.073 1.008.073 1.963c0 .787-.052 1.554-.231 1.638z" fill="#FFB27D"/><path d="M107.161 63.503s.073 1.008.073 1.963c1.8-.053 2.757-1.69 3.147-2.603l-3.22.64z" fill="#ED975D"/><path d="M110.707 62.516s.947-1.49 1.168-2.76c.158-.913-.305-4.283-3.694-3.79 0 0-.989.095-1.915.725-.737.493-1.799 1.564-.61 4.513l.305.997 4.746.315z" fill="#B5453C"/><path d="M106.551 64.406s4.262.073 4.272-2.583c0-2.655.558-4.429-2.168-4.586-2.725-.158-3.251.85-3.472 1.742-.211.882.263 5.343 1.368 5.427z" fill="#FFB27D"/><path d="M106.708 57.174s1.168 3.107 2.957 3.568c1.789.462 2.568-.02 2.568-.02s-1.379-1.092-1.663-2.992c.011 0-2.978-2.036-3.862-.556z" fill="#B5453C"/><path d="M107.003 57.425s-.873.693-1.084 1.365c-.21.672-.305 2.068-.715 2.015 0 0-.884-2.11.105-3.306 1.052-1.26 1.694-.074 1.694-.074z" fill="#B5453C"/><path d="M118.242 88.684c-.232.64-.937.797-1.884.692-1.799-.21-4.483-1.417-6.409-2.256-2.946-1.27-4.283-.074-5.219-.882-.937-.808 1.073-2.614-.674-10.969-.589-2.834 3.147-8.911 3.147-8.911s.326 1.763 3.893-.357c.127-.073 1.537 2.005 2.894 4.566 1.495 2.824 2.926 6.245 2.505 7.998-.8 3.349 2.41 8.26 1.747 10.119z" fill="#699DEE"/><path d="M107.213 66.347l-2.21 9.017s-.273.483-.705 1.175c-1.01 1.627-2.873 4.398-4.072 4.671-.59.137-1.842-.346-3.23-1.05-2.621-1.322-5.726-3.4-5.726-3.4-.2-1.197.842-2.183.842-2.183s6.283 2.361 6.914 2.403c1.358.095 2.747-6.455 4.02-8.638.916-1.564 4.167-1.995 4.167-1.995z" fill="#699DEE"/><path d="M107.497 62.8s-.084.336-.915.283c0 0-.705-.042-.684-.41 0-.01.684-.272 1.599.127z" fill="#fff"/><path d="M118.242 88.684c-.232.64-.937.797-1.884.692-1.252-.545-6.64-2.624-6.577-4.04.095-2.09 1.042-2.153.368-4.735-.536-2.067 4.441-5.92 5.241-6.76 1.494 2.824 1.537 2.96 1.116 4.724-.811 3.349 2.399 8.26 1.736 10.119zM104.298 76.55c-1.01 1.627-2.873 4.398-4.072 4.67-.59.137-1.842-.346-3.231-1.049 1.01.262 2 .252 2.957.158 1.042-.105 1.336-1.365 2.978-3.265 1.052-1.238 1.316-.923 1.368-.514z" fill="#4A75CB"/><path d="M109.297 80.549s-.905-.703-1.757-.535c-.853.168-1.274.755-1.242 1.018.031.262.484 1.018 1.136 1.08.653.064 2.505-.398 2.505-.398l-.642-1.165z" fill="#FFB27D"/><path d="M111.107 65.99s3.472.21 4.683 1.89c1.694 2.362 4.64 11.976 3.83 14.18l-10.576-.041s-.253-1.197.105-1.774c.358-.578 6.157-1.512 6.42-1.774.263-.263-3.347-5.207-3.347-6.004 0-.808-1.115-6.477-1.115-6.477z" fill="#699DEE"/><path d="M108.392 84.485H95.574l-2.304-8.03h12.786l2.336 8.03z" fill="#1C468A"/><path d="M112.369 84.18H95.627v.316h16.742v-.315zm-12.722-3.84c-.084-.284.084-.515.368-.515s.579.23.663.514c.084.284-.084.514-.368.514s-.579-.23-.663-.514z" fill="#163560"/><path d="M68.14 66.263s1.4-1.144 1.905-1.144c.505-.01 1.462-.252 1.42-.094-.042.168-.842.378-.705.451.137.074 1.305-.241 1.631-.052.327.189 1.095.965.474 1.301-.62.336-2.462.882-2.947.819a35.725 35.725 0 00-1.557-.136l-.221-1.145zM50.26 108.7l1.179 4.933 1.757-.01.063-4.923H50.26zm14.796.21l3.336 4.724 1.305-1.669-2.01-3.706-2.63.651z" fill="#FFB27D"/><path d="M58.206 49.27v-.042a16.65 16.65 0 00-.505-2.823 9.406 9.406 0 00-.337-1.008c-.021-.042-.032-.095-.053-.137-.284-.692-.61-1.196-.947-1.385-.61-.347-1.336-.378-1.841-.357.126-.137.389-.179.389-.179-.316-.042-1.02.263-1.02.263-4.39-1.69-5.084 4.755-4.989 6.256.095 1.5-1.473 1.984-3.757 3.17-4.357 2.246-4.735 5.269-4.735 5.269.031.02.073.042.105.073.22-.367.663-1.05 1.042-1.154-.01.031-.442.944-.6 1.47a42.939 42.939 0 012.115 1.763c1.094.944 2.284 2.025 3.252 2.907-.01-.304 0-.724.116-.945l.178 1.102.022.147c.61.557 1.094 1.008 1.336 1.239l.063.063a.76.76 0 01.105.105c-.031-.388.505-1.291 1.358-2.414.063-.074.116-.158.179-.242.273-.357.568-.724.894-1.102.116-.136.232-.273.358-.41.095-.115.19-.22.295-.335.242-.273.484-.535.726-.808a40 40 0 011.978-2.016c.958-.913 1.873-1.69 2.62-2.183.032-.042.053-.084.085-.126a4.81 4.81 0 00.442-.976c.294-.84.42-1.69.452-1.9-.073.84-.19 1.47-.315 1.931-.032.106-.053.2-.085.284a2.82 2.82 0 01-.2.493 2.56 2.56 0 00.348-.399c.073-.094.137-.199.2-.304.747-1.291.905-3.327.726-5.29z" fill="#163560"/><path d="M56.385 55.63c.01.011-1.41.746-2.483.452-1.01-.273-1.663-1.575-1.652-1.585.431-.084.547-.672.536-3.18l.19.042 3.241.64s-.074 1.018-.074 1.973c.01.808.063 1.575.242 1.659z" fill="#FFB27D"/><path d="M52.723 44.945s1.6-1.7 3.61-.084c0-.01-1.168-.21-3.61.084z" fill="#E37970"/><path d="M56.237 51.999s-.073 1.018-.073 1.973c-1.82-.052-2.778-1.7-3.168-2.624l3.241.65z" fill="#ED975D"/><path d="M52.65 51.002s-.948-1.501-1.18-2.782c-.157-.913.306-4.314 3.726-3.82 0 0 .99.094 1.926.724.747.504 1.81 1.585.62 4.545l-.315.997-4.777.336z" fill="#163560"/><path d="M69.171 110.674l-1.715.052-1.863.052s-4.304-4.775-6.714-12.438a10.155 10.155 0 00-.178-.535c-1.316-3.842-4.063-8.66-5.504-13.026-.232-.693-.432-1.354-.621-1.973-.063-.2-.116-.389-.168-.588-1.063-3.684-1.369-6.099-1.653-8.691l10.419.084c-.01.01 1.673 17.655 7.997 37.063z" fill="#2B478B"/><path d="M59.7 67.649c-.02 4.944.726 7.064.726 7.064s-4.462 2.257-9.766.598c-.063-.02-4.388-1.007-4.388-1.007.084-.2.874-3.538.968-3.716 1.116-2.393 1.968-3.453 2.105-4.188.242-1.375.253-2.803.126-4.146-.326-3.558-1.283-6.508-1.283-6.508 1.441-.325 2.799-.903 4.304-1.47.347.43 1.4.882 2.315.861 1.052-.02 1.4-.472 1.347-.965a30.38 30.38 0 012.02 1.217c.958 1.659 2.894 3.265 3.041 5.805.032.64-1.504 6.319-1.515 6.455z" fill="#E7F1FD"/><path d="M56.838 52.912s-4.294.074-4.304-2.603c0-2.666-.558-4.46 2.189-4.618 2.746-.158 3.273.86 3.494 1.752.22.893-.264 5.375-1.38 5.47z" fill="#FFB27D"/><path d="M56.68 45.628s-1.179 3.127-2.978 3.6c-1.81.462-2.589-.021-2.589-.021s1.39-1.102 1.673-3.013c0 0 3.01-2.057 3.894-.566z" fill="#163560"/><path d="M56.386 45.88s.873.703 1.094 1.375c.21.682.316 2.078.716 2.036 0 0 .884-2.13-.106-3.338-1.052-1.27-1.705-.074-1.705-.074z" fill="#163560"/><path d="M51.376 113.35s.137.976-.22 2.026c0 0-.285 1.312 1 1.333 1.294.021 1.61-.095 1.462-.903a276.51 276.51 0 00-.421-2.193l-1.82-.263z" fill="#FFB27D"/><path d="M53.796 117.486h-2.83c-.116-.578.136-1.816.178-2.058 0-.021.01-.031.01-.042v-.01c1.464 1.333 2.38-.032 2.38-.032v.011c.22.514.262 1.931.262 2.131z" fill="#C45446"/><path d="M72.813 115.943s-2.379-2.635-3.115-3.978l-1.768.902 3.956 3.705.927-.125v-.504z" fill="#FFB27D"/><path d="M74.328 117.486h-3c-.441 0-.788-.725-1.273-1.68-.189-.388-.631-.598-1.073-.714l.01 2.394h-.694l-.631-2.53c-.421-.777-.032-1.469.263-2.089.347 0 1.273.231 3.03 2.215.58.651 1.221.882 1.853.861.01.01.02.01.031.01 1.452.661 1.484 1.533 1.484 1.533z" fill="#C45446"/><path d="M67.445 110.726l-1.862.053s-4.304-4.776-6.714-12.439a10.51 10.51 0 00-.18-.535c-1.315-3.842-4.061-8.66-5.503-13.026-.231-.693-.431-1.354-.62-1.973-.064-.2-.117-.389-.17-.588l1.537-1.165s4.61 7.442 6.03 14.443c1.242 6.088 6.198 13.404 7.482 15.23z" fill="#233862"/><path d="M54.09 96.157c.032 3.4-.147 11.231-.589 14.475H51.85a63.46 63.46 0 01-1.368-.011c-1.115-5.637-1.904-10.297-2.483-14.306-.474-3.296-.895-6.12-1.221-8.555-.326-2.446-.558-4.503-.631-6.235l-.032-.798c0-.262-.01-.514 0-.755l8.998-.871c-.106 5.95-1.032 15.072-1.021 17.056z" fill="#2B478B"/><path d="M51.86 110.632c-.916 0-1.368-.011-1.368-.011-1.116-5.636-1.905-10.297-2.484-14.306-.473-3.296-.894-6.12-1.22-8.555-.327-2.446-.558-4.503-.632-6.235l3.304 1.942s-2.104.745-1.304 6.36c.8 5.606 2.578 20.007 3.704 20.805z" fill="#233862"/><path d="M52.28 81.462s-.63 2.288-2.83 1.995c-2.189-.294-5.314-1.606-5.314-1.606s.936-2.95 2.104-6.834c1.41-4.702 1.758-11.304 2.59-15.125.23-1.07 1.788-1.417 1.84-2.057l1.821-3.516s2.715 6.077 2.863 7.61c.147 1.521-3.073 19.533-3.073 19.533z" fill="#01BA57"/><path d="M50.745 66.431c-.095 2.478-.969 6.707-4.462 8.565-.011.01-.032.01-.043.021 1.41-4.702 1.39-9.205 2.22-13.026 1.874-.388 2.337 3.076 2.285 4.44z" fill="#118949"/><path d="M73.444 64.94h-3.368c0 .022 0 .085-.01.169-.01.304-.032.903-.032.955.042.714.547 1.102 1.021 1.291h.01c.116.042.232.073.337.094a.941.941 0 00.232.032c.042 0 .094.01.126.01a1.704 1.704 0 001.705-1.69v-.66c-.01-.053-.01-.127-.021-.2z" fill="#C45446"/><path d="M73.17 64.94h-.452c.01.074.01.137.01.21v.662c0 .462-.189.882-.484 1.186a1.666 1.666 0 01-.526.357 1.83 1.83 0 01-.316.105.623.623 0 01-.147.021c.074.01.148.021.232.021.052 0 .094 0 .147-.01a1.63 1.63 0 00.547-.137 1.678 1.678 0 00.926-1.05c.053-.157.074-.325.074-.503v-.662c0-.052-.01-.126-.01-.2z" fill="#E37970"/><path d="M71.06 67.568h1.39v-.21h-1.39v.21z" fill="#C45446"/><path d="M46.914 71.931s1.568-.335 1.968.105c.4.452.632 1.155.232 1.407s-1.568-.43-1.99-.157c-.304.199-.4.703-.694.524-.305-.178-.62-1.322-.62-1.322l1.104-.556z" fill="#FFB27D"/><path d="M52.492 54.308s-4.23.189-5.241 1.123c-1.02.945-7.103 8.219-7.198 10.119-.105 1.91 5.335 7.326 5.335 7.326s1.505-.367 2.168-1.312c0 0-3.367-5.993-3.168-6.256.2-.262 5.915-4.923 6.378-3.894.389.903 1.726-7.106 1.726-7.106zm16.09 11.336s-4.83 1.606-5.43 1.47c-.6-.137-1.463-6.655-1.936-8.901-.6-2.876-2.884-3.453-2.884-3.453l-2.168-.578s2.484 6.13 2.557 7.369c.074 1.238.295 20.268.295 20.268s-.147.871 1.537.514c1.683-.367 2.115-.724 2.115-.724s-.726-5.322-1.074-10.045c1.716-.294 7.22-3.075 7.22-3.075.852-1.344-.232-2.845-.232-2.845z" fill="#01BA57"/><path d="M82.072 86.196l-.884 4.965-2.43 13.729-2.168 12.27a.395.395 0 01-.39.326.284.284 0 01-.284-.315l1.873-13.908 2-14.884.305-2.246 1.978.063zm9.619 0l-.884 4.965-2.43 13.729-2.169 12.27a.395.395 0 01-.389.326.284.284 0 01-.284-.315l1.873-13.908 2-14.884.305-2.246 1.978.063z" fill="#C69D7F"/><path d="M81.189 91.16c.115-2.13-1.4-2.78-1.4-2.78l.305-2.247 1.979.053-.884 4.975z" fill="#A0795F"/><path d="M165.009 117.486a.396.396 0 01-.389-.326l-1.926-10.905-2.778-15.671-.779-4.388 1.979-.052.347 2.55 2.41 17.886 1.431 10.601a.296.296 0 01-.295.305z" fill="#C69D7F"/><path d="M161.451 88.684c-1.284.567-1.547 1.9-1.547 1.9l-.779-4.388 1.979-.052.347 2.54z" fill="#A0795F"/><path d="M176.09 117.486a.396.396 0 01-.39-.326l-1.926-10.905-2.788-15.671-.779-4.388 1.978-.052.348 2.55 2.41 17.886 1.431 10.601a.288.288 0 01-.284.305z" fill="#C69D7F"/><path d="M172.533 88.684c-1.284.567-1.547 1.9-1.547 1.9l-.779-4.388 1.978-.052.348 2.54z" fill="#A0795F"/><path d="M175.816 87.917H72.717a1.709 1.709 0 01-1.704-1.7v-.042c0-.934.768-1.7 1.704-1.7h103.099c.936 0 1.704.766 1.704 1.7v.032a1.704 1.704 0 01-1.704 1.71z" fill="#E0B594"/><path d="M93.196 82.397c-.158-.094-.474-.063-.695-.01v-.326c0-.073 0-.147-.01-.21h-3.368c-.01.074-.01.137-.01.21v.662c0 .934.768 1.69 1.694 1.69.505 0 .958-.22 1.273-.578 0 0 .8-.2 1.053-.493.252-.294.337-.777.063-.945zm-.179.61c-.084.22-.463.335-.652.377a1.6 1.6 0 00.136-.556c.116-.158.305-.252.432-.231.126.031.2.136.084.41z" fill="#C45446"/><path d="M89.387 82.06v.662c0 .934.768 1.69 1.694 1.69.074 0 .158-.01.231-.021a1.7 1.7 0 01-1.473-1.68v-.661c0-.073 0-.147.01-.21h-.452c-.01.084-.01.147-.01.22z" fill="#E37970"/><path d="M91.502 84.265h-1.39v.21h1.39v-.21zm49.576-1.868c-.158-.094-.474-.063-.695-.01v-.326c0-.073 0-.147-.01-.21h-3.368c-.01.074-.01.137-.01.21v.662c0 .934.768 1.69 1.694 1.69.505 0 .958-.22 1.273-.578 0 0 .8-.2 1.053-.493.242-.294.326-.777.063-.945zm-.179.61c-.084.22-.463.335-.653.377.074-.168.127-.357.137-.556.116-.158.305-.252.432-.231.115.031.189.136.084.41z" fill="#C45446"/><path d="M137.258 82.06v.662c0 .934.768 1.69 1.694 1.69.074 0 .158-.01.232-.021a1.7 1.7 0 01-1.474-1.68v-.661c0-.073 0-.147.011-.21h-.453c0 .084-.01.147-.01.22z" fill="#E37970"/><path d="M139.373 84.265h-1.389v.21h1.389v-.21z" fill="#C45446"/><path d="M15.901 58.59v58.896H.327s-.232-2.289-.306-5.994c-.042-2.152-.02-4.786.127-7.725.01-.241.02-.483.042-.724.084-1.344.19-2.75.326-4.199.01-.126.021-.262.042-.388.158-1.512.347-3.086.6-4.713.2-1.312.431-2.656.694-4.02.021-.095.043-.19.053-.284a83.89 83.89 0 01.442-2.099c.063-.273.126-.556.19-.83.126-.545.263-1.09.4-1.636a77.956 77.956 0 011.136-4.042c.042-.136.084-.272.126-.42.19-.598.39-1.207.6-1.805a72.9 72.9 0 011.01-2.76c.221-.578.453-1.155.695-1.722 2.273-5.437 5.325-10.769 9.397-15.534z" fill="#DEEDFF"/></g><defs><clipPath id="clip0"><path fill="#fff" d="M0 0h272v118H0z"/></clipPath></defs></svg>