<svg width="259" height="116" fill="none" xmlns="http://www.w3.org/2000/svg"><g clip-path="url(#clip0)"><path d="M10.039 115.274s-25.327-54.944 4.47-80.252C59.92-3.54 104.04 54.297 124.56 27.378c33.949-44.531 145.001-33.102 111.026 22.266-17.829 29.051 41.818 24.708 17.501 66.347l-243.048-.717z" fill="#EBF3FA"/><path d="M149.976 93.53H124.72a1.737 1.737 0 01-1.735-1.733v-1.132h26.991v2.866z" fill="#77A4E5"/><path d="M137.096 114.24h-1.629l-.451-20.71h2.487l-.407 20.71z" fill="#94B0ED"/><path d="M144.178 114.24h-15.846v-1.425l8.073-.734 7.773.734v1.425z" fill="#94B0ED"/><path d="M126.792 114.018c0-.716.584-1.3 1.301-1.3s1.301.584 1.301 1.3c0 .717-.584 1.301-1.301 1.301a1.303 1.303 0 01-1.301-1.301zm15.845 0a1.303 1.303 0 012.603 0c0 .717-.585 1.301-1.302 1.301a1.303 1.303 0 01-1.301-1.301zm-.903-19.134h-10.95c-.655 0-1.187-.53-1.187-1.185v-.168h13.332v.168a1.2 1.2 0 01-1.195 1.185z" fill="#94B0ED"/><path d="M125.251 93.53a2.264 2.264 0 01-2.266-2.264V73.211c0-3.574 2.337-6.475 5.223-6.475h11.809c2.886 0 5.223 2.901 5.223 6.475v20.32h-19.989z" fill="#F99746"/><path d="M125.481 93.53a1.243 1.243 0 01-1.239-1.238V73.211c0-3.574 2.337-6.475 5.223-6.475h11.809c2.885 0 5.222 2.901 5.222 6.475v20.31h-21.015v.01z" fill="#CC6A27"/><path d="M152.853 93.53h-28.894a1.433 1.433 0 110-2.865h28.894a1.434 1.434 0 110 2.866z" fill="#F99746"/><path d="M153.729 33.04h-10.951a.91.91 0 01-.911-.91V21.566a.91.91 0 01.911-.911h10.951a.91.91 0 01.912.911v10.562a.911.911 0 01-.912.912z" fill="#C0D8FB"/><path d="M153.259 32.5h-10.003a.831.831 0 01-.832-.83v-9.643c0-.46.372-.832.832-.832h10.003c.461 0 .833.372.833.832v9.642a.837.837 0 01-.833.832z" fill="#DFEBFD"/><path d="M147.993 22.319a.26.26 0 01.265-.265.26.26 0 01.266.265.26.26 0 01-.266.265.266.266 0 01-.265-.265zm2.133.371a.272.272 0 01.363-.106c.124.071.177.23.106.363a.27.27 0 01-.362.106.266.266 0 01-.107-.363zm1.833 1.451a.26.26 0 01.363.08.26.26 0 01-.08.363.26.26 0 01-.363-.08.262.262 0 01.08-.363zm.902 2.247a.26.26 0 01.266.266.26.26 0 01-.266.265.26.26 0 01-.265-.265c0-.142.124-.266.265-.266zm-.46 2.61a.257.257 0 010 .371.257.257 0 01-.372 0 .257.257 0 010-.371.273.273 0 01.372 0zm-1.664 1.672a.257.257 0 010 .371.257.257 0 01-.372 0 .257.257 0 010-.371.257.257 0 01.372 0zm-2.744.858a.26.26 0 01.265-.266.26.26 0 01.266.266.26.26 0 01-.266.265.272.272 0 01-.265-.265zm-1.612-8.838a.272.272 0 00-.363-.106.271.271 0 00-.106.363c.071.124.23.177.363.106a.274.274 0 00.106-.363zm-1.831 1.451a.26.26 0 00-.363.08.26.26 0 00.079.363.26.26 0 00.363-.08.262.262 0 00-.079-.363zm-.904 2.247a.26.26 0 00-.265.266c0 .15.115.265.265.265a.26.26 0 00.266-.265c-.009-.142-.124-.266-.266-.266zm.461 2.61a.257.257 0 000 .371.257.257 0 00.372 0 .257.257 0 000-.371.273.273 0 00-.372 0zm1.664 1.672a.257.257 0 000 .371.257.257 0 00.372 0 .257.257 0 000-.371.257.257 0 00-.372 0zm2.416-4.016a.26.26 0 01.265-.266.26.26 0 01.266.265.26.26 0 01-.266.266.26.26 0 01-.265-.265z" fill="#B7D3F3"/><path d="M148.488 23.354h-.071v3.308h.071v-3.308z" fill="#B7D3F3"/><path d="M150.112 25.19l-1.755 1.377.131.167 1.755-1.376-.131-.167z" fill="#B7D3F3"/><path d="M169.495 115.832H158.74c-.514-.628-.806-3.6-.726-4.361.017-.151.212-.867.212-.867s3.975-1.672 4.479.575c.018.071.036.141.054.203.637 2.106 3.487 3.061 5.134 3.326 1.053.177 1.452.735 1.602 1.124z" fill="#1B3051"/><path d="M140.158 82.278c.39 0 14.73 2 17.713 5.352 1.488 1.672 5.392 23.611 5.392 23.611s-1.815 1.282-5.799.079c0 0-5.258-14.198-5.046-18.205.062-1.106-12.747-1.575-15.013-2.105-2.266-.531-5.081-1.84-3.86-4.017 1.222-2.185 6.613-4.715 6.613-4.715z" fill="#233862"/><path d="M162.324 115.832h-10.755c-.514-.628-.328-2.964-.248-3.715l.027-.239s3.673-2.937 4.178-.69c.018.07.035.141.053.203.637 2.106 3.488 3.061 5.134 3.326 1.071.168 1.47.726 1.611 1.115z" fill="#1E3C68"/><path d="M134.448 83.437c.39 0 17.519.85 20.502 4.538 1.487 1.84 1.709 23.142 1.709 23.142s-1.842 2.282-5.825.955c0 0-3.656-11.296-3.39-18.992.044-1.221-10.659-1.363-13.598-1.593-3.726-.292-4.674-6.546-3.452-8.952 1.213-2.397 4.054.902 4.054.902z" fill="#23417C"/><path d="M138.078 59.349l-.213.044a1.78 1.78 0 01-2.089-1.389l-.23-1.123a1.779 1.779 0 011.39-2.088l.212-.044a1.78 1.78 0 012.089 1.389l.23 1.123a1.771 1.771 0 01-1.389 2.088z" fill="#122544"/><path d="M145.78 83.207c-2.151 3.424-15.554 4.459-15.554 4.459-.23-.549-1.248-9.386-1.416-9.988-.434-1.521-.717-3.202-.903-4.847 0-.018-.009-.045-.009-.062-.31-2.858-.31-5.6-.265-7.245.026-.956.061-1.54.061-1.575.036-.018.062-.026.098-.044a35.873 35.873 0 012.337-.885h.009c.628-.212 1.23-.398 1.814-.557a26.21 26.21 0 012.851-.62 21.572 21.572 0 012.815-.256h.761c2.098.044 3.488.46 4.196.743.098.036.186.07.257.106.009 0 .018.01.026.01.08.035.142.061.186.088.009 0 .009.008.018.008.018.01.044.027.062.036l1.107 11.588 1.549 9.041z" fill="#D2E3FC"/><path d="M159.952 76.918c-1.531.707-10.649 1.309-11.526 1.052-.451-.132-2.328-1.787-4.222-3.821-1.788-1.929-3.594-4.193-4.205-5.821-1.248-3.353-.177-6.325-.177-6.325s2.328-.009 3.275.566c.947.575 6.374 10.553 7.1 10.819.726.265 9.312.752 10.295 1.22 0-.008.991 1.602-.54 2.31z" fill="#D2E3FC"/><path d="M137.715 61.985v.566s.159 1.76-2.018 2.026c-2.178.266-3.825-.681-3.763-2.043.195-1.053.408-1.778.425-2.654a5.562 5.562 0 00-.079-1.053l4.213-.088 1.24.203-.018 3.043z" fill="#EA9E6A"/><path d="M137.724 58.933l-.009 3.052a3.523 3.523 0 01-1.514.336c-1.939 0-3.859-3.113-3.921-3.503l5.444.115z" fill="#D88D59"/><path d="M137.981 60.41s-5.391 1.098-6.029-2.273c-.628-3.37-1.753-5.493 1.664-6.334 3.417-.84 4.329.319 4.816 1.39.478 1.07.929 6.846-.451 7.218z" fill="#EA9E6A"/><path d="M139.477 50.689s-1.505-.115-3.284-.885c-1.443-.62-3.258.07-3.851.38a.917.917 0 01.142-.353s-.266.185-.301.45c-.027.018-.036.036-.036.036s-.301-.053-.496.035c0 0 .133-.017.186.071.009.01.009.018.018.027-2.248 1.088-2.443 4.635-1.726 5.458.867.99 1.921 3.211 1.921 3.211s.38-.522.221-1.398c-.159-.867.593-.867 1.54-1.265.948-.398.16-1.504.983-2.176.832-.672 3.877-.283 3.833-.796 1.142-.416.85-2.68.85-2.795z" fill="#8E342E"/><path d="M129.721 84.41c-.256-1.742-.876-3.963-1.159-5.847-.239-1.566-.469-4.087-.646-5.732 0-.018-.009-.045-.009-.062.009.008.026.035.044.017.593-.725 2.222-1.512 4.187 1.363.39.575 2.001 4.104 1.948 4.82-.275 3.31-4.365 5.441-4.365 5.441z" fill="#B7D3F3"/><path d="M131.005 79.421c-.044-.257.009-.584.204-.99 0 0 .256-.16.584-.355.496-.283 1.186-.619 1.496-.566l.221.044c.735.177 2.444.7 2.7 1.009.213.257.505.575.7.858h-5.905z" fill="#EA9E6A"/><path d="M132.129 79.421h-14.411c-.036-.186-.045-.354.009-.487.433-1.088 1.265-2.874 2.239-4.785a124.32 124.32 0 012.222-4.22c1.018-1.84 1.956-3.38 2.505-4.007.434-.496.983-.911 1.549-1.256.487-.292.983-.531 1.443-.726.036-.017.062-.026.098-.044 1-.407 1.797-.584 1.797-.584s.009.451.009 1.159c0 2.035-.071 6.121-.726 7.121-.177.274-.514.699-.939 1.194-.008.018-.026.027-.035.045-.23.265-.478.557-.744.849a169.913 169.913 0 01-3.664 3.928h.026l4.046.053 1.239.017 2.567.036c.177.08.319.203.425.354.257.371.336.893.345 1.353z" fill="#D2E3FC"/><path d="M159.952 76.918c-1.532.707-10.649 1.309-11.526 1.052-.451-.132-2.328-1.787-4.222-3.821.097.008.956-1.424 4.904 2.017 0 0 1.035.46 3.842.203 2.806-.248 6.418-.345 7.002.549z" fill="#B7D3F3"/><path d="M133.519 59.349l-.212.044a1.78 1.78 0 01-2.09-1.389l-.23-1.123a1.78 1.78 0 011.39-2.088l.213-.044a1.78 1.78 0 012.089 1.389l.23 1.123a1.785 1.785 0 01-1.39 2.088z" fill="#122544"/><path d="M131.846 55.306c-.142-.256-.354-2.344.221-4.007.275-.805.726-1.265 1.293-1.575.203-.115.433-.168.664-.168l.566.01c-1.868.786-2.293 5.006-2.151 5.457-.009-.017-.009-.026-.018-.035l-.575.318zm5.444 4.397c-3.134 0-4.683-2.477-4.701-2.504l.284-.168-.142.089.142-.089c.017.027 1.478 2.345 4.417 2.345h.062v.327h-.062z" fill="#122544"/><path d="M133.014 58.252l-.106.018a.886.886 0 01-1.044-.69l-.115-.557a.886.886 0 01.69-1.044l.106-.018a.887.887 0 011.045.69l.115.557a.886.886 0 01-.691 1.044z" fill="#2B478B"/><path d="M137.68 59.809h-.292a.276.276 0 01-.275-.274c0-.15.124-.274.275-.274h.292c.15 0 .274.123.274.274-.009.15-.124.274-.274.274z" fill="#122544"/><path d="M238.888 103.129s-1.948-2.274-.124-3.716c0 0 1.337-.805 2.425-.743 0 0-1.54 2.592-1.044 2.849.496.256 1.514-3.008 1.514-3.008s3.045-.292 4.019.177c0 0-2.603 2.123-2.054 2.256.549.124 3.355-1.964 3.355-1.964s2.833.478 2.682 2.211c-.15 1.725-1.124 2.256-1.558 2.212-.425-.044-2.939-1-2.992-.655-.053.345 1.452 1.495 2.514 1.548 0 0-1.992 2.203-3.32 1.566-1.327-.637-1.442-1.645-2.266-2.017-.823-.38-1.531-.38-1.195.009.345.389 1.841.761 2.311 1.592.469.841.894 1.398-.478 1.195-1.372-.204-3.603-1.212-3.701-2.362-.097-1.15-.088-1.15-.088-1.15z" fill="#C8DBF4"/><path d="M248.271 101.227s-7.692-.292-9.392 1.902c0 0-.372 1.123-1.532 2.149l-.177.487s1.337-1.407 1.806-1.486c.009 0-.743-2.725 9.295-3.052z" fill="#C8DBF4"/><path d="M237.356 105.278s-1.646 1.221-1.761 3.397l.301.027s.531-2.256 1.478-3.132c.947-.884-.018-.292-.018-.292zm-5.293-5.007s3.098-1.733 1.655-4.095c0 0-1.16-1.451-2.399-1.823 0 0 .664 3.512 0 3.6-.664.08-.452-3.971-.452-3.971s-3.266-1.575-4.55-1.451c0 0 2.028 3.432 1.364 3.353-.664-.08-2.939-3.556-2.939-3.556s-3.355-.62-3.886 1.362c-.54 1.981.327 2.972.823 3.096.496.124 3.682.08 3.603.495-.08.416-2.231 1.08-3.435.7 0 0 1.328 3.264 3.063 3.095 1.735-.168 2.275-1.238 3.355-1.326 1.08-.08 1.859.203 1.328.495-.54.292-2.355.097-3.231.831-.868.735-1.576 1.195.044 1.522 1.611.327 4.506.124 5.09-1.115l.567-1.212z" fill="#C8DBF4"/><path d="M222.387 94.318s8.684 2.813 9.685 5.953c0 0-.045 1.407.823 3.017v.619s-.912-2.105-1.408-2.397c0 0 1.939-2.725-9.1-7.192z" fill="#C8DBF4"/><path d="M232.895 103.288s1.337 2.035.575 4.512l-.345-.089s.336-2.725-.363-4.096c-.708-1.38.133-.327.133-.327z" fill="#C8DBF4"/><path d="M237.002 97.874s-4.09-2.291-2.178-5.396c0 0 1.523-1.91 3.161-2.397 0 0-.877 4.635 0 4.741.876.106.602-5.228.602-5.228s4.311-2.07 6.001-1.91c0 0-2.673 4.52-1.797 4.414.877-.107 3.869-4.689 3.869-4.689s4.417-.814 5.125 1.796c.708 2.618-.434 3.928-1.089 4.087-.655.159-4.851.106-4.744.654.106.549 2.947 1.416 4.523.93 0 0-1.744 4.307-4.037 4.086-2.292-.22-3-1.636-4.417-1.743-1.416-.106-2.452.275-1.744.655s3.107.124 4.249 1.097c1.142.973 2.072 1.575-.053 2.008-2.124.434-5.94.159-6.71-1.468l-.761-1.637z" fill="#D4E4F8"/><path d="M249.758 90.028s-11.455 3.706-12.756 7.846c0 0 .053 1.849-1.089 3.981v.814s1.204-2.778 1.85-3.158c0 0-2.558-3.592 11.995-9.483z" fill="#D4E4F8"/><path d="M235.913 101.855s-1.77 2.68-.761 5.945l.451-.124s-.442-3.592.487-5.396c.929-1.805-.177-.425-.177-.425z" fill="#D4E4F8"/><path d="M236.861 114.868a8.007 8.007 0 008.011-8.006h-16.023a8.007 8.007 0 008.012 8.006z" fill="#D4E4F8"/><path d="M244.987 115.275h-16.244a.99.99 0 01.992-.991h14.27c.54.009.982.451.982.991z" fill="#D4E4F8"/><path d="M245.049 106.862h-16.465v.248h16.465v-.248z" fill="#9FC1F4"/><path d="M44.846 114.487c.062.867 1.283.876 2.673.717 1.39-.159 1.018.186 2.957.221 1.938.027 2.611-.61 2.708-.893.08-.248-.85-.452-1.85-.699-.124-.027-.248-.062-.38-.098-1.125-.283-1.877-1.132-2.842-1.866-.912-.699-2.09-3.22-2.09-3.22l-2.655-.124s1.116 2.265 1.54 3.238c.248.575.142 1.282.036 1.822-.062.292-.115.593-.097.902z" fill="#FFB27D"/><path d="M47.519 115.195c1.39-.159 1.018.186 2.956.221 1.94.027 2.612-.61 2.71-.893.079-.248-.85-.452-1.85-.699l-.01.018s-1.248.672-2.85.513c-1.302-.133-2.63-.673-3.532-.77-.053.292-.115.593-.089.902.053.867 1.275.876 2.665.708z" fill="#233862"/><path d="M26.521 114.664c.063.867 1.284.876 2.674.717 1.39-.159 1.018.194 2.957.221 1.938.026 2.611-.61 2.708-.885.089-.247-.85-.451-1.85-.699-.124-.026-.248-.061-.38-.097-1.125-.292-1.877-1.132-2.842-1.866-.912-.699 0-4.839 0-4.839l-2.921-.283s.141 3.485.141 5.069c0 .628-.292 1.229-.398 1.769-.053.292-.106.592-.088.893z" fill="#FFB27D"/><path d="M29.195 115.381c1.39-.159 1.017.194 2.956.221 1.939.026 2.612-.61 2.709-.885.089-.247-.85-.451-1.85-.698l-.009.017s-1.248.672-2.85.504c-1.302-.132-2.63-.681-3.532-.778-.063.292-.116.593-.089.902.062.867 1.284.876 2.665.717z" fill="#233862"/><path d="M35.037 43.16c.505-2.06-.23-3.025-.885-3.538-.31-.76-.664-1.31-1.027-1.513-.664-.38-1.46-.415-2.01-.389.142-.15.426-.203.426-.203-.346-.053-1.116.292-1.116.292-4.798-1.85-5.55 5.21-5.444 6.847.097 1.636.089 3.565-2.408 4.856-4.762 2.468 1.585 11.748 1.585 11.748-.124-1.327 5.993-8.316 9.18-10.403.779-1.141 1.053-3.158 1.07-3.318-.132 1.602-.407 2.495-.654 3.008 1.46-1.344 1.673-4.556 1.283-7.386z" fill="#A9453D"/><path d="M33.143 50.963c.017.009-1.54.814-2.71.495-1.097-.3-1.823-1.725-1.805-1.734.47-.088.602-.734.593-3.485l.213.044 3.54.7s-.08 1.114-.08 2.166c0 .885.054 1.725.249 1.814z" fill="#FFB27D"/><path d="M32.975 46.991s-.08 1.115-.08 2.167c-1.983-.053-3.036-1.866-3.461-2.866l3.54.699z" fill="#ED975D"/><path d="M47.395 110.047a.869.869 0 01-.788 1.132l-1.381.062-1.47.044a1.187 1.187 0 01-.947-.433c-1.168-1.434-4.771-6.21-6.949-13.155-.062-.194-.124-.389-.194-.592-1.443-4.202-4.435-9.475-6.011-14.252-.248-.76-.478-1.477-.682-2.15a29.59 29.59 0 00-.186-.636c-1.16-4.034-1.496-6.679-1.806-9.51l11.376.089s2.399 18.603 9.038 39.401z" fill="#2A4E96"/><path d="M36.772 64.117c-.026 5.414.797 7.732.797 7.732s-4.869 2.477-10.658.654c-.07-.017-1.594-8.934-1.443-9.748.266-1.504.274-3.061.142-4.53-.354-3.892-1.408-7.12-1.408-7.12 1.576-.363 3.054-.991 4.7-1.602.381.47 1.532.965 2.532.938 1.151-.027 1.532-.522 1.47-1.062a38.126 38.126 0 012.213 1.327c1.045 1.814 3.16 3.574 3.32 6.352.017.69-1.665 6.909-1.665 7.06z" fill="#D2E3FC"/><path d="M26.982 64.719c-.496.707-1.452 4.98-3.824 5.52 1.221-3.043 2.15-4.38 2.293-5.317.265-1.751.274-3.556.141-5.263a85.011 85.011 0 011.39-2.344c.062-.222 1.266-3.928 1.646-.62.39 3.309-1.088 7.236-1.646 8.024z" fill="#5F9AA8"/><path d="M35.046 50.317s1.69.911 2.4 1.822c.707.903 4.877 8.387 4.877 9.139 0 .751-4.232.256-4.232.256l-3.045-11.217z" fill="#01BA57"/><path d="M33.638 47.982s-4.691.08-4.7-2.84c0-2.92-.611-4.883 2.381-5.051 2.992-.177 3.576.938 3.815 1.92.248.964-.274 5.873-1.496 5.97z" fill="#FFB27D"/><path d="M33.461 40.011s-1.283 3.424-3.257 3.937c-1.974.504-2.824-.018-2.824-.018s1.514-1.203 1.823-3.3c0 0 3.293-2.246 4.258-.619z" fill="#A9453D"/><path d="M33.143 40.294s.956.761 1.195 1.513c.23.743.336 2.274.788 2.22 0 0 .965-2.326-.124-3.644-1.151-1.407-1.86-.089-1.86-.089z" fill="#A9453D"/><path d="M32.895 49.38s2.718 6.705 2.797 8.058c.08 1.354.319 22.186.319 22.186s-.16.956 1.673.558c1.833-.398 2.32-.796 2.32-.796S38.241 66.54 38.72 62.074c.478-4.468-3.674-11.757-3.674-11.757l-2.151-.938z" fill="#01BA57"/><path d="M45.226 111.241l-1.593.044a.906.906 0 01-.735-.336c-1.071-1.292-4.798-6.139-7.037-13.26-.062-.195-.124-.39-.195-.593-1.443-4.202-4.435-9.475-6.01-14.252a96.581 96.581 0 01-.682-2.15 29.41 29.41 0 00-.186-.636l1.673-1.274s5.028 8.139 6.586 15.8c1.363 6.661 6.78 14.666 8.18 16.657z" fill="#1E3D70"/><path d="M30.637 95.309c.027 3.52-.141 11.376-.566 15.215a.691.691 0 01-.69.619h-1.187c-.504 0-.876 0-1.124-.008a.463.463 0 01-.443-.372c-1.177-6.007-2.027-10.987-2.646-15.295-.514-3.61-.974-6.697-1.328-9.36-.354-2.68-.602-4.918-.69-6.82-.018-.3-.027-.592-.027-.867-.01-.283-.01-.557-.01-.822l9.827-.956c-.115 6.52-1.125 16.498-1.116 18.666z" fill="#2A4E96"/><path d="M28.194 111.144c-.451 0-.796 0-1.044-.009a.542.542 0 01-.531-.451c-1.169-5.972-2.01-10.934-2.63-15.225-.513-3.609-.973-6.696-1.327-9.36-.354-2.68-.602-4.918-.69-6.82l3.602 2.124s-2.302.813-1.425 6.953c.876 6.148 2.824 21.912 4.045 22.788z" fill="#1E3D70"/><path d="M28.655 79.226s-.69 2.504-3.09 2.185c-2.399-.318-5.798-1.751-5.798-1.751s1.027-3.229 2.293-7.484c1.54-5.14 3.452-11.765 4.346-15.95.257-1.167.425-2.15.487-2.848l1.992-3.857s2.965 6.643 3.125 8.324c.16 1.672-3.355 21.381-3.355 21.381z" fill="#01BA57"/><path d="M28.548 61.348c-.106 2.716-.743 7.98-6.444 10.802-.018.008-.027.017-.044.017 1.54-5.14 3.452-11.765 4.346-15.95 1.053 1.566 2.204 3.645 2.142 5.131z" fill="#10974F"/><path d="M26.265 57.589l2.62-8.077c-.009 0-3.31.982-4.975 1.822 0 0-1.036 1.336-1.682 4.432 0 0-.682 7.413.841 10.13 0 0 4.79.955 12.455-1.673v-1.751s-8.383.442-10.1.637l.84-5.52z" fill="#FFB27D"/><path d="M28.894 49.52s-4.86.346-6.037 2.947c-1.169 2.61-1.54 11.279-.053 13.835 0 0 2.054.584 5.683-.097l.133-.027s1.16-2.83.124-3.388c0 0-3.063.16-2.745-.849.32-1.017 2.895-12.42 2.895-12.42z" fill="#01BA57"/><path d="M41.084 63.551l-.142.46-7.976-2.477s-.106-.124-.053-.283c.062-.177.195-.177.195-.177l7.976 2.477z" fill="#A9453D"/><path d="M41.659 63.984l-.576-.433-.141.46.717-.026z" fill="#A9453D"/><path d="M35.524 62.472s1.806-1.115 2.567-.947c.762.168 2.691 1.575 1.762 1.876-.93.3-1.682-.018-2.045.203-.354.221-.62.62-2.293.62-1.655 0 .01-1.752.01-1.752z" fill="#FFB27D"/><path d="M34.86 72.326l8.295.01 3.187-12.05h-8.286l-3.196 12.04z" fill="#233862"/><path d="M38.41 59.455s-.637.106-.363.832h2.833l-.903-.832H38.41z" fill="#9DB0F4"/><path d="M38.41 59.455s1.248 0 1.682 1.009c.531 1.23.301 4.662.301 4.662h6.648s1.054-4.043-1.142-5.67H38.41z" fill="#fff"/><path d="M44.73 66.284s-1-.752-1.31-.318c-.31.434.24 2.636.894 2.477.647-.168.655-1.707.416-2.159z" fill="#FFB27D"/><path opacity=".5" d="M87.814 48.37c-.212-5.307 4.24-7.669 8.79-7.669 4.551 0 9.508 1.177 9.942 8.236.274 4.538-2.151 7.334-9.127 7.334-2.355 0-4.178-.372-5.586-1.035l-3.487 3.096 1.717-4.282c-1.514-1.406-2.151-3.388-2.249-5.68z" fill="#D2E3FC"/><path d="M192.148 44.08c.301-7.413-5.913-10.703-12.269-10.703s-13.27 1.645-13.872 11.5c-.389 6.342 2.992 10.235 12.73 10.235 3.284 0 5.833-.522 7.79-1.442l4.868 4.326-2.39-5.972c2.116-1.964 3.01-4.741 3.143-7.944z" fill="#D2E3FC"/><path d="M88.372 93.53H63.117a1.737 1.737 0 01-1.735-1.733v-1.132h26.99v2.866z" fill="#77A4E5"/><path d="M75.492 114.24h-1.629l-.451-20.71h2.487l-.407 20.71z" fill="#94B0ED"/><path d="M82.574 114.24H66.728v-1.425l8.074-.734 7.772.734v1.425z" fill="#94B0ED"/><path d="M65.188 114.018a1.302 1.302 0 012.602 0c0 .717-.583 1.301-1.3 1.301a1.303 1.303 0 01-1.302-1.301zm15.846 0a1.303 1.303 0 012.603 0c0 .717-.585 1.301-1.302 1.301a1.303 1.303 0 01-1.301-1.301zm-.904-19.134H69.18c-.655 0-1.186-.53-1.186-1.185v-.168h13.332v.168a1.2 1.2 0 01-1.195 1.185z" fill="#94B0ED"/><path d="M63.64 93.53a2.264 2.264 0 01-2.267-2.264V73.211c0-3.574 2.337-6.475 5.223-6.475h11.809c2.886 0 5.223 2.901 5.223 6.475v20.32H63.639z" fill="#F99746"/><path d="M63.878 93.53c-.682 0-1.24-.557-1.24-1.238V73.211c0-3.574 2.337-6.475 5.223-6.475h11.81c2.885 0 5.222 2.901 5.222 6.475v20.31H63.878v.01z" fill="#CC6A27"/><path d="M91.25 93.53H62.354a1.433 1.433 0 110-2.865H91.25a1.433 1.433 0 110 2.866z" fill="#F99746"/><path d="M99.013 113.576c-.089.832 1.071 1.044 2.417 1.133 1.345.079.938.353 2.77.707 1.842.354 2.585-.141 2.718-.389.124-.221-.735-.575-1.638-.973-.115-.053-.23-.097-.345-.15-1.027-.46-1.593-1.389-2.381-2.256-.753-.814-1.443-3.415-1.443-3.415l-2.496-.557s.681 2.335.911 3.335c.142.584-.08 1.238-.274 1.734a3.31 3.31 0 00-.24.831z" fill="#FFB27D"/><path d="M101.429 114.708c1.346.08.939.354 2.771.708 1.842.354 2.585-.141 2.718-.389.124-.221-.735-.575-1.638-.973l-.017.018s-1.302.424-2.789 0c-1.213-.345-2.39-1.089-3.222-1.327-.106.265-.213.548-.24.84-.088.823 1.072 1.044 2.417 1.123z" fill="#0F2549"/><path d="M95.233 84.658C93.888 83.71 85 82.03 80.46 81.544l-5.01-4.352s-4.267 6.316-4.303 11.155c-.017 2.256 1.027 2.477 1.027 2.477s16.076.115 16.784.194c1.15.115 2.673 2.99 3.054 5.609.38 2.618 7.082 13.251 7.082 13.251s1.399.452 2.045.407c.699-.044 1.018-.274 1.018-.274s-3.895-23.221-6.923-25.353z" fill="#233862"/><path d="M94.852 113.576c-.088.832 1.071 1.044 2.417 1.133 1.345.079.938.353 2.771.707 1.841.354 2.585-.141 2.717-.389.124-.221-.734-.575-1.637-.973-.115-.053-.231-.097-.346-.15-1.026-.46-1.593-1.389-2.38-2.256-.753-.814-1.444-3.415-1.444-3.415l-2.496-.557s.681 2.335.912 3.335c.141.584-.08 1.238-.275 1.734-.097.265-.203.539-.239.831z" fill="#FFB27D"/><path d="M97.27 114.708c1.345.08.938.354 2.77.708 1.841.354 2.585-.141 2.718-.389.124-.221-.735-.575-1.638-.973l-.018.018s-1.301.424-2.788 0c-1.213-.345-2.39-1.089-3.222-1.327-.107.265-.213.548-.24.84-.08.823 1.08 1.044 2.417 1.123z" fill="#233862"/><path d="M91.037 84.658c-1.169-.823-4.683-1.45-8.56-1.928a2.618 2.618 0 01-2.213-1.956l-9.02-3.582s-4.267 6.316-4.303 11.155c-.018 2.256 1.027 2.477 1.027 2.477s16.076.115 16.784.194c1.15.115 2.673 2.99 3.054 5.609.38 2.618 7.082 13.251 7.082 13.251s1.398.452 2.045.407c.699-.044 1.018-.274 1.018-.274s-3.886-23.221-6.914-25.353z" fill="#2B478B"/><path d="M78.98 54.908s-2.629 1.345-.717 4.229c0 0-2.257.256-2.824-.39 0 0 .089.284.186.425 0 0-2.186-.283-2.974-1.114-.788-.832 1.664-11.854 7.489-9.599 0 0 5.178.47 3.709 6.308-1.47 5.838.46 6.157.46 6.157s-.584.176-.84.132c0 0-.355-.212-.4-.433 0 0 .019.345.098.46 0 0-2.115-.15-3.027-1.115-.903-.946-1.664-3.883-1.16-5.06z" fill="#8E342E"/><path d="M82.734 57.792l-.212.027a1.723 1.723 0 01-1.94-1.469l-.15-1.097a1.722 1.722 0 011.47-1.937l.212-.027a1.723 1.723 0 011.94 1.469l.15 1.097a1.73 1.73 0 01-1.47 1.937z" fill="#ED7D2B"/><path d="M83.327 66.612c-.788.601-1.284 2.786-2.55 3.149-4.745 1.354-7.285-4.273-8.117-7.015.637-.407 1.248-.522 1.602-.584.345-.062.708-.106 1.01-.133.512-.442 1.23-2.167 1.274-4.794l.23.053 3.833.84s-.115 1.212-.142 2.353c-.017.894-.053 1.106.018 1.212.301.053.646.814.646.814.071.062 1.257 1.814 2.196 4.105z" fill="#FFB27D"/><path d="M80.618 58.12s-.115 1.211-.142 2.352c-2.15-.106-3.248-2.096-3.691-3.193l3.833.84z" fill="#ED985F"/><path d="M100.11 77.98s-2.257.079-4.7.088h-.876c-1.992-.01-3.957-.08-4.79-.292-.814-.213-3.948-2.336-6.453-4.901-.195.46-.336.814-.345.84-.07.575-.195 1.16-.345 1.708-.01.035-.018.08-.027.115-.009.026-.009.062-.018.097-.008.026-.008.062-.017.088-.266 1.646.549 4.15.788 5.423.08.407.097.681 0 .77-4.081 3.865-11.747 2.99-15.111 2.37a1.234 1.234 0 01-.877-1.778c1.293-2.565 3.727-8.227 3.338-13.994-.018-.195 1.823-6.493 1.823-6.493s1.425-.248 3.08-.38c.16.14.479 4.29 2.541 4.528.337.036 2.488 3.327 2.488 3.327l.655-3.362-.77-4.458c.991.291 1.531.398 2.355.725a2.612 2.612 0 011.319 1.168c1.442 2.636 6.125 11.137 6.603 11.332.452.185 2.134.522 3.922.849 2.39.433 4.948.85 4.948.85l.469 1.38z" fill="#D2E3FC"/><path d="M81.255 59.27s-5.099-.098-4.984-3.274c.115-3.167-.469-5.316 2.789-5.387 3.257-.07 3.85 1.159 4.072 2.23.212 1.06-.55 6.369-1.877 6.43z" fill="#FFB27D"/><path d="M95.41 78.076h-.876c-1.992-.008-3.957-.08-4.79-.291-.814-.213-3.948-2.336-6.453-4.901 0 0 .531-2.026.753-2.362.23-.336 1.124 2.954 3.23 4.29 2.099 1.336 5.392 2.274 6.985 1.902 1.09-.265 1.195.699 1.151 1.362z" fill="#B7D3F3"/><path d="M80.255 57.5s.035.38.868.443c0 0 .699.053.734-.354 0-.01-.646-.39-1.602-.089z" fill="#fff"/><path d="M80.53 58.783c-2.895-.911-3.603-3.654-3.612-3.68l.31-.08-.15.036.15-.036c.009.027.681 2.592 3.4 3.46.017.008.034.008.052.017l-.088.3a.123.123 0 01-.062-.017z" fill="#122544"/><path d="M80.857 58.995l-.274-.088a.269.269 0 11.159-.513l.274.088a.269.269 0 01.177.336.262.262 0 01-.336.177z" fill="#ED7D2B"/><path d="M81.547 50.184s-1.301 3.866-3.266 4.52c-1.957.655-2.603-.123-2.603-.123s1.443-1.327 1.611-3.468c-.008 0 3.16-2.512 4.258-.929z" fill="#8E342E"/><path d="M79.104 51.325s2.656-.15 3.452.61c.576.55.558.832.602 1.558 0 0 1.16-1.796-.035-3.043-1.266-1.336-4.019.875-4.019.875z" fill="#8E342E"/><path d="M81.432 50.591s-.664 3.698-3.098 5.043c0 0 2.355-2.407 2.399-4.822.035-2.414.7-.22.7-.22z" fill="#8E342E"/><path d="M72.65 58.057c.789.832 2.975 1.115 2.975 1.115a2.063 2.063 0 01-.186-.424c1.124.91 3.886.247 3.886.247-2.204-.486-1.487-3.662-.743-3.795.434-2.397 1.301-5.378 1.708-6.714-.097-.018-.15-.018-.15-.018-5.825-2.264-8.268 8.767-7.49 9.59z" fill="#8E342E"/><path d="M77.44 57.474l-.212.026a1.723 1.723 0 01-1.939-1.468l-.15-1.097a1.722 1.722 0 011.47-1.938l.212-.026a1.723 1.723 0 011.938 1.468l.15 1.097a1.74 1.74 0 01-1.469 1.938z" fill="#ED7D2B"/><path d="M76.06 53.458c-.125-.23.31-2.053.955-3.468.31-.681 1.098-1.593 1.665-1.831.203-.089.469-.053.69 0 .16.035.61.247.61.247-1.85.575-3.452 4.441-3.337 4.84 0-.01-.008-.019-.008-.027l-.576.239z" fill="#ED7D2B"/><path d="M77.015 56.377l-.106.017a.858.858 0 01-.965-.734l-.08-.548a.857.857 0 01.735-.965l.106-.017a.858.858 0 01.965.734l.08.549a.862.862 0 01-.735.964z" fill="#F99746"/><path d="M89.382 76.148s2.186-.124 2.399-.009c.345.186 1.522.938 1.7 1.159.185.221.663 1.097.663 1.097s-.212.062-.3-.027c-.098-.088-.806-.84-.806-.84l.734 1.115s-.256-.01-.354-.124c-.097-.106-.788-.805-.788-.805l-.23-.044s.24.194.363.362c.133.168.213.354.213.354s-.213-.035-.275-.07a21.069 21.069 0 01-.681-.567l.327.442s-.221-.008-.292-.062c-.07-.053-.549-.486-.637-.486-.089 0-.7-.027-.956-.16-.266-.14-1.09-.46-1.09-.46l.01-.875z" fill="#FFB27D"/><path d="M75.882 61.03s-1.46.424-1.797.76c0 0 1.532 3.902 3.736 5.724l.593-.416v.947l2.204 1.442c0 .009-4.842-7.272-4.736-8.457zm7.445 20.125c-1.16-.451-5.037-2.017-6.595-3.477-1.744-1.636-5.356-7.528-5.356-7.528l6.32-1.548s2.603 3.804 3.347 4.52c.566.558 1.894.602 1.894.602l-.345 1.707-.026.115c-.01.027-.01.062-.018.098-.009.026-.009.062-.018.088-.257 1.645.558 4.149.797 5.423z" fill="#B7D3F3"/><path d="M80.494 61.676s.673 5.307.115 7.82c0 0 .903-1.655 1.027-1.964l-.15-.911.584.203s-.514-4.237-.983-4.98c-.47-.743-.637-.814-.637-.814l.044.646z" fill="#B7D3F3"/><path d="M100.11 77.98s-2.823.105-5.577.088c-.681-1.062.15-2.327.15-2.327 2.391.433 4.95.85 4.95.85l.477 1.388z" fill="#FFB27D"/><path d="M100.385 79.394h-10.42a.83.83 0 01.833-.831h9.587v.831z" fill="#10974F"/><path d="M116.47 68.054l-3.869 11.34H96.384l3.966-11.34h16.12z" fill="#10974F"/><path d="M116.47 68.054l-3.833 11.234-.036.106H96.623l3.966-11.34h15.881z" fill="#01BA57"/><path d="M108.016 73.618c-.098.433-.531.787-.965.787-.434 0-.708-.354-.602-.787.097-.433.531-.787.965-.787.434 0 .699.353.602.787z" fill="#FFC397"/><path d="M116.47 68.054l-3.833 11.234h-7.347l8.958-11.234h2.222z" fill="#10974F"/><path d="M89.382 77.033s-5.365.468-8.33.336v-2.91c1.938.539 8.33 1.689 8.33 1.689v.885z" fill="#FFB27D"/><path d="M74.093 61.79s-3.071.071-4.019 1.098c-.947 1.026.939 6.82.939 6.82s5.718 6.997 8.578 7.493c0 0 1.248.168 1.832.177 0 0-.575-1.663.496-2.707 0 0-1.222-.345-1.275-.496-.053-.15-6.55-12.384-6.55-12.384z" fill="#D2E3FC"/><path d="M55.885 115.929h-.027c-.168 0-.292-.239-.292-.539l.442-34.536 1.31-.274-1.115 34.818c-.009.301-.15.531-.318.531z" fill="#233862"/><path d="M53.432 81.492h76.254a.887.887 0 00.885-.885v-.31a.887.887 0 00-.885-.884H53.432a.887.887 0 00-.885.884v.31c0 .486.399.885.885.885zm170.539 34.437h.027c.168 0 .292-.239.292-.539l-.443-34.536-1.31-.274 1.116 34.818c.009.301.15.531.318.531z" fill="#233862"/><path d="M124.038 81.491h101.731c.566 0 1.026-.46 1.026-1.026v-.035c0-.567-.46-1.027-1.026-1.027H124.038c-.566 0-1.027.46-1.027 1.026v.036c0 .566.461 1.026 1.027 1.026z" fill="#233862"/><path d="M151.746 79.394h-10.42a.83.83 0 01.833-.831h9.595v.831h-.008z" fill="#10974F"/><path d="M167.83 68.054l-3.868 11.34h-16.218l3.966-11.34h16.12z" fill="#10974F"/><path d="M167.83 68.054l-3.833 11.234-.035.106h-15.987l3.975-11.34h15.88z" fill="#01BA57"/><path d="M159.376 73.618c-.097.433-.531.787-.965.787-.434 0-.708-.354-.602-.787.098-.433.531-.787.965-.787.434 0 .699.353.602.787z" fill="#FFC397"/><path d="M167.83 68.054l-3.833 11.234h-7.347l8.958-11.234h2.222z" fill="#10974F"/><path d="M170.76 68.054l3.895 11.35 16.191-.01-3.974-11.34H170.76z" fill="#ED7D2B"/><path d="M171.221 68.301l3.744 10.987.036.106h15.606l-3.877-11.093h-15.509z" fill="#B0D4FF"/><path d="M174.655 79.403l22.618-.009a.831.831 0 00-.832-.831h-22.016l.23.84zm29.496-19.276h-.212a1.72 1.72 0 01-1.718-1.716v-1.105a1.72 1.72 0 011.718-1.717h.212c.947 0 1.718.77 1.718 1.717v1.105a1.73 1.73 0 01-1.718 1.716z" fill="#ED7D2B"/><path d="M195.078 111.922s-.23 3.556-.921 3.6c-.088.009-3.487 0-3.487 0l-4.338-.035s.027-1.044 1.301-1.265c1.266-.221 3.391-1.106 4.161-2.778.814-1.751 3.284.478 3.284.478z" fill="#0E2C4F"/><path d="M207.489 82.694c.168.142 4.585 4.927 4.222 8.599-.106 1.079-1.035 1.893-2.124 1.893h-5.382s-5.489.982-5.622 2.167c-.132 1.185-1.257 7.581-3.478 16.666 0 0-1.638.566-2.638.159-1.319-.53-1.505-1.097-1.505-1.097s1.328-20.337 2.372-21.77c1.045-1.433 11.844-5.688 15.341-6.113 3.497-.433-1.186-.504-1.186-.504z" fill="#163560"/><path d="M176.285 77.625s-3.125-.725-3.922 0c-.797.726-1.053 1.778-1.053 1.778h4.975v-1.778z" fill="#FFB27D"/><path d="M187.474 111.922s-.23 3.556-.921 3.6c-.088.009-3.488 0-3.488 0l-4.337-.035s.026-1.044 1.301-1.265c1.266-.221 3.39-1.106 4.161-2.778.814-1.751 3.284.478 3.284.478z" fill="#163560"/><path d="M211.57 82.694c.123.106 1.079 2.68 1.717 5.6a4.031 4.031 0 01-3.939 4.892H196.83s-5.488.982-5.621 2.167c-.133 1.185-1.257 7.581-3.479 16.666 0 0-1.646.434-2.93-.115-.681-.292-1.221-.991-1.221-.991s1.336-20.169 2.39-21.602c1.044-1.433 11.844-5.688 15.341-6.113 3.488-.433 10.26-.504 10.26-.504z" fill="#2B478B"/><path d="M204.63 64.506l-1.939 1.858h-3.302c0-.265.009-1.371.018-2.37v-.178c0-.22.008-.433.008-.637.009-.548.009-.955.009-.955l.85-.584 1.886-1.291 1.018-.7c0 .018.088.93.097 1.062.239 2.38 1.355 3.795 1.355 3.795z" fill="#FFB27D"/><path d="M199.841 64.179c.062-.026 3.629-1.628 4.045-1.486.416.141.938 1.415.938 1.415l-6.285 1.424c0-.017.496-1.017 1.302-1.353z" fill="#B7D3F3"/><path d="M215.278 74.865c-.681-4.193-3.549-7.325-4.78-8.501-.823-1.239-5.674-2.265-5.674-2.265l-6.285 1.425s-3.541.38-5.542 3.689c-1.239 2.043-4.771 6.714-7.099 6.855-2.328.142-9.623 1.557-9.623 1.557v1.796l11.128.3c.132 0 .274-.008.407-.035.956-.177 5.063-1 7.099-2.06.328 5.254.709 13.268 2.55 14.542 1.939 1.345 15.598 1.53 17.04-.522.744-1.052-.168-7.271-1.301-13.269 1.408-.663 2.364-1.76 2.08-3.512z" fill="#D2E3FC"/><path d="M202.664 61.463l-.168.106s-1.549 1.115-3.063 1.62c.009-.55.009-.956.009-.956l.85-.584 2.372-.186z" fill="#EAA16E"/><path d="M198.282 62.268s5.073.602 5.4-2.565c.328-3.167 1.204-5.22-2.027-5.733-3.231-.513-3.983.629-4.346 1.655s-.337 6.404.973 6.643z" fill="#FFB27D"/><path d="M197.442 55.297s.956 3.433 1.655 3.15c.69-.283 1.328-.522 1.416.548.089 1.07.496 2.327 2.753 2.097 2.258-.23 3.214-6.414 2.399-7.387-2.346-2.804-11.481-1.751-8.223 1.592z" fill="#163560"/><path d="M193.847 93.867h25.105c.957 0 1.727-.77 1.727-1.725v-1.124h-26.832v2.849z" fill="#77A4E5"/><path d="M190.838 93.867h18.997c.708 0 1.274-.575 1.274-1.274V92.3c0-.708-.575-1.274-1.274-1.274h-18.997c-.708 0-1.275.575-1.275 1.274v.292a1.28 1.28 0 001.275 1.274z" fill="#F99746"/><path d="M206.657 114.461h1.62l.451-20.594h-2.469l.398 20.594z" fill="#2B478B"/><path d="M199.62 114.461h15.748v-1.425l-8.029-.725-7.719.725v1.425z" fill="#2B478B"/><path d="M216.899 114.231a1.293 1.293 0 00-2.585 0c0 .716.585 1.291 1.293 1.291a1.287 1.287 0 001.292-1.291zm-15.748 0a1.294 1.294 0 00-2.585 0c0 .716.584 1.291 1.292 1.291a1.288 1.288 0 001.293-1.291zm-.974-19.02h14.624c.744 0 1.355-.601 1.355-1.353h-17.324c0 .752.601 1.353 1.345 1.353z" fill="#2B478B"/><path d="M218.2 93.867c.682 0 1.231-.549 1.231-1.23V73.671c0-3.556-2.329-6.431-5.197-6.431h-11.747c-2.868 0-5.196 2.884-5.196 6.431v20.196H218.2z" fill="#F99746"/><path d="M218.439 93.867a2.25 2.25 0 002.249-2.247V73.67c0-3.556-2.328-6.431-5.196-6.431h-11.747c-2.868 0-5.197 2.884-5.197 6.431v20.196h19.891z" fill="#CC6A27"/><path d="M196.476 62.33c2.895-.911 3.603-3.653 3.612-3.68l-.31-.08.151.036-.151-.035c-.009.026-.681 2.592-3.399 3.458-.018.01-.035.01-.053.018l.088.3a.125.125 0 00.062-.017z" fill="#122544"/><path d="M196.149 62.551l.274-.088a.268.268 0 10-.159-.513l-.274.088a.268.268 0 00-.177.337c.053.141.203.22.336.176zm3.992-1.291l-.212.026a1.718 1.718 0 01-1.939-1.468l-.15-1.097a1.722 1.722 0 011.469-1.937l.213-.027a1.723 1.723 0 011.938 1.468l.151 1.097a1.724 1.724 0 01-1.47 1.938z" fill="#ED7D2B"/><path d="M198.76 57.252c-.124-.23.31-2.052.956-3.467.31-.681 1.098-1.593 1.665-1.831.203-.089.469-.053.69 0 .16.035.611.291.611.291-1.85.576-3.452 4.388-3.337 4.786 0-.009-.009-.017-.009-.026l-.576.247z" fill="#ED7D2B"/><path d="M199.716 60.172l-.106.017a.858.858 0 01-.965-.734l-.079-.548a.857.857 0 01.734-.965l.107-.017a.857.857 0 01.964.734l.08.549a.867.867 0 01-.735.964z" fill="#F99746"/></g><defs><clipPath id="clip0"><path fill="#fff" d="M0 0h259v116H0z"/></clipPath></defs></svg>