<svg width="313" height="140" fill="none" xmlns="http://www.w3.org/2000/svg"><path d="M12.117 139.135s-30.566-66.31 5.395-96.856C72.32-4.26 125.569 65.543 150.333 33.054c40.973-53.745 175.001-39.95 133.996 26.873C262.812 94.988 334.8 89.747 305.451 140l-293.334-.865z" fill="#EBF3FA"/><path d="M181.007 112.893h-30.481a2.097 2.097 0 01-2.094-2.092v-1.367h32.575v3.459z" fill="#77A4E5"/><path d="M165.462 137.887h-1.966l-.545-24.994h3.002l-.491 24.994z" fill="#94B0ED"/><path d="M174.009 137.887h-19.124v-1.719l9.743-.886 9.381.886v1.719z" fill="#94B0ED"/><path d="M153.026 137.62c0-.865.705-1.57 1.57-1.57.866 0 1.571.705 1.571 1.57 0 .865-.705 1.569-1.571 1.569-.865 0-1.57-.704-1.57-1.569zm19.124 0c0-.865.705-1.57 1.57-1.57.866 0 1.571.705 1.571 1.57 0 .865-.705 1.569-1.571 1.569-.865 0-1.57-.704-1.57-1.569zm-1.091-23.093h-13.215a1.432 1.432 0 01-1.432-1.431v-.203h16.09v.203a1.448 1.448 0 01-1.443 1.431z" fill="#94B0ED"/><path d="M151.167 112.893a2.733 2.733 0 01-2.735-2.733V88.37c0-4.314 2.821-7.816 6.304-7.816h14.252c3.483 0 6.303 3.502 6.303 7.816v24.523h-24.124z" fill="#F99746"/><path d="M151.445 112.893a1.5 1.5 0 01-1.496-1.494v-23.03c0-4.313 2.821-7.815 6.304-7.815h14.252c3.483 0 6.303 3.502 6.303 7.816v24.513h-25.363v.01z" fill="#CC6A27"/><path d="M184.479 112.893h-34.872a1.73 1.73 0 110-3.459h34.872a1.73 1.73 0 110 3.459z" fill="#F99746"/><path d="M185.536 39.888h-13.215a1.099 1.099 0 01-1.101-1.1V26.041c0-.609.492-1.1 1.101-1.1h13.215c.609 0 1.101.491 1.101 1.1v12.747c.011.598-.492 1.1-1.101 1.1z" fill="#C0D8FB"/><path d="M184.97 39.237h-12.072a1.003 1.003 0 01-1.005-1.004V26.596c0-.555.449-1.004 1.005-1.004h12.072c.556 0 1.004.449 1.004 1.004v11.637a1.01 1.01 0 01-1.004 1.004z" fill="#DFEBFD"/><path d="M178.614 26.948c0-.181.139-.32.321-.32.181 0 .32.139.32.32 0 .182-.139.32-.32.32a.322.322 0 01-.321-.32zm2.574.448a.328.328 0 01.438-.128c.15.086.214.278.129.438a.328.328 0 01-.438.128.32.32 0 01-.129-.438zm2.212 1.752a.314.314 0 01.438.096.313.313 0 01-.096.437.314.314 0 01-.438-.096.316.316 0 01.096-.438zm1.09 2.712c.181 0 .32.138.32.32 0 .181-.139.32-.32.32a.315.315 0 01-.321-.32c0-.171.15-.32.321-.32zm-.556 3.149a.31.31 0 010 .448.31.31 0 01-.449 0 .31.31 0 010-.448.33.33 0 01.449 0zm-2.009 2.018a.31.31 0 010 .448.31.31 0 01-.448 0 .308.308 0 010-.448.309.309 0 01.448 0zm-3.311 1.035c0-.181.139-.32.32-.32.182 0 .321.139.321.32 0 .182-.139.32-.321.32a.328.328 0 01-.32-.32zm-1.945-10.666a.328.328 0 00-.438-.128.326.326 0 00-.128.438c.085.15.278.214.438.128a.331.331 0 00.128-.438zm-2.212 1.752a.314.314 0 00-.438.096.314.314 0 00.096.437c.15.096.342.054.439-.096a.315.315 0 00-.097-.438zm-1.089 2.712a.315.315 0 00-.321.32c0 .181.139.32.321.32.181 0 .32-.139.32-.32-.011-.171-.149-.32-.32-.32zm.556 3.149a.308.308 0 000 .448.31.31 0 00.448 0 .31.31 0 000-.448.329.329 0 00-.448 0zm2.008 2.018a.308.308 0 000 .448.31.31 0 00.448 0 .308.308 0 000-.448.309.309 0 00-.448 0zm2.916-4.847c0-.182.139-.32.321-.32.181 0 .32.138.32.32 0 .181-.139.32-.32.32a.315.315 0 01-.321-.32z" fill="#B7D3F3"/><path d="M179.212 28.197h-.086v3.993h.086v-3.993z" fill="#B7D3F3"/><path d="M181.171 30.414l-2.118 1.661.159.202 2.118-1.661-.159-.202z" fill="#B7D3F3"/><path d="M204.564 139.809h-12.981c-.619-.758-.972-4.346-.876-5.264.022-.181.257-1.046.257-1.046s4.797-2.018 5.406.694c.021.085.042.171.064.245.769 2.541 4.209 3.694 6.196 4.015 1.272.213 1.753.886 1.934 1.356z" fill="#1B3051"/><path d="M169.158 99.313c.47 0 17.778 2.413 21.378 6.459 1.795 2.018 6.507 28.496 6.507 28.496s-2.191 1.548-6.998.096c0 0-6.346-17.136-6.09-21.972.075-1.335-15.385-1.901-18.12-2.541-2.735-.641-6.132-2.221-4.658-4.848 1.474-2.637 7.981-5.69 7.981-5.69z" fill="#233862"/><path d="M195.91 139.809h-12.981c-.619-.758-.395-3.577-.299-4.484.022-.182.032-.289.032-.289s4.434-3.544 5.043-.832c.022.085.043.17.064.245.769 2.541 4.21 3.694 6.197 4.014 1.293.203 1.773.876 1.944 1.346z" fill="#1E3C68"/><path d="M162.266 100.712c.47 0 21.144 1.025 24.744 5.477 1.795 2.22 2.062 27.929 2.062 27.929s-2.222 2.755-7.03 1.153c0 0-4.412-13.634-4.092-22.922.054-1.473-12.863-1.644-16.41-1.922-4.498-.352-5.641-7.9-4.167-10.804 1.464-2.894 4.893 1.089 4.893 1.089z" fill="#23417C"/><path d="M166.646 71.64l-.256.053a2.147 2.147 0 01-2.521-1.676l-.278-1.356a2.146 2.146 0 011.677-2.52l.257-.053a2.148 2.148 0 012.521 1.676l.278 1.356a2.139 2.139 0 01-1.678 2.52z" fill="#122544"/><path d="M175.943 100.434c-2.596 4.132-18.771 5.381-18.771 5.381-.278-.662-1.507-11.328-1.71-12.054-.523-1.836-.865-3.865-1.09-5.85 0-.022-.01-.054-.01-.075-.374-3.449-.374-6.758-.321-8.744.032-1.153.075-1.858.075-1.9.043-.022.075-.033.117-.054a43.643 43.643 0 012.821-1.068h.011c.758-.256 1.485-.48 2.19-.672a31.52 31.52 0 013.44-.748 26.036 26.036 0 013.397-.31h.919c2.532.054 4.21.556 5.064.897.118.043.225.086.31.129.011 0 .022.01.032.01.096.043.171.075.225.107.01 0 .01.01.021.01.021.011.053.033.075.044l1.335 13.986 1.87 10.911z" fill="#D2E3FC"/><path d="M193.046 92.843c-1.848.854-12.852 1.58-13.91 1.27-.545-.16-2.81-2.156-5.096-4.612-2.158-2.327-4.338-5.06-5.075-7.025-1.506-4.046-.214-7.633-.214-7.633s2.81-.011 3.953.683c1.144.694 7.693 12.737 8.569 13.057.876.32 11.239.908 12.425 1.474 0-.011 1.197 1.932-.652 2.786z" fill="#D2E3FC"/><path d="M166.209 74.821v.683s.192 2.125-2.436 2.445c-2.628.32-4.616-.822-4.541-2.466.235-1.27.492-2.146.513-3.203a6.69 6.69 0 00-.096-1.27l5.085-.107 1.496.245-.021 3.673z" fill="#EA9E6A"/><path d="M166.219 71.138l-.01 3.683a4.25 4.25 0 01-1.827.406c-2.34 0-4.659-3.758-4.733-4.228l6.57.139z" fill="#D88D59"/><path d="M166.53 72.92s-6.507 1.325-7.276-2.743c-.759-4.068-2.115-6.63 2.009-7.644 4.123-1.015 5.224.384 5.811 1.676.577 1.292 1.122 8.263-.544 8.712z" fill="#EA9E6A"/><path d="M168.335 61.187s-1.816-.138-3.963-1.067c-1.742-.748-3.932.085-4.648.459.022-.118.064-.267.171-.427 0 0-.32.224-.363.544-.032.022-.043.043-.043.043s-.363-.064-.598.043c0 0 .16-.022.224.085.011.01.011.022.022.032-2.714 1.313-2.949 5.595-2.084 6.588 1.047 1.195 2.319 3.875 2.319 3.875s.459-.63.267-1.687c-.193-1.046.715-1.046 1.859-1.527 1.143-.48.192-1.815 1.186-2.626 1.004-.811 4.679-.342 4.626-.96 1.378-.503 1.025-3.236 1.025-3.375z" fill="#8E342E"/><path d="M156.562 101.886c-.31-2.103-1.058-4.783-1.4-7.057-.288-1.89-.566-4.933-.78-6.918 0-.022-.01-.054-.01-.075.01.01.032.043.053.021.716-.875 2.682-1.826 5.053 1.644.471.694 2.415 4.954 2.351 5.819-.331 3.993-5.267 6.566-5.267 6.566z" fill="#B7D3F3"/><path d="M158.111 95.865c-.053-.31.011-.705.246-1.196 0 0 .31-.192.705-.427.599-.342 1.432-.748 1.806-.684.064.011.16.032.267.054.887.213 2.949.843 3.258 1.217.257.31.609.694.844 1.036h-7.126z" fill="#EA9E6A"/><path d="M159.468 95.865h-17.393c-.043-.225-.054-.428.01-.588.524-1.313 1.528-3.47 2.703-5.776a151.177 151.177 0 012.682-5.092c1.228-2.221 2.361-4.079 3.023-4.837.524-.598 1.186-1.1 1.87-1.516.588-.352 1.186-.64 1.741-.875.043-.022.075-.032.118-.054 1.207-.49 2.169-.704 2.169-.704s.01.544.01 1.398c0 2.456-.085 7.388-.876 8.595-.213.33-.619.843-1.132 1.441-.011.022-.032.032-.043.053-.278.32-.577.673-.897 1.026a211.153 211.153 0 01-4.391 4.708l-.032.032h.032l4.882.064 1.496.021 3.098.043c.214.096.385.245.513.427.31.448.406 1.078.417 1.634z" fill="#D2E3FC"/><path d="M193.047 92.843c-1.849.854-12.853 1.58-13.911 1.27-.544-.16-2.809-2.156-5.096-4.612.118.01 1.154-1.719 5.919 2.434 0 0 1.25.556 4.637.246 3.387-.299 7.746-.416 8.451.662z" fill="#B7D3F3"/><path d="M161.145 71.64l-.256.053a2.147 2.147 0 01-2.521-1.676l-.278-1.356a2.146 2.146 0 011.677-2.52l.257-.053a2.148 2.148 0 012.521 1.676l.278 1.356a2.155 2.155 0 01-1.678 2.52z" fill="#122544"/><path d="M159.126 66.76c-.171-.31-.427-2.829.267-4.836.331-.971.876-1.527 1.56-1.9.246-.14.523-.203.801-.203l.684.01c-2.254.95-2.767 6.043-2.596 6.588-.011-.022-.011-.032-.022-.043l-.694.384zm6.57 5.307c-3.782 0-5.651-2.99-5.673-3.022l.342-.203-.171.107.171-.107c.021.032 1.784 2.83 5.331 2.83h.075v.395h-.075z" fill="#122544"/><path d="M160.536 70.316l-.128.021a1.071 1.071 0 01-1.261-.833l-.139-.672a1.07 1.07 0 01.834-1.26l.128-.022a1.071 1.071 0 011.261.833l.139.673a1.07 1.07 0 01-.834 1.26z" fill="#2B478B"/><path d="M166.167 72.195h-.353a.333.333 0 01-.331-.331c0-.182.15-.331.331-.331h.353c.181 0 .331.15.331.33-.011.182-.15.332-.331.332z" fill="#122544"/><path d="M288.315 124.477s-2.351-2.744-.15-4.484c0 0 1.613-.971 2.927-.897 0 0-1.859 3.128-1.26 3.438.598.31 1.827-3.63 1.827-3.63s3.675-.352 4.85.214c0 0-3.141 2.562-2.479 2.722.663.15 4.049-2.37 4.049-2.37s3.419.576 3.238 2.669c-.182 2.082-1.357 2.723-1.881 2.669-.513-.053-3.547-1.206-3.611-.79-.064.416 1.752 1.804 3.034 1.868 0 0-2.403 2.659-4.006 1.89-1.603-.769-1.741-1.986-2.735-2.434-.994-.459-1.848-.459-1.442.011.416.469 2.222.918 2.788 1.921.566 1.015 1.079 1.687-.577 1.442-1.656-.246-4.348-1.463-4.466-2.851-.117-1.388-.106-1.388-.106-1.388z" fill="#C8DBF4"/><path d="M299.639 122.182s-9.284-.352-11.335 2.295c0 0-.449 1.356-1.849 2.595l-.213.587s1.613-1.698 2.179-1.794c.011 0-.897-3.288 11.218-3.683z" fill="#C8DBF4"/><path d="M286.466 127.072s-1.987 1.473-2.126 4.099l.363.032s.641-2.722 1.784-3.779c1.143-1.068-.021-.352-.021-.352zm-6.389-6.043s3.74-2.093 1.998-4.943c0 0-1.399-1.751-2.895-2.2 0 0 .801 4.239 0 4.346-.801.096-.545-4.794-.545-4.794s-3.942-1.901-5.492-1.751c0 0 2.447 4.142 1.646 4.046-.802-.096-3.547-4.292-3.547-4.292s-4.049-.747-4.69 1.644c-.652 2.392.395 3.588.993 3.737.598.15 4.445.096 4.348.598-.096.502-2.692 1.303-4.145.844 0 0 1.603 3.939 3.697 3.736 2.094-.203 2.745-1.494 4.049-1.601 1.303-.096 2.243.245 1.602.598-.651.352-2.841.117-3.899 1.003-1.047.886-1.902 1.442.053 1.837 1.945.395 5.438.149 6.143-1.346l.684-1.462z" fill="#C8DBF4"/><path d="M268.4 113.844s10.481 3.395 11.688 7.185c0 0-.053 1.697.994 3.64v.748s-1.101-2.541-1.699-2.894c0 0 2.34-3.288-10.983-8.679z" fill="#C8DBF4"/><path d="M281.081 124.669s1.614 2.456.695 5.445l-.417-.106s.406-3.289-.438-4.944c-.854-1.665.16-.395.16-.395z" fill="#C8DBF4"/><path d="M286.039 118.135s-4.936-2.765-2.628-6.512c0 0 1.837-2.306 3.814-2.894 0 0-1.058 5.595 0 5.723 1.057.128.726-6.31.726-6.31s5.203-2.498 7.244-2.306c0 0-3.227 5.456-2.169 5.328 1.058-.128 4.669-5.659 4.669-5.659s5.331-.982 6.186 2.167c.854 3.161-.524 4.741-1.314 4.933-.791.192-5.855.128-5.727.79.128.662 3.558 1.708 5.459 1.121 0 0-2.104 5.2-4.871 4.933-2.767-.267-3.622-1.976-5.332-2.104-1.709-.128-2.959.331-2.104.79.854.459 3.75.15 5.128 1.324 1.378 1.175 2.5 1.901-.064 2.424-2.564.523-7.169.192-8.098-1.772l-.919-1.976z" fill="#D4E4F8"/><path d="M301.434 108.665s-13.825 4.474-15.396 9.47c0 0 .065 2.232-1.314 4.805v.982s1.453-3.352 2.233-3.811c0 0-3.087-4.335 14.477-11.446z" fill="#D4E4F8"/><path d="M284.724 122.94s-2.136 3.235-.918 7.174l.544-.149s-.534-4.335.588-6.513c1.122-2.178-.214-.512-.214-.512z" fill="#D4E4F8"/><path d="M285.868 138.645c5.342 0 9.669-4.324 9.669-9.662h-19.338c0 5.338 4.327 9.662 9.669 9.662z" fill="#D4E4F8"/><path d="M295.676 139.136h-19.605c0-.662.534-1.196 1.196-1.196h17.223a1.207 1.207 0 011.186 1.196z" fill="#D4E4F8"/><path d="M295.751 128.983h-19.872v.299h19.872v-.299z" fill="#9FC1F4"/><path d="M54.125 138.186c.075 1.046 1.55 1.057 3.227.865 1.677-.193 1.228.224 3.568.267 2.34.032 3.152-.737 3.27-1.079.095-.299-1.026-.544-2.234-.843-.15-.032-.299-.075-.46-.118-1.356-.341-2.264-1.366-3.429-2.252-1.1-.844-2.521-3.887-2.521-3.887l-3.205-.149s1.346 2.733 1.859 3.907c.299.694.17 1.549.042 2.2-.074.352-.138.715-.117 1.089z" fill="#FFB27D"/><path d="M57.351 139.04c1.678-.192 1.229.224 3.569.267 2.34.032 3.151-.737 3.269-1.079.096-.298-1.026-.544-2.233-.843l-.01.021s-1.507.812-3.44.62c-1.571-.161-3.174-.812-4.264-.929-.064.352-.139.715-.106 1.089.064 1.046 1.538 1.057 3.215.854z" fill="#233862"/><path d="M32.01 138.399c.075 1.047 1.55 1.057 3.227.865 1.677-.192 1.228.235 3.568.267 2.34.032 3.152-.737 3.27-1.068.106-.299-1.026-.544-2.233-.843-.15-.032-.3-.075-.46-.118-1.357-.352-2.265-1.366-3.43-2.252-1.1-.844 0-5.84 0-5.84l-3.525-.342s.17 4.207.17 6.118c0 .758-.352 1.484-.48 2.135-.064.352-.128.715-.107 1.078z" fill="#FFB27D"/><path d="M35.236 139.264c1.678-.192 1.229.235 3.569.267 2.34.032 3.151-.737 3.269-1.068.107-.299-1.026-.544-2.233-.843l-.01.021s-1.507.812-3.44.609c-1.571-.16-3.174-.822-4.264-.94-.075.353-.139.716-.107 1.089.075 1.047 1.55 1.057 3.216.865z" fill="#233862"/><path d="M42.288 52.102c.609-2.488-.278-3.652-1.069-4.27-.374-.919-.801-1.58-1.24-1.827-.8-.459-1.762-.501-2.424-.47.17-.18.512-.245.512-.245-.416-.064-1.346.352-1.346.352-5.79-2.23-6.698 6.289-6.57 8.264.117 1.975.107 4.303-2.906 5.861-5.748 2.98 1.912 14.179 1.912 14.179-.15-1.602 7.233-10.036 11.08-12.556.94-1.377 1.27-3.811 1.292-4.003-.16 1.932-.492 3.01-.79 3.63 1.762-1.623 2.019-5.499 1.549-8.915z" fill="#A9453D"/><path d="M40 61.518c.022.011-1.858.983-3.268.598-1.325-.363-2.201-2.082-2.18-2.092.566-.107.727-.886.716-4.207l.256.053 4.274.844s-.096 1.345-.096 2.616c0 1.067.064 2.082.299 2.188z" fill="#FFB27D"/><path d="M39.799 56.725s-.096 1.345-.096 2.615c-2.393-.064-3.665-2.252-4.178-3.459l4.274.844z" fill="#ED975D"/><path d="M57.202 132.826a1.049 1.049 0 01-.951 1.367l-1.667.075-1.773.053a1.434 1.434 0 01-1.143-.523c-1.41-1.73-5.759-7.495-8.387-15.876-.075-.235-.15-.47-.235-.715-1.742-5.072-5.353-11.435-7.255-17.2-.299-.918-.576-1.783-.822-2.595a35.8 35.8 0 00-.225-.768c-1.4-4.869-1.805-8.06-2.18-11.477l13.73.106s2.895 22.453 10.908 47.553z" fill="#2A4E96"/><path d="M44.382 77.394c-.032 6.534.961 9.331.961 9.331s-5.876 2.99-12.863.79c-.085-.02-1.923-10.783-1.741-11.765.32-1.815.33-3.694.17-5.466-.427-4.698-1.698-8.595-1.698-8.595 1.901-.438 3.686-1.196 5.673-1.932.46.566 1.848 1.163 3.055 1.132 1.39-.033 1.849-.63 1.774-1.282a45.518 45.518 0 012.67 1.602c1.261 2.188 3.815 4.313 4.007 7.665.022.833-2.008 8.339-2.008 8.52z" fill="#D2E3FC"/><path d="M32.566 78.12c-.599.854-1.753 6.011-4.616 6.662 1.475-3.672 2.596-5.284 2.767-6.416.32-2.114.332-4.292.171-6.353.962-1.676 1.678-2.829 1.678-2.829.074-.267 1.527-4.74 1.987-.747.47 3.993-1.314 8.733-1.987 9.683z" fill="#5F9AA8"/><path d="M42.299 60.739s2.04 1.1 2.895 2.2c.855 1.088 5.887 10.12 5.887 11.028 0 .908-5.107.31-5.107.31l-3.675-13.538z" fill="#01BA57"/><path d="M40.6 57.92s-5.663.096-5.674-3.427c0-3.523-.737-5.893 2.874-6.096 3.611-.213 4.317 1.132 4.605 2.317.3 1.163-.331 7.089-1.805 7.206z" fill="#FFB27D"/><path d="M40.386 48.3s-1.55 4.133-3.932 4.752c-2.382.608-3.408-.021-3.408-.021s1.827-1.453 2.201-3.983c0 0 3.974-2.712 5.139-.747z" fill="#A9453D"/><path d="M40.002 48.643s1.153.918 1.442 1.825c.278.897.406 2.744.95 2.68 0 0 1.165-2.808-.149-4.399-1.389-1.697-2.243-.106-2.243-.106z" fill="#A9453D"/><path d="M39.702 59.607s3.28 8.093 3.377 9.727c.096 1.633.384 26.776.384 26.776s-.192 1.153 2.02.673c2.21-.48 2.799-.961 2.799-.961s-2.127-15.502-1.55-20.894c.577-5.392-4.433-14.189-4.433-14.189l-2.597-1.132z" fill="#01BA57"/><path d="M54.585 134.268l-1.923.053a1.093 1.093 0 01-.887-.406c-1.293-1.559-5.79-7.409-8.493-16.004-.075-.235-.15-.47-.236-.715-1.741-5.071-5.352-11.435-7.254-17.2-.299-.918-.577-1.783-.823-2.594a35.8 35.8 0 00-.224-.769l2.02-1.537s6.068 9.822 7.948 19.068c1.645 8.039 8.184 17.701 9.872 20.104z" fill="#1E3D70"/><path d="M36.977 115.039c.033 4.25-.17 13.73-.683 18.364a.834.834 0 01-.834.747h-1.43c-.61 0-1.058 0-1.357-.011a.557.557 0 01-.534-.448c-1.421-7.249-2.447-13.26-3.195-18.46-.62-4.356-1.175-8.082-1.602-11.295-.428-3.235-.727-5.936-.834-8.232a17.976 17.976 0 01-.032-1.046c-.01-.342-.01-.673-.01-.993l11.859-1.153c-.14 7.869-1.357 19.912-1.347 22.527z" fill="#2A4E96"/><path d="M34.029 134.15c-.545 0-.962 0-1.26-.011a.653.653 0 01-.642-.544c-1.41-7.207-2.425-13.196-3.173-18.374-.62-4.356-1.175-8.082-1.603-11.296-.427-3.235-.726-5.936-.833-8.231l4.348 2.562s-2.777.982-1.72 8.392c1.058 7.42 3.408 26.445 4.883 27.502z" fill="#1E3D70"/><path d="M34.585 95.63s-.834 3.021-3.729 2.637c-2.895-.385-6.998-2.114-6.998-2.114s1.24-3.897 2.767-9.033c1.86-6.203 4.167-14.2 5.246-19.25.31-1.409.513-2.594.588-3.437l2.403-4.655s3.58 8.018 3.772 10.047c.192 2.017-4.05 25.804-4.05 25.804z" fill="#01BA57"/><path d="M34.456 74.052c-.128 3.278-.898 9.63-7.778 13.036-.021.011-.032.022-.053.022 1.859-6.203 4.166-14.2 5.245-19.25 1.272 1.89 2.66 4.399 2.586 6.192z" fill="#10974F"/><path d="M31.7 69.515l3.162-9.748c-.01 0-3.996 1.185-6.004 2.2 0 0-1.25 1.612-2.03 5.349 0 0-.823 8.947 1.015 12.224 0 0 5.78 1.153 15.032-2.018v-2.114s-10.118.534-12.19.77l1.015-6.663z" fill="#FFB27D"/><path d="M34.874 59.778s-5.866.416-7.287 3.555c-1.41 3.15-1.859 13.613-.064 16.698 0 0 2.479.705 6.86-.117l.16-.032s1.399-3.417.149-4.09c0 0-3.697.193-3.312-1.024.385-1.228 3.494-14.99 3.494-14.99z" fill="#01BA57"/><path d="M49.585 76.71l-.171.556-9.626-2.99s-.128-.149-.064-.341c.075-.213.235-.213.235-.213l9.626 2.989z" fill="#A9453D"/><path d="M50.279 77.234l-.695-.523-.17.555.865-.032z" fill="#A9453D"/><path d="M42.876 75.408s2.18-1.345 3.098-1.142c.919.203 3.248 1.9 2.126 2.263-1.122.363-2.03-.02-2.468.246-.427.267-.748.747-2.767.747-1.998 0 .01-2.114.01-2.114z" fill="#FFB27D"/><path d="M42.074 87.302l10.01.01 3.846-14.54h-10l-3.856 14.53z" fill="#233862"/><path d="M46.358 71.768s-.77.128-.438 1.003h3.418l-1.09-1.003h-1.89z" fill="#9DB0F4"/><path d="M46.358 71.768s1.507 0 2.03 1.217c.641 1.484.364 5.626.364 5.626h8.023s1.272-4.879-1.378-6.843h-9.039z" fill="#fff"/><path d="M53.986 80.01s-1.207-.908-1.58-.384c-.375.523.288 3.181 1.078 2.989.78-.203.79-2.06.502-2.605z" fill="#FFB27D"/><path opacity=".5" d="M105.985 58.39c-.257-6.406 5.117-9.256 10.609-9.256 5.491 0 11.474 1.42 11.998 9.94.331 5.477-2.597 8.85-11.015 8.85-2.842 0-5.043-.448-6.742-1.249l-4.209 3.737 2.072-5.168c-1.827-1.697-2.596-4.089-2.713-6.854z" fill="#D2E3FC"/><path d="M231.904 53.212c.363-8.947-7.137-12.918-14.808-12.918s-16.015 1.985-16.741 13.879c-.47 7.655 3.611 12.352 15.363 12.352 3.964 0 7.041-.63 9.402-1.74l5.876 5.221-2.885-7.206c2.554-2.37 3.633-5.723 3.793-9.588z" fill="#D2E3FC"/><path d="M106.658 112.893H76.177a2.096 2.096 0 01-2.094-2.092v-1.367h32.575v3.459z" fill="#77A4E5"/><path d="M91.112 137.887h-1.966l-.545-24.994h3.002l-.491 24.994z" fill="#94B0ED"/><path d="M99.66 137.887H80.536v-1.719l9.743-.886 9.38.886v1.719z" fill="#94B0ED"/><path d="M78.677 137.62c0-.865.705-1.569 1.57-1.569.865 0 1.57.704 1.57 1.569s-.705 1.569-1.57 1.569c-.865 0-1.57-.704-1.57-1.569zm19.123 0c0-.865.706-1.569 1.571-1.569s1.571.704 1.571 1.569-.706 1.569-1.571 1.569-1.57-.704-1.57-1.569zm-1.09-23.093H83.496c-.79 0-1.432-.641-1.432-1.431v-.203h16.09v.203a1.448 1.448 0 01-1.442 1.431z" fill="#94B0ED"/><path d="M76.808 112.893a2.732 2.732 0 01-2.736-2.733V88.37c0-4.314 2.821-7.816 6.304-7.816h14.252c3.483 0 6.304 3.502 6.304 7.816v24.523H76.808z" fill="#F99746"/><path d="M77.096 112.893a1.499 1.499 0 01-1.496-1.494v-23.03c0-4.313 2.82-7.815 6.303-7.815h14.252c3.483 0 6.304 3.502 6.304 7.816v24.513H77.096v.01z" fill="#CC6A27"/><path d="M110.13 112.893H75.258a1.73 1.73 0 110-3.459h34.872a1.73 1.73 0 110 3.459z" fill="#F99746"/><path d="M119.5 137.086c-.107 1.004 1.292 1.26 2.916 1.367 1.624.096 1.133.427 3.344.854 2.222.427 3.12-.171 3.28-.47.15-.267-.887-.694-1.976-1.174-.139-.064-.278-.118-.417-.182-1.239-.555-1.923-1.676-2.874-2.722-.908-.982-1.741-4.121-1.741-4.121l-3.013-.673s.822 2.819 1.1 4.025c.171.705-.096 1.495-.331 2.093-.128.32-.246.651-.288 1.003z" fill="#FFB27D"/><path d="M122.416 138.453c1.624.096 1.133.427 3.344.854 2.223.427 3.12-.171 3.28-.47.15-.267-.887-.694-1.976-1.174l-.022.021s-1.57.513-3.365 0c-1.464-.416-2.885-1.313-3.889-1.601-.128.32-.256.662-.288 1.014-.107.993 1.292 1.26 2.916 1.356z" fill="#0F2549"/><path d="M114.939 102.185c-1.624-1.142-12.351-3.171-17.832-3.758l-6.047-5.253s-5.15 7.623-5.192 13.463c-.021 2.722 1.24 2.989 1.24 2.989s19.401.139 20.256.235c1.389.139 3.226 3.609 3.686 6.769.459 3.16 8.547 15.993 8.547 15.993s1.688.545 2.468.491c.844-.053 1.228-.33 1.228-.33s-4.701-28.026-8.354-30.599z" fill="#233862"/><path d="M114.479 137.086c-.107 1.004 1.293 1.26 2.917 1.367 1.624.096 1.132.427 3.344.854 2.222.427 3.119-.171 3.28-.47.149-.267-.887-.694-1.977-1.174-.139-.064-.278-.118-.416-.182-1.24-.555-1.924-1.676-2.874-2.722-.909-.982-1.742-4.121-1.742-4.121l-3.013-.673s.823 2.819 1.101 4.025c.171.705-.096 1.495-.331 2.093-.118.32-.246.651-.289 1.003z" fill="#FFB27D"/><path d="M117.395 138.453c1.624.096 1.133.427 3.345.854 2.222.427 3.119-.171 3.279-.47.15-.267-.886-.694-1.976-1.174l-.021.021s-1.571.513-3.366 0c-1.464-.416-2.884-1.313-3.889-1.601-.128.32-.256.662-.288 1.014-.096.993 1.303 1.26 2.916 1.356z" fill="#233862"/><path d="M109.874 102.185c-1.41-.993-5.652-1.751-10.331-2.328a3.16 3.16 0 01-2.671-2.359l-10.887-4.324s-5.15 7.623-5.192 13.463c-.022 2.722 1.24 2.989 1.24 2.989s19.401.139 20.256.235c1.388.139 3.226 3.609 3.685 6.769.46 3.16 8.547 15.993 8.547 15.993s1.688.545 2.468.491c.844-.053 1.229-.33 1.229-.33s-4.69-28.026-8.344-30.599z" fill="#2B478B"/><path d="M95.323 66.28s-3.174 1.623-.866 5.103c0 0-2.724.31-3.408-.47 0 0 .107.342.224.513 0 0-2.638-.342-3.59-1.345-.95-1.004 2.01-14.307 9.04-11.584 0 0 6.249.566 4.476 7.612-1.774 7.047.555 7.431.555 7.431s-.705.213-1.015.16c0 0-.427-.256-.481-.523 0 0 .022.416.118.555 0 0-2.553-.181-3.654-1.345-1.09-1.142-2.008-4.687-1.4-6.107z" fill="#8E342E"/><path d="M99.853 69.76l-.256.033a2.08 2.08 0 01-2.34-1.773l-.181-1.323a2.078 2.078 0 011.773-2.339l.257-.032a2.08 2.08 0 012.339 1.773l.182 1.323c.149 1.132-.652 2.19-1.774 2.339z" fill="#ED7D2B"/><path d="M100.569 80.405c-.951.726-1.55 3.363-3.077 3.8-5.727 1.634-8.793-5.156-9.797-8.466.769-.49 1.506-.63 1.933-.704a14.25 14.25 0 011.218-.16c.62-.534 1.485-2.616 1.539-5.787l.277.064 4.627 1.014s-.14 1.463-.171 2.84c-.022 1.079-.064 1.335.021 1.463.363.064.78.982.78.982.085.075 1.517 2.189 2.65 4.954z" fill="#FFB27D"/><path d="M97.3 70.156s-.14 1.462-.171 2.84c-2.597-.129-3.921-2.53-4.455-3.855l4.626 1.015z" fill="#ED985F"/><path d="M120.825 94.124s-2.725.096-5.674.107h-1.057c-2.404-.01-4.776-.096-5.78-.352-.983-.257-4.765-2.819-7.789-5.915-.235.555-.406.982-.416 1.014a14.727 14.727 0 01-.417 2.06c-.01.044-.021.097-.032.14-.01.032-.01.074-.021.117-.011.032-.011.075-.022.107-.32 1.986.663 5.007.951 6.544.096.492.118.823 0 .93-4.925 4.665-14.177 3.608-18.237 2.861a1.49 1.49 0 01-1.058-2.146c1.56-3.096 4.498-9.93 4.028-16.89-.021-.235 2.2-7.837 2.2-7.837s1.72-.299 3.719-.46c.192.172.577 5.179 3.066 5.467.406.043 3.002 4.015 3.002 4.015l.79-4.057-.929-5.381c1.197.352 1.849.48 2.842.875.673.267 1.24.769 1.592 1.41 1.742 3.18 7.393 13.441 7.97 13.676.545.224 2.575.63 4.733 1.025 2.885.523 5.972 1.025 5.972 1.025l.567 1.665z" fill="#D2E3FC"/><path d="M98.068 71.544s-6.154-.118-6.015-3.95c.139-3.823-.566-6.417 3.365-6.503 3.932-.085 4.648 1.399 4.915 2.69.256 1.282-.663 7.688-2.265 7.763z" fill="#FFB27D"/><path d="M115.151 94.242h-1.057c-2.404-.011-4.776-.096-5.78-.353-.983-.256-4.765-2.818-7.789-5.914 0 0 .641-2.445.909-2.851.277-.406 1.356 3.566 3.899 5.178 2.532 1.612 6.507 2.744 8.43 2.295 1.314-.32 1.442.844 1.388 1.645z" fill="#B7D3F3"/><path d="M96.86 69.408s.044.46 1.048.534c0 0 .844.064.887-.427 0-.01-.78-.47-1.934-.107z" fill="#fff"/><path d="M97.193 70.956c-3.494-1.1-4.349-4.409-4.36-4.441l.375-.096-.182.043.182-.043c.01.032.822 3.128 4.102 4.174.022.011.043.011.064.022l-.106.363a.139.139 0 01-.075-.022z" fill="#122544"/><path d="M97.588 71.213l-.331-.107a.324.324 0 11.192-.62l.332.107a.324.324 0 01.213.406.316.316 0 01-.406.214z" fill="#ED7D2B"/><path d="M98.421 60.579s-1.57 4.666-3.942 5.456c-2.361.79-3.141-.15-3.141-.15s1.741-1.601 1.944-4.185c-.01 0 3.814-3.032 5.139-1.121z" fill="#8E342E"/><path d="M95.472 61.956s3.205-.181 4.167.737c.694.662.673 1.003.726 1.879 0 0 1.4-2.167-.043-3.673-1.527-1.612-4.85 1.057-4.85 1.057z" fill="#8E342E"/><path d="M98.282 61.07s-.801 4.463-3.74 6.086c0 0 2.843-2.904 2.896-5.819.043-2.915.844-.267.844-.267z" fill="#8E342E"/><path d="M87.684 70.08c.95 1.005 3.59 1.346 3.59 1.346-.118-.17-.225-.512-.225-.512 1.357 1.1 4.69.299 4.69.299-2.66-.588-1.795-4.42-.897-4.58.523-2.894 1.57-6.492 2.062-8.104-.118-.021-.182-.021-.182-.021-7.03-2.733-9.979 10.58-9.038 11.573z" fill="#8E342E"/><path d="M93.464 69.376l-.257.032a2.08 2.08 0 01-2.34-1.772l-.181-1.324a2.078 2.078 0 011.773-2.338l.257-.032a2.08 2.08 0 012.34 1.772l.181 1.324a2.1 2.1 0 01-1.773 2.338z" fill="#ED7D2B"/><path d="M91.797 64.53c-.15-.278.374-2.478 1.154-4.186.374-.822 1.325-1.922 2.008-2.21.246-.107.567-.064.834 0 .192.043.737.299.737.299-2.233.694-4.167 5.36-4.028 5.84 0-.01-.01-.021-.01-.032l-.695.288z" fill="#ED7D2B"/><path d="M92.95 68.052l-.127.022a1.035 1.035 0 01-1.165-.886l-.096-.662a1.035 1.035 0 01.887-1.164l.128-.021c.566-.075 1.09.32 1.164.886l.097.662a1.04 1.04 0 01-.887 1.163z" fill="#F99746"/><path d="M107.876 91.914s2.639-.15 2.895-.01c.417.224 1.838 1.131 2.051 1.398.225.267.802 1.324.802 1.324s-.257.075-.364-.032a62.676 62.676 0 01-.972-1.014l.887 1.345s-.31-.01-.428-.15c-.117-.128-.95-.971-.95-.971l-.278-.053s.288.234.438.437c.16.203.256.427.256.427s-.256-.042-.331-.085c-.075-.043-.823-.683-.823-.683l.396.534s-.267-.011-.353-.075c-.085-.064-.662-.587-.769-.587-.107 0-.844-.032-1.154-.193-.32-.17-1.314-.555-1.314-.555l.011-1.057z" fill="#FFB27D"/><path d="M91.583 73.668s-1.763.513-2.168.918c0 0 1.848 4.709 4.508 6.908l.716-.502v1.142l2.66 1.74c0 .011-5.844-8.775-5.716-10.206zm8.985 24.289c-1.4-.544-6.079-2.434-7.96-4.196-2.104-1.975-6.463-9.085-6.463-9.085l7.628-1.869s3.141 4.591 4.039 5.456c.684.672 2.286.726 2.286.726l-.417 2.06-.032.14c-.01.031-.01.074-.021.117-.01.032-.01.074-.021.106-.31 1.986.673 5.008.961 6.545z" fill="#B7D3F3"/><path d="M97.15 74.448s.812 6.405.139 9.438c0 0 1.09-1.997 1.24-2.37l-.182-1.1.705.245s-.62-5.114-1.186-6.01c-.567-.897-.77-.983-.77-.983l.054.78z" fill="#B7D3F3"/><path d="M120.825 94.124s-3.408.128-6.731.107c-.823-1.281.181-2.808.181-2.808a384.31 384.31 0 005.973 1.025l.577 1.676z" fill="#FFB27D"/><path d="M121.156 95.832h-12.575c0-.555.449-1.003 1.005-1.003h11.57v1.003z" fill="#10974F"/><path d="M140.569 82.145L135.9 95.832h-19.573l4.786-13.687h19.456z" fill="#10974F"/><path d="M140.569 82.145l-4.626 13.56-.043.127h-19.284l4.786-13.687h19.167z" fill="#01BA57"/><path d="M130.365 88.86c-.117.524-.641.95-1.164.95-.524 0-.855-.426-.727-.95.118-.522.641-.95 1.165-.95.523 0 .844.428.726.95z" fill="#FFC397"/><path d="M140.569 82.145l-4.626 13.56h-8.868l10.812-13.56h2.682z" fill="#10974F"/><path d="M107.876 92.982s-6.474.566-10.053.406v-3.513c2.34.651 10.053 2.04 10.053 2.04v1.067z" fill="#FFB27D"/><path d="M89.425 74.586s-3.707.086-4.85 1.324c-1.143 1.239 1.132 8.232 1.132 8.232s6.902 8.445 10.353 9.043c0 0 1.506.203 2.212.213 0 0-.695-2.007.598-3.267 0 0-1.475-.416-1.539-.598-.064-.181-7.906-14.947-7.906-14.947z" fill="#D2E3FC"/><path d="M67.449 139.926h-.032c-.204 0-.353-.288-.353-.651l.534-41.681 1.581-.331-1.346 42.022c-.01.363-.181.641-.384.641z" fill="#233862"/><path d="M64.49 98.363h92.029c.588 0 1.069-.48 1.069-1.067v-.374c0-.587-.481-1.068-1.069-1.068h-92.03c-.587 0-1.068.48-1.068 1.068v.374c0 .587.48 1.067 1.068 1.067zm205.822 41.563h.032c.203 0 .353-.288.353-.651l-.535-41.681-1.581-.331 1.346 42.022c.011.363.182.641.385.641z" fill="#233862"/><path d="M149.703 98.363h122.778a1.24 1.24 0 001.239-1.239v-.042a1.24 1.24 0 00-1.239-1.239H149.703a1.24 1.24 0 00-1.239 1.239v.042a1.24 1.24 0 001.239 1.239z" fill="#233862"/><path d="M183.143 95.832h-12.575c0-.555.449-1.003 1.005-1.003h11.581v1.003h-.011z" fill="#10974F"/><path d="M202.556 82.145l-4.669 13.687h-19.573l4.787-13.687h19.455z" fill="#10974F"/><path d="M202.556 82.145l-4.626 13.56-.043.127h-19.294l4.797-13.687h19.166z" fill="#01BA57"/><path d="M192.353 88.86c-.118.524-.641.95-1.165.95-.523 0-.855-.426-.726-.95.117-.522.641-.95 1.164-.95.524 0 .844.428.727.95z" fill="#FFC397"/><path d="M202.556 82.145l-4.626 13.56h-8.868l10.812-13.56h2.682z" fill="#10974F"/><path d="M206.092 82.145l4.701 13.698 19.54-.01-4.797-13.688h-19.444z" fill="#ED7D2B"/><path d="M206.647 82.444l4.52 13.26.042.128h18.836l-4.68-13.388h-18.718z" fill="#B0D4FF"/><path d="M210.792 95.843l27.297-.01c0-.556-.449-1.004-1.004-1.004h-26.571l.278 1.014zm35.6-23.263h-.257a2.074 2.074 0 01-2.073-2.072v-1.335c0-1.142.93-2.07 2.073-2.07h.257c1.143 0 2.072.928 2.072 2.07v1.335c0 1.132-.94 2.071-2.072 2.071z" fill="#ED7D2B"/><path d="M235.441 135.09s-.278 4.291-1.111 4.345c-.107.011-4.209 0-4.209 0l-5.236-.043s.033-1.26 1.571-1.527c1.528-.266 4.092-1.334 5.021-3.352.983-2.114 3.964.577 3.964.577z" fill="#0E2C4F"/><path d="M250.419 99.815c.203.17 5.534 5.946 5.096 10.377-.128 1.303-1.25 2.285-2.564 2.285h-6.495s-6.624 1.185-6.785 2.616c-.16 1.43-1.517 9.149-4.198 20.114 0 0-1.977.683-3.184.192-1.592-.64-1.816-1.324-1.816-1.324s1.602-24.545 2.863-26.274c1.261-1.73 14.295-6.865 18.515-7.378 4.22-.523-1.432-.608-1.432-.608z" fill="#163560"/><path d="M212.759 93.697s-3.771-.875-4.733 0c-.961.876-1.271 2.146-1.271 2.146h6.004v-2.146z" fill="#FFB27D"/><path d="M226.264 135.09s-.278 4.291-1.111 4.345c-.107.011-4.21 0-4.21 0l-5.235-.043s.032-1.26 1.571-1.527c1.528-.266 4.092-1.334 5.021-3.352.983-2.114 3.964.577 3.964.577z" fill="#163560"/><path d="M255.344 99.815c.15.128 1.304 3.235 2.073 6.758.662 3.032-1.645 5.904-4.754 5.904h-15.107s-6.624 1.185-6.784 2.616c-.161 1.43-1.517 9.149-4.199 20.114 0 0-1.987.523-3.536-.139-.823-.352-1.475-1.196-1.475-1.196s1.614-24.342 2.885-26.071c1.261-1.73 14.295-6.865 18.515-7.378 4.209-.523 12.382-.608 12.382-.608z" fill="#2B478B"/><path d="M246.968 77.864l-2.34 2.242h-3.985c0-.32.011-1.655.022-2.861v-.214c0-.267.01-.523.01-.769.011-.662.011-1.153.011-1.153l1.026-.704 2.275-1.559 1.229-.843c0 .02.107 1.12.118 1.28.288 2.873 1.634 4.58 1.634 4.58z" fill="#FFB27D"/><path d="M241.188 77.469c.075-.032 4.381-1.965 4.883-1.794.502.171 1.132 1.709 1.132 1.709l-7.585 1.719c0-.022.598-1.228 1.57-1.634z" fill="#B7D3F3"/><path d="M259.821 90.366c-.823-5.06-4.284-8.84-5.769-10.26-.994-1.495-6.849-2.733-6.849-2.733l-7.585 1.719s-4.274.459-6.688 4.452c-1.496 2.466-5.759 8.103-8.568 8.274-2.81.17-11.614 1.879-11.614 1.879v2.167l13.43.363c.16 0 .331-.01.491-.042 1.154-.214 6.111-1.207 8.569-2.488.395 6.342.854 16.015 3.077 17.552 2.339 1.623 18.824 1.847 20.566-.63.897-1.27-.203-8.776-1.571-16.014 1.699-.801 2.853-2.125 2.511-4.239z" fill="#D2E3FC"/><path d="M244.597 74.191l-.203.128s-1.87 1.346-3.697 1.954c.011-.662.011-1.153.011-1.153l1.026-.705 2.863-.224z" fill="#EAA16E"/><path d="M239.308 75.163s6.122.726 6.517-3.096c.396-3.823 1.453-6.3-2.446-6.919-3.9-.619-4.808.758-5.246 1.997-.438 1.238-.406 7.73 1.175 8.018z" fill="#FFB27D"/><path d="M238.293 66.75s1.154 4.142 1.998 3.8c.833-.341 1.603-.63 1.709.663.107 1.291.599 2.808 3.323 2.53s3.878-7.74 2.895-8.915c-2.831-3.384-13.856-2.114-9.925 1.922z" fill="#163560"/><path d="M233.955 113.299h30.299a2.08 2.08 0 002.084-2.082v-1.356h-32.383v3.438z" fill="#77A4E5"/><path d="M230.323 113.299h22.928c.854 0 1.538-.694 1.538-1.538v-.352c0-.854-.694-1.537-1.538-1.537h-22.928c-.855 0-1.538.694-1.538 1.537v.352c0 .844.694 1.538 1.538 1.538z" fill="#F99746"/><path d="M249.415 138.154h1.955l.545-24.855h-2.981l.481 24.855z" fill="#2B478B"/><path d="M240.922 138.154h19.007v-1.719l-9.691-.876-9.316.876v1.719z" fill="#2B478B"/><path d="M261.777 137.876a1.561 1.561 0 00-3.12 0c0 .865.705 1.559 1.56 1.559a1.554 1.554 0 001.56-1.559zm-19.007 0a1.561 1.561 0 00-3.12 0c0 .865.706 1.559 1.56 1.559a1.554 1.554 0 001.56-1.559zm-1.175-22.954h17.65c.897 0 1.634-.726 1.634-1.634h-20.908c0 .908.726 1.634 1.624 1.634z" fill="#2B478B"/><path d="M263.347 113.299c.822 0 1.485-.662 1.485-1.484v-22.89c0-4.292-2.81-7.762-6.272-7.762h-14.177c-3.462 0-6.271 3.48-6.271 7.762v24.374h25.235z" fill="#F99746"/><path d="M263.635 113.299a2.717 2.717 0 002.714-2.712V88.925c0-4.292-2.81-7.762-6.271-7.762H245.9c-3.461 0-6.271 3.48-6.271 7.762v24.374h24.006z" fill="#CC6A27"/><path d="M237.129 75.237c3.493-1.1 4.348-4.409 4.359-4.44l-.374-.097.181.043-.181-.043c-.011.032-.823 3.128-4.103 4.174-.021.011-.043.011-.064.022l.107.363c.032 0 .053-.01.075-.022z" fill="#122544"/><path d="M236.734 75.504l.331-.106a.325.325 0 00-.192-.62l-.332.107a.323.323 0 00-.213.406c.064.17.245.267.406.213zm4.818-1.558l-.256.032a2.074 2.074 0 01-2.34-1.773l-.182-1.323a2.079 2.079 0 011.774-2.339l.256-.032a2.08 2.08 0 012.34 1.773l.182 1.323c.149 1.132-.641 2.19-1.774 2.339z" fill="#ED7D2B"/><path d="M239.885 69.11c-.149-.278.374-2.478 1.154-4.186.374-.822 1.325-1.922 2.009-2.21.246-.107.566-.064.833 0 .192.043.737.352.737.352-2.233.694-4.166 5.296-4.027 5.776 0-.01-.011-.021-.011-.032l-.695.3z" fill="#ED7D2B"/><path d="M241.039 72.632l-.128.022a1.035 1.035 0 01-1.164-.886l-.097-.662a1.036 1.036 0 01.887-1.164l.128-.021c.567-.075 1.09.32 1.165.886l.096.662a1.047 1.047 0 01-.887 1.163z" fill="#F99746"/></svg>