<svg width="69" height="69" fill="none" xmlns="http://www.w3.org/2000/svg"><path d="M44.71 68.003H5.52A5.522 5.522 0 010 62.488V21.275a5.515 5.515 0 015.52-5.515h39.19a5.522 5.522 0 015.52 5.515v41.213a5.522 5.522 0 01-5.52 5.515z" fill="#5DC4ED"/><path opacity=".8" d="M44.164 67.567L5.4 61.797A5.515 5.515 0 01.752 55.53l6.08-40.764a5.527 5.527 0 016.272-4.643l38.753 5.77a5.515 5.515 0 014.647 6.267l-6.079 40.764c-.437 3.018-3.252 5.091-6.26 4.643z" fill="#6BB96B"/><path opacity=".8" d="M46.676 64.791l-38.28-8.376a5.508 5.508 0 01-4.21-6.57l8.82-40.255a5.513 5.513 0 016.577-4.206l38.28 8.376a5.508 5.508 0 014.21 6.57l-8.821 40.255a5.519 5.519 0 01-6.576 4.206z" fill="#E25966"/><path opacity=".8" d="M47.659 62.597l-36.97-12.994a5.503 5.503 0 01-3.372-7.03L21.003 3.686A5.51 5.51 0 0128.04.317l36.97 12.994a5.502 5.502 0 013.372 7.03L54.708 59.216a5.545 5.545 0 01-7.05 3.382z" fill="#FF609B"/><path d="M31.862 35.797H22.18v6.558h11.368v4.049H17.12V21.943H33.5v4.085H22.168v5.83h9.682v3.94h.012zm12.534.096l-2.852.025v10.485h-5.047V21.942h5.047v9.333l2.451-.012 6.82-9.333h6.09l-8.457 10.873 9.063 13.6h-6.115l-7-10.51z" fill="#fff"/></svg>