<svg width="587" height="384" fill="none" xmlns="http://www.w3.org/2000/svg"><path d="M33.677 382.632L216.33 381.6l48.688-.016 16.129-.006 48.781-.016 222.857-.066s50.976-71.216-3.475-138.855c-56.454-70.129-83.903-13.016-101.258-111.732-43.68-248.484-475.538-103.86-362.266 107.588 40.787 76.135-80.284 35.669-52.109 144.135z" fill="#F3F3F3"/><path d="M215.497 329.659l-1.065-.637c-1.136-.679-1.554-2.241-.931-3.479l4.888-9.745c.623-1.241 2.053-1.697 3.187-1.017l1.524.91a.528.528 0 01.183.682c-.122.242-.401.333-.625.199l-1.524-.91c-.692-.413-1.56-.135-1.939.621l-4.889 9.745c-.379.753-.124 1.704.568 2.118l1.064.636c.693.414 1.561.136 1.94-.62l3.245-6.468c.122-.243.401-.333.625-.2a.528.528 0 01.183.682l-3.246 6.469c-.622 1.238-2.052 1.694-3.188 1.014z" fill="#AFCDFB"/><path d="M210.962 339.892l-1.907-1.141c-1.77-1.057-2.366-3.605-1.328-5.674l7.349-14.651c.122-.242.4-.333.625-.199a.527.527 0 01.182.682l-7.348 14.652c-.795 1.585-.364 3.522.962 4.313l1.907 1.141c1.325.794 3.051.147 3.848-1.438l8.372-16.689c.794-1.585.363-3.522-.962-4.313a.528.528 0 01-.183-.682c.122-.242.4-.333.625-.2 1.769 1.06 2.366 3.605 1.327 5.675l-8.369 16.689c-1.045 2.07-3.33 2.895-5.1 1.835z" fill="#AFCDFB"/><path opacity=".6" d="M394.691 275.461H160.587c-5.755 0-10.42-5.093-10.42-11.376V49.575c0-6.284 4.665-11.376 10.42-11.376h234.104c5.755 0 10.42 5.092 10.42 11.376v214.51c0 6.283-4.665 11.376-10.42 11.376z" fill="#fff"/><path d="M405.108 64.522H150.163V46.687c0-4.69 3.482-8.493 7.779-8.493h239.386c4.297 0 7.78 3.802 7.78 8.493v17.835z" fill="#699DEE"/><path d="M160.473 51.2c0-1.74 1.291-3.149 2.884-3.149 1.594 0 2.884 1.41 2.884 3.15 0 1.739-1.29 3.148-2.884 3.148-1.593 0-2.884-1.41-2.884-3.149zm12.101 0c0-1.74 1.291-3.149 2.884-3.149 1.591 0 2.884 1.41 2.884 3.15 0 1.739-1.29 3.148-2.884 3.148-1.593 0-2.884-1.41-2.884-3.149zm12.1 0c0-1.74 1.291-3.149 2.884-3.149 1.594 0 2.885 1.41 2.885 3.15 0 1.739-1.291 3.148-2.885 3.148-1.593 0-2.884-1.41-2.884-3.149z" fill="#DDE7FE"/><path opacity=".5" d="M242.637 85.413h-72.269v78.898h72.269V85.413z" fill="#CDE0FB"/><path opacity=".5" d="M319.771 91.294h-57.483c-1.508 0-2.731-1.335-2.731-2.982 0-1.647 1.223-2.982 2.731-2.982h57.483c1.508 0 2.732 1.335 2.732 2.982 0 1.647-1.224 2.982-2.732 2.982zm68.74-3.999h-57.485c-1.508 0-2.732-1.336-2.732-2.983 0-1.646 1.224-2.982 2.732-2.982h57.485c1.508 0 2.732 1.336 2.732 2.983 0 1.646-1.224 2.982-2.732 2.982z" fill="#7C9AF2"/><path opacity=".3" d="M331.151 114.248h-69.825c-.977 0-1.769-.865-1.769-1.932s.792-1.932 1.769-1.932h69.825c.977 0 1.77.865 1.77 1.932s-.793 1.932-1.77 1.932zm26.542 0h-18.432c-.977 0-1.77-.865-1.77-1.932s.793-1.932 1.77-1.932h18.432c.978 0 1.77.865 1.77 1.932s-.792 1.932-1.77 1.932zm-70.022 11.986h-26.345c-.977 0-1.769-.865-1.769-1.932s.792-1.932 1.769-1.932h26.345c.977 0 1.77.865 1.77 1.932.002 1.067-.793 1.932-1.77 1.932zm42.674 0h-36.101c-.978 0-1.77-.865-1.77-1.932s.792-1.932 1.77-1.932h36.101c.977 0 1.769.865 1.769 1.932s-.792 1.932-1.769 1.932zm27.348 0h-18.432c-.977 0-1.77-.865-1.77-1.932s.793-1.932 1.77-1.932h18.432c.978 0 1.77.865 1.77 1.932s-.792 1.932-1.77 1.932zm-60.619 10.364h-35.748c-.977 0-1.769-.865-1.769-1.932s.792-1.932 1.769-1.932h35.748c.978 0 1.77.865 1.77 1.932s-.792 1.932-1.77 1.932zm68.264 0h-58.466c-.978 0-1.77-.865-1.77-1.932s.792-1.932 1.77-1.932h58.466c.977 0 1.77.865 1.77 1.932s-.793 1.932-1.77 1.932zm-34.187 15.726h-69.825c-.977 0-1.769-.865-1.769-1.932s.792-1.932 1.769-1.932h69.825c.977 0 1.77.865 1.77 1.932s-.793 1.932-1.77 1.932zm26.542 0h-18.432c-.977 0-1.77-.865-1.77-1.932s.793-1.932 1.77-1.932h18.432c.978 0 1.77.865 1.77 1.932s-.792 1.932-1.77 1.932zm-70.022 11.987h-26.345c-.977 0-1.769-.865-1.769-1.932s.792-1.932 1.769-1.932h26.345c.977 0 1.77.865 1.77 1.932.002 1.067-.793 1.932-1.77 1.932zm42.674 0h-36.101c-.978 0-1.77-.865-1.77-1.932s.792-1.932 1.77-1.932h36.101c.977 0 1.769.865 1.769 1.932s-.792 1.932-1.769 1.932z" fill="#BDD1F9"/><path d="M202.769 97.174h7.464l20.165 50.388h-8.511l-4.647-12.079h-21.67l-4.714 12.079h-8.25l20.163-50.388zm11.523 30.519l-7.921-20.011-7.858 20.011h15.779z" fill="#BDD1F9"/><path d="M210.737 180.204h-40.369v8.508h40.369v-8.508z" fill="#01BA57"/><path d="M210.737 188.712h-40.369v8.507h40.369v-8.507zm0 8.509h-40.369v8.508h40.369v-8.508z" fill="#01BA57"/><path d="M240.485 185.021h-22.211c-.93 0-1.683-.822-1.683-1.837 0-1.015.753-1.837 1.683-1.837h22.211c.93 0 1.683.822 1.683 1.837 0 1.015-.753 1.837-1.683 1.837zM233 191.497h-14.73c-.929 0-1.683-.823-1.683-1.837 0-1.015.754-1.837 1.683-1.837H233c.929 0 1.682.822 1.682 1.837 0 1.014-.753 1.837-1.682 1.837z" fill="#BDD1F9"/><path d="M210.737 224.196h-40.369v17.385h40.369v-17.385z" fill="#01BA57"/><path d="M210.737 237.287h-40.369v12.433h40.369v-12.433z" fill="#01BA57"/><path d="M170.368 224.196l14.483 13.281-14.483 12.246v-25.527z" fill="#01BA57"/><path d="M240.485 229.013h-22.211c-.93 0-1.683-.823-1.683-1.837 0-1.015.753-1.837 1.683-1.837h22.211c.93 0 1.683.822 1.683 1.837 0 1.014-.753 1.837-1.683 1.837zM233 235.491h-14.73c-.929 0-1.683-.823-1.683-1.837 0-1.015.754-1.837 1.683-1.837H233c.929 0 1.682.822 1.682 1.837 0 1.014-.753 1.837-1.682 1.837z" fill="#BDD1F9"/><path d="M407.685 59.681s1.051 13.681-1.805 13.475c-2.854-.207-8.491-6.229-19.867-5.25-11.375.98-25.293 3.698-33.706-12.557-8.413-16.254 10.759-20.93 10.759-20.93l44.619 25.263z" fill="#233862"/><path d="M383.503 58.681l57.317 5.145 1.193-2.783L387.06 16.76l-55.509-7.081-1.066 2.493 53.018 46.51z" fill="#2B478B"/><path d="M422.51 105.807c-.338-1.288-1.57-2.034-2.75-1.666-1.179.368-1.861 1.711-1.523 3.001.337 1.288 1.567 2.035 2.747 1.666 1.182-.37 1.863-1.713 1.526-3.001z" fill="#F99746"/><path d="M420.598 106.479c2.299-.194 2.836 22.643 2.836 22.643s-1.499.769-2.235.589c-.738-.181-1.112-3.265-1.112-3.265l-.072 3.234s-2.521.095-3.396-.575c0 0 .342-22.314 3.979-22.626z" fill="#F99746"/><path d="M421.35 106.995l-.415-49.894-.296-.243-29.941-24.177-1.075 1.587 29.642 23.938.668 48.701 1.417.088z" fill="#F99746"/><path d="M459.977 342.387H334.058v-52.23h126.339c10.211 0 18.489 9.037 18.489 20.185v11.402c0 11.399-8.468 20.643-18.909 20.643z" fill="#FCECDB"/><path d="M586.903 311.646v7.859c0 4.199-.966 8.13-2.655 11.511-3.394 6.802-9.704 11.371-16.929 11.371H330.178c-1.57 0-2.841-1.485-2.841-3.317v-1.176c0-1.83 1.271-3.318 2.841-3.318h144.559a21.954 21.954 0 002.029-3.562c1.354-2.98 2.118-6.378 2.118-9.986v-9.987c0-1.837-.203-3.62-.586-5.316-.646-2.876-1.806-5.509-3.352-7.757H330.178c-1.57 0-2.841-1.485-2.841-3.32v-1.174c0-1.834 1.271-3.319 2.841-3.319h238.334c8.398 0 15.483 6.58 17.682 15.567.461 1.885.709 3.871.709 5.924z" fill="#699DEE"/><path d="M586.194 305.725H478.299c-.647-2.876-1.807-5.509-3.353-7.757H330.178c-1.57 0-2.841-1.485-2.841-3.32v-1.174c0-1.834 1.271-3.319 2.841-3.319h238.334c8.4 0 15.483 6.58 17.682 15.57z" fill="#548EE2"/><path d="M334.056 316.271l17.56.879-17.56.528v-1.407zm0 8.196l41.773.877-41.773.53v-1.407z" fill="#F4D2B8"/><path d="M315.657 382.904h123.609v-40.626h-124.7c-9.262 0-16.769 8.196-16.769 18.307v2.823c.002 10.768 7.997 19.496 17.86 19.496z" fill="#01BA57"/><path d="M433.311 382.902H574.19v-40.627H432.926c-9.417 0-17.051 8.334-17.051 18.615v2.977c0 10.513 7.806 19.035 17.436 19.035z" fill="#FCECDB"/><path d="M406.567 382.902h172.378c1.43 0 2.59-1.267 2.59-2.828v-.423c0-1.561-1.16-2.828-2.59-2.828H406.567c-1.43 0-2.59 1.267-2.59 2.828v.423c.002 1.564 1.16 2.828 2.59 2.828zm0-34.55h172.378c1.43 0 2.59-1.267 2.59-2.828v-.423c0-1.561-1.16-2.828-2.59-2.828H406.567c-1.43 0-2.59 1.267-2.59 2.828v.423c.002 1.564 1.16 2.828 2.59 2.828z" fill="#01BA57"/><path d="M574.192 362.589l-19.194.684 19.194.411v-1.095zm-.001-9.349l-45.663.682 45.663.411v-1.093z" fill="#F4D2B8"/><path d="M529 353.787s1.956 1.746 2.605 4.615c.115.501.187 1.038.202 1.604.109 3.811 0 12.44 0 12.44l5.777-4.313 5.762 4.313v-11.694c0-2.21-.494-4.363-1.413-5.77-.444-.682-.983-1.195-1.595-1.195H529z" fill="#699DEE"/><path d="M529 353.787s1.956 1.746 2.605 4.615l11.578.171s-.455-4.109-2.843-4.786H529z" fill="#568CDB"/><path d="M423.944 290.266H302.283v-59.687h122.105c10.796 0 19.549 9.555 19.549 21.342v16.523c0 12.051-8.951 21.822-19.993 21.822z" fill="#FCECDB"/><path d="M444.006 253.738v12.846c-.03 5.487-2.359 10.247-5.781 12.792-1.685 1.248-3.633 1.963-5.701 1.963H298.556c-1.569 0-2.843 1.659-2.843 3.707v1.517c0 2.046 1.274 3.707 2.843 3.707h231.428c6.641 0 12.51-4.304 16.053-10.891 2.236-4.152 3.549-9.206 3.549-14.665v-10.135c0-3.74-.656-7.281-1.829-10.435-2.975-8.025-9.279-13.559-16.576-13.559H298.556c-1.569 0-2.843 1.656-2.843 3.702v1.516c0 2.046 1.274 3.707 2.843 3.707h134.375c3.211 0 6.119 1.783 8.15 4.634 1.796 2.524 2.906 5.887 2.925 9.594z" fill="#AFCDFB"/><path d="M295.713 285.045v1.516c0 2.047 1.274 3.708 2.843 3.708h231.428c6.641 0 12.51-4.304 16.054-10.891H438.225c-1.685 1.247-3.633 1.963-5.701 1.963H298.556c-1.569-.003-2.843 1.656-2.843 3.704z" fill="#A4C4F4"/><path d="M302.283 260.421l17.174 1.003-17.174.606v-1.609zm0-13.735l40.859 1.003-40.859.603v-1.606z" fill="#F4D2B8"/><path d="M342.718 247.489s-2.697 1.892-3.589 5.005a7.193 7.193 0 00-.281 1.739c-.148 4.133 0 13.489 0 13.489l-7.96-4.677-7.941 4.677v-12.678c0-2.398.682-4.729 1.946-6.257.614-.74 1.359-1.298 2.199-1.298h15.626z" fill="#F99746"/><path d="M342.719 247.489s-2.697 1.892-3.59 5.005l-15.953.185s.627-4.456 3.918-5.19h15.625z" fill="#ED7D2B"/><path d="M139.36 284.986s24.939 11.863 29.464 11.646c4.528-.216 32.42-9.275 32.42-9.275l-.71 5.238s-21.525 13.517-29.052 14.282c-7.41.756-32.744-7.26-35.191-8.952-2.447-1.692-4.04-11.226 3.069-12.939z" fill="#ED985F"/><path d="M135.611 241.351s-9.201-1.908-13.781 1.744c-8.299 6.618-8.746 29.431-11.856 32.83-3.111 3.398-10.61 1.948-11.278 19.533-.668 17.586 2.985 19.054-1.364 26.903-4.352 7.85 1.841 15.706 1.841 15.706s-2.536-4.332-1.45-7.462c0 0 1.056 6.903 5.072 8.522 4.016 1.618 4.61 2.804 5.253 5.178 0 0 34.268-19.17 34.305-32.766.037-13.597 6.743-27.064 3.45-32.958 0 0 1.467 2.522 1.645 5.326 0 0 1.977-4.133-1.449-7.98-3.424-3.847 4.018-11.811 2.914-21.031-.755-6.335-4.823-13.27-13.302-13.545z" fill="#233862"/><path d="M142.39 297.942c-2.19 1.658-4.937 3.027-8.385 3.895-12.923 3.26-17.875-8.665-19.736-16.851 1.763-1.101 3.42-1.343 4.377-1.469a39.111 39.111 0 012.73-.245c1.452-1.214 3.613-6.178 4.092-13.89l.608.179 10.184 3.044s-.465 3.533-.694 6.875c-.176 2.614-.205 5.111.248 5.724.795.188 1.271.312 1.271.312s0 .004.005.009c.141.245 3.095 5.549 5.3 12.417z" fill="#FFB27D"/><path d="M136.263 272.607s-.468 3.531-.694 6.875c-5.771-.63-8.448-6.628-9.491-9.919l10.185 3.044z" fill="#ED985F"/><path d="M137.987 275.925s-13.696-.825-13.095-10.128c.603-9.304-.759-15.677 8.011-15.542 8.77.133 10.237 3.814 10.729 6.972.489 3.159-2.066 18.672-5.645 18.698z" fill="#FFB27D"/><path d="M143.563 252.021c-1.931-2.964-3.57-2.474-4.519-1.704-7.183-5.074-12.436 1.183-12.436 1.183-1.353 6.604-6.014 10.083-6.014 10.083s2.384 1.878 8.237.713c1.789-.356 3.446-1.594 4.887-3.144-2.606 4.076-5.973 6.894-5.973 6.894 7.094-2.928 10.535-13.137 10.883-14.218.782.884 2.312 2.792 2.697 4.575.527 2.421 2.797 6.209 4.11 6.145-.002.002 1.023-6.081-1.872-10.527z" fill="#233862"/><path d="M110.367 328.34c-1.236-6.903-5.27-34.481-1.236-43.354 1.447-3.189 7.131-3.477 13.367-3.196 1.939 1.366 9.334 6.535 12.37 5.891.033-.008.092-.022.17-.043 1.43-.39 1.97-1.488.777-2.434-.002-.002 3.089-.325 6.924.464 2.166.444 8.008 3.745 8.008 3.745s-2.943 5.803-7.281 7.806c.738 7.206-.359 10.383-7.205 27.024-5.785 14.066.782 26.73.782 26.73s-34.057 29.892-34.246 14.672c-.144-11.457 9.15-28.481 7.57-37.305z" fill="#F9DDBF"/><path d="M138.731 383.477c1.852-.228 3.52-1.336 4.556-3.028l.527-.865c3.876-6.406 5.385-26.026 14.105-46.928 2.124-5.088 9.747-6.003 11.826-11.756 0 0 5.117-18.645-9.793-19.197-14.911-.548-39.932 51.879-40.326 57.378-.385 5.328-9.858 27.965 19.105 24.396z" fill="#0CAD57"/><path d="M197.991 383.049h-21.22s-.795-3.695.6-6.209c1.235-2.224.76-3.493-.152-5.333.962.43 2.205.82 3.574.735 1.058-.067 2.175-.59 3.156-1.212.915 1.136 4.824 5.976 6.047 6.934 1.385 1.088 7.569.701 7.995 5.085z" fill="#233862"/><path d="M170.227 307.093c1.278 10.459 6.269 43.469 15.071 59.574 2.839 5.192-7.15 8.103-7.205 8.087-1.338-.383-3.572-2.714-4.599-3.727-7.146-7.031-21.654-26.941-21.654-42.903 0-7.782-.126-22.647 5.059-26.425 3.193-2.327 12.821 1.24 13.328 5.394z" fill="#0CAD57"/><path d="M126.077 383.049s.786-1.195 2.157-3.464c1.633-2.7 3.437-8.009 5.629-14.817 2.303-7.146 5.033-15.938 8.446-25.087a242.785 242.785 0 013.361-8.536c2.124-5.088 7.966-4.385 10.045-10.138 0 0 8.111-19.943-6.798-20.491-14.91-.549-43.242 53.347-44.871 58.568-1.782 5.713-10.478 29.441 22.031 23.965z" fill="#01BA57"/><path d="M182.414 383.049h-21.221s-.792-3.695.601-6.209c1.234-2.224.76-3.493-.152-5.333.962.43 2.205.82 3.574.735 1.058-.067 2.174-.59 3.156-1.212.914 1.136 4.824 5.976 6.047 6.934 1.384 1.088 7.568.701 7.995 5.085z" fill="#2B478B"/><path d="M133.864 364.768c2.303-7.146 5.032-15.938 8.445-25.087-.89-6.932-2.814-12.994-6.047-15.44 0 .003-7.842 26.525-2.398 40.527z" fill="#0CAD57"/><path d="M157.84 306.352c1.278 10.458 3.078 44.21 11.881 60.315 2.838 5.192-7.151 8.103-7.205 8.086-1.339-.382-3.572-2.713-4.599-3.726-7.147-7.031-21.654-26.941-21.654-42.903 0-7.782 8.367-22.024 13.55-25.803 3.193-2.324 7.52-.123 8.027 4.031z" fill="#01BA57"/><path d="M140.551 270.573s-1.295-.558-4.939-.238c0 0 .194 1.552 2.88 1.707 1.523.088 2.059-1.469 2.059-1.469z" fill="#fff"/><path d="M203.907 276.398l-4.399-8.667-9.519 28.994 5.616 6.583 8.302-26.91z" fill="#163560"/><path d="M180.933 281.474l-8.846 27.592 23.517-5.758 8.302-26.91-22.973 5.076z" fill="#1C468A"/><path d="M172.555 307.676l-.411-.787 8.371-26.114.418.699-8.378 26.202z" fill="#EFDECE"/><path d="M180.516 280.775l22.296-4.736 1.095.359-22.973 5.076-.418-.699z" fill="#FCECDB"/><path d="M203.906 276.398l-4.759-8.244-3.032 9.306 6.696-1.421 1.095.359z" fill="#EFDECE"/><path d="M187.723 285.468c-.764-.161-2.405-.836-4.066-1.335.497-.421 1.047-.937 1.202-1.466.296-1.022.494-1.35-.494-1.027-.989.323-4.445 2.055-4.445 2.055s.006.005.009.005c-1.964.628-3.775 3.657-3.775 3.657s-24.314 9.333-27.239 9.492c-4.526.247-34.647-11.863-34.647-11.863-7.109 1.713-5.514 11.247-3.067 12.939 2.447 1.692 24.12 10.299 36.965 10.461 6.506.083 30.171-16.523 30.171-16.523s2.767-1.381 4.939-.948c2.173.432 7.212 0 8.298-1.942 1.088-1.941-2.566-3.234-3.851-3.505z" fill="#FFB27D"/><path d="M129.788 290.958s-2.694 9.31-11.945 11.428c0 0-15.279-5.138-7.671-16.502-.002 0 7.52-6.1 19.616 5.074z" fill="#F9DDBF"/><path d="M203.51 286.169a2.844 2.844 0 00-.083-.755s-2.179-3.765-2.893-3.917c-2.174-.468-2.174 2.657-1.713 4.672.322 1.405 1.139 2.752 1.8 3.479l-.087 2.945c3.673-2.201 2.976-6.424 2.976-6.424z" fill="#FFB27D"/><path d="M75.86 237.026c.869-23.467-17.148-33.895-35.57-33.895-18.42 0-38.468 5.212-40.205 36.416-1.117 20.076 8.685 32.428 36.91 32.428 9.519 0 16.918-1.64 22.586-4.563L73.69 281.1l-6.934-18.92c6.14-6.234 8.727-15.026 9.103-25.154z" fill="#EBF3FA"/><path d="M26.293 229.18v5.482h3.285v-5.482h1.339v12.785h-1.34v-5.977h-3.284v5.977h-1.338V229.18h1.338zm7.472 8.328c0 2.828 1.026 3.415 1.981 3.415.59 0 1.06-.152 1.391-.342l.227 1.062c-.47.266-1.182.437-1.86.437-2.015 0-3.058-1.801-3.058-4.61 0-2.959 1.165-4.819 2.85-4.819 1.702 0 2.398 1.972 2.398 4.021 0 .361-.017.606-.035.834h-3.894v.002zm2.64-1.081c.018-1.82-.607-2.638-1.25-2.638-.887 0-1.322 1.385-1.374 2.638h2.625zm2.732-7.588h1.338v13.127h-1.338v-13.127zm3.317 0h1.339v13.127h-1.339v-13.127zm8.479 8.536c0 3.548-1.496 4.743-2.797 4.743-1.513 0-2.728-1.499-2.728-4.724 0-3.339 1.374-4.743 2.815-4.743 1.51 0 2.71 1.537 2.71 4.724zm-4.188 0c0 1.519.244 3.586 1.46 3.586 1.147 0 1.391-2.143 1.391-3.586 0-1.404-.244-3.567-1.426-3.567-1.199 0-1.425 2.163-1.425 3.567zm398.121-70.778c.794-21.454-15.677-30.986-32.518-30.986s-35.169 4.765-36.758 33.291c-1.021 18.353 7.94 29.645 33.745 29.645 8.703 0 15.468-1.499 20.648-4.17l12.9 12.514-6.341-17.295c5.614-5.701 7.98-13.741 8.324-22.999z" fill="#91B5F8"/><path d="M439.623 279.793c3.996 7.719 9.066 10.727 9.066 10.727l21.17.164c0-.002-33.286-16.779-30.236-10.891z" fill="#233862"/><path d="M455.497 339.402c.546.694.612 1.467.335 2.289 0 .002-.002.009-.006.012-.516 1.518-2.194 3.208-4.143 4.89-.248.217-.47.414-.664.597-.05.047-.102.095-.148.145-.039.038-.076.076-.115.111-1.82 1.804-1.141 2.227-4.412 5.891-3.729 4.176-6.278 4.233-7 3.843-.612-.33.648-2.552 2.046-5.047l.202-.364.555-1.003c1.637-3.004 1.232-4.422.877-8.916-.287-3.65-5.067-20.422-5.067-20.422l7.103-1.279s2.05 13.341 4.39 15.411c1.252 1.102 2.66 1.129 3.866 1.948.085.058.17.117.25.176.686.504 1.382 1.022 1.931 1.718z" fill="#FFB27D"/><path d="M455.498 339.402c.547.694.612 1.467.335 2.289 0 .002-.002.009-.006.012-.629 1.516-2.266 3.196-4.149 4.876-.246.221-.463.423-.657.611-.05.047-.102.095-.148.145-.039.038-.076.076-.116.111-1.819 1.804-1.14 2.227-4.412 5.891-3.728 4.176-6.277 4.233-7 3.843-.612-.33.649-2.552 2.046-5.047.723-.283 4.079-1.742 6.633-5.257 2.248-3.089 3.761-7.067 5.293-9.365.085.057.17.116.251.176.685.501 1.382 1.019 1.93 1.715z" fill="#233862"/><path d="M398.329 334.124c-.453 2.389-3.572 1.966-7.053 1.008-3.48-.958-2.66.155-7.618-.482-4.959-.637-6.45-2.669-6.596-3.477-.13-.715 2.323-.948 4.957-1.259.33-.039.663-.081.996-.122 2.974-.385 5.161-2.459 7.869-4.156 2.567-1.609 6.422-8.21 6.422-8.21l6.802.641s-3.611 5.896-5.009 8.46c-.823 1.509-.792 3.512-.701 5.059.046.839.092 1.697-.069 2.538z" fill="#FFB27D"/><path d="M391.276 335.132c-3.481-.958-2.66.155-7.618-.482-4.959-.637-6.45-2.669-6.596-3.477-.13-.715 2.323-.948 4.957-1.259l.023.054s2.963 2.327 7.092 2.467c3.368.116 6.94-.91 9.264-.851.048.841.092 1.702-.069 2.54-.453 2.389-3.572 1.966-7.053 1.008zm33.443-48.319l6.243 18.74 8.149 24.47s2.253.254 4.417-.406c1.991-.611 4.284-2.237 4.284-2.237s-2.138-26.223-6.343-41.299c-1.078-3.868-2.295-7.003-3.646-8.771-6.618-8.655-13.104 9.503-13.104 9.503z" fill="#233862"/><path d="M431.381 257.177c4.177-1.435 16.055.54 27.981 3.185l2.53-4.484 25.809-2.001s8.378 20.674 3.635 33.77c-.697 1.925-2.399 2.726-4.719 2.75-.002.002-.002.002-.002.005 0 0-15.396.292-20.381.254-12.829-.1-27.087-9.836-28.937-10.257-3.028-.684-4.284 5.927-7.362 12.854-3.077 6.93-28.704 30.568-28.704 30.568s-3.916.011-5.529-.663c-1.735-.725-2.364-1.654-2.364-1.654s28.622-61.088 38.043-64.327z" fill="#2B478B"/><path d="M462.294 217.097c9.151 5.592 27.711 17.184 27.809 17.11 0 0 6.831 2.871 10.736.084 6.506-4.646 10.061-17.258-1.713-28.225-5.873-5.47-10.061-6.822-10.642-15.487-.316-4.7-6.099-20.253-15.884-18.894-.818.114-1.641.192-2.464.157a8.544 8.544 0 00-4.969 1.359c-5.557 3.553-16.63 41.651-2.873 43.896z" fill="#233862"/><path d="M470.023 212.456c-.042.029 4.508 1.764 7.566.312 2.877-1.362 5.085-6.497 5.041-6.5-1.304-.076-2.73-1.333-3.779-9.512l-.557.214-9.366 3.597s.655 3.277 1.073 6.398c.352 2.616.533 5.126.022 5.491z" fill="#FFB27D"/><path d="M468.928 200.565s.398 2.298.953 5.58c5.372-1.013 7.636-6.017 8.413-9.178l-9.366 3.598z" fill="#ED975D"/><path d="M467.516 203.804s12.794-1.775 11.658-10.456c-1.134-8.681-.248-14.757-8.465-13.992-8.217.765-9.366 4.325-9.634 7.324-.266 2.996 3.084 17.361 6.441 17.124z" fill="#FFB27D"/><path d="M461.574 181.929s8.132 7.762 13.693 8.425c5.562.663 7.682-1.272 7.682-1.272s-3.261-2.999-5.204-7.813c-.573-1.419-1.796-2.4-3.211-2.543-3.97-.404-11.504-.635-12.96 3.203z" fill="#233862"/><path d="M466.693 181.278s-2.755 2.869-3.633 5.005c-.844 2.063-1.127 7.006-.476 8.976 0 0-4.208-9.088-1.763-13.467 2.59-4.644 5.872-.514 5.872-.514z" fill="#233862"/><path d="M459.127 232.929c.204 28.25-.04 22.345 2.775 25.049.677.651 2.592 1.051 5.115 1.253 7.93.637 21.887-.685 22.427-2.282 1.865-5.525.585-7.255 2.166-15.722.165-.9.368-1.875.607-2.937 1.31-5.815 2.562-7.785-1.894-17.179-4.042-8.507-8.252-15.418-8.635-15.173-10.851 6.92-11.684 1.027-11.684 1.027s-10.977 12.183-10.877 25.964z" fill="#F9DDBF"/><path d="M430.961 305.553l8.15 24.47s2.253.254 4.417-.406c1.991-.611 4.283-2.237 4.283-2.237s-2.137-26.223-6.343-41.299l-10.507 19.472z" fill="#2B478B"/><path d="M470.002 206.962s-11.132 1.973-12.472 7.189c-1.339 5.216-9.221 35.883-9.221 35.883s5.646 1.153 8.276-1.678c2.629-2.83 9.257-26.377 9.257-26.377l4.16-15.017z" fill="#F9DDBF"/><path d="M467.018 259.228c7.929.637 21.886-.684 22.426-2.281 1.866-5.525.586-7.255 2.166-15.722l-3.751-11.794s.549 13.106-3.012 16.523c-3.557 3.417-14.532 6.54-16.271 9.405-.838 1.376-1.393 2.759-1.558 3.869z" fill="#F2CCAA"/><path d="M476.142 253.789s-7.814-1.963-9.083-1.215c-1.267.749-4.373 3.487-4.765 4.444-.392.958 2.816-.708 3.859-1.005.675-.192 2.445.494 3.32.82 3.685 1.373 5.953.699 5.953.699l.716-3.743z" fill="#FFB27D"/><path d="M481.694 205.931s10.505.789 14.108 6.357c5.072 7.837 15.017 41.151 9.164 45.541-6.589 4.94-29.854 1.076-29.854 1.076s-.749-3.961.342-5.865c1.09-1.903 18.633-4.859 19.447-5.736.814-.877-9.998-17.293-9.981-19.943.018-2.65-3.226-21.43-3.226-21.43z" fill="#F9DDBF"/><path d="M466.664 254.951s-1.655 2.298-2.194 2.569c-.54.271-.887.199-.887.199l1.119-2.162 1.962-.606zm.394-2.377l-4.784 2.491s.2.363.788.34c.588-.024 2.072-.604 2.072-.604l1.924-2.227z" fill="#FFB27D"/><path d="M465.492 261.246l-37.721-.29-11.146-30.891 37.661.29 11.206 30.891z" fill="#01BA57"/><path d="M427.339 259.753l49.808.383-.007 1.2-49.367-.38-.434-1.203z" fill="#01BA57"/><path d="M437.393 245.628c-.277-1.086.302-1.958 1.293-1.951.992.007 2.02.894 2.298 1.98.277 1.086-.302 1.958-1.293 1.951-.99-.01-2.02-.896-2.298-1.98z" fill="#fff"/><path d="M236.263 358.449l-.005 24.873 114.604.025.005-24.873-114.604-.025z" fill="#C65447"/><path d="M236.259 383.327l-16.843-7.865-9.798-4.575 10.028-4.679 16.619-7.754s2.219 6.057 2.251 11.751c.05 8.938-2.257 13.122-2.257 13.122zm127.929-16.599l-.002 7.863c0 4.836-3.594 8.757-8.023 8.757h-5.301l.005-24.873h5.766c4.173.002 7.555 3.697 7.555 8.253z" fill="#FCECDB"/><path d="M219.646 366.203c.418 2.514.78 6.364-.23 9.254l-9.798-4.575 10.028-4.679z" fill="#2B478B"/><path d="M260.897 228.949s2.053 9.724 8.037 9.724c5.128 0 12.166-12.657 12.166-12.657l-20.203 2.933z" fill="#F99746"/><path d="M329.597 372.574l-3.844 2.885s-18.489-21.515-22.954-42.138c-.796-3.683-1.118-7.314-.777-10.76 0 0-.27-.934-.742-2.585-.022-.072-.041-.148-.063-.221-.207-.725-.455-1.578-.729-2.543-.897-3.116-2.129-7.381-3.531-12.236-3.232-11.174-10.622-36.373-13.781-46.853l22.699-8.966s2.577 6.419 6.282 23.864c.57 2.276 1.143 4.795 1.676 7.538a158.64 158.64 0 011.641 10.175 170.175 170.175 0 011.361 20.889c.013 3.122-.057 6.359-.227 9.698-.124 2.45.209 5.712.834 9.424 2.86 16.977 12.155 41.829 12.155 41.829z" fill="#2B478B"/><path d="M341.688 382.942h-18.352s-.686-3.196.518-5.37c1.067-1.925.657-3.021-.133-4.613.832.371 1.907.711 3.091.635.914-.057 1.881-.511 2.73-1.048.79.984 4.173 5.168 5.228 5.995 1.202.946 6.55.611 6.918 4.401zm-26.214-92.205l-14.257 29.018c-.207-.725-.455-1.578-.729-2.543-.897-3.115-2.129-7.381-3.531-12.236-3.232-11.174-10.622-36.373-13.781-46.853l22.699-8.966s2.577 6.419 6.282 23.864c.57 2.276 1.143 4.795 1.676 7.538.605 3.11 1.171 6.509 1.641 10.178zm-32.668 85.934s-1.271 3.403-.074 6.271h9.983s.207-2.588-3.416-5.587c-2.744-2.271-6.493-.684-6.493-.684z" fill="#233862"/><path d="M293.668 155.152c.006-.541.261-6.392 8.402-6.91 0 0-3.995.627-4.645 2.569 0 0 2.675-2.448 4.915-1.742 2.237.706 3.637 4.921 3.681 6.319.043 1.397-1.091 5.936-2.493 6.354-.531.159-1.147.136-1.706.048a21.42 21.42 0 011.14 2.103c3.411 7.2.468 15.682-2.301 14.966-1.776-.458-2.855 2.902-2.855 2.902l-17.083-16.038c0 .002 5.983-14.394 12.945-10.571z" fill="#2C3A64"/><path d="M282.93 203.885c1.894 1.435 4.269 2.616 7.251 3.367 11.175 2.819 15.459-7.493 17.067-14.572-1.523-.953-2.958-1.162-3.785-1.269a33.004 33.004 0 00-2.362-.211c-1.256-1.051-3.125-5.345-3.537-12.013l-.527.155-8.807 2.63s.403 3.056.601 5.946c.153 2.26.177 4.422-.215 4.95-.688.162-1.099.268-1.099.268s0 .003-.005.01c-.12.214-2.675 4.803-4.582 10.739z" fill="#FFB27D"/><path d="M288.229 181.977s.405 3.054.601 5.946c4.989-.544 7.305-5.732 8.206-8.577l-8.807 2.631z" fill="#ED985F"/><path d="M288.126 186.566s11.489-3.223 9.541-11.003c-1.948-7.78-1.779-13.436-9.197-11.706-7.418 1.728-8.093 5.121-8.021 7.89.072 2.768 4.639 15.456 7.677 14.819z" fill="#FFB27D"/><path d="M279.701 167.32c1.18-2.871 2.645-2.757 3.57-2.277 5.307-5.627 10.731-1.286 10.731-1.286 2.168 5.352 6.659 7.443 6.659 7.443s-1.73 2.032-6.876 2.122c-1.572.029-3.169-.717-4.63-1.765 2.841 2.975 6.132 4.745 6.132 4.745-6.469-1.176-10.967-9.201-11.428-10.054-.527.893-1.528 2.792-1.58 4.377-.072 2.151.696 6.305-.427 6.492 0 0-3.92-5.494-2.151-9.797z" fill="#2C3A64"/><path d="M284.822 192.492s19.294-5.114 27.683 2.441l-4.192 63.837-37.736-9.953s1.062-4.04 8.298-14.781c7.237-10.741 4.09-26.496 5.947-41.544z" fill="#FFB27D"/><path d="M296.069 251.664l-.061.63-.063.642c-.163 1.654-.47 4.828-.866 8.956-1.036 10.827-2.66 28.215-3.768 41.941-.866 10.732-1.417 19.225-1.119 20.589.895 4.104 0 53.162 0 53.162-3.206 1.68-8.069 0-8.069 0s-8.544-44.21-7.346-50.353c1.195-6.146-.799-11.39-.799-11.39-6.633-33.723-5.908-52.416-4.589-61.363.383-2.602.817-4.38 1.134-5.463.268-.922.455-1.343.455-1.343 14.628-4.299 25.091 3.992 25.091 3.992z" fill="#2B478B"/><path d="M315.107 213.141c-.932 7.68-4.659 17.076-5.989 22.136 0 0 2.225 17.561.101 22.385-.242.551-.54.934-.906 1.107-7.869 3.743-38.51.11-39.803-10.684-.471-3.921 11.671-17.713 12.379-19.386.293-.692.607-2.937-.817-7.586-2.017 6.792-13.154 4.839-13.154 4.839 1.306-2.443 4.565-19.334 8.2-26.96 2.734-5.732 10.033-6.564 10.033-6.564s3.038 5.262 10.385 4.515c7.346-.746 8.691-5.655 8.691-5.655s6.517.945 8.524 2.713c.346.307 3.579 9.078 2.356 19.14z" fill="#01BA57"/><path d="M309.118 235.277s2.225 17.561.1 22.385c-5.733-3.141-10.25-11.639-9.207-21.104.77-6.999 1.917-8.593 5.346-12.598 2.521-2.942 8.345-3.108 7.888-1.708-1.358 4.166-3.424 10.354-4.127 13.025z" fill="#0CAD57"/><path d="M285.189 214.51l13.139 23.01h-22.357l-12.518-22.514 21.736-.496z" fill="#1C468A"/><path d="M297.645 236.365l.226-.803-12.433-21.777-.248.725 12.455 21.855z" fill="#EFDECE"/><path d="M285.438 213.785l-21.06.653-.925.568 21.736-.496.249-.725z" fill="#FCECDB"/><path d="M263.453 215.006l-11.813-6.982 13.772 23.612 10.559 5.884-12.518-22.514z" fill="#163560"/><path d="M325.975 231.132c-1.265.633-4.515 4.808-5.673 5.233-5.213 1.904-27.398-3.163-27.398-3.163l.688-4.242s21.775.633 24.168-.068c.45-.134 2.803-4.152 3.709-4.727l4.506 6.967z" fill="#FFB27D"/><path d="M293.591 228.958s-2.625-2.334-4.399-1.806-4.386 2.978-5.355 3.557c-.969.58-3.602 2.655-2.268 3.91 1.334 1.254 5.492.178 7.137-.785 1.646-.962 4.199-.634 4.199-.634l.686-4.242z" fill="#FFB27D"/><path d="M289.693 227.078s-3.191-.416-4.064-.397c-.871.019-.636.229-.154.968.481.739 2.141 1.019 2.218 1.278.076.259 2-1.849 2-1.849z" fill="#FFB27D"/><path d="M304.225 191.288s9.464 1.226 12.069 5.655c3.296 5.601 11.071 27.913 10.821 33.536 0 0-5.686 10.563-25.178 8.871 0 0-2.029-7.821 2.072-10.404 0 0 10.013-1.944 11.167-3.054l-8.163-16.197-2.788-18.407z" fill="#01BA57"/><path d="M266.481 223.419c-.294-1.303-2.893-.49-3.77.261-.214.183-.442.492-.666.855a11.56 11.56 0 01-.064-.589c-.05-.611-.7-1.706-.864-.886-.161.82-.429 4.265-.429 4.265-.032 2.776 1.603 3.921 2.652 3.018 1.051-.905 3.435-5.622 3.141-6.924z" fill="#FFB27D"/><path d="M400.048 160.038v5.482h3.284v-5.482h1.339v12.785h-1.339v-5.977h-3.284v5.977h-1.339v-12.785h1.339zm7.472 8.328c0 2.828 1.025 3.415 1.981 3.415.59 0 1.06-.152 1.391-.342l.226 1.062c-.47.266-1.182.437-1.859.437-2.016 0-3.058-1.801-3.058-4.61 0-2.959 1.164-4.819 2.849-4.819 1.702 0 2.399 1.972 2.399 4.021 0 .361-.018.606-.035.834h-3.894v.002zm2.64-1.081c.018-1.82-.607-2.638-1.251-2.638-.886 0-1.322 1.385-1.374 2.638h2.625zm2.731-7.588h1.339v13.127h-1.339v-13.127zm3.317 0h1.339v13.127h-1.339v-13.127zm8.479 8.536c0 3.548-1.495 4.743-2.797 4.743-1.513 0-2.727-1.499-2.727-4.724 0-3.339 1.373-4.743 2.814-4.743 1.511 0 2.71 1.537 2.71 4.724zm-4.188 0c0 1.519.244 3.586 1.461 3.586 1.147 0 1.391-2.143 1.391-3.586 0-1.404-.244-3.567-1.426-3.567-1.2 0-1.426 2.163-1.426 3.567z" fill="#fff"/></svg>