<svg width="697" height="554" fill="none" xmlns="http://www.w3.org/2000/svg"><g clip-path="url(#clip0)"><path d="M483.776 277.933c2.548 9.563-.797 20.402-8.281 26.937-4.777 4.303-11.147 6.854-15.606 11.476-5.732 6.057-7.325 15.461-4.777 23.431 2.548 7.969 8.759 14.504 16.243 18.011 10.191 4.941 22.931 4.463 32.804-1.116 12.261-7.013 19.427-20.88 21.338-34.907 1.752-14.026-1.115-28.212-4.777-41.92m118.317 245.783c12.739-2.072 24.682 1.753 37.262 4.622 3.344.797 7.007 1.435 10.351.479 5.414-1.435 9.395-6.695 10.191-12.274.797-4.781-.477-9.882-3.185-14.026-1.114-1.753-2.547-3.347-4.299-4.304-1.911-1.115-3.981-1.434-6.051-1.594-7.644-.796-15.447.957-22.453 4.304-7.007 3.347-13.217 8.129-18.632 13.548-2.866 2.551-2.07 5.579-3.184 9.245zm-258.29-205.935c-2.07-12.113-1.752-24.546.796-36.66 1.274-5.897 3.026-11.635 6.37-16.736 1.114-1.753 2.707-3.507 4.618-4.463 2.707-1.116 6.051-.159 8.28 1.913 2.867 2.709 3.981 6.854 3.981 10.679-.159 3.985-1.433 7.651-2.866 11.317-5.096 13.07-12.739 23.431-21.179 33.95z" fill="#263238"/><path d="M627.571 365.917c2.866 2.072 67.04 140.106 67.04 140.106-5.095-2.232-10.828-2.71-16.242-1.594l-3.504.956c-6.21 1.594-12.102 4.304-17.516 7.97l-18.313 12.433c-1.433-.797-2.388-2.391-2.548-3.985v-.478l-49.683-85.275 40.766-70.133z" fill="#FF609B"/><path d="M387.275 146.115l17.039 97.07c5.574 13.07 69.589 92.288 69.589 92.288l-21.179 68.061-84.08-115.241c-7.803-8.288-12.102-19.446-11.784-30.922l3.344-103.764 27.071-7.492z" fill="#FFBE9D"/><path d="M478.044 320.331l43.95 3.347 38.377 5.898s67.2 17.692 67.2 25.024c0 2.391-18.313 60.888-28.663 95.954-4.459 15.143-6.211 25.822-6.211 25.822l34.715 77.305H462.279v-70.929s-11.147-92.926-9.236-105.678c1.91-12.751 25.001-56.743 25.001-56.743z" fill="#FF609B"/><path d="M366.415 106.905c.319-9.883 1.274-19.765 3.026-29.488.318-1.434.796-3.028 2.229-3.188 1.752-.16 2.548 1.913 2.866 3.666 1.593 11.636.956 23.75-1.433 35.226" fill="#EB996E"/><path d="M386.002 312.521c18.79-16.896 19.427-46.065 17.835-69.336-.159-1.753-.319-3.666.796-4.941 1.752-2.55 6.21-1.594 7.962.956 1.752 2.551 1.593 6.057 1.433 9.086.956-2.71 5.096-2.71 7.007-.638 1.911 2.072 2.229 5.101 2.548 7.97.159 2.55.477 5.26.637 7.81l55.097 52.599s1.593-4.781 5.574-2.072c3.981 2.71 6.688 8.607 6.688 8.607l-38.855 84.797-71.977-87.666s2.229-4.303 5.255-7.172z" fill="#FF609B"/><path d="M460.686 371.177c-5.574 7.491-10.192 15.78-12.58 24.706-2.389 8.926-2.548 18.808.796 27.415 4.618 12.274 16.243 21.678 29.141 23.59" fill="#FF609B"/><path d="M639.036 525.628l-2.07 28.213h40.766l9.554-49.89a52.045 52.045 0 00-34.555 10.838l-13.695 10.839z" fill="#FFBE9D"/><path d="M405.27 306.305s.318-.797.955-2.232 1.433-3.507 2.389-6.057c.955-2.55 2.07-5.738 3.025-9.245.956-3.506 1.752-7.491 2.389-11.635.637-4.144.955-8.129.955-11.795 0-3.666 0-7.014-.159-9.723-.159-2.71-.478-4.941-.637-6.535-.159-1.594-.318-2.391-.159-2.391 0 0 .318.797.478 2.391.318 1.594.637 3.825.955 6.535.319 2.709.478 6.057.478 9.723 0 3.666-.319 7.65-.956 11.954-.637 4.144-1.592 8.129-2.548 11.636-.955 3.506-2.07 6.694-3.184 9.244-1.115 2.551-2.071 4.623-2.708 6.057-.796 1.435-1.273 2.073-1.273 2.073zm11.943-14.824c-.16 0 .637-1.594 1.751-3.985 1.115-2.55 2.389-6.057 3.185-10.042.956-3.984 1.274-7.65 1.433-10.36.16-2.71.16-4.304.319-4.304s.318 1.594.318 4.463c0 2.71-.318 6.535-1.274 10.52-.955 4.144-2.388 7.651-3.503 10.042-1.274 2.391-2.229 3.825-2.229 3.666zm64.652 44.152c-.159 0 .478-1.116.956-3.029.477-1.913.318-4.622-.478-7.332-.796-2.869-2.07-5.26-2.707-7.013-.797-1.754-1.274-2.869-1.115-3.029.159 0 .637.957 1.592 2.71.956 1.753 2.23 4.144 3.026 7.013.796 2.869.796 5.738.159 7.811-.477 1.912-1.274 2.869-1.433 2.869zm-9.555 112.212l-.637-.319c-.477-.319-1.114-.797-1.911-1.275-1.592-1.116-3.981-2.71-6.688-4.941-2.707-2.232-5.892-4.942-8.917-8.608-3.026-3.666-5.574-8.129-6.848-13.548-1.274-5.26-1.433-10.52-.955-15.142.478-4.623 1.592-8.767 2.707-12.114 1.115-3.347 2.229-5.897 3.026-7.81.477-.957.796-1.594.955-2.072.159-.478.319-.638.319-.638s-.319.957-1.115 2.869c-.637 1.754-1.752 4.463-2.707 7.81-.956 3.348-2.07 7.332-2.548 11.955-.478 4.622-.319 9.723.955 14.823 1.274 5.101 3.822 9.564 6.688 13.23 2.867 3.507 6.052 6.376 8.759 8.607 2.707 2.232 4.936 3.985 6.529 5.101.637.478 1.274.956 1.751 1.434l.637.638zm90.291 15.78s-.16.159-.637.318c-.478.16-1.115.319-2.07.479-1.752.478-4.459.796-7.803.956-6.529.319-16.084-1.275-24.842-6.695-8.599-5.578-14.172-13.389-16.72-19.445-1.274-3.029-2.07-5.579-2.548-7.492-.159-.956-.319-1.594-.478-2.072 0-.478-.159-.797 0-.797 0 0 .319.956.796 2.71a43.98 43.98 0 002.707 7.332c2.708 5.897 8.122 13.707 16.562 19.127 8.439 5.419 17.835 7.013 24.364 6.854 3.344 0 5.891-.319 7.802-.638 1.752-.478 2.707-.637 2.867-.637zm25.319 31.081c-.159 0 1.911-8.926 4.777-19.605 2.866-10.839 5.255-19.605 5.574-19.446.159 0-1.911 8.926-4.778 19.605-2.866 10.68-5.414 19.446-5.573 19.446z" fill="#263238"/><path d="M610.214 475.898c-.159.159-6.529-10.361-14.332-23.431-7.643-13.07-13.854-23.749-13.535-23.749.159-.16 6.529 10.36 14.331 23.43 7.644 13.07 13.695 23.59 13.536 23.75zm60.989 25.821c0 .16-2.389.319-5.892 1.275-1.751.479-3.981 1.116-6.21 2.073a60.925 60.925 0 00-7.166 3.666c-2.389 1.594-4.618 3.187-6.37 4.941-1.751 1.753-3.344 3.347-4.618 4.782-2.388 2.869-3.503 4.941-3.662 4.781 0 0 .159-.478.796-1.434.478-.957 1.433-2.232 2.548-3.666 1.114-1.594 2.707-3.188 4.459-4.941 1.91-1.754 3.981-3.507 6.528-4.942 2.389-1.594 4.937-2.709 7.325-3.666 2.389-.956 4.459-1.594 6.37-1.912 1.911-.319 3.344-.638 4.459-.638.796-.319 1.433-.319 1.433-.319zm7.803-9.563c0 .159-2.548-.16-6.688.159-2.07.16-4.459.638-7.007 1.275-2.547.797-5.414 1.754-8.28 3.029-2.707 1.434-5.255 3.028-7.325 4.781-2.07 1.754-3.822 3.348-5.255 4.942-2.707 3.028-3.981 5.26-4.14 5.26l.796-1.594c.318-.479.637-1.116 1.114-1.754.478-.637.956-1.434 1.752-2.231 1.274-1.594 3.026-3.347 5.255-5.101 2.07-1.753 4.618-3.347 7.484-4.941 2.867-1.434 5.733-2.391 8.44-3.028a46.543 46.543 0 017.166-1.116c1.115-.159 1.911 0 2.866 0 .797 0 1.593 0 2.071.159 1.114 0 1.751.16 1.751.16z" fill="#263238"/><path opacity=".3" d="M509.095 432.224c-3.821 7.173-.637 15.78 2.867 23.112 2.707 5.579 5.573 11.317 10.51 15.302 4.777 3.825 11.146 5.579 17.198 4.782 6.051-.797 11.784-4.304 15.287-9.405-20.224.16-39.811-13.707-46.499-32.834m73.729-4.463c-2.866 6.854-.637 16.258 2.23 22.952 3.025 6.854 6.21 14.345 3.822 21.359-.478 1.275-1.115 2.709-.956 3.985.159 1.434 1.593 2.709 2.866 2.072.637-.319.956-1.276 1.274-1.913 2.23-6.854 4.459-13.708 6.848-20.402" fill="#000"/><path d="M431.704 338.661c-.159 0 .478-5.738 1.592-12.751 1.115-7.014 2.23-12.592 2.389-12.592.159 0-.478 5.738-1.592 12.751-1.115 7.013-2.23 12.592-2.389 12.592zm-16.88-3.507c-.159.16-2.866-3.666-6.688-8.129-3.822-4.463-7.166-7.65-7.007-7.81.159-.159 3.822 2.869 7.644 7.332 3.822 4.463 6.21 8.448 6.051 8.607zm14.491-41.123c.16 0-.636 1.116-1.751 2.869-1.274 1.754-3.026 3.985-5.096 6.376-2.07 2.391-3.981 4.463-5.573 6.057-1.434 1.434-2.389 2.391-2.548 2.231-.159-.159 3.344-3.984 7.484-8.766 4.14-4.782 7.166-8.767 7.484-8.767zm-5.733-19.924c-.159.16-1.114-1.912-2.866-3.985-1.752-2.072-3.663-3.187-3.503-3.506.159-.16 2.229.797 4.14 2.869 1.911 2.231 2.548 4.463 2.229 4.622zm-14.49 12.273c0 .16-1.752.638-4.14 1.116-2.389.319-4.3.478-4.3.319 0-.159 1.752-.638 4.14-1.116 2.389-.478 4.3-.478 4.3-.319zm36.625 17.693c-.318 0 .319-3.347-.478-7.492-.796-3.984-2.866-6.853-2.548-7.013.16-.159 2.548 2.55 3.345 6.854.955 4.304-.16 7.81-.319 7.651zm19.587 21.04c-.159.159-1.911-3.188-5.096-6.535-3.185-3.188-6.529-4.942-6.37-5.101 0-.159 3.663 1.275 7.007 4.622 3.344 3.348 4.618 7.014 4.459 7.014zm-31.371 36.66c0 .159-3.184 1.434-7.325 1.275-4.14-.159-7.325-1.594-7.325-1.753 0-.319 3.185.797 7.325.956 3.981 0 7.166-.797 7.325-.478zm14.65 7.491c-.159-.159.956-3.825 2.071-8.447 1.114-4.623 1.433-8.448 1.751-8.448.159 0 .159 3.985-.955 8.607-.956 4.782-2.548 8.448-2.867 8.288zm32.327 1.275c-.16.16-3.344-3.028-7.007-7.013-3.662-3.985-6.529-7.491-6.37-7.651.16-.159 3.344 3.029 7.007 7.014 3.663 4.144 6.529 7.491 6.37 7.65zm14.969 37.298c-.16.16-2.548-1.912-5.255-4.782-2.707-2.869-4.778-5.259-4.618-5.419.159-.159 2.548 1.913 5.255 4.782 2.707 2.869 4.777 5.26 4.618 5.419zm-27.868 3.507c.159.159-2.548 2.55-6.37 4.782-3.821 2.231-7.325 3.347-7.325 3.188-.159-.16 3.185-1.594 7.007-3.826 3.662-2.231 6.529-4.303 6.688-4.144zm12.739 35.385c-.318 0 .637-4.304 1.115-9.564.478-5.259.319-9.563.637-9.563.159 0 .796 4.304.319 9.563-.478 5.579-1.752 9.723-2.071 9.564zM529 418.038c-.159.16-3.503-2.231-6.847-6.057-3.344-3.825-5.255-7.491-5.096-7.65.159-.16 2.389 3.347 5.733 7.172 3.344 3.666 6.369 6.217 6.21 6.535zm17.676 14.983c-.159-.159 2.23-3.506 4.937-7.651 2.707-4.303 4.777-7.81 4.936-7.65.16.159-1.433 3.825-4.14 8.129-2.866 4.144-5.573 7.332-5.733 7.172zm-2.547-36.819c0 .159-3.663-.638-8.122-1.754-4.458-1.115-7.962-2.391-7.803-2.55 0-.159 3.663.638 8.122 1.753 4.299 1.275 7.803 2.391 7.803 2.551zm-12.899 64.713c-.159 0-.159-3.347 0-7.492.318-4.144.637-7.491.796-7.491.159 0 .159 3.347 0 7.491-.159 4.145-.478 7.492-.796 7.492zm11.147 22.155c-.159-.159 1.433-3.347 2.07-7.81.637-4.463-.159-8.129.159-8.129.16 0 1.274 3.666.637 8.289-.637 4.622-2.707 7.81-2.866 7.65zm-28.823-4.781c-.159 0-.637-3.666.159-8.289.796-4.463 2.707-7.81 2.866-7.651.16.16-1.273 3.507-2.07 7.811-.796 4.463-.637 8.129-.955 8.129zm-26.275 11.157c-.159.159-3.344-2.55-7.484-5.738-4.14-3.188-7.484-5.738-7.325-5.897.159-.16 3.822 2.072 7.962 5.259 3.981 3.188 7.007 6.217 6.847 6.376zm17.835-31.241c.159.16-4.14 2.71-9.395 5.42-5.255 2.869-9.555 4.941-9.714 4.622-.159-.159 4.14-2.71 9.395-5.419 5.255-2.71 9.555-4.782 9.714-4.623z" fill="#FAFAFA"/><path d="M560.371 528.338s-.319.159-.955.319c-.637.159-1.752.318-3.026.478-2.548.478-6.37.797-11.147.797s-10.351-.797-16.402-2.391c-6.051-1.594-12.58-4.304-18.631-8.129-6.21-3.826-11.306-8.607-15.446-13.23a71.093 71.093 0 01-9.396-13.867c-2.229-4.303-3.503-7.81-4.299-10.36-.478-1.275-.637-2.232-.796-2.869-.16-.638-.319-.957-.16-1.116 0 0 .16.319.319.956.159.638.478 1.594.955 2.869.796 2.551 2.23 6.057 4.459 10.201 2.229 4.145 5.255 8.926 9.395 13.549 4.141 4.622 9.236 9.244 15.287 13.07 6.052 3.825 12.421 6.376 18.472 7.969 6.052 1.594 11.625 2.391 16.243 2.551a72.13 72.13 0 0011.147-.478c1.274-.16 2.389-.319 3.026-.479.636.16.955.16.955.16z" fill="#263238"/><path d="M512.758 520.209c-.16 0-.796-3.507.796-7.492 1.433-3.984 4.299-6.375 4.459-6.216.159.159-2.23 2.55-3.663 6.535-1.433 3.666-1.274 7.173-1.592 7.173zM499.7 514.63c.159.159-2.229 1.435-4.14 3.985-1.911 2.55-2.389 5.1-2.548 5.1-.159 0-.159-2.869 1.911-5.578 1.911-2.71 4.777-3.666 4.777-3.507zm50.32 30.125c0 .16-3.662-.159-7.325-2.391-3.662-2.231-5.573-5.419-5.414-5.578.159-.16 2.229 2.55 5.892 4.781 3.503 2.232 7.006 2.869 6.847 3.188zm7.962-44.151c.159 0-.318 3.347-2.866 6.375-2.548 3.029-5.733 3.985-5.733 3.826-.159-.16 2.707-1.435 5.096-4.463 2.388-2.869 3.185-5.898 3.503-5.738zm22.294 32.834c-.159-.159 1.911-2.869 3.822-6.535s3.025-6.854 3.185-6.854c.159 0-.478 3.507-2.548 7.173-1.911 3.826-4.459 6.376-4.459 6.216zm29.301 4.304c.159.159-2.867 1.434-5.733 3.825-2.866 2.391-4.618 4.941-4.937 4.782-.159-.159 1.274-3.028 4.3-5.419 3.185-2.551 6.37-3.347 6.37-3.188zm-22.453-37.776c-.319 0-1.593-4.622-4.618-9.723-2.867-5.26-6.211-8.766-5.892-8.926 0 0 .955.797 2.229 2.232 1.274 1.434 2.866 3.666 4.459 6.375 1.433 2.71 2.548 5.101 3.185 7.014.637 1.912.796 3.028.637 3.028zm4.458-47.34c0 .16-3.344 1.116-7.484 2.232-4.3.956-7.644 1.594-7.803 1.435 0-.16 3.344-1.116 7.485-2.232 4.299-1.116 7.802-1.753 7.802-1.435zm-13.535-14.185c-.159.159-2.389-2.391-4.937-5.579-2.548-3.188-4.458-5.898-4.299-6.057.159-.159 2.388 2.391 4.936 5.579 2.548 3.188 4.459 5.897 4.3 6.057zm33.6-8.608c0 .16-3.504 0-7.644-.956-4.14-.956-7.325-2.391-7.325-2.55.159-.16 3.344.797 7.484 1.753 4.141.956 7.485 1.594 7.485 1.753zm23.886-.318c-.159-.16 1.115-3.029 2.389-6.695 1.274-3.666 2.229-6.694 2.388-6.694.16 0-.318 3.187-1.592 6.854-1.433 3.825-3.026 6.535-3.185 6.535zm-5.414 32.356c0 .16-3.344-.637-7.007-2.709-3.662-2.072-5.892-4.623-5.732-4.782.159-.159 2.707 2.072 6.21 4.144 3.503 1.913 6.529 3.029 6.529 3.347zm15.446-.956c-.159 0 .637-4.304 1.752-9.404 1.115-5.101 2.389-9.404 2.548-9.245.159 0-.637 4.304-1.752 9.404-1.115 5.101-2.229 9.245-2.548 9.245zm-12.898 36.182c-.16.159-2.707-3.029-5.574-7.013-2.866-3.985-5.096-7.332-4.936-7.492.159-.159 2.707 3.029 5.573 7.014 2.867 3.984 5.096 7.332 4.937 7.491zm22.134-13.867c-.159.159-1.752-2.71-3.981-6.057-2.229-3.188-4.459-5.579-4.299-5.738.159-.16 2.707 1.913 4.936 5.26 2.389 3.347 3.503 6.535 3.344 6.535zm20.702-3.188c-.159.159-2.23-3.028-5.096-6.694s-5.255-6.535-5.096-6.695c.159-.159 2.867 2.391 5.733 6.216 2.866 3.826 4.618 7.173 4.459 7.173zm-4.937 13.867c-.318 0-.159-2.71-1.911-5.419-1.751-2.71-4.299-3.666-4.299-3.826 0-.159.796 0 1.751.479.956.478 2.23 1.434 3.185 2.869.956 1.434 1.433 3.028 1.433 4.144.16 1.116 0 1.753-.159 1.753zm-16.083 18.808c-.159 0-.159-.478-.159-.956-.159-.478-.478-1.275-1.115-1.753-.637-.479-1.433-.638-2.07-.638-.637 0-.955.159-.955 0s.159-.478.955-.638c.637-.159 1.752-.159 2.707.479.956.637 1.115 1.753 1.115 2.391-.159.796-.319 1.115-.478 1.115zm-165.611 30.126c0 .159-4.141-1.435-7.962-5.101-3.822-3.825-5.415-7.97-5.096-7.97.159-.159 2.07 3.666 5.733 7.332 3.503 3.666 7.325 5.579 7.325 5.739z" fill="#FAFAFA"/><path d="M387.435 147.231c-2.548-24.228-7.166-47.021-8.44-70.77 0-1.116-.159-2.55-1.114-3.347-1.274-.957-3.345-.16-4.141 1.275-.796 1.434-.796 3.188-.796 4.781 0 12.592-2.07 25.184-6.37 37.139-2.707 7.651-6.369 15.142-8.439 23.112-2.071 7.969 1.751 10.679 5.414 18.011" fill="#FFBE9D"/><path d="M306.063 51.277c-.16.16-9.077-7.173-20.065-16.258-10.828-9.245-19.587-16.736-19.427-16.896.159-.16 9.077 7.173 20.064 16.258 10.988 9.086 19.587 16.736 19.428 16.896zm45.542-10.998c-.159 0-1.115-14.186-2.07-31.72-.955-17.533-1.433-31.718-1.115-31.718.16 0 1.115 14.185 2.07 31.719.797 17.533 1.274 31.719 1.115 31.719zm-28.982-10.042c-.159 0-3.025-7.97-6.21-18.011-3.185-10.042-5.733-18.171-5.414-18.33.159 0 3.025 7.97 6.21 18.01 3.185 10.042 5.574 18.172 5.414 18.33zM296.826 66.26c-.159.159-5.573-2.073-12.261-5.26-6.688-3.029-12.103-5.739-11.943-5.898.159-.16 5.573 2.072 12.261 5.26 6.688 3.029 12.102 5.579 11.943 5.898zm-41.88-18.33c0 .159-1.274.318-3.026 0-1.592-.16-2.866-.479-2.866-.797 0-.16 1.274-.32 3.026 0 1.592.159 2.866.478 2.866.796zM407.818 6.01c.159.159-7.166 8.607-16.402 18.808-9.236 10.2-16.88 18.49-17.039 18.33-.159-.16 7.166-8.607 16.402-18.809 9.236-10.2 16.879-18.49 17.039-18.33zm40.129 29.327s-.796.479-2.229 1.276a159.364 159.364 0 01-6.052 3.188c-5.095 2.55-12.42 6.056-20.542 9.404-8.121 3.347-15.765 6.057-21.179 7.97-2.707.956-4.936 1.593-6.529 2.071-1.592.479-2.388.638-2.388.638l2.388-.956c1.593-.638 3.822-1.435 6.37-2.232 5.414-1.913 12.898-4.782 21.02-8.129 8.121-3.347 15.446-6.694 20.701-9.245 2.548-1.115 4.618-2.231 6.211-2.869 1.433-.797 2.229-1.275 2.229-1.116zm-23.25 39.211c0 .16-1.592.638-4.299 1.435-2.707.797-6.37 1.593-10.51 2.231-4.14.638-7.962 1.116-10.669 1.275-2.707.16-4.459.16-4.459.16 0-.16 1.752-.32 4.459-.638 2.707-.319 6.529-.797 10.51-1.594 4.14-.637 7.803-1.434 10.51-2.072 2.707-.638 4.299-.956 4.458-.797zm21.02-3.985c0 .16-2.07.478-4.618.478-2.547 0-4.618-.159-4.618-.478 0-.16 2.071-.478 4.618-.478 2.708.16 4.618.319 4.618.478z" fill="#fff"/><path d="M363.549 157.273c-6.37-4.782-9.714-13.23-8.44-21.04.796-4.782 3.185-9.086 5.095-13.549 1.911-4.463 3.345-9.404 2.23-14.185-.478-1.754-1.274-3.507-1.274-5.42 0-1.913 1.115-3.985 3.025-3.985 1.434 0 2.548.957 3.504 2.072 3.025 3.826 5.573 15.143 3.981 23.431" fill="#FFBE9D"/><path d="M371.67 124.757c-.159 0 .159-1.276.318-3.666 0-2.391 0-5.739-.796-9.723-.477-2.072-.955-4.304-1.911-6.535-.477-1.116-.955-2.232-1.751-3.188-.796-.957-1.752-1.913-3.026-2.072-1.274-.16-2.229.956-2.707 2.231-.478 1.275-.159 2.71.318 4.144.478 1.435.956 2.869 1.115 4.463.159 1.594.159 3.188-.159 4.782-1.115 6.535-4.618 11.636-6.37 16.896-.955 2.55-1.433 5.1-1.433 7.491s.319 4.622.956 6.695c1.273 3.984 3.184 6.694 4.777 8.447 1.592 1.754 2.548 2.391 2.548 2.551 0 0-.319-.16-.797-.479-.477-.318-1.273-.956-2.07-1.753-1.592-1.594-3.821-4.463-5.095-8.448-.637-2.072-1.115-4.303-1.115-6.854 0-2.55.478-5.1 1.433-7.81 1.752-5.26 5.096-10.52 6.21-16.736.319-1.594.319-3.028.16-4.622-.159-1.435-.637-2.869-1.115-4.304-.478-1.434-.796-3.028-.159-4.622.318-.797.637-1.435 1.274-1.913s1.433-.797 2.229-.797c1.593.16 2.707 1.275 3.503 2.391.797 1.116 1.434 2.231 1.911 3.507.956 2.39 1.434 4.622 1.911 6.694.796 4.144.796 7.651.637 9.882-.159 1.116-.159 2.072-.318 2.71-.478.319-.478.638-.478.638z" fill="#EB996E"/><path d="M579.799 254.183c.796 4.622 5.255 8.129 9.873 8.448 4.618.319 9.236-2.072 11.943-5.898 2.707-3.825 3.662-8.766 3.025-13.389-.955-6.694-5.414-13.229-11.784-15.142-6.529-2.072-14.491 1.594-16.242 8.129l-7.485 10.361 10.67 7.491z" fill="#263238"/><path d="M571.04 233.621c3.026-24.227-14.491-46.223-39.014-48.614-23.09-2.232-43.632 14.983-47.136 37.935-3.025 20.084-5.573 40.486-5.573 47.818.318 22.315 13.376 30.922 18.631 33.472 1.274.638 4.459 1.275 5.892 1.435.159 0 .159.159.159.159l-4.936 25.503c-2.23 16.736 7.166 31.719 23.886 34.11 16.72 2.391 29.937-10.361 32.485-27.256l15.606-104.562z" fill="#FFBE9D"/><path d="M488.712 236.172c.319.478 3.344-1.116 7.007-.478 3.822.478 6.21 2.869 6.688 2.391.159-.16-.159-1.116-1.115-2.073-1.114-1.115-3.025-2.231-5.254-2.55-2.389-.319-4.459.319-5.733.956-1.274.638-1.752 1.435-1.593 1.754zm33.6 7.172c.319.479 3.344-1.115 7.007-.478 3.821.478 6.21 2.869 6.688 2.391.159-.159-.159-1.116-1.115-2.072-1.115-1.116-3.025-2.231-5.255-2.55-2.388-.319-4.459.319-5.733.956-1.273.797-1.751 1.594-1.592 1.753zm-13.058 17.852c0-.159-2.229-.956-5.892-2.072-.955-.319-1.751-.637-1.911-1.275-.159-.797.478-1.753 1.115-2.71 1.274-2.231 2.548-4.463 3.981-6.853 5.414-9.883 9.555-18.012 9.236-18.171-.478-.16-5.096 7.651-10.669 17.533-1.274 2.391-2.548 4.782-3.822 7.013-.478 1.116-1.274 2.232-1.115 3.666.16.797.797 1.435 1.434 1.594.637.319 1.114.319 1.592.478 3.663.638 6.051.957 6.051.797z" fill="#263238"/><path d="M503.999 305.986s14.332 3.347 34.078-4.942c0 0-8.599 18.331-35.511 11.795l1.433-6.853zm5.574-35.545c1.592-1.594 4.14-2.231 6.529-1.594 1.592.478 3.184 1.435 3.981 2.869.796 1.435.796 3.347-.319 4.463-1.274 1.275-3.344 1.275-5.096.478-1.751-.797-3.025-2.231-4.458-3.506-.319-.319-.797-.797-.956-1.275-.159-.479-.159-1.116.16-1.435" fill="#EB996E"/><path d="M519.923 265.341c-.637-.16-1.274 3.984-5.096 6.375-3.981 2.391-8.28 1.275-8.28 1.913-.159.319.796.956 2.707 1.275 1.752.319 4.459.16 6.847-1.275 2.389-1.434 3.663-3.666 3.981-5.419.478-1.754.16-2.71-.159-2.869zm4.937-34.27c.159 1.116 3.981 1.116 8.439 2.391 4.3 1.116 7.803 2.869 8.44 2.072.319-.478-.159-1.434-1.433-2.709-1.274-1.276-3.503-2.551-6.051-3.188-2.548-.638-5.096-.638-6.847-.16-1.752.478-2.708 1.116-2.548 1.594zm-32.326-6.535c.478.956 3.185.478 6.37.797 3.184.319 5.732 1.435 6.369.638.319-.319 0-1.275-.955-2.232-.956-.956-2.866-1.913-4.937-2.231-2.229-.319-4.14.318-5.414.956-1.114.797-1.592 1.594-1.433 2.072z" fill="#263238"/><path d="M480.591 218.16c4.618 7.014 19.268 2.71 28.026-2.072 9.236 6.217 22.294 3.507 28.664-5.897 5.096 6.376 15.287 4.303 19.109-2.869 3.662-7.332 1.592-17.215-3.504-23.59-5.095-6.376-12.58-9.564-20.064-10.998-17.517-3.188-36.785 3.506-47.295 19.446-4.936 7.172-7.803 17.054-4.936 25.98z" fill="#263238"/><path d="M529.159 175.125c0 .318-4.14-.479-10.669.637-6.369 1.116-15.446 4.463-22.134 11.954-6.529 7.651-9.555 16.577-10.669 23.112-1.115 6.535-.319 10.68-.478 10.68-.159 0-.319-.957-.637-2.869-.159-1.913-.319-4.623.159-7.97.796-6.694 3.663-15.939 10.51-23.909 7.007-7.81 16.402-11.157 23.09-11.954 3.344-.478 6.051-.319 7.962-.16 1.911 0 2.866.319 2.866.479z" fill="#455A64"/><path d="M505.433 207.8c-.16 0-.319-.797-.319-2.55-.159-1.594 0-3.985.637-6.854 1.274-5.579 5.414-13.389 13.217-18.171 7.962-4.622 16.72-4.463 22.294-2.709 2.866.796 4.936 1.912 6.37 2.709 1.433.797 2.07 1.435 2.07 1.594-.16.319-3.026-1.913-8.599-3.188-5.415-1.275-13.854-1.275-21.339 3.029-7.484 4.463-11.465 11.795-12.898 17.214-1.593 5.26-1.115 8.926-1.433 8.926z" fill="#455A64"/><path d="M547.632 200.149c-1.434 6.216-3.026 12.592-3.026 19.127 0 6.376 1.592 13.07 5.733 18.012 6.21 7.491 16.402 9.722 25.797 11.476 5.095-12.592 6.688-26.459 4.459-39.848-1.115-6.535-3.185-13.23-7.803-17.852-6.688-6.854-18.154-8.289-26.275-3.188" fill="#263238"/><path d="M552.887 231.071c-2.548 5.42-2.23 11.636-1.433 17.533.796 5.898 2.388 11.636 2.229 17.693 0 5.897-1.911 12.273-6.529 15.939-1.274 1.116-2.866 1.913-3.981 3.188-1.115 1.275-1.752 3.188-.796 4.622.955 1.435 3.503 1.435 3.981-.159l-.319.478c-.955 1.753.16 3.985 2.23 3.985 3.185 0 6.369-1.753 8.44-4.144 3.025-3.507 4.299-8.289 5.095-12.911 2.389-14.027 1.911-28.691 5.892-42.398" fill="#263238"/><path d="M498.903 323.519c2.23 9.563 8.6 18.011 17.358 22.633 8.599 4.623 19.268 5.26 28.504 1.754 8.281-3.188 14.969-9.404 21.338-15.461 2.23 13.707-1.592 28.531-10.191 39.37-8.758 10.998-22.135 17.851-36.148 18.808-10.51.637-21.816-2.55-28.504-10.839-4.618-5.738-6.529-13.389-6.37-20.721 0-7.332 1.911-14.664 4.141-21.677 1.91-6.057 4.936-12.752 10.987-14.505" fill="#FF609B"/><path d="M574.384 249.242c6.37 3.507 9.714 10.52 10.988 17.692 1.274 7.014.637 14.346.955 21.518.319 7.173 1.752 14.664 6.211 20.243 4.777 5.898 12.421 8.767 19.109 12.273 14.809 7.97 27.071 21.518 31.53 37.776 4.458 16.258.477 35.067-11.784 46.702-11.147 10.68-27.231 14.346-42.518 14.346-10.987 0-22.93-2.391-29.778-10.998-6.688-8.448-6.369-20.562-3.981-31.082 2.389-10.52 6.688-20.88 7.007-31.56-1.593 6.695-4.459 13.071-8.44 18.649-1.115 1.594-3.026 3.348-4.777 2.391-1.911-.956-1.115-3.985-.319-5.897 13.217-29.329 8.599-88.622 16.402-120.979" fill="#263238"/><path d="M563.556 245.895c.318-.16 15.765-3.029 13.854 12.113-1.911 15.302-16.88 10.042-16.88 9.723 0-.318 3.026-21.836 3.026-21.836z" fill="#FFBE9D"/><path d="M565.945 262.631s.318.159.637.478c.477.319 1.114.478 1.91.319 1.752-.319 3.344-2.71 3.822-5.419.159-1.435.159-2.71-.318-3.826-.319-1.116-.956-2.072-1.752-2.231-.796-.319-1.433.159-1.592.478-.319.478-.16.637-.319.797 0 0-.318-.319-.159-.957.159-.318.318-.637.796-.956.478-.319.956-.319 1.593-.159 1.114.159 2.07 1.434 2.388 2.709.478 1.275.637 2.869.319 4.304-.478 3.028-2.389 5.738-4.778 6.057-1.114.159-1.91-.319-2.388-.797-.159-.478-.159-.797-.159-.797z" fill="#EB996E"/><path d="M483.139 356.354c-.16 0 .955-1.913 2.548-4.782 1.592-2.869 3.981-6.854 5.573-11.636 1.592-4.782 1.911-9.404 1.433-12.592-.478-3.188-1.433-5.1-1.274-5.26 0 0 .319.478.637 1.275.319.797.796 2.232 1.115 3.826.637 3.347.478 8.129-1.115 12.911-1.592 4.941-3.981 8.926-5.733 11.635-.955 1.435-1.592 2.55-2.229 3.347a20.11 20.11 0 00-.955 1.276z" fill="#263238"/><path d="M490.941 338.661c-.159 0-.637-1.275-2.07-2.231-1.274-.957-2.707-.957-2.707-1.116 0-.16.319-.319.956-.319.636 0 1.433.159 2.229.797a3.239 3.239 0 011.433 1.913c.319.637.159.956.159.956zm9.714 0c-.159.159-1.433-2.072-3.981-3.666-2.389-1.594-4.936-1.913-4.936-2.072 0-.16 2.707-.319 5.414 1.434 2.866 1.754 3.822 4.304 3.503 4.304zm6.211 32.357c-.159 0 .159-3.029.955-6.535.797-3.507 1.434-6.376 1.752-6.376.318 0-.159 3.028-.955 6.535-.637 3.666-1.434 6.376-1.752 6.376zm24.841 4.941c-.159 0-.318-3.029-.159-6.854.159-3.826.478-6.854.637-6.854.159 0 .319 3.028.159 6.854 0 3.666-.318 6.854-.637 6.854z" fill="#FAFAFA"/><path d="M24.523 446.729L0 553.841l51.913.159 24.045-94.201-51.435-13.07z" fill="#B78876"/><path d="M279.628 315.23c-4.937-6.694-10.669-12.91-13.217-20.88-1.274-3.825-1.752-7.81-3.026-11.636-1.274-3.825-3.822-7.491-7.484-8.766-3.663-1.435-6.529 0-8.918 2.71l-17.835 52.121 10.351 40.007c10.191-2.391 23.09-5.1 32.644-9.404 9.555-4.304 15.925-11.157 16.562-21.677.318-8.129-4.141-15.78-9.077-22.475z" fill="#263238"/><path d="M117.361 305.986s-61.945 26.937-69.748 39.21c-7.803 12.114-33.122 98.983-33.122 98.983l65.289 19.286-1.115 90.376h160.038l-1.274-159.393-20.065-88.143s-35.351-2.232-38.536-3.826c-3.344-1.594-61.467 3.507-61.467 3.507z" fill="#01BA57"/><path d="M337.592 85.068c.478-3.666-2.07-7.65-.159-10.839.955-1.753 3.025-2.55 4.936-3.347.956-.319 2.07-.797 3.026-.797 1.114 0 2.229.638 2.548 1.594.477 1.116-.319 2.39-1.274 3.347-.797.797-1.911 1.594-2.389 2.71-.637 1.594 0 6.376.637 7.81 1.115 2.55 4.936 14.186 5.255 17.055" fill="#B78876"/><path d="M324.534 86.343c.159-5.579 4.777-27.256 4.937-32.835 3.662 1.116 5.892 5.1 6.688 8.926.796 3.826.318 7.81.955 11.636.956 5.1 3.504 9.882 6.37 14.345 2.707 4.463 5.573 9.086 6.688 14.186 1.274 5.101 5.892 18.33 2.229 22.156m-28.981-1.116l-22.135 105.358c-.796 4.782-83.92 77.305-83.92 77.305l16.402 65.67L342.21 265.978c7.803-8.288 12.102-19.446 11.784-30.922l-1.911-98.823-28.663-12.592z" fill="#B78876"/><path d="M319.598 86.98l3.822 36.661 28.663 12.592s.319-2.55 1.593-15.302c1.433-14.026-13.695-20.083-20.383-30.284-2.866-4.463-2.07-12.592-4.3-22.634-.318-1.116-1.91-8.129-2.707-11.954-.477-2.072-1.592-3.985-3.503-5.101-1.274-.797-2.707-1.275-3.822 0-1.114 1.116.637 36.023.637 36.023z" fill="#B78876"/><path d="M337.592 129.857c3.185-2.709 3.981-7.651 2.707-11.795s-3.981-7.491-6.688-10.838c-2.866-3.188-5.733-6.376-7.484-10.361-1.274-2.71-1.752-5.738-3.185-8.448-1.274-2.71-3.822-5.1-6.848-5.26 2.389 15.142 2.389 23.909 7.326 40.486" fill="#B78876"/><path d="M319.12 100.37s-.159-.479-.318-1.276c-.16-.956-.478-2.072-.797-3.506-.637-3.188-1.592-7.332-2.547-11.955l-.16-.478h.478c1.911-.16 3.822.638 5.414 2.072 2.548 2.072 3.663 5.1 4.459 7.651.796 2.55 1.592 4.941 2.548 6.695.955 1.753 2.07 2.869 2.866 3.825l.956 1.435-1.274-1.276c-.796-.797-2.07-1.912-3.026-3.825-1.115-1.753-1.911-4.144-2.707-6.694-.796-2.55-1.911-5.26-4.299-7.332-1.434-1.276-3.185-1.913-4.778-1.754l.319-.478c1.911 9.723 3.185 16.896 2.866 16.896zm12.899-9.245c-.159 0-1.433-6.695-2.707-14.983-1.274-8.288-2.07-14.983-1.752-15.142.159 0 1.433 6.694 2.707 14.983 1.115 8.288 1.911 14.983 1.752 15.142zm9.077 1.115s.159.16.159.638h-.319c-.477-1.275-1.751-5.42-2.866-10.36a149.772 149.772 0 01-1.433-7.97c-.319-2.072-.478-3.347-.319-3.347.16 0 1.274 4.941 2.548 11.157 1.115 4.941 2.07 9.086 2.389 10.52h-.319c.16-.478.16-.637.16-.637z" fill="#7C5142"/><path d="M346.669 112.483c-.16 0-.637-.797-1.911-2.072-1.115-1.275-3.026-2.709-5.255-3.825-2.389-1.116-4.618-1.594-6.211-1.753-1.751-.16-2.707 0-2.707-.16 0-.159.956-.478 2.707-.478 1.752 0 4.141.319 6.688 1.594 2.389 1.116 4.3 2.869 5.415 4.144.955 1.435 1.433 2.55 1.274 2.55zm-20.701 14.027c-.16 0-.797-1.594-1.911-4.304-.956-2.709-2.23-6.535-3.344-10.998-.956-4.303-1.752-8.288-2.071-11.157-.318-2.87-.318-4.782-.318-4.782.159 0 .318 1.753.796 4.622.478 2.869 1.274 6.854 2.23 11.158.955 4.303 2.229 8.129 3.025 10.998 1.274 2.71 1.752 4.463 1.593 4.463z" fill="#7C5142"/><path d="M197.937 308.217c2.707-4.463 9.236-5.897 13.536-3.188 11.624-9.563 23.567-18.808 35.351-28.372-3.822 19.128-6.37 45.746 2.23 63.279 0 0 10.828 20.084 27.867 17.055l-15.287 15.142-24.205 22.475" fill="#01BA57"/><path d="M194.115 317.143c-.159 0 0-3.507 2.229-7.173 2.23-3.666 5.255-5.578 5.415-5.26.159.16-2.548 2.232-4.618 5.739-2.23 3.506-2.867 6.694-3.026 6.694zm12.58 11.795s-.796-1.275-1.274-3.507c-.637-2.231-.796-5.578-.318-9.085.637-3.507 2.07-6.535 3.344-8.448 1.274-1.912 2.388-2.869 2.388-2.869.16.16-.796 1.116-1.91 3.188-1.115 1.913-2.389 4.782-3.026 8.289-.637 3.347-.478 6.535 0 8.766.478 2.232.955 3.507.796 3.666z" fill="#263238"/><path d="M265.296 369.902s-1.274.797-3.822 1.594c-2.548.637-6.529.956-11.147-.319s-9.554-4.622-13.376-9.563c-3.981-4.942-6.529-11.636-7.962-18.649-2.707-14.186-2.707-27.416-1.911-36.82.318-4.782.955-8.448 1.274-11.157.159-1.276.478-2.391.478-3.029.159-.637.159-1.116.318-.956 0 0 0 .319-.159 1.116-.159.797-.159 1.753-.319 3.028-.318 2.55-.796 6.376-1.114 11.157-.637 9.405-.637 22.475 2.07 36.661 1.433 7.013 3.981 13.389 7.803 18.33 3.662 4.941 8.439 8.129 12.898 9.563 4.459 1.435 8.44 1.116 10.988.638 2.548-.956 3.822-1.753 3.981-1.594z" fill="#FAFAFA"/><path d="M80.099 490.243c-.16 0-.478-22.634-.478-50.527 0-27.894.16-50.528.478-50.528.159 0 .477 22.634.477 50.528 0 27.893-.318 50.527-.477 50.527zm-1.275-118.747c-.159 0-.159-2.232-.955-5.738-.319-1.754-1.115-3.826-1.911-6.057a29.639 29.639 0 00-3.981-6.695 36.17 36.17 0 00-5.414-5.578c-1.911-1.435-3.663-2.71-5.255-3.507-3.185-1.753-5.414-2.231-5.414-2.391 0 0 .637 0 1.592.319.478.159 1.115.319 1.752.638.637.318 1.433.478 2.229.956a35.964 35.964 0 015.414 3.347c1.911 1.594 3.822 3.347 5.574 5.579 1.751 2.231 3.025 4.622 3.98 6.854.956 2.231 1.593 4.303 1.912 6.216.159.956.318 1.753.318 2.391.16.797.16 1.275.16 1.913.159 1.275 0 1.753 0 1.753zm109.081-66.148s.159.478.318 1.275c.16.957.319 2.232.478 3.826.159 3.347-.159 8.447-1.911 14.345-1.911 5.738-5.414 12.433-11.465 17.852-6.051 5.579-14.65 9.245-23.887 10.042-9.395.637-18.472-1.754-25.16-6.376-6.847-4.463-11.306-10.52-14.013-15.939-2.707-5.579-3.822-10.361-4.14-13.867-.159-1.754-.159-3.029-.159-3.985v-1.435s0 .478.159 1.435c0 .956.159 2.231.318 3.825.478 3.347 1.593 8.129 4.3 13.549 2.707 5.259 7.325 11.157 14.013 15.62 6.688 4.463 15.446 6.854 24.682 6.057 9.237-.638 17.517-4.304 23.409-9.723 5.892-5.26 9.554-11.795 11.465-17.533 1.911-5.738 2.23-10.679 2.23-14.027 0-1.753-.159-3.028-.319-3.825-.318-.638-.318-1.116-.318-1.116z" fill="#263238"/><path d="M78.665 443.541c0 .16-13.217-3.985-29.3-9.245-16.084-5.419-29.142-9.882-29.142-10.041 0-.16 13.217 3.985 29.3 9.244 16.243 5.42 29.301 9.883 29.142 10.042zm157.172-21.996c0 .159-35.193.638-78.506.797-43.314.159-78.506.159-78.506-.159 0-.16 35.033-.638 78.506-.797 43.472-.16 78.506-.16 78.506.159zm.795 13.867c0 .16-35.351.478-78.824.478s-78.825-.159-78.825-.478c0-.319 35.352-.478 78.825-.478 43.473 0 78.824.159 78.824.478z" fill="#FAFAFA"/><path d="M214.975 452.308s-.159.478-.477 1.275c-.319.956-.796 2.072-1.433 3.666-.319.797-.637 1.594-1.115 2.55-.478.956-.956 1.913-1.433 3.029-1.115 2.231-2.07 4.622-3.663 7.332-.796 1.275-1.433 2.709-2.229 4.144-.796 1.434-1.752 2.869-2.707 4.463-1.752 3.028-3.981 6.216-6.37 9.404-4.777 6.376-10.51 13.23-17.039 19.765-6.688 6.535-13.535 11.954-20.064 16.736-3.344 2.231-6.529 4.463-9.555 6.216-1.592.956-3.025 1.753-4.458 2.55-1.434.797-2.867 1.435-4.3 2.232-2.707 1.434-5.255 2.55-7.325 3.507-1.115.478-2.07.956-3.026 1.434-.955.319-1.911.638-2.707.956-1.592.638-2.707.957-3.662 1.435a25.63 25.63 0 01-1.274.478s.477-.159 1.274-.637c.955-.319 2.07-.797 3.662-1.435.796-.319 1.593-.638 2.548-1.116.956-.478 1.911-.956 3.026-1.434 2.229-1.116 4.618-2.072 7.325-3.666 1.274-.638 2.707-1.435 4.14-2.232 1.433-.797 2.866-1.753 4.459-2.55 3.025-1.753 6.21-3.985 9.554-6.216a166.044 166.044 0 0019.905-16.577c6.529-6.535 12.262-13.23 17.039-19.605 2.23-3.348 4.618-6.376 6.37-9.405.955-1.434 1.911-2.869 2.707-4.303.796-1.435 1.592-2.869 2.389-4.144 1.592-2.551 2.707-5.101 3.821-7.173.478-1.116 1.115-2.072 1.434-3.028.477-.957.796-1.754 1.114-2.551.637-1.434 1.115-2.709 1.593-3.506.318-1.275.477-1.594.477-1.594z" fill="#263238"/><path opacity=".3" d="M208.606 466.175c-10.669 13.07-21.975 22.474-37.581 28.531-7.484 2.869-15.446 4.941-22.771 8.288-7.325 3.507-14.173 8.608-17.357 16.099-2.548 5.738-1.274 14.345 4.777 15.62 2.388.479 4.777-.318 6.847-1.115 31.052-11.317 51.594-39.848 66.085-67.423z" fill="#000"/><path d="M97.138 182.457c-6.689 5.259-7.166 15.142-6.848 23.749.319 8.607.478 18.33-5.733 24.228-5.095 4.941-14.013 6.694-15.446 13.548-.637 3.188.796 6.854 3.663 8.448 2.866 1.753 6.688 1.434 9.236-.638-2.23 5.42-1.115 12.273 3.344 15.939 4.618 3.507 12.58 1.913 14.331-3.666-1.114 3.666 1.434 7.97 5.096 8.926 3.663.797 7.962-1.912 8.599-5.738m81.372-22.952c1.433 4.303 6.688 6.854 10.988 5.419 4.299-1.594 6.688-6.854 4.936-11.157-1.274-3.348-4.777-5.739-4.936-9.405-.159-4.303 4.299-7.172 8.28-8.766 3.981-1.753 8.599-3.826 9.236-8.129.637-4.144-2.866-7.492-5.891-10.361-3.026-2.869-5.733-7.332-3.663-10.998 1.115-1.912 3.185-2.869 4.618-4.463 3.026-3.506 1.911-9.563-1.752-12.592-3.503-3.028-8.758-3.666-13.376-3.188-4.618.638-9.077 2.391-13.695 3.507-15.128 3.666-31.689.638-44.587-7.97" fill="#263238"/><path d="M101.756 215.291l16.401 94.998c2.867 16.736 18.791 27.894 35.511 24.865 15.606-2.709 26.434-17.055 25.001-32.834-.796-8.448-1.433-15.461-1.433-15.461s23.727-6.057 21.657-30.285c-.956-11.636-4.937-35.544-8.918-57.222-4.14-23.271-25.478-39.37-48.887-36.979l-2.388.16c-24.683 4.144-41.562 27.893-36.944 52.758z" fill="#B78876"/><path d="M185.039 215.132c.318 1.753-1.115 3.507-3.026 3.825-1.911.319-3.663-.956-3.822-2.709-.318-1.754 1.115-3.507 3.026-3.826 1.911-.318 3.662.957 3.822 2.71z" fill="#263238"/><path d="M186.153 211.944c-.318.478-3.185-1.116-6.847-.797-3.663.319-6.21 2.55-6.688 2.072-.159-.159.159-1.115 1.274-2.072 1.114-.956 3.025-2.072 5.255-2.231 2.388-.16 4.299.478 5.573 1.275 1.115.637 1.593 1.434 1.433 1.753zm-37.421 7.492c.318 1.753-1.115 3.506-3.026 3.825-1.911.319-3.662-.956-3.822-2.71-.318-1.753 1.115-3.506 3.026-3.825 1.911-.319 3.662.956 3.822 2.71z" fill="#263238"/><path d="M149.687 216.088c-.319.478-3.185-1.115-6.848-.797-3.662.319-6.21 2.551-6.688 2.072-.159-.159.159-1.115 1.274-2.072 1.115-.956 3.026-2.072 5.255-2.231 2.389-.16 4.3.478 5.574 1.275 1.274.797 1.751 1.594 1.433 1.753zm16.243 26.3c0-.159 2.229-.797 5.892-1.753.955-.16 1.751-.478 1.911-1.116.159-.638-.319-1.753-.956-2.71l-3.503-7.013c-4.937-9.882-8.599-18.011-8.121-18.33.477-.159 4.618 7.651 9.554 17.533 1.115 2.391 2.389 4.782 3.344 7.013.478 1.116 1.274 2.232.796 3.666-.159.797-.796 1.276-1.433 1.594-.637.319-1.115.319-1.592.319-3.504.797-5.892.956-5.892.797zm-16.721-40.964c-.318 1.116-3.981.957-8.28 1.913-4.3.797-7.644 2.55-8.44 1.594-.319-.478.159-1.435 1.592-2.55 1.274-1.116 3.504-2.232 6.051-2.869 2.548-.479 5.096-.319 6.689.159 1.751.638 2.547 1.275 2.388 1.753zm34.555-.159c-.637.956-3.184.319-6.369.478-3.026.159-5.574 1.116-6.37.319-.318-.478 0-1.275 1.115-2.232 1.114-.956 2.866-1.753 4.936-1.912 2.07-.16 3.981.478 5.255 1.275 1.274.797 1.593 1.594 1.433 2.072zm-58.282-14.983c-.159 0-.159 0 0 0-3.662 3.507-5.732 8.129-6.051 13.07v.478c-.318 7.014.637 14.027.319 21.04-.319 7.013-2.071 14.186-6.689 19.446-1.91 2.231-5.414 3.825-7.484 1.753-.796-.797-.955-1.912-1.115-3.028-3.025-16.577-8.917-30.922-10.669-48.296-.478-4.782 1.274-9.404 4.937-12.592 3.344-3.028 7.643-6.057 11.784-4.622 4.299 1.594 10.191 8.607 13.694 11.476" fill="#263238"/><path d="M110.991 225.492c-.478-.159-17.039-3.347-14.969 13.23 2.07 16.417 18.154 10.998 18.154 10.52 0-.638-3.185-23.75-3.185-23.75z" fill="#B78876"/><path d="M108.443 243.504s-.318.159-.637.478c-.477.319-1.273.478-2.07.319-1.751-.478-3.662-3.029-4.14-5.898-.159-1.434-.159-3.028.319-4.144.318-1.275.955-2.232 1.91-2.55.797-.319 1.593.159 1.752.637.319.478.159.797.319.797 0 0 .318-.319.159-.956-.159-.319-.319-.638-.796-.956-.478-.319-1.115-.319-1.593-.16-1.274.319-2.229 1.594-2.707 2.869-.478 1.435-.637 3.029-.478 4.782.478 3.347 2.707 6.216 5.096 6.535 1.274.159 2.07-.319 2.548-.797.318-.478.318-.956.318-.956z" fill="#7C5142"/><path d="M110.195 176.24c-4.777-6.216 5.574-16.736 13.376-20.243 7.962-3.347 18.95-.478 27.39 1.435 5.255 1.275 10.669 3.028 15.924 2.391 3.663-.478 6.847-2.232 10.192-3.666 3.344-1.594 6.688-3.029 10.35-3.188 3.663-.159 7.485 1.435 9.236 4.622 1.752 3.188.16 7.97-3.344 8.767 4.3-3.028 11.306-.319 12.58 4.782 1.274 5.1-3.662 10.679-8.917 10.041 2.229-2.072 6.051.638 6.051 3.507 0 3.029-2.389 5.419-5.096 6.854-6.529 3.666-14.65 3.507-22.134 1.753-7.325-1.753-14.332-4.781-21.657-6.694-7.325-1.913-19.587-5.42-26.434-2.232-5.096 2.391-8.122 8.926-11.147 7.97-3.026-1.116-5.096-3.825-5.892-6.854-.637-2.869-.637-6.216-.478-9.245zm.956 52.122c.478 8.766.956 17.533 3.026 25.981 2.07 8.447 5.732 16.736 11.784 23.112 7.962 8.129 18.472 15.939 29.778 17.851 12.261 2.073 27.389-.478 37.421-7.969 4.778-3.507 8.281-11.158 6.689-16.896 3.981-1.912 6.847-6.057 7.165-10.52.319-4.463-2.388-10.041-6.051-10.679 2.707-.478 3.344-4.622 2.389-7.013-.956-2.55-4.459-3.029-7.166-2.55-2.707.478-4.936 2.072-7.166 3.666-2.229 1.594-4.299 3.347-6.847 4.144-8.599 2.709-17.198-4.782-26.116-4.463-8.121.319-15.287 7.013-23.408 5.897-4.459-.637-8.281-3.666-10.829-7.491-2.548-3.826-1.433-17.852-2.388-22.315" fill="#263238"/><path opacity=".6" d="M176.28 266.297c0 .159-.796-.319-1.911-.638-1.274-.318-2.866-.637-4.777-.318-1.911.318-3.344 1.115-4.459 1.912a43.697 43.697 0 01-1.592 1.275s.319-.797 1.274-1.753c.955-.956 2.548-1.913 4.618-2.231 2.07-.319 3.822 0 5.096.478 1.114.637 1.751 1.116 1.751 1.275z" fill="#455A64"/><path d="M158.764 247.967c.637-.16.955 3.985 4.777 6.535 3.663 2.55 7.962 1.594 8.122 2.231.159.319-.956.797-2.708 1.116-1.751.16-4.458-.159-6.688-1.594-2.229-1.594-3.344-3.825-3.662-5.419-.478-1.913-.16-2.869.159-2.869z" fill="#fff"/><path d="M146.821 292.597s.318.159 1.114.318c.637.319 1.752.638 3.026.957 2.707.797 6.529 1.594 11.465 1.753 2.389.159 5.096.159 7.963-.159 2.866-.16 5.891-.797 8.917-1.754 3.026-.956 6.21-2.391 9.236-4.144 3.026-1.913 5.733-4.144 7.962-7.172 2.548-3.507 3.822-7.97 3.185-11.955v-.319l.318-.159c2.071-.797 3.663-2.391 4.937-4.144.637-.797 1.115-1.754 1.592-2.71.478-.956.637-1.913.637-2.869.319-3.985-1.433-7.651-3.821-9.723l-.16-.159.16-.16c1.592-2.072 1.751-4.622.955-6.535-.796-1.913-2.389-3.028-3.663-3.666-1.433-.478-2.547-.478-3.344-.478-.796.159-1.114.159-1.114.159s.318-.159 1.114-.318c.797-.16 2.07-.16 3.504.318 1.433.479 3.185 1.594 3.981 3.666.796 2.073.796 4.942-.956 7.173v-.478c2.707 2.231 4.459 5.897 4.141 10.201-.16 1.116-.319 2.072-.797 3.188-.477.956-.955 1.913-1.751 2.869a14.546 14.546 0 01-5.255 4.463l.159-.478c.796 4.303-.637 8.926-3.185 12.592-2.229 3.188-5.096 5.578-8.121 7.491a38.236 38.236 0 01-9.395 4.304c-3.185.956-6.211 1.434-9.077 1.753-2.867.319-5.574.319-8.122 0-4.936-.319-8.917-1.275-11.465-2.072-1.274-.478-2.389-.797-3.026-1.116-.796-.478-1.114-.637-1.114-.637zm-72.136-42.08s-.319 0-.796-.478c-.478-.319-1.274-.956-1.593-2.072-.478-1.116-.637-2.55-.318-4.304.318-1.753 1.592-3.347 3.184-4.622 1.593-1.275 3.822-2.391 6.052-3.188 2.23-.797 4.777-1.594 7.006-3.028 2.23-1.435 4.14-3.666 5.255-6.217 1.274-2.709 1.752-5.738 1.911-8.766.16-6.216-1.274-12.114-1.433-17.693-.319-5.419.796-10.679 3.344-14.026 2.389-3.507 5.733-5.101 7.962-5.42 1.115-.318 2.07-.159 2.707-.159.637.159.956.159.956.159 0 .16-1.274-.318-3.504.319-2.229.478-5.255 2.072-7.643 5.42-2.389 3.347-3.344 8.288-3.026 13.707.16 5.42 1.593 11.317 1.593 17.693-.16 3.188-.637 6.375-1.911 9.085-1.274 2.71-3.185 5.101-5.574 6.535-2.388 1.435-4.936 2.232-7.166 3.029-2.229.797-4.3 1.753-5.892 3.028-1.592 1.275-2.707 2.71-3.025 4.304-.319 1.594-.16 3.028.16 3.985.318 2.231 1.75 2.55 1.75 2.709zm119.272-84.318s.159-.16.796-.319c.318-.16.478-.16.955-.319.319-.159.796-.159 1.274-.319 1.911-.319 5.255.16 8.121 2.869 1.911 2.391 3.026 5.898 2.389 9.883-.478 3.984-2.866 7.969-6.529 10.838-3.662 2.869-8.599 4.463-13.854 4.782-5.255.319-10.669-.478-16.083-1.753-8.918-2.072-16.88-5.898-23.409-10.361-3.344-2.072-6.369-4.144-9.554-5.578-3.185-1.435-6.37-2.232-9.236-2.391-5.892-.319-10.51 1.115-13.536 2.55-3.025 1.434-4.458 2.55-4.458 2.55s1.273-1.275 4.299-2.869c3.026-1.434 7.644-3.188 13.695-2.869 3.025.159 6.21.797 9.554 2.391 3.185 1.434 6.37 3.507 9.714 5.579 6.529 4.303 14.332 8.129 23.09 10.201 5.414 1.275 10.669 2.072 15.765 1.753 5.096-.319 9.873-1.913 13.376-4.622 3.663-2.71 5.892-6.535 6.37-10.361.478-3.825-.478-7.172-2.23-9.563-2.547-2.71-5.732-3.188-7.802-3.029-1.593.478-2.548.957-2.707.957z" fill="#455A64"/><path d="M185.517 152.172s.159 1.435-.797 3.666c-.796 2.232-3.025 5.26-6.847 7.492-1.911 1.115-4.14 1.912-6.688 2.39-2.548.479-5.255.479-8.122 0-5.732-.637-11.624-2.869-17.675-4.941-6.211-1.912-12.421-3.028-17.835-1.912-5.415 1.115-9.714 4.144-12.58 7.332-2.867 3.187-4.3 6.375-5.096 8.607-.796 2.231-.796 3.506-.956 3.506 0 0 0-.318.16-.956 0-.637.318-1.594.637-2.71.637-2.231 2.07-5.578 4.936-8.766 2.866-3.188 7.166-6.535 12.899-7.651 5.732-1.275 12.102-.159 18.312 1.913 6.211 1.912 12.103 4.144 17.676 4.941 2.707.319 5.414.478 7.803 0a17.626 17.626 0 006.529-2.232c3.662-2.072 5.892-4.941 6.847-7.013.797-2.391.797-3.666.797-3.666z" fill="#455A64"/><path d="M375.398 537.023h-56.531v-21.499h56.719c4.585 0 8.301 3.72 8.301 8.308v4.694c0 4.692-3.801 8.497-8.489 8.497z" fill="#FCECDB"/><path d="M432.381 524.369v3.235a9.884 9.884 0 01-1.192 4.738c-1.524 2.8-4.357 4.681-7.6 4.681H317.125c-.705 0-1.275-.611-1.275-1.366v-.484c0-.753.57-1.365 1.275-1.365h64.899c.347-.453.653-.944.911-1.467a9.234 9.234 0 00.951-4.11v-4.111c0-.756-.091-1.49-.263-2.188a8.816 8.816 0 00-1.505-3.193h-64.993c-.705 0-1.275-.611-1.275-1.367v-.483c0-.755.57-1.366 1.275-1.366h106.999c3.771 0 6.951 2.708 7.938 6.408.208.775.319 1.593.319 2.438z" fill="#699DEE"/><path d="M432.062 521.932h-48.439a8.816 8.816 0 00-1.505-3.193h-64.993c-.705 0-1.275-.611-1.275-1.367v-.483c0-.755.57-1.366 1.275-1.366h106.999c3.772 0 6.952 2.708 7.938 6.409z" fill="#548EE2"/><path d="M318.866 526.273l7.884.362-7.884.217v-.579zm0 3.373l18.754.361-18.754.219v-.58z" fill="#F4D2B8"/><path d="M310.606 553.7H366.1v-16.722h-55.984a7.53 7.53 0 00-7.528 7.535v1.162c.001 4.433 3.59 8.025 8.018 8.025z" fill="#01BA57"/><path d="M363.426 553.7h63.247v-16.723h-63.42c-4.227 0-7.654 3.43-7.654 7.662v1.226c0 4.327 3.504 7.835 7.827 7.835z" fill="#FCECDB"/><path d="M351.42 553.7h77.388c.642 0 1.163-.522 1.163-1.164v-.174c0-.643-.521-1.164-1.163-1.164H351.42c-.642 0-1.163.521-1.163 1.164v.174a1.164 1.164 0 001.163 1.164zm0-14.222h77.388c.642 0 1.163-.521 1.163-1.164v-.174c0-.643-.521-1.164-1.163-1.164H351.42c-.642 0-1.163.521-1.163 1.164v.174a1.164 1.164 0 001.163 1.164z" fill="#01BA57"/><path d="M426.674 545.338l-8.617.282 8.617.169v-.451zm0-3.848l-20.5.281 20.5.169v-.45z" fill="#F4D2B8"/><path d="M406.385 541.715s.879.719 1.17 1.9c.052.206.084.427.091.66.049 1.569 0 5.121 0 5.121l2.593-1.776 2.587 1.776v-4.814c0-.91-.222-1.796-.634-2.375-.199-.281-.442-.492-.716-.492h-5.091z" fill="#699DEE"/><path d="M406.385 541.715s.879.719 1.17 1.9l5.198.07s-.204-1.691-1.276-1.97h-5.092z" fill="#568CDB"/><path d="M359.221 515.569h-54.619V491h54.819c4.847 0 8.776 3.933 8.776 8.785v6.801c0 4.96-4.018 8.983-8.976 8.983z" fill="#FCECDB"/><path d="M368.228 500.533v5.288c-.014 2.258-1.059 4.217-2.596 5.265a4.531 4.531 0 01-2.559.808h-60.144c-.705 0-1.277.683-1.277 1.526v.624c0 .842.572 1.526 1.277 1.526h103.898c2.982 0 5.617-1.771 7.207-4.483 1.004-1.709 1.593-3.789 1.593-6.036v-4.172c0-1.54-.294-2.997-.821-4.295-1.335-3.304-4.165-5.582-7.441-5.582H302.929c-.705 0-1.277.682-1.277 1.524v.624c0 .843.572 1.526 1.277 1.526h60.327c1.441 0 2.747.734 3.659 1.908.806 1.039 1.304 2.423 1.313 3.949z" fill="#AFCDFB"/><path d="M301.652 513.42v.624c0 .842.572 1.526 1.277 1.526h103.898c2.982 0 5.617-1.772 7.207-4.483h-48.402a4.539 4.539 0 01-2.559.808h-60.144c-.705-.001-1.277.681-1.277 1.525z" fill="#A4C4F4"/><path d="M304.602 503.284l7.71.413-7.71.249v-.662zm0-5.654l18.344.413-18.344.248v-.661z" fill="#F4D2B8"/><path d="M322.756 497.961s-1.211.778-1.612 2.06c-.07.224-.116.463-.126.716-.066 1.701 0 5.552 0 5.552l-3.574-1.925-3.565 1.925v-5.219c0-.987.306-1.946.874-2.575.276-.305.61-.534.987-.534h7.016z" fill="#F99746"/><path d="M322.756 497.961s-1.211.778-1.612 2.06l-7.162.076s.281-1.834 1.759-2.136h7.015z" fill="#ED7D2B"/><path d="M274.962 543.634l-.002 10.239 51.451.01.002-10.239-51.451-.01z" fill="#FF609B"/><path d="M274.96 553.875l-7.561-3.238-4.399-1.883 4.502-1.926 7.461-3.192s.996 2.494 1.011 4.837c.022 3.679-1.014 5.402-1.014 5.402zm57.434-6.833l-.001 3.237a3.604 3.604 0 01-3.602 3.605h-2.38l.002-10.239h2.589a3.396 3.396 0 013.392 3.397z" fill="#FCECDB"/><path d="M267.502 546.826c.188 1.035.35 2.62-.103 3.809L263 548.752l4.502-1.926z" fill="#2B478B"/></g><defs><clipPath id="clip0"><path fill="#fff" transform="translate(0 -23)" d="M0 0h697v577H0z"/></clipPath></defs></svg>