<svg width="543" height="383" fill="none" xmlns="http://www.w3.org/2000/svg"><path opacity=".4" d="M518.517 382.85s38.507-53.652 18.936-199.407C502.516-76.734 43.176-29.335 83.39 134.766 108.673 237.938-45.509 218.208 13.608 383l504.909-.15z" fill="#01B555" fill-opacity=".1"/><path d="M384.709 54.463h-237.8v174.339h237.8V54.463z" fill="#01B555"/><path d="M389.065 232.61H142.552V50.653h246.513V232.61zm-242.158-3.808h237.8V54.463h-237.8v174.339z" fill="#EAC3A0"/><path d="M390.655 232.465H141.338c-1.307 0-2.379-1.174-2.379-2.611v-.148c0-1.435 1.069-2.611 2.379-2.611h249.317c1.307 0 2.379 1.174 2.379 2.611v.148c0 1.435-1.07 2.611-2.379 2.611z" fill="#D39E7A"/><path d="M337.509 227.095h-7.25c-.867 0-1.574-.779-1.574-1.728v-.1c0-.949.709-1.728 1.574-1.728h7.25c.866 0 1.575.779 1.575 1.728v.1c0 .949-.709 1.728-1.575 1.728zm-47.737 0h-3.627c-.659 0-1.198-.591-1.198-1.315v-.924c0-.723.539-1.315 1.198-1.315h3.627c.659 0 1.198.592 1.198 1.315v.924c0 .724-.539 1.315-1.198 1.315zm-8.181 0h-7.339c-.865 0-1.574-.779-1.574-1.728v-.1c0-.949.709-1.728 1.574-1.728h7.339c.865 0 1.574.779 1.574 1.728v.1c0 .949-.707 1.728-1.574 1.728z" fill="#fff"/><path d="M457.005 125.047h-33.417c-1.535 0-2.789-1.378-2.789-3.062v-35.4c0-1.685 1.254-3.062 2.789-3.062h33.417c1.535 0 2.789 1.377 2.789 3.062v35.4c0 1.684-1.254 3.062-2.789 3.062z" fill="#EAC3A0"/><path d="M455.557 123.246h-30.522c-1.402 0-2.548-1.259-2.548-2.795V88.119c0-1.539 1.148-2.796 2.548-2.796h30.522c1.402 0 2.547 1.26 2.547 2.796v32.332c0 1.539-1.145 2.795-2.547 2.795z" fill="#FFEEDE"/><path d="M439.488 89.113c0-.49.362-.888.809-.888.446 0 .808.398.808.888s-.362.887-.808.887c-.447 0-.809-.398-.809-.887zm6.52 1.252c.216-.427.709-.582 1.098-.344.39.238.531.778.314 1.206-.217.427-.709.582-1.099.344-.391-.238-.53-.778-.313-1.206zm5.583 4.868c.375-.265.876-.148 1.116.264.242.411.135.961-.24 1.224-.375.266-.876.148-1.116-.263-.242-.409-.135-.959.24-1.225zm2.767 7.537c.446 0 .809.398.809.888s-.363.887-.809.887c-.446 0-.808-.397-.808-.887s.362-.888.808-.888zm-1.415 8.748a.95.95 0 010 1.255.76.76 0 01-1.143 0 .951.951 0 010-1.255.76.76 0 011.143 0zm-5.07 5.583a.948.948 0 010 1.254.758.758 0 01-1.143 0 .948.948 0 010-1.254.758.758 0 011.143 0zm-8.385 2.876c0-.49.362-.887.809-.887.446 0 .808.397.808.887s-.362.887-.808.887c-.447 0-.809-.397-.809-.887zm-4.928-29.612c-.217-.427-.709-.582-1.099-.344-.389.238-.53.778-.313 1.206.217.427.709.582 1.099.344.391-.238.53-.778.313-1.206zm-5.581 4.868c-.375-.265-.876-.148-1.116.264-.242.411-.135.961.24 1.224.375.266.876.148 1.116-.263.242-.409.134-.959-.24-1.225zm-2.767 7.538c-.447 0-.809.397-.809.887s.362.887.809.887c.446 0 .808-.397.808-.887-.002-.49-.362-.887-.808-.887zm1.413 8.747a.95.95 0 000 1.255.758.758 0 001.143 0 .951.951 0 000-1.255.76.76 0 00-1.143 0zm5.07 5.583a.948.948 0 000 1.254.758.758 0 001.143 0 .948.948 0 000-1.254.758.758 0 00-1.143 0zm7.385-13.443c0-.49.362-.887.808-.887.447 0 .809.397.809.887s-.362.887-.809.887c-.446 0-.808-.397-.808-.887z" fill="#EAC3A0"/><path d="M440.998 92.58h-.221v11.078h.221V92.581z" fill="#EAC3A0"/><path d="M445.915 98.754l-5.351 4.609.409.571 5.35-4.61-.408-.57z" fill="#EAC3A0"/><path d="M123.644 284.388v2.465c0 .864-.254 1.569-.566 1.569H41.094c-.312 0-.567-.705-.567-1.569v-2.465c0-.862.255-1.569.567-1.569h81.984c.312 0 .566.707.566 1.569z" fill="#D39E7A"/><path d="M123.644 284.388v2.465c0 .864-.234 1.569-.518 1.569H58.037c-.284 0-.517-.705-.517-1.569v-2.465c0-.862.233-1.569.517-1.569h65.087c.286 0 .52.707.52 1.569z" fill="#EFCBAB"/><path d="M102.895 288.422H44.69v93.114h58.205v-93.114z" fill="#EAC3A0"/><path d="M119.204 288.422H60.999v93.114h58.205v-93.114z" fill="#F9DDBF"/><path d="M116.077 376.397h-51.95v-85.343h51.948v85.343h.002zm-51.388-.617h50.826v-84.112H64.689v84.112z" fill="#EAC3A0"/><path d="M115.798 319.284H64.409v.615h51.389v-.615zm0 28.783H64.409v.617h51.389v-.617zm-20.431-51.509H85.83c-.463 0-.842-.416-.842-.925 0-.508.38-.924.842-.924h9.537c.463 0 .842.416.842.924 0 .509-.38.925-.842.925zm0 28.145H85.83c-.463 0-.842-.416-.842-.925 0-.508.38-.924.842-.924h9.537c.463 0 .842.416.842.924 0 .509-.38.925-.842.925zm0 29.342H85.83c-.463 0-.842-.416-.842-.925 0-.508.38-.924.842-.924h9.537c.463 0 .842.416.842.924 0 .509-.38.925-.842.925zm346.609 26.428h.101c.595 0 1.073-.539 1.059-1.19l-1.607-76.448-4.734-.605 4.035 77.06c.038.663.539 1.183 1.146 1.183zm27.586 0h.101c.595 0 1.073-.539 1.059-1.19l-1.607-76.448-4.734-.605 4.038 77.06c.033.663.536 1.183 1.143 1.183zm-76.12 0h-.102c-.595 0-1.073-.539-1.058-1.19l1.606-76.448 4.734-.605-4.037 77.06c-.034.663-.535 1.183-1.143 1.183z" fill="#EAC3A0"/><path d="M472.698 298.094v-52.387c0-9.217-6.808-16.69-15.206-16.69h-34.387c-8.398 0-15.206 7.473-15.206 16.69v54.388l64.799-2.001z" fill="#EFCBAB"/><path d="M401.737 306.364h66.394c2.522 0 4.566-2.244 4.566-5.012v-3.258h-70.96v8.27z" fill="#EAC3A0"/><path d="M393.779 306.364h50.231c1.865 0 3.376-1.659 3.376-3.707v-.859c0-2.047-1.511-3.706-3.376-3.706h-50.231c-1.865 0-3.377 1.659-3.377 3.706v.859c0 2.048 1.512 3.707 3.377 3.707z" fill="#F9DDBF"/><path d="M505.812 382.072h.133c.787 0 1.418-.753 1.402-1.666l-2.124-107.037-6.261-.848 5.339 107.894c.046.931.709 1.657 1.511 1.657zm-152.67 0h-.132c-.788 0-1.419-.753-1.402-1.666l2.124-107.037 6.261-.848-5.339 107.894c-.046.931-.71 1.657-1.512 1.657z" fill="#D39E7A"/><path d="M517.608 275.337H345.107c-1.339 0-2.425-1.192-2.425-2.661v-2.158c0-1.47 1.086-2.662 2.425-2.662h172.501c1.339 0 2.425 1.192 2.425 2.662v2.158c-.002 1.472-1.089 2.661-2.425 2.661z" fill="#D39E7A"/><path d="M373.864 263.181H358.31v-6.03h15.603c1.212 0 2.195 1.079 2.195 2.41v1.153c.003 1.363-1.002 2.467-2.244 2.467z" fill="#FCECDB"/><path d="M389.39 259.633v.908c0 .485-.118.938-.327 1.328-.417.786-1.193 1.313-2.08 1.313h-29.145c-.194 0-.35-.171-.35-.384v-.136c0-.213.156-.384.35-.384h17.767c.095-.127.179-.266.249-.411.166-.344.261-.737.261-1.153v-1.153c0-.213-.026-.418-.072-.615a2.468 2.468 0 00-.413-.894h-17.792c-.194 0-.35-.171-.35-.383v-.137c0-.212.156-.383.35-.383h29.293c1.031 0 1.903.76 2.172 1.797.057.22.087.449.087.687z" fill="#699DEE"/><path d="M389.303 258.949h-13.26a2.46 2.46 0 00-.413-.894h-17.792c-.194 0-.35-.171-.35-.384v-.136c0-.212.156-.383.35-.383h29.293c1.031 0 1.901.76 2.172 1.797z" fill="#548EE2"/><path d="M358.314 260.166l2.158.102-2.158.06v-.162zm0 .945l5.135.102-5.135.063v-.165z" fill="#F4D2B8"/><path d="M362.023 267.858h16.559v-4.69h-16.691c-1.143 0-2.07 1.016-2.07 2.271-.002 1.335.985 2.419 2.202 2.419z" fill="#B5453C"/><path d="M377.631 267.858h18.845v-4.69h-18.891c-1.162 0-2.106 1.032-2.106 2.308v.018c0 1.306.963 2.364 2.152 2.364z" fill="#FCECDB"/><path d="M374.22 267.858h22.909c.176 0 .32-.157.32-.351 0-.194-.144-.351-.32-.351H374.22c-.176 0-.32.157-.32.351 0 .194.144.351.32.351zm0-3.988h22.909c.176 0 .32-.157.32-.351 0-.194-.144-.351-.32-.351H374.22c-.176 0-.32.157-.32.351 0 .194.144.351.32.351z" fill="#B5453C"/><path d="M396.475 265.513l-2.545.079 2.545.048v-.127zm-.001-1.079l-6.054.079 6.054.048v-.127z" fill="#F4D2B8"/><path d="M390.479 264.496s.259.201.346.534c.014.058.025.12.027.185.015.441 0 1.437 0 1.437l.766-.499.765.499v-1.349c0-.255-.066-.504-.188-.666-.059-.078-.13-.138-.21-.138h-1.506v-.003z" fill="#699DEE"/><path d="M390.479 264.496s.259.201.346.534l1.534.018s-.061-.473-.376-.552h-1.504z" fill="#568CDB"/><path d="M390.619 257.151h-8.892v-4.506h8.97c.654 0 1.185.583 1.185 1.301v1.821c-.002.765-.567 1.384-1.263 1.384z" fill="#F99746"/><path d="M384.129 257.151h-27.84v-4.506h27.887c1.082 0 1.96.964 1.96 2.151v.153c-.002 1.218-.899 2.202-2.007 2.202z" fill="#FCECDB"/><path d="M388.082 257.151h-32.88c-.164 0-.297-.146-.297-.326v-.023c0-.18.133-.326.297-.326h32.88c.164 0 .297.146.297.326v.023c0 .18-.133.326-.297.326zm0-3.831h-32.88c-.164 0-.297-.146-.297-.326v-.023c0-.18.133-.326.297-.326h32.88c.164 0 .297.146.297.326v.023c0 .178-.133.326-.297.326z" fill="#F99746"/><path d="M499.55 264.804h-1.174v-22.217l12.024-33.678-21.472-18.263.72-1.019 22.167 18.854-12.265 34.351v21.972z" fill="#EAC3A0"/><path d="M486.503 192.973c-.541-.421-.668-1.241-.285-1.835l1.79-2.768c.383-.594 1.13-.733 1.671-.312.541.421.668 1.241.285 1.835l-1.788 2.768c-.385.593-1.134.732-1.673.312zm24.338 17.255c.859 0 1.556-.765 1.556-1.708s-.697-1.707-1.556-1.707c-.859 0-1.556.764-1.556 1.707 0 .943.697 1.708 1.556 1.708z" fill="#EAC3A0"/><path d="M489.164 212.134c-.057.07-.112.139-.171.201l-.012.014c-.055.067-.11.132-.167.194-1.606 1.53-6.93-1.213-12.079-6.266-5.149-5.053-8.225-10.555-7.019-12.477.051-.069.104-.136.158-.203l.013-.014a6.22 6.22 0 01.164-.208c4.72-5.793 12.825-6.29 18.102-1.109 5.28 5.18 5.73 14.073 1.011 19.868z" fill="#F99746"/><path d="M488.994 212.338l-.012.013c-.017.026-.036.049-.053.072-.036.046-.074.083-.114.122-1.604 1.53-6.93-1.21-12.077-6.266-5.149-5.051-8.225-10.552-7.02-12.475a1.476 1.476 0 01.158-.203l.012-.016c1.093-1.135 4.061-.123 7.528 2.341 1.476 1.049 3.042 2.361 4.593 3.884a42.162 42.162 0 013.276 3.606c3.124 3.889 4.699 7.482 3.709 8.922z" fill="#F9DDBF"/><path d="M485.285 203.412a4.963 4.963 0 01-3.347 1.312c-2.918 0-5.284-2.597-5.284-5.799 0-1.1.28-2.128.762-3.004 1.476 1.049 3.042 2.361 4.594 3.884a42.47 42.47 0 013.275 3.607z" fill="#FFF0E3"/><path d="M504.67 267.858h-11.829v-1.31c0-1.317.972-2.384 2.172-2.384h7.396c1.248 0 2.261 1.111 2.261 2.481v1.213z" fill="#EAC3A0"/><path d="M500.199 244.161h-2.484v20.643h2.484v-20.643z" fill="#EAC3A0"/><path d="M246.095 287.006l10.224-45.144 72.238 19.711-82.462 25.433zm13.513-39.146l-7.267 32.078 58.598-18.071-51.331-14.007z" fill="#F9DDBF"/><path d="M284.327 252.075l-3.334-.91-5.38 23.751 3.334.91 5.38-23.751z" fill="#EAC3A0"/><path d="M225.785 279.157c-4.956 33.852-9.04 70.331-7.271 89.537 1.456 5.376 5.957 7.169 9.936 7.867l-2.735 3.274-7.7.483-10.277-4.443s.593-2.227 1.067-6.114c.545-4.515-1.36-14.836-1.36-14.836s-5.012-35.647-2.16-43.654c.811-2.273 1.343-4.877 1.672-7.703v-.002c.839-7.2.37-15.855-.184-24.271-.597-9.14-1.294-17.992-.507-24.383 3.591-29.166 3.633-54.391 3.633-54.391h20.166s5.713 17.817 3.05 33.092c-2.259 12.986-4.901 28.949-7.33 45.544z" fill="#FFB27D"/><path d="M206.958 303.561c.84-7.2.37-15.855-.184-24.27l14.89-6.608 4.122 6.474c-.634.85-11.711 15.194-18.828 24.404z" fill="#F3A36C"/><path d="M264.889 178.15s2.284-2.65 3.919-3.96c1.636-1.31 6.225-2.622 6.691-.423.208.98-1.404 3.143-2.567 3.914-1.159.772-1.341 1.752-2.576 3.133-1.234 1.38-4.253 1.449-4.253 1.449l-1.214-4.113z" fill="#FFB27D"/><path d="M197.793 156.253c-.96-2.033 20.961-9.358 21.309 10.714 0 0 41.064-1.109 21.457-26.229-6.787-8.697-6.09-15.888-5.886-22.582.207-6.693-4.227-26.15-19.428-24.191 0 0-3.981-1.777-8.949 1.051-11.296 6.433-36.604 68.638-8.503 61.237z" fill="#233862"/><path d="M226.27 180.138s1.452 3.158 4.088 6.786c3.176 4.367 8.073 9.411 14.222 10.406 2.937.476 5.81-.217 8.45-1.506l.011-.002c7.469-3.639 13.083-12.006 13.083-12.006 1.316-3.942-.838-6.613-.838-6.613s-15.079 3.722-16.517 2.935c-1.435-.788-9.814-27.279-11.807-30.609-1.996-3.329-8.794-5.057-8.794-5.057l-1.898 35.666z" fill="#ADC8FE"/><path d="M230.358 186.924c3.177 4.367 8.073 9.411 14.222 10.406 2.937.476 5.811-.217 8.45-1.506-.292.041-7.751 1.053-10.723-4.785-3.034-5.957-6.311-15.414-10.816-12.263-1.945 1.364-1.859 4.744-1.133 8.148z" fill="#8EB3EF"/><path d="M183.749 381.846H176.8c-2.019 0-4.32-1.699-4.882-5.701-.56-4.002-4.713-6.185-5.61-9.459-.617-2.251.84-3.856 2.221-5.093.631-.568 1.248-1.058 1.64-1.492 1.412-1.565 2.747-8.328 2.747-8.328l7.328 4.233s-3.453 6.442-1.461 13.691c.93 3.387 1.764 6.508 3.823 8.454a6.854 6.854 0 001.68 1.171c3.202 1.585-.537 2.524-.537 2.524z" fill="#FFB27D"/><path d="M189.068 166.967s-.386 5.961 0 13.115c.257 4.741 4.627 11.093 5.246 12.664 1.555 3.942 3.311 4.582 3.311 4.582l13.574 3.651 4.772 1.282 15.052-4.933s6.854-21.001 4.103-32.824c-2.754-11.823-6.958-20.032-6.958-20.032s-17.304-4.94-30.709-.643l-8.391 23.138z" fill="#ADC8FE"/><path d="M198.486 199.756s-11.37 16.745-12.429 28.062c-1.061 11.32 8.994 42.649 6.737 53.682-1.676 8.191-10.61 14.686-13.077 35.333-.857 7.172-3.95 21.516-6.802 34.936l6.299 6.786c15.005-37.535 30.52-61.166 31.436-69.463.648-5.873 3.69-36.77 15.996-59.58 2.954-5.476-1.812-27.251-1.812-27.251l-26.348-2.505z" fill="#FFB27D"/><path d="M233.825 238.304c-1.672 22.357-3.64 41.19-3.64 41.19s-9.499 7.024-22.94 7.918l-.002.003h-.002c-6.141.406-13.102-.462-20.359-3.866 0 0-2.766-53.993-1.006-62.593 1.762-8.6 9.557-20.435 9.557-20.435l35.072 1.488c.002-.004 4.991 13.933 3.32 36.295z" fill="#F99746"/><path d="M231.258 196.586s-2.992 2.598-8.937 2.729c-7.1.157-24.693-1.987-24.693-1.987s-.781 2.398-.749 4.929c0 0 21.487 5.949 33.939.868-.004 0 1.602-3.315.44-6.539z" fill="#ED7D2B"/><path d="M220.784 202.007c0-2.221 1.453-4.025 3.24-4.025 1.787 0 3.24 1.804 3.24 4.025 0 2.218-1.453 4.025-3.24 4.025-1.787 0-3.24-1.807-3.24-4.025zm1.074 0c0 1.569.972 2.847 2.166 2.847s2.166-1.278 2.166-2.847-.972-2.847-2.166-2.847c-1.196 0-2.166 1.276-2.166 2.847z" fill="#fff"/><path d="M174.484 201.183l22.017 21.041 26.24-33.077-22.016-21.041-26.241 33.077z" fill="#233862"/><path d="M202.591 201.27s8.067 1.035 8.042 3.138c-.026 2.102-2.011 6.418-3.007 6.61-.997.192-6.565-5.839-6.565-5.839l1.53-3.909z" fill="#FFB27D"/><path d="M199.896 143.353s-10.77.83-14.898 11.844c-4.129 11.015-11.962 29.508-11.962 32.618 0 3.11 4.375 12.702 27.872 18.217 0 0 2.429-2.805 2.284-5.026 0 0-14.668-13.828-14.628-15.443.073-3.057 2.404-7.094 15.283-21.232 3.501-3.845-3.951-20.978-3.951-20.978z" fill="#ADC8FE"/><path d="M263.335 209.701l32.271-104.112c.15-.473.348-.926-.082-1.1l-.391-.157c-.44-.175-.569.137-.729.62l-34.399 102.614c-.325.98.096 2.071.964 2.493l.798.389c.621.307 1.347-.04 1.568-.747z" fill="#F9DDBF"/><path d="M267.718 177.642s1.465-.053 3.019-.497c1.221-.351 2.787-.975 2.787-.975.922.737-2.28 2.745-3.097 4.118-.667 1.12-1.425 1.444-3.265 1.878l.556-4.524z" fill="#FFB27D"/><path d="M216.136 381.545c4.486-.61 3.303.647 9.591.689 6.288.041 8.439-2.258 8.738-3.247.266-.878-2.768-1.587-6.014-2.426l-.116.09s-3.953 2.396-9.136 1.869c-4.225-.427-8.545-2.324-11.458-2.645-.179 1.049-.356 2.121-.274 3.205.225 3.077 4.183 3.077 8.669 2.465zm-32.387.3H176.8c-2.019 0-4.32-1.698-4.882-5.7-.56-4.002-4.713-6.185-5.61-9.459-.617-2.251.84-3.857 2.221-5.093.762 1.257 2.412 4.393 4.029 10.169 1.888 6.752 6.416 6.946 10.048 6.384a6.884 6.884 0 001.68 1.172c3.202 1.589-.537 2.527-.537 2.527z" fill="#233862"/><path d="M201.589 142.782c2.183-.531 3.989-2.213 4.74-4.524.906-2.784 1.626-6.892 1.609-12.042l.682.148 11.458 2.49s-.261 3.958-.269 7.688v.092c-.015 3.239 1.922 6.098 4.755 6.994 1.448.458-6.901 12.523-7.856 12.285-1.988-.494-15.812-12.962-15.119-13.131z" fill="#FFB27D"/><path d="M220.079 128.852s-.261 3.958-.27 7.687c-6.412-.198-9.801-6.62-11.191-10.178l11.461 2.491z" fill="#E8945B"/><path d="M222.219 132.383s-15.172.275-15.183-10.098c-.01-10.372-1.974-17.322 7.712-17.936 9.685-.615 11.572 3.341 12.342 6.802.77 3.461-.926 20.892-4.871 21.232z" fill="#FFB27D"/><path d="M221.657 104.094s-4.154 12.17-10.528 13.968c-6.375 1.8-9.141-.077-9.141-.077s4.891-4.263 5.905-11.705c0 0 10.631-7.978 13.764-2.186z" fill="#233862"/><path d="M220.627 105.083s3.08 1.264 4.347 3.729c1.24 2.413 2.297 5.606 2.05 9.522 0 0 3.131-8.272-.387-12.95-3.728-4.961-6.01-.301-6.01-.301z" fill="#233862"/><path d="M219.253 126.225s.263 1.222 3.033 1.033c0 0 2.327-.157 2.255-1.502 0 .002-2.257-.954-5.288.469z" fill="#fff"/><path d="M216.708 155.913s-10.26-12.031-10.645-16.948c0 0-2.617.797-5.695 4.085 0 0 2.465 6.782 5.41 9.019 0 0 2.143-.331 3.832-1.093 0 0-1.072 1.95-1.92 3.114-.002-.002 4.648 2.891 9.018 1.823z" fill="#D7E6FF"/><path d="M220.303 139.425s4.048 8.12-3.596 16.488c0 0 4.798-1.007 7.263-4.718 0 0-.764-1.991-1.415-2.454 0 0 1.44-.628 2.345.294 0 0 .55-4.353 0-5.68-.549-1.328-3.408-3.974-4.597-3.93z" fill="#D7E6FF"/><path d="M215.942 155.913c0-.464.344-.838.765-.838.423 0 .764.376.764.838 0 .465-.343.839-.764.839s-.765-.377-.765-.839zm4.079 11.893c0-.465.344-.839.765-.839.421 0 .764.377.764.839 0 .464-.343.838-.764.838s-.765-.376-.765-.838zm.763 13.947c0-.465.343-.839.764-.839s.765.376.765.839c0 .464-.344.838-.765.838-.421 0-.764-.374-.764-.838z" fill="#233862"/><path d="M233.823 238.304c-1.672 22.357-3.64 41.19-3.64 41.19s-9.499 7.024-22.94 7.919c.238-.097 7.882-3.332 13.538-10.601 5.749-7.385 13.042-38.508 13.042-38.508z" fill="#ED7D2B"/><path opacity=".6" d="M320.627 72.523h1.246l3.366 8.457h-1.421l-.777-2.027h-3.616l-.787 2.026h-1.377l3.366-8.456zm1.924 5.122l-1.322-3.357-1.312 3.357h2.634zm10.719-5.062h3.431c.874 0 1.562.264 2 .744.339.372.513.827.513 1.416 0 1.008-.524 1.549-1.092 1.872.897.335 1.52.899 1.52 2.063 0 1.5-1.126 2.304-2.83 2.304h-3.54v-8.399h-.002zm3.157 3.538c.863 0 1.442-.372 1.442-1.165 0-.658-.48-1.067-1.343-1.067h-1.934v2.232h1.835zm.394 3.55c.918 0 1.476-.394 1.476-1.175 0-.707-.514-1.128-1.575-1.128h-2.13v2.304h2.229zm10.721-2.89c0-2.387 1.629-4.342 3.945-4.342 1.41 0 2.263.541 2.994 1.308l-.864 1.09c-.612-.623-1.267-1.044-2.141-1.044-1.465 0-2.524 1.32-2.524 2.988 0 1.643 1.061 2.988 2.524 2.988.939 0 1.541-.42 2.196-1.091l.863.959c-.798.912-1.671 1.488-3.103 1.488-2.227-.002-3.89-1.909-3.89-4.344zM311.048 91.43h2.852c2.404 0 4.065 1.811 4.065 4.198 0 2.364-1.661 4.199-4.065 4.199h-2.852V91.43zm2.852 7.052c1.607 0 2.655-1.188 2.655-2.854 0-1.642-1.048-2.853-2.655-2.853h-1.507v5.71h1.507v-.003zm12.414-7.052h5.672v1.32h-4.328v2.183h3.835v1.32h-3.835v2.254h4.382v1.32h-5.726V91.43zm14.042 0h5.693v1.342H341.7v2.293h3.856v1.342H341.7v3.417h-1.344V91.43zm13.551 4.198c0-2.35 1.64-4.341 3.945-4.341 1.333 0 2.154.406 2.939 1.139l-.853 1.116c-.589-.552-1.168-.9-2.14-.9-1.411 0-2.48 1.357-2.48 2.989 0 1.728 1.037 2.999 2.602 2.999.722 0 1.376-.252 1.846-.636v-1.571h-1.956v-1.282h3.257v3.521c-.754.707-1.836 1.308-3.192 1.308-2.393 0-3.968-1.872-3.968-4.342zm-46.698 14.647h1.343v3.491h3.65v-3.491h1.346v8.397h-1.346v-3.538h-3.65v3.538h-1.343v-8.397zm15.102 0h1.343v8.397h-1.343v-8.397zm9.354 7.16l.886-.995c.449.623.897.984 1.541.984.722 0 1.213-.527 1.213-1.643v-5.506h1.377v5.541c0 .996-.264 1.74-.71 2.232-.448.492-1.092.744-1.859.744-1.181 0-1.945-.601-2.448-1.357zm13.583-7.16h1.343v4.221l3.64-4.221h1.65l-3.181 3.609 3.322 4.785h-1.627l-2.612-3.777-1.192 1.342v2.435h-1.343v-8.394zm14.643 0h1.343v7.052h4.021v1.342h-5.366v-8.394h.002zm-50.394 18.847h1.432l2.328 3.97 2.328-3.97h1.432v8.397h-1.346v-6.022l-2.414 3.958h-.044l-2.394-3.934v5.998h-1.322v-8.397zm16.204 0h1.246l4.099 5.804v-5.804h1.322v8.397h-1.126l-4.219-5.973v5.973h-1.322v-8.397zm15.019 4.199c0-2.364 1.661-4.342 4.01-4.342 2.349 0 3.989 1.955 3.989 4.342 0 2.363-1.661 4.341-4.01 4.341-2.351 0-3.989-1.954-3.989-4.341zm6.589 0c0-1.632-1.082-2.988-2.6-2.988s-2.579 1.331-2.579 2.988c0 1.631 1.082 2.987 2.602 2.987 1.516 0 2.577-1.333 2.577-2.987zm9.755-4.199h3.017c1.781 0 2.907 1.116 2.907 2.831 0 1.883-1.376 2.867-3.061 2.867h-1.519v2.699h-1.344v-8.397zm2.908 4.367c1.016 0 1.65-.624 1.65-1.522 0-.985-.644-1.5-1.65-1.5h-1.562v3.022h1.562zm-42.778 22.228a3.712 3.712 0 01-2.328.793c-2.349 0-3.989-1.955-3.989-4.342 0-2.364 1.661-4.342 4.01-4.342 2.35 0 3.989 1.955 3.989 4.342a4.55 4.55 0 01-.776 2.579l.873.815-.863 1.056-.916-.901zm-.993-.97l-1.312-1.223.863-1.079 1.322 1.32c.264-.444.394-.985.394-1.595 0-1.631-1.082-2.987-2.6-2.987s-2.579 1.331-2.579 2.987c0 1.632 1.083 2.988 2.602 2.988.501-.005.95-.16 1.31-.411zm11.028-6.777h3.41c1.791 0 2.842 1.056 2.842 2.675 0 1.38-.754 2.207-1.825 2.542l2.065 3.179h-1.585l-1.901-2.927h-1.661v2.927h-1.343v-8.396h-.002zm3.309 4.161c.962 0 1.574-.552 1.574-1.428 0-.899-.589-1.391-1.585-1.391h-1.955v2.819h1.966zm10.797 3.011l.808-1.056c.733.695 1.466 1.09 2.415 1.09.831 0 1.356-.42 1.356-1.079 0-.601-.306-.924-1.727-1.296-1.629-.421-2.547-.947-2.547-2.519 0-1.439 1.093-2.435 2.613-2.435 1.113 0 2 .372 2.776 1.056l-.722 1.116c-.688-.564-1.376-.864-2.075-.864-.788 0-1.247.444-1.247 1.019 0 .647.35.936 1.815 1.319 1.617.432 2.459 1.068 2.459 2.484 0 1.571-1.126 2.507-2.733 2.507-1.17.002-2.273-.444-3.191-1.342zm16.109-5.805h-2.425v-1.367h6.208v1.367h-2.425v7.029h-1.356v-7.029h-.002zm-41.683 22.314v-4.834h1.345v4.774c0 1.559.733 2.398 1.935 2.398 1.191 0 1.924-.793 1.924-2.338v-4.834h1.343v4.762c0 2.507-1.289 3.766-3.288 3.766-1.992-.002-3.259-1.261-3.259-3.694zm14.457-4.834h1.486l2.305 6.453 2.295-6.453h1.452l-3.181 8.457h-1.181l-3.176-8.457zm14.98 0h1.453l1.825 6.225 1.88-6.248h1.136l1.88 6.248 1.825-6.225h1.411l-2.667 8.457h-1.158l-1.88-6.033-1.88 6.033h-1.158l-2.667-8.457zm-24.509 22.972l-2.678-4.127h1.585l1.901 3.011 1.911-3.011h1.541l-2.667 4.101 2.777 4.293h-1.585l-2.011-3.179-2.021 3.179h-1.541l2.788-4.267zm14.729.958l-3.038-5.085h1.585l2.141 3.718 2.164-3.718h1.541l-3.038 5.048v3.346h-1.355v-3.309zm12.02 2.221l4.514-5.998h-4.37v-1.308h6.119v1.09l-4.513 5.999h4.513v1.307h-6.263v-1.09z" fill="#fff"/><path d="M468.082 243.291l-1.359.24 2.573 17.573 1.359-.24-2.573-17.573z" fill="#B5453C"/><path d="M466.962 240.323l-.228 3.214 1.358-.238-1.13-2.976z" fill="#F9DDBF"/><path d="M482.823 245.05l-1.353-.276-2.961 17.499 1.353.276 2.961-17.499z" fill="#B5453C"/><path d="M482.654 241.839l-1.198 2.943 1.351.275-.153-3.218z" fill="#EFCBAB"/><path d="M481.108 239.915l-1.351-.276-2.961 17.5 1.351.275 2.961-17.499z" fill="#B5453C"/><path d="M480.941 236.707l-1.198 2.941 1.352.278-.154-3.219z" fill="#EFCBAB"/><path d="M482.663 250.716h-10.837v17.142h10.837v-17.142z" fill="#ED7D2B"/><path d="M477.247 250.716H466.41v17.142h10.837v-17.142z" fill="#F99746"/><path d="M78.034 246.268s5.343-6.842.33-11.188c0 0-3.663-2.433-6.648-2.236 0 0 4.232 7.786 2.863 8.563-1.368.774-4.145-9.051-4.145-9.051s-8.334-.887-11.014.527c0 0 7.124 6.398 5.625 6.779-1.5.381-9.195-5.899-9.195-5.899s-7.757 1.449-7.343 6.643c.413 5.194 3.086 6.798 4.261 6.659 1.175-.138 8.046-3.017 8.195-1.961.15 1.056-3.987 4.507-6.883 4.669 0 0 5.469 6.62 9.102 4.709 3.634-1.911 3.945-4.938 6.21-6.074 2.265-1.137 4.2-1.133 3.265.025-.934 1.158-5.035 2.283-6.33 4.799-1.294 2.516-2.459 4.212 1.303 3.591 3.76-.622 9.873-3.642 10.14-7.098l.264-3.457z" fill="#82B378"/><path d="M52.313 240.547s21.066-.892 25.718 5.721c0 0 1.03 3.383 4.195 6.463l.493 1.476s-3.65-4.224-4.958-4.48c.002 0 2.047-8.193-25.448-9.18z" fill="#82B378"/><path d="M82.225 252.731s4.522 3.671 4.836 10.229l-.821.08s-1.444-6.781-4.055-9.434c-2.608-2.652.04-.875.04-.875z" fill="#82B378"/><path d="M96.715 237.664s-8.499-5.225-4.532-12.313c0 0 3.172-4.354 6.572-5.474 0 0-1.813 10.573 0 10.822 1.812.25 1.246-11.941 1.246-11.941s8.953-4.727 12.467-4.353c0 0-5.554 10.324-3.739 10.074 1.812-.249 8.046-10.698 8.046-10.698s9.178-1.864 10.652 4.106c1.473 5.971-.908 8.956-2.268 9.33-1.359.372-10.085.25-9.86 1.493.227 1.243 6.12 3.235 9.406 2.114 0 0-3.627 9.827-8.387 9.33-4.76-.496-6.233-3.731-9.181-3.981-2.947-.249-5.1.622-3.627 1.493 1.474.871 6.459.284 8.84 2.507 2.378 2.22 4.307 3.588-.114 4.584-4.421.996-12.353.374-13.94-3.36l-1.581-3.733z" fill="#A8D29F"/><path d="M123.235 219.752s-23.799 8.459-26.519 17.911c0 0 .114 4.229-2.267 9.081v1.867s2.493-6.345 3.853-7.214c0-.002-5.326-8.211 24.933-21.645z" fill="#82B378"/><path d="M94.448 246.744s-3.669 6.116-1.576 13.563l.943-.277s-.916-8.203 1.004-12.327c1.92-4.124-.37-.959-.37-.959z" fill="#82B378"/><path d="M83.193 230.459s11.203-6.885 5.974-16.232c0 0-4.183-5.739-8.665-7.213 0 0 2.39 13.937 0 14.265-2.39.328-1.644-15.739-1.644-15.739s-11.801-6.232-16.433-5.74c0 0 7.32 13.609 4.93 13.281-2.389-.328-10.605-14.101-10.605-14.101s-12.1-2.458-14.041 5.411c-1.943 7.87 1.195 11.805 2.987 12.297 1.794.492 13.296.328 12.997 1.969-.299 1.64-8.067 4.263-12.4 2.786 0 0 4.782 12.953 11.055 12.297 6.273-.656 8.216-4.919 12.1-5.247 3.884-.328 6.722.82 4.78 1.968-1.94 1.149-8.514.377-11.651 3.305-3.137 2.927-5.677 4.729.15 6.042 5.827 1.312 16.283.492 18.373-4.427l2.093-4.922z" fill="#A8D29F"/><path d="M48.235 206.847s31.371 11.149 34.956 23.612c0 0-.15 5.576 2.987 11.969v2.458s-3.286-8.362-5.08-9.51c.003.002 7.023-10.82-32.863-28.529z" fill="#82B378"/><path d="M86.179 242.428s4.837 8.064 2.08 17.879l-1.244-.367s1.208-10.811-1.322-16.248c-2.533-5.437.486-1.264.486-1.264z" fill="#82B378"/><path d="M61.625 257.504c0 13.305 9.827 24.088 21.946 24.088 2.53 0 4.962-.469 7.223-1.335 8.572-3.279 14.723-12.228 14.723-22.753H61.625z" fill="#ED7D2B"/><path d="M76.07 257.504c0 9.026 1.97 18.217 8.662 22.344 1.114.686 4.838-.058 6.06.411 8.573-3.279 14.724-12.228 14.724-22.752H76.069v-.003z" fill="#F99746"/><path d="M61.321 282.819h44.499c0-.82-.304-1.564-.794-2.103-.491-.538-1.166-.871-1.916-.871H64.028c-1.496.003-2.707 1.333-2.707 2.974z" fill="#ED7D2B"/><path d="M82.17 282.819h23.65c0-.82-.303-1.564-.794-2.103-.49-.538-1.166-.871-1.915-.871H84.876c-1.493.003-2.705 1.333-2.705 2.974z" fill="#F99746"/><path d="M61.126 258.244h45.113v-.74H61.126v.74z" fill="#B5453C"/></svg>