<svg width="272" height="548" fill="none" xmlns="http://www.w3.org/2000/svg"><path d="M107.198 533.682s-1.049 12.572 1.54 13.846l33.198-.067s0-3.923-5.342-4.794c-5.342-.872-14.714-4.057-16.287-11.164-1.606-7.108-13.109 2.179-13.109 2.179zm-95.3-4.862s-.983 17.4 1.606 18.708l33.198-.067s0-3.923-5.342-4.795c-5.342-.871-14.715-4.056-16.288-11.164-1.573-7.107-13.174-2.682-13.174-2.682z" fill="#233862"/><path d="M10.781 530.966s6.588 3.487 9.406 4.09c3.146.704 9.012.268 9.012.268 11.307-30.977 46.307-156.865 46.307-156.865 1.507 34.799 7.669 69.532 14.06 97.458.163.738.327 1.475.523 2.213.164.67.328 1.341.46 2.011 0 .034 0 .067.032.101 7.734 32.922 15.501 55.35 15.501 55.35s1.999 2.582 7.603 1.409c6.391-1.375 8.521-4.225 8.521-4.225a7995570.51 7995570.51 0 01-6.456-209.802s-55.417-30.642-70.493-4.459c-15.042 26.184-34.476 212.451-34.476 212.451z" fill="#2A4E96"/><path d="M33.132 336.619c7.177-26.284 8.356-51.227 8.324-71.912-.066-29.402-2.655-50.121 5.997-53.607 0 0 26.742-7.946 45.127-11.466 2.917-1.643 6.194-3.386 8.652-4.392 5.8-2.414 28.446-36.107 32.28-44.153 3.834-8.08 10.192-43.181 10.192-43.181l8.816 2.884s2.654 39.425 1.376 49.718c-1.278 10.292-29.298 54.479-31.625 58.334-9.995 37.314 0 98.062-4.555 111.606-2.36 6.974-45.88 19.747-69.706 18.138-1.18-.067-2.327-.202-3.408-.336-5.637-.804-9.733-2.648-11.241-5.867-.754-1.609-.852-3.486-.23-5.766z" fill="#fff"/><path d="M143.703 107.908s-4.982-14.818-1.344-15.254c3.638-.436 12.814-.368 13.928 2.112 1.114 2.515-3.769 16.026-3.769 16.026l-8.815-2.884z" fill="#FFB27D"/><path d="M238.648 144.82l29.429-18.205a9.303 9.303 0 00-5.637-4.257 8.928 8.928 0 00-6.915 1.072c-1.901 1.174-4.391.537-5.538-1.408l-7.964-13.477-6.882 4.258 7.964 13.477c.59.972.721 2.079.458 3.118a4.193 4.193 0 01-1.835 2.548c-2.163 1.341-3.572 3.453-4.162 5.766a9.578 9.578 0 001.082 7.108z" fill="#ED7D2B"/><path d="M238.643 144.82l19.565-12.103c4.523-3.855 2.327-7.174.033-7.744a8.928 8.928 0 00-6.915 1.072c-1.901 1.174-4.391.537-5.538-1.408l-7.964-13.477-2.72 1.676 7.963 13.478c.59.972.721 2.078.459 3.118a4.192 4.192 0 01-1.835 2.547c-2.163 1.341-3.572 3.454-4.162 5.767a9.69 9.69 0 001.114 7.074z" fill="#F99746"/><path d="M152.519 57.016l23.825 30.71c8.291 14.013 22.613 20.718 36.311 21.288 4.687.202 9.275-.335 13.535-1.508 3.54-.973 7.603.972 9.832 4.727l.459.804a371.706 371.706 0 002.556 4.292l5.014-3.118s-1.18-1.978-2.556-4.325c-2.458-4.157-2.327-9.219.36-12.27 11.47-13.109 15.763-34.833 4.818-53.373l-16.124-35.47-78.03 48.243z" fill="#F99746"/><path d="M252.18 69.186c-1.934-11.499 3.506-17.768 9.241-24.406 4.621-5.297 9.373-10.795 10.389-18.975 1.147-9.052-2.982-18.305-10.257-23.032-5.539-3.588-11.635-3.688-16.78-.336-7.275 4.794-9.995 14.047-7.832 26.82 1.54 9.12 5.014 16.83 5.178 17.166l4.588-2.18c-.131-.268-12.716-28.563.819-37.447 4.687-3.085 9.111-1.107 11.372.335 5.571 3.587 8.848 10.996 7.964 18.003-.82 6.605-4.883 11.265-9.177 16.193-5.997 6.906-12.813 14.751-10.454 28.731l4.949-.872z" fill="#ED7D2B"/><path d="M195.384 104.322c-9.045-7.108-17.009-5.096-25.431-2.951-6.751 1.71-13.699 3.487-21.237.604-8.389-3.185-14.452-11.198-15.173-19.981-.524-6.672 2.229-12.27 7.505-15.355 7.537-4.392 16.812-2.514 26.84 5.364 7.177 5.632 12.257 12.37 12.453 12.64l-3.998 3.15c-.197-.234-18.811-24.775-32.805-16.662-4.817 2.817-5.178 7.745-4.981 10.46.524 6.705 5.407 13.109 11.896 15.556 6.096 2.313 12.028.805 18.287-.771 8.783-2.213 18.746-4.76 29.724 3.855l-3.08 4.091z" fill="#F99746"/><path d="M212.689 109.048c4.686.202 9.275-.335 13.535-1.508 3.539-.972 7.603.972 9.831 4.727l.459.805c1.77.938 3.081 2.078 3.703 3.587l3.868-2.381s-1.18-1.978-2.557-4.324c-2.458-4.157-2.326-9.22.361-12.27 11.47-13.11 15.763-34.834 4.817-53.373L230.583 8.84l-12.913 7.98c0-.067 52.37 72.516-4.981 92.228z" fill="#ED7D2B"/><path d="M235.891 120.447l12.847-7.946c1.736-1.072 2.294-3.419 1.245-5.196-1.049-1.777-3.343-2.347-5.08-1.274l-12.846 7.945c-1.737 1.073-2.294 3.42-1.246 5.197 1.049 1.777 3.343 2.38 5.08 1.274z" fill="#F99746"/><path d="M212.132 97.774l-1.547-2.593c7.009-4.355 7.04-5.412 4.073-10.445l-14.997-25.337c-2.115-3.569-3.537-3.155-6.625-1.885l-2.329.821-1.356-2.322c5.031-3.628 10.229-8.405 13.457-12.162l21.122 35.673c3.063 5.168 3.863 5.57 11.199 1.933l1.548 2.594-24.545 13.723z" fill="#fff"/><path d="M156.286 94.766s.458 5.096-1.115 6.068c-1.605.973-2.163-6.068-2.163-6.068s-.098 5.767-1.311 6.169c-1.212.402-1.966-6.638-1.966-6.638s-.131 5.599-.95 5.397c-.82-.2-1.41-5.397-1.41-5.397s-.36 4.056-1.507 3.319c-1.114-.738-2.196-5.063-2.196-5.063l12.618 2.213zm-12.582 13.142s-3.408-2.749-4.162-5.23c-.753-2.514-2.949-6.705-1.802-7.207 1.18-.503 4.621 4.894 4.621 4.894l1.343 7.543zm-59.122 87.703l.427 2.28s1.999 7.006-6.391 9.789c-8.39 2.783-15.435 4.057-16.255-1.475-.065-4.425.066-11.298-.557-14.852-.23-1.307-.59-2.682-1.114-4.191l16.55-3.687 5.046-.168 2.294 12.304z" fill="#FFB27D"/><path d="M82.26 183.273l1.54 8.315c-15.73 4.257-22.613-2.917-23.137-4.426l16.55-3.687 5.047-.202z" fill="#E2915A"/><path d="M58.237 183.709c4.883 10.125 18.287 5.901 23.924 3.554 1.606-.67 2.556-1.173 2.556-1.173 1.704-1.04 1.933-4.325 1.344-8.348-1.18-8.013-5.473-19.009-7.57-21.523-3.114-3.822-8.03-7.51-20.68-.202-12.65 7.309-5.833 14.685.426 27.692z" fill="#FFB27D"/><path d="M79.868 144.82s-6.096 1.24-14.027.134c-6.423-.905-12.88 3.989-14.878 5.9a4.246 4.246 0 01.163-1.609s-.852 1.073-.72 2.179c-.099.101-.132.168-.099.201 0 0-1.245.135-1.933.705 0 0 .524-.235.819.067.033.033.066.067.098.067-7.734 6.973-4.588 21.657-.786 24.171 4.555 3.018 12.387 11.366 12.387 11.366s-.262-3.051-1.867-6.404c-1.606-3.352 1.376-4.224 4.719-6.906 3.343-2.682-1.049-6.303 1.507-9.957 2.556-3.688 15.108-5.532 14.354-7.577 4.097-2.984.394-11.868.263-12.337z" fill="#233862"/><path d="M77.864 179.955s.82 1.24 4.096-.235c0 0 2.753-1.24 2.098-2.715 0 0-3.114-.034-6.194 2.95z" fill="#fff"/><path d="M81.537 214.251s7.537 51.26 64.003 86.831l5.276 15.656h-20.384s-50.567-43.382-53.975-101.012l5.08-1.475z" fill="#FF609B"/><path d="M81.538 214.251v-7.778l-9.308 2.716 4.26 6.537 5.048-1.475z" fill="#EA4582"/><path d="M84.585 195.611l5.44 4.76s1.508 6.638-2.163 13.88l-10.978-6.437s6.489-3.185 7.701-12.203zm-7.702 12.204s-1.08 6.034-3.932 9.018c0 0-12.355-2.213-15.796-8.281l5.178-8.281c-.033 0 1.212 5.666 14.55 7.544z" fill="#EAEBEF"/><path d="M2.787 340.676s-.033 11.465 1.016 13.745c1.048 2.28 5.67 9.722 7.8 11.298 2.13 1.576-.46-9.186.196-11.164.655-1.978 1.475 3.889 2.49 4.124.984.234 1.246-4.928 1.475-6.806.23-1.877-4.194-7.007-5.538-11.164-1.31-4.157-7.44-.033-7.44-.033z" fill="#FFB27D"/><path d="M47.582 211.1s-10.88 3.017-18.254 19.612C21.594 248.112.915 286.767.161 292.097c-.753 5.331 1.377 55.149 1.377 55.149s9.045.369 11.863-4.023c0 0 3.146-43.717 4.555-46.097 1.41-2.38 37.033-45.829 34.018-56.859-3.015-11.063-4.392-29.167-4.392-29.167z" fill="#fff"/><path d="M33.36 342.352c2.688 2.38 6.325 4.425 11.241 5.867 1.213.369 2.327.469 3.409.335 19.892-2.112 16.845-81.232 7.21-87.065-10.16-6.169-13.765 3.185-13.765 3.185.066 20.651-1.114 45.628-8.324 71.912-.623 2.313-.524 4.19.23 5.766z" fill="#EAEBEF"/><path d="M90.549 480.141c-.131-.603-.295-1.274-.459-2.011.164.67.328 1.341.459 2.011zm-.983-4.224c-6.095-29.503.459-108.522-2.458-110.031-3.015-1.542-11.601 12.572-11.601 12.572 1.54 34.833 7.701 69.532 14.06 97.459z" fill="#233862"/></svg>