<svg width="204" height="69" fill="none" xmlns="http://www.w3.org/2000/svg"><path d="M44.71 68.003H5.52A5.522 5.522 0 010 62.488V21.275a5.515 5.515 0 015.52-5.515h39.19a5.522 5.522 0 015.52 5.515v41.213a5.522 5.522 0 01-5.52 5.515z" fill="#5DC4ED"/><path opacity=".8" d="M44.164 67.567L5.4 61.797A5.515 5.515 0 01.752 55.53l6.08-40.764a5.527 5.527 0 016.272-4.643l38.753 5.77a5.515 5.515 0 014.647 6.267l-6.079 40.764c-.437 3.018-3.252 5.091-6.26 4.643z" fill="#6BB96B"/><path opacity=".8" d="M46.676 64.791l-38.28-8.376a5.508 5.508 0 01-4.21-6.57l8.82-40.255a5.513 5.513 0 016.577-4.206l38.28 8.376a5.508 5.508 0 014.21 6.57l-8.821 40.255a5.519 5.519 0 01-6.576 4.206z" fill="#E25966"/><path opacity=".8" d="M47.658 62.597L10.69 49.603a5.503 5.503 0 01-3.373-7.03L21.002 3.686A5.51 5.51 0 0128.04.317l36.97 12.994a5.502 5.502 0 013.373 7.03L54.708 59.216a5.545 5.545 0 01-7.05 3.382z" fill="#FF609B"/><path d="M90.476 36.912h-8.457v5.721h9.913v3.527H77.615V24.827h14.293v3.563h-9.889v5.091h8.457v3.43zm4.659 9.248V33.41H92.77v-3.103h2.366V28.96c0-1.782.51-3.163 1.529-4.145 1.02-.982 2.45-1.48 4.295-1.48.582 0 1.31.098 2.16.292l-.049 3.285a5.515 5.515 0 00-1.286-.134c-1.589 0-2.39.752-2.39 2.243v1.285h3.155v3.103h-3.155V46.16h-4.259zm10.774 0V33.41h-2.366v-3.103h2.366V28.96c0-1.782.51-3.163 1.529-4.145 1.019-.982 2.451-1.48 4.295-1.48.582 0 1.31.098 2.16.292l-.049 3.285a5.515 5.515 0 00-1.286-.134c-1.589 0-2.39.752-2.39 2.243v1.285h3.154v3.103h-3.154V46.16h-4.259zm16.562.291c-2.33 0-4.222-.715-5.69-2.145-1.469-1.43-2.197-3.321-2.197-5.697v-.412c0-1.588.304-3.019.923-4.267.618-1.26 1.492-2.218 2.62-2.897 1.129-.679 2.415-1.018 3.871-1.018 2.172 0 3.882.679 5.132 2.048 1.25 1.37 1.869 3.31 1.869 5.819v1.733h-10.107c.133 1.03.546 1.867 1.237 2.497.692.63 1.565.933 2.621.933 1.638 0 2.912-.594 3.834-1.77l2.087 2.328c-.631.897-1.492 1.6-2.584 2.097-1.092.509-2.294.751-3.616.751zm-.485-13.03c-.838 0-1.529.279-2.051.848-.522.57-.861 1.382-1.007 2.449h5.897v-.34c-.025-.945-.279-1.672-.765-2.181-.485-.51-1.177-.776-2.074-.776zm16.015 9.624c.777 0 1.42-.218 1.905-.642.485-.425.74-1.006.764-1.71h3.98a5.416 5.416 0 01-.886 2.958c-.582.897-1.371 1.588-2.366 2.085-1.007.497-2.111.74-3.324.74-2.269 0-4.065-.716-5.375-2.158-1.31-1.442-1.966-3.43-1.966-5.976v-.279c0-2.448.656-4.388 1.954-5.842 1.298-1.455 3.082-2.182 5.35-2.182 1.99 0 3.58.57 4.781 1.697 1.201 1.127 1.808 2.63 1.832 4.51h-3.98c-.024-.825-.279-1.492-.764-2.013-.485-.521-1.141-.776-1.941-.776-.983 0-1.735.364-2.233 1.079-.509.715-.752 1.89-.752 3.503v.436c0 1.637.255 2.813.752 3.528.498.679 1.262 1.042 2.269 1.042zm14.147-16.643v3.904h2.718v3.103h-2.718v7.915c0 .582.109 1.006.34 1.26.231.255.655.376 1.286.376a7.55 7.55 0 001.25-.097v3.212a8.749 8.749 0 01-2.572.376c-2.973 0-4.49-1.503-4.55-4.497V33.41h-2.306v-3.103h2.318c.837 0 1.334-3.904 1.334-3.904h2.9zm10.956 9.285l-3.009-.024V46.16h-1.807V24.827h1.807v8.642l2.767-.024 8.177-8.618h2.269l-8.954 9.503 9.634 11.843h-2.184l-8.7-10.486zm19.498 10.764c-1.347 0-2.572-.327-3.664-.993-1.092-.667-1.941-1.588-2.548-2.776-.607-1.188-.91-2.522-.91-3.988v-.63c0-1.528.291-2.898.886-4.122.594-1.224 1.419-2.182 2.475-2.885a6.05 6.05 0 013.434-1.042c1.929 0 3.457.654 4.586 1.976 1.128 1.309 1.698 3.115 1.698 5.382v.981h-11.32v.34c0 1.794.51 3.297 1.553 4.497 1.032 1.2 2.33 1.794 3.895 1.794.934 0 1.771-.17 2.487-.51.716-.339 1.371-.884 1.954-1.636l1.104.837c-1.298 1.842-3.167 2.775-5.63 2.775zm-.315-14.945c-1.323 0-2.439.485-3.337 1.454-.91.97-1.456 2.267-1.65 3.903h9.524v-.194c-.048-1.527-.485-2.763-1.31-3.72-.825-.958-1.905-1.443-3.227-1.443zm14.547 12.134l4.635-13.335h1.893l-6.783 18.558-.837 2.158-1.674.073 1.116-2.922.777-2.145-5.97-15.722h1.917l4.926 13.334z" fill="#24204E"/><path d="M31.861 35.797H22.18v6.558h11.369v4.049H17.12V21.943H33.5v4.085H22.166v5.83h9.682v3.94h.012zm12.534.096l-2.852.025v10.485h-5.047V21.942h5.047v9.333l2.451-.012 6.82-9.333h6.09l-8.457 10.873 9.063 13.6h-6.114l-7.001-10.51z" fill="#fff"/></svg>