<svg width="132" height="44" fill="none" xmlns="http://www.w3.org/2000/svg"><path d="M28.929 44H3.572C1.602 44 0 42.4 0 40.431V13.766a3.568 3.568 0 013.572-3.569h25.357c1.97 0 3.572 1.6 3.572 3.569V40.43A3.573 3.573 0 0128.929 44z" fill="#5DC4ED"/><path opacity=".8" d="M28.576 43.718L3.494 39.984A3.568 3.568 0 01.487 35.93L4.42 9.554A3.576 3.576 0 018.479 6.55l25.074 3.733a3.568 3.568 0 013.007 4.055l-3.934 26.376a3.559 3.559 0 01-4.05 3.004z" fill="#6BB96B"/><path opacity=".8" d="M30.2 41.922l-24.768-5.42a3.564 3.564 0 01-2.724-4.25L8.416 6.204a3.567 3.567 0 014.255-2.721l24.768 5.42a3.564 3.564 0 012.724 4.25L34.455 39.2a3.571 3.571 0 01-4.254 2.722z" fill="#E25966"/><path opacity=".8" d="M30.836 40.502l-23.92-8.408a3.56 3.56 0 01-2.182-4.548l8.855-25.16a3.566 3.566 0 014.553-2.18l23.92 8.407a3.56 3.56 0 012.183 4.549l-8.848 25.152a3.588 3.588 0 01-4.56 2.188z" fill="#FF609B"/><path d="M58.54 23.883h-5.47v3.702h6.413v2.282H50.22V16.064h9.248v2.305H53.07v3.294h5.471v2.22zm3.015 5.984v-8.25h-1.53v-2.008h1.53v-.871c0-1.153.33-2.047.99-2.682.659-.636 1.585-.957 2.778-.957.377 0 .848.063 1.398.188l-.032 2.126a3.568 3.568 0 00-.832-.087c-1.028 0-1.546.486-1.546 1.451v.832h2.04v2.007h-2.04v8.251h-2.756zm6.971 0v-8.25h-1.53v-2.008h1.53v-.871c0-1.153.33-2.047.99-2.682.659-.636 1.585-.957 2.778-.957.377 0 .848.063 1.398.188l-.032 2.126a3.568 3.568 0 00-.832-.087c-1.028 0-1.546.486-1.546 1.451v.832h2.04v2.007h-2.04v8.251h-2.756zm10.716.188c-1.507 0-2.732-.462-3.682-1.388-.95-.925-1.42-2.149-1.42-3.686v-.267c0-1.027.195-1.952.596-2.76.4-.816.965-1.436 1.695-1.875.73-.439 1.563-.659 2.505-.659 1.405 0 2.512.44 3.32 1.326.81.886 1.21 2.141 1.21 3.765v1.121h-6.54c.086.667.353 1.208.8 1.616.448.407 1.014.604 1.697.604 1.06 0 1.884-.385 2.48-1.146l1.35 1.506c-.408.58-.965 1.036-1.672 1.357-.706.33-1.483.486-2.34.486zm-.314-8.43c-.542 0-.99.18-1.327.548-.337.369-.557.894-.651 1.585h3.815v-.22c-.016-.612-.18-1.082-.495-1.412-.314-.33-.761-.502-1.342-.502zm10.362 6.227c.503 0 .919-.142 1.233-.416.314-.275.479-.651.495-1.106h2.575a3.508 3.508 0 01-.574 1.914 3.813 3.813 0 01-1.53 1.349c-.652.321-1.366.478-2.151.478-1.468 0-2.63-.463-3.478-1.396-.848-.933-1.272-2.22-1.272-3.867v-.18c0-1.584.424-2.84 1.264-3.78.84-.941 1.994-1.412 3.462-1.412 1.288 0 2.316.369 3.093 1.098.777.73 1.17 1.702 1.186 2.918h-2.575c-.016-.534-.18-.965-.495-1.302-.314-.338-.738-.502-1.256-.502-.636 0-1.123.235-1.444.698-.33.462-.487 1.223-.487 2.266v.283c0 1.058.165 1.82.487 2.282.321.44.816.675 1.468.675zm9.154-10.769v2.526h1.759v2.007h-1.759v5.122c0 .376.071.65.22.815.15.165.424.244.832.244.306 0 .573-.024.809-.063v2.078a5.662 5.662 0 01-1.664.243c-1.924 0-2.905-.972-2.944-2.91v-5.529h-1.492v-2.008h1.5c.541 0 .863-2.525.863-2.525h1.876zm7.089 6.007l-1.947-.015v6.792h-1.17V16.064h1.17v5.591l1.79-.015 5.291-5.576h1.468l-5.793 6.148 6.233 7.663h-1.413l-5.629-6.784zm12.616 6.965c-.872 0-1.664-.211-2.371-.643a4.4 4.4 0 01-1.649-1.796c-.392-.768-.588-1.631-.588-2.58v-.408c0-.988.188-1.874.573-2.666.384-.793.918-1.412 1.601-1.867a3.916 3.916 0 012.222-.675c1.248 0 2.237.424 2.967 1.279.73.847 1.099 2.015 1.099 3.482v.635h-7.324v.22c0 1.16.33 2.133 1.005 2.91.667.776 1.507 1.16 2.52 1.16.604 0 1.146-.11 1.609-.329.463-.22.887-.573 1.264-1.059l.715.541c-.841 1.192-2.049 1.796-3.643 1.796zm-.204-9.67c-.856 0-1.578.314-2.159.941-.589.628-.942 1.467-1.068 2.526h6.163v-.126c-.032-.988-.314-1.788-.848-2.408-.534-.62-1.233-.933-2.088-.933zm9.412 7.851l2.999-8.628h1.225l-4.389 12.008-.541 1.396-1.084.047.723-1.89.502-1.388-3.862-10.172h1.24l3.187 8.627z" fill="#24204E"/><path d="M20.615 23.162H14.35v4.243h7.356v2.62h-10.63V14.198h10.599v2.643h-7.333v3.772h6.265v2.55h.008zm8.109.062l-1.844.016v6.784h-3.266V14.197h3.266v6.039l1.585-.008 4.412-6.039h3.941l-5.471 7.035 5.864 8.8h-3.957l-4.53-6.8z" fill="#fff"/></svg>