<svg width="482" height="484" fill="none" xmlns="http://www.w3.org/2000/svg"><g clip-path="url(#clip0)"><path d="M424.141 417.028c-12.537 12.9-23.721 20.498-32.314 26.211-83.64 55.899-179.227 39.76-208.775 34.282-47.676-8.895-87.936-15.138-122.486-46.415-78.578-71.037-74.752-219.235-14.715-311.063 7.122-10.838 67.1-99.78 162.864-112.327 2.354-.294 4.12-.471 5.651-.648 14.832-1.59 106.653-9.837 181.522 52.894 10.712 9.012 27.958 25.21 43.968 49.891 58.506 90.473 58.683 230.484-15.715 307.175z" fill="#E6E8CE" fill-opacity=".2"/><path d="M418.314 470.865c0 5.772-4.65 10.426-10.418 10.426H210.423V178.238c0-15.844 12.831-28.685 28.664-28.685H389.65c15.833 0 28.664 12.841 28.664 28.685v292.627z" fill="#01BA57"/><path d="M22.956 62.79c.765-2.592 4.532-2.415 5.062.236 5.062 25.68 20.483 92.653 49.383 129.82 47.029 60.552 74.104 154.913 37.376 199.797-.059 0-176.402-47.063-91.82-329.853z" fill="#146A68" fill-opacity=".1"/><path opacity=".43" d="M25.134 99.074c0 .825.06 1.531.118 2.238l.177 2.18.353 4.358c.235 2.887.588 5.773.883 8.659a862.664 862.664 0 002.119 17.258c1.53 11.486 3.355 22.913 5.415 34.34a672.416 672.416 0 006.886 34.105c2.59 11.309 5.297 22.559 8.417 33.751 6.18 22.383 13.538 44.412 22.425 65.853 4.592 10.661 9.418 21.204 14.833 31.453 5.533 10.19 11.478 20.204 18.129 29.687.118.236.412.236.647.118.177-.118.236-.412.118-.648-6.24-9.719-12.007-19.732-17.187-30.04-5.238-10.308-9.888-20.852-14.244-31.513-4.355-10.661-8.3-21.558-11.948-32.514-3.709-10.956-6.887-22.029-10.065-33.162-6.24-22.265-11.242-44.825-15.716-67.502a962.94 962.94 0 01-5.886-34.163 858.215 858.215 0 01-2.472-17.141l-1.06-8.6-.47-4.299-.236-2.18c-.059-.707-.117-1.472-.176-2.061v-.118c0-.236-.236-.471-.471-.412-.412-.118-.589.117-.589.353z" fill="#fff"/><path d="M114.542 12.546c1.413-2.179 4.826-1.001 4.591 1.59-2.354 24.975-6.474 90.592 9.888 132.531 26.664 68.326 25.722 162.276-20.188 193.435-.059 0-148.974-91.299 5.709-327.556z" fill="#146A68" fill-opacity=".5"/><path opacity=".43" d="M106.595 46.415c-.235.766-.353 1.414-.529 2.062l-.471 2.061-.824 4.065c-.53 2.71-1.06 5.419-1.531 8.187-1 5.478-1.942 10.897-2.766 16.375a778.12 778.12 0 00-4.414 32.985c-1.295 11.015-2.237 22.088-3.002 33.103-.707 11.074-1.295 22.147-1.472 33.221-.47 22.206.295 44.412 2.649 66.501 1.295 11.014 2.825 22.029 5.062 32.926 2.295 10.838 5.003 21.617 8.535 32.161.058.235.353.353.588.294.236-.059.353-.294.294-.53a336.856 336.856 0 01-7.592-32.219c-2.002-10.838-3.414-21.853-4.474-32.809-1.06-11.015-1.707-22.029-2.119-33.044-.412-11.015-.294-22.089-.176-33.162.353-22.089 1.883-44.177 4.002-66.206a1023.298 1023.298 0 013.885-32.927c.765-5.478 1.53-10.956 2.413-16.433l1.354-8.188.706-4.064.353-2.062c.118-.648.295-1.354.412-1.943v-.118c.059-.236-.059-.472-.294-.53-.294-.06-.53.058-.589.294z" fill="#fff"/><path d="M290.119 481.291h-181.11v-200.15c0-15.845 12.831-28.686 28.664-28.686h123.84c15.834 0 28.665 12.841 28.665 28.686v200.15h-.059z" fill="#0DA051"/><path d="M162.807 481.291H17.13a10.404 10.404 0 01-10.418-10.426V348.348c0-15.845 12.832-28.685 28.665-28.685h98.825c15.833 0 28.664 12.84 28.664 28.685v132.943h-.059z" fill="#01BA57"/><path d="M325.669 136.535h-9.123l-14.362-42.233 39.907-2.415-16.422 44.648z" fill="#FFC73C"/><path d="M277.935 15.845c-.059 3.593-.059 73.333 35.375 84.701 35.374 11.31 51.384-47.71 50.148-89.767l-85.523 5.066zm71.514 127.052h-56.623v6.892h56.623v-6.892zm0 0h-56.623l14.303-7.657h27.958l14.362 7.657z" fill="#FFC73C"/><path d="M273.815 5.95c-3.12.176-5.651 2.473-5.651 5.124v5.36c0 2.65 2.531 4.653 5.651 4.476l97-5.242c3.12-.176 5.651-2.474 5.651-5.065V4.418c0-2.65-2.531-4.595-5.651-4.418l-97 5.95z" fill="#F7BE32"/><path d="M338.382 106.083c-2.236 0-4.238-1.413-4.473-3.357-.294-2.062 1.471-3.947 3.944-4.182.47-.06 33.02-3.475 36.139-21.323.53-3.004.471-6.95-2.766-8.6-2.649-1.354-7.004-.942-10.183 1.002-1.766 1.119-3.708 3.004-2.884 5.949.589 2.061-.942 4.064-3.355 4.594-2.413.472-4.826-.766-5.415-2.827-1.471-5.301.883-10.426 6.357-13.842 6.062-3.77 14.362-4.3 20.13-1.355 3.355 1.708 8.77 6.067 7.063 16.198-1.707 9.955-10.065 17.965-24.074 23.09-10.065 3.711-19.541 4.653-19.953 4.653-.177-.059-.353 0-.53 0zm-33.784 0c2.236 0 4.238-1.413 4.473-3.357.294-2.062-1.471-3.947-3.943-4.182-.471-.06-33.021-3.475-36.14-21.323-.53-3.004-.471-6.95 2.766-8.6 2.649-1.354 7.004-.942 10.183 1.002 1.766 1.119 3.708 3.004 2.884 5.949-.589 2.061.942 4.064 3.355 4.594 2.413.472 4.826-.766 5.415-2.827 1.472-5.301-.883-10.426-6.357-13.842-6.062-3.77-14.362-4.3-20.13-1.355-3.355 1.708-8.77 6.067-7.063 16.198 1.707 9.955 10.065 17.965 24.074 23.09 10.065 3.711 19.541 4.653 19.953 4.653.177-.059.353 0 .53 0z" fill="#FFC73C"/><path d="M344.21 10.367a.68.68 0 01-.706-.707c0-.412.294-.765.706-.765l8.652-.472c.412 0 .766.295.766.707s-.295.766-.707.766l-8.711.471c.059 0 0 0 0 0zm-66.275 3.534a.68.68 0 01-.707-.707c0-.412.295-.766.707-.766l51.737-2.768c.412 0 .765.295.765.707s-.294.766-.706.766L277.935 13.9zm40.082 78.693h-.059c-9.359-1.06-16.893-8.717-22.249-22.677-4.473-11.545-6.592-25.092-7.534-34.399-.059-.412.236-.766.648-.825.412-.058.765.236.824.648 1.707 15.963 7.828 53.366 28.547 55.78.412.06.706.413.647.826-.118.353-.471.647-.824.647zm-29.781-63.732a.68.68 0 01-.706-.707c-.118-2.12-.177-3.357-.177-3.416 0-.412.294-.766.706-.766s.766.295.766.707c0 0 .058 1.237.176 3.358 0 .47-.353.824-.765.824zM77.165 238.967c-.53.471-1 1.001-1.53 1.531a1.104 1.104 0 000 1.532c.235.176.47.294.765.294.294 0 .53-.118.765-.294l1.472-1.473c.412-.412.412-1.06 0-1.531-.353-.413-1.06-.413-1.472-.059zm-23.013 39.405a.745.745 0 00.353.059c.412 0 .824-.294 1.001-.706.235-.648.47-1.296.765-2.003.236-.53-.059-1.178-.589-1.355-.53-.236-1.177.059-1.353.589-.236.648-.53 1.355-.765 2.003-.236.589 0 1.178.588 1.413zm2.53-6.597c.118.059.295.059.412.059.413 0 .825-.235 1.001-.648.294-.648.589-1.296.824-1.944.236-.53 0-1.178-.53-1.413-.53-.236-1.177 0-1.412.53l-.883 1.944c-.177.589.059 1.237.588 1.472zm-8.181 27.095h.236c.47 0 .941-.353 1.06-.824.117-.707.294-1.355.47-2.062.118-.589-.235-1.119-.824-1.296-.588-.117-1.118.236-1.295.825-.176.707-.294 1.414-.47 2.12-.118.531.235 1.12.823 1.237zm1.531-6.95c.118 0 .177.059.295.059.47 0 .882-.295 1-.825.177-.707.353-1.355.53-2.061a1.008 1.008 0 00-.765-1.296 1.007 1.007 0 00-1.295.765c-.177.707-.353 1.355-.53 2.062-.118.589.235 1.178.765 1.296zm9.594-26.624c.176.059.294.118.47.118.413 0 .766-.236.942-.589.295-.648.648-1.237 1-1.885.295-.53.06-1.178-.411-1.414-.53-.294-1.177-.058-1.413.413-.353.648-.647 1.296-1 1.885-.295.589-.06 1.178.412 1.472zm7.122-12.252c.176.118.412.177.588.177.353 0 .648-.177.883-.471.412-.589.824-1.119 1.236-1.708.353-.472.236-1.119-.235-1.473-.471-.353-1.119-.236-1.472.236l-1.236 1.767c-.353.471-.235 1.119.236 1.472zm4.943-5.477c.294 0 .589-.118.824-.413.471-.53.883-1.06 1.354-1.59.412-.471.353-1.119-.118-1.473-.47-.412-1.118-.353-1.471.118-.471.53-.942 1.119-1.413 1.649-.353.472-.294 1.12.118 1.473.176.177.47.236.706.236zm-8.71 11.485a.948.948 0 00.53.177c.353 0 .706-.177.942-.53.353-.589.706-1.178 1.118-1.826.294-.471.177-1.178-.353-1.472-.47-.295-1.177-.177-1.471.353-.354.589-.766 1.237-1.119 1.826-.294.53-.117 1.178.353 1.472zm-11.067 26.035c.118.059.236.059.295.059.47 0 .883-.294 1-.766.236-.648.412-1.354.648-2.002a1.08 1.08 0 10-2.06-.648c-.236.707-.412 1.355-.648 2.061-.118.531.236 1.12.765 1.296zm-4.707 20.734h.176c.53 0 .942-.354 1.06-.884.117-.707.235-1.413.353-2.061.117-.589-.294-1.119-.883-1.237-.589-.118-1.118.294-1.236.883l-.353 2.121c-.06.53.353 1.06.883 1.178zm35.375-71.566c-.588.471-1.118.883-1.648 1.354-.47.354-.53 1.061-.117 1.473a1.16 1.16 0 001.53.118c.53-.471 1.06-.884 1.59-1.355.47-.353.529-1.06.176-1.473-.412-.412-1.119-.471-1.53-.117zm12.125-7.716c-.648.294-1.295.647-1.943 1.001-.53.294-.706.942-.47 1.413.176.354.588.59.941.59.177 0 .353-.059.471-.118.589-.354 1.236-.648 1.884-.943a1.01 1.01 0 00.47-1.413c-.235-.589-.824-.825-1.353-.53zm119.366-80.049l-1.53 1.532a1.103 1.103 0 000 1.531c.235.177.471.295.765.295.294 0 .53-.118.765-.295.471-.53 1.001-1.001 1.471-1.531.413-.413.413-1.061 0-1.532a1.03 1.03 0 00-1.471 0zm-4.945 5.183l-1.412 1.591c-.412.412-.353 1.119.059 1.472.176.177.47.295.706.295.294 0 .588-.118.765-.354l1.413-1.59c.412-.412.353-1.119-.059-1.531a1.037 1.037 0 00-1.472.117zm-4.708 5.361c-.471.53-.942 1.119-1.354 1.649-.353.471-.294 1.119.177 1.473.177.176.412.235.647.235.295 0 .589-.118.824-.412.471-.53.883-1.06 1.354-1.649.353-.472.294-1.12-.118-1.473-.47-.353-1.118-.294-1.53.177zm20.188-20.145c-.53.471-1.118.943-1.648 1.355-.471.353-.471 1.06-.118 1.472.236.236.53.354.824.354.236 0 .471-.059.706-.236.53-.471 1.06-.883 1.59-1.354.471-.354.529-1.061.117-1.473-.353-.412-1-.471-1.471-.118zm-5.354 4.712c-.53.472-1.06.943-1.589 1.473-.412.412-.471 1.06-.059 1.531.235.236.471.354.765.354.235 0 .53-.118.706-.295.53-.471 1.06-.942 1.531-1.413.412-.413.471-1.061.059-1.532-.354-.53-1.001-.53-1.413-.118zm-26.076 32.279c-.471-.295-1.177-.177-1.471.294a18.858 18.858 0 00-1.119 1.826c-.294.471-.176 1.178.353 1.473a.995.995 0 00.589.176c.353 0 .706-.176.883-.471.353-.589.765-1.178 1.118-1.767.295-.53.177-1.178-.353-1.531zm-3.707 6.067c-.53-.295-1.178-.118-1.472.353-.353.589-.706 1.237-1.059 1.826a1.07 1.07 0 00.412 1.473c.176.117.353.117.529.117.354 0 .707-.176.942-.53.353-.589.706-1.237 1.06-1.826.235-.471.058-1.119-.412-1.413zm7.709-11.899c-.471-.353-1.119-.235-1.472.236l-1.236 1.767c-.353.471-.235 1.119.294 1.473.177.118.412.176.589.176.353 0 .647-.176.883-.471.412-.589.824-1.178 1.177-1.708.353-.471.294-1.119-.235-1.473zm4.238-5.654c-.471-.354-1.119-.295-1.472.176-.412.589-.883 1.12-1.295 1.709-.353.471-.235 1.119.236 1.472.176.118.412.236.647.236.295 0 .648-.118.824-.413.412-.589.824-1.119 1.295-1.708.353-.471.236-1.119-.235-1.472zm-15.421 23.678c-.53-.294-1.178-.059-1.413.413-.353.648-.648 1.237-1.001 1.885a1.01 1.01 0 00.471 1.413c.177.059.294.118.471.118.412 0 .765-.236.942-.589.294-.648.647-1.237 1-1.885.236-.412 0-1.06-.47-1.355zm57.035-60.315c-.647.235-1.353.53-2.001.765-.529.236-.824.825-.588 1.414.176.412.588.648 1 .648.118 0 .295 0 .412-.059.648-.295 1.295-.53 1.943-.766.529-.176.824-.824.647-1.354-.235-.531-.883-.825-1.413-.648zm-6.592 3.004c-.647.353-1.236.706-1.884 1.06-.529.294-.647.942-.353 1.472.177.354.53.531.942.531a.949.949 0 00.53-.177c.588-.354 1.177-.707 1.824-1.002.53-.294.707-.942.412-1.413-.294-.589-.941-.766-1.471-.471zm13.654-4.831c-.53.059-1.059.177-1.53.295-.177.059-.412.059-.589.118-.588.118-.942.707-.824 1.296.118.471.53.824 1.06.824h.235c.177-.059.353-.059.589-.118.471-.117.941-.176 1.471-.235.589-.059 1.001-.648.883-1.237-.177-.648-.706-1.001-1.295-.943zm-19.776 8.6l-1.766 1.237c-.471.354-.588 1.002-.235 1.473.235.294.529.412.883.412.235 0 .412-.059.647-.235.589-.413 1.118-.825 1.707-1.237.471-.354.589-1.002.235-1.473-.353-.412-1-.53-1.471-.177zm-107.772 87.647c-.706 0-1.472 0-2.178.059-.588 0-1.059.53-1 1.119 0 .589.47 1.001 1.059 1.001h.059c.706 0 1.412-.058 2.119-.058.588 0 1.059-.472 1.059-1.061-.059-.589-.529-1.06-1.118-1.06zm7.181.353c-.706-.059-1.413-.118-2.178-.176a1.022 1.022 0 00-1.118 1.001 1.022 1.022 0 001.001 1.119c.706.059 1.412.118 2.06.177h.117a1.08 1.08 0 001.06-.943 1.063 1.063 0 00-.942-1.178zm7.124 1.179c-.707-.177-1.413-.295-2.119-.472-.589-.117-1.118.295-1.236.825-.118.589.294 1.119.824 1.237.706.118 1.354.294 2.06.412h.235c.471 0 .942-.353 1.06-.824.118-.472-.236-1.002-.824-1.178zm19.657 8.894c-.588-.413-1.177-.884-1.765-1.237-.471-.354-1.119-.177-1.472.294s-.176 1.119.294 1.473c.589.412 1.119.765 1.707 1.178.177.118.412.235.648.235.353 0 .647-.176.824-.412.353-.53.235-1.178-.236-1.531zm-6.121-3.888c-.648-.353-1.295-.648-1.943-1.001-.53-.236-1.177 0-1.412.471-.236.53 0 1.178.47 1.414.648.294 1.236.589 1.884.942.177.059.353.118.471.118.353 0 .765-.177.942-.589.294-.412.117-1.06-.412-1.355zm-6.592-2.945c-.706-.236-1.353-.471-2.06-.707a1.081 1.081 0 00-.647 2.062c.647.235 1.295.412 2.001.706a.744.744 0 00.353.059c.412 0 .824-.294 1.001-.706.176-.589-.118-1.237-.648-1.414zm-55.386 6.244c-.353.235-.648.412-1 .648-.295.176-.53.353-.825.589-.47.353-.588 1.001-.294 1.472.235.295.53.472.883.472a.993.993 0 00.588-.177c.295-.177.53-.354.824-.53.295-.236.648-.413.942-.589.471-.295.648-1.002.294-1.473a.971.971 0 00-1.412-.412zm19.836-8.188l-2.119.53c-.589.177-.883.707-.765 1.296.118.471.53.825 1 .825.118 0 .177 0 .295-.059a21.005 21.005 0 012.06-.471c.588-.118.942-.707.824-1.296-.118-.589-.706-.943-1.295-.825zm-6.889 1.944c-.707.236-1.354.471-2.06.766-.53.235-.824.824-.589 1.354.177.413.589.707 1 .707.118 0 .236 0 .354-.059l1.942-.706c.53-.177.824-.825.648-1.355-.177-.589-.766-.884-1.295-.707zm14.009-3.181c-.706.059-1.412.177-2.119.295-.588.059-1 .648-.883 1.178.059.53.53.883 1.06.883h.176c.707-.118 1.354-.176 2.061-.294.588-.059 1-.589.941-1.178a1.162 1.162 0 00-1.236-.884zm57.212-1.767c-.589-.177-1.177.177-1.295.707-.176.707-.412 1.355-.588 2.062a1.007 1.007 0 00.765 1.295c.117 0 .176.059.294.059a1.01 1.01 0 001.001-.765 27.02 27.02 0 01.588-2.062c.118-.53-.235-1.119-.765-1.296zm2.119-6.774c-.53-.176-1.177.118-1.354.648-.235.707-.47 1.355-.647 2.062-.177.589.118 1.178.706 1.355.118.059.236.059.295.059.47 0 .882-.295 1-.766.236-.648.412-1.355.648-2.003.235-.53-.118-1.119-.648-1.355zm2.414-6.656c-.53-.235-1.177.059-1.354.648-.235.648-.471 1.355-.765 2.003-.177.53.059 1.178.647 1.355a.748.748 0 00.354.059c.412 0 .824-.295 1-.707.236-.648.471-1.296.706-2.003.236-.53-.058-1.119-.588-1.355zm2.649-6.538c-.53-.235-1.177 0-1.413.589-.294.648-.529 1.296-.824 2.003-.235.53.059 1.178.589 1.414.118.059.294.059.412.059.412 0 .824-.236 1-.648.295-.648.53-1.296.825-1.944.235-.648 0-1.237-.589-1.473zm3.002-6.479c-.53-.236-1.178 0-1.413.53l-.883 1.944c-.235.53 0 1.178.53 1.414.117.058.294.117.471.117.412 0 .765-.235.941-.589.295-.648.589-1.296.883-1.885.177-.589 0-1.237-.529-1.531zm-13.538 40.23c-.588-.117-1.118.295-1.236.825-.117.707-.235 1.414-.412 2.12-.117.59.295 1.12.883 1.237h.177c.53 0 .942-.353 1.059-.883.118-.707.236-1.414.412-2.062.059-.589-.294-1.119-.883-1.237zm-1.237 7.01c-.589-.059-1.119.294-1.178.883a5.151 5.151 0 00-.117.943c0-.118-.059-.236-.177-.354l-1.236-1.767c-.353-.471-1.001-.589-1.471-.235-.471.353-.589 1.001-.236 1.472.412.53.824 1.119 1.177 1.708.353.471 1.001.589 1.472.295.176-.118.294-.236.353-.413 0 .177-.059.354-.059.472a1.063 1.063 0 00.942 1.178h.118c.529 0 1-.413 1.059-.943.118-.707.177-1.413.294-2.12.059-.53-.353-1.06-.941-1.119zm-7.593-5.773a1.052 1.052 0 00-1.531.059c-.412.412-.353 1.119.059 1.532.53.471 1.001.942 1.472 1.472.235.236.471.354.765.354.294 0 .53-.118.765-.295.412-.412.412-1.06.059-1.531-.53-.589-1.059-1.061-1.589-1.591zm10.359-8.128a1.125 1.125 0 00-1.294.765c-.177.707-.354 1.414-.471 2.062-.118.589.235 1.119.824 1.296h.235c.471 0 .942-.353 1.06-.825.176-.707.294-1.354.471-2.061a1.056 1.056 0 00-.825-1.237z" fill="#fff"/><path d="M257.667 132.188c3.862-3.864 3.862-10.129 0-13.994-3.862-3.864-10.123-3.864-13.984 0-3.862 3.865-3.862 10.13 0 13.994 3.861 3.865 10.122 3.865 13.984 0z" fill="#fff"/><path opacity=".5" d="M250.685 143.663c10.207 0 18.481-8.281 18.481-18.495 0-10.215-8.274-18.496-18.481-18.496-10.208 0-18.482 8.281-18.482 18.496 0 10.214 8.274 18.495 18.482 18.495z" stroke="#fff" stroke-width="7.563" stroke-miterlimit="10"/><path opacity=".5" d="M269.945 144.475c10.642-10.65 10.642-27.917 0-38.568-10.642-10.65-27.897-10.65-38.54 0-10.642 10.651-10.642 27.918 0 38.568 10.643 10.65 27.898 10.65 38.54 0z" stroke="#fff" stroke-width="4" stroke-miterlimit="10"/><path d="M145.678 111.443l-12.184 18.731c5.651 11.015 11.949 17.141 18.247 20.027 1.118-6.892 5.121-12.546 8.064-15.963-11.243-6.42-14.127-22.795-14.127-22.795z" fill="#FF609B"/><path d="M187.41 130.822c-12.42 7.363-21.366 6.95-27.606 3.357-2.942 3.417-6.945 9.071-8.063 15.963 19.953 9.189 39.965-13.96 39.965-13.96l-4.296-5.36z" fill="url(#paint0_linear)"/><path d="M188.117 134.003s-3.355-5.89 1.472-10.367c0 0 1.53-1.767 3.296.825 0 0 5.179-4.713 6.592-2.828 1.413 1.885 5.18 6.597 1.53 12.016-3.767 5.478-11.242 3.004-12.89.354z" fill="url(#paint1_linear)"/><path d="M11.244 256.519c-1.06.648-1.648 2.003-1.354 3.358 1 5.301 4.356 19.261 12.479 27.566.53.53 1.294.471 1.765 0-2.06-2.12-4.59-5.772-7.593-12.016-4.59-9.542-5.415-15.432-5.297-18.908z" fill="url(#paint2_linear)"/><path d="M21.722 256.343s-5.239-2.828-10.418.176h-.06c-.117 3.476.707 9.366 5.298 18.908 3.002 6.185 5.533 9.896 7.593 12.016a1.22 1.22 0 00.353-.589c1.472-5.301 4.709-19.968-2.766-30.511z" fill="url(#paint3_linear)"/><path d="M29.256 256.696l-4.709 4.535a2.41 2.41 0 01-3.06.295c-.825-.589-1.766-1.473-2.414-2.945-.353-.884-.177-1.944.471-2.651l4.709-5.183a2.495 2.495 0 014.002.412l1.472 2.474c.53.942.353 2.238-.471 3.063z" fill="url(#paint4_linear)"/><path d="M182.289 233.842c1.118.648 2.589.412 3.59-.471 4.12-3.476 14.597-13.312 17.776-24.445a1.182 1.182 0 00-.883-1.531c-.824 2.827-2.767 6.891-6.71 12.546-6.004 8.659-10.654 12.311-13.773 13.901z" fill="url(#paint5_linear)"/><path d="M176.935 224.83s.117 5.949 5.297 9.012h.059c3.119-1.59 7.769-5.242 13.832-13.96 3.943-5.655 5.827-9.66 6.71-12.546-.236-.059-.412-.059-.707 0-5.356 1.355-19.718 5.831-25.191 17.494z" fill="url(#paint6_linear)"/><path d="M176.579 214.993l4.944 4.3c.883.766 1.118 2.003.589 3.063-.471.883-1.295 1.885-2.767 2.651-.883.471-1.883.353-2.648-.236l-5.592-4.241c-1.354-1.001-1.295-3.004.059-4.005l2.354-1.709c.883-.647 2.178-.589 3.061.177z" fill="url(#paint7_linear)"/><path d="M77.342 171.347s-9.653 32.926-15.892 47.357c0 0-10.889 1.65-17.658 5.596-6.768 3.946-21.307 25.858-21.307 25.858s3.826 7.245 8.358 8.305l41.379-28.685 33.02-38.463-1.589-17.848-26.31-2.12z" fill="url(#paint8_linear)"/><path d="M77.933 168.637l-2.825 9.012s2.59 23.62 32.372 19.674c29.783-4.006 33.491-8.836 33.491-8.836s-2.589 15.079 29.96 33.221c0 0 4.944-3.711 6.062-8.011l-22.837-37.579c-3.179-4.948-6.121-6.244-11.89-5.301-12.831 2.002-36.787 4.594-40.436 4.005l-23.897-6.185z" fill="url(#paint9_linear)"/><path d="M101.181 101.665c-8.653.413-22.367 4.595-31.254 12.723 2.707 3.004 6.886 7.893 10.006 12.723 2.766-2.651 6.768-4.83 12.419-6.185-4.885 18.26-10.654 35.636-17.658 51.775-.412 1.002.059 2.18 1.118 2.533 5.416 1.885 21.484 6.421 34.316-.883l28.487-40.82a35.3 35.3 0 005.886-14.725l1.119-7.363c.059 0-25.545-10.779-44.439-9.778z" fill="#FF609B"/><path d="M85.644 163.454c-1.236-2.71-5.474-5.301-7.475-6.42-1.766-3.652-8.77-19.968 1.824-29.923-3.12-4.83-7.298-9.719-10.006-12.723-10.241 9.425-13.95 24.209 3.944 44.943-1 5.124 2.236 11.014 3.943 11.898.766.294 9.418-4.123 7.77-7.775z" fill="url(#paint10_linear)"/><path d="M120.427 90.827l-7.475 14.608c-.471.884-.294 1.944.353 2.71 1.825 2.002 6.063 5.301 13.479 2.945.824-.236 1.413-1.002 1.531-1.826l1.942-13.253-9.83-5.184z" fill="url(#paint11_linear)"/><path d="M132.85 73.864s4.355 10.013 4.65 15.314c.294 5.243 1.412 8.718-4.65 9.778-6.063 1.06-11.242-2.003-14.009-7.245 0 0-4.355-8.07-3.355-11.427.942-3.299 17.364-6.42 17.364-6.42z" fill="url(#paint12_linear)"/><path d="M120.9 87.941l.354-.177a.865.865 0 00.412-1.178c-.883-1.649-2.531-5.478-.354-6.361 2.767-1.12 13.832-3.416 16.187-7.304 2.295-3.77.235-8.659-2.767-10.013-.176-.118-.471 0-.529.176l-.236.472c-.176.353-.647.294-.765-.06-.118-.353-.53-.412-.765-.117-.706 1.178-2.708 3.063-8.005 4.064-7.534 1.414-12.478 4.418-12.596 9.601 0 .354-.353.53-.647.354-.53-.354-1.413-.472-2.649.53-2.06 1.708-1.236 6.243 3.296 9.954.235.177.235.53 0 .648-.824.53-2.06 1.826 1.118 3.475 3.296 1.767 5.71 1.59 6.651 1.473.236-.059.412-.295.354-.471l-1.001-4.595c-.059-.235.118-.53.412-.53h1.53v.06z" fill="url(#paint13_linear)"/><path d="M121.078 88.883s-1.648-6.42-4.532-4.594c-2.885 1.826 1.471 7.186 3.825 7.422l.707-2.828z" fill="url(#paint14_linear)"/><path d="M421.02 479.7c0-.177 0-.353.059-.471 2.296-9.66 13.655-15.668 13.655-15.668l4.533.353c2.589 8.482 2.236 13.725 1.824 16.081 0 .059-.059.117-.059.176-3.649.354-11.359.589-20.012-.471z" fill="url(#paint15_linear)"/><path d="M441.092 480.171c-.176.766-.765 1.355-1.412 1.532-5.298 1.178-13.715.235-17.246-.236-.765-.118-1.354-.883-1.354-1.708 8.594 1.001 16.304.766 20.012.412z" fill="url(#paint16_linear)"/><path d="M441.092 456.787l-1.883 9.778c-.118.707-.648 1.237-1.295 1.296-.766.059-1.884.118-2.943-.059-1.001-.177-1.648-1.237-1.472-2.356l1.354-8.659h6.239z" fill="url(#paint17_linear)"/><path d="M401.481 480.054c5.003-.177 7.534-.766 8.887-1.355v1.59c0 .589-.412 1.061-.941 1.061l-27.37-.177c-.883 0-1.413-1.06-1.001-1.944 3.591.353 12.773 1.06 20.425.825z" fill="url(#paint18_linear)"/><path d="M381.055 479.288c.059-.059.059-.177.118-.236 2.413-3.593 8.594-10.72 20.719-13.842l5.827-.177s2.59 4.772 2.648 13.666c-1.353.589-3.884 1.178-8.887 1.355-7.652.235-16.834-.472-20.425-.766z" fill="url(#paint19_linear)"/><path d="M408.837 455.668c-.059.471-.883 7.481-1.177 10.19a1.389 1.389 0 01-1.06 1.237c-1.001.118-2.59.236-4.002-.059-.766-.176-1.295-.942-1.295-1.826v-11.014l7.534 1.472z" fill="url(#paint20_linear)"/><path d="M413.486 327.674s-14.067 56.781-13.832 128.171c0 1.296.883 2.415 2.06 2.71 1.766.412 4.356.883 6.533.824 1.178-.059 2.119-.942 2.296-2.12 2.001-12.252 13.302-81.462 19.718-92.713 0 0 4.238 61.612 2.884 93.596-.059.766.53 1.473 1.236 1.591 1.118.117 2.943.235 5.239 0a1.998 1.998 0 001.706-1.709c1.413-10.366 9.477-72.273 9.124-116.803 0-2.533-6.239-13.43-6.239-13.43h-30.725v-.117z" fill="url(#paint21_linear)"/><path d="M391.946 251.218c2.472-6.656 7.357-10.956 11.536-16.198 15.657 3.004 40.613 5.36 51.326 6.833a13.36 13.36 0 018.593 4.889c8.711 10.72 27.899 40.112 5.356 69.74-2.884-1.708-7.004-4.418-9.77-7.598 2.472-7.481 2.707-17.023-2.531-28.745-.177.943-.412 1.826-.648 2.769-7.181 24.267-7.593 44.412-7.593 49.065 0 .648-.353 1.178-.883 1.414-9.476 4.064-27.722 1.649-33.903.648-1.118-.177-1.883-1.296-1.707-2.474 3.002-23.149-12.419-61.2-16.539-70.742-.589-1.413-1.648-2.533-2.943-3.122-.647-.294-1.295-.647-1.942-.942.412-1.944 1-3.77 1.648-5.537z" fill="#0C58AE"/><path d="M438.385 219.529l1.118 20.675c.059.589-.353 1.178-.883 1.295-2.472.648-9.3 2.003-15.244-1.59-.766-.471-1.119-1.472-.883-2.356l5.003-18.613 10.889.589z" fill="url(#paint22_linear)"/><path d="M426.199 196.911c-.235.235-10.654 21.97-10.654 21.97l11.831 6.067 12.773-19.025c-.059 0-9.712-13.253-13.95-9.012z" fill="url(#paint23_linear)"/><path d="M434.852 206.453a2.059 2.059 0 01-.118 1.767l-5.885 10.426c-.118.176-.177.294-.295.412-.706.707-3.119 2.709-4.944-.059-1.589-2.356-3.061-4.477-4.65-5.36-.942-.53-2.06-.118-2.531.883-.942 2.062-2.825 6.185-4.061 10.132-.294 1.001.176 2.061 1.118 2.415 2.413 1.001 7.122 2.886 11.301 3.475.707.118 1.354-.236 1.766-.825 1.825-2.65 6.887-9.954 8.652-11.78 1.59-1.708 4.591-1.061 5.945-.648.53.176 1.06.059 1.53-.236 1.354-.883 3.709-3.063 1.59-6.715-.53-.883-.236-2.12.588-2.709 1.531-1.06 3.179-3.063 1.59-6.303-1.59-3.239-4.415-3.534-6.357-3.298-.883.118-1.707-.354-2.06-1.237-.118-.354-.412-.707-1.001-.825-1.001-.235-1.707-1.178-1.471-2.297.353-1.826.058-4.241-2.708-5.89-5.121-3.004-9.535 1.885-10.712 5.949-1.119 4.064 4.591 7.009 8.122 7.48 2.59.589 4.003 3.652 4.591 5.243z" fill="url(#paint24_linear)"/><path d="M432.909 221.885s2.295-7.068 5.179-6.774c2.884.236 5.18 3.299 1.59 6.774-4.474 4.3-6.769 0-6.769 0z" fill="url(#paint25_linear)"/><path d="M356.807 241.441c14.892 5.772 46.617-6.48 46.617-6.48l2.178 27.508c-25.428 8.54-41.967 6.067-52.68-1.061-.647-8.128 1.649-15.196 3.885-19.967z" fill="#0C58AE"/><path d="M333.086 213.05l6.239-1.296s1.707 21.028 15.598 28.803c.588.353 1.236.648 1.883.883-2.236 4.771-4.532 11.84-3.885 19.968-21.836-14.49-19.835-48.358-19.835-48.358z" fill="url(#paint26_linear)"/><path d="M339.031 213.58l.294-1.826s1.295-4.477-2.119-8.895c-5.003-6.361-8.593-4.005-8.593-4.005s.235 1.355.235 2.592c0 1.001-1.118 1.472-1.766.824l-8.122-7.892s-2.237 12.546 15.127 21.204l4.944-2.002z" fill="url(#paint27_linear)"/><path d="M458.927 308.825c2.885 3.298 6.887 5.654 9.889 7.422-4.532 5.89-15.539 14.902-15.539 14.902l-5.003-2.18c0-.058 5.768-5.536 10.653-20.144z" fill="url(#paint28_linear)"/><path d="M451.745 324.434l-3.473 4.477s-7.651 3.593-7.887 6.066c-.235 2.474-1.177 4.183-.824 4.713.412.589 6.063 2.061 6.239.235.177-1.826 1.001-4.83 3.414-4.948 2.355-.117 4.297-2.415 4.827-4.123l3.472-5.949-5.768-.471z" fill="url(#paint29_linear)"/></g><defs><linearGradient id="paint0_linear" x1="196.534" y1="127.436" x2="105.16" y2="171.668" gradientUnits="userSpaceOnUse"><stop stop-color="#FEBBBA"/><stop offset="1" stop-color="#FF928E"/></linearGradient><linearGradient id="paint1_linear" x1="196.971" y1="128.336" x2="105.598" y2="172.568" gradientUnits="userSpaceOnUse"><stop stop-color="#FEBBBA"/><stop offset="1" stop-color="#FF928E"/></linearGradient><linearGradient id="paint2_linear" x1="9.811" y1="272.191" x2="24.112" y2="272.191" gradientUnits="userSpaceOnUse"><stop stop-color="#090056"/><stop offset="1" stop-color="#020039"/></linearGradient><linearGradient id="paint3_linear" x1="11.24" y1="271.291" x2="26.458" y2="271.291" gradientUnits="userSpaceOnUse"><stop stop-color="#090056"/><stop offset="1" stop-color="#020039"/></linearGradient><linearGradient id="paint4_linear" x1="18.837" y1="255.892" x2="30.028" y2="255.892" gradientUnits="userSpaceOnUse"><stop stop-color="#FEBBBA"/><stop offset="1" stop-color="#FF928E"/></linearGradient><linearGradient id="paint5_linear" x1="182.291" y1="220.807" x2="203.729" y2="220.807" gradientUnits="userSpaceOnUse"><stop stop-color="#090056"/><stop offset="1" stop-color="#020039"/></linearGradient><linearGradient id="paint6_linear" x1="176.949" y1="220.606" x2="202.8" y2="220.606" gradientUnits="userSpaceOnUse"><stop stop-color="#090056"/><stop offset="1" stop-color="#020039"/></linearGradient><linearGradient id="paint7_linear" x1="170.094" y1="219.857" x2="182.389" y2="219.857" gradientUnits="userSpaceOnUse"><stop stop-color="#FEBBBA"/><stop offset="1" stop-color="#FF928E"/></linearGradient><linearGradient id="paint8_linear" x1="22.461" y1="214.925" x2="105.296" y2="214.925" gradientUnits="userSpaceOnUse"><stop stop-color="#090056"/><stop offset="1" stop-color="#020039"/></linearGradient><linearGradient id="paint9_linear" x1="75.09" y1="195.188" x2="176.949" y2="195.188" gradientUnits="userSpaceOnUse"><stop stop-color="#090056"/><stop offset="1" stop-color="#020039"/></linearGradient><linearGradient id="paint10_linear" x1="83.171" y1="157.329" x2="28.744" y2="61.203" gradientUnits="userSpaceOnUse"><stop stop-color="#FEBBBA"/><stop offset="1" stop-color="#FF928E"/></linearGradient><linearGradient id="paint11_linear" x1="117.536" y1="116.177" x2="123.233" y2="99.942" gradientUnits="userSpaceOnUse"><stop stop-color="#FEBBBA"/><stop offset="1" stop-color="#FF928E"/></linearGradient><linearGradient id="paint12_linear" x1="133.743" y1="82.701" x2="108.764" y2="101.8" gradientUnits="userSpaceOnUse"><stop stop-color="#FEBBBA"/><stop offset="1" stop-color="#FF928E"/></linearGradient><linearGradient id="paint13_linear" x1="116.167" y1="67.565" x2="139.44" y2="97.507" gradientUnits="userSpaceOnUse"><stop stop-color="#090056"/><stop offset="1" stop-color="#020039"/></linearGradient><linearGradient id="paint14_linear" x1="130.646" y1="78.651" x2="105.667" y2="97.75" gradientUnits="userSpaceOnUse"><stop stop-color="#FEBBBA"/><stop offset="1" stop-color="#FF928E"/></linearGradient><linearGradient id="paint15_linear" x1="441.408" y1="472.013" x2="421.043" y2="472.013" gradientUnits="userSpaceOnUse"><stop stop-color="#090056"/><stop offset="1" stop-color="#020039"/></linearGradient><linearGradient id="paint16_linear" x1="390.302" y1="448.37" x2="464.643" y2="506.701" gradientUnits="userSpaceOnUse"><stop stop-color="#090056"/><stop offset="1" stop-color="#020039"/></linearGradient><linearGradient id="paint17_linear" x1="435.657" y1="447.434" x2="439.782" y2="483.407" gradientUnits="userSpaceOnUse"><stop stop-color="#FEBBBA"/><stop offset="1" stop-color="#FF928E"/></linearGradient><linearGradient id="paint18_linear" x1="377.227" y1="465.164" x2="451.549" y2="523.478" gradientUnits="userSpaceOnUse"><stop stop-color="#090056"/><stop offset="1" stop-color="#020039"/></linearGradient><linearGradient id="paint19_linear" x1="410.399" y1="472.588" x2="381.084" y2="472.588" gradientUnits="userSpaceOnUse"><stop stop-color="#090056"/><stop offset="1" stop-color="#020039"/></linearGradient><linearGradient id="paint20_linear" x1="404.001" y1="451.287" x2="408.123" y2="487.233" gradientUnits="userSpaceOnUse"><stop stop-color="#FEBBBA"/><stop offset="1" stop-color="#FF928E"/></linearGradient><linearGradient id="paint21_linear" x1="354.328" y1="287.074" x2="485.523" y2="490.504" gradientUnits="userSpaceOnUse"><stop stop-color="#090056"/><stop offset="1" stop-color="#020039"/></linearGradient><linearGradient id="paint22_linear" x1="426.903" y1="213.936" x2="443.756" y2="286.712" gradientUnits="userSpaceOnUse"><stop stop-color="#FEBBBA"/><stop offset="1" stop-color="#FF928E"/></linearGradient><linearGradient id="paint23_linear" x1="429.721" y1="201.026" x2="421.948" y2="246.734" gradientUnits="userSpaceOnUse"><stop stop-color="#FEBBBA"/><stop offset="1" stop-color="#FF928E"/></linearGradient><linearGradient id="paint24_linear" x1="437.398" y1="222.221" x2="415.029" y2="198.476" gradientUnits="userSpaceOnUse"><stop stop-color="#090056"/><stop offset="1" stop-color="#020039"/></linearGradient><linearGradient id="paint25_linear" x1="435.888" y1="250.917" x2="437.27" y2="218.822" gradientUnits="userSpaceOnUse"><stop stop-color="#FEBBBA"/><stop offset="1" stop-color="#FF928E"/></linearGradient><linearGradient id="paint26_linear" x1="319.904" y1="197.584" x2="388.024" y2="306.68" gradientUnits="userSpaceOnUse"><stop stop-color="#FEBBBA"/><stop offset="1" stop-color="#FF928E"/></linearGradient><linearGradient id="paint27_linear" x1="323.931" y1="195.07" x2="392.052" y2="304.166" gradientUnits="userSpaceOnUse"><stop stop-color="#FEBBBA"/><stop offset="1" stop-color="#FF928E"/></linearGradient><linearGradient id="paint28_linear" x1="468.961" y1="306.322" x2="434.47" y2="348.524" gradientUnits="userSpaceOnUse"><stop stop-color="#FEBBBA"/><stop offset="1" stop-color="#FF928E"/></linearGradient><linearGradient id="paint29_linear" x1="468.603" y1="306.81" x2="434.958" y2="347.977" gradientUnits="userSpaceOnUse"><stop stop-color="#FEBBBA"/><stop offset="1" stop-color="#FF928E"/></linearGradient><clipPath id="clip0"><path fill="#fff" d="M0 0h482v484H0z"/></clipPath></defs></svg>