<svg width="313" height="140" viewBox="0 0 313 140" fill="none" xmlns="http://www.w3.org/2000/svg">
<path d="M12.1172 139.135C12.1172 139.135 -18.4491 72.8241 17.5125 42.2788C72.3203 -4.25972 125.568 65.5427 150.333 33.0544C191.306 -20.6907 325.334 -6.8968 284.329 59.9269C262.812 94.9883 334.8 89.7462 305.451 140L12.1172 139.135Z" fill="#EBF3FA"/>
<path d="M181.007 112.893H150.526C149.373 112.893 148.432 111.954 148.432 110.801V109.434H181.007V112.893Z" fill="#77A4E5"/>
<path d="M165.462 137.887H163.496L162.951 112.893H165.953L165.462 137.887Z" fill="#94B0ED"/>
<path d="M174.009 137.887H154.885V136.168L164.628 135.282L174.009 136.168V137.887Z" fill="#94B0ED"/>
<path d="M153.026 137.62C153.026 136.755 153.731 136.05 154.596 136.05C155.462 136.05 156.167 136.755 156.167 137.62C156.167 138.485 155.462 139.189 154.596 139.189C153.731 139.189 153.026 138.485 153.026 137.62Z" fill="#94B0ED"/>
<path d="M172.15 137.62C172.15 136.755 172.855 136.05 173.72 136.05C174.586 136.05 175.291 136.755 175.291 137.62C175.291 138.485 174.586 139.189 173.72 139.189C172.855 139.189 172.15 138.485 172.15 137.62Z" fill="#94B0ED"/>
<path d="M171.059 114.527H157.844C157.053 114.527 156.412 113.886 156.412 113.096V112.893H172.502V113.096C172.491 113.886 171.85 114.527 171.059 114.527Z" fill="#94B0ED"/>
<path d="M151.167 112.893C149.661 112.893 148.432 111.676 148.432 110.16V88.3696C148.432 84.0563 151.253 80.5544 154.736 80.5544H168.988C172.471 80.5544 175.291 84.0563 175.291 88.3696V112.893H151.167Z" fill="#F99746"/>
<path d="M151.445 112.893C150.622 112.893 149.949 112.221 149.949 111.399V88.3696C149.949 84.0563 152.77 80.5544 156.253 80.5544H170.505C173.988 80.5544 176.808 84.0563 176.808 88.3696V94.2843V112.883H151.445V112.893Z" fill="#CC6A27"/>
<path d="M184.479 112.893H149.607C148.657 112.893 147.877 112.125 147.877 111.164C147.877 110.213 148.646 109.434 149.607 109.434H184.479C185.43 109.434 186.21 110.203 186.21 111.164C186.21 112.114 185.441 112.893 184.479 112.893Z" fill="#F99746"/>
<path d="M185.536 39.8881H172.321C171.712 39.8881 171.22 39.3969 171.22 38.7884V26.0407C171.22 25.4322 171.712 24.941 172.321 24.941H185.536C186.145 24.941 186.637 25.4322 186.637 26.0407V38.7884C186.648 39.3863 186.145 39.8881 185.536 39.8881Z" fill="#C0D8FB"/>
<path d="M184.97 39.2368H172.898C172.342 39.2368 171.893 38.7883 171.893 38.2332V26.5959C171.893 26.0407 172.342 25.5923 172.898 25.5923H184.97C185.526 25.5923 185.974 26.0407 185.974 26.5959V38.2332C185.974 38.7777 185.526 39.2368 184.97 39.2368Z" fill="#DFEBFD"/>
<path d="M178.614 26.9482C178.614 26.7667 178.753 26.6279 178.935 26.6279C179.116 26.6279 179.255 26.7667 179.255 26.9482C179.255 27.1297 179.116 27.2685 178.935 27.2685C178.753 27.2685 178.614 27.119 178.614 26.9482Z" fill="#B7D3F3"/>
<path d="M181.188 27.3965C181.274 27.247 181.466 27.1829 181.626 27.2684C181.776 27.3538 181.84 27.5459 181.755 27.7061C181.669 27.8556 181.477 27.9196 181.317 27.8342C181.156 27.7488 181.103 27.5459 181.188 27.3965Z" fill="#B7D3F3"/>
<path d="M183.4 29.1475C183.55 29.0514 183.742 29.0941 183.838 29.2436C183.934 29.3931 183.892 29.5852 183.742 29.6813C183.592 29.7774 183.4 29.7347 183.304 29.5852C183.208 29.4464 183.251 29.2436 183.4 29.1475Z" fill="#B7D3F3"/>
<path d="M184.49 31.8593C184.671 31.8593 184.81 31.998 184.81 32.1795C184.81 32.361 184.671 32.4998 184.49 32.4998C184.308 32.4998 184.169 32.361 184.169 32.1795C184.169 32.0087 184.319 31.8593 184.49 31.8593Z" fill="#B7D3F3"/>
<path d="M183.934 35.0089C184.062 35.137 184.062 35.3398 183.934 35.4573C183.806 35.5854 183.603 35.5854 183.485 35.4573C183.357 35.3291 183.357 35.1263 183.485 35.0089C183.603 34.8914 183.806 34.8914 183.934 35.0089Z" fill="#B7D3F3"/>
<path d="M181.925 37.0268C182.053 37.1549 182.053 37.3577 181.925 37.4752C181.797 37.6033 181.594 37.6033 181.477 37.4752C181.348 37.3471 181.348 37.1442 181.477 37.0268C181.605 36.8986 181.808 36.8986 181.925 37.0268Z" fill="#B7D3F3"/>
<path d="M178.614 38.0622C178.614 37.8807 178.753 37.7419 178.934 37.7419C179.116 37.7419 179.255 37.8807 179.255 38.0622C179.255 38.2437 179.116 38.3825 178.934 38.3825C178.753 38.3719 178.614 38.2331 178.614 38.0622Z" fill="#B7D3F3"/>
<path d="M176.669 27.3965C176.584 27.247 176.391 27.1829 176.231 27.2684C176.081 27.3538 176.017 27.5459 176.103 27.7061C176.188 27.8556 176.381 27.9196 176.541 27.8342C176.69 27.7488 176.754 27.5459 176.669 27.3965Z" fill="#B7D3F3"/>
<path d="M174.457 29.1475C174.308 29.0514 174.116 29.0941 174.019 29.2436C173.923 29.3931 173.966 29.5852 174.115 29.6813C174.265 29.7774 174.457 29.7347 174.554 29.5852C174.65 29.4464 174.607 29.2436 174.457 29.1475Z" fill="#B7D3F3"/>
<path d="M173.368 31.8593C173.186 31.8593 173.047 31.998 173.047 32.1795C173.047 32.361 173.186 32.4998 173.368 32.4998C173.549 32.4998 173.688 32.361 173.688 32.1795C173.677 32.0087 173.539 31.8593 173.368 31.8593Z" fill="#B7D3F3"/>
<path d="M173.924 35.0089C173.795 35.137 173.795 35.3398 173.924 35.4573C174.052 35.5854 174.255 35.5854 174.372 35.4573C174.5 35.3291 174.5 35.1263 174.372 35.0089C174.244 34.8914 174.041 34.8914 173.924 35.0089Z" fill="#B7D3F3"/>
<path d="M175.932 37.0268C175.803 37.1549 175.803 37.3577 175.932 37.4752C176.06 37.6033 176.263 37.6033 176.38 37.4752C176.509 37.3471 176.509 37.1442 176.38 37.0268C176.252 36.8986 176.049 36.8986 175.932 37.0268Z" fill="#B7D3F3"/>
<path d="M178.848 32.1795C178.848 31.998 178.987 31.8593 179.169 31.8593C179.35 31.8593 179.489 31.998 179.489 32.1795C179.489 32.361 179.35 32.4998 179.169 32.4998C178.987 32.4998 178.848 32.361 178.848 32.1795Z" fill="#B7D3F3"/>
<path d="M179.212 28.1974H179.126V32.1904H179.212V28.1974Z" fill="#B7D3F3"/>
<path d="M181.171 30.4141L179.053 32.0752L179.212 32.2768L181.33 30.6157L181.171 30.4141Z" fill="#B7D3F3"/>
<path d="M204.564 139.809H191.583C190.964 139.051 190.611 135.463 190.707 134.545C190.729 134.364 190.964 133.499 190.964 133.499C190.964 133.499 195.761 131.481 196.37 134.193C196.391 134.278 196.412 134.364 196.434 134.438C197.203 136.979 200.643 138.132 202.63 138.453C203.902 138.666 204.383 139.339 204.564 139.809Z" fill="#1B3051"/>
<path d="M169.158 99.3129C169.628 99.3129 186.936 101.726 190.536 105.772C192.331 107.79 197.043 134.268 197.043 134.268C197.043 134.268 194.852 135.816 190.045 134.364C190.045 134.364 183.699 117.228 183.955 112.392C184.03 111.057 168.57 110.491 165.835 109.851C163.1 109.21 159.703 107.63 161.177 105.003C162.651 102.366 169.158 99.3129 169.158 99.3129Z" fill="#233862"/>
<path d="M195.91 139.809H182.929C182.31 139.051 182.534 136.232 182.63 135.325C182.652 135.143 182.662 135.036 182.662 135.036C182.662 135.036 187.096 131.492 187.705 134.204C187.727 134.289 187.748 134.374 187.769 134.449C188.538 136.99 191.979 138.143 193.966 138.463C195.259 138.666 195.739 139.339 195.91 139.809Z" fill="#1E3C68"/>
<path d="M162.266 100.712C162.736 100.712 183.41 101.737 187.01 106.189C188.805 108.409 189.072 134.118 189.072 134.118C189.072 134.118 186.85 136.873 182.042 135.271C182.042 135.271 177.63 121.637 177.95 112.349C178.004 110.876 165.087 110.705 161.54 110.427C157.042 110.075 155.899 102.527 157.373 99.6226C158.837 96.7293 162.266 100.712 162.266 100.712Z" fill="#23417C"/>
<path d="M166.646 71.6396L166.39 71.693C165.236 71.9279 164.104 71.1699 163.869 70.0168L163.591 68.6609C163.356 67.5078 164.114 66.3761 165.268 66.1413L165.525 66.0879C166.678 65.853 167.811 66.611 168.046 67.7641L168.324 69.12C168.559 70.273 167.811 71.4047 166.646 71.6396Z" fill="#122544"/>
<path d="M175.943 100.434C173.347 104.566 157.172 105.815 157.172 105.815C156.894 105.153 155.665 94.4871 155.462 93.7611C154.939 91.9248 154.597 89.8963 154.372 87.9104C154.372 87.8891 154.362 87.8571 154.362 87.8357C153.988 84.3872 153.988 81.0775 154.041 79.0917C154.073 77.9387 154.116 77.234 154.116 77.1913C154.159 77.17 154.191 77.1593 154.233 77.1379C155.216 76.7322 156.157 76.3692 157.054 76.0703H157.065C157.823 75.814 158.55 75.5898 159.255 75.3977C160.483 75.056 161.637 74.8211 162.695 74.6503C163.945 74.4581 165.078 74.3621 166.092 74.3407C166.135 74.3407 166.178 74.3407 166.231 74.3407C166.498 74.3407 166.755 74.3407 167.011 74.3407C169.543 74.3941 171.221 74.8959 172.075 75.2375C172.193 75.2802 172.3 75.3229 172.385 75.3656C172.396 75.3656 172.407 75.3763 172.417 75.3763C172.513 75.419 172.588 75.451 172.642 75.4831C172.652 75.4831 172.652 75.4938 172.663 75.4938C172.684 75.5044 172.716 75.5258 172.738 75.5365L174.073 89.5226L175.943 100.434Z" fill="#D2E3FC"/>
<path d="M193.046 92.843C191.198 93.6971 180.194 94.4231 179.136 94.1135C178.591 93.9533 176.326 91.9569 174.04 89.5013C171.882 87.1738 169.702 84.4406 168.965 82.4762C167.459 78.4298 168.751 74.8425 168.751 74.8425C168.751 74.8425 171.561 74.8319 172.704 75.5258C173.848 76.2198 180.397 88.2628 181.273 88.5831C182.149 88.9034 192.512 89.4906 193.698 90.0565C193.698 90.0458 194.895 91.9889 193.046 92.843Z" fill="#D2E3FC"/>
<path d="M166.209 74.8212V75.5045C166.209 75.5045 166.401 77.6291 163.773 77.9494C161.145 78.2697 159.157 77.1273 159.232 75.4831C159.467 74.2126 159.724 73.3372 159.745 72.2802C159.756 71.8852 159.724 71.4688 159.649 71.0097L164.734 70.903L166.23 71.1485L166.209 74.8212Z" fill="#EA9E6A"/>
<path d="M166.219 71.1378L166.209 74.8212C165.664 75.0774 165.055 75.2269 164.382 75.2269C162.042 75.2269 159.723 71.4688 159.649 70.999L166.219 71.1378Z" fill="#D88D59"/>
<path d="M166.53 72.9208C166.53 72.9208 160.023 74.2446 159.254 70.1769C158.495 66.1092 157.139 63.5469 161.263 62.5326C165.386 61.5183 166.487 62.917 167.074 64.2088C167.651 65.5006 168.196 72.4724 166.53 72.9208Z" fill="#EA9E6A"/>
<path d="M168.335 61.1874C168.335 61.1874 166.519 61.0486 164.372 60.1198C162.63 59.3724 160.44 60.2052 159.724 60.5788C159.746 60.4614 159.788 60.3119 159.895 60.1518C159.895 60.1518 159.575 60.376 159.532 60.6963C159.5 60.7176 159.489 60.739 159.489 60.739C159.489 60.739 159.126 60.6749 158.891 60.7817C158.891 60.7817 159.051 60.7603 159.115 60.8671C159.126 60.8778 159.126 60.8885 159.137 60.8991C156.423 62.2123 156.188 66.4936 157.053 67.4865C158.1 68.6823 159.372 71.362 159.372 71.362C159.372 71.362 159.831 70.7321 159.639 69.6752C159.446 68.6289 160.354 68.6289 161.498 68.1484C162.641 67.668 161.69 66.3334 162.684 65.522C163.688 64.7106 167.363 65.1804 167.31 64.5611C168.688 64.0594 168.335 61.3262 168.335 61.1874Z" fill="#8E342E"/>
<path d="M156.562 101.886C156.252 99.7826 155.504 97.1029 155.162 94.8288C154.874 92.9391 154.596 89.8963 154.382 87.9105C154.382 87.8891 154.372 87.8571 154.372 87.8357C154.382 87.8464 154.404 87.8785 154.425 87.8571C155.141 86.9816 157.107 86.0314 159.478 89.5013C159.949 90.1952 161.893 94.4551 161.829 95.3199C161.498 99.3129 156.562 101.886 156.562 101.886Z" fill="#B7D3F3"/>
<path d="M158.111 95.8645C158.058 95.5548 158.122 95.1598 158.357 94.6687C158.357 94.6687 158.667 94.4765 159.062 94.2417C159.661 93.9 160.494 93.4943 160.868 93.5584C160.932 93.569 161.028 93.5904 161.135 93.6117C162.022 93.8253 164.084 94.4552 164.393 94.8289C164.65 95.1385 165.002 95.5228 165.237 95.8645H158.111Z" fill="#EA9E6A"/>
<path d="M159.468 95.8645H142.075C142.032 95.6403 142.021 95.4374 142.085 95.2773C142.609 93.9641 143.613 91.8074 144.788 89.5013C145.643 87.8038 146.583 86.0101 147.47 84.4086C148.698 82.1879 149.831 80.3302 150.493 79.5722C151.017 78.9743 151.679 78.4725 152.363 78.0562C152.951 77.7038 153.549 77.4156 154.104 77.1807C154.147 77.1593 154.179 77.1487 154.222 77.1273C155.429 76.6362 156.391 76.4227 156.391 76.4227C156.391 76.4227 156.401 76.9672 156.401 77.8213C156.401 80.2769 156.316 85.2094 155.525 86.4158C155.312 86.7468 154.906 87.2593 154.393 87.8571C154.382 87.8785 154.361 87.8892 154.35 87.9105C154.072 88.2308 153.773 88.5831 153.453 88.9355C151.636 90.964 149.339 93.3555 149.062 93.6438C149.04 93.6651 149.03 93.6758 149.03 93.6758H149.062L153.944 93.7399L155.44 93.7612L158.538 93.8039C158.752 93.9 158.923 94.0495 159.051 94.231C159.361 94.6794 159.457 95.3093 159.468 95.8645Z" fill="#D2E3FC"/>
<path d="M193.047 92.8429C191.198 93.6971 180.194 94.4231 179.136 94.1134C178.592 93.9533 176.327 91.9568 174.04 89.5012C174.158 89.5119 175.194 87.7823 179.959 91.9354C179.959 91.9354 181.209 92.4906 184.596 92.181C187.983 91.8821 192.342 91.7646 193.047 92.8429Z" fill="#B7D3F3"/>
<path d="M161.145 71.6396L160.889 71.693C159.735 71.9279 158.603 71.1699 158.368 70.0168L158.09 68.6609C157.855 67.5078 158.613 66.3761 159.767 66.1413L160.024 66.0879C161.177 65.853 162.31 66.611 162.545 67.7641L162.823 69.12C163.047 70.273 162.299 71.4047 161.145 71.6396Z" fill="#122544"/>
<path d="M159.126 66.7605C158.955 66.4508 158.699 63.9312 159.393 61.9241C159.724 60.9525 160.269 60.3973 160.953 60.0236C161.199 59.8849 161.476 59.8208 161.754 59.8208L162.438 59.8315C160.184 60.7817 159.671 65.8743 159.842 66.4188C159.831 66.3975 159.831 66.3868 159.82 66.3761L159.126 66.7605Z" fill="#122544"/>
<path d="M165.696 72.0666C161.914 72.0666 160.045 69.0772 160.023 69.0452L160.365 68.8423L160.194 68.9491L160.365 68.8423C160.386 68.8744 162.149 71.6716 165.696 71.6716C165.718 71.6716 165.739 71.6716 165.771 71.6716V72.0666C165.739 72.0666 165.718 72.0666 165.696 72.0666Z" fill="#122544"/>
<path d="M160.536 70.3157L160.408 70.3371C159.831 70.4545 159.265 70.0808 159.147 69.5043L159.008 68.8317C158.891 68.2552 159.265 67.6893 159.842 67.5719L159.97 67.5505C160.547 67.4331 161.113 67.8068 161.231 68.3833L161.37 69.0559C161.487 69.6324 161.113 70.1983 160.536 70.3157Z" fill="#2B478B"/>
<path d="M166.167 72.1948H165.814C165.633 72.1948 165.483 72.0453 165.483 71.8638C165.483 71.6823 165.633 71.5328 165.814 71.5328H166.167C166.348 71.5328 166.498 71.6823 166.498 71.8638C166.487 72.0453 166.348 72.1948 166.167 72.1948Z" fill="#122544"/>
<path d="M288.315 124.477C288.315 124.477 285.964 121.733 288.165 119.993C288.165 119.993 289.778 119.022 291.092 119.096C291.092 119.096 289.233 122.224 289.832 122.534C290.43 122.844 291.659 118.904 291.659 118.904C291.659 118.904 295.334 118.552 296.509 119.118C296.509 119.118 293.368 121.68 294.03 121.84C294.693 121.99 298.079 119.47 298.079 119.47C298.079 119.47 301.498 120.046 301.317 122.139C301.135 124.221 299.96 124.862 299.436 124.808C298.923 124.755 295.889 123.602 295.825 124.018C295.761 124.434 297.577 125.822 298.859 125.886C298.859 125.886 296.456 128.545 294.853 127.776C293.25 127.007 293.112 125.79 292.118 125.342C291.124 124.883 290.27 124.883 290.676 125.353C291.092 125.822 292.898 126.271 293.464 127.274C294.03 128.289 294.543 128.961 292.887 128.716C291.231 128.47 288.539 127.253 288.421 125.865C288.304 124.477 288.315 124.477 288.315 124.477Z" fill="#C8DBF4"/>
<path d="M299.639 122.182C299.639 122.182 290.355 121.83 288.304 124.477C288.304 124.477 287.855 125.833 286.455 127.072L286.242 127.659C286.242 127.659 287.855 125.961 288.421 125.865C288.432 125.865 287.524 122.577 299.639 122.182Z" fill="#C8DBF4"/>
<path d="M286.466 127.072C286.466 127.072 284.479 128.545 284.34 131.171L284.703 131.203C284.703 131.203 285.344 128.481 286.487 127.424C287.63 126.356 286.466 127.072 286.466 127.072Z" fill="#C8DBF4"/>
<path d="M280.077 121.029C280.077 121.029 283.817 118.936 282.075 116.086C282.075 116.086 280.676 114.335 279.18 113.886C279.18 113.886 279.981 118.125 279.18 118.232C278.379 118.328 278.635 113.438 278.635 113.438C278.635 113.438 274.693 111.537 273.143 111.687C273.143 111.687 275.59 115.829 274.789 115.733C273.987 115.637 271.242 111.441 271.242 111.441C271.242 111.441 267.193 110.694 266.552 113.085C265.9 115.477 266.947 116.673 267.545 116.822C268.143 116.972 271.99 116.918 271.893 117.42C271.797 117.922 269.201 118.723 267.748 118.264C267.748 118.264 269.351 122.203 271.445 122C273.539 121.797 274.19 120.506 275.494 120.399C276.797 120.303 277.737 120.644 277.096 120.997C276.445 121.349 274.255 121.114 273.197 122C272.15 122.886 271.295 123.442 273.25 123.837C275.195 124.232 278.688 123.986 279.393 122.491C280.077 121.029 280.077 121.029 280.077 121.029Z" fill="#C8DBF4"/>
<path d="M268.4 113.844C268.4 113.844 278.881 117.239 280.088 121.029C280.088 121.029 280.035 122.726 281.082 124.669V125.417C281.082 125.417 279.981 122.876 279.383 122.523C279.383 122.523 281.723 119.235 268.4 113.844Z" fill="#C8DBF4"/>
<path d="M281.081 124.669C281.081 124.669 282.695 127.125 281.776 130.114L281.359 130.008C281.359 130.008 281.765 126.719 280.921 125.064C280.067 123.399 281.081 124.669 281.081 124.669Z" fill="#C8DBF4"/>
<path d="M286.039 118.135C286.039 118.135 281.103 115.37 283.411 111.623C283.411 111.623 285.248 109.317 287.225 108.729C287.225 108.729 286.167 114.324 287.225 114.452C288.282 114.58 287.951 108.142 287.951 108.142C287.951 108.142 293.154 105.644 295.195 105.836C295.195 105.836 291.968 111.292 293.026 111.164C294.084 111.036 297.695 105.505 297.695 105.505C297.695 105.505 303.026 104.523 303.881 107.672C304.735 110.833 303.357 112.413 302.567 112.605C301.776 112.797 296.712 112.733 296.84 113.395C296.968 114.057 300.398 115.103 302.299 114.516C302.299 114.516 300.195 119.716 297.428 119.449C294.661 119.182 293.806 117.473 292.096 117.345C290.387 117.217 289.137 117.676 289.992 118.135C290.846 118.594 293.742 118.285 295.12 119.459C296.498 120.634 297.62 121.36 295.056 121.883C292.492 122.406 287.887 122.075 286.958 120.111C286.039 118.135 286.039 118.135 286.039 118.135Z" fill="#D4E4F8"/>
<path d="M301.434 108.665C301.434 108.665 287.609 113.139 286.038 118.135C286.038 118.135 286.103 120.367 284.724 122.94V123.922C284.724 123.922 286.177 120.57 286.957 120.111C286.957 120.111 283.87 115.776 301.434 108.665Z" fill="#D4E4F8"/>
<path d="M284.724 122.94C284.724 122.94 282.588 126.175 283.806 130.114L284.35 129.965C284.35 129.965 283.816 125.63 284.938 123.452C286.06 121.274 284.724 122.94 284.724 122.94Z" fill="#D4E4F8"/>
<path d="M285.868 138.645C291.21 138.645 295.537 134.321 295.537 128.983H276.199C276.199 134.321 280.526 138.645 285.868 138.645Z" fill="#D4E4F8"/>
<path d="M295.676 139.136H276.071C276.071 138.474 276.605 137.94 277.267 137.94H294.49C295.141 137.951 295.676 138.485 295.676 139.136Z" fill="#D4E4F8"/>
<path d="M295.751 128.983H275.879V129.282H295.751V128.983Z" fill="#9FC1F4"/>
<path d="M54.125 138.186C54.1998 139.232 55.6742 139.243 57.3515 139.051C59.0289 138.858 58.5802 139.275 60.9199 139.318C63.2597 139.35 64.0716 138.581 64.1891 138.239C64.2853 137.94 63.1635 137.695 61.9562 137.396C61.8067 137.364 61.6571 137.321 61.4968 137.278C60.14 136.937 59.2319 135.912 58.0673 135.026C56.9669 134.182 55.546 131.139 55.546 131.139L52.3408 130.99C52.3408 130.99 53.687 133.723 54.1998 134.897C54.4989 135.591 54.3707 136.446 54.2425 137.097C54.1677 137.449 54.1036 137.812 54.125 138.186Z" fill="#FFB27D"/>
<path d="M57.3514 139.04C59.0288 138.848 58.58 139.264 60.9198 139.307C63.2595 139.339 64.0715 138.57 64.189 138.228C64.2852 137.93 63.1634 137.684 61.9561 137.385L61.9454 137.406C61.9454 137.406 60.439 138.218 58.5053 138.026C56.9347 137.865 55.3322 137.214 54.2424 137.097C54.1783 137.449 54.1035 137.812 54.1356 138.186C54.1997 139.232 55.6741 139.243 57.3514 139.04Z" fill="#233862"/>
<path d="M32.0103 138.399C32.0851 139.446 33.5594 139.456 35.2368 139.264C36.9142 139.072 36.4654 139.499 38.8052 139.531C41.1449 139.563 41.9569 138.794 42.0744 138.463C42.1813 138.164 41.0488 137.919 39.8415 137.62C39.6919 137.588 39.5424 137.545 39.3821 137.502C38.0253 137.15 37.1172 136.136 35.9526 135.25C34.8522 134.406 35.9526 129.41 35.9526 129.41L32.427 129.068C32.427 129.068 32.5979 133.275 32.5979 135.186C32.5979 135.944 32.2453 136.67 32.1171 137.321C32.053 137.673 31.9889 138.036 32.0103 138.399Z" fill="#FFB27D"/>
<path d="M35.2362 139.264C36.9136 139.072 36.4649 139.499 38.8046 139.531C41.1444 139.563 41.9563 138.794 42.0739 138.463C42.1807 138.164 41.0482 137.919 39.841 137.62L39.8303 137.641C39.8303 137.641 38.3239 138.453 36.3901 138.25C34.8196 138.09 33.217 137.428 32.1273 137.31C32.0525 137.663 31.9884 138.026 32.0204 138.399C32.0952 139.446 33.5696 139.456 35.2362 139.264Z" fill="#233862"/>
<path d="M42.2875 52.1018C42.8965 49.6142 42.0097 48.4504 41.2191 47.8312C40.8452 46.913 40.4178 46.2511 39.9798 46.0055C39.1785 45.5465 38.217 45.5037 37.5546 45.5358C37.7255 45.3543 38.0674 45.2902 38.0674 45.2902C37.6507 45.2262 36.7213 45.6425 36.7213 45.6425C30.9306 43.4112 30.0225 51.9309 30.1507 53.9061C30.2682 55.8812 30.2576 58.2087 27.2447 59.7674C21.4969 62.7462 29.1571 73.9457 29.1571 73.9457C29.0076 72.3443 36.3901 63.9099 40.2362 61.3903C41.1764 60.013 41.5076 57.5788 41.529 57.3866C41.3687 59.319 41.0375 60.3973 40.7384 61.0166C42.5012 59.3938 42.7576 55.5182 42.2875 52.1018Z" fill="#A9453D"/>
<path d="M40.0009 61.5183C40.0222 61.529 38.1419 62.5006 36.7316 62.1162C35.4068 61.7532 34.5308 60.0343 34.5521 60.0236C35.1184 59.9169 35.2786 59.1375 35.268 55.8171L35.5244 55.8705L39.7979 56.714C39.7979 56.714 39.7017 58.0592 39.7017 59.3297C39.7017 60.3973 39.7658 61.4116 40.0009 61.5183Z" fill="#FFB27D"/>
<path d="M39.7989 56.7247C39.7989 56.7247 39.7027 58.07 39.7027 59.3404C37.3096 59.2764 36.0382 57.0877 35.5254 55.8813L39.7989 56.7247Z" fill="#ED975D"/>
<path d="M57.2018 132.826C57.4154 133.488 56.9347 134.161 56.2509 134.193L54.5842 134.268L52.8107 134.321C52.3727 134.332 51.9453 134.139 51.6676 133.798C50.2573 132.068 45.909 126.303 43.2808 117.922C43.206 117.687 43.1312 117.452 43.0457 117.207C41.3043 112.135 37.6932 105.772 35.7914 100.007C35.4923 99.0887 35.2145 98.224 34.9688 97.4125C34.894 97.1456 34.8192 96.8894 34.7444 96.6438C33.3449 91.7754 32.9389 88.5831 32.5649 85.1667L46.2936 85.2735C46.2936 85.2735 49.1889 107.726 57.2018 132.826Z" fill="#2A4E96"/>
<path d="M44.3817 77.3942C44.3496 83.9282 45.3432 86.7254 45.3432 86.7254C45.3432 86.7254 39.4671 89.7148 32.4799 87.5155C32.3945 87.4941 30.5569 76.7323 30.7385 75.7501C31.059 73.9351 31.0697 72.056 30.9094 70.2837C30.4821 65.5861 29.2107 61.6892 29.2107 61.6892C31.1124 61.2515 32.8966 60.4934 34.8838 59.7568C35.3432 60.3226 36.7321 60.9205 37.9394 60.8885C39.3282 60.8564 39.7876 60.2586 39.7129 59.6073C41.1979 60.4294 42.3838 61.2088 42.3838 61.2088C43.6445 63.3974 46.1979 65.522 46.3902 68.8744C46.4116 69.7072 44.3817 77.2127 44.3817 77.3942Z" fill="#D2E3FC"/>
<path d="M32.5656 78.1202C31.9673 78.9743 30.8134 84.131 27.9502 84.7823C29.4246 81.1096 30.5464 79.4975 30.7173 78.3658C31.0378 76.2518 31.0485 74.0739 30.8882 72.0133C31.8498 70.3371 32.5656 69.1841 32.5656 69.1841C32.6404 68.9171 34.0934 64.4437 34.5528 68.4367C35.0229 72.4297 33.2387 77.17 32.5656 78.1202Z" fill="#5F9AA8"/>
<path d="M42.2986 60.739C42.2986 60.739 44.3392 61.8387 45.1939 62.9384C46.0486 64.0274 51.0807 73.0596 51.0807 73.9671C51.0807 74.8746 45.9738 74.2767 45.9738 74.2767L42.2986 60.739Z" fill="#01BA57"/>
<path d="M40.5996 57.9204C40.5996 57.9204 34.9371 58.0165 34.9265 54.4933C34.9265 50.9701 34.1893 48.5999 37.8004 48.397C41.4115 48.1835 42.1167 49.5287 42.4051 50.7138C42.7043 51.8775 42.0739 57.803 40.5996 57.9204Z" fill="#FFB27D"/>
<path d="M40.3859 48.3009C40.3859 48.3009 38.8368 52.4326 36.4543 53.0519C34.0718 53.6604 33.0461 53.0305 33.0461 53.0305C33.0461 53.0305 34.8731 51.5785 35.247 49.0482C35.247 49.0482 39.2214 46.3364 40.3859 48.3009Z" fill="#A9453D"/>
<path d="M40.0015 48.6426C40.0015 48.6426 41.1553 49.5608 41.4438 50.4683C41.7216 51.3651 41.8498 53.2121 42.3946 53.148C42.3946 53.148 43.5592 50.3401 42.2451 48.7494C40.8562 47.0518 40.0015 48.6426 40.0015 48.6426Z" fill="#A9453D"/>
<path d="M39.7024 59.6073C39.7024 59.6073 42.9823 67.7 43.0785 69.3335C43.1746 70.967 43.4631 96.11 43.4631 96.11C43.4631 96.11 43.2708 97.2631 45.4823 96.7826C47.6939 96.3022 48.2815 95.8218 48.2815 95.8218C48.2815 95.8218 46.1554 80.3196 46.7323 74.928C47.3092 69.5364 42.2986 60.739 42.2986 60.739L39.7024 59.6073Z" fill="#01BA57"/>
<path d="M54.5849 134.268L52.6618 134.321C52.32 134.332 51.9888 134.182 51.7751 133.915C50.4823 132.356 45.9845 126.506 43.2815 117.911C43.2067 117.676 43.1319 117.441 43.0464 117.196C41.305 112.125 37.6938 105.761 35.7921 99.9962C35.493 99.078 35.2152 98.2132 34.9695 97.4018C34.8947 97.1349 34.8199 96.8787 34.7451 96.6331L36.7644 95.0957C36.7644 95.0957 42.8327 104.918 44.7131 114.164C46.3584 122.203 52.8969 131.865 54.5849 134.268Z" fill="#1E3D70"/>
<path d="M36.9774 115.039C37.0095 119.289 36.8065 128.769 36.2937 133.403C36.2509 133.83 35.8877 134.15 35.4603 134.15H34.0287C33.4197 134.15 32.971 134.15 32.6719 134.139C32.4155 134.139 32.1911 133.947 32.1377 133.691C30.7167 126.442 29.6911 120.431 28.9432 115.231C28.3236 110.875 27.768 107.149 27.3407 103.936C26.9133 100.701 26.6142 97.9997 26.5073 95.7043C26.486 95.3413 26.4753 94.989 26.4753 94.658C26.4646 94.3163 26.4646 93.9854 26.4646 93.6651L38.3236 92.512C38.1847 100.381 36.9667 112.424 36.9774 115.039Z" fill="#2A4E96"/>
<path d="M34.0288 134.15C33.4839 134.15 33.0672 134.15 32.7681 134.139C32.4476 134.139 32.1805 133.905 32.1271 133.595C30.7168 126.388 29.7018 120.399 28.954 115.221C28.3343 110.865 27.7788 107.139 27.3514 103.925C26.9241 100.69 26.6249 97.9891 26.5181 95.6937L30.8664 98.256C30.8664 98.256 28.0886 99.2382 29.1463 106.648C30.204 114.068 32.5544 133.093 34.0288 134.15Z" fill="#1E3D70"/>
<path d="M34.5847 95.6295C34.5847 95.6295 33.7513 98.651 30.856 98.2666C27.9607 97.8822 23.8582 96.1527 23.8582 96.1527C23.8582 96.1527 25.0975 92.2558 26.6253 87.1204C28.4842 80.9174 30.7919 72.9208 31.871 67.8708C32.1808 66.4615 32.3838 65.2764 32.4586 64.433L34.8624 59.7781C34.8624 59.7781 38.4415 67.7961 38.6338 69.8246C38.8261 71.8424 34.5847 95.6295 34.5847 95.6295Z" fill="#01BA57"/>
<path d="M34.456 74.0525C34.3278 77.3302 33.5585 83.6826 26.6782 87.0884C26.6568 87.0991 26.6461 87.1098 26.6248 87.1098C28.4837 80.9068 30.7914 72.9101 31.8705 67.8602C33.1419 69.7499 34.5308 72.2589 34.456 74.0525Z" fill="#10974F"/>
<path d="M31.6997 69.515L34.8621 59.7674C34.8514 59.7674 30.8663 60.9525 28.8578 61.9667C28.8578 61.9667 27.6078 63.5789 26.8279 67.3156C26.8279 67.3156 26.0052 76.2625 27.8428 79.5401C27.8428 79.5401 33.6227 80.6932 42.8749 77.5223V75.4084C42.8749 75.4084 32.7574 75.9422 30.6847 76.1771L31.6997 69.515Z" fill="#FFB27D"/>
<path d="M34.8736 59.7781C34.8736 59.7781 29.0082 60.1945 27.5873 63.3333C26.177 66.4829 25.7283 76.9458 27.5232 80.0313C27.5232 80.0313 30.0018 80.7359 34.3822 79.9138C34.4356 79.9031 34.489 79.8925 34.5424 79.8818C34.5424 79.8818 35.942 76.4653 34.692 75.7927C34.692 75.7927 30.9954 75.9849 31.38 74.7678C31.7646 73.54 34.8736 59.7781 34.8736 59.7781Z" fill="#01BA57"/>
<path d="M49.5849 76.7109L49.414 77.2661L39.7879 74.2767C39.7879 74.2767 39.6597 74.1272 39.7238 73.935C39.7985 73.7215 39.9588 73.7215 39.9588 73.7215L49.5849 76.7109Z" fill="#A9453D"/>
<path d="M50.279 77.2341L49.5845 76.711L49.4136 77.2662L50.279 77.2341Z" fill="#A9453D"/>
<path d="M42.8758 75.4084C42.8758 75.4084 45.0553 74.0632 45.9741 74.266C46.8929 74.4689 49.222 76.1664 48.1002 76.5294C46.9784 76.8924 46.0703 76.5081 45.6323 76.775C45.2049 77.0419 44.8844 77.5223 42.8652 77.5223C40.8673 77.5223 42.8758 75.4084 42.8758 75.4084Z" fill="#FFB27D"/>
<path d="M42.0735 87.3019L52.0842 87.3126L55.9304 72.7713H45.9303L42.0735 87.3019Z" fill="#233862"/>
<path d="M46.3575 71.7677C46.3575 71.7677 45.5883 71.8958 45.9195 72.7713H49.3383L48.2485 71.7677H46.3575Z" fill="#9DB0F4"/>
<path d="M46.3584 71.7677C46.3584 71.7677 47.8648 71.7677 48.3883 72.9848C49.0293 74.4688 48.7516 78.6113 48.7516 78.6113H56.7751C56.7751 78.6113 58.0465 73.7322 55.3969 71.7677H46.3584Z" fill="white"/>
<path d="M53.9863 80.0099C53.9863 80.0099 52.7791 79.1024 52.4051 79.6256C52.0312 80.1487 52.6936 82.8071 53.4842 82.615C54.2641 82.4121 54.2748 80.5544 53.9863 80.0099Z" fill="#FFB27D"/>
<path opacity="0.5" d="M105.985 58.3902C105.728 51.9844 111.102 49.1338 116.594 49.1338C122.085 49.1338 128.068 50.5538 128.592 59.0735C128.923 64.5505 125.995 67.9243 117.577 67.9243C114.735 67.9243 112.534 67.4759 110.835 66.6752L106.626 70.4119L108.698 65.2445C106.871 63.547 106.102 61.1554 105.985 58.3902Z" fill="#D2E3FC"/>
<path d="M231.904 53.212C232.267 44.2652 224.767 40.2936 217.096 40.2936C209.425 40.2936 201.081 42.2794 200.355 54.1729C199.885 61.8279 203.966 66.5255 215.718 66.5255C219.682 66.5255 222.759 65.8956 225.12 64.7853L230.996 70.0061L228.111 62.7995C230.665 60.4293 231.744 57.0769 231.904 53.212Z" fill="#D2E3FC"/>
<path d="M106.658 112.893H76.1768C75.0229 112.893 74.0828 111.954 74.0828 110.801V109.434H106.658V112.893Z" fill="#77A4E5"/>
<path d="M91.112 137.887H89.1462L88.6013 112.893H91.6035L91.112 137.887Z" fill="#94B0ED"/>
<path d="M99.6596 137.887H80.5356V136.168L90.2793 135.282L99.6596 136.168V137.887Z" fill="#94B0ED"/>
<path d="M78.6765 137.62C78.6765 136.755 79.3816 136.051 80.247 136.051C81.1124 136.051 81.8176 136.755 81.8176 137.62C81.8176 138.485 81.1124 139.189 80.247 139.189C79.3816 139.189 78.6765 138.485 78.6765 137.62Z" fill="#94B0ED"/>
<path d="M97.8005 137.62C97.8005 136.755 98.5057 136.051 99.371 136.051C100.236 136.051 100.942 136.755 100.942 137.62C100.942 138.485 100.236 139.189 99.371 139.189C98.5057 139.189 97.8005 138.485 97.8005 137.62Z" fill="#94B0ED"/>
<path d="M96.7107 114.527H83.4949C82.7043 114.527 82.0632 113.886 82.0632 113.096V112.893H98.153V113.096C98.1424 113.886 97.5013 114.527 96.7107 114.527Z" fill="#94B0ED"/>
<path d="M76.8076 112.893C75.3011 112.893 74.0725 111.676 74.0725 110.16V88.3696C74.0725 84.0563 76.893 80.5544 80.3759 80.5544H94.6281C98.111 80.5544 100.932 84.0563 100.932 88.3696V112.893H76.8076Z" fill="#F99746"/>
<path d="M77.0956 112.893C76.2729 112.893 75.5999 112.221 75.5999 111.399V88.3696C75.5999 84.0563 78.4204 80.5544 81.9033 80.5544H96.1555C99.6384 80.5544 102.459 84.0563 102.459 88.3696V94.2843V112.883H77.0956V112.893Z" fill="#CC6A27"/>
<path d="M110.13 112.893H75.2581C74.3073 112.893 73.5273 112.125 73.5273 111.164C73.5273 110.214 74.2966 109.434 75.2581 109.434H110.13C111.081 109.434 111.861 110.203 111.861 111.164C111.861 112.114 111.091 112.893 110.13 112.893Z" fill="#F99746"/>
<path d="M119.5 137.086C119.393 138.09 120.792 138.346 122.416 138.453C124.04 138.549 123.549 138.88 125.76 139.307C127.982 139.734 128.88 139.136 129.04 138.837C129.19 138.57 128.153 138.143 127.064 137.663C126.925 137.599 126.786 137.545 126.647 137.481C125.408 136.926 124.724 135.805 123.773 134.759C122.865 133.777 122.032 130.638 122.032 130.638L119.019 129.965C119.019 129.965 119.841 132.784 120.119 133.99C120.29 134.695 120.023 135.485 119.788 136.083C119.66 136.403 119.542 136.734 119.5 137.086Z" fill="#FFB27D"/>
<path d="M122.416 138.453C124.04 138.549 123.549 138.88 125.76 139.307C127.983 139.734 128.88 139.136 129.04 138.837C129.19 138.57 128.153 138.143 127.064 137.663L127.042 137.684C127.042 137.684 125.472 138.197 123.677 137.684C122.213 137.268 120.792 136.371 119.788 136.083C119.66 136.403 119.532 136.745 119.5 137.097C119.393 138.09 120.792 138.357 122.416 138.453Z" fill="#0F2549"/>
<path d="M114.939 102.185C113.315 101.043 102.588 99.014 97.1073 98.4268L91.0603 93.174C91.0603 93.174 85.9107 100.797 85.8679 106.637C85.8466 109.359 87.1073 109.626 87.1073 109.626C87.1073 109.626 106.509 109.765 107.364 109.861C108.753 110 110.59 113.47 111.05 116.63C111.509 119.79 119.597 132.623 119.597 132.623C119.597 132.623 121.285 133.168 122.065 133.114C122.909 133.061 123.293 132.784 123.293 132.784C123.293 132.784 118.592 104.758 114.939 102.185Z" fill="#233862"/>
<path d="M114.479 137.086C114.372 138.09 115.772 138.346 117.396 138.453C119.02 138.549 118.528 138.88 120.74 139.307C122.962 139.734 123.859 139.136 124.02 138.837C124.169 138.57 123.133 138.143 122.043 137.663C121.904 137.599 121.765 137.545 121.627 137.481C120.387 136.926 119.703 135.805 118.753 134.759C117.844 133.777 117.011 130.638 117.011 130.638L113.998 129.965C113.998 129.965 114.821 132.784 115.099 133.99C115.27 134.695 115.003 135.485 114.768 136.083C114.65 136.403 114.522 136.734 114.479 137.086Z" fill="#FFB27D"/>
<path d="M117.395 138.453C119.019 138.549 118.528 138.88 120.74 139.307C122.962 139.734 123.859 139.136 124.019 138.837C124.169 138.57 123.133 138.143 122.043 137.663L122.022 137.684C122.022 137.684 120.451 138.197 118.656 137.684C117.192 137.268 115.772 136.371 114.767 136.083C114.639 136.403 114.511 136.745 114.479 137.097C114.383 138.09 115.782 138.357 117.395 138.453Z" fill="#233862"/>
<path d="M109.874 102.185C108.464 101.192 104.222 100.434 99.5428 99.8575C98.25 99.6973 97.1924 98.7578 96.8718 97.498L85.9851 93.174C85.9851 93.174 80.8355 100.797 80.7927 106.637C80.7714 109.359 82.0321 109.626 82.0321 109.626C82.0321 109.626 101.434 109.765 102.289 109.861C103.677 110 105.515 113.47 105.974 116.63C106.434 119.79 114.521 132.623 114.521 132.623C114.521 132.623 116.209 133.168 116.989 133.114C117.833 133.061 118.218 132.784 118.218 132.784C118.218 132.784 113.528 104.758 109.874 102.185Z" fill="#2B478B"/>
<path d="M95.3225 66.28C95.3225 66.28 92.1494 67.9029 94.4571 71.3834C94.4571 71.3834 91.7328 71.693 91.049 70.9136C91.049 70.9136 91.1558 71.2552 91.2734 71.4261C91.2734 71.4261 88.6345 71.0844 87.6836 70.0808C86.7328 69.0773 89.6922 55.7744 96.7221 58.4969C96.7221 58.4969 102.972 59.0628 101.199 66.1092C99.4251 73.1556 101.754 73.54 101.754 73.54C101.754 73.54 101.049 73.7535 100.739 73.7001C100.739 73.7001 100.312 73.4439 100.258 73.177C100.258 73.177 100.28 73.5934 100.376 73.7322C100.376 73.7322 97.8225 73.5507 96.7221 72.3869C95.6323 71.2446 94.7135 67.7 95.3225 66.28Z" fill="#8E342E"/>
<path d="M99.8534 69.7607L99.597 69.7927C98.4645 69.9528 97.4175 69.1521 97.2572 68.0204L97.0756 66.6965C96.9153 65.5648 97.7166 64.5185 98.8491 64.3584L99.1055 64.3264C100.238 64.1662 101.285 64.967 101.445 66.0987L101.627 67.4225C101.776 68.5542 100.975 69.6112 99.8534 69.7607Z" fill="#ED7D2B"/>
<path d="M100.569 80.405C99.6177 81.131 99.0194 83.7681 97.4916 84.2058C91.7651 85.8393 88.6989 79.0491 87.6946 75.7394C88.4638 75.2483 89.201 75.1095 89.6283 75.0348C90.045 74.9601 90.483 74.9067 90.8463 74.8746C91.466 74.3408 92.3313 72.2589 92.3848 69.088L92.6625 69.1521L97.2886 70.1663C97.2886 70.1663 97.1497 71.629 97.1177 73.0063C97.0963 74.0846 97.0536 74.3408 97.139 74.4689C97.5023 74.533 97.919 75.4512 97.919 75.4512C98.0044 75.5259 99.4361 77.6398 100.569 80.405Z" fill="#FFB27D"/>
<path d="M97.2996 70.1556C97.2996 70.1556 97.1607 71.6183 97.1287 72.9955C94.5325 72.8674 93.2078 70.4652 92.6736 69.1414L97.2996 70.1556Z" fill="#ED985F"/>
<path d="M120.825 94.1243C120.825 94.1243 118.1 94.2204 115.151 94.2311C114.799 94.2311 114.446 94.2311 114.094 94.2311C111.69 94.2204 109.318 94.135 108.314 93.8787C107.331 93.6225 103.549 91.0601 100.525 87.964C100.29 88.5192 100.119 88.9462 100.109 88.9782C100.023 89.6722 99.8737 90.3769 99.692 91.0388C99.6814 91.0815 99.6707 91.1349 99.66 91.1776C99.6493 91.2096 99.6493 91.2523 99.6386 91.295C99.6279 91.3271 99.628 91.3698 99.6173 91.4018C99.2968 93.3876 100.28 96.409 100.568 97.9464C100.664 98.4376 100.686 98.7685 100.568 98.8753C95.6429 103.541 86.3907 102.484 82.3309 101.737C81.348 101.555 80.8138 100.477 81.2732 99.5906C82.8331 96.4945 85.7711 89.6615 85.301 82.7005C85.2796 82.4656 87.5019 74.864 87.5019 74.864C87.5019 74.864 89.2219 74.5651 91.2198 74.4049C91.4121 74.5757 91.7967 79.583 94.2861 79.8712C94.692 79.9139 97.2882 83.8856 97.2882 83.8856L98.0788 79.8285L97.1493 74.4476C98.3459 74.7999 98.9976 74.9281 99.9912 75.3231C100.664 75.59 101.231 76.0918 101.583 76.7324C103.325 79.9139 108.976 90.174 109.553 90.4089C110.098 90.6331 112.128 91.0388 114.286 91.4338C117.171 91.957 120.258 92.4588 120.258 92.4588L120.825 94.1243Z" fill="#D2E3FC"/>
<path d="M98.0678 71.5436C98.0678 71.5436 91.914 71.4262 92.0529 67.5933C92.1917 63.7711 91.4866 61.1768 95.4183 61.0914C99.3499 61.0059 100.066 62.49 100.333 63.7818C100.589 65.063 99.6704 71.4689 98.0678 71.5436Z" fill="#FFB27D"/>
<path d="M115.151 94.2417C114.799 94.2417 114.446 94.2417 114.094 94.2417C111.69 94.231 109.318 94.1456 108.314 93.8894C107.331 93.6331 103.549 91.0708 100.525 87.9746C100.525 87.9746 101.166 85.5297 101.434 85.124C101.711 84.7183 102.79 88.6899 105.333 90.3021C107.865 91.9142 111.84 93.0459 113.763 92.5975C115.077 92.2772 115.205 93.4409 115.151 94.2417Z" fill="#B7D3F3"/>
<path d="M96.8608 69.4083C96.8608 69.4083 96.9036 69.8674 97.9079 69.9421C97.9079 69.9421 98.7519 70.0062 98.7946 69.5151C98.7946 69.5044 98.0147 69.0453 96.8608 69.4083Z" fill="white"/>
<path d="M97.1927 70.9564C93.6991 69.8567 92.8444 66.5471 92.8337 66.515L93.2077 66.4189L93.026 66.4617L93.2077 66.4189C93.2184 66.451 94.0303 69.5471 97.3102 70.5934C97.3316 70.6041 97.353 70.6041 97.3743 70.6148L97.2675 70.9778C97.2354 70.9778 97.2141 70.9671 97.1927 70.9564Z" fill="#122544"/>
<path d="M97.5882 71.2126L97.257 71.1059C97.0861 71.0525 96.9899 70.871 97.0433 70.7002C97.0967 70.5293 97.2784 70.4332 97.4493 70.4866L97.7805 70.5934C97.9515 70.6468 98.0476 70.8283 97.9942 70.9991C97.9408 71.1806 97.7591 71.266 97.5882 71.2126Z" fill="#ED7D2B"/>
<path d="M98.421 60.5789C98.421 60.5789 96.8505 65.2446 94.4787 66.0346C92.1176 66.8247 91.3376 65.8852 91.3376 65.8852C91.3376 65.8852 93.0791 64.2837 93.2821 61.7C93.2714 61.7 97.0962 58.6679 98.421 60.5789Z" fill="#8E342E"/>
<path d="M95.4719 61.9562C95.4719 61.9562 98.6771 61.7747 99.6386 62.6928C100.333 63.3548 100.312 63.6964 100.365 64.5719C100.365 64.5719 101.765 62.4046 100.322 60.8992C98.7946 59.287 95.4719 61.9562 95.4719 61.9562Z" fill="#8E342E"/>
<path d="M98.282 61.0701C98.282 61.0701 97.4808 65.5328 94.5427 67.1556C94.5427 67.1556 97.3846 64.2516 97.438 61.337C97.4808 58.4223 98.282 61.0701 98.282 61.0701Z" fill="#8E342E"/>
<path d="M87.6836 70.0809C88.6344 71.0845 91.2733 71.4262 91.2733 71.4262C91.1558 71.2553 91.0489 70.9137 91.0489 70.9137C92.4058 72.0134 95.7391 71.2126 95.7391 71.2126C93.0789 70.6254 93.9442 66.7926 94.8417 66.6324C95.3652 63.7391 96.4122 60.1412 96.9037 58.529C96.7861 58.5077 96.722 58.5077 96.722 58.5077C89.6921 55.7745 86.7434 69.088 87.6836 70.0809Z" fill="#8E342E"/>
<path d="M93.4637 69.3763L93.2073 69.4084C92.0748 69.5685 91.0278 68.7678 90.8676 67.6361L90.6859 66.3122C90.5257 65.1805 91.327 64.1342 92.4594 63.9741L92.7159 63.942C93.8483 63.7819 94.8953 64.5826 95.0556 65.7143L95.2372 67.0382C95.3868 68.1592 94.5855 69.2162 93.4637 69.3763Z" fill="#ED7D2B"/>
<path d="M91.797 64.5292C91.6474 64.2516 92.1709 62.0523 92.9509 60.3441C93.3248 59.522 94.2756 58.4223 94.9594 58.1341C95.2051 58.0273 95.5256 58.07 95.7927 58.1341C95.985 58.1768 96.5299 58.433 96.5299 58.433C94.297 59.127 92.3633 63.7926 92.5021 64.273C92.5021 64.2623 92.4915 64.2516 92.4915 64.241L91.797 64.5292Z" fill="#ED7D2B"/>
<path d="M92.9507 68.0524L92.8225 68.0738C92.2563 68.1485 91.7328 67.7535 91.658 67.1876L91.5618 66.5257C91.487 65.9598 91.8823 65.4367 92.4486 65.362L92.5768 65.3406C93.143 65.2659 93.6665 65.6609 93.7413 66.2268L93.8375 66.8887C93.9123 67.4439 93.517 67.9777 92.9507 68.0524Z" fill="#F99746"/>
<path d="M107.876 91.9143C107.876 91.9143 110.515 91.7648 110.771 91.9036C111.188 92.1278 112.609 93.0353 112.822 93.3022C113.047 93.5691 113.624 94.6261 113.624 94.6261C113.624 94.6261 113.367 94.7008 113.26 94.594C113.143 94.4873 112.288 93.5798 112.288 93.5798L113.175 94.925C113.175 94.925 112.865 94.9143 112.747 94.7755C112.63 94.6474 111.797 93.804 111.797 93.804L111.519 93.7506C111.519 93.7506 111.807 93.9855 111.957 94.1883C112.117 94.3912 112.213 94.6154 112.213 94.6154C112.213 94.6154 111.957 94.5727 111.882 94.53C111.807 94.4873 111.059 93.8467 111.059 93.8467L111.455 94.3805C111.455 94.3805 111.188 94.3698 111.102 94.3058C111.017 94.2417 110.44 93.7186 110.333 93.7186C110.226 93.7186 109.489 93.6865 109.179 93.5264C108.859 93.3556 107.865 92.9712 107.865 92.9712L107.876 91.9143Z" fill="#FFB27D"/>
<path d="M91.5834 73.6682C91.5834 73.6682 89.8205 74.1806 89.4146 74.5863C89.4146 74.5863 91.2628 79.2946 93.9231 81.494L94.6389 80.9922V82.1345L97.2992 83.8748C97.2992 83.8855 91.4552 75.0988 91.5834 73.6682Z" fill="#B7D3F3"/>
<path d="M100.568 97.957C99.1686 97.4125 94.4891 95.5228 92.6087 93.7611C90.504 91.786 86.145 84.6755 86.145 84.6755L93.7732 82.8071C93.7732 82.8071 96.9143 87.398 97.8117 88.2628C98.4955 88.9354 100.098 88.9888 100.098 88.9888L99.6814 91.0493C99.6707 91.092 99.66 91.1454 99.6493 91.1881C99.6386 91.2202 99.6386 91.2629 99.628 91.3056C99.6173 91.3376 99.6173 91.3803 99.6066 91.4123C99.2968 93.3981 100.28 96.4196 100.568 97.957Z" fill="#B7D3F3"/>
<path d="M97.1499 74.4475C97.1499 74.4475 97.9618 80.8534 97.2887 83.8855C97.2887 83.8855 98.3785 81.889 98.5281 81.5153L98.3465 80.4156L99.0516 80.6612C99.0516 80.6612 98.4319 75.5472 97.8657 74.6504C97.2994 73.7536 97.0964 73.6682 97.0964 73.6682L97.1499 74.4475Z" fill="#B7D3F3"/>
<path d="M120.825 94.1242C120.825 94.1242 117.417 94.2524 114.094 94.231C113.271 92.9498 114.275 91.4231 114.275 91.4231C117.16 91.9462 120.248 92.448 120.248 92.448L120.825 94.1242Z" fill="#FFB27D"/>
<path d="M121.156 95.8324H108.581C108.581 95.2773 109.03 94.8289 109.586 94.8289H121.156V95.8324Z" fill="#10974F"/>
<path d="M140.569 82.1452L135.9 95.8324H116.327L121.113 82.1452H140.569Z" fill="#10974F"/>
<path d="M140.569 82.1452L135.943 95.7043L135.9 95.8324H116.616L121.402 82.1452H140.569Z" fill="#01BA57"/>
<path d="M130.365 88.8607C130.248 89.3839 129.724 89.8109 129.201 89.8109C128.677 89.8109 128.346 89.3839 128.474 88.8607C128.592 88.3376 129.115 87.9105 129.639 87.9105C130.162 87.9105 130.483 88.3376 130.365 88.8607Z" fill="#FFC397"/>
<path d="M140.569 82.1452L135.943 95.7043H127.075L137.887 82.1452H140.569Z" fill="#10974F"/>
<path d="M107.876 92.9819C107.876 92.9819 101.402 93.5477 97.8228 93.3876V89.8751C100.163 90.5263 107.876 91.9142 107.876 91.9142V92.9819Z" fill="#FFB27D"/>
<path d="M89.4253 74.5864C89.4253 74.5864 85.718 74.6718 84.5749 75.9103C83.4317 77.1488 85.7073 84.1418 85.7073 84.1418C85.7073 84.1418 92.6091 92.5869 96.0599 93.1847C96.0599 93.1847 97.5664 93.3876 98.2715 93.3983C98.2715 93.3983 97.577 91.3911 98.8698 90.1313C98.8698 90.1313 97.3954 89.7149 97.3313 89.5334C97.2672 89.3519 89.4253 74.5864 89.4253 74.5864Z" fill="#D2E3FC"/>
<path d="M67.4486 139.926H67.4165C67.2135 139.926 67.064 139.638 67.064 139.275L67.5982 97.594L69.1793 97.263L67.8332 139.285C67.8225 139.648 67.6516 139.926 67.4486 139.926Z" fill="#233862"/>
<path d="M64.4893 98.3633H156.519C157.107 98.3633 157.588 97.8828 157.588 97.2956V96.922C157.588 96.3347 157.107 95.8543 156.519 95.8543H64.4893C63.9017 95.8543 63.4209 96.3347 63.4209 96.922V97.2956C63.4209 97.8828 63.9017 98.3633 64.4893 98.3633Z" fill="#233862"/>
<path d="M270.312 139.926H270.344C270.547 139.926 270.697 139.638 270.697 139.275L270.162 97.594L268.581 97.263L269.927 139.285C269.938 139.648 270.109 139.926 270.312 139.926Z" fill="#233862"/>
<path d="M149.703 98.3627H272.481C273.165 98.3627 273.72 97.8075 273.72 97.1242V97.0815C273.72 96.3983 273.165 95.8431 272.481 95.8431H149.703C149.019 95.8431 148.464 96.3983 148.464 97.0815V97.1242C148.464 97.8075 149.019 98.3627 149.703 98.3627Z" fill="#233862"/>
<path d="M183.143 95.8324H170.568C170.568 95.2773 171.017 94.8289 171.573 94.8289H183.154V95.8324H183.143Z" fill="#10974F"/>
<path d="M202.556 82.1451L197.887 95.8323H178.314L183.101 82.1451H202.556Z" fill="#10974F"/>
<path d="M202.556 82.1451L197.93 95.7042L197.887 95.8323H178.593L183.39 82.1451H202.556Z" fill="#01BA57"/>
<path d="M192.353 88.8607C192.235 89.3838 191.712 89.8109 191.188 89.8109C190.665 89.8109 190.333 89.3838 190.462 88.8607C190.579 88.3375 191.103 87.9105 191.626 87.9105C192.15 87.9105 192.47 88.3375 192.353 88.8607Z" fill="#FFC397"/>
<path d="M202.556 82.1451L197.93 95.7042H189.062L199.874 82.1451H202.556Z" fill="#10974F"/>
<path d="M206.092 82.1451L210.793 95.843L230.333 95.8324L225.536 82.1451H206.092Z" fill="#ED7D2B"/>
<path d="M206.647 82.4442L211.167 95.7043L211.209 95.8324H230.045L225.365 82.4442H206.647Z" fill="#B0D4FF"/>
<path d="M210.792 95.8431L238.089 95.8325C238.089 95.2773 237.64 94.8289 237.085 94.8289H210.514L210.792 95.8431Z" fill="#ED7D2B"/>
<path d="M246.392 72.5791H246.135C244.992 72.5791 244.062 71.6503 244.062 70.5079V69.1733C244.062 68.031 244.992 67.1021 246.135 67.1021H246.392C247.535 67.1021 248.464 68.031 248.464 69.1733V70.5079C248.464 71.6396 247.524 72.5791 246.392 72.5791Z" fill="#ED7D2B"/>
<path d="M235.441 135.09C235.441 135.09 235.163 139.381 234.33 139.435C234.223 139.446 230.121 139.435 230.121 139.435L224.885 139.392C224.885 139.392 224.918 138.132 226.456 137.865C227.984 137.599 230.548 136.531 231.477 134.513C232.46 132.399 235.441 135.09 235.441 135.09Z" fill="#0E2C4F"/>
<path d="M250.419 99.8147C250.622 99.9855 255.953 105.761 255.515 110.192C255.387 111.495 254.265 112.477 252.951 112.477H246.456C246.456 112.477 239.832 113.662 239.671 115.093C239.511 116.523 238.154 124.242 235.473 135.207C235.473 135.207 233.496 135.89 232.289 135.399C230.697 134.759 230.473 134.075 230.473 134.075C230.473 134.075 232.075 109.53 233.336 107.801C234.597 106.071 247.631 100.936 251.851 100.423C256.071 99.9001 250.419 99.8147 250.419 99.8147Z" fill="#163560"/>
<path d="M212.759 93.6971C212.759 93.6971 208.988 92.8216 208.026 93.6971C207.065 94.5726 206.755 95.8431 206.755 95.8431H212.759V93.6971Z" fill="#FFB27D"/>
<path d="M226.264 135.09C226.264 135.09 225.986 139.381 225.153 139.435C225.046 139.446 220.943 139.435 220.943 139.435L215.708 139.392C215.708 139.392 215.74 138.132 217.279 137.865C218.807 137.599 221.371 136.531 222.3 134.513C223.283 132.399 226.264 135.09 226.264 135.09Z" fill="#163560"/>
<path d="M255.344 99.8147C255.494 99.9428 256.648 103.05 257.417 106.573C258.079 109.605 255.772 112.477 252.663 112.477H237.556C237.556 112.477 230.932 113.662 230.772 115.093C230.611 116.523 229.255 124.242 226.573 135.207C226.573 135.207 224.586 135.73 223.037 135.068C222.214 134.716 221.562 133.872 221.562 133.872C221.562 133.872 223.176 109.53 224.447 107.801C225.708 106.071 238.742 100.936 242.962 100.423C247.171 99.9001 255.344 99.8147 255.344 99.8147Z" fill="#2B478B"/>
<path d="M246.968 77.8639L244.628 80.106H240.643C240.643 79.7857 240.654 78.4511 240.665 77.2447C240.665 77.17 240.665 77.1059 240.665 77.0312C240.665 76.7643 240.675 76.508 240.675 76.2625C240.686 75.6005 240.686 75.1094 240.686 75.1094L241.712 74.4048L243.987 72.846L245.216 72.0026C245.216 72.0239 245.323 73.1236 245.334 73.2837C245.622 76.1557 246.968 77.8639 246.968 77.8639Z" fill="#FFB27D"/>
<path d="M241.188 77.469C241.263 77.4369 245.569 75.5045 246.071 75.6753C246.573 75.8461 247.203 77.3835 247.203 77.3835L239.618 79.1025C239.618 79.0811 240.216 77.8747 241.188 77.469Z" fill="#B7D3F3"/>
<path d="M259.821 90.366C258.998 85.3053 255.537 81.5259 254.052 80.1059C253.058 78.6112 247.203 77.3727 247.203 77.3727C247.203 77.3727 242.353 78.4724 239.618 79.0917C239.618 79.0917 235.344 79.5507 232.93 83.5437C231.434 86.01 227.171 91.6471 224.362 91.818C221.552 91.9888 212.748 93.697 212.748 93.697V95.8643L226.178 96.2273C226.338 96.2273 226.509 96.2166 226.669 96.1846C227.823 95.9711 232.78 94.9782 235.238 93.697C235.633 100.039 236.092 109.712 238.315 111.249C240.654 112.872 257.139 113.096 258.881 110.619C259.778 109.349 258.678 101.843 257.31 94.6045C259.009 93.8038 260.163 92.4799 259.821 90.366Z" fill="#D2E3FC"/>
<path d="M244.597 74.1913L244.394 74.3194C244.394 74.3194 242.524 75.6646 240.697 76.2732C240.708 75.6113 240.708 75.1201 240.708 75.1201L241.734 74.4155L244.597 74.1913Z" fill="#EAA16E"/>
<path d="M239.308 75.1627C239.308 75.1627 245.43 75.8887 245.825 72.0666C246.221 68.2444 247.278 65.7675 243.379 65.1483C239.479 64.529 238.571 65.9063 238.133 67.1448C237.695 68.3832 237.727 74.8745 239.308 75.1627Z" fill="#FFB27D"/>
<path d="M238.293 66.7498C238.293 66.7498 239.447 70.8923 240.291 70.5506C241.124 70.209 241.894 69.9207 242 71.2126C242.107 72.5044 242.599 74.0205 245.323 73.7429C248.047 73.4653 249.201 66.0025 248.218 64.828C245.387 61.4436 234.362 62.7141 238.293 66.7498Z" fill="#163560"/>
<path d="M233.955 113.299H264.254C265.408 113.299 266.338 112.37 266.338 111.217V109.861H233.955V113.299Z" fill="#77A4E5"/>
<path d="M230.323 113.299H253.251C254.105 113.299 254.789 112.605 254.789 111.761V111.409C254.789 110.555 254.095 109.872 253.251 109.872H230.323C229.468 109.872 228.785 110.566 228.785 111.409V111.761C228.785 112.605 229.479 113.299 230.323 113.299Z" fill="#F99746"/>
<path d="M249.415 138.154H251.37L251.915 113.299H248.934L249.415 138.154Z" fill="#2B478B"/>
<path d="M240.922 138.154H259.929V136.435L250.238 135.559L240.922 136.435V138.154Z" fill="#2B478B"/>
<path d="M261.777 137.876C261.777 137.011 261.072 136.317 260.217 136.317C259.352 136.317 258.657 137.022 258.657 137.876C258.657 138.741 259.362 139.435 260.217 139.435C261.072 139.446 261.777 138.741 261.777 137.876Z" fill="#2B478B"/>
<path d="M242.77 137.876C242.77 137.011 242.065 136.317 241.21 136.317C240.345 136.317 239.65 137.022 239.65 137.876C239.65 138.741 240.356 139.435 241.21 139.435C242.065 139.446 242.77 138.741 242.77 137.876Z" fill="#2B478B"/>
<path d="M241.595 114.922H259.245C260.142 114.922 260.879 114.196 260.879 113.288H239.971C239.971 114.196 240.697 114.922 241.595 114.922Z" fill="#2B478B"/>
<path d="M263.347 113.299C264.169 113.299 264.832 112.637 264.832 111.815V88.9247C264.832 84.6327 262.022 81.1629 258.56 81.1629H244.383C240.921 81.1629 238.112 84.6434 238.112 88.9247V113.299H263.347Z" fill="#F99746"/>
<path d="M263.635 113.299C265.131 113.299 266.349 112.082 266.349 110.587V88.9247C266.349 84.6327 263.539 81.1629 260.078 81.1629H245.9C242.439 81.1629 239.629 84.6434 239.629 88.9247V113.299H263.635Z" fill="#CC6A27"/>
<path d="M237.129 75.2375C240.622 74.1379 241.477 70.8282 241.488 70.7962L241.114 70.7001L241.295 70.7428L241.114 70.7001C241.103 70.7321 240.291 73.8283 237.011 74.8745C236.99 74.8852 236.968 74.8852 236.947 74.8959L237.054 75.2589C237.086 75.2589 237.107 75.2482 237.129 75.2375Z" fill="#122544"/>
<path d="M236.734 75.5045L237.065 75.3977C237.236 75.3443 237.332 75.1628 237.279 74.992C237.225 74.8212 237.044 74.7251 236.873 74.7785L236.541 74.8853C236.37 74.9386 236.274 75.1201 236.328 75.291C236.392 75.4618 236.573 75.5579 236.734 75.5045Z" fill="#ED7D2B"/>
<path d="M241.552 73.9457L241.296 73.9777C240.163 74.1378 239.106 73.3371 238.956 72.2054L238.774 70.8815C238.614 69.7498 239.415 68.7035 240.548 68.5434L240.804 68.5114C241.937 68.3512 242.984 69.152 243.144 70.2837L243.326 71.6075C243.475 72.7392 242.685 73.7962 241.552 73.9457Z" fill="#ED7D2B"/>
<path d="M239.885 69.1092C239.736 68.8316 240.259 66.6323 241.039 64.924C241.413 64.1019 242.364 63.0023 243.048 62.714C243.294 62.6073 243.614 62.65 243.881 62.714C244.073 62.7567 244.618 63.0663 244.618 63.0663C242.385 63.7603 240.452 68.3618 240.591 68.8423C240.591 68.8316 240.58 68.8209 240.58 68.8102L239.885 69.1092Z" fill="#ED7D2B"/>
<path d="M241.039 72.6324L240.911 72.6537C240.345 72.7285 239.821 72.3334 239.747 71.7676L239.65 71.1057C239.576 70.5398 239.971 70.0167 240.537 69.9419L240.665 69.9206C241.232 69.8458 241.755 70.2409 241.83 70.8067L241.926 71.4687C242.001 72.0238 241.605 72.547 241.039 72.6324Z" fill="#F99746"/>
</svg>
