<svg width="69" height="69" viewBox="0 0 69 69" fill="none" xmlns="http://www.w3.org/2000/svg">
<path d="M44.7102 68.0032H5.52053C2.47514 68.0032 0 65.5304 0 62.4879V21.2751C0 18.2205 2.47514 15.7599 5.52053 15.7599H44.7102C47.7556 15.7599 50.2308 18.2327 50.2308 21.2751V62.4879C50.2308 65.5304 47.7556 68.0032 44.7102 68.0032Z" fill="#5DC4ED"/>
<path opacity="0.8" d="M44.1645 67.5667L5.39941 61.7969C2.37828 61.3484 0.303535 58.5363 0.752457 55.5302L6.83111 14.7658C7.28003 11.7597 10.0949 9.67485 13.1039 10.1233L51.8568 15.8931C54.8779 16.3416 56.9527 19.1538 56.5038 22.1599L50.4251 62.9242C49.9883 65.9424 47.1735 68.0152 44.1645 67.5667Z" fill="#6BB96B"/>
<path opacity="0.8" d="M46.6758 64.791L8.39606 56.4151C5.41133 55.7606 3.53071 52.8272 4.18589 49.8453L13.0066 9.59014C13.6618 6.60827 16.598 4.72946 19.5827 5.38401L57.8625 13.7599C60.8472 14.4145 62.7278 17.3478 62.0726 20.3297L53.2519 60.5849C52.5967 63.5668 49.6484 65.4456 46.6758 64.791Z" fill="#E25966"/>
<path opacity="0.8" d="M47.6589 62.597L10.6895 49.6029C7.81398 48.5968 6.29735 45.4452 7.31653 42.5724L21.0026 3.68695C22.0096 0.814178 25.1642 -0.700998 28.0398 0.3172L65.0091 13.3114C67.8847 14.3174 69.4013 17.469 68.3821 20.3418L54.7082 59.2151C53.689 62.0879 50.5344 63.6031 47.6589 62.597Z" fill="#FF609B"/>
<path d="M31.8618 35.7975H22.1796V42.3552H33.5482V46.4038H17.1201V21.9427H33.4997V26.0277H22.1675V31.8581H31.8496V35.7975H31.8618Z" fill="white"/>
<path d="M44.3957 35.8934L41.5444 35.9177V46.4027H36.4971V21.9417H41.5444V31.2752L43.9953 31.2631L50.8141 21.9296H56.9048L48.4481 32.8025L57.5115 46.4027H51.3964L44.3957 35.8934Z" fill="white"/>
</svg>
