<svg width="587" height="384" viewBox="0 0 587 384" fill="none" xmlns="http://www.w3.org/2000/svg">
<path d="M33.6774 382.632L216.33 381.6L265.018 381.584L281.147 381.578L329.928 381.562L552.785 381.496C552.785 381.496 603.761 310.28 549.31 242.641C492.856 172.512 465.407 229.625 448.052 130.909C404.372 -117.575 -27.4864 27.0489 85.7862 238.497C126.573 314.632 5.50221 274.166 33.6774 382.632Z" fill="#F3F3F3"/>
<path d="M215.497 329.659L214.432 329.022C213.296 328.343 212.878 326.781 213.501 325.543L218.389 315.798C219.012 314.557 220.442 314.101 221.576 314.781L223.1 315.691C223.322 315.824 223.405 316.128 223.283 316.373C223.161 316.615 222.882 316.706 222.658 316.572L221.134 315.662C220.442 315.249 219.574 315.527 219.195 316.283L214.306 326.028C213.927 326.781 214.182 327.732 214.874 328.146L215.938 328.782C216.631 329.196 217.499 328.918 217.878 328.162L221.123 321.694C221.245 321.451 221.524 321.361 221.748 321.494C221.97 321.627 222.053 321.931 221.931 322.176L218.685 328.645C218.063 329.883 216.633 330.339 215.497 329.659Z" fill="#AFCDFB"/>
<path d="M210.962 339.892L209.055 338.751C207.285 337.694 206.689 335.146 207.727 333.077L215.076 318.426C215.198 318.184 215.476 318.093 215.701 318.227C215.923 318.36 216.005 318.664 215.883 318.909L208.535 333.561C207.74 335.146 208.171 337.083 209.497 337.874L211.404 339.015C212.729 339.809 214.455 339.162 215.252 337.577L223.624 320.888C224.418 319.303 223.987 317.366 222.662 316.575C222.44 316.442 222.357 316.138 222.479 315.893C222.601 315.651 222.879 315.56 223.104 315.693C224.873 316.753 225.47 319.298 224.431 321.368L216.062 338.057C215.017 340.127 212.732 340.952 210.962 339.892Z" fill="#AFCDFB"/>
<path opacity="0.6" d="M394.691 275.461H160.587C154.832 275.461 150.167 270.368 150.167 264.085V49.5746C150.167 43.2914 154.832 38.1989 160.587 38.1989H394.691C400.446 38.1989 405.111 43.2914 405.111 49.5746V264.085C405.111 270.368 400.446 275.461 394.691 275.461Z" fill="white"/>
<path d="M405.108 64.5221H150.163V46.6874C150.163 41.9964 153.645 38.1942 157.942 38.1942H397.328C401.625 38.1942 405.108 41.9964 405.108 46.6874V64.5221Z" fill="#699DEE"/>
<path d="M160.473 51.2002C160.473 49.4607 161.764 48.0515 163.357 48.0515C164.951 48.0515 166.241 49.4607 166.241 51.2002C166.241 52.9397 164.951 54.3489 163.357 54.3489C161.764 54.3489 160.473 52.9397 160.473 51.2002Z" fill="#DDE7FE"/>
<path d="M172.574 51.2002C172.574 49.4607 173.865 48.0515 175.458 48.0515C177.049 48.0515 178.342 49.4607 178.342 51.2002C178.342 52.9397 177.052 54.3489 175.458 54.3489C173.865 54.3489 172.574 52.9397 172.574 51.2002Z" fill="#DDE7FE"/>
<path d="M184.674 51.2002C184.674 49.4607 185.965 48.0515 187.558 48.0515C189.152 48.0515 190.443 49.4607 190.443 51.2002C190.443 52.9397 189.152 54.3489 187.558 54.3489C185.965 54.3489 184.674 52.9397 184.674 51.2002Z" fill="#DDE7FE"/>
<path opacity="0.5" d="M242.637 85.413H170.368V164.311H242.637V85.413Z" fill="#CDE0FB"/>
<path opacity="0.5" d="M319.771 91.2943H262.288C260.78 91.2943 259.557 89.9588 259.557 88.3119C259.557 86.6651 260.78 85.3296 262.288 85.3296H319.771C321.279 85.3296 322.503 86.6651 322.503 88.3119C322.503 89.9588 321.279 91.2943 319.771 91.2943Z" fill="#7C9AF2"/>
<path opacity="0.5" d="M388.511 87.2949H331.026C329.518 87.2949 328.294 85.9594 328.294 84.3125C328.294 82.6657 329.518 81.3302 331.026 81.3302H388.511C390.019 81.3302 391.243 82.6657 391.243 84.3125C391.243 85.9594 390.019 87.2949 388.511 87.2949Z" fill="#7C9AF2"/>
<g opacity="0.3">
<path opacity="0.3" d="M331.151 114.248H261.326C260.349 114.248 259.557 113.383 259.557 112.316C259.557 111.249 260.349 110.384 261.326 110.384H331.151C332.128 110.384 332.921 111.249 332.921 112.316C332.921 113.383 332.128 114.248 331.151 114.248Z" fill="#BDD1F9"/>
<path opacity="0.3" d="M357.693 114.248H339.261C338.284 114.248 337.491 113.383 337.491 112.316C337.491 111.249 338.284 110.384 339.261 110.384H357.693C358.671 110.384 359.463 111.249 359.463 112.316C359.463 113.383 358.671 114.248 357.693 114.248Z" fill="#BDD1F9"/>
<path opacity="0.3" d="M287.671 126.234H261.326C260.349 126.234 259.557 125.369 259.557 124.302C259.557 123.235 260.349 122.37 261.326 122.37H287.671C288.648 122.37 289.441 123.235 289.441 124.302C289.443 125.369 288.648 126.234 287.671 126.234Z" fill="#BDD1F9"/>
<path opacity="0.3" d="M330.345 126.234H294.244C293.266 126.234 292.474 125.369 292.474 124.302C292.474 123.235 293.266 122.37 294.244 122.37H330.345C331.322 122.37 332.114 123.235 332.114 124.302C332.114 125.369 331.322 126.234 330.345 126.234Z" fill="#BDD1F9"/>
<path opacity="0.3" d="M357.693 126.234H339.261C338.284 126.234 337.491 125.369 337.491 124.302C337.491 123.235 338.284 122.37 339.261 122.37H357.693C358.671 122.37 359.463 123.235 359.463 124.302C359.463 125.369 358.671 126.234 357.693 126.234Z" fill="#BDD1F9"/>
<path opacity="0.3" d="M297.074 136.598H261.326C260.349 136.598 259.557 135.733 259.557 134.666C259.557 133.599 260.349 132.734 261.326 132.734H297.074C298.052 132.734 298.844 133.599 298.844 134.666C298.844 135.733 298.052 136.598 297.074 136.598Z" fill="#BDD1F9"/>
<path opacity="0.3" d="M365.338 136.598H306.872C305.894 136.598 305.102 135.733 305.102 134.666C305.102 133.599 305.894 132.734 306.872 132.734H365.338C366.315 132.734 367.108 133.599 367.108 134.666C367.108 135.733 366.315 136.598 365.338 136.598Z" fill="#BDD1F9"/>
</g>
<g opacity="0.3">
<path opacity="0.3" d="M331.151 152.324H261.326C260.349 152.324 259.557 151.459 259.557 150.392C259.557 149.325 260.349 148.46 261.326 148.46H331.151C332.128 148.46 332.921 149.325 332.921 150.392C332.921 151.459 332.128 152.324 331.151 152.324Z" fill="#BDD1F9"/>
<path opacity="0.3" d="M357.693 152.324H339.261C338.284 152.324 337.491 151.459 337.491 150.392C337.491 149.325 338.284 148.46 339.261 148.46H357.693C358.671 148.46 359.463 149.325 359.463 150.392C359.463 151.459 358.671 152.324 357.693 152.324Z" fill="#BDD1F9"/>
<path opacity="0.3" d="M287.671 164.311H261.326C260.349 164.311 259.557 163.446 259.557 162.379C259.557 161.312 260.349 160.447 261.326 160.447H287.671C288.648 160.447 289.441 161.312 289.441 162.379C289.443 163.446 288.648 164.311 287.671 164.311Z" fill="#BDD1F9"/>
<path opacity="0.3" d="M330.345 164.311H294.244C293.266 164.311 292.474 163.446 292.474 162.379C292.474 161.312 293.266 160.447 294.244 160.447H330.345C331.322 160.447 332.114 161.312 332.114 162.379C332.114 163.446 331.322 164.311 330.345 164.311Z" fill="#BDD1F9"/>
</g>
<path d="M202.769 97.1736H210.233L230.398 147.562H221.887L217.24 135.483H195.57L190.856 147.562H182.606L202.769 97.1736ZM214.292 127.693L206.371 107.682L198.513 127.693H214.292Z" fill="#BDD1F9"/>
<path d="M210.737 180.204H170.368V188.712H210.737V180.204Z" fill="#01BA57"/>
<path d="M210.737 188.712H170.368V197.219H210.737V188.712Z" fill="#01BA57"/>
<path d="M210.737 197.221H170.368V205.729H210.737V197.221Z" fill="#01BA57"/>
<path d="M240.485 185.021H218.274C217.344 185.021 216.591 184.199 216.591 183.184C216.591 182.169 217.344 181.347 218.274 181.347H240.485C241.415 181.347 242.168 182.169 242.168 183.184C242.168 184.199 241.415 185.021 240.485 185.021Z" fill="#BDD1F9"/>
<path d="M233 191.497H218.27C217.341 191.497 216.587 190.674 216.587 189.66C216.587 188.645 217.341 187.823 218.27 187.823H233C233.929 187.823 234.682 188.645 234.682 189.66C234.682 190.674 233.929 191.497 233 191.497Z" fill="#BDD1F9"/>
<path d="M210.737 224.196H170.368V241.581H210.737V224.196Z" fill="#01BA57"/>
<path d="M210.737 237.287H170.368V249.72H210.737V237.287Z" fill="#01BA57"/>
<path d="M170.368 224.196L184.851 237.477L170.368 249.723V224.196Z" fill="#01BA57"/>
<path d="M240.485 229.013H218.274C217.344 229.013 216.591 228.19 216.591 227.176C216.591 226.161 217.344 225.339 218.274 225.339H240.485C241.415 225.339 242.168 226.161 242.168 227.176C242.168 228.19 241.415 229.013 240.485 229.013Z" fill="#BDD1F9"/>
<path d="M233 235.491H218.27C217.341 235.491 216.587 234.668 216.587 233.654C216.587 232.639 217.341 231.817 218.27 231.817H233C233.929 231.817 234.682 232.639 234.682 233.654C234.682 234.668 233.929 235.491 233 235.491Z" fill="#BDD1F9"/>
<path d="M407.685 59.6815C407.685 59.6815 408.736 73.3623 405.88 73.1555C403.026 72.9488 397.389 66.927 386.013 67.9061C374.638 68.8852 360.72 71.6037 352.307 55.3493C343.894 39.0949 363.066 34.4182 363.066 34.4182L407.685 59.6815Z" fill="#233862"/>
<path d="M383.503 58.681L440.82 63.8259L442.013 61.0431L387.06 16.7593L331.551 9.67773L330.485 12.1706L383.503 58.681Z" fill="#2B478B"/>
<path d="M422.51 105.807C422.172 104.519 420.94 103.773 419.76 104.141C418.581 104.509 417.899 105.852 418.237 107.142C418.574 108.43 419.804 109.177 420.984 108.808C422.166 108.438 422.847 107.095 422.51 105.807Z" fill="#F99746"/>
<path d="M420.598 106.479C422.897 106.285 423.434 129.122 423.434 129.122C423.434 129.122 421.935 129.891 421.199 129.711C420.461 129.53 420.087 126.446 420.087 126.446L420.015 129.68C420.015 129.68 417.494 129.775 416.619 129.105C416.619 129.105 416.961 106.791 420.598 106.479Z" fill="#F99746"/>
<path d="M421.35 106.995L420.935 57.1007L420.639 56.8583L390.698 32.681L389.623 34.2684L419.265 58.2057L419.933 106.907L421.35 106.995Z" fill="#F99746"/>
<path d="M459.977 342.387H334.058V290.157H460.397C470.608 290.157 478.886 299.194 478.886 310.342V321.744C478.886 333.143 470.418 342.387 459.977 342.387Z" fill="#FCECDB"/>
<path d="M586.903 311.646V319.505C586.903 323.704 585.937 327.635 584.248 331.016C580.854 337.818 574.544 342.387 567.319 342.387H330.178C328.608 342.387 327.337 340.902 327.337 339.07V337.894C327.337 336.064 328.608 334.576 330.178 334.576H474.737C475.51 333.476 476.191 332.283 476.766 331.014C478.12 328.034 478.884 324.636 478.884 321.028V311.041C478.884 309.204 478.681 307.421 478.298 305.725C477.652 302.849 476.492 300.216 474.946 297.968H330.178C328.608 297.968 327.337 296.483 327.337 294.648V293.474C327.337 291.64 328.608 290.155 330.178 290.155H568.512C576.91 290.155 583.995 296.735 586.194 305.722C586.655 307.607 586.903 309.593 586.903 311.646Z" fill="#699DEE"/>
<path d="M586.194 305.725H478.299C477.652 302.849 476.492 300.216 474.946 297.968H330.178C328.608 297.968 327.337 296.483 327.337 294.648V293.474C327.337 291.64 328.608 290.155 330.178 290.155H568.512C576.912 290.155 583.995 296.735 586.194 305.725Z" fill="#548EE2"/>
<path d="M334.056 316.271L351.616 317.15L334.056 317.678V316.271Z" fill="#F4D2B8"/>
<path d="M334.056 324.467L375.829 325.344L334.056 325.874V324.467Z" fill="#F4D2B8"/>
<path d="M315.657 382.904H439.266V342.278H314.566C305.304 342.278 297.797 350.474 297.797 360.585V363.408C297.799 374.176 305.794 382.904 315.657 382.904Z" fill="#01BA57"/>
<path d="M433.311 382.902H574.19V342.275H432.926C423.509 342.275 415.875 350.609 415.875 360.89V363.867C415.875 374.38 423.681 382.902 433.311 382.902Z" fill="#FCECDB"/>
<path d="M406.567 382.902H578.945C580.375 382.902 581.535 381.635 581.535 380.074V379.651C581.535 378.09 580.375 376.823 578.945 376.823H406.567C405.137 376.823 403.977 378.09 403.977 379.651V380.074C403.979 381.638 405.137 382.902 406.567 382.902Z" fill="#01BA57"/>
<path d="M406.567 348.352H578.945C580.375 348.352 581.535 347.085 581.535 345.524V345.101C581.535 343.54 580.375 342.273 578.945 342.273H406.567C405.137 342.273 403.977 343.54 403.977 345.101V345.524C403.979 347.088 405.137 348.352 406.567 348.352Z" fill="#01BA57"/>
<path d="M574.192 362.589L554.998 363.273L574.192 363.684V362.589Z" fill="#F4D2B8"/>
<path d="M574.191 353.24L528.528 353.922L574.191 354.333V353.24Z" fill="#F4D2B8"/>
<path d="M529 353.787C529 353.787 530.956 355.533 531.605 358.402C531.72 358.903 531.792 359.44 531.807 360.006C531.916 363.817 531.807 372.446 531.807 372.446L537.584 368.133L543.346 372.446V360.752C543.346 358.542 542.852 356.389 541.933 354.982C541.489 354.3 540.95 353.787 540.338 353.787H529Z" fill="#699DEE"/>
<path d="M529 353.787C529 353.787 530.956 355.533 531.605 358.402L543.183 358.573C543.183 358.573 542.728 354.464 540.34 353.787H529Z" fill="#568CDB"/>
<path d="M423.944 290.266H302.283V230.579H424.388C435.184 230.579 443.937 240.134 443.937 251.921V268.444C443.937 280.495 434.986 290.266 423.944 290.266Z" fill="#FCECDB"/>
<path d="M444.006 253.738V266.584C443.976 272.071 441.647 276.831 438.225 279.376C436.54 280.624 434.592 281.339 432.524 281.339H298.556C296.987 281.339 295.713 282.998 295.713 285.046V286.563C295.713 288.609 296.987 290.27 298.556 290.27H529.984C536.625 290.27 542.494 285.966 546.037 279.379C548.273 275.227 549.586 270.173 549.586 264.714V254.579C549.586 250.839 548.93 247.298 547.757 244.144C544.782 236.119 538.478 230.585 531.181 230.585H298.556C296.987 230.585 295.713 232.241 295.713 234.287V235.803C295.713 237.849 296.987 239.51 298.556 239.51H432.931C436.142 239.51 439.05 241.293 441.081 244.144C442.877 246.668 443.987 250.031 444.006 253.738Z" fill="#AFCDFB"/>
<path d="M295.713 285.045V286.561C295.713 288.608 296.987 290.269 298.556 290.269H529.984C536.625 290.269 542.494 285.965 546.038 279.378H438.225C436.54 280.625 434.592 281.341 432.524 281.341H298.556C296.987 281.338 295.713 282.997 295.713 285.045Z" fill="#A4C4F4"/>
<path d="M302.283 260.421L319.457 261.424L302.283 262.03V260.421Z" fill="#F4D2B8"/>
<path d="M302.283 246.686L343.142 247.689L302.283 248.292V246.686Z" fill="#F4D2B8"/>
<path d="M342.718 247.489C342.718 247.489 340.021 249.381 339.129 252.494C338.972 253.038 338.87 253.62 338.848 254.233C338.7 258.366 338.848 267.722 338.848 267.722L330.888 263.045L322.947 267.722V255.044C322.947 252.646 323.629 250.315 324.893 248.787C325.507 248.047 326.252 247.489 327.092 247.489H342.718Z" fill="#F99746"/>
<path d="M342.719 247.489C342.719 247.489 340.022 249.381 339.129 252.494L323.176 252.679C323.176 252.679 323.803 248.223 327.094 247.489H342.719Z" fill="#ED7D2B"/>
<path d="M139.36 284.986C139.36 284.986 164.299 296.849 168.824 296.632C173.352 296.416 201.244 287.357 201.244 287.357L200.534 292.595C200.534 292.595 179.009 306.112 171.482 306.877C164.072 307.633 138.738 299.617 136.291 297.925C133.844 296.233 132.251 286.699 139.36 284.986Z" fill="#ED985F"/>
<path d="M135.611 241.351C135.611 241.351 126.41 239.443 121.83 243.095C113.531 249.713 113.084 272.526 109.974 275.925C106.863 279.323 99.3646 277.873 98.6964 295.458C98.0281 313.044 101.681 314.512 97.3316 322.361C92.9803 330.211 99.1731 338.067 99.1731 338.067C99.1731 338.067 96.6372 333.735 97.7234 330.605C97.7234 330.605 98.7791 337.508 102.795 339.127C106.811 340.745 107.405 341.931 108.048 344.305C108.048 344.305 142.316 325.135 142.353 311.539C142.39 297.942 149.096 284.475 145.803 278.581C145.803 278.581 147.27 281.103 147.448 283.907C147.448 283.907 149.425 279.774 145.999 275.927C142.575 272.08 150.017 264.116 148.913 254.896C148.158 248.561 144.09 241.626 135.611 241.351Z" fill="#233862"/>
<path d="M142.39 297.942C140.2 299.6 137.453 300.969 134.005 301.837C121.082 305.097 116.13 293.172 114.269 284.986C116.032 283.885 117.689 283.643 118.646 283.517C119.58 283.396 120.562 283.318 121.376 283.272C122.828 282.058 124.989 277.094 125.468 269.382L126.076 269.561L136.26 272.605C136.26 272.605 135.795 276.138 135.566 279.48C135.39 282.094 135.361 284.591 135.814 285.204C136.609 285.392 137.085 285.516 137.085 285.516C137.085 285.516 137.085 285.52 137.09 285.525C137.231 285.77 140.185 291.074 142.39 297.942Z" fill="#FFB27D"/>
<path d="M136.263 272.607C136.263 272.607 135.795 276.138 135.569 279.482C129.798 278.852 127.121 272.854 126.078 269.563L136.263 272.607Z" fill="#ED985F"/>
<path d="M137.987 275.925C137.987 275.925 124.291 275.1 124.892 265.797C125.495 256.493 124.133 250.12 132.903 250.255C141.673 250.388 143.14 254.069 143.632 257.227C144.121 260.386 141.566 275.899 137.987 275.925Z" fill="#FFB27D"/>
<path d="M143.563 252.021C141.632 249.057 139.993 249.547 139.044 250.317C131.861 245.243 126.608 251.5 126.608 251.5C125.255 258.104 120.594 261.583 120.594 261.583C120.594 261.583 122.978 263.461 128.831 262.296C130.62 261.94 132.277 260.702 133.718 259.152C131.112 263.228 127.745 266.046 127.745 266.046C134.839 263.118 138.28 252.909 138.628 251.828C139.41 252.712 140.94 254.62 141.325 256.403C141.852 258.824 144.122 262.612 145.435 262.548C145.433 262.55 146.458 256.467 143.563 252.021Z" fill="#233862"/>
<path d="M110.367 328.34C109.131 321.437 105.097 293.859 109.131 284.986C110.578 281.797 116.262 281.509 122.498 281.79C124.437 283.156 131.832 288.325 134.868 287.681C134.901 287.673 134.96 287.659 135.038 287.638C136.468 287.248 137.008 286.15 135.815 285.204C135.813 285.202 138.904 284.879 142.739 285.668C144.905 286.112 150.747 289.413 150.747 289.413C150.747 289.413 147.804 295.216 143.466 297.219C144.204 304.425 143.107 307.602 136.261 324.243C130.476 338.309 137.043 350.973 137.043 350.973C137.043 350.973 102.986 380.865 102.797 365.645C102.653 354.188 111.947 337.164 110.367 328.34Z" fill="#F9DDBF"/>
<path d="M138.731 383.477C140.583 383.249 142.251 382.141 143.287 380.449C143.45 380.181 143.626 379.893 143.814 379.584C147.69 373.178 149.199 353.558 157.919 332.656C160.043 327.568 167.666 326.653 169.745 320.9C169.745 320.9 174.862 302.255 159.952 301.703C145.041 301.155 120.02 353.582 119.626 359.081C119.241 364.409 109.768 387.046 138.731 383.477Z" fill="#0CAD57"/>
<path d="M197.991 383.049H176.771C176.771 383.049 175.976 379.354 177.371 376.84C178.606 374.616 178.131 373.347 177.219 371.507C178.181 371.937 179.424 372.327 180.793 372.242C181.851 372.175 182.968 371.652 183.949 371.03C184.864 372.166 188.773 377.006 189.996 377.964C191.381 379.052 197.565 378.665 197.991 383.049Z" fill="#233862"/>
<path d="M170.227 307.093C171.505 317.552 176.496 350.562 185.298 366.667C188.137 371.859 178.148 374.77 178.093 374.754C176.755 374.371 174.521 372.04 173.494 371.027C166.348 363.996 151.84 344.086 151.84 328.124C151.84 320.342 151.714 305.477 156.899 301.699C160.092 299.372 169.72 302.939 170.227 307.093Z" fill="#0CAD57"/>
<path d="M126.077 383.049C126.077 383.049 126.863 381.854 128.234 379.585C129.867 376.885 131.671 371.576 133.863 364.768C136.166 357.622 138.896 348.83 142.309 339.681C143.362 336.857 144.481 333.999 145.67 331.145C147.794 326.057 153.636 326.76 155.715 321.007C155.715 321.007 163.826 301.064 148.917 300.516C134.007 299.967 105.675 353.863 104.046 359.084C102.264 364.797 93.5678 388.525 126.077 383.049Z" fill="#01BA57"/>
<path d="M182.414 383.049H161.193C161.193 383.049 160.401 379.354 161.794 376.84C163.028 374.616 162.554 373.347 161.642 371.507C162.604 371.937 163.847 372.327 165.216 372.242C166.274 372.175 167.39 371.652 168.372 371.03C169.286 372.166 173.196 377.006 174.419 377.964C175.803 379.052 181.987 378.665 182.414 383.049Z" fill="#2B478B"/>
<path d="M133.864 364.768C136.167 357.622 138.896 348.83 142.309 339.681C141.419 332.749 139.495 326.687 136.262 324.241C136.262 324.244 128.42 350.766 133.864 364.768Z" fill="#0CAD57"/>
<path d="M157.84 306.352C159.118 316.81 160.918 350.562 169.721 366.667C172.559 371.859 162.57 374.77 162.516 374.753C161.177 374.371 158.944 372.04 157.917 371.027C150.77 363.996 136.263 344.086 136.263 328.124C136.263 320.342 144.63 306.1 149.813 302.321C153.006 299.997 157.333 302.198 157.84 306.352Z" fill="#01BA57"/>
<path d="M140.551 270.573C140.551 270.573 139.256 270.015 135.612 270.335C135.612 270.335 135.806 271.887 138.492 272.042C140.015 272.13 140.551 270.573 140.551 270.573Z" fill="white"/>
<path d="M203.907 276.398L199.508 267.731L189.989 296.725L195.605 303.308L203.907 276.398Z" fill="#163560"/>
<path d="M180.933 281.474L172.087 309.066L195.604 303.308L203.906 276.398L180.933 281.474Z" fill="#1C468A"/>
<path d="M172.555 307.676L172.144 306.889L180.515 280.775L180.933 281.474L172.555 307.676Z" fill="#EFDECE"/>
<path d="M180.516 280.775L202.812 276.039L203.907 276.398L180.934 281.474L180.516 280.775Z" fill="#FCECDB"/>
<path d="M203.906 276.398L199.147 268.154L196.115 277.46L202.811 276.039L203.906 276.398Z" fill="#EFDECE"/>
<path d="M187.723 285.468C186.959 285.307 185.318 284.632 183.657 284.133C184.154 283.712 184.704 283.196 184.859 282.667C185.155 281.645 185.353 281.317 184.365 281.64C183.376 281.963 179.92 283.695 179.92 283.695C179.92 283.695 179.926 283.7 179.929 283.7C177.965 284.328 176.154 287.357 176.154 287.357C176.154 287.357 151.84 296.69 148.915 296.849C144.389 297.096 114.268 284.986 114.268 284.986C107.159 286.699 108.754 296.233 111.201 297.925C113.648 299.617 135.321 308.224 148.166 308.386C154.672 308.469 178.337 291.863 178.337 291.863C178.337 291.863 181.104 290.482 183.276 290.915C185.449 291.347 190.488 290.915 191.574 288.973C192.662 287.032 189.008 285.739 187.723 285.468Z" fill="#FFB27D"/>
<path d="M129.788 290.958C129.788 290.958 127.094 300.268 117.843 302.386C117.843 302.386 102.564 297.248 110.172 285.884C110.17 285.884 117.692 279.784 129.788 290.958Z" fill="#F9DDBF"/>
<path d="M203.51 286.169C203.514 285.913 203.49 285.658 203.427 285.414C203.427 285.414 201.248 281.649 200.534 281.497C198.36 281.029 198.36 284.154 198.821 286.169C199.143 287.574 199.96 288.921 200.621 289.648L200.534 292.593C204.207 290.392 203.51 286.169 203.51 286.169Z" fill="#FFB27D"/>
<path d="M75.8604 237.026C76.7289 213.559 58.7123 203.131 40.2907 203.131C21.8692 203.131 1.82169 208.343 0.0846744 239.547C-1.03198 259.623 8.76976 271.975 36.9952 271.975C46.514 271.975 53.9126 270.335 59.5808 267.412L73.6902 281.1L66.7574 262.18C72.8979 255.946 75.4838 247.154 75.8604 237.026Z" fill="#EBF3FA"/>
<path d="M26.2933 229.18V234.662H29.5779V229.18H30.9166V241.965H29.5779V235.988H26.2933V241.965H24.9546V229.18H26.2933Z" fill="#91B5F8"/>
<path d="M33.7654 237.508C33.7654 240.336 34.7906 240.923 35.7462 240.923C36.3361 240.923 36.8062 240.771 37.1371 240.581L37.3635 241.643C36.8933 241.909 36.1815 242.08 35.5046 242.08C33.4889 242.08 32.4463 240.279 32.4463 237.47C32.4463 234.511 33.6108 232.651 35.2956 232.651C36.9978 232.651 37.6943 234.623 37.6943 236.672C37.6943 237.033 37.6769 237.278 37.6595 237.506H33.7654V237.508ZM36.4057 236.427C36.4231 234.607 35.7984 233.789 35.1541 233.789C34.2682 233.789 33.8329 235.174 33.7806 236.427H36.4057Z" fill="#91B5F8"/>
<path d="M39.1367 228.839H40.4754V241.966H39.1367V228.839Z" fill="#91B5F8"/>
<path d="M42.4541 228.839H43.7928V241.966H42.4541V228.839Z" fill="#91B5F8"/>
<path d="M50.9327 237.375C50.9327 240.923 49.4373 242.118 48.1356 242.118C46.6228 242.118 45.4082 240.619 45.4082 237.394C45.4082 234.055 46.7817 232.651 48.2227 232.651C49.7333 232.651 50.9327 234.188 50.9327 237.375ZM46.7447 237.375C46.7447 238.894 46.9885 240.961 48.2053 240.961C49.3524 240.961 49.5962 238.818 49.5962 237.375C49.5962 235.971 49.3524 233.808 48.1704 233.808C46.9711 233.808 46.7447 235.971 46.7447 237.375Z" fill="#91B5F8"/>
<path d="M444.866 166.597C445.66 145.143 429.189 135.611 412.348 135.611C395.507 135.611 377.179 140.376 375.59 168.902C374.569 187.255 383.53 198.547 409.335 198.547C418.038 198.547 424.803 197.048 429.983 194.377L442.883 206.891L436.542 189.596C442.156 183.895 444.522 175.855 444.866 166.597Z" fill="#91B5F8"/>
<path d="M439.623 279.793C443.619 287.512 448.689 290.52 448.689 290.52L469.859 290.684C469.859 290.682 436.573 273.905 439.623 279.793Z" fill="#233862"/>
<path d="M455.497 339.402C456.043 340.096 456.109 340.869 455.832 341.691C455.832 341.693 455.83 341.7 455.826 341.703C455.31 343.221 453.632 344.911 451.683 346.593C451.435 346.81 451.213 347.007 451.019 347.19C450.969 347.237 450.917 347.285 450.871 347.335C450.832 347.373 450.795 347.411 450.756 347.446C448.936 349.25 449.615 349.673 446.344 353.337C442.615 357.513 440.066 357.57 439.344 357.18C438.732 356.85 439.992 354.628 441.39 352.133C441.457 352.011 441.525 351.89 441.592 351.769C441.777 351.436 441.962 351.101 442.147 350.766C443.784 347.762 443.379 346.344 443.024 341.85C442.737 338.2 437.957 321.428 437.957 321.428L445.06 320.149C445.06 320.149 447.11 333.49 449.45 335.56C450.702 336.662 452.11 336.689 453.316 337.508C453.401 337.566 453.486 337.625 453.566 337.684C454.252 338.188 454.948 338.706 455.497 339.402Z" fill="#FFB27D"/>
<path d="M455.498 339.402C456.045 340.096 456.11 340.869 455.833 341.691C455.833 341.693 455.831 341.7 455.827 341.703C455.198 343.219 453.561 344.899 451.678 346.579C451.432 346.8 451.215 347.002 451.021 347.19C450.971 347.237 450.919 347.285 450.873 347.335C450.834 347.373 450.797 347.411 450.757 347.446C448.938 349.25 449.617 349.673 446.345 353.337C442.617 357.513 440.068 357.57 439.345 357.18C438.733 356.85 439.994 354.628 441.391 352.133C442.114 351.85 445.47 350.391 448.024 346.876C450.272 343.787 451.785 339.809 453.317 337.511C453.402 337.568 453.487 337.627 453.568 337.687C454.253 338.188 454.95 338.706 455.498 339.402Z" fill="#233862"/>
<path d="M398.329 334.124C397.876 336.513 394.757 336.09 391.276 335.132C387.796 334.174 388.616 335.287 383.658 334.65C378.699 334.013 377.208 331.981 377.062 331.173C376.932 330.458 379.385 330.225 382.019 329.914C382.349 329.875 382.682 329.833 383.015 329.792C385.989 329.407 388.176 327.333 390.884 325.636C393.451 324.027 397.306 317.426 397.306 317.426L404.108 318.067C404.108 318.067 400.497 323.963 399.099 326.527C398.276 328.036 398.307 330.039 398.398 331.586C398.444 332.425 398.49 333.283 398.329 334.124Z" fill="#FFB27D"/>
<path d="M391.276 335.132C387.795 334.174 388.616 335.287 383.658 334.65C378.699 334.013 377.208 331.981 377.062 331.173C376.932 330.458 379.385 330.225 382.019 329.914L382.042 329.968C382.042 329.968 385.005 332.295 389.134 332.435C392.502 332.551 396.074 331.525 398.398 331.584C398.446 332.425 398.49 333.286 398.329 334.124C397.876 336.513 394.757 336.09 391.276 335.132Z" fill="#233862"/>
<path d="M424.719 286.813L430.962 305.553L439.111 330.023C439.111 330.023 441.364 330.277 443.528 329.617C445.519 329.006 447.812 327.38 447.812 327.38C447.812 327.38 445.674 301.157 441.469 286.081C440.391 282.213 439.174 279.078 437.823 277.31C431.205 268.655 424.719 286.813 424.719 286.813Z" fill="#233862"/>
<path d="M431.381 257.177C435.558 255.742 447.436 257.717 459.362 260.362L461.892 255.878L487.701 253.877C487.701 253.877 496.079 274.551 491.336 287.647C490.639 289.572 488.937 290.373 486.617 290.397C486.615 290.399 486.615 290.399 486.615 290.402C486.615 290.402 471.219 290.694 466.234 290.656C453.405 290.556 439.147 280.82 437.297 280.399C434.269 279.715 433.013 286.326 429.935 293.253C426.858 300.183 401.231 323.821 401.231 323.821C401.231 323.821 397.315 323.832 395.702 323.158C393.967 322.433 393.338 321.504 393.338 321.504C393.338 321.504 421.96 260.416 431.381 257.177Z" fill="#2B478B"/>
<path d="M462.294 217.097C471.445 222.689 490.005 234.281 490.103 234.207C490.103 234.207 496.934 237.078 500.839 234.291C507.345 229.645 510.9 217.033 499.126 206.066C493.253 200.596 489.065 199.244 488.484 190.579C488.168 185.879 482.385 170.326 472.6 171.685C471.782 171.799 470.959 171.877 470.136 171.842C468.996 171.792 467.109 171.961 465.167 173.201C459.61 176.754 448.537 214.852 462.294 217.097Z" fill="#233862"/>
<path d="M470.023 212.456C469.981 212.485 474.531 214.22 477.589 212.768C480.466 211.406 482.674 206.271 482.63 206.268C481.326 206.192 479.9 204.935 478.851 196.756L478.294 196.97L468.928 200.567C468.928 200.567 469.583 203.844 470.001 206.965C470.353 209.581 470.534 212.091 470.023 212.456Z" fill="#FFB27D"/>
<path d="M468.928 200.565C468.928 200.565 469.326 202.863 469.881 206.145C475.253 205.132 477.517 200.128 478.294 196.967L468.928 200.565Z" fill="#ED975D"/>
<path d="M467.516 203.804C467.516 203.804 480.31 202.029 479.174 193.348C478.04 184.667 478.926 178.591 470.709 179.356C462.492 180.121 461.343 183.681 461.075 186.68C460.809 189.676 464.159 204.041 467.516 203.804Z" fill="#FFB27D"/>
<path d="M461.574 181.929C461.574 181.929 469.706 189.691 475.267 190.354C480.829 191.017 482.949 189.082 482.949 189.082C482.949 189.082 479.688 186.083 477.745 181.269C477.172 179.85 475.949 178.869 474.534 178.726C470.564 178.322 463.03 178.091 461.574 181.929Z" fill="#233862"/>
<path d="M466.693 181.278C466.693 181.278 463.938 184.147 463.06 186.283C462.216 188.346 461.933 193.289 462.584 195.259C462.584 195.259 458.376 186.171 460.821 181.792C463.411 177.148 466.693 181.278 466.693 181.278Z" fill="#233862"/>
<path d="M459.127 232.929C459.331 261.179 459.087 255.274 461.902 257.978C462.579 258.629 464.494 259.029 467.017 259.231C474.947 259.868 488.904 258.546 489.444 256.949C491.309 251.424 490.029 249.694 491.61 241.227C491.775 240.327 491.978 239.352 492.217 238.29C493.527 232.475 494.779 230.505 490.323 221.111C486.281 212.604 482.071 205.693 481.688 205.938C470.837 212.858 470.004 206.965 470.004 206.965C470.004 206.965 459.027 219.148 459.127 232.929Z" fill="#F9DDBF"/>
<path d="M430.961 305.553L439.111 330.023C439.111 330.023 441.364 330.277 443.528 329.617C445.519 329.006 447.811 327.38 447.811 327.38C447.811 327.38 445.674 301.157 441.468 286.081L430.961 305.553Z" fill="#2B478B"/>
<path d="M470.002 206.962C470.002 206.962 458.87 208.935 457.53 214.151C456.191 219.367 448.309 250.034 448.309 250.034C448.309 250.034 453.955 251.187 456.585 248.356C459.214 245.526 465.842 221.979 465.842 221.979L470.002 206.962Z" fill="#F9DDBF"/>
<path d="M467.018 259.228C474.947 259.865 488.904 258.544 489.444 256.947C491.31 251.422 490.03 249.692 491.61 241.225L487.859 229.431C487.859 229.431 488.408 242.537 484.847 245.954C481.29 249.371 470.315 252.494 468.576 255.359C467.738 256.735 467.183 258.118 467.018 259.228Z" fill="#F2CCAA"/>
<path d="M476.142 253.789C476.142 253.789 468.328 251.826 467.059 252.574C465.792 253.323 462.686 256.061 462.294 257.018C461.902 257.976 465.11 256.31 466.153 256.013C466.828 255.821 468.598 256.507 469.473 256.833C473.158 258.206 475.426 257.532 475.426 257.532L476.142 253.789Z" fill="#FFB27D"/>
<path d="M481.694 205.931C481.694 205.931 492.199 206.72 495.802 212.288C500.874 220.125 510.819 253.439 504.966 257.829C498.377 262.769 475.112 258.905 475.112 258.905C475.112 258.905 474.363 254.944 475.454 253.04C476.544 251.137 494.087 248.181 494.901 247.304C495.715 246.427 484.903 230.011 484.92 227.361C484.938 224.711 481.694 205.931 481.694 205.931Z" fill="#F9DDBF"/>
<path d="M466.664 254.951C466.664 254.951 465.009 257.249 464.47 257.52C463.93 257.791 463.583 257.719 463.583 257.719L464.702 255.557L466.664 254.951Z" fill="#FFB27D"/>
<path d="M467.058 252.574L462.274 255.065C462.274 255.065 462.474 255.428 463.062 255.405C463.65 255.381 465.134 254.801 465.134 254.801L467.058 252.574Z" fill="#FFB27D"/>
<path d="M465.492 261.246L427.771 260.956L416.625 230.065L454.286 230.355L465.492 261.246Z" fill="#01BA57"/>
<path d="M427.339 259.753L477.147 260.136L477.14 261.336L427.773 260.956L427.339 259.753Z" fill="#01BA57"/>
<path d="M437.393 245.628C437.116 244.542 437.695 243.67 438.686 243.677C439.678 243.684 440.706 244.571 440.984 245.657C441.261 246.743 440.682 247.615 439.691 247.608C438.701 247.598 437.671 246.712 437.393 245.628Z" fill="white"/>
<path d="M236.263 358.449L236.258 383.322L350.862 383.347L350.867 358.474L236.263 358.449Z" fill="#C65447"/>
<path d="M236.259 383.327L219.416 375.462L209.618 370.887L219.646 366.208L236.265 358.454C236.265 358.454 238.484 364.511 238.516 370.205C238.566 379.143 236.259 383.327 236.259 383.327Z" fill="#FCECDB"/>
<path d="M364.188 366.728L364.186 374.591C364.186 379.427 360.592 383.348 356.163 383.348H350.862L350.867 358.475H356.633C360.806 358.477 364.188 362.172 364.188 366.728Z" fill="#FCECDB"/>
<path d="M219.646 366.203C220.064 368.717 220.426 372.567 219.416 375.457L209.618 370.882L219.646 366.203Z" fill="#2B478B"/>
<path d="M260.897 228.949C260.897 228.949 262.95 238.673 268.934 238.673C274.062 238.673 281.1 226.016 281.1 226.016L260.897 228.949Z" fill="#F99746"/>
<path d="M329.597 372.574L325.753 375.459C325.753 375.459 307.264 353.944 302.799 333.321C302.003 329.638 301.681 326.007 302.022 322.561C302.022 322.561 301.752 321.627 301.28 319.976C301.258 319.904 301.239 319.828 301.217 319.755C301.01 319.03 300.762 318.177 300.488 317.212C299.591 314.096 298.359 309.831 296.957 304.976C293.725 293.802 286.335 268.603 283.176 258.123L305.875 249.157C305.875 249.157 308.452 255.576 312.157 273.021C312.727 275.297 313.3 277.816 313.833 280.559C314.438 283.667 315.004 287.063 315.474 290.734C316.271 296.953 316.802 303.949 316.835 311.623C316.848 314.745 316.778 317.982 316.608 321.321C316.484 323.771 316.817 327.033 317.442 330.745C320.302 347.722 329.597 372.574 329.597 372.574Z" fill="#2B478B"/>
<path d="M341.688 382.942H323.336C323.336 382.942 322.65 379.746 323.854 377.572C324.921 375.647 324.511 374.551 323.721 372.959C324.553 373.33 325.628 373.67 326.812 373.594C327.726 373.537 328.693 373.083 329.542 372.546C330.332 373.53 333.715 377.714 334.77 378.541C335.972 379.487 341.32 379.152 341.688 382.942Z" fill="#233862"/>
<path d="M315.474 290.737L301.217 319.755C301.01 319.03 300.762 318.177 300.488 317.212C299.591 314.097 298.359 309.831 296.957 304.976C293.725 293.802 286.335 268.603 283.176 258.123L305.875 249.157C305.875 249.157 308.452 255.576 312.157 273.021C312.727 275.297 313.3 277.816 313.833 280.559C314.438 283.669 315.004 287.068 315.474 290.737Z" fill="#233862"/>
<path d="M282.806 376.671C282.806 376.671 281.535 380.074 282.732 382.942H292.715C292.715 382.942 292.922 380.354 289.299 377.355C286.555 375.084 282.806 376.671 282.806 376.671Z" fill="#233862"/>
<path d="M293.668 155.152C293.674 154.611 293.929 148.76 302.07 148.242C302.07 148.242 298.075 148.869 297.425 150.811C297.425 150.811 300.1 148.363 302.34 149.069C304.577 149.775 305.977 153.99 306.021 155.388C306.064 156.785 304.93 161.324 303.528 161.742C302.997 161.901 302.381 161.878 301.822 161.79C302.211 162.419 302.594 163.116 302.962 163.893C306.373 171.093 303.43 179.575 300.661 178.859C298.885 178.401 297.806 181.761 297.806 181.761L280.723 165.723C280.723 165.725 286.706 151.329 293.668 155.152Z" fill="#2C3A64"/>
<path d="M282.93 203.885C284.824 205.32 287.199 206.501 290.181 207.252C301.356 210.071 305.64 199.759 307.248 192.68C305.725 191.727 304.29 191.518 303.463 191.411C302.656 191.307 301.807 191.238 301.101 191.2C299.845 190.149 297.976 185.855 297.564 179.187L297.037 179.342L288.23 181.972C288.23 181.972 288.633 185.028 288.831 187.918C288.984 190.178 289.008 192.34 288.616 192.868C287.928 193.03 287.517 193.136 287.517 193.136C287.517 193.136 287.517 193.139 287.512 193.146C287.392 193.36 284.837 197.949 282.93 203.885Z" fill="#FFB27D"/>
<path d="M288.229 181.977C288.229 181.977 288.634 185.031 288.83 187.923C293.819 187.379 296.135 182.191 297.036 179.346L288.229 181.977Z" fill="#ED985F"/>
<path d="M288.126 186.566C288.126 186.566 299.615 183.343 297.667 175.563C295.719 167.783 295.888 162.127 288.47 163.857C281.052 165.585 280.377 168.978 280.449 171.747C280.521 174.515 285.088 187.203 288.126 186.566Z" fill="#FFB27D"/>
<path d="M279.701 167.32C280.881 164.449 282.346 164.563 283.271 165.043C288.578 159.416 294.002 163.757 294.002 163.757C296.17 169.109 300.661 171.2 300.661 171.2C300.661 171.2 298.931 173.232 293.785 173.322C292.213 173.351 290.616 172.605 289.155 171.557C291.996 174.532 295.287 176.302 295.287 176.302C288.818 175.126 284.32 167.101 283.859 166.248C283.332 167.141 282.331 169.04 282.279 170.625C282.207 172.776 282.975 176.93 281.852 177.117C281.852 177.117 277.932 171.623 279.701 167.32Z" fill="#2C3A64"/>
<path d="M284.822 192.492C284.822 192.492 304.116 187.378 312.505 194.933L308.313 258.77L270.577 248.817C270.577 248.817 271.639 244.777 278.875 234.036C286.112 223.295 282.965 207.54 284.822 192.492Z" fill="#FFB27D"/>
<path d="M296.069 251.664C296.069 251.664 296.047 251.881 296.008 252.294C295.991 252.472 295.969 252.686 295.945 252.936C295.782 254.59 295.475 257.764 295.079 261.892C294.043 272.719 292.419 290.107 291.311 303.833C290.445 314.565 289.894 323.058 290.192 324.422C291.087 328.526 290.192 377.584 290.192 377.584C286.986 379.264 282.123 377.584 282.123 377.584C282.123 377.584 273.579 333.374 274.777 327.231C275.972 321.085 273.978 315.841 273.978 315.841C267.345 282.118 268.07 263.425 269.389 254.478C269.772 251.876 270.206 250.098 270.523 249.015C270.791 248.093 270.978 247.672 270.978 247.672C285.606 243.373 296.069 251.664 296.069 251.664Z" fill="#2B478B"/>
<path d="M315.107 213.141C314.175 220.821 310.448 230.217 309.118 235.277C309.118 235.277 311.343 252.838 309.219 257.662C308.977 258.213 308.679 258.596 308.313 258.769C300.444 262.512 269.803 258.879 268.51 248.085C268.039 244.164 280.181 230.372 280.889 228.699C281.182 228.007 281.496 225.762 280.072 221.113C278.055 227.905 266.918 225.952 266.918 225.952C268.224 223.509 271.483 206.618 275.118 198.992C277.852 193.26 285.151 192.428 285.151 192.428C285.151 192.428 288.189 197.69 295.536 196.943C302.882 196.197 304.227 191.288 304.227 191.288C304.227 191.288 310.744 192.233 312.751 194.001C313.097 194.308 316.33 203.079 315.107 213.141Z" fill="#01BA57"/>
<path d="M309.118 235.277C309.118 235.277 311.343 252.838 309.218 257.662C303.485 254.521 298.968 246.023 300.011 236.558C300.781 229.559 301.928 227.965 305.357 223.96C307.878 221.018 313.702 220.852 313.245 222.252C311.887 226.418 309.821 232.606 309.118 235.277Z" fill="#0CAD57"/>
<path d="M285.189 214.51L298.328 237.52H275.971L263.453 215.006L285.189 214.51Z" fill="#1C468A"/>
<path d="M297.645 236.365L297.871 235.562L285.438 213.785L285.19 214.51L297.645 236.365Z" fill="#EFDECE"/>
<path d="M285.438 213.785L264.378 214.438L263.453 215.006L285.189 214.51L285.438 213.785Z" fill="#FCECDB"/>
<path d="M263.453 215.006L251.64 208.024L265.412 231.636L275.971 237.52L263.453 215.006Z" fill="#163560"/>
<path d="M325.975 231.132C324.71 231.765 321.46 235.94 320.302 236.365C315.089 238.269 292.904 233.202 292.904 233.202L293.592 228.96C293.592 228.96 315.367 229.593 317.76 228.892C318.21 228.758 320.563 224.74 321.469 224.165L325.975 231.132Z" fill="#FFB27D"/>
<path d="M293.591 228.958C293.591 228.958 290.966 226.624 289.192 227.152C287.418 227.68 284.806 230.13 283.837 230.709C282.868 231.289 280.235 233.364 281.569 234.619C282.903 235.873 287.061 234.797 288.706 233.834C290.352 232.872 292.905 233.2 292.905 233.2L293.591 228.958Z" fill="#FFB27D"/>
<path d="M289.693 227.078C289.693 227.078 286.502 226.662 285.629 226.681C284.758 226.7 284.993 226.91 285.475 227.649C285.956 228.388 287.616 228.668 287.693 228.927C287.769 229.186 289.693 227.078 289.693 227.078Z" fill="#FFB27D"/>
<path d="M304.225 191.288C304.225 191.288 313.689 192.514 316.294 196.943C319.59 202.544 327.365 224.856 327.115 230.479C327.115 230.479 321.429 241.042 301.937 239.35C301.937 239.35 299.908 231.529 304.009 228.946C304.009 228.946 314.022 227.002 315.176 225.892L307.013 209.695L304.225 191.288Z" fill="#01BA57"/>
<path d="M266.481 223.419C266.187 222.116 263.588 222.929 262.711 223.68C262.497 223.863 262.269 224.172 262.045 224.535C262.016 224.317 261.994 224.11 261.981 223.946C261.931 223.335 261.281 222.24 261.117 223.06C260.956 223.88 260.688 227.325 260.688 227.325C260.656 230.101 262.291 231.246 263.34 230.343C264.391 229.438 266.775 224.721 266.481 223.419Z" fill="#FFB27D"/>
<path d="M400.048 160.038V165.52H403.332V160.038H404.671V172.823H403.332V166.846H400.048V172.823H398.709V160.038H400.048Z" fill="white"/>
<path d="M407.52 168.366C407.52 171.194 408.545 171.781 409.501 171.781C410.091 171.781 410.561 171.629 410.892 171.439L411.118 172.501C410.648 172.767 409.936 172.938 409.259 172.938C407.243 172.938 406.201 171.137 406.201 168.328C406.201 165.369 407.365 163.509 409.05 163.509C410.752 163.509 411.449 165.481 411.449 167.53C411.449 167.891 411.431 168.136 411.414 168.364H407.52V168.366ZM410.16 167.285C410.178 165.465 409.553 164.647 408.909 164.647C408.023 164.647 407.587 166.032 407.535 167.285H410.16Z" fill="white"/>
<path d="M412.891 159.697H414.23V172.824H412.891V159.697Z" fill="white"/>
<path d="M416.208 159.697H417.547V172.824H416.208V159.697Z" fill="white"/>
<path d="M424.687 168.233C424.687 171.781 423.192 172.976 421.89 172.976C420.377 172.976 419.163 171.477 419.163 168.252C419.163 164.913 420.536 163.509 421.977 163.509C423.488 163.509 424.687 165.046 424.687 168.233ZM420.499 168.233C420.499 169.752 420.743 171.819 421.96 171.819C423.107 171.819 423.351 169.676 423.351 168.233C423.351 166.829 423.107 164.666 421.925 164.666C420.725 164.666 420.499 166.829 420.499 168.233Z" fill="white"/>
</svg>
