<svg width="697" height="554" viewBox="0 0 697 554" fill="none" xmlns="http://www.w3.org/2000/svg">
<g clip-path="url(#clip0)">
<path d="M483.776 277.933C486.324 287.496 482.979 298.335 475.495 304.87C470.718 309.173 464.348 311.724 459.889 316.346C454.157 322.403 452.564 331.807 455.112 339.777C457.66 347.746 463.871 354.281 471.355 357.788C481.546 362.729 494.286 362.251 504.159 356.672C516.42 349.659 523.586 335.792 525.497 321.765C527.249 307.739 524.382 293.553 520.72 279.845" fill="#263238"/>
<path d="M639.037 525.628C651.776 523.556 663.719 527.381 676.299 530.25C679.643 531.047 683.306 531.685 686.65 530.729C692.064 529.294 696.045 524.034 696.841 518.455C697.638 513.674 696.364 508.573 693.656 504.429C692.542 502.676 691.109 501.082 689.357 500.125C687.446 499.01 685.376 498.691 683.306 498.531C675.662 497.735 667.859 499.488 660.853 502.835C653.846 506.182 647.636 510.964 642.221 516.383C639.355 518.934 640.151 521.962 639.037 525.628Z" fill="#263238"/>
<path d="M380.747 319.693C378.677 307.58 378.995 295.147 381.543 283.033C382.817 277.136 384.569 271.398 387.913 266.297C389.027 264.544 390.62 262.79 392.531 261.834C395.238 260.718 398.582 261.675 400.811 263.747C403.678 266.456 404.792 270.601 404.792 274.426C404.633 278.411 403.359 282.077 401.926 285.743C396.83 298.813 389.187 309.174 380.747 319.693Z" fill="#263238"/>
<path d="M627.571 365.917C630.437 367.989 694.611 506.023 694.611 506.023C689.516 503.791 683.783 503.313 678.369 504.429L674.865 505.385C668.655 506.979 662.763 509.689 657.349 513.355L639.036 525.788C637.603 524.991 636.648 523.397 636.488 521.803V521.325L586.805 436.05L627.571 365.917Z" fill="#FF609B"/>
<path d="M387.275 146.115L404.314 243.185C409.888 256.255 473.903 335.473 473.903 335.473L452.724 403.534L368.644 288.293C360.841 280.005 356.542 268.847 356.86 257.371L360.204 153.607L387.275 146.115Z" fill="#FFBE9D"/>
<path d="M478.044 320.331L521.994 323.678L560.371 329.576C560.371 329.576 627.571 347.268 627.571 354.6C627.571 356.991 609.258 415.488 598.908 450.554C594.449 465.697 592.697 476.376 592.697 476.376L627.412 553.681H462.279V482.752C462.279 482.752 451.132 389.826 453.043 377.074C454.953 364.323 478.044 320.331 478.044 320.331Z" fill="#FF609B"/>
<path d="M366.415 106.905C366.734 97.0223 367.689 87.14 369.441 77.4171C369.759 75.9826 370.237 74.3886 371.67 74.2292C373.422 74.0698 374.218 76.1419 374.536 77.8953C376.129 89.5309 375.492 101.645 373.103 113.121" fill="#EB996E"/>
<path d="M386.002 312.521C404.792 295.625 405.429 266.456 403.837 243.185C403.678 241.432 403.518 239.519 404.633 238.244C406.385 235.694 410.843 236.65 412.595 239.2C414.347 241.751 414.188 245.257 414.028 248.286C414.984 245.576 419.124 245.576 421.035 247.648C422.946 249.72 423.264 252.749 423.583 255.618C423.742 258.168 424.06 260.878 424.22 263.428L479.317 316.027C479.317 316.027 480.91 311.246 484.891 313.955C488.872 316.665 491.579 322.562 491.579 322.562L452.724 407.359L380.747 319.693C380.747 319.693 382.976 315.39 386.002 312.521Z" fill="#FF609B"/>
<path d="M460.686 371.177C455.112 378.668 450.494 386.957 448.106 395.883C445.717 404.809 445.558 414.691 448.902 423.298C453.52 435.572 465.145 444.976 478.043 446.888" fill="#FF609B"/>
<path d="M639.036 525.628L636.966 553.841H677.732L687.286 503.951C674.865 503.313 662.604 507.139 652.731 514.789L639.036 525.628Z" fill="#FFBE9D"/>
<path d="M405.27 306.305C405.27 306.305 405.588 305.508 406.225 304.073C406.862 302.638 407.658 300.566 408.614 298.016C409.569 295.466 410.684 292.278 411.639 288.771C412.595 285.265 413.391 281.28 414.028 277.136C414.665 272.992 414.983 269.007 414.983 265.341C414.983 261.675 414.983 258.327 414.824 255.618C414.665 252.908 414.346 250.677 414.187 249.083C414.028 247.489 413.869 246.692 414.028 246.692C414.028 246.692 414.346 247.489 414.506 249.083C414.824 250.677 415.143 252.908 415.461 255.618C415.78 258.327 415.939 261.675 415.939 265.341C415.939 269.007 415.62 272.991 414.983 277.295C414.346 281.439 413.391 285.424 412.435 288.931C411.48 292.437 410.365 295.625 409.251 298.175C408.136 300.726 407.18 302.798 406.543 304.232C405.747 305.667 405.27 306.305 405.27 306.305Z" fill="#263238"/>
<path d="M417.213 291.481C417.053 291.481 417.85 289.887 418.964 287.496C420.079 284.946 421.353 281.439 422.149 277.454C423.105 273.47 423.423 269.804 423.582 267.094C423.742 264.384 423.742 262.79 423.901 262.79C424.06 262.79 424.219 264.384 424.219 267.253C424.219 269.963 423.901 273.788 422.945 277.773C421.99 281.917 420.557 285.424 419.442 287.815C418.168 290.206 417.213 291.64 417.213 291.481Z" fill="#263238"/>
<path d="M481.865 335.633C481.706 335.633 482.343 334.517 482.821 332.604C483.298 330.691 483.139 327.982 482.343 325.272C481.547 322.403 480.273 320.012 479.636 318.259C478.839 316.505 478.362 315.39 478.521 315.23C478.68 315.23 479.158 316.187 480.113 317.94C481.069 319.693 482.343 322.084 483.139 324.953C483.935 327.822 483.935 330.691 483.298 332.764C482.821 334.676 482.024 335.633 481.865 335.633Z" fill="#263238"/>
<path d="M472.31 447.845C472.31 447.845 471.992 447.685 471.673 447.526C471.196 447.207 470.559 446.729 469.762 446.251C468.17 445.135 465.781 443.541 463.074 441.31C460.367 439.078 457.182 436.368 454.157 432.702C451.131 429.036 448.583 424.573 447.309 419.154C446.035 413.894 445.876 408.634 446.354 404.012C446.832 399.389 447.946 395.245 449.061 391.898C450.176 388.551 451.29 386.001 452.087 384.088C452.564 383.131 452.883 382.494 453.042 382.016C453.201 381.538 453.361 381.378 453.361 381.378C453.361 381.378 453.042 382.335 452.246 384.247C451.609 386.001 450.494 388.71 449.539 392.057C448.583 395.405 447.469 399.389 446.991 404.012C446.513 408.634 446.672 413.735 447.946 418.835C449.22 423.936 451.768 428.399 454.634 432.065C457.501 435.572 460.686 438.441 463.393 440.672C466.1 442.904 468.329 444.657 469.922 445.773C470.559 446.251 471.196 446.729 471.673 447.207C472.151 447.685 472.31 447.845 472.31 447.845Z" fill="#263238"/>
<path d="M562.601 463.625C562.601 463.625 562.441 463.784 561.964 463.943C561.486 464.103 560.849 464.262 559.894 464.422C558.142 464.9 555.435 465.218 552.091 465.378C545.562 465.697 536.007 464.103 527.249 458.683C518.65 453.105 513.077 445.294 510.529 439.238C509.255 436.209 508.459 433.659 507.981 431.746C507.822 430.79 507.662 430.152 507.503 429.674C507.503 429.196 507.344 428.877 507.503 428.877C507.503 428.877 507.822 429.833 508.299 431.587C508.777 433.34 509.573 435.89 511.006 438.919C513.714 444.816 519.128 452.626 527.568 458.046C536.007 463.465 545.403 465.059 551.932 464.9C555.276 464.9 557.823 464.581 559.734 464.262C561.486 463.784 562.441 463.625 562.601 463.625Z" fill="#263238"/>
<path d="M587.92 494.706C587.761 494.706 589.831 485.78 592.697 475.101C595.563 464.262 597.952 455.496 598.271 455.655C598.43 455.655 596.36 464.581 593.493 475.26C590.627 485.94 588.079 494.706 587.92 494.706Z" fill="#263238"/>
<path d="M610.214 475.898C610.055 476.057 603.685 465.537 595.882 452.467C588.239 439.397 582.028 428.718 582.347 428.718C582.506 428.558 588.876 439.078 596.678 452.148C604.322 465.218 610.373 475.738 610.214 475.898Z" fill="#263238"/>
<path d="M671.203 501.719C671.203 501.879 668.814 502.038 665.311 502.994C663.56 503.473 661.33 504.11 659.101 505.067C656.871 506.023 654.323 507.298 651.935 508.733C649.546 510.327 647.317 511.92 645.565 513.674C643.814 515.427 642.221 517.021 640.947 518.456C638.559 521.325 637.444 523.397 637.285 523.237C637.285 523.237 637.444 522.759 638.081 521.803C638.559 520.846 639.514 519.571 640.629 518.137C641.743 516.543 643.336 514.949 645.088 513.196C646.998 511.442 649.069 509.689 651.616 508.254C654.005 506.66 656.553 505.545 658.941 504.588C661.33 503.632 663.4 502.994 665.311 502.676C667.222 502.357 668.655 502.038 669.77 502.038C670.566 501.719 671.203 501.719 671.203 501.719Z" fill="#263238"/>
<path d="M679.006 492.156C679.006 492.315 676.458 491.996 672.318 492.315C670.248 492.475 667.859 492.953 665.311 493.59C662.764 494.387 659.897 495.344 657.031 496.619C654.324 498.053 651.776 499.647 649.706 501.4C647.636 503.154 645.884 504.748 644.451 506.342C641.744 509.37 640.47 511.602 640.311 511.602C640.311 511.602 640.629 510.964 641.107 510.008C641.425 509.529 641.744 508.892 642.221 508.254C642.699 507.617 643.177 506.82 643.973 506.023C645.247 504.429 646.999 502.676 649.228 500.922C651.298 499.169 653.846 497.575 656.712 495.981C659.579 494.547 662.445 493.59 665.152 492.953C667.859 492.315 670.248 491.996 672.318 491.837C673.433 491.678 674.229 491.837 675.184 491.837C675.981 491.837 676.777 491.837 677.255 491.996C678.369 491.996 679.006 492.156 679.006 492.156Z" fill="#263238"/>
<g opacity="0.3">
<g opacity="0.3">
<g opacity="0.3">
<path opacity="0.3" d="M509.095 432.224C505.274 439.397 508.458 448.004 511.962 455.336C514.669 460.915 517.535 466.653 522.472 470.638C527.249 474.463 533.618 476.217 539.67 475.42C545.721 474.623 551.454 471.116 554.957 466.015C534.733 466.175 515.146 452.308 508.458 433.181" fill="black"/>
</g>
</g>
</g>
<g opacity="0.3">
<g opacity="0.3">
<g opacity="0.3">
<path opacity="0.3" d="M582.187 428.718C579.321 435.572 581.55 444.976 584.417 451.67C587.442 458.524 590.627 466.015 588.239 473.029C587.761 474.304 587.124 475.738 587.283 477.014C587.442 478.448 588.876 479.723 590.149 479.086C590.786 478.767 591.105 477.81 591.423 477.173C593.653 470.319 595.882 463.465 598.271 456.771" fill="black"/>
</g>
</g>
</g>
<path d="M431.704 338.661C431.545 338.661 432.182 332.923 433.296 325.91C434.411 318.896 435.526 313.318 435.685 313.318C435.844 313.318 435.207 319.056 434.093 326.069C432.978 333.082 431.863 338.661 431.704 338.661Z" fill="#FAFAFA"/>
<path d="M414.824 335.154C414.665 335.314 411.958 331.488 408.136 327.025C404.314 322.562 400.97 319.375 401.129 319.215C401.288 319.056 404.951 322.084 408.773 326.547C412.595 331.01 414.983 334.995 414.824 335.154Z" fill="#FAFAFA"/>
<path d="M429.315 294.031C429.475 294.031 428.679 295.147 427.564 296.9C426.29 298.654 424.538 300.885 422.468 303.276C420.398 305.667 418.487 307.739 416.895 309.333C415.461 310.767 414.506 311.724 414.347 311.564C414.188 311.405 417.691 307.58 421.831 302.798C425.971 298.016 428.997 294.031 429.315 294.031Z" fill="#FAFAFA"/>
<path d="M423.582 274.107C423.423 274.267 422.468 272.195 420.716 270.122C418.964 268.05 417.053 266.935 417.213 266.616C417.372 266.456 419.442 267.413 421.353 269.485C423.264 271.716 423.901 273.948 423.582 274.107Z" fill="#FAFAFA"/>
<path d="M409.092 286.38C409.092 286.54 407.34 287.018 404.952 287.496C402.563 287.815 400.652 287.974 400.652 287.815C400.652 287.656 402.404 287.177 404.792 286.699C407.181 286.221 409.092 286.221 409.092 286.38Z" fill="#FAFAFA"/>
<path d="M445.717 304.073C445.399 304.073 446.036 300.726 445.239 296.581C444.443 292.597 442.373 289.728 442.691 289.568C442.851 289.409 445.239 292.118 446.036 296.422C446.991 300.726 445.876 304.232 445.717 304.073Z" fill="#FAFAFA"/>
<path d="M465.304 325.113C465.145 325.272 463.393 321.925 460.208 318.578C457.023 315.39 453.679 313.636 453.838 313.477C453.838 313.318 457.501 314.752 460.845 318.099C464.189 321.447 465.463 325.113 465.304 325.113Z" fill="#FAFAFA"/>
<path d="M433.933 361.773C433.933 361.932 430.749 363.207 426.608 363.048C422.468 362.889 419.283 361.454 419.283 361.295C419.283 360.976 422.468 362.092 426.608 362.251C430.589 362.251 433.774 361.454 433.933 361.773Z" fill="#FAFAFA"/>
<path d="M448.583 369.264C448.424 369.105 449.539 365.439 450.654 360.817C451.768 356.194 452.087 352.369 452.405 352.369C452.564 352.369 452.564 356.354 451.45 360.976C450.494 365.758 448.902 369.424 448.583 369.264Z" fill="#FAFAFA"/>
<path d="M480.91 370.539C480.75 370.699 477.566 367.511 473.903 363.526C470.241 359.541 467.374 356.035 467.533 355.875C467.693 355.716 470.877 358.904 474.54 362.889C478.203 367.033 481.069 370.38 480.91 370.539Z" fill="#FAFAFA"/>
<path d="M495.879 407.837C495.719 407.997 493.331 405.925 490.624 403.055C487.917 400.186 485.846 397.796 486.006 397.636C486.165 397.477 488.554 399.549 491.261 402.418C493.968 405.287 496.038 407.678 495.879 407.837Z" fill="#FAFAFA"/>
<path d="M468.011 411.344C468.17 411.503 465.463 413.894 461.641 416.126C457.82 418.357 454.316 419.473 454.316 419.314C454.157 419.154 457.501 417.72 461.323 415.488C464.985 413.257 467.852 411.185 468.011 411.344Z" fill="#FAFAFA"/>
<path d="M480.75 446.729C480.432 446.729 481.387 442.425 481.865 437.165C482.343 431.906 482.184 427.602 482.502 427.602C482.661 427.602 483.298 431.906 482.821 437.165C482.343 442.744 481.069 446.888 480.75 446.729Z" fill="#FAFAFA"/>
<path d="M529 418.038C528.841 418.198 525.497 415.807 522.153 411.981C518.809 408.156 516.898 404.49 517.057 404.331C517.216 404.171 519.446 407.678 522.79 411.503C526.134 415.169 529.159 417.72 529 418.038Z" fill="#FAFAFA"/>
<path d="M546.676 433.021C546.517 432.862 548.906 429.515 551.613 425.37C554.32 421.067 556.39 417.56 556.549 417.72C556.709 417.879 555.116 421.545 552.409 425.849C549.543 429.993 546.836 433.181 546.676 433.021Z" fill="#FAFAFA"/>
<path d="M544.129 396.202C544.129 396.361 540.466 395.564 536.007 394.448C531.549 393.333 528.045 392.057 528.204 391.898C528.204 391.739 531.867 392.536 536.326 393.651C540.625 394.926 544.129 396.042 544.129 396.202Z" fill="#FAFAFA"/>
<path d="M531.23 460.915C531.071 460.915 531.071 457.568 531.23 453.423C531.548 449.279 531.867 445.932 532.026 445.932C532.185 445.932 532.185 449.279 532.026 453.423C531.867 457.568 531.548 460.915 531.23 460.915Z" fill="#FAFAFA"/>
<path d="M542.377 483.07C542.218 482.911 543.81 479.723 544.447 475.26C545.084 470.797 544.288 467.131 544.606 467.131C544.766 467.131 545.88 470.797 545.243 475.42C544.606 480.042 542.536 483.23 542.377 483.07Z" fill="#FAFAFA"/>
<path d="M513.554 478.289C513.395 478.289 512.917 474.623 513.713 470C514.509 465.537 516.42 462.19 516.579 462.349C516.739 462.509 515.306 465.856 514.509 470.16C513.713 474.623 513.872 478.289 513.554 478.289Z" fill="#FAFAFA"/>
<path d="M487.279 489.446C487.12 489.605 483.935 486.896 479.795 483.708C475.655 480.52 472.311 477.97 472.47 477.811C472.629 477.651 476.292 479.883 480.432 483.07C484.413 486.258 487.439 489.287 487.279 489.446Z" fill="#FAFAFA"/>
<path d="M505.114 458.205C505.273 458.365 500.974 460.915 495.719 463.625C490.464 466.494 486.164 468.566 486.005 468.247C485.846 468.088 490.145 465.537 495.4 462.828C500.655 460.118 504.955 458.046 505.114 458.205Z" fill="#FAFAFA"/>
<path d="M560.371 528.338C560.371 528.338 560.052 528.497 559.416 528.657C558.779 528.816 557.664 528.975 556.39 529.135C553.842 529.613 550.02 529.932 545.243 529.932C540.466 529.932 534.892 529.135 528.841 527.541C522.79 525.947 516.261 523.237 510.21 519.412C504 515.586 498.904 510.805 494.764 506.182C490.623 501.401 487.598 496.619 485.368 492.315C483.139 488.012 481.865 484.505 481.069 481.955C480.591 480.68 480.432 479.723 480.273 479.086C480.113 478.448 479.954 478.129 480.113 477.97C480.113 477.97 480.273 478.289 480.432 478.926C480.591 479.564 480.91 480.52 481.387 481.795C482.183 484.346 483.617 487.852 485.846 491.996C488.075 496.141 491.101 500.922 495.241 505.545C499.382 510.167 504.477 514.789 510.528 518.615C516.58 522.44 522.949 524.991 529 526.584C535.052 528.178 540.625 528.975 545.243 529.135C550.02 529.294 553.683 528.975 556.39 528.657C557.664 528.497 558.779 528.338 559.416 528.178C560.052 528.338 560.371 528.338 560.371 528.338Z" fill="#263238"/>
<path d="M512.758 520.209C512.598 520.209 511.962 516.702 513.554 512.717C514.987 508.733 517.853 506.342 518.013 506.501C518.172 506.66 515.783 509.051 514.35 513.036C512.917 516.702 513.076 520.209 512.758 520.209Z" fill="#FAFAFA"/>
<path d="M499.7 514.63C499.859 514.789 497.471 516.065 495.56 518.615C493.649 521.165 493.171 523.715 493.012 523.715C492.853 523.715 492.853 520.846 494.923 518.137C496.834 515.427 499.7 514.471 499.7 514.63Z" fill="#FAFAFA"/>
<path d="M550.02 544.755C550.02 544.915 546.358 544.596 542.695 542.364C539.033 540.133 537.122 536.945 537.281 536.786C537.44 536.626 539.51 539.336 543.173 541.567C546.676 543.799 550.179 544.436 550.02 544.755Z" fill="#FAFAFA"/>
<path d="M557.982 500.604C558.141 500.604 557.664 503.951 555.116 506.979C552.568 510.008 549.383 510.964 549.383 510.805C549.224 510.645 552.09 509.37 554.479 506.342C556.867 503.473 557.664 500.444 557.982 500.604Z" fill="#FAFAFA"/>
<path d="M580.276 533.438C580.117 533.279 582.187 530.569 584.098 526.903C586.009 523.237 587.123 520.049 587.283 520.049C587.442 520.049 586.805 523.556 584.735 527.222C582.824 531.048 580.276 533.598 580.276 533.438Z" fill="#FAFAFA"/>
<path d="M609.577 537.742C609.736 537.901 606.71 539.176 603.844 541.567C600.978 543.958 599.226 546.508 598.907 546.349C598.748 546.19 600.181 543.321 603.207 540.93C606.392 538.379 609.577 537.583 609.577 537.742Z" fill="#FAFAFA"/>
<path d="M587.124 499.966C586.805 499.966 585.531 495.344 582.506 490.243C579.639 484.983 576.295 481.477 576.614 481.317C576.614 481.317 577.569 482.114 578.843 483.549C580.117 484.983 581.709 487.215 583.302 489.924C584.735 492.634 585.85 495.025 586.487 496.938C587.124 498.85 587.283 499.966 587.124 499.966Z" fill="#FAFAFA"/>
<path d="M591.582 452.626C591.582 452.786 588.238 453.742 584.098 454.858C579.798 455.814 576.454 456.452 576.295 456.293C576.295 456.133 579.639 455.177 583.78 454.061C588.079 452.945 591.582 452.308 591.582 452.626Z" fill="#FAFAFA"/>
<path d="M578.047 438.441C577.888 438.6 575.658 436.05 573.11 432.862C570.562 429.674 568.652 426.964 568.811 426.805C568.97 426.646 571.199 429.196 573.747 432.384C576.295 435.572 578.206 438.281 578.047 438.441Z" fill="#FAFAFA"/>
<path d="M611.647 429.833C611.647 429.993 608.143 429.833 604.003 428.877C599.863 427.921 596.678 426.486 596.678 426.327C596.837 426.167 600.022 427.124 604.162 428.08C608.303 429.036 611.647 429.674 611.647 429.833Z" fill="#FAFAFA"/>
<path d="M635.533 429.515C635.374 429.355 636.648 426.486 637.922 422.82C639.196 419.154 640.151 416.126 640.31 416.126C640.47 416.126 639.992 419.313 638.718 422.98C637.285 426.805 635.692 429.515 635.533 429.515Z" fill="#FAFAFA"/>
<path d="M630.119 461.871C630.119 462.031 626.775 461.234 623.112 459.162C619.45 457.09 617.22 454.539 617.38 454.38C617.539 454.221 620.087 456.452 623.59 458.524C627.093 460.437 630.119 461.553 630.119 461.871Z" fill="#FAFAFA"/>
<path d="M645.565 460.915C645.406 460.915 646.202 456.611 647.317 451.511C648.432 446.41 649.706 442.107 649.865 442.266C650.024 442.266 649.228 446.57 648.113 451.67C646.998 456.771 645.884 460.915 645.565 460.915Z" fill="#FAFAFA"/>
<path d="M632.667 497.097C632.507 497.256 629.96 494.068 627.093 490.084C624.227 486.099 621.997 482.752 622.157 482.592C622.316 482.433 624.864 485.621 627.73 489.606C630.597 493.59 632.826 496.938 632.667 497.097Z" fill="#FAFAFA"/>
<path d="M654.801 483.23C654.642 483.389 653.049 480.52 650.82 477.173C648.591 473.985 646.361 471.594 646.521 471.435C646.68 471.275 649.228 473.348 651.457 476.695C653.846 480.042 654.96 483.23 654.801 483.23Z" fill="#FAFAFA"/>
<path d="M675.503 480.042C675.344 480.201 673.273 477.014 670.407 473.348C667.541 469.682 665.152 466.813 665.311 466.653C665.47 466.494 668.178 469.044 671.044 472.869C673.91 476.695 675.662 480.042 675.503 480.042Z" fill="#FAFAFA"/>
<path d="M670.566 493.909C670.248 493.909 670.407 491.199 668.655 488.49C666.904 485.78 664.356 484.824 664.356 484.664C664.356 484.505 665.152 484.664 666.107 485.143C667.063 485.621 668.337 486.577 669.292 488.012C670.248 489.446 670.725 491.04 670.725 492.156C670.885 493.272 670.725 493.909 670.566 493.909Z" fill="#FAFAFA"/>
<path d="M654.483 512.717C654.324 512.717 654.324 512.239 654.324 511.761C654.165 511.283 653.846 510.486 653.209 510.008C652.572 509.529 651.776 509.37 651.139 509.37C650.502 509.37 650.184 509.529 650.184 509.37C650.184 509.211 650.343 508.892 651.139 508.732C651.776 508.573 652.891 508.573 653.846 509.211C654.802 509.848 654.961 510.964 654.961 511.602C654.802 512.398 654.642 512.717 654.483 512.717Z" fill="#FAFAFA"/>
<path d="M488.872 542.843C488.872 543.002 484.731 541.408 480.91 537.742C477.088 533.917 475.495 529.772 475.814 529.772C475.973 529.613 477.884 533.438 481.547 537.104C485.05 540.77 488.872 542.683 488.872 542.843Z" fill="#FAFAFA"/>
<path d="M387.435 147.231C384.887 123.003 380.269 100.21 378.995 76.4607C378.995 75.345 378.836 73.9105 377.881 73.1135C376.607 72.1572 374.536 72.9541 373.74 74.3886C372.944 75.8232 372.944 77.5765 372.944 79.1704C372.944 91.7624 370.874 104.354 366.574 116.309C363.867 123.96 360.205 131.451 358.135 139.421C356.064 147.39 359.886 150.1 363.549 157.432" fill="#FFBE9D"/>
<path d="M306.063 51.2768C305.903 51.4361 296.986 44.1041 285.998 35.0187C275.17 25.774 266.411 18.2825 266.571 18.1232C266.73 17.9638 275.648 25.2958 286.635 34.3812C297.623 43.4665 306.222 51.1174 306.063 51.2768Z" fill="white"/>
<path d="M351.605 40.2787C351.446 40.2787 350.49 26.0928 349.535 8.55964C348.58 -8.97351 348.102 -23.1594 348.42 -23.1594C348.58 -23.1594 349.535 -8.97351 350.49 8.55964C351.287 26.0928 351.764 40.2787 351.605 40.2787Z" fill="white"/>
<path d="M322.623 30.2369C322.464 30.2369 319.598 22.2673 316.413 12.2256C313.228 2.1839 310.68 -5.9451 310.999 -6.10449C311.158 -6.10449 314.024 1.86512 317.209 11.9068C320.394 21.9485 322.783 30.0775 322.623 30.2369Z" fill="white"/>
<path d="M296.826 66.2596C296.667 66.419 291.253 64.1875 284.565 60.9997C277.877 57.9712 272.462 55.2615 272.622 55.1021C272.781 54.9427 278.195 57.1742 284.883 60.3621C291.571 63.3905 296.985 65.9408 296.826 66.2596Z" fill="white"/>
<path d="M254.946 47.9295C254.946 48.0889 253.672 48.2483 251.92 47.9295C250.328 47.7701 249.054 47.4513 249.054 47.1325C249.054 46.9731 250.328 46.8138 252.08 47.1325C253.672 47.2919 254.946 47.6107 254.946 47.9295Z" fill="white"/>
<path d="M407.818 6.00934C407.977 6.16873 400.652 14.6165 391.416 24.8176C382.18 35.0187 374.536 43.3071 374.377 43.1477C374.218 42.9883 381.543 34.5406 390.779 24.3395C400.015 14.1383 407.658 5.84995 407.818 6.00934Z" fill="white"/>
<path d="M447.947 35.3375C447.947 35.3375 447.151 35.8157 445.718 36.6127C444.284 37.4097 442.214 38.5254 439.666 39.8005C434.571 42.3508 427.246 45.8574 419.124 49.2047C411.003 52.5519 403.359 55.2616 397.945 57.1743C395.238 58.1306 393.009 58.7682 391.416 59.2464C389.824 59.7246 389.028 59.884 389.028 59.884C389.028 59.884 389.824 59.5652 391.416 58.9276C393.009 58.29 395.238 57.4931 397.786 56.6961C403.2 54.7834 410.684 51.9144 418.806 48.5671C426.927 45.2199 434.252 41.8726 439.507 39.3224C442.055 38.2066 444.125 37.0909 445.718 36.4533C447.151 35.6563 447.947 35.1782 447.947 35.3375Z" fill="white"/>
<path d="M424.697 74.5481C424.697 74.7075 423.105 75.1856 420.398 75.9826C417.691 76.7796 414.028 77.5765 409.888 78.2141C405.748 78.8517 401.926 79.3298 399.219 79.4892C396.512 79.6486 394.76 79.6486 394.76 79.6486C394.76 79.4892 396.512 79.3298 399.219 79.011C401.926 78.6923 405.748 78.2141 409.729 77.4171C413.869 76.7796 417.532 75.9826 420.239 75.345C422.946 74.7075 424.538 74.3887 424.697 74.5481Z" fill="white"/>
<path d="M445.717 70.5633C445.717 70.7227 443.647 71.0414 441.099 71.0414C438.552 71.0414 436.481 70.882 436.481 70.5633C436.481 70.4039 438.552 70.0851 441.099 70.0851C443.807 70.2445 445.717 70.4039 445.717 70.5633Z" fill="white"/>
<path d="M363.549 157.273C357.179 152.491 353.835 144.043 355.109 136.233C355.905 131.451 358.294 127.147 360.204 122.684C362.115 118.221 363.549 113.28 362.434 108.499C361.956 106.745 361.16 104.992 361.16 103.079C361.16 101.166 362.275 99.0944 364.185 99.0944C365.619 99.0944 366.733 100.051 367.689 101.166C370.714 104.992 373.262 116.309 371.67 124.597" fill="#FFBE9D"/>
<path d="M371.67 124.757C371.511 124.757 371.829 123.481 371.988 121.091C371.988 118.7 371.988 115.352 371.192 111.368C370.715 109.296 370.237 107.064 369.281 104.833C368.804 103.717 368.326 102.601 367.53 101.645C366.734 100.688 365.778 99.732 364.504 99.5726C363.23 99.4132 362.275 100.529 361.797 101.804C361.319 103.079 361.638 104.514 362.115 105.948C362.593 107.383 363.071 108.817 363.23 110.411C363.389 112.005 363.389 113.599 363.071 115.193C361.956 121.728 358.453 126.829 356.701 132.089C355.746 134.639 355.268 137.189 355.268 139.58C355.268 141.971 355.587 144.202 356.224 146.275C357.497 150.259 359.408 152.969 361.001 154.722C362.593 156.476 363.549 157.113 363.549 157.273C363.549 157.273 363.23 157.113 362.752 156.794C362.275 156.476 361.479 155.838 360.682 155.041C359.09 153.447 356.861 150.578 355.587 146.593C354.95 144.521 354.472 142.29 354.472 139.739C354.472 137.189 354.95 134.639 355.905 131.929C357.657 126.669 361.001 121.409 362.115 115.193C362.434 113.599 362.434 112.165 362.275 110.571C362.116 109.136 361.638 107.702 361.16 106.267C360.682 104.833 360.364 103.239 361.001 101.645C361.319 100.848 361.638 100.21 362.275 99.732C362.912 99.2538 363.708 98.9351 364.504 98.9351C366.097 99.0945 367.211 100.21 368.007 101.326C368.804 102.442 369.441 103.557 369.918 104.833C370.874 107.223 371.352 109.455 371.829 111.527C372.625 115.671 372.625 119.178 372.466 121.409C372.307 122.525 372.307 123.481 372.148 124.119C371.67 124.438 371.67 124.757 371.67 124.757Z" fill="#EB996E"/>
<path d="M579.799 254.183C580.595 258.805 585.054 262.312 589.672 262.631C594.29 262.95 598.908 260.559 601.615 256.733C604.322 252.908 605.277 247.967 604.64 243.344C603.685 236.65 599.226 230.115 592.856 228.202C586.327 226.13 578.365 229.796 576.614 236.331L569.129 246.692L579.799 254.183Z" fill="#263238"/>
<path d="M571.04 233.621C574.066 209.394 556.549 187.398 532.026 185.007C508.936 182.775 488.394 199.99 484.89 222.942C481.865 243.026 479.317 263.428 479.317 270.76C479.635 293.075 492.693 301.682 497.948 304.232C499.222 304.87 502.407 305.507 503.84 305.667C503.999 305.667 503.999 305.826 503.999 305.826L499.063 331.329C496.833 348.065 506.229 363.048 522.949 365.439C539.669 367.83 552.886 355.078 555.434 338.183L571.04 233.621Z" fill="#FFBE9D"/>
<path d="M488.712 236.172C489.031 236.65 492.056 235.056 495.719 235.694C499.541 236.172 501.929 238.563 502.407 238.085C502.566 237.925 502.248 236.969 501.292 236.012C500.178 234.897 498.267 233.781 496.038 233.462C493.649 233.143 491.579 233.781 490.305 234.418C489.031 235.056 488.553 235.853 488.712 236.172Z" fill="#263238"/>
<path d="M522.312 243.344C522.631 243.823 525.656 242.229 529.319 242.866C533.14 243.344 535.529 245.735 536.007 245.257C536.166 245.098 535.848 244.141 534.892 243.185C533.777 242.069 531.867 240.954 529.637 240.635C527.249 240.316 525.178 240.954 523.904 241.591C522.631 242.388 522.153 243.185 522.312 243.344Z" fill="#263238"/>
<path d="M509.254 261.196C509.254 261.037 507.025 260.24 503.362 259.124C502.407 258.805 501.611 258.487 501.451 257.849C501.292 257.052 501.929 256.096 502.566 255.139C503.84 252.908 505.114 250.676 506.547 248.286C511.961 238.403 516.102 230.274 515.783 230.115C515.305 229.955 510.687 237.766 505.114 247.648C503.84 250.039 502.566 252.43 501.292 254.661C500.814 255.777 500.018 256.893 500.177 258.327C500.337 259.124 500.974 259.762 501.611 259.921C502.248 260.24 502.725 260.24 503.203 260.399C506.866 261.037 509.254 261.356 509.254 261.196Z" fill="#263238"/>
<path d="M503.999 305.986C503.999 305.986 518.331 309.333 538.077 301.044C538.077 301.044 529.478 319.375 502.566 312.839L503.999 305.986Z" fill="#EB996E"/>
<path d="M509.573 270.441C511.165 268.847 513.713 268.21 516.102 268.847C517.694 269.325 519.286 270.282 520.083 271.716C520.879 273.151 520.879 275.063 519.764 276.179C518.49 277.454 516.42 277.454 514.668 276.657C512.917 275.86 511.643 274.426 510.21 273.151C509.891 272.832 509.413 272.354 509.254 271.876C509.095 271.397 509.095 270.76 509.414 270.441" fill="#EB996E"/>
<path d="M519.923 265.341C519.286 265.181 518.649 269.325 514.827 271.716C510.846 274.107 506.547 272.991 506.547 273.629C506.388 273.948 507.343 274.585 509.254 274.904C511.006 275.223 513.713 275.064 516.101 273.629C518.49 272.195 519.764 269.963 520.082 268.21C520.56 266.456 520.242 265.5 519.923 265.341Z" fill="#263238"/>
<path d="M524.86 231.071C525.019 232.187 528.841 232.187 533.299 233.462C537.599 234.578 541.102 236.331 541.739 235.534C542.058 235.056 541.58 234.1 540.306 232.825C539.032 231.549 536.803 230.274 534.255 229.637C531.707 228.999 529.159 228.999 527.408 229.477C525.656 229.955 524.7 230.593 524.86 231.071Z" fill="#263238"/>
<path d="M492.534 224.536C493.012 225.492 495.719 225.014 498.904 225.333C502.088 225.652 504.636 226.768 505.273 225.971C505.592 225.652 505.273 224.696 504.318 223.739C503.362 222.783 501.452 221.826 499.381 221.508C497.152 221.189 495.241 221.826 493.967 222.464C492.853 223.261 492.375 224.058 492.534 224.536Z" fill="#263238"/>
<path d="M480.591 218.16C485.209 225.174 499.859 220.87 508.617 216.088C517.853 222.305 530.911 219.595 537.281 210.191C542.377 216.567 552.568 214.494 556.39 207.322C560.052 199.99 557.982 190.107 552.886 183.732C547.791 177.356 540.306 174.168 532.822 172.734C515.305 169.546 496.037 176.24 485.527 192.18C480.591 199.352 477.724 209.234 480.591 218.16Z" fill="#263238"/>
<path d="M529.159 175.125C529.159 175.443 525.019 174.646 518.49 175.762C512.121 176.878 503.044 180.225 496.356 187.716C489.827 195.367 486.801 204.293 485.687 210.828C484.572 217.363 485.368 221.508 485.209 221.508C485.05 221.508 484.89 220.551 484.572 218.639C484.413 216.726 484.253 214.016 484.731 210.669C485.527 203.975 488.394 194.73 495.241 186.76C502.248 178.95 511.643 175.603 518.331 174.806C521.675 174.328 524.382 174.487 526.293 174.646C528.204 174.646 529.159 174.965 529.159 175.125Z" fill="#455A64"/>
<path d="M505.433 207.8C505.273 207.8 505.114 207.003 505.114 205.25C504.955 203.656 505.114 201.265 505.751 198.396C507.025 192.817 511.165 185.007 518.968 180.225C526.93 175.603 535.688 175.762 541.262 177.516C544.128 178.312 546.198 179.428 547.632 180.225C549.065 181.022 549.702 181.66 549.702 181.819C549.542 182.138 546.676 179.906 541.103 178.631C535.688 177.356 527.249 177.356 519.764 181.66C512.28 186.123 508.299 193.455 506.866 198.874C505.273 204.134 505.751 207.8 505.433 207.8Z" fill="#455A64"/>
<path d="M547.632 200.149C546.198 206.365 544.606 212.741 544.606 219.276C544.606 225.652 546.198 232.346 550.339 237.288C556.549 244.779 566.741 247.01 576.136 248.764C581.231 236.172 582.824 222.305 580.595 208.916C579.48 202.381 577.41 195.686 572.792 191.064C566.104 184.21 554.638 182.775 546.517 187.876" fill="#263238"/>
<path d="M552.887 231.071C550.339 236.491 550.657 242.707 551.454 248.604C552.25 254.502 553.842 260.24 553.683 266.297C553.683 272.194 551.772 278.57 547.154 282.236C545.88 283.352 544.288 284.149 543.173 285.424C542.058 286.699 541.421 288.612 542.377 290.046C543.332 291.481 545.88 291.481 546.358 289.887L546.039 290.365C545.084 292.118 546.199 294.35 548.269 294.35C551.454 294.35 554.638 292.597 556.709 290.206C559.734 286.699 561.008 281.917 561.804 277.295C564.193 263.268 563.715 248.604 567.696 234.897" fill="#263238"/>
<path d="M498.903 323.519C501.133 333.082 507.503 341.53 516.261 346.152C524.86 350.775 535.529 351.412 544.765 347.906C553.046 344.718 559.734 338.502 566.103 332.445C568.333 346.152 564.511 360.976 555.912 371.815C547.154 382.813 533.777 389.666 519.764 390.623C509.254 391.26 497.948 388.073 491.26 379.784C486.642 374.046 484.731 366.395 484.89 359.063C484.89 351.731 486.801 344.399 489.031 337.386C490.941 331.329 493.967 324.634 500.018 322.881" fill="#FF609B"/>
<path d="M574.384 249.242C580.754 252.749 584.098 259.762 585.372 266.934C586.646 273.948 586.009 281.28 586.327 288.452C586.646 295.625 588.079 303.116 592.538 308.695C597.315 314.593 604.959 317.462 611.647 320.968C626.456 328.938 638.718 342.486 643.177 358.744C647.635 375.002 643.654 393.811 631.393 405.446C620.246 416.126 604.162 419.792 588.875 419.792C577.888 419.792 565.945 417.401 559.097 408.794C552.409 400.346 552.728 388.232 555.116 377.712C557.505 367.192 561.804 356.832 562.123 346.152C560.53 352.847 557.664 359.223 553.683 364.801C552.568 366.395 550.657 368.149 548.906 367.192C546.995 366.236 547.791 363.207 548.587 361.295C561.804 331.966 557.186 272.673 564.989 240.316" fill="#263238"/>
<path d="M563.556 245.895C563.874 245.735 579.321 242.866 577.41 258.008C575.499 273.31 560.53 268.05 560.53 267.731C560.53 267.413 563.556 245.895 563.556 245.895Z" fill="#FFBE9D"/>
<path d="M565.945 262.631C565.945 262.631 566.263 262.79 566.582 263.109C567.059 263.428 567.696 263.587 568.492 263.428C570.244 263.109 571.836 260.718 572.314 258.009C572.473 256.574 572.473 255.299 571.996 254.183C571.677 253.067 571.04 252.111 570.244 251.952C569.448 251.633 568.811 252.111 568.652 252.43C568.333 252.908 568.492 253.067 568.333 253.227C568.333 253.227 568.015 252.908 568.174 252.27C568.333 251.952 568.492 251.633 568.97 251.314C569.448 250.995 569.926 250.995 570.563 251.155C571.677 251.314 572.633 252.589 572.951 253.864C573.429 255.139 573.588 256.733 573.27 258.168C572.792 261.196 570.881 263.906 568.492 264.225C567.378 264.384 566.582 263.906 566.104 263.428C565.945 262.95 565.945 262.631 565.945 262.631Z" fill="#EB996E"/>
<path d="M483.139 356.354C482.979 356.354 484.094 354.441 485.687 351.572C487.279 348.703 489.668 344.718 491.26 339.936C492.852 335.154 493.171 330.532 492.693 327.344C492.215 324.156 491.26 322.244 491.419 322.084C491.419 322.084 491.738 322.562 492.056 323.359C492.375 324.156 492.852 325.591 493.171 327.185C493.808 330.532 493.649 335.314 492.056 340.096C490.464 345.037 488.075 349.022 486.323 351.731C485.368 353.166 484.731 354.281 484.094 355.078C483.457 355.875 483.139 356.354 483.139 356.354Z" fill="#263238"/>
<path d="M490.941 338.661C490.782 338.661 490.304 337.386 488.871 336.43C487.597 335.473 486.164 335.473 486.164 335.314C486.164 335.154 486.483 334.995 487.12 334.995C487.756 334.995 488.553 335.154 489.349 335.792C490.145 336.27 490.623 337.067 490.782 337.705C491.101 338.342 490.941 338.661 490.941 338.661Z" fill="#FAFAFA"/>
<path d="M500.655 338.661C500.496 338.82 499.222 336.589 496.674 334.995C494.285 333.401 491.738 333.082 491.738 332.923C491.738 332.763 494.445 332.604 497.152 334.357C500.018 336.111 500.974 338.661 500.655 338.661Z" fill="#FAFAFA"/>
<path d="M506.866 371.018C506.707 371.018 507.025 367.989 507.821 364.483C508.618 360.976 509.255 358.107 509.573 358.107C509.891 358.107 509.414 361.135 508.618 364.642C507.981 368.308 507.184 371.018 506.866 371.018Z" fill="#FAFAFA"/>
<path d="M531.707 375.959C531.548 375.959 531.389 372.93 531.548 369.105C531.707 365.279 532.026 362.251 532.185 362.251C532.344 362.251 532.504 365.279 532.344 369.105C532.344 372.771 532.026 375.959 531.707 375.959Z" fill="#FAFAFA"/>
<path d="M24.5232 446.729L0 553.841L51.9127 554L75.9582 459.799L24.5232 446.729Z" fill="#B78876"/>
<path d="M279.628 315.23C274.691 308.536 268.959 302.32 266.411 294.35C265.137 290.525 264.659 286.54 263.385 282.714C262.111 278.889 259.563 275.223 255.901 273.948C252.238 272.513 249.372 273.948 246.983 276.658L229.148 328.779L239.499 368.786C249.69 366.395 262.589 363.686 272.143 359.382C281.698 355.078 288.068 348.225 288.705 337.705C289.023 329.576 284.564 321.925 279.628 315.23Z" fill="#263238"/>
<path d="M117.361 305.986C117.361 305.986 55.4158 332.923 47.613 345.196C39.8101 357.31 14.4907 444.179 14.4907 444.179L79.7797 463.465L78.6651 553.841H238.703L237.429 394.448L217.364 306.305C217.364 306.305 182.013 304.073 178.828 302.479C175.484 300.885 117.361 305.986 117.361 305.986Z" fill="#01BA57"/>
<path d="M337.592 85.068C338.07 81.4019 335.522 77.4171 337.433 74.2293C338.388 72.476 340.458 71.679 342.369 70.882C343.325 70.5633 344.439 70.0851 345.395 70.0851C346.509 70.0851 347.624 70.7227 347.943 71.679C348.42 72.7948 347.624 74.0699 346.669 75.0262C345.872 75.8232 344.758 76.6202 344.28 77.7359C343.643 79.3298 344.28 84.1116 344.917 85.5461C346.032 88.0964 349.853 99.7321 350.172 102.601" fill="#B78876"/>
<path d="M324.534 86.3431C324.693 80.7644 329.311 59.087 329.471 53.5083C333.133 54.624 335.363 58.6089 336.159 62.4343C336.955 66.2597 336.477 70.2445 337.114 74.0699C338.07 79.1705 340.618 83.9522 343.484 88.4152C346.191 92.8782 349.057 97.5006 350.172 102.601C351.446 107.702 356.064 120.931 352.401 124.757" fill="#B78876"/>
<path d="M323.42 123.641L301.285 228.999C300.489 233.781 217.365 306.304 217.365 306.304L233.767 371.974L342.21 265.978C350.013 257.69 354.312 246.532 353.994 235.056L352.083 136.233L323.42 123.641Z" fill="#B78876"/>
<path d="M319.598 86.9807L323.42 123.641L352.083 136.233C352.083 136.233 352.402 133.683 353.676 120.931C355.109 106.905 339.981 100.848 333.293 90.6467C330.427 86.1837 331.223 78.0547 328.993 68.013C328.675 66.8972 327.083 59.884 326.286 56.0586C325.809 53.9865 324.694 52.0738 322.783 50.958C321.509 50.1611 320.076 49.6829 318.961 50.958C317.847 52.0738 319.598 86.9807 319.598 86.9807Z" fill="#B78876"/>
<path d="M337.592 129.857C340.777 127.148 341.573 122.206 340.299 118.062C339.025 113.918 336.318 110.571 333.611 107.224C330.745 104.036 327.878 100.848 326.127 96.863C324.853 94.1533 324.375 91.1249 322.942 88.4152C321.668 85.7056 319.12 83.3147 316.094 83.1553C318.483 98.2975 318.483 107.064 323.42 123.641" fill="#B78876"/>
<path d="M319.12 100.37C319.12 100.37 318.961 99.8914 318.802 99.0945C318.642 98.1381 318.324 97.0224 318.005 95.5878C317.368 92.4 316.413 88.2558 315.458 83.6334L315.298 83.1552H315.776C317.687 82.9959 319.598 83.7928 321.19 85.2273C323.738 87.2994 324.853 90.3279 325.649 92.8782C326.445 95.4284 327.241 97.8193 328.197 99.5727C329.152 101.326 330.267 102.442 331.063 103.398C331.7 104.354 332.019 104.833 332.019 104.833C332.019 104.833 331.541 104.354 330.745 103.557C329.949 102.76 328.675 101.645 327.719 99.732C326.604 97.9787 325.808 95.5878 325.012 93.0376C324.216 90.4873 323.101 87.7776 320.713 85.7055C319.279 84.4304 317.528 83.7928 315.935 83.9522L316.254 83.474C318.165 93.197 319.439 100.37 319.12 100.37Z" fill="#7C5142"/>
<path d="M332.019 91.1249C331.86 91.1249 330.586 84.4304 329.312 76.142C328.038 67.8536 327.242 61.1591 327.56 60.9998C327.719 60.9998 328.993 67.6942 330.267 75.9826C331.382 84.271 332.178 90.9655 332.019 91.1249Z" fill="#7C5142"/>
<path d="M341.096 92.2406C341.096 92.2406 341.255 92.4 341.255 92.8782H340.936C340.459 91.603 339.185 87.4588 338.07 82.5177C337.433 79.4892 336.955 76.6201 336.637 74.548C336.318 72.4759 336.159 71.2008 336.318 71.2008C336.478 71.2008 337.592 76.142 338.866 82.3583C339.981 87.2994 340.936 91.4436 341.255 92.8782H340.936C341.096 92.4 341.096 92.2406 341.096 92.2406Z" fill="#7C5142"/>
<path d="M346.669 112.483C346.509 112.483 346.032 111.686 344.758 110.411C343.643 109.136 341.732 107.702 339.503 106.586C337.114 105.47 334.885 104.992 333.292 104.833C331.541 104.673 330.585 104.833 330.585 104.673C330.585 104.514 331.541 104.195 333.292 104.195C335.044 104.195 337.433 104.514 339.98 105.789C342.369 106.905 344.28 108.658 345.395 109.933C346.35 111.368 346.828 112.483 346.669 112.483Z" fill="#7C5142"/>
<path d="M325.968 126.51C325.808 126.51 325.171 124.916 324.057 122.206C323.101 119.497 321.827 115.671 320.713 111.208C319.757 106.905 318.961 102.92 318.642 100.051C318.324 97.1818 318.324 95.269 318.324 95.269C318.483 95.269 318.642 97.0224 319.12 99.8914C319.598 102.76 320.394 106.745 321.35 111.049C322.305 115.352 323.579 119.178 324.375 122.047C325.649 124.757 326.127 126.51 325.968 126.51Z" fill="#7C5142"/>
<path d="M197.937 308.217C200.644 303.754 207.173 302.32 211.473 305.029C223.097 295.466 235.04 286.221 246.824 276.657C243.002 295.785 240.454 322.403 249.054 339.936C249.054 339.936 259.882 360.02 276.921 356.991L261.634 372.133L237.429 394.608" fill="#01BA57"/>
<path d="M194.115 317.143C193.956 317.143 194.115 313.636 196.344 309.97C198.574 306.304 201.599 304.392 201.759 304.71C201.918 304.87 199.211 306.942 197.141 310.449C194.911 313.955 194.274 317.143 194.115 317.143Z" fill="#263238"/>
<path d="M206.695 328.938C206.695 328.938 205.899 327.663 205.421 325.431C204.784 323.2 204.625 319.853 205.103 316.346C205.74 312.839 207.173 309.811 208.447 307.898C209.721 305.986 210.835 305.029 210.835 305.029C210.995 305.189 210.039 306.145 208.925 308.217C207.81 310.13 206.536 312.999 205.899 316.506C205.262 319.853 205.421 323.041 205.899 325.272C206.377 327.504 206.854 328.779 206.695 328.938Z" fill="#263238"/>
<path d="M265.296 369.902C265.296 369.902 264.022 370.699 261.474 371.496C258.926 372.133 254.945 372.452 250.327 371.177C245.709 369.902 240.773 366.555 236.951 361.614C232.97 356.672 230.422 349.978 228.989 342.965C226.282 328.779 226.282 315.549 227.078 306.145C227.396 301.363 228.033 297.697 228.352 294.988C228.511 293.712 228.83 292.597 228.83 291.959C228.989 291.322 228.989 290.843 229.148 291.003C229.148 291.003 229.148 291.322 228.989 292.119C228.83 292.916 228.83 293.872 228.67 295.147C228.352 297.697 227.874 301.523 227.556 306.304C226.919 315.709 226.919 328.779 229.626 342.965C231.059 349.978 233.607 356.354 237.429 361.295C241.091 366.236 245.868 369.424 250.327 370.858C254.786 372.293 258.767 371.974 261.315 371.496C263.863 370.54 265.137 369.743 265.296 369.902Z" fill="#FAFAFA"/>
<path d="M80.0986 490.243C79.9393 490.243 79.6208 467.609 79.6208 439.716C79.6208 411.822 79.7801 389.188 80.0986 389.188C80.2578 389.188 80.5763 411.822 80.5763 439.716C80.5763 467.609 80.2578 490.243 80.0986 490.243Z" fill="#263238"/>
<path d="M78.8243 371.496C78.6651 371.496 78.6651 369.264 77.8689 365.758C77.5504 364.004 76.7542 361.932 75.958 359.701C75.0025 357.469 73.7286 355.238 71.977 353.006C70.2253 350.775 68.4736 349.022 66.5627 347.428C64.6518 345.993 62.9002 344.718 61.3078 343.921C58.1229 342.168 55.8936 341.69 55.8936 341.53C55.8936 341.53 56.5305 341.53 57.486 341.849C57.9637 342.008 58.6007 342.168 59.2376 342.487C59.8746 342.805 60.6708 342.965 61.467 343.443C63.0594 344.24 64.9703 345.356 66.8812 346.79C68.7921 348.384 70.703 350.137 72.4547 352.369C74.2063 354.6 75.4803 356.991 76.4357 359.223C77.3912 361.454 78.0281 363.526 78.3466 365.439C78.5059 366.395 78.6651 367.192 78.6651 367.83C78.8243 368.627 78.8243 369.105 78.8243 369.743C78.9836 371.018 78.8243 371.496 78.8243 371.496Z" fill="#263238"/>
<path d="M187.905 305.348C187.905 305.348 188.064 305.826 188.223 306.623C188.383 307.58 188.542 308.855 188.701 310.449C188.86 313.796 188.542 318.896 186.79 324.794C184.879 330.532 181.376 337.227 175.325 342.646C169.274 348.225 160.675 351.891 151.438 352.688C142.043 353.325 132.966 350.934 126.278 346.312C119.431 341.849 114.972 335.792 112.265 330.373C109.558 324.794 108.443 320.012 108.125 316.506C107.966 314.752 107.966 313.477 107.966 312.521C107.966 311.564 107.966 311.086 107.966 311.086C107.966 311.086 107.966 311.564 108.125 312.521C108.125 313.477 108.284 314.752 108.443 316.346C108.921 319.693 110.036 324.475 112.743 329.895C115.45 335.154 120.068 341.052 126.756 345.515C133.444 349.978 142.202 352.369 151.438 351.572C160.675 350.934 168.955 347.268 174.847 341.849C180.739 336.589 184.401 330.054 186.312 324.316C188.223 318.578 188.542 313.637 188.542 310.289C188.542 308.536 188.383 307.261 188.223 306.464C187.905 305.826 187.905 305.348 187.905 305.348Z" fill="#263238"/>
<path d="M78.6648 443.541C78.6648 443.701 65.4477 439.556 49.3643 434.296C33.2809 428.877 20.2231 424.414 20.2231 424.255C20.2231 424.095 33.4402 428.24 49.5236 433.499C65.7662 438.919 78.824 443.382 78.6648 443.541Z" fill="#FAFAFA"/>
<path d="M235.837 421.545C235.837 421.704 200.644 422.183 157.331 422.342C114.017 422.501 78.8245 422.501 78.8245 422.183C78.8245 422.023 113.858 421.545 157.331 421.386C200.803 421.226 235.837 421.226 235.837 421.545Z" fill="#FAFAFA"/>
<path d="M236.632 435.412C236.632 435.572 201.281 435.89 157.808 435.89C114.335 435.89 78.9834 435.731 78.9834 435.412C78.9834 435.093 114.335 434.934 157.808 434.934C201.281 434.934 236.632 435.093 236.632 435.412Z" fill="#FAFAFA"/>
<path d="M214.975 452.308C214.975 452.308 214.816 452.786 214.498 453.583C214.179 454.539 213.702 455.655 213.065 457.249C212.746 458.046 212.428 458.843 211.95 459.799C211.472 460.755 210.994 461.712 210.517 462.828C209.402 465.059 208.447 467.45 206.854 470.16C206.058 471.435 205.421 472.869 204.625 474.304C203.829 475.738 202.873 477.173 201.918 478.767C200.166 481.795 197.937 484.983 195.548 488.171C190.771 494.547 185.038 501.401 178.509 507.936C171.821 514.471 164.974 519.89 158.445 524.672C155.101 526.903 151.916 529.135 148.89 530.888C147.298 531.844 145.865 532.641 144.432 533.438C142.998 534.235 141.565 534.873 140.132 535.67C137.425 537.104 134.877 538.22 132.807 539.177C131.692 539.655 130.737 540.133 129.781 540.611C128.826 540.93 127.87 541.249 127.074 541.567C125.482 542.205 124.367 542.524 123.412 543.002C122.615 543.321 122.138 543.48 122.138 543.48C122.138 543.48 122.615 543.321 123.412 542.843C124.367 542.524 125.482 542.046 127.074 541.408C127.87 541.089 128.667 540.77 129.622 540.292C130.578 539.814 131.533 539.336 132.648 538.858C134.877 537.742 137.266 536.786 139.973 535.192C141.247 534.554 142.68 533.757 144.113 532.96C145.546 532.163 146.979 531.207 148.572 530.41C151.597 528.657 154.782 526.425 158.126 524.194C164.655 519.571 171.503 513.993 178.031 507.617C184.56 501.082 190.293 494.387 195.07 488.012C197.3 484.664 199.688 481.636 201.44 478.607C202.395 477.173 203.351 475.738 204.147 474.304C204.943 472.869 205.739 471.435 206.536 470.16C208.128 467.609 209.243 465.059 210.357 462.987C210.835 461.871 211.472 460.915 211.791 459.959C212.268 459.002 212.587 458.205 212.905 457.408C213.542 455.974 214.02 454.699 214.498 453.902C214.816 452.627 214.975 452.308 214.975 452.308Z" fill="#263238"/>
<g opacity="0.3">
<g opacity="0.3">
<g opacity="0.3">
<path opacity="0.3" d="M208.606 466.175C197.937 479.245 186.631 488.649 171.025 494.706C163.541 497.575 155.579 499.647 148.254 502.994C140.929 506.501 134.081 511.602 130.897 519.093C128.349 524.831 129.623 533.438 135.674 534.713C138.062 535.192 140.451 534.395 142.521 533.598C173.573 522.281 194.115 493.75 208.606 466.175Z" fill="black"/>
</g>
</g>
</g>
<path d="M97.1376 182.457C90.4494 187.716 89.9717 197.599 90.2902 206.206C90.6087 214.813 90.7679 224.536 84.5575 230.434C79.4618 235.375 70.5442 237.128 69.1111 243.982C68.4741 247.17 69.9073 250.836 72.7736 252.43C75.64 254.183 79.4618 253.864 82.0096 251.792C79.7802 257.212 80.8949 264.065 85.3537 267.731C89.9717 271.238 97.9338 269.644 99.6854 264.065C98.5707 267.731 101.119 272.035 104.781 272.991C108.444 273.788 112.743 271.079 113.38 267.253" fill="#263238"/>
<path d="M194.752 244.301C196.185 248.604 201.44 251.155 205.74 249.72C210.039 248.126 212.428 242.866 210.676 238.563C209.402 235.215 205.899 232.824 205.74 229.158C205.581 224.855 210.039 221.986 214.02 220.392C218.001 218.639 222.619 216.566 223.256 212.263C223.893 208.119 220.39 204.771 217.365 201.902C214.339 199.033 211.632 194.57 213.702 190.904C214.817 188.992 216.887 188.035 218.32 186.441C221.346 182.935 220.231 176.878 216.568 173.849C213.065 170.821 207.81 170.183 203.192 170.661C198.574 171.299 194.115 173.052 189.497 174.168C174.369 177.834 157.808 174.806 144.91 166.198" fill="#263238"/>
<path d="M101.756 215.291L118.157 310.289C121.024 327.025 136.948 338.183 153.668 335.154C169.274 332.445 180.102 318.099 178.669 302.32C177.873 293.872 177.236 286.859 177.236 286.859C177.236 286.859 200.963 280.802 198.893 256.574C197.937 244.938 193.956 221.03 189.975 199.352C185.835 176.081 164.497 159.982 141.088 162.373L138.7 162.533C114.017 166.677 97.1376 190.426 101.756 215.291Z" fill="#B78876"/>
<path d="M185.039 215.132C185.357 216.885 183.924 218.639 182.013 218.957C180.102 219.276 178.35 218.001 178.191 216.248C177.873 214.494 179.306 212.741 181.217 212.422C183.128 212.104 184.879 213.379 185.039 215.132Z" fill="#263238"/>
<path d="M186.153 211.944C185.835 212.422 182.968 210.828 179.306 211.147C175.643 211.466 173.096 213.697 172.618 213.219C172.459 213.06 172.777 212.104 173.892 211.147C175.006 210.191 176.917 209.075 179.147 208.916C181.535 208.756 183.446 209.394 184.72 210.191C185.835 210.828 186.313 211.625 186.153 211.944Z" fill="#263238"/>
<path d="M148.732 219.436C149.05 221.189 147.617 222.942 145.706 223.261C143.795 223.58 142.044 222.305 141.884 220.551C141.566 218.798 142.999 217.045 144.91 216.726C146.821 216.407 148.572 217.682 148.732 219.436Z" fill="#263238"/>
<path d="M149.687 216.088C149.368 216.566 146.502 214.973 142.839 215.291C139.177 215.61 136.629 217.842 136.151 217.363C135.992 217.204 136.31 216.248 137.425 215.291C138.54 214.335 140.451 213.219 142.68 213.06C145.069 212.9 146.98 213.538 148.254 214.335C149.528 215.132 150.005 215.929 149.687 216.088Z" fill="#263238"/>
<path d="M165.93 242.388C165.93 242.229 168.159 241.591 171.822 240.635C172.777 240.475 173.573 240.157 173.733 239.519C173.892 238.881 173.414 237.766 172.777 236.809C171.662 234.578 170.548 232.346 169.274 229.796C164.337 219.914 160.675 211.785 161.153 211.466C161.63 211.307 165.771 219.117 170.707 228.999C171.822 231.39 173.096 233.781 174.051 236.012C174.529 237.128 175.325 238.244 174.847 239.678C174.688 240.475 174.051 240.954 173.414 241.272C172.777 241.591 172.299 241.591 171.822 241.591C168.318 242.388 165.93 242.547 165.93 242.388Z" fill="#263238"/>
<path d="M149.209 201.424C148.891 202.54 145.228 202.381 140.929 203.337C136.629 204.134 133.285 205.887 132.489 204.931C132.17 204.453 132.648 203.496 134.081 202.381C135.355 201.265 137.585 200.149 140.132 199.512C142.68 199.033 145.228 199.193 146.821 199.671C148.572 200.309 149.368 200.946 149.209 201.424Z" fill="#263238"/>
<path d="M183.764 201.265C183.127 202.221 180.58 201.584 177.395 201.743C174.369 201.902 171.821 202.859 171.025 202.062C170.707 201.584 171.025 200.787 172.14 199.83C173.254 198.874 175.006 198.077 177.076 197.918C179.146 197.758 181.057 198.396 182.331 199.193C183.605 199.99 183.924 200.787 183.764 201.265Z" fill="#263238"/>
<path d="M125.482 186.282C125.323 186.282 125.323 186.282 125.482 186.282C121.82 189.789 119.75 194.411 119.431 199.352C119.431 199.512 119.431 199.671 119.431 199.83C119.113 206.844 120.068 213.857 119.75 220.87C119.431 227.883 117.679 235.056 113.061 240.316C111.151 242.547 107.647 244.141 105.577 242.069C104.781 241.272 104.622 240.157 104.462 239.041C101.437 222.464 95.5449 208.119 93.7932 190.745C93.3155 185.963 95.0672 181.341 98.7297 178.153C102.074 175.125 106.373 172.096 110.514 173.531C114.813 175.125 120.705 182.138 124.208 185.007" fill="#263238"/>
<path d="M110.991 225.492C110.513 225.333 93.9523 222.145 96.0225 238.722C98.0926 255.139 114.176 249.72 114.176 249.242C114.176 248.604 110.991 225.492 110.991 225.492Z" fill="#B78876"/>
<path d="M108.443 243.504C108.443 243.504 108.125 243.663 107.806 243.982C107.329 244.301 106.533 244.46 105.736 244.301C103.985 243.823 102.074 241.272 101.596 238.403C101.437 236.969 101.437 235.375 101.915 234.259C102.233 232.984 102.87 232.027 103.825 231.709C104.622 231.39 105.418 231.868 105.577 232.346C105.896 232.824 105.736 233.143 105.896 233.143C105.896 233.143 106.214 232.824 106.055 232.187C105.896 231.868 105.736 231.549 105.259 231.231C104.781 230.912 104.144 230.912 103.666 231.071C102.392 231.39 101.437 232.665 100.959 233.94C100.481 235.375 100.322 236.969 100.481 238.722C100.959 242.069 103.188 244.938 105.577 245.257C106.851 245.416 107.647 244.938 108.125 244.46C108.443 243.982 108.443 243.504 108.443 243.504Z" fill="#7C5142"/>
<path d="M110.195 176.24C105.418 170.024 115.769 159.504 123.571 155.997C131.533 152.65 142.521 155.519 150.961 157.432C156.216 158.707 161.63 160.46 166.885 159.823C170.548 159.345 173.732 157.591 177.077 156.157C180.421 154.563 183.765 153.128 187.427 152.969C191.09 152.81 194.912 154.404 196.663 157.591C198.415 160.779 196.823 165.561 193.319 166.358C197.619 163.33 204.625 166.039 205.899 171.14C207.173 176.24 202.237 181.819 196.982 181.181C199.211 179.109 203.033 181.819 203.033 184.688C203.033 187.717 200.644 190.107 197.937 191.542C191.408 195.208 183.287 195.049 175.803 193.295C168.478 191.542 161.471 188.514 154.146 186.601C146.821 184.688 134.559 181.181 127.712 184.369C122.616 186.76 119.59 193.295 116.565 192.339C113.539 191.223 111.469 188.514 110.673 185.485C110.036 182.616 110.036 179.269 110.195 176.24Z" fill="#263238"/>
<path d="M111.151 228.362C111.629 237.128 112.107 245.895 114.177 254.343C116.247 262.79 119.909 271.079 125.961 277.455C133.923 285.584 144.433 293.394 155.739 295.306C168 297.379 183.128 294.828 193.16 287.337C197.938 283.83 201.441 276.179 199.849 270.441C203.83 268.529 206.696 264.384 207.014 259.921C207.333 255.458 204.626 249.88 200.963 249.242C203.67 248.764 204.307 244.62 203.352 242.229C202.396 239.679 198.893 239.2 196.186 239.679C193.479 240.157 191.25 241.751 189.02 243.345C186.791 244.939 184.721 246.692 182.173 247.489C173.574 250.198 164.975 242.707 156.057 243.026C147.936 243.345 140.77 250.039 132.649 248.923C128.19 248.286 124.368 245.257 121.82 241.432C119.272 237.606 120.387 223.58 119.432 219.117" fill="#263238"/>
<g opacity="0.6">
<g opacity="0.6">
<path opacity="0.6" d="M176.28 266.297C176.28 266.456 175.484 265.978 174.369 265.659C173.095 265.341 171.503 265.022 169.592 265.341C167.681 265.659 166.248 266.456 165.133 267.253C164.178 268.05 163.541 268.528 163.541 268.528C163.541 268.528 163.86 267.731 164.815 266.775C165.77 265.819 167.363 264.862 169.433 264.544C171.503 264.225 173.255 264.544 174.529 265.022C175.643 265.659 176.28 266.138 176.28 266.297Z" fill="#455A64"/>
</g>
</g>
<path d="M158.764 247.967C159.401 247.807 159.719 251.952 163.541 254.502C167.204 257.052 171.503 256.096 171.663 256.733C171.822 257.052 170.707 257.53 168.955 257.849C167.204 258.009 164.497 257.69 162.267 256.255C160.038 254.661 158.923 252.43 158.605 250.836C158.127 248.923 158.445 247.967 158.764 247.967Z" fill="white"/>
<path d="M146.821 292.597C146.821 292.597 147.139 292.756 147.935 292.915C148.572 293.234 149.687 293.553 150.961 293.872C153.668 294.669 157.49 295.466 162.426 295.625C164.815 295.784 167.522 295.784 170.389 295.466C173.255 295.306 176.28 294.669 179.306 293.712C182.332 292.756 185.516 291.321 188.542 289.568C191.568 287.655 194.275 285.424 196.504 282.396C199.052 278.889 200.326 274.426 199.689 270.441V270.122L200.007 269.963C202.078 269.166 203.67 267.572 204.944 265.819C205.581 265.022 206.059 264.065 206.536 263.109C207.014 262.153 207.173 261.196 207.173 260.24C207.492 256.255 205.74 252.589 203.352 250.517L203.192 250.358L203.352 250.198C204.944 248.126 205.103 245.576 204.307 243.663C203.511 241.75 201.918 240.635 200.644 239.997C199.211 239.519 198.097 239.519 197.3 239.519C196.504 239.678 196.186 239.678 196.186 239.678C196.186 239.678 196.504 239.519 197.3 239.36C198.097 239.2 199.37 239.2 200.804 239.678C202.237 240.157 203.989 241.272 204.785 243.344C205.581 245.417 205.581 248.286 203.829 250.517V250.039C206.536 252.27 208.288 255.936 207.97 260.24C207.81 261.356 207.651 262.312 207.173 263.428C206.696 264.384 206.218 265.341 205.422 266.297C204.148 268.05 202.396 269.644 200.167 270.76L200.326 270.282C201.122 274.585 199.689 279.208 197.141 282.874C194.912 286.062 192.045 288.452 189.02 290.365C185.994 292.278 182.809 293.712 179.625 294.669C176.44 295.625 173.414 296.103 170.548 296.422C167.681 296.741 164.974 296.741 162.426 296.422C157.49 296.103 153.509 295.147 150.961 294.35C149.687 293.872 148.572 293.553 147.935 293.234C147.139 292.756 146.821 292.597 146.821 292.597Z" fill="#455A64"/>
<path d="M74.6848 250.517C74.6848 250.517 74.3663 250.517 73.8886 250.039C73.4109 249.72 72.6147 249.083 72.2962 247.967C71.8185 246.851 71.6592 245.417 71.9777 243.663C72.2962 241.91 73.5701 240.316 75.1625 239.041C76.7549 237.766 78.9843 236.65 81.2137 235.853C83.4431 235.056 85.991 234.259 88.2203 232.825C90.4497 231.39 92.3606 229.159 93.4753 226.608C94.7492 223.899 95.227 220.87 95.3862 217.842C95.5454 211.626 94.1123 205.728 93.953 200.149C93.6345 194.73 94.7492 189.47 97.2971 186.123C99.6857 182.616 103.03 181.022 105.259 180.703C106.374 180.385 107.329 180.544 107.966 180.544C108.603 180.703 108.922 180.703 108.922 180.703C108.922 180.863 107.648 180.385 105.418 181.022C103.189 181.5 100.163 183.094 97.7748 186.442C95.3862 189.789 94.4308 194.73 94.7492 200.149C94.9085 205.569 96.3417 211.466 96.3417 217.842C96.1824 221.03 95.7047 224.217 94.4308 226.927C93.1568 229.637 91.2459 232.028 88.8573 233.462C86.4687 234.897 83.9208 235.694 81.6914 236.491C79.4621 237.288 77.3919 238.244 75.7995 239.519C74.2071 240.794 73.0924 242.229 72.7739 243.823C72.4554 245.417 72.6147 246.851 72.9332 247.808C73.2516 250.039 74.6848 250.358 74.6848 250.517Z" fill="#455A64"/>
<path d="M193.957 166.199C193.957 166.199 194.116 166.039 194.753 165.88C195.071 165.72 195.231 165.72 195.708 165.561C196.027 165.402 196.504 165.402 196.982 165.242C198.893 164.923 202.237 165.402 205.103 168.111C207.014 170.502 208.129 174.009 207.492 177.994C207.014 181.978 204.626 185.963 200.963 188.832C197.301 191.701 192.364 193.295 187.109 193.614C181.854 193.933 176.44 193.136 171.026 191.861C162.108 189.789 154.146 185.963 147.617 181.5C144.273 179.428 141.248 177.356 138.063 175.922C134.878 174.487 131.693 173.69 128.827 173.531C122.935 173.212 118.317 174.646 115.291 176.081C112.266 177.515 110.833 178.631 110.833 178.631C110.833 178.631 112.106 177.356 115.132 175.762C118.158 174.328 122.776 172.574 128.827 172.893C131.852 173.052 135.037 173.69 138.381 175.284C141.566 176.718 144.751 178.791 148.095 180.863C154.624 185.166 162.427 188.992 171.185 191.064C176.599 192.339 181.854 193.136 186.95 192.817C192.046 192.498 196.823 190.904 200.326 188.195C203.989 185.485 206.218 181.66 206.696 177.834C207.174 174.009 206.218 170.662 204.466 168.271C201.919 165.561 198.734 165.083 196.664 165.242C195.071 165.72 194.116 166.199 193.957 166.199Z" fill="#455A64"/>
<path d="M185.517 152.172C185.517 152.172 185.676 153.607 184.72 155.838C183.924 158.07 181.695 161.098 177.873 163.33C175.962 164.445 173.733 165.242 171.185 165.72C168.637 166.199 165.93 166.199 163.063 165.72C157.331 165.083 151.439 162.851 145.388 160.779C139.177 158.867 132.967 157.751 127.553 158.867C122.138 159.982 117.839 163.011 114.973 166.199C112.106 169.386 110.673 172.574 109.877 174.806C109.081 177.037 109.081 178.312 108.921 178.312C108.921 178.312 108.921 177.994 109.081 177.356C109.081 176.719 109.399 175.762 109.718 174.646C110.355 172.415 111.788 169.068 114.654 165.88C117.52 162.692 121.82 159.345 127.553 158.229C133.285 156.954 139.655 158.07 145.865 160.142C152.076 162.054 157.968 164.286 163.541 165.083C166.248 165.402 168.955 165.561 171.344 165.083C173.733 164.764 175.962 163.967 177.873 162.851C181.535 160.779 183.765 157.91 184.72 155.838C185.517 153.447 185.517 152.172 185.517 152.172Z" fill="#455A64"/>
<path d="M375.398 537.023H318.867V515.524H375.586C380.171 515.524 383.887 519.244 383.887 523.832V528.526C383.887 533.218 380.086 537.023 375.398 537.023Z" fill="#FCECDB"/>
<path d="M432.381 524.369V527.604C432.381 529.333 431.947 530.95 431.189 532.342C429.665 535.142 426.832 537.023 423.589 537.023H317.125C316.42 537.023 315.85 536.412 315.85 535.657V535.173C315.85 534.42 316.42 533.808 317.125 533.808H382.024C382.371 533.355 382.677 532.864 382.935 532.341C383.543 531.115 383.886 529.716 383.886 528.231V524.12C383.886 523.364 383.795 522.63 383.623 521.932C383.333 520.748 382.812 519.664 382.118 518.739H317.125C316.42 518.739 315.85 518.128 315.85 517.372V516.889C315.85 516.134 316.42 515.523 317.125 515.523H424.124C427.895 515.523 431.075 518.231 432.062 521.931C432.27 522.706 432.381 523.524 432.381 524.369Z" fill="#699DEE"/>
<path d="M432.062 521.932H383.623C383.333 520.748 382.812 519.664 382.118 518.739H317.125C316.42 518.739 315.85 518.128 315.85 517.372V516.889C315.85 516.134 316.42 515.523 317.125 515.523H424.124C427.896 515.523 431.076 518.231 432.062 521.932Z" fill="#548EE2"/>
<path d="M318.866 526.273L326.75 526.635L318.866 526.852V526.273Z" fill="#F4D2B8"/>
<path d="M318.866 529.646L337.62 530.007L318.866 530.226V529.646Z" fill="#F4D2B8"/>
<path d="M310.606 553.7H366.1V536.978H310.116C305.958 536.978 302.588 540.351 302.588 544.513V545.675C302.589 550.108 306.178 553.7 310.606 553.7Z" fill="#01BA57"/>
<path d="M363.426 553.7H426.673V536.977H363.253C359.026 536.977 355.599 540.407 355.599 544.639V545.865C355.599 550.192 359.103 553.7 363.426 553.7Z" fill="#FCECDB"/>
<path d="M351.42 553.7H428.808C429.45 553.7 429.971 553.178 429.971 552.536V552.362C429.971 551.719 429.45 551.198 428.808 551.198H351.42C350.778 551.198 350.257 551.719 350.257 552.362V552.536C350.258 553.179 350.778 553.7 351.42 553.7Z" fill="#01BA57"/>
<path d="M351.42 539.478H428.808C429.45 539.478 429.971 538.957 429.971 538.314V538.14C429.971 537.497 429.45 536.976 428.808 536.976H351.42C350.778 536.976 350.257 537.497 350.257 538.14V538.314C350.258 538.958 350.778 539.478 351.42 539.478Z" fill="#01BA57"/>
<path d="M426.674 545.338L418.057 545.62L426.674 545.789V545.338Z" fill="#F4D2B8"/>
<path d="M426.674 541.49L406.174 541.771L426.674 541.94V541.49Z" fill="#F4D2B8"/>
<path d="M406.385 541.715C406.385 541.715 407.264 542.434 407.555 543.615C407.607 543.821 407.639 544.042 407.646 544.275C407.695 545.844 407.646 549.396 407.646 549.396L410.239 547.62L412.826 549.396V544.582C412.826 543.672 412.604 542.786 412.192 542.207C411.993 541.926 411.75 541.715 411.476 541.715H406.385Z" fill="#699DEE"/>
<path d="M406.385 541.715C406.385 541.715 407.264 542.434 407.555 543.615L412.753 543.685C412.753 543.685 412.549 541.994 411.477 541.715H406.385Z" fill="#568CDB"/>
<path d="M359.221 515.569H304.602V491H359.421C364.268 491 368.197 494.933 368.197 499.785V506.586C368.197 511.546 364.179 515.569 359.221 515.569Z" fill="#FCECDB"/>
<path d="M368.228 500.533V505.821C368.214 508.079 367.169 510.038 365.632 511.086C364.876 511.6 364.001 511.894 363.073 511.894H302.929C302.224 511.894 301.652 512.577 301.652 513.42V514.044C301.652 514.886 302.224 515.57 302.929 515.57H406.827C409.809 515.57 412.444 513.799 414.034 511.087C415.038 509.378 415.627 507.298 415.627 505.051V500.879C415.627 499.339 415.333 497.882 414.806 496.584C413.471 493.28 410.641 491.002 407.365 491.002H302.929C302.224 491.002 301.652 491.684 301.652 492.526V493.15C301.652 493.993 302.224 494.676 302.929 494.676H363.256C364.697 494.676 366.003 495.41 366.915 496.584C367.721 497.623 368.219 499.007 368.228 500.533Z" fill="#AFCDFB"/>
<path d="M301.652 513.42V514.044C301.652 514.886 302.224 515.57 302.929 515.57H406.827C409.809 515.57 412.444 513.798 414.034 511.087H365.632C364.876 511.6 364.001 511.895 363.073 511.895H302.929C302.224 511.894 301.652 512.576 301.652 513.42Z" fill="#A4C4F4"/>
<path d="M304.602 503.284L312.312 503.697L304.602 503.946V503.284Z" fill="#F4D2B8"/>
<path d="M304.602 497.63L322.946 498.043L304.602 498.291V497.63Z" fill="#F4D2B8"/>
<path d="M322.756 497.961C322.756 497.961 321.545 498.739 321.144 500.021C321.074 500.245 321.028 500.484 321.018 500.737C320.952 502.438 321.018 506.289 321.018 506.289L317.444 504.364L313.879 506.289V501.07C313.879 500.083 314.185 499.124 314.753 498.495C315.029 498.19 315.363 497.961 315.74 497.961H322.756Z" fill="#F99746"/>
<path d="M322.756 497.961C322.756 497.961 321.545 498.739 321.144 500.021L313.982 500.097C313.982 500.097 314.263 498.263 315.741 497.961H322.756Z" fill="#ED7D2B"/>
<path d="M274.962 543.634L274.96 553.873L326.411 553.883L326.413 543.644L274.962 543.634Z" fill="#FF609B"/>
<path d="M274.96 553.875L267.399 550.637L263 548.754L267.502 546.828L274.963 543.636C274.963 543.636 275.959 546.13 275.974 548.473C275.996 552.152 274.96 553.875 274.96 553.875Z" fill="#FCECDB"/>
<path d="M332.394 547.042L332.393 550.279C332.393 552.27 330.779 553.884 328.791 553.884H326.411L326.413 543.645H329.002C330.875 543.646 332.394 545.167 332.394 547.042Z" fill="#FCECDB"/>
<path d="M267.502 546.826C267.69 547.861 267.852 549.446 267.399 550.635L263 548.752L267.502 546.826Z" fill="#2B478B"/>
</g>
<defs>
<clipPath id="clip0">
<rect width="697" height="577" fill="white" transform="translate(0 -23)"/>
</clipPath>
</defs>
</svg>
