<svg width="543" height="383" viewBox="0 0 543 383" fill="none" xmlns="http://www.w3.org/2000/svg">
<path opacity="0.4" d="M518.517 382.85C518.517 382.85 557.024 329.198 537.453 183.443C502.516 -76.7339 43.1762 -29.3349 83.3905 134.766C108.673 237.938 -45.5089 218.208 13.6075 383L518.517 382.85Z" fill="#01B555" fill-opacity="0.1"/>
<path d="M384.709 54.4631H146.909V228.802H384.709V54.4631Z" fill="#01B555"/>
<path d="M389.065 232.61H142.552V50.653H389.065V232.61ZM146.907 228.802H384.707V54.4631H146.907V228.802Z" fill="#EAC3A0"/>
<path d="M390.655 232.465H141.338C140.031 232.465 138.959 231.291 138.959 229.854V229.706C138.959 228.271 140.028 227.095 141.338 227.095H390.655C391.962 227.095 393.034 228.269 393.034 229.706V229.854C393.034 231.289 391.964 232.465 390.655 232.465Z" fill="#D39E7A"/>
<path d="M337.509 227.095H330.259C329.392 227.095 328.685 226.316 328.685 225.367V225.267C328.685 224.318 329.394 223.539 330.259 223.539H337.509C338.375 223.539 339.084 224.318 339.084 225.267V225.367C339.084 226.316 338.375 227.095 337.509 227.095Z" fill="white"/>
<path d="M289.772 227.095H286.145C285.486 227.095 284.947 226.504 284.947 225.78V224.856C284.947 224.133 285.486 223.541 286.145 223.541H289.772C290.431 223.541 290.97 224.133 290.97 224.856V225.78C290.97 226.504 290.431 227.095 289.772 227.095Z" fill="white"/>
<path d="M281.591 227.095H274.252C273.387 227.095 272.678 226.316 272.678 225.367V225.267C272.678 224.318 273.387 223.539 274.252 223.539H281.591C282.456 223.539 283.165 224.318 283.165 225.267V225.367C283.165 226.316 282.458 227.095 281.591 227.095Z" fill="white"/>
<path d="M457.005 125.047H423.588C422.053 125.047 420.799 123.669 420.799 121.985V86.5848C420.799 84.9004 422.053 83.5233 423.588 83.5233H457.005C458.54 83.5233 459.794 84.9004 459.794 86.5848V121.985C459.794 123.669 458.54 125.047 457.005 125.047Z" fill="#EAC3A0"/>
<path d="M455.557 123.246H425.035C423.633 123.246 422.487 121.987 422.487 120.451V88.1189C422.487 86.5801 423.635 85.3231 425.035 85.3231H455.557C456.959 85.3231 458.104 86.5824 458.104 88.1189V120.451C458.104 121.99 456.959 123.246 455.557 123.246Z" fill="#FFEEDE"/>
<path d="M439.488 89.1126C439.488 88.6228 439.85 88.2253 440.297 88.2253C440.743 88.2253 441.105 88.6228 441.105 89.1126C441.105 89.6024 440.743 89.9999 440.297 89.9999C439.85 89.9999 439.488 89.6024 439.488 89.1126Z" fill="#EAC3A0"/>
<path d="M446.008 90.3651C446.224 89.9376 446.717 89.7828 447.106 90.0208C447.496 90.2588 447.637 90.7995 447.42 91.2269C447.203 91.6544 446.711 91.8092 446.321 91.5712C445.93 91.3332 445.791 90.7925 446.008 90.3651Z" fill="#EAC3A0"/>
<path d="M451.591 95.2334C451.966 94.9676 452.467 95.0855 452.707 95.4968C452.949 95.9081 452.842 96.458 452.467 96.7214C452.092 96.9871 451.591 96.8693 451.351 96.458C451.109 96.049 451.216 95.4991 451.591 95.2334Z" fill="#EAC3A0"/>
<path d="M454.358 102.77C454.804 102.77 455.167 103.168 455.167 103.658C455.167 104.148 454.804 104.545 454.358 104.545C453.912 104.545 453.55 104.148 453.55 103.658C453.55 103.168 453.912 102.77 454.358 102.77Z" fill="#EAC3A0"/>
<path d="M452.943 111.518C453.259 111.865 453.259 112.426 452.943 112.773C452.628 113.119 452.116 113.119 451.8 112.773C451.485 112.426 451.485 111.865 451.8 111.518C452.116 111.172 452.628 111.172 452.943 111.518Z" fill="#EAC3A0"/>
<path d="M447.873 117.101C448.189 117.447 448.189 118.009 447.873 118.355C447.557 118.702 447.046 118.702 446.73 118.355C446.414 118.009 446.414 117.447 446.73 117.101C447.046 116.754 447.557 116.754 447.873 117.101Z" fill="#EAC3A0"/>
<path d="M439.488 119.977C439.488 119.487 439.85 119.09 440.297 119.09C440.743 119.09 441.105 119.487 441.105 119.977C441.105 120.467 440.743 120.864 440.297 120.864C439.85 120.864 439.488 120.467 439.488 119.977Z" fill="#EAC3A0"/>
<path d="M434.56 90.3651C434.343 89.9376 433.851 89.7828 433.461 90.0208C433.072 90.2588 432.931 90.7995 433.148 91.2269C433.365 91.6544 433.857 91.8092 434.247 91.5712C434.638 91.3332 434.777 90.7925 434.56 90.3651Z" fill="#EAC3A0"/>
<path d="M428.979 95.2334C428.604 94.9676 428.103 95.0855 427.863 95.4968C427.621 95.9081 427.728 96.458 428.103 96.7214C428.478 96.9871 428.979 96.8693 429.219 96.458C429.461 96.049 429.353 95.4991 428.979 95.2334Z" fill="#EAC3A0"/>
<path d="M426.212 102.771C425.765 102.771 425.403 103.168 425.403 103.658C425.403 104.148 425.765 104.545 426.212 104.545C426.658 104.545 427.02 104.148 427.02 103.658C427.018 103.168 426.658 102.771 426.212 102.771Z" fill="#EAC3A0"/>
<path d="M427.625 111.518C427.309 111.865 427.309 112.426 427.625 112.773C427.94 113.12 428.452 113.12 428.768 112.773C429.083 112.426 429.083 111.865 428.768 111.518C428.45 111.172 427.938 111.172 427.625 111.518Z" fill="#EAC3A0"/>
<path d="M432.695 117.101C432.379 117.447 432.379 118.009 432.695 118.355C433.011 118.702 433.522 118.702 433.838 118.355C434.154 118.009 434.154 117.447 433.838 117.101C433.522 116.754 433.011 116.754 432.695 117.101Z" fill="#EAC3A0"/>
<path d="M440.08 103.658C440.08 103.168 440.442 102.771 440.888 102.771C441.335 102.771 441.697 103.168 441.697 103.658C441.697 104.148 441.335 104.545 440.888 104.545C440.442 104.545 440.08 104.148 440.08 103.658Z" fill="#EAC3A0"/>
<path d="M440.998 92.5808H440.777V103.658H440.998V92.5808Z" fill="#EAC3A0"/>
<path d="M445.915 98.754L440.564 103.363L440.973 103.934L446.323 99.3247L445.915 98.754Z" fill="#EAC3A0"/>
<path d="M123.644 284.388V286.853C123.644 287.717 123.39 288.422 123.078 288.422H41.0936C40.7821 288.422 40.5273 287.717 40.5273 286.853V284.388C40.5273 283.526 40.7821 282.819 41.0936 282.819H123.078C123.39 282.819 123.644 283.526 123.644 284.388Z" fill="#D39E7A"/>
<path d="M123.644 284.388V286.853C123.644 287.717 123.41 288.422 123.126 288.422H58.0374C57.7532 288.422 57.5195 287.717 57.5195 286.853V284.388C57.5195 283.526 57.7532 282.819 58.0374 282.819H123.124C123.41 282.819 123.644 283.526 123.644 284.388Z" fill="#EFCBAB"/>
<path d="M102.895 288.422H44.6904V381.536H102.895V288.422Z" fill="#EAC3A0"/>
<path d="M119.204 288.422H60.999V381.536H119.204V288.422Z" fill="#F9DDBF"/>
<path d="M116.077 376.397H64.127V291.054H116.075V376.397H116.077ZM64.689 375.78H115.515V291.668H64.689V375.78Z" fill="#EAC3A0"/>
<path d="M115.798 319.284H64.4092V319.899H115.798V319.284Z" fill="#EAC3A0"/>
<path d="M115.798 348.067H64.4092V348.684H115.798V348.067Z" fill="#EAC3A0"/>
<path d="M95.3666 296.558H85.8303C85.3672 296.558 84.9883 296.142 84.9883 295.633C84.9883 295.125 85.3672 294.709 85.8303 294.709H95.3666C95.8297 294.709 96.2086 295.125 96.2086 295.633C96.2086 296.142 95.8297 296.558 95.3666 296.558Z" fill="#EAC3A0"/>
<path d="M95.3666 324.703H85.8303C85.3672 324.703 84.9883 324.287 84.9883 323.778C84.9883 323.27 85.3672 322.854 85.8303 322.854H95.3666C95.8297 322.854 96.2086 323.27 96.2086 323.778C96.2086 324.287 95.8297 324.703 95.3666 324.703Z" fill="#EAC3A0"/>
<path d="M95.3666 354.045H85.8303C85.3672 354.045 84.9883 353.629 84.9883 353.12C84.9883 352.612 85.3672 352.196 85.8303 352.196H95.3666C95.8297 352.196 96.2086 352.612 96.2086 353.12C96.2086 353.629 95.8297 354.045 95.3666 354.045Z" fill="#EAC3A0"/>
<path d="M441.976 380.473H442.077C442.672 380.473 443.15 379.934 443.136 379.283L441.529 302.835L436.795 302.23L440.83 379.29C440.868 379.953 441.369 380.473 441.976 380.473Z" fill="#EAC3A0"/>
<path d="M469.562 380.473H469.663C470.258 380.473 470.736 379.934 470.722 379.283L469.115 302.835L464.381 302.23L468.419 379.29C468.452 379.953 468.955 380.473 469.562 380.473Z" fill="#EAC3A0"/>
<path d="M393.442 380.473H393.34C392.745 380.473 392.267 379.934 392.282 379.283L393.888 302.835L398.622 302.23L394.585 379.29C394.551 379.953 394.05 380.473 393.442 380.473Z" fill="#EAC3A0"/>
<path d="M472.698 298.094V245.707C472.698 236.49 465.89 229.017 457.492 229.017H423.105C414.707 229.017 407.899 236.49 407.899 245.707V300.095L472.698 298.094Z" fill="#EFCBAB"/>
<path d="M401.737 306.364H468.131C470.653 306.364 472.697 304.12 472.697 301.352V298.094H401.737V306.364Z" fill="#EAC3A0"/>
<path d="M393.779 306.364H444.01C445.875 306.364 447.386 304.705 447.386 302.657V301.798C447.386 299.751 445.875 298.092 444.01 298.092H393.779C391.914 298.092 390.402 299.751 390.402 301.798V302.657C390.402 304.705 391.914 306.364 393.779 306.364Z" fill="#F9DDBF"/>
<path d="M505.812 382.072H505.945C506.732 382.072 507.363 381.319 507.347 380.406L505.223 273.369L498.962 272.521L504.301 380.415C504.347 381.346 505.01 382.072 505.812 382.072Z" fill="#D39E7A"/>
<path d="M353.142 382.072H353.01C352.222 382.072 351.591 381.319 351.608 380.406L353.732 273.369L359.993 272.521L354.654 380.415C354.608 381.346 353.944 382.072 353.142 382.072Z" fill="#D39E7A"/>
<path d="M517.608 275.337H345.107C343.768 275.337 342.682 274.145 342.682 272.676V270.518C342.682 269.048 343.768 267.856 345.107 267.856H517.608C518.947 267.856 520.033 269.048 520.033 270.518V272.676C520.031 274.148 518.944 275.337 517.608 275.337Z" fill="#D39E7A"/>
<path d="M373.864 263.181H358.31V257.151H373.913C375.125 257.151 376.108 258.23 376.108 259.561V260.714C376.111 262.077 375.106 263.181 373.864 263.181Z" fill="#FCECDB"/>
<path d="M389.39 259.633V260.541C389.39 261.026 389.272 261.479 389.063 261.869C388.646 262.655 387.87 263.182 386.983 263.182H357.838C357.644 263.182 357.488 263.011 357.488 262.798V262.662C357.488 262.449 357.644 262.278 357.838 262.278H375.605C375.7 262.151 375.784 262.012 375.854 261.867C376.02 261.523 376.115 261.13 376.115 260.714V259.561C376.115 259.348 376.089 259.143 376.043 258.946C375.963 258.614 375.822 258.311 375.63 258.052H357.838C357.644 258.052 357.488 257.881 357.488 257.669V257.532C357.488 257.32 357.644 257.149 357.838 257.149H387.131C388.162 257.149 389.034 257.909 389.303 258.946C389.36 259.166 389.39 259.395 389.39 259.633Z" fill="#699DEE"/>
<path d="M389.303 258.949H376.043C375.963 258.616 375.822 258.314 375.63 258.055H357.838C357.644 258.055 357.488 257.884 357.488 257.671V257.535C357.488 257.323 357.644 257.152 357.838 257.152H387.131C388.162 257.152 389.032 257.912 389.303 258.949Z" fill="#548EE2"/>
<path d="M358.314 260.166L360.472 260.268L358.314 260.328V260.166Z" fill="#F4D2B8"/>
<path d="M358.314 261.111L363.449 261.213L358.314 261.276V261.111Z" fill="#F4D2B8"/>
<path d="M362.023 267.858H378.582V263.168H361.891C360.748 263.168 359.821 264.184 359.821 265.439C359.819 266.774 360.806 267.858 362.023 267.858Z" fill="#B5453C"/>
<path d="M377.631 267.858H396.476V263.168H377.585C376.423 263.168 375.479 264.2 375.479 265.476V265.494C375.479 266.8 376.442 267.858 377.631 267.858Z" fill="#FCECDB"/>
<path d="M374.22 267.858H397.129C397.305 267.858 397.449 267.701 397.449 267.507C397.449 267.313 397.305 267.156 397.129 267.156H374.22C374.044 267.156 373.9 267.313 373.9 267.507C373.9 267.701 374.044 267.858 374.22 267.858Z" fill="#B5453C"/>
<path d="M374.22 263.87H397.129C397.305 263.87 397.449 263.713 397.449 263.519C397.449 263.325 397.305 263.168 397.129 263.168H374.22C374.044 263.168 373.9 263.325 373.9 263.519C373.9 263.713 374.044 263.87 374.22 263.87Z" fill="#B5453C"/>
<path d="M396.475 265.513L393.93 265.592L396.475 265.64V265.513Z" fill="#F4D2B8"/>
<path d="M396.474 264.434L390.42 264.513L396.474 264.561V264.434Z" fill="#F4D2B8"/>
<path d="M390.479 264.496C390.479 264.496 390.738 264.697 390.825 265.03C390.839 265.088 390.85 265.15 390.852 265.215C390.867 265.656 390.852 266.652 390.852 266.652L391.618 266.153L392.383 266.652V265.303C392.383 265.048 392.317 264.799 392.195 264.637C392.136 264.559 392.065 264.499 391.985 264.499H390.479V264.496Z" fill="#699DEE"/>
<path d="M390.479 264.496C390.479 264.496 390.738 264.697 390.825 265.03L392.359 265.048C392.359 265.048 392.298 264.575 391.983 264.496H390.479Z" fill="#568CDB"/>
<path d="M390.619 257.151H381.727V252.645H390.697C391.351 252.645 391.882 253.228 391.882 253.946V255.767C391.88 256.532 391.315 257.151 390.619 257.151Z" fill="#F99746"/>
<path d="M384.129 257.151H356.289V252.645H384.176C385.258 252.645 386.136 253.609 386.136 254.796V254.949C386.134 256.167 385.237 257.151 384.129 257.151Z" fill="#FCECDB"/>
<path d="M388.082 257.151H355.202C355.038 257.151 354.905 257.005 354.905 256.825V256.802C354.905 256.622 355.038 256.476 355.202 256.476H388.082C388.246 256.476 388.379 256.622 388.379 256.802V256.825C388.379 257.005 388.246 257.151 388.082 257.151Z" fill="#F99746"/>
<path d="M388.082 253.32H355.202C355.038 253.32 354.905 253.174 354.905 252.994V252.971C354.905 252.791 355.038 252.645 355.202 252.645H388.082C388.246 252.645 388.379 252.791 388.379 252.971V252.994C388.379 253.172 388.246 253.32 388.082 253.32Z" fill="#F99746"/>
<path d="M499.55 264.804H498.376V242.587L510.4 208.909L488.928 190.646L489.648 189.627L511.815 208.481L499.55 242.832V264.804Z" fill="#EAC3A0"/>
<path d="M486.503 192.973C485.962 192.552 485.835 191.732 486.218 191.138L488.008 188.37C488.391 187.776 489.138 187.637 489.679 188.058C490.22 188.479 490.347 189.299 489.964 189.893L488.176 192.661C487.791 193.254 487.042 193.393 486.503 192.973Z" fill="#EAC3A0"/>
<path d="M510.841 210.228C511.7 210.228 512.397 209.463 512.397 208.52C512.397 207.577 511.7 206.813 510.841 206.813C509.982 206.813 509.285 207.577 509.285 208.52C509.285 209.463 509.982 210.228 510.841 210.228Z" fill="#EAC3A0"/>
<path d="M489.164 212.134C489.107 212.204 489.052 212.273 488.993 212.335L488.981 212.349C488.926 212.416 488.871 212.481 488.814 212.543C487.208 214.073 481.884 211.33 476.735 206.277C471.586 201.224 468.51 195.722 469.716 193.8C469.767 193.731 469.82 193.664 469.874 193.597L469.887 193.583C469.94 193.513 469.994 193.444 470.051 193.375C474.771 187.582 482.876 187.085 488.153 192.266C493.433 197.446 493.883 206.339 489.164 212.134Z" fill="#F99746"/>
<path d="M488.994 212.338L488.982 212.351C488.965 212.377 488.946 212.4 488.929 212.423C488.893 212.469 488.855 212.506 488.815 212.545C487.211 214.075 481.885 211.335 476.738 206.279C471.589 201.228 468.513 195.727 469.718 193.804C469.749 193.756 469.783 193.707 469.817 193.666C469.833 193.643 469.852 193.62 469.876 193.601L469.888 193.585C470.981 192.45 473.949 193.462 477.416 195.926C478.892 196.975 480.458 198.287 482.009 199.81C483.226 201.006 484.327 202.226 485.285 203.416C488.409 207.305 489.984 210.898 488.994 212.338Z" fill="#F9DDBF"/>
<path d="M485.285 203.412C484.378 204.234 483.21 204.724 481.938 204.724C479.02 204.724 476.654 202.127 476.654 198.925C476.654 197.825 476.934 196.797 477.416 195.921C478.892 196.97 480.458 198.282 482.01 199.805C483.226 201.002 484.327 202.222 485.285 203.412Z" fill="#FFF0E3"/>
<path d="M504.67 267.858H492.841V266.548C492.841 265.231 493.813 264.164 495.013 264.164H502.409C503.657 264.164 504.67 265.275 504.67 266.645V267.858Z" fill="#EAC3A0"/>
<path d="M500.199 244.161H497.715V264.804H500.199V244.161Z" fill="#EAC3A0"/>
<path d="M246.095 287.006L256.319 241.862L328.557 261.573L246.095 287.006ZM259.608 247.86L252.341 279.938L310.939 261.867L259.608 247.86Z" fill="#F9DDBF"/>
<path d="M284.327 252.075L280.993 251.165L275.613 274.916L278.947 275.826L284.327 252.075Z" fill="#EAC3A0"/>
<path d="M225.785 279.157C220.829 313.009 216.745 349.488 218.514 368.694C219.97 374.07 224.471 375.863 228.45 376.561L225.715 379.835L218.015 380.318L207.738 375.875C207.738 375.875 208.331 373.648 208.805 369.761C209.35 365.246 207.445 354.925 207.445 354.925C207.445 354.925 202.433 319.278 205.285 311.271C206.096 308.998 206.628 306.394 206.957 303.568V303.566C207.796 296.366 207.327 287.711 206.773 279.295C206.176 270.155 205.479 261.303 206.266 254.912C209.857 225.746 209.899 200.521 209.899 200.521H230.065C230.065 200.521 235.778 218.338 233.115 233.613C230.856 246.599 228.214 262.562 225.785 279.157Z" fill="#FFB27D"/>
<path d="M206.958 303.561C207.798 296.361 207.328 287.706 206.774 279.291L221.664 272.683L225.786 279.157C225.152 280.007 214.075 294.351 206.958 303.561Z" fill="#F3A36C"/>
<path d="M264.889 178.15C264.889 178.15 267.173 175.5 268.808 174.19C270.444 172.88 275.033 171.568 275.499 173.767C275.707 174.747 274.095 176.91 272.932 177.681C271.773 178.453 271.591 179.433 270.356 180.814C269.122 182.194 266.103 182.263 266.103 182.263L264.889 178.15Z" fill="#FFB27D"/>
<path d="M197.793 156.253C196.833 154.22 218.754 146.895 219.102 166.967C219.102 166.967 260.166 165.858 240.559 140.738C233.772 132.041 234.469 124.85 234.673 118.156C234.88 111.463 230.446 92.0054 215.245 93.9648C215.245 93.9648 211.264 92.1879 206.296 95.0161C195 101.449 169.692 163.654 197.793 156.253Z" fill="#233862"/>
<path d="M226.27 180.138C226.27 180.138 227.722 183.296 230.358 186.924C233.534 191.291 238.431 196.335 244.58 197.33C247.517 197.806 250.39 197.113 253.03 195.824C253.036 195.822 253.041 195.822 253.041 195.822C260.51 192.183 266.124 183.816 266.124 183.816C267.44 179.874 265.286 177.203 265.286 177.203C265.286 177.203 250.207 180.925 248.769 180.138C247.334 179.35 238.955 152.859 236.962 149.529C234.966 146.2 228.168 144.472 228.168 144.472L226.27 180.138Z" fill="#ADC8FE"/>
<path d="M230.358 186.924C233.535 191.291 238.431 196.335 244.58 197.33C247.517 197.806 250.391 197.113 253.03 195.824C252.738 195.865 245.279 196.877 242.307 191.039C239.273 185.082 235.996 175.625 231.491 178.776C229.546 180.14 229.632 183.52 230.358 186.924Z" fill="#8EB3EF"/>
<path d="M183.749 381.846C183.749 381.846 178.823 381.846 176.8 381.846C174.781 381.846 172.48 380.147 171.918 376.145C171.358 372.143 167.205 369.96 166.308 366.686C165.691 364.435 167.148 362.83 168.529 361.593C169.16 361.025 169.777 360.535 170.169 360.101C171.581 358.536 172.916 351.773 172.916 351.773L180.244 356.006C180.244 356.006 176.791 362.448 178.783 369.697C179.713 373.084 180.547 376.205 182.606 378.151C183.092 378.613 183.648 379.004 184.286 379.322C187.488 380.907 183.749 381.846 183.749 381.846Z" fill="#FFB27D"/>
<path d="M189.068 166.967C189.068 166.967 188.682 172.928 189.068 180.082C189.325 184.823 193.695 191.175 194.314 192.746C195.869 196.688 197.625 197.328 197.625 197.328L211.199 200.979L215.971 202.261L231.023 197.328C231.023 197.328 237.877 176.327 235.126 164.504C232.372 152.681 228.168 144.472 228.168 144.472C228.168 144.472 210.864 139.532 197.459 143.829L189.068 166.967Z" fill="#ADC8FE"/>
<path d="M198.486 199.756C198.486 199.756 187.116 216.501 186.057 227.818C184.996 239.138 195.051 270.467 192.794 281.5C191.118 289.691 182.184 296.186 179.717 316.833C178.86 324.005 175.767 338.349 172.915 351.769L179.214 358.555C194.219 321.02 209.734 297.389 210.65 289.092C211.298 283.219 214.34 252.322 226.646 229.512C229.6 224.036 224.834 202.261 224.834 202.261L198.486 199.756Z" fill="#FFB27D"/>
<path d="M233.825 238.304C232.153 260.661 230.185 279.494 230.185 279.494C230.185 279.494 220.686 286.518 207.245 287.412L207.243 287.415H207.241C201.1 287.821 194.139 286.953 186.882 283.549C186.882 283.549 184.116 229.556 185.876 220.956C187.638 212.356 195.433 200.521 195.433 200.521L230.505 202.009C230.507 202.005 235.496 215.942 233.825 238.304Z" fill="#F99746"/>
<path d="M231.258 196.586C231.258 196.586 228.266 199.184 222.321 199.315C215.221 199.472 197.628 197.328 197.628 197.328C197.628 197.328 196.847 199.726 196.879 202.257C196.879 202.257 218.366 208.206 230.818 203.125C230.814 203.125 232.42 199.81 231.258 196.586Z" fill="#ED7D2B"/>
<path d="M220.784 202.007C220.784 199.786 222.237 197.982 224.024 197.982C225.811 197.982 227.264 199.786 227.264 202.007C227.264 204.225 225.811 206.032 224.024 206.032C222.237 206.032 220.784 204.225 220.784 202.007ZM221.858 202.007C221.858 203.576 222.83 204.854 224.024 204.854C225.218 204.854 226.19 203.576 226.19 202.007C226.19 200.438 225.218 199.16 224.024 199.16C222.828 199.16 221.858 200.436 221.858 202.007Z" fill="white"/>
<path d="M174.484 201.183L196.501 222.224L222.741 189.147L200.725 168.106L174.484 201.183Z" fill="#233862"/>
<path d="M202.591 201.27C202.591 201.27 210.658 202.305 210.633 204.408C210.607 206.51 208.622 210.826 207.626 211.018C206.629 211.21 201.061 205.179 201.061 205.179L202.591 201.27Z" fill="#FFB27D"/>
<path d="M199.896 143.353C199.896 143.353 189.126 144.183 184.998 155.197C180.869 166.212 173.036 184.705 173.036 187.815C173.036 190.925 177.411 200.517 200.908 206.032C200.908 206.032 203.337 203.227 203.192 201.006C203.192 201.006 188.524 187.178 188.564 185.563C188.637 182.506 190.968 178.469 203.847 164.331C207.348 160.486 199.896 143.353 199.896 143.353Z" fill="#ADC8FE"/>
<path d="M263.335 209.701L295.606 105.589C295.756 105.116 295.954 104.663 295.524 104.489L295.133 104.332C294.693 104.157 294.564 104.469 294.404 104.952L260.005 207.566C259.68 208.546 260.101 209.637 260.969 210.059L261.767 210.448C262.388 210.755 263.114 210.408 263.335 209.701Z" fill="#F9DDBF"/>
<path d="M267.718 177.642C267.718 177.642 269.183 177.589 270.737 177.145C271.958 176.794 273.524 176.17 273.524 176.17C274.446 176.907 271.244 178.915 270.427 180.288C269.76 181.408 269.002 181.732 267.162 182.166L267.718 177.642Z" fill="#FFB27D"/>
<path d="M216.136 381.545C220.622 380.935 219.439 382.192 225.727 382.234C232.015 382.275 234.166 379.976 234.465 378.987C234.731 378.109 231.697 377.4 228.451 376.561L228.335 376.651C228.335 376.651 224.382 379.047 219.199 378.52C214.974 378.093 210.654 376.196 207.741 375.875C207.562 376.924 207.385 377.996 207.467 379.08C207.692 382.157 211.65 382.157 216.136 381.545Z" fill="#233862"/>
<path d="M183.749 381.845C183.749 381.845 178.823 381.845 176.8 381.845C174.781 381.845 172.48 380.147 171.918 376.145C171.358 372.143 167.205 369.96 166.308 366.686C165.691 364.435 167.148 362.829 168.529 361.593C169.291 362.85 170.941 365.986 172.558 371.762C174.446 378.514 178.974 378.708 182.606 378.146C183.092 378.608 183.648 378.999 184.286 379.318C187.488 380.907 183.749 381.845 183.749 381.845Z" fill="#233862"/>
<path d="M201.589 142.782C203.772 142.251 205.578 140.569 206.329 138.258C207.235 135.474 207.955 131.366 207.938 126.216L208.62 126.364L220.078 128.854C220.078 128.854 219.817 132.812 219.809 136.542C219.809 136.572 219.809 136.604 219.809 136.634C219.794 139.873 221.731 142.732 224.564 143.628C226.012 144.086 217.663 156.151 216.708 155.913C214.72 155.419 200.896 142.951 201.589 142.782Z" fill="#FFB27D"/>
<path d="M220.079 128.852C220.079 128.852 219.818 132.81 219.809 136.539C213.397 136.341 210.008 129.919 208.618 126.361L220.079 128.852Z" fill="#E8945B"/>
<path d="M222.219 132.383C222.219 132.383 207.047 132.658 207.036 122.285C207.026 111.913 205.062 104.963 214.748 104.349C224.433 103.734 226.32 107.69 227.09 111.151C227.86 114.612 226.164 132.043 222.219 132.383Z" fill="#FFB27D"/>
<path d="M221.657 104.094C221.657 104.094 217.503 116.264 211.129 118.062C204.754 119.862 201.988 117.985 201.988 117.985C201.988 117.985 206.879 113.722 207.893 106.28C207.893 106.28 218.524 98.3017 221.657 104.094Z" fill="#233862"/>
<path d="M220.627 105.083C220.627 105.083 223.707 106.347 224.974 108.812C226.214 111.225 227.271 114.418 227.024 118.334C227.024 118.334 230.155 110.062 226.637 105.384C222.909 100.423 220.627 105.083 220.627 105.083Z" fill="#233862"/>
<path d="M219.253 126.225C219.253 126.225 219.516 127.447 222.286 127.258C222.286 127.258 224.613 127.101 224.541 125.756C224.541 125.758 222.284 124.802 219.253 126.225Z" fill="white"/>
<path d="M216.708 155.913C216.708 155.913 206.448 143.882 206.063 138.965C206.063 138.965 203.446 139.762 200.368 143.05C200.368 143.05 202.833 149.832 205.778 152.069C205.778 152.069 207.921 151.738 209.61 150.976C209.61 150.976 208.538 152.926 207.69 154.09C207.688 154.088 212.338 156.981 216.708 155.913Z" fill="#D7E6FF"/>
<path d="M220.303 139.425C220.303 139.425 224.351 147.545 216.707 155.913C216.707 155.913 221.505 154.906 223.97 151.195C223.97 151.195 223.206 149.204 222.555 148.741C222.555 148.741 223.995 148.113 224.9 149.035C224.9 149.035 225.45 144.682 224.9 143.355C224.351 142.027 221.492 139.381 220.303 139.425Z" fill="#D7E6FF"/>
<path d="M215.942 155.913C215.942 155.449 216.286 155.075 216.707 155.075C217.13 155.075 217.471 155.451 217.471 155.913C217.471 156.378 217.128 156.752 216.707 156.752C216.286 156.752 215.942 156.375 215.942 155.913Z" fill="#233862"/>
<path d="M220.021 167.806C220.021 167.341 220.365 166.967 220.786 166.967C221.207 166.967 221.55 167.344 221.55 167.806C221.55 168.27 221.207 168.644 220.786 168.644C220.365 168.644 220.021 168.268 220.021 167.806Z" fill="#233862"/>
<path d="M220.784 181.753C220.784 181.288 221.127 180.914 221.548 180.914C221.969 180.914 222.313 181.29 222.313 181.753C222.313 182.217 221.969 182.591 221.548 182.591C221.127 182.591 220.784 182.217 220.784 181.753Z" fill="#233862"/>
<path d="M233.823 238.304C232.151 260.661 230.183 279.494 230.183 279.494C230.183 279.494 220.684 286.518 207.243 287.413C207.481 287.316 215.125 284.081 220.781 276.812C226.53 269.427 233.823 238.304 233.823 238.304Z" fill="#ED7D2B"/>
<g opacity="0.6">
<path opacity="0.6" d="M320.627 72.5228H321.873L325.239 80.9795H323.818L323.041 78.9532H319.425L318.638 80.9795H317.261L320.627 72.5228ZM322.551 77.6454L321.229 74.2881L319.917 77.6454H322.551Z" fill="white"/>
<path opacity="0.6" d="M333.27 72.5831H336.701C337.575 72.5831 338.263 72.8465 338.701 73.3271C339.04 73.6991 339.214 74.1543 339.214 74.7435C339.214 75.7509 338.69 76.2916 338.122 76.6151C339.019 76.9501 339.642 77.5139 339.642 78.6784C339.642 80.178 338.516 80.982 336.812 80.982H333.272V72.5831H333.27ZM336.427 76.1206C337.29 76.1206 337.869 75.7486 337.869 74.9561C337.869 74.2976 337.389 73.8886 336.526 73.8886H334.592V76.1206H336.427ZM336.821 79.6719C337.739 79.6719 338.297 79.2768 338.297 78.4959C338.297 77.7888 337.783 77.3683 336.722 77.3683H334.592V79.6719H336.821Z" fill="white"/>
<path opacity="0.6" d="M347.542 76.781C347.542 74.3942 349.171 72.4395 351.487 72.4395C352.897 72.4395 353.75 72.9801 354.481 73.7472L353.617 74.8378C353.005 74.214 352.35 73.7934 351.476 73.7934C350.011 73.7934 348.952 75.1128 348.952 76.781C348.952 78.4238 350.013 79.7686 351.476 79.7686C352.415 79.7686 353.017 79.3481 353.672 78.678L354.535 79.6369C353.737 80.5495 352.864 81.1249 351.432 81.1249C349.205 81.1226 347.542 79.2163 347.542 76.781Z" fill="white"/>
<path opacity="0.6" d="M311.048 91.4301H313.9C316.304 91.4301 317.965 93.2415 317.965 95.6283C317.965 97.9921 316.304 99.8266 313.9 99.8266H311.048V91.4301ZM313.9 98.4819C315.507 98.4819 316.555 97.2943 316.555 95.6283C316.555 93.9855 315.507 92.7748 313.9 92.7748H312.393V98.4842H313.9V98.4819Z" fill="white"/>
<path opacity="0.6" d="M326.314 91.4301H331.986V92.7494H327.658V94.9329H331.493V96.2522H327.658V98.5073H332.04V99.8266H326.314V91.4301Z" fill="white"/>
<path opacity="0.6" d="M340.356 91.4301H346.049V92.7725H341.7V95.0646H345.556V96.407H341.7V99.8243H340.356V91.4301Z" fill="white"/>
<path opacity="0.6" d="M353.907 95.6282C353.907 93.2783 355.547 91.2866 357.852 91.2866C359.185 91.2866 360.006 91.6933 360.791 92.4257L359.938 93.5417C359.349 92.9895 358.77 92.6429 357.798 92.6429C356.387 92.6429 355.318 93.9992 355.318 95.6305C355.318 97.3588 356.355 98.6296 357.92 98.6296C358.642 98.6296 359.296 98.3778 359.766 97.9942V96.423H357.81V95.1407H361.067V98.662C360.313 99.369 359.231 99.9697 357.875 99.9697C355.482 99.9697 353.907 98.0982 353.907 95.6282Z" fill="white"/>
<path opacity="0.6" d="M307.209 110.275H308.552V113.766H312.202V110.275H313.548V118.672H312.202V115.134H308.552V118.672H307.209V110.275Z" fill="white"/>
<path opacity="0.6" d="M322.311 110.275H323.654V118.672H322.311V110.275Z" fill="white"/>
<path opacity="0.6" d="M331.665 117.435L332.551 116.44C333 117.063 333.448 117.424 334.092 117.424C334.814 117.424 335.305 116.897 335.305 115.781V110.275H336.682V115.816C336.682 116.812 336.418 117.556 335.972 118.048C335.524 118.54 334.88 118.792 334.113 118.792C332.932 118.792 332.168 118.191 331.665 117.435Z" fill="white"/>
<path opacity="0.6" d="M345.248 110.275H346.591V114.496L350.231 110.275H351.881L348.7 113.884L352.022 118.669H350.395L347.783 114.892L346.591 116.234V118.669H345.248V110.275Z" fill="white"/>
<path opacity="0.6" d="M359.891 110.275H361.234V117.327H365.255V118.669H359.889V110.275H359.891Z" fill="white"/>
<path opacity="0.6" d="M309.497 129.122H310.929L313.257 133.092L315.585 129.122H317.017V137.519H315.671V131.497L313.257 135.455H313.213L310.819 131.521V137.519H309.497V129.122Z" fill="white"/>
<path opacity="0.6" d="M325.701 129.122H326.947L331.046 134.926V129.122H332.368V137.519H331.242L327.023 131.546V137.519H325.701V129.122Z" fill="white"/>
<path opacity="0.6" d="M340.72 133.321C340.72 130.957 342.381 128.979 344.73 128.979C347.079 128.979 348.719 130.934 348.719 133.321C348.719 135.684 347.058 137.662 344.709 137.662C342.358 137.662 340.72 135.708 340.72 133.321ZM347.309 133.321C347.309 131.689 346.227 130.333 344.709 130.333C343.191 130.333 342.13 131.664 342.13 133.321C342.13 134.952 343.212 136.308 344.732 136.308C346.248 136.308 347.309 134.975 347.309 133.321Z" fill="white"/>
<path opacity="0.6" d="M357.064 129.122H360.081C361.862 129.122 362.988 130.238 362.988 131.953C362.988 133.836 361.612 134.82 359.927 134.82H358.408V137.519H357.064V129.122ZM359.972 133.489C360.988 133.489 361.622 132.865 361.622 131.967C361.622 130.982 360.978 130.467 359.972 130.467H358.41V133.489H359.972Z" fill="white"/>
<path opacity="0.6" d="M317.194 155.717C316.55 156.221 315.763 156.51 314.866 156.51C312.517 156.51 310.877 154.555 310.877 152.168C310.877 149.804 312.538 147.826 314.887 147.826C317.237 147.826 318.876 149.781 318.876 152.168C318.876 153.115 318.603 154.014 318.1 154.747L318.973 155.562L318.11 156.618L317.194 155.717ZM316.201 154.747L314.889 153.524L315.752 152.445L317.074 153.765C317.338 153.321 317.468 152.78 317.468 152.17C317.468 150.539 316.386 149.183 314.868 149.183C313.35 149.183 312.289 150.514 312.289 152.17C312.289 153.802 313.372 155.158 314.891 155.158C315.392 155.153 315.841 154.998 316.201 154.747Z" fill="white"/>
<path opacity="0.6" d="M327.229 147.97H330.639C332.43 147.97 333.481 149.026 333.481 150.645C333.481 152.025 332.727 152.852 331.656 153.187L333.721 156.366H332.136L330.235 153.439H328.574V156.366H327.231V147.97H327.229ZM330.538 152.131C331.5 152.131 332.112 151.579 332.112 150.703C332.112 149.804 331.523 149.312 330.527 149.312H328.572V152.131H330.538Z" fill="white"/>
<path opacity="0.6" d="M341.335 155.142L342.143 154.086C342.876 154.781 343.609 155.176 344.558 155.176C345.389 155.176 345.914 154.756 345.914 154.097C345.914 153.496 345.608 153.173 344.187 152.801C342.558 152.38 341.64 151.854 341.64 150.282C341.64 148.843 342.733 147.847 344.253 147.847C345.366 147.847 346.253 148.219 347.029 148.903L346.307 150.019C345.619 149.455 344.931 149.155 344.232 149.155C343.444 149.155 342.985 149.599 342.985 150.174C342.985 150.821 343.335 151.11 344.8 151.493C346.417 151.925 347.259 152.561 347.259 153.977C347.259 155.548 346.133 156.484 344.526 156.484C343.356 156.486 342.253 156.04 341.335 155.142Z" fill="white"/>
<path opacity="0.6" d="M357.444 149.337H355.019V147.97H361.227V149.337H358.802V156.366H357.446V149.337H357.444Z" fill="white"/>
<path opacity="0.6" d="M315.761 171.651V166.817H317.106V171.591C317.106 173.15 317.839 173.989 319.041 173.989C320.232 173.989 320.965 173.196 320.965 171.651V166.817H322.308V171.579C322.308 174.086 321.019 175.345 319.02 175.345C317.028 175.343 315.761 174.084 315.761 171.651Z" fill="white"/>
<path opacity="0.6" d="M330.218 166.817H331.704L334.009 173.27L336.304 166.817H337.756L334.575 175.274H333.394L330.218 166.817Z" fill="white"/>
<path opacity="0.6" d="M345.198 166.817H346.651L348.476 173.042L350.356 166.794H351.492L353.372 173.042L355.197 166.817H356.608L353.941 175.274H352.783L350.903 169.241L349.023 175.274H347.865L345.198 166.817Z" fill="white"/>
<path opacity="0.6" d="M320.689 189.789L318.011 185.662H319.596L321.497 188.673L323.408 185.662H324.949L322.282 189.763L325.059 194.056H323.474L321.463 190.877L319.442 194.056H317.901L320.689 189.789Z" fill="white"/>
<path opacity="0.6" d="M335.418 190.747L332.38 185.662H333.965L336.106 189.38L338.27 185.662H339.811L336.773 190.71V194.056H335.418V190.747Z" fill="white"/>
<path opacity="0.6" d="M347.438 192.968L351.952 186.97H347.582V185.662H353.701V186.752L349.188 192.751H353.701V194.058H347.438V192.968Z" fill="white"/>
</g>
<path d="M468.082 243.291L466.723 243.531L469.296 261.104L470.655 260.864L468.082 243.291Z" fill="#B5453C"/>
<path d="M466.962 240.323L466.734 243.537L468.092 243.299L466.962 240.323Z" fill="#F9DDBF"/>
<path d="M482.823 245.05L481.47 244.774L478.509 262.273L479.862 262.549L482.823 245.05Z" fill="#B5453C"/>
<path d="M482.654 241.839L481.456 244.782L482.807 245.057L482.654 241.839Z" fill="#EFCBAB"/>
<path d="M481.108 239.915L479.757 239.639L476.796 257.139L478.147 257.414L481.108 239.915Z" fill="#B5453C"/>
<path d="M480.941 236.707L479.743 239.648L481.095 239.926L480.941 236.707Z" fill="#EFCBAB"/>
<path d="M482.663 250.716H471.826V267.858H482.663V250.716Z" fill="#ED7D2B"/>
<path d="M477.247 250.716H466.41V267.858H477.247V250.716Z" fill="#F99746"/>
<path d="M78.0339 246.268C78.0339 246.268 83.3767 239.426 78.3644 235.08C78.3644 235.08 74.7014 232.647 71.7164 232.844C71.7164 232.844 75.9477 240.63 74.5793 241.407C73.211 242.181 70.4343 232.356 70.4343 232.356C70.4343 232.356 62.1001 231.469 59.4203 232.883C59.4203 232.883 66.544 239.281 65.0452 239.662C63.5442 240.043 55.85 233.763 55.85 233.763C55.85 233.763 48.0926 235.212 48.5073 240.406C48.9199 245.6 51.5934 247.204 52.7681 247.065C53.9427 246.927 60.8139 244.048 60.9633 245.104C61.1128 246.16 56.9762 249.611 54.0796 249.773C54.0796 249.773 59.5487 256.393 63.1821 254.482C66.8156 252.571 67.1272 249.544 69.3923 248.408C71.6574 247.271 73.592 247.275 72.6574 248.433C71.7227 249.591 67.6219 250.716 66.3272 253.232C65.0326 255.748 63.8684 257.444 67.6303 256.823C71.3901 256.201 77.5034 253.181 77.7707 249.725C78.0339 246.268 78.0339 246.268 78.0339 246.268Z" fill="#82B378"/>
<path d="M52.3125 240.547C52.3125 240.547 73.3786 239.655 78.0309 246.268C78.0309 246.268 79.0603 249.651 82.2264 252.731L82.719 254.207C82.719 254.207 79.0687 249.983 77.7614 249.727C77.7635 249.727 79.8076 241.534 52.3125 240.547Z" fill="#82B378"/>
<path d="M82.2251 252.731C82.2251 252.731 86.7469 256.402 87.0606 262.96L86.2396 263.04C86.2396 263.04 84.7955 256.259 82.1851 253.606C79.5768 250.954 82.2251 252.731 82.2251 252.731Z" fill="#82B378"/>
<path d="M96.7148 237.664C96.7148 237.664 88.2164 232.439 92.1825 225.351C92.1825 225.351 95.3549 220.997 98.7547 219.877C98.7547 219.877 96.9422 230.45 98.7547 230.699C100.567 230.949 100.001 218.758 100.001 218.758C100.001 218.758 108.954 214.031 112.468 214.405C112.468 214.405 106.914 224.729 108.729 224.479C110.541 224.23 116.775 213.781 116.775 213.781C116.775 213.781 125.953 211.917 127.427 217.887C128.9 223.858 126.519 226.843 125.159 227.217C123.8 227.589 115.074 227.467 115.299 228.71C115.526 229.953 121.419 231.945 124.705 230.824C124.705 230.824 121.078 240.651 116.318 240.154C111.558 239.658 110.085 236.423 107.137 236.173C104.19 235.924 102.037 236.795 103.51 237.666C104.984 238.537 109.969 237.95 112.35 240.173C114.728 242.393 116.657 243.761 112.236 244.757C107.815 245.753 99.8831 245.131 98.2958 241.397C96.7148 237.664 96.7148 237.664 96.7148 237.664Z" fill="#A8D29F"/>
<path d="M123.235 219.752C123.235 219.752 99.4363 228.211 96.7165 237.663C96.7165 237.663 96.8301 241.892 94.4492 246.744V248.611C94.4492 248.611 96.9417 242.266 98.3016 241.397C98.3016 241.395 92.9756 233.186 123.235 219.752Z" fill="#82B378"/>
<path d="M94.4482 246.744C94.4482 246.744 90.779 252.86 92.8715 260.307L93.8146 260.03C93.8146 260.03 92.8988 251.827 94.8187 247.703C96.7386 243.579 94.4482 246.744 94.4482 246.744Z" fill="#82B378"/>
<path d="M83.1926 230.459C83.1926 230.459 94.3961 223.574 89.1669 214.227C89.1669 214.227 84.984 208.488 80.5022 207.014C80.5022 207.014 82.8915 220.951 80.5022 221.279C78.1129 221.607 78.8581 205.54 78.8581 205.54C78.8581 205.54 67.0567 199.308 62.4254 199.8C62.4254 199.8 69.745 213.409 67.3557 213.081C64.9663 212.753 56.75 198.98 56.75 198.98C56.75 198.98 44.6497 196.522 42.7088 204.391C40.7657 212.261 43.9045 216.196 45.6959 216.688C47.4895 217.18 58.992 217.016 58.693 218.657C58.3941 220.297 50.6262 222.92 46.2938 221.443C46.2938 221.443 51.0746 234.396 57.3479 233.74C63.6212 233.084 65.5642 228.821 69.4482 228.493C73.3321 228.165 76.1698 229.313 74.2289 230.461C72.288 231.61 65.7137 230.838 62.577 233.766C59.4404 236.693 56.8995 238.495 62.7265 239.808C68.5535 241.12 79.0097 240.3 81.1001 235.381C83.1926 230.459 83.1926 230.459 83.1926 230.459Z" fill="#A8D29F"/>
<path d="M48.2354 206.847C48.2354 206.847 79.606 217.996 83.1911 230.459C83.1911 230.459 83.0416 236.035 86.1782 242.428V244.886C86.1782 244.886 82.8921 236.524 81.0986 235.376C81.1007 235.378 88.1213 224.556 48.2354 206.847Z" fill="#82B378"/>
<path d="M86.1789 242.428C86.1789 242.428 91.0165 250.492 88.2588 260.307L87.0147 259.94C87.0147 259.94 88.223 249.129 85.6926 243.692C83.1602 238.255 86.1789 242.428 86.1789 242.428Z" fill="#82B378"/>
<path d="M61.625 257.504C61.625 270.809 71.4518 281.592 83.571 281.592C86.1014 281.592 88.5328 281.123 90.7937 280.257C99.3658 276.978 105.517 268.029 105.517 257.504H61.625Z" fill="#ED7D2B"/>
<path d="M76.0693 257.504C76.0693 266.53 78.0397 275.721 84.732 279.848C85.8456 280.534 89.5695 279.79 90.7926 280.259C99.3647 276.98 105.516 268.031 105.516 257.507H76.0693V257.504Z" fill="#F99746"/>
<path d="M61.3213 282.819H105.82C105.82 281.999 105.516 281.255 105.026 280.716C104.535 280.178 103.86 279.845 103.11 279.845H64.0285C62.5317 279.848 61.3213 281.178 61.3213 282.819Z" fill="#ED7D2B"/>
<path d="M82.1709 282.819H105.82C105.82 281.999 105.517 281.255 105.026 280.716C104.536 280.178 103.86 279.845 103.111 279.845H84.876C83.3835 279.848 82.1709 281.178 82.1709 282.819Z" fill="#F99746"/>
<path d="M61.1263 258.244H106.239V257.504H61.1263V258.244Z" fill="#B5453C"/>
</svg>
