<svg width="272" height="548" viewBox="0 0 272 548" fill="none" xmlns="http://www.w3.org/2000/svg">
<path d="M107.198 533.682C107.198 533.682 106.149 546.254 108.738 547.528L141.936 547.461C141.936 547.461 141.936 543.538 136.594 542.667C131.252 541.795 121.88 538.61 120.307 531.503C118.701 524.395 107.198 533.682 107.198 533.682Z" fill="#233862"/>
<path d="M11.898 528.82C11.898 528.82 10.9149 546.22 13.5038 547.528L46.7019 547.461C46.7019 547.461 46.7019 543.538 41.3601 542.666C36.0182 541.795 26.6454 538.61 25.0724 531.502C23.4993 524.395 11.898 528.82 11.898 528.82Z" fill="#233862"/>
<path d="M10.7814 530.966C10.7814 530.966 17.3686 534.453 20.1869 535.056C23.3331 535.76 29.1992 535.324 29.1992 535.324C40.5056 504.347 75.506 378.459 75.506 378.459C77.0135 413.258 83.1746 447.991 89.5652 475.917C89.729 476.655 89.8929 477.392 90.0895 478.13C90.2534 478.8 90.4172 479.471 90.5483 480.141C90.5483 480.175 90.5483 480.208 90.5811 480.242C98.3153 513.164 106.082 535.592 106.082 535.592C106.082 535.592 108.081 538.174 113.685 537.001C120.076 535.626 122.206 532.776 122.206 532.776C118.077 398.641 115.75 322.974 115.75 322.974C115.75 322.974 60.3326 292.332 45.2575 318.515C30.2152 344.699 10.7814 530.966 10.7814 530.966Z" fill="#2A4E96"/>
<path d="M33.1316 336.619C40.3086 310.335 41.4884 285.392 41.4557 264.707C41.3901 235.305 38.8011 214.586 47.4529 211.1C47.4529 211.1 74.1948 203.154 92.5799 199.634C95.4966 197.991 98.7738 196.248 101.232 195.242C107.032 192.828 129.678 159.135 133.512 151.089C137.346 143.009 143.704 107.908 143.704 107.908L152.52 110.792C152.52 110.792 155.174 150.217 153.896 160.51C152.618 170.802 124.598 214.989 122.271 218.844C112.276 256.158 122.271 316.906 117.716 330.45C115.356 337.424 71.8353 350.197 48.0101 348.588C46.8303 348.521 45.6832 348.386 44.6018 348.252C38.965 347.448 34.8685 345.604 33.361 342.385C32.6072 340.776 32.5089 338.899 33.1316 336.619Z" fill="white"/>
<path d="M143.703 107.908C143.703 107.908 138.721 93.0901 142.359 92.6542C145.997 92.2184 155.173 92.2855 156.287 94.7664C157.401 97.2808 152.518 110.792 152.518 110.792L143.703 107.908Z" fill="#FFB27D"/>
<path d="M238.648 144.82L268.077 126.615C266.766 124.403 264.701 122.961 262.44 122.358C260.179 121.788 257.688 122.089 255.525 123.43C253.624 124.604 251.134 123.967 249.987 122.022L242.023 108.545L235.141 112.803L243.105 126.28C243.695 127.252 243.826 128.359 243.563 129.398C243.301 130.437 242.679 131.342 241.728 131.946C239.565 133.287 238.156 135.399 237.566 137.712C237.009 140.059 237.337 142.607 238.648 144.82Z" fill="#ED7D2B"/>
<path d="M238.643 144.82L258.208 132.717C262.731 128.862 260.535 125.543 258.241 124.973C255.98 124.403 253.489 124.704 251.326 126.045C249.425 127.219 246.935 126.582 245.788 124.637L237.824 111.16L235.104 112.836L243.067 126.314C243.657 127.286 243.788 128.392 243.526 129.432C243.264 130.471 242.641 131.376 241.691 131.979C239.528 133.32 238.119 135.433 237.529 137.746C237.005 140.059 237.332 142.607 238.643 144.82Z" fill="#F99746"/>
<path d="M152.519 57.0164L176.344 87.7257C184.635 101.739 198.957 108.444 212.655 109.014C217.342 109.216 221.93 108.679 226.19 107.506C229.73 106.533 233.793 108.478 236.022 112.233L236.481 113.037C237.857 115.384 239.037 117.329 239.037 117.329L244.051 114.211C244.051 114.211 242.871 112.233 241.495 109.886C239.037 105.729 239.168 100.667 241.855 97.6157C253.325 84.5073 257.618 62.7828 246.673 44.2432L230.549 8.77332L152.519 57.0164Z" fill="#F99746"/>
<path d="M252.18 69.1865C250.246 57.6873 255.686 51.418 261.421 44.78C266.042 39.483 270.794 33.9848 271.81 25.8046C272.957 16.7527 268.828 7.49969 261.553 2.77261C256.014 -0.814616 249.918 -0.915193 244.773 2.43735C237.498 7.23149 234.778 16.4845 236.941 29.2577C238.481 38.3766 241.955 46.0875 242.119 46.4227L246.707 44.2436C246.576 43.9754 233.991 15.6799 247.526 6.79566C252.213 3.71132 256.637 5.68932 258.898 7.13091C264.469 10.7181 267.746 18.1273 266.862 25.1341C266.042 31.7386 261.979 36.3986 257.685 41.3269C251.688 48.2331 244.872 56.078 247.231 70.0582L252.18 69.1865Z" fill="#ED7D2B"/>
<path d="M195.384 104.322C186.339 97.2141 178.375 99.2257 169.953 101.371C163.202 103.081 156.254 104.858 148.716 101.975C140.327 98.7898 134.264 90.7773 133.543 81.9936C133.019 75.322 135.772 69.7233 141.048 66.639C148.585 62.2471 157.86 64.1245 167.888 72.003C175.065 77.6353 180.145 84.3739 180.341 84.6421L176.343 87.7935C176.146 87.5588 157.532 63.0182 143.538 71.1314C138.721 73.9475 138.36 78.8757 138.557 81.5913C139.081 88.2964 143.964 94.6997 150.453 97.1471C156.549 99.4603 162.481 97.9517 168.74 96.376C177.523 94.1633 187.486 91.6154 198.464 100.231L195.384 104.322Z" fill="#F99746"/>
<path d="M212.689 109.048C217.375 109.25 221.964 108.713 226.224 107.54C229.763 106.568 233.827 108.512 236.055 112.267L236.514 113.072C238.284 114.01 239.595 115.15 240.217 116.659L244.085 114.278C244.085 114.278 242.905 112.3 241.528 109.954C239.07 105.797 239.202 100.734 241.889 97.6834C253.359 84.5749 257.652 62.8504 246.706 44.3109L230.583 8.84094L217.67 16.82C217.67 16.7529 270.04 89.3355 212.689 109.048Z" fill="#ED7D2B"/>
<path d="M235.891 120.447L248.738 112.501C250.474 111.429 251.032 109.082 249.983 107.305C248.934 105.528 246.64 104.958 244.903 106.031L232.057 113.976C230.32 115.049 229.763 117.396 230.811 119.173C231.86 120.95 234.154 121.553 235.891 120.447Z" fill="#F99746"/>
<path d="M212.132 97.7742L210.585 95.181C217.594 90.8265 217.625 89.7685 214.658 84.7356L199.661 59.3995C197.546 55.8304 196.124 56.2438 193.036 57.5139L190.707 58.3354L189.351 56.0132C194.382 52.3848 199.58 47.6078 202.808 43.8507L223.93 79.5236C226.993 84.692 227.793 85.0933 235.129 81.4573L236.677 84.0505L212.132 97.7742Z" fill="white"/>
<path d="M156.286 94.7662C156.286 94.7662 156.744 99.862 155.171 100.834C153.566 101.807 153.008 94.7662 153.008 94.7662C153.008 94.7662 152.91 100.533 151.697 100.935C150.485 101.337 149.731 94.2968 149.731 94.2968C149.731 94.2968 149.6 99.8956 148.781 99.6944C147.961 99.4932 147.371 94.2968 147.371 94.2968C147.371 94.2968 147.011 98.3534 145.864 97.6158C144.75 96.8783 143.668 92.5535 143.668 92.5535L156.286 94.7662Z" fill="#FFB27D"/>
<path d="M143.704 107.908C143.704 107.908 140.296 105.159 139.542 102.678C138.789 100.164 136.593 95.9733 137.74 95.4705C138.92 94.9676 142.361 100.365 142.361 100.365L143.704 107.908Z" fill="#FFB27D"/>
<path d="M84.5825 195.611L85.0086 197.891C85.0086 197.891 87.0076 204.897 78.618 207.68C70.2285 210.463 63.1825 211.737 62.3632 206.205C62.2976 201.78 62.4287 194.907 61.8061 191.353C61.5767 190.046 61.2162 188.671 60.6918 187.162L77.2416 183.475L82.2885 183.307L84.5825 195.611Z" fill="#FFB27D"/>
<path d="M82.2598 183.273L83.8 191.588C68.0695 195.845 61.1874 188.671 60.6631 187.162L77.2129 183.475L82.2598 183.273Z" fill="#E2915A"/>
<path d="M58.2373 183.709C63.1203 193.834 76.524 189.61 82.1608 187.263C83.7666 186.593 84.717 186.09 84.717 186.09C86.4211 185.05 86.6505 181.765 86.0606 177.742C84.8808 169.729 80.5877 158.733 78.4903 156.219C75.377 152.397 70.4612 148.709 57.8113 156.017C45.1614 163.326 51.9779 170.702 58.2373 183.709Z" fill="#FFB27D"/>
<path d="M79.8676 144.82C79.8676 144.82 73.772 146.06 65.8411 144.954C59.4178 144.049 52.9617 148.943 50.9626 150.854C50.9299 150.452 50.9299 149.882 51.1265 149.245C51.1265 149.245 50.2744 150.318 50.4055 151.424C50.3072 151.525 50.2744 151.592 50.3072 151.625C50.3072 151.625 49.0618 151.76 48.3736 152.33C48.3736 152.33 48.898 152.095 49.1929 152.397C49.2257 152.43 49.2585 152.464 49.2913 152.464C41.5571 159.437 44.7032 174.121 48.5047 176.635C53.06 179.653 60.8925 188.001 60.8925 188.001C60.8925 188.001 60.6304 184.95 59.0245 181.597C57.4187 178.245 60.401 177.373 63.7437 174.691C67.0865 172.009 62.695 168.388 65.2512 164.734C67.8075 161.046 80.3592 159.202 79.6054 157.157C83.7019 154.173 79.9987 145.289 79.8676 144.82Z" fill="#233862"/>
<path d="M77.864 179.955C77.864 179.955 78.6833 181.195 81.9604 179.72C81.9604 179.72 84.7132 178.48 84.0578 177.005C84.0578 177.005 80.9445 176.971 77.864 179.955Z" fill="white"/>
<path d="M81.5365 214.251C81.5365 214.251 89.074 265.511 145.54 301.082L150.816 316.738H130.432C130.432 316.738 79.8651 273.356 76.4568 215.726L81.5365 214.251Z" fill="#FF609B"/>
<path d="M81.5376 214.251V206.473L72.2304 209.189L76.4907 215.726L81.5376 214.251Z" fill="#EA4582"/>
<path d="M84.5854 195.611L90.0254 200.371C90.0254 200.371 91.5329 207.009 87.8625 214.251L76.8841 207.814C76.8841 207.814 83.3728 204.629 84.5854 195.611Z" fill="#EAEBEF"/>
<path d="M76.8835 207.815C76.8835 207.815 75.8021 213.849 72.9509 216.833C72.9509 216.833 60.5959 214.62 57.1548 208.552L62.3328 200.271C62.3 200.271 63.5454 205.937 76.8835 207.815Z" fill="#EAEBEF"/>
<path d="M2.78677 340.676C2.78677 340.676 2.75399 352.141 3.80268 354.421C4.85138 356.701 9.4722 364.143 11.6024 365.719C13.7325 367.295 11.1435 356.533 11.799 354.555C12.4544 352.577 13.2737 358.444 14.2896 358.679C15.2728 358.913 15.5349 353.751 15.7643 351.873C15.9938 349.996 11.5696 344.866 10.2259 340.709C8.91506 336.552 2.78677 340.676 2.78677 340.676Z" fill="#FFB27D"/>
<path d="M47.5823 211.1C47.5823 211.1 36.702 214.117 29.3283 230.712C21.5941 248.112 0.915029 286.767 0.161273 292.097C-0.592482 297.428 1.53768 347.246 1.53768 347.246C1.53768 347.246 10.5828 347.615 13.4012 343.223C13.4012 343.223 16.5472 299.506 17.9564 297.126C19.3656 294.746 54.9888 251.297 51.9737 240.267C48.9587 229.204 47.5823 211.1 47.5823 211.1Z" fill="white"/>
<path d="M33.3605 342.352C36.0478 344.732 39.6855 346.777 44.6014 348.219C45.8139 348.588 46.9282 348.688 48.0097 348.554C67.9023 346.442 64.8545 267.322 55.2195 261.489C45.0602 255.32 41.4552 264.674 41.4552 264.674C41.5208 285.325 40.341 310.302 33.1311 336.586C32.5085 338.899 32.6068 340.776 33.3605 342.352Z" fill="#EAEBEF"/>
<path d="M90.5488 480.141C90.4177 479.538 90.2539 478.867 90.0901 478.13C90.2539 478.8 90.4177 479.471 90.5488 480.141Z" fill="#233862"/>
<path d="M89.5662 475.917C83.4706 446.414 90.025 367.395 87.1083 365.886C84.0932 364.344 75.507 378.458 75.507 378.458C77.0473 413.291 83.2084 447.99 89.5662 475.917Z" fill="#233862"/>
</svg>
