<svg width="204" height="69" viewBox="0 0 204 69" fill="none" xmlns="http://www.w3.org/2000/svg">
<path d="M44.7102 68.0032H5.52053C2.47514 68.0032 0 65.5304 0 62.4879V21.2751C0 18.2205 2.47514 15.7599 5.52053 15.7599H44.7102C47.7556 15.7599 50.2308 18.2327 50.2308 21.2751V62.4879C50.2308 65.5304 47.7556 68.0032 44.7102 68.0032Z" fill="#5DC4ED"/>
<path opacity="0.8" d="M44.1645 67.5667L5.39941 61.7969C2.37828 61.3484 0.303535 58.5363 0.752457 55.5302L6.83111 14.7658C7.28003 11.7597 10.0949 9.67485 13.1039 10.1233L51.8568 15.8931C54.8779 16.3416 56.9527 19.1538 56.5038 22.1599L50.4251 62.9242C49.9883 65.9424 47.1735 68.0152 44.1645 67.5667Z" fill="#6BB96B"/>
<path opacity="0.8" d="M46.6758 64.791L8.39606 56.4151C5.41133 55.7606 3.53071 52.8272 4.18589 49.8453L13.0066 9.59014C13.6618 6.60827 16.598 4.72946 19.5827 5.38401L57.8625 13.7599C60.8472 14.4145 62.7278 17.3478 62.0726 20.3297L53.2519 60.5849C52.5967 63.5668 49.6484 65.4456 46.6758 64.791Z" fill="#E25966"/>
<path opacity="0.8" d="M47.6584 62.597L10.689 49.6029C7.81349 48.5968 6.29686 45.4452 7.31604 42.5724L21.0021 3.68695C22.0092 0.814178 25.1637 -0.700998 28.0393 0.3172L65.0086 13.3114C67.8842 14.3174 69.4008 17.469 68.3816 20.3418L54.7077 59.2151C53.6885 62.0879 50.5339 63.6031 47.6584 62.597Z" fill="#FF609B"/>
<path d="M90.476 36.9117H82.0193V42.633H91.932V46.1603H77.615V24.8267H91.9077V28.3904H82.0193V33.4813H90.476V36.9117Z" fill="#24204E"/>
<path d="M95.1352 46.1604V33.4087H92.7693V30.3056H95.1352V28.9602C95.1352 27.1783 95.6448 25.7965 96.664 24.8146C97.6832 23.8328 99.1149 23.3358 100.959 23.3358C101.541 23.3358 102.269 23.4328 103.119 23.6267L103.07 26.9116C102.718 26.8268 102.294 26.7783 101.784 26.7783C100.195 26.7783 99.3939 27.5298 99.3939 29.0208V30.3056H102.549V33.4087H99.3939V46.1604H95.1352Z" fill="#24204E"/>
<path d="M105.909 46.1604V33.4087H103.543V30.3056H105.909V28.9602C105.909 27.1783 106.419 25.7965 107.438 24.8146C108.457 23.8328 109.889 23.3358 111.733 23.3358C112.315 23.3358 113.043 23.4328 113.893 23.6267L113.844 26.9116C113.492 26.8268 113.068 26.7783 112.558 26.7783C110.969 26.7783 110.168 27.5298 110.168 29.0208V30.3056H113.322V33.4087H110.168V46.1604H105.909Z" fill="#24204E"/>
<path d="M122.471 46.4514C120.141 46.4514 118.249 45.7363 116.781 44.3059C115.312 42.8756 114.584 40.9847 114.584 38.6089V38.1967C114.584 36.6088 114.888 35.1785 115.507 33.93C116.125 32.6694 116.999 31.7118 118.127 31.033C119.256 30.3542 120.542 30.0148 121.998 30.0148C124.17 30.0148 125.88 30.6936 127.13 32.0633C128.38 33.433 128.999 35.3724 128.999 37.8816V39.6149H118.892C119.025 40.6453 119.438 41.4816 120.129 42.112C120.821 42.7423 121.694 43.0453 122.75 43.0453C124.388 43.0453 125.662 42.4514 126.584 41.2756L128.671 43.6029C128.04 44.4999 127.179 45.2029 126.087 45.6999C124.995 46.209 123.793 46.4514 122.471 46.4514ZM121.986 33.4209C121.148 33.4209 120.457 33.6997 119.935 34.2694C119.413 34.8391 119.074 35.6512 118.928 36.7179H124.825V36.3785C124.8 35.433 124.546 34.7058 124.06 34.1967C123.575 33.6876 122.883 33.4209 121.986 33.4209Z" fill="#24204E"/>
<path d="M138.001 43.0452C138.778 43.0452 139.421 42.827 139.906 42.4028C140.391 41.9785 140.646 41.3967 140.67 40.6937H144.65C144.638 41.7725 144.347 42.7543 143.764 43.6513C143.182 44.5483 142.393 45.2392 141.398 45.7362C140.391 46.2332 139.287 46.4756 138.074 46.4756C135.805 46.4756 134.009 45.7604 132.699 44.318C131.389 42.8755 130.733 40.8876 130.733 38.3421V38.0633C130.733 35.6148 131.389 33.6754 132.687 32.2208C133.985 30.7662 135.769 30.0389 138.037 30.0389C140.027 30.0389 141.617 30.6086 142.818 31.7359C144.019 32.8632 144.626 34.3663 144.65 36.2451H140.67C140.646 35.4208 140.391 34.7542 139.906 34.233C139.421 33.7117 138.765 33.4572 137.965 33.4572C136.982 33.4572 136.23 33.8208 135.732 34.536C135.223 35.2511 134.98 36.4269 134.98 38.0391V38.4754C134.98 40.1118 135.235 41.2876 135.732 42.0028C136.23 42.6816 136.994 43.0452 138.001 43.0452Z" fill="#24204E"/>
<path d="M152.148 26.4025V30.3056H154.866V33.4086H152.148V41.3239C152.148 41.9057 152.257 42.33 152.488 42.5845C152.719 42.8391 153.143 42.9603 153.774 42.9603C154.247 42.9603 154.66 42.9239 155.024 42.8633V46.0755C154.187 46.3301 153.337 46.4513 152.452 46.4513C149.479 46.4513 147.962 44.9482 147.902 41.9542V33.4086H145.596V30.3056C145.596 30.3056 147.077 30.3056 147.914 30.3056C148.751 30.3056 149.248 26.4025 149.248 26.4025H152.148Z" fill="#24204E"/>
<path d="M163.104 35.6874L160.095 35.6632V46.1603H158.288V24.8267H160.095V33.4692L162.862 33.445L171.039 24.8267H173.308L164.354 34.3298L173.988 46.1725H171.804L163.104 35.6874Z" fill="#24204E"/>
<path d="M182.602 46.4514C181.255 46.4514 180.03 46.1241 178.938 45.4575C177.846 44.7908 176.997 43.8696 176.39 42.6817C175.783 41.4938 175.48 40.1604 175.48 38.6937V38.0634C175.48 36.5361 175.771 35.1664 176.366 33.9421C176.96 32.7178 177.785 31.7603 178.841 31.0572C179.896 30.3542 181.037 30.0148 182.275 30.0148C184.204 30.0148 185.732 30.6693 186.861 31.9906C187.989 33.2997 188.559 35.1058 188.559 37.3725V38.3543H177.239V38.6937C177.239 40.4877 177.749 41.9907 178.792 43.1908C179.824 44.3908 181.122 44.9847 182.687 44.9847C183.621 44.9847 184.458 44.815 185.174 44.4756C185.89 44.1362 186.545 43.5908 187.128 42.8392L188.232 43.6756C186.934 45.5181 185.065 46.4514 182.602 46.4514ZM182.287 31.5057C180.964 31.5057 179.848 31.9906 178.95 32.9603C178.04 33.93 177.494 35.227 177.3 36.8634H186.824V36.6694C186.776 35.1421 186.339 33.9057 185.514 32.9482C184.689 31.9906 183.609 31.5057 182.287 31.5057Z" fill="#24204E"/>
<path d="M196.834 43.6391L201.469 30.3055H203.362L196.579 48.8634L195.742 51.021L194.068 51.0938L195.184 48.1725L195.961 46.027L189.991 30.3055H191.908L196.834 43.6391Z" fill="#24204E"/>
<path d="M31.8613 35.7975H22.1791V42.3552H33.5478V46.4038H17.1196V21.9427H33.4992V26.0277H22.167V31.8581H31.8491V35.7975H31.8613Z" fill="white"/>
<path d="M44.3947 35.8934L41.5434 35.9177V46.4027H36.4961V21.9417H41.5434V31.2752L43.9943 31.2631L50.8131 21.9296H56.9039L48.4471 32.8025L57.5105 46.4027H51.3955L44.3947 35.8934Z" fill="white"/>
</svg>
