<svg width="132" height="44" viewBox="0 0 132 44" fill="none" xmlns="http://www.w3.org/2000/svg">
<path d="M28.9288 44H3.57194C1.60149 44 0 42.4 0 40.4314V13.7655C0 11.7891 1.60149 10.197 3.57194 10.197H28.9288C30.8993 10.197 32.5008 11.797 32.5008 13.7655V40.4314C32.5008 42.4 30.8993 44 28.9288 44Z" fill="#5DC4ED"/>
<path opacity="0.8" d="M28.5757 43.7177L3.4936 39.9845C1.53885 39.6943 0.196424 37.8747 0.48689 35.9297L4.41995 9.55398C4.71042 7.60894 6.53172 6.25996 8.47863 6.55015L33.5529 10.2834C35.5077 10.5736 36.8501 12.3931 36.5596 14.3382L32.6265 40.7139C32.3439 42.6667 30.5226 44.0079 28.5757 43.7177Z" fill="#6BB96B"/>
<path opacity="0.8" d="M30.2005 41.9218L5.43238 36.5024C3.50118 36.0788 2.28436 34.1809 2.70829 32.2515L8.41555 6.20521C8.83947 4.27585 10.7393 3.0602 12.6705 3.48372L37.4386 8.90317C39.3698 9.32668 40.5866 11.2247 40.1627 13.154L34.4554 39.2003C34.0315 41.1297 32.1238 42.3453 30.2005 41.9218Z" fill="#E25966"/>
<path opacity="0.8" d="M30.8363 40.5021L6.91605 32.0945C5.0555 31.4435 4.0742 29.4044 4.73363 27.5456L13.5889 2.38557C14.2405 0.526797 16.2816 -0.453566 18.1422 0.205238L42.0624 8.61283C43.923 9.26379 44.9043 11.3029 44.2448 13.1617L35.3974 38.3139C34.738 40.1727 32.6969 41.153 30.8363 40.5021Z" fill="#FF609B"/>
<path d="M58.5404 23.8829H53.0687V27.5847H59.4825V29.867H50.219V16.0635H59.4668V18.3693H53.0687V21.6633H58.5404V23.8829Z" fill="#24204E"/>
<path d="M61.5551 29.8671V21.6163H60.0243V19.6086H61.5551V18.738C61.5551 17.5851 61.8848 16.691 62.5443 16.0557C63.2037 15.4204 64.1301 15.0989 65.3233 15.0989C65.7002 15.0989 66.1712 15.1616 66.7207 15.2871L66.6893 17.4125C66.4616 17.3576 66.1869 17.3263 65.8572 17.3263C64.8288 17.3263 64.3106 17.8125 64.3106 18.7772V19.6086H66.3517V21.6163H64.3106V29.8671H61.5551Z" fill="#24204E"/>
<path d="M68.5262 29.8671V21.6163H66.9954V19.6086H68.5262V18.738C68.5262 17.5851 68.8559 16.691 69.5154 16.0557C70.1748 15.4204 71.1012 15.0989 72.2944 15.0989C72.6712 15.0989 73.1423 15.1616 73.6918 15.2871L73.6604 17.4125C73.4327 17.3576 73.158 17.3263 72.8283 17.3263C71.7998 17.3263 71.2817 17.8125 71.2817 18.7772V19.6086H73.3228V21.6163H71.2817V29.8671H68.5262Z" fill="#24204E"/>
<path d="M79.2419 30.0554C77.7347 30.0554 76.51 29.5927 75.5601 28.6672C74.6102 27.7417 74.1392 26.5182 74.1392 24.981V24.7144C74.1392 23.687 74.3354 22.7615 74.7358 21.9537C75.1362 21.138 75.7014 20.5184 76.4315 20.0792C77.1616 19.64 77.9937 19.4204 78.9358 19.4204C80.341 19.4204 81.4479 19.8596 82.2565 20.7459C83.0651 21.6321 83.4655 22.887 83.4655 24.5105V25.632H76.9261C77.0124 26.2986 77.2793 26.8398 77.7268 27.2476C78.1743 27.6555 78.7395 27.8515 79.4225 27.8515C80.4823 27.8515 81.3066 27.4672 81.9032 26.7065L83.2535 28.2123C82.8453 28.7927 82.2879 29.2476 81.5814 29.5691C80.8748 29.8985 80.0976 30.0554 79.2419 30.0554ZM78.9279 21.6243C78.3862 21.6243 77.9388 21.8047 77.6012 22.1733C77.2636 22.5419 77.0438 23.0674 76.9496 23.7575H80.7649V23.5379C80.7492 22.9262 80.5844 22.4556 80.2703 22.1262C79.9563 21.7968 79.5089 21.6243 78.9279 21.6243Z" fill="#24204E"/>
<path d="M89.2905 27.8515C89.793 27.8515 90.209 27.7103 90.5231 27.4358C90.8371 27.1613 91.0019 26.7848 91.0176 26.33H93.5926C93.5847 27.028 93.3963 27.6632 93.0195 28.2436C92.6427 28.824 92.1324 29.271 91.4887 29.5926C90.8371 29.9142 90.1227 30.071 89.3376 30.071C87.8696 30.071 86.7077 29.6083 85.8599 28.675C85.0121 27.7417 84.5881 26.4554 84.5881 24.8084V24.628C84.5881 23.0438 85.0121 21.7889 85.8521 20.8478C86.692 19.9066 87.8461 19.436 89.3141 19.436C90.6016 19.436 91.63 19.8047 92.4072 20.534C93.1843 21.2634 93.5769 22.236 93.5926 23.4516H91.0176C91.0019 22.9183 90.8371 22.4869 90.5231 22.1497C90.209 21.8124 89.7851 21.6477 89.267 21.6477C88.6311 21.6477 88.1444 21.883 87.8225 22.3458C87.4928 22.8085 87.3358 23.5692 87.3358 24.6124V24.8947C87.3358 25.9535 87.5006 26.7143 87.8225 27.177C88.1444 27.6162 88.639 27.8515 89.2905 27.8515Z" fill="#24204E"/>
<path d="M98.4443 17.0831V19.6085H100.203V21.6163H98.4443V26.7377C98.4443 27.1142 98.515 27.3887 98.6641 27.5534C98.8133 27.7181 99.088 27.7965 99.4963 27.7965C99.8024 27.7965 100.069 27.773 100.305 27.7338V29.8122C99.7632 29.9769 99.2137 30.0553 98.6406 30.0553C96.7172 30.0553 95.7359 29.0828 95.6967 27.1456V21.6163H94.2051V19.6085C94.2051 19.6085 95.1628 19.6085 95.7045 19.6085C96.2462 19.6085 96.5681 17.0831 96.5681 17.0831H98.4443Z" fill="#24204E"/>
<path d="M105.533 23.0907L103.586 23.075V29.867H102.416V16.0635H103.586V21.6555L105.376 21.6398L110.667 16.0635H112.135L106.342 22.2123L112.575 29.8748H111.162L105.533 23.0907Z" fill="#24204E"/>
<path d="M118.149 30.0554C117.277 30.0554 116.485 29.8436 115.778 29.4123C115.071 28.9809 114.522 28.3849 114.129 27.6163C113.737 26.8477 113.541 25.9849 113.541 25.0359V24.6281C113.541 23.6399 113.729 22.7536 114.114 21.9615C114.498 21.1694 115.032 20.5498 115.715 20.0949C116.398 19.64 117.136 19.4204 117.937 19.4204C119.185 19.4204 120.174 19.8439 120.904 20.6988C121.634 21.5458 122.003 22.7144 122.003 24.1811V24.8163H114.679V25.0359C114.679 26.1967 115.009 27.1692 115.684 27.9457C116.351 28.7221 117.191 29.1064 118.204 29.1064C118.808 29.1064 119.35 28.9966 119.813 28.777C120.276 28.5574 120.7 28.2045 121.077 27.7182L121.792 28.2594C120.951 29.4515 119.743 30.0554 118.149 30.0554ZM117.945 20.3851C117.089 20.3851 116.367 20.6988 115.786 21.3262C115.197 21.9537 114.844 22.7929 114.718 23.8517H120.881V23.7262C120.849 22.738 120.567 21.938 120.033 21.3184C119.499 20.6988 118.8 20.3851 117.945 20.3851Z" fill="#24204E"/>
<path d="M127.357 28.2357L130.356 19.6085H131.581L127.192 31.616L126.651 33.012L125.567 33.0591L126.29 31.169L126.792 29.7808L122.93 19.6085H124.17L127.357 28.2357Z" fill="#24204E"/>
<path d="M20.6149 23.1622H14.3503V27.4052H21.7061V30.0247H11.0767V14.1978H21.6747V16.8408H14.3424V20.6132H20.6071V23.1622H20.6149Z" fill="white"/>
<path d="M28.7245 23.2241L26.8797 23.2398V30.0239H23.6139V14.1969H26.8797V20.236L28.4655 20.2281L32.8774 14.1891H36.8183L31.3466 21.2242L37.2108 30.0239H33.2542L28.7245 23.2241Z" fill="white"/>
</svg>
