<svg width="482" height="484" viewBox="0 0 482 484" fill="none" xmlns="http://www.w3.org/2000/svg">
<g clip-path="url(#clip0)">
<path d="M424.141 417.028C411.604 429.928 400.42 437.526 391.827 443.239C308.187 499.138 212.6 482.999 183.052 477.521C135.376 468.626 95.1163 462.383 60.5658 431.106C-18.0116 360.069 -14.1857 211.871 45.8509 120.043C52.9729 109.205 112.951 20.2623 208.715 7.71608C211.069 7.42156 212.835 7.24486 214.366 7.06815C229.198 5.47779 321.019 -2.76853 395.888 59.9624C406.6 68.9744 423.846 85.1726 439.856 109.853C498.362 200.326 498.539 340.337 424.141 417.028Z" fill="#E6E8CE" fill-opacity="0.2"/>
<path d="M418.314 470.865C418.314 476.637 413.664 481.291 407.896 481.291H210.423V178.238C210.423 162.394 223.254 149.553 239.087 149.553H389.65C405.483 149.553 418.314 162.394 418.314 178.238V470.865Z" fill="#01BA57"/>
<path d="M22.9562 62.7899C23.7214 60.1982 27.4884 60.3749 28.0181 63.0255C33.08 88.7069 48.5012 155.679 77.4012 192.846C124.43 253.398 151.505 347.759 114.777 392.643C114.718 392.643 -61.6248 345.58 22.9562 62.7899Z" fill="#146A68" fill-opacity="0.1"/>
<path opacity="0.43" d="M25.1343 99.0739C25.1343 99.8985 25.1931 100.605 25.252 101.312L25.4286 103.492L25.7817 107.85C26.0172 110.737 26.3703 113.623 26.6646 116.509C27.3121 122.281 28.0184 127.995 28.7836 133.767C30.3139 145.253 32.1385 156.68 34.1986 168.107C36.1999 179.534 38.4954 190.903 41.0852 202.212C43.675 213.521 46.3825 224.771 49.5021 235.963C55.6823 258.346 63.0398 280.375 71.9275 301.816C76.5186 312.477 81.345 323.02 86.7601 333.269C92.2929 343.459 98.2377 353.473 104.889 362.956C105.007 363.192 105.301 363.192 105.536 363.074C105.713 362.956 105.772 362.662 105.654 362.426C99.4149 352.707 93.6467 342.694 88.467 332.386C83.2286 322.078 78.5786 311.534 74.223 300.873C69.8675 290.212 65.9239 279.315 62.2746 268.359C58.5664 257.403 55.388 246.33 52.2096 235.197C45.9705 212.932 40.9675 190.372 36.4941 167.695C34.3163 156.327 32.374 144.959 30.6082 133.532C29.7253 127.818 28.9013 122.105 28.1361 116.391L27.0766 107.791L26.6058 103.492L26.3703 101.312C26.3115 100.605 26.2526 99.8396 26.1937 99.2506V99.1328C26.1937 98.8972 25.9583 98.6616 25.7229 98.7205C25.3109 98.6026 25.1343 98.8383 25.1343 99.0739Z" fill="white"/>
<path d="M114.542 12.5464C115.955 10.367 119.368 11.545 119.133 14.1367C116.779 39.1113 112.659 104.728 129.021 146.667C155.685 214.993 154.743 308.943 108.833 340.102C108.774 340.102 -40.1406 248.803 114.542 12.5464Z" fill="#146A68" fill-opacity="0.5"/>
<path opacity="0.43" d="M106.595 46.4151C106.36 47.1809 106.242 47.8288 106.066 48.4767L105.595 50.5383L104.771 54.6026C104.241 57.3121 103.711 60.0216 103.24 62.79C102.24 68.2679 101.298 73.6869 100.474 79.1648C98.7671 90.1206 97.2957 101.135 96.0596 112.15C94.7647 123.165 93.823 134.238 93.0578 145.253C92.3515 156.327 91.7629 167.4 91.5863 178.474C91.1154 200.68 91.8806 222.886 94.235 244.975C95.5299 255.989 97.0602 267.004 99.2969 277.901C101.592 288.739 104.3 299.518 107.832 310.062C107.89 310.297 108.185 310.415 108.42 310.356C108.656 310.297 108.773 310.062 108.714 309.826C105.654 299.224 103.123 288.445 101.122 277.607C99.1203 266.769 97.7077 255.754 96.6482 244.798C95.5887 233.783 94.9413 222.769 94.5293 211.754C94.1173 200.739 94.235 189.665 94.3527 178.592C94.7058 156.503 96.2362 134.415 98.3551 112.386C99.4735 101.371 100.768 90.4151 102.24 79.4593C103.005 73.9814 103.77 68.5035 104.653 63.0256L106.007 54.8382L106.713 50.7739L107.066 48.7123C107.184 48.0644 107.361 47.3576 107.478 46.7686V46.6507C107.537 46.4151 107.419 46.1795 107.184 46.1206C106.89 46.0617 106.654 46.1795 106.595 46.4151Z" fill="white"/>
<path d="M290.119 481.291H109.009V281.141C109.009 265.296 121.84 252.455 137.673 252.455H261.513C277.347 252.455 290.178 265.296 290.178 281.141V481.291H290.119Z" fill="#0DA051"/>
<path d="M162.807 481.291H17.1303C11.3621 481.291 6.71216 476.637 6.71216 470.865V348.348C6.71216 332.503 19.5435 319.663 35.3767 319.663H134.202C150.035 319.663 162.866 332.503 162.866 348.348V481.291H162.807Z" fill="#01BA57"/>
<path d="M325.669 136.535H316.546L302.184 94.3025L342.091 91.8875L325.669 136.535Z" fill="#FFC73C"/>
<path d="M277.935 15.845C277.876 19.438 277.876 89.1783 313.31 100.546C348.684 111.856 364.694 52.8356 363.458 10.7794L277.935 15.845Z" fill="#FFC73C"/>
<path d="M349.449 142.897H292.826V149.789H349.449V142.897Z" fill="#FFC73C"/>
<path d="M349.449 142.897H292.826L307.129 135.24H335.087L349.449 142.897Z" fill="#FFC73C"/>
<path d="M273.815 5.94929C270.695 6.126 268.164 8.42319 268.164 11.0738V16.4339C268.164 19.0845 270.695 21.0872 273.815 20.9105L370.815 15.6682C373.935 15.4915 376.466 13.1943 376.466 10.6026V4.41783C376.466 1.76723 373.935 -0.176545 370.815 0.000162303L273.815 5.94929Z" fill="#F7BE32"/>
<path d="M338.382 106.083C336.146 106.083 334.144 104.67 333.909 102.726C333.615 100.664 335.38 98.7794 337.853 98.5437C338.323 98.4848 370.873 95.0685 373.992 77.2211C374.522 74.2171 374.463 70.2707 371.226 68.6214C368.577 67.2666 364.222 67.679 361.043 69.6227C359.277 70.7419 357.335 72.6267 358.159 75.5719C358.748 77.6334 357.217 79.6361 354.804 80.1662C352.391 80.6375 349.978 79.4005 349.389 77.3389C347.918 72.0377 350.272 66.9132 355.746 63.4969C361.808 59.7271 370.108 59.197 375.876 62.1421C379.231 63.8503 384.646 68.2091 382.939 78.3403C381.232 88.2948 372.874 96.3055 358.865 101.43C348.8 105.141 339.324 106.083 338.912 106.083C338.735 106.024 338.559 106.083 338.382 106.083Z" fill="#FFC73C"/>
<path d="M304.598 106.083C306.834 106.083 308.836 104.67 309.071 102.726C309.365 100.664 307.6 98.7794 305.128 98.5437C304.657 98.4848 272.107 95.0685 268.988 77.2211C268.458 74.2171 268.517 70.2707 271.754 68.6214C274.403 67.2666 278.758 67.679 281.937 69.6227C283.703 70.7419 285.645 72.6267 284.821 75.5719C284.232 77.6334 285.763 79.6361 288.176 80.1662C290.589 80.6375 293.002 79.4005 293.591 77.3389C295.063 72.0377 292.708 66.9132 287.234 63.4969C281.172 59.7271 272.872 59.197 267.104 62.1421C263.749 63.8503 258.334 68.2091 260.041 78.3403C261.748 88.2948 270.106 96.3055 284.115 101.43C294.18 105.141 303.656 106.083 304.068 106.083C304.245 106.024 304.421 106.083 304.598 106.083Z" fill="#FFC73C"/>
<path d="M344.21 10.3671C343.798 10.3671 343.504 10.0725 343.504 9.66023C343.504 9.24791 343.798 8.8945 344.21 8.8945L352.862 8.42328C353.274 8.42328 353.628 8.71779 353.628 9.13011C353.628 9.54242 353.333 9.89584 352.921 9.89584L344.21 10.3671C344.269 10.3671 344.21 10.3671 344.21 10.3671Z" fill="white"/>
<path d="M277.935 13.9011C277.523 13.9011 277.228 13.6065 277.228 13.1942C277.228 12.7819 277.523 12.4285 277.935 12.4285L329.672 9.6601C330.084 9.6601 330.437 9.95461 330.437 10.3669C330.437 10.7792 330.143 11.1327 329.731 11.1327L277.935 13.9011Z" fill="white"/>
<path d="M318.017 92.5944H317.958C308.599 91.5342 301.065 83.8769 295.709 69.9171C291.236 58.3722 289.117 44.8247 288.175 35.5181C288.116 35.1058 288.411 34.7524 288.823 34.6935C289.235 34.6346 289.588 34.9291 289.647 35.3414C291.354 51.3039 297.475 88.7069 318.194 91.1219C318.606 91.1808 318.9 91.5342 318.841 91.9465C318.723 92.2999 318.37 92.5944 318.017 92.5944Z" fill="white"/>
<path d="M288.236 28.8622C287.824 28.8622 287.53 28.5677 287.53 28.1554C287.412 26.0349 287.353 24.7979 287.353 24.739C287.353 24.3267 287.647 23.9733 288.059 23.9733C288.471 23.9733 288.825 24.2678 288.825 24.6801C288.825 24.6801 288.883 25.9171 289.001 28.0376C289.001 28.5088 288.648 28.8622 288.236 28.8622Z" fill="white"/>
<path d="M77.1653 238.967C76.6356 239.438 76.1647 239.968 75.6349 240.498C75.2229 240.91 75.2229 241.617 75.6349 242.03C75.8704 242.206 76.1058 242.324 76.4001 242.324C76.6944 242.324 76.9299 242.206 77.1653 242.03C77.6362 241.558 78.1659 241.028 78.6368 240.557C79.0488 240.145 79.0488 239.497 78.6368 239.026C78.2836 238.613 77.5773 238.613 77.1653 238.967Z" fill="white"/>
<path d="M54.1522 278.372C54.2699 278.431 54.3876 278.431 54.5054 278.431C54.9174 278.431 55.3294 278.137 55.506 277.725C55.7414 277.077 55.9768 276.429 56.2711 275.722C56.5066 275.192 56.2123 274.544 55.6825 274.367C55.1528 274.131 54.5054 274.426 54.3288 274.956C54.0933 275.604 53.799 276.311 53.5636 276.959C53.3282 277.548 53.5636 278.137 54.1522 278.372Z" fill="white"/>
<path d="M56.6825 271.775C56.8002 271.834 56.9767 271.834 57.0945 271.834C57.5065 271.834 57.9185 271.599 58.0951 271.186C58.3894 270.538 58.6837 269.89 58.9191 269.242C59.1545 268.712 58.9191 268.064 58.3894 267.829C57.8596 267.593 57.2122 267.829 56.9768 268.359C56.6825 269.007 56.3882 269.655 56.0939 270.303C55.9173 270.892 56.1527 271.54 56.6825 271.775Z" fill="white"/>
<path d="M48.5014 298.87C48.5602 298.87 48.6191 298.87 48.7368 298.87C49.2077 298.87 49.6785 298.517 49.7963 298.046C49.914 297.339 50.0906 296.691 50.2671 295.984C50.3849 295.395 50.0317 294.865 49.4431 294.688C48.8545 294.571 48.3248 294.924 48.1482 295.513C47.9716 296.22 47.8539 296.927 47.6773 297.633C47.5596 298.164 47.9128 298.753 48.5014 298.87Z" fill="white"/>
<path d="M50.0322 291.92C50.15 291.92 50.2088 291.979 50.3265 291.979C50.7974 291.979 51.2094 291.684 51.3271 291.154C51.5037 290.447 51.6803 289.799 51.8569 289.093C52.0335 288.504 51.6803 287.914 51.0917 287.797C50.5031 287.62 49.9145 287.973 49.7968 288.562C49.6202 289.269 49.4436 289.917 49.2671 290.624C49.1493 291.213 49.5025 291.802 50.0322 291.92Z" fill="white"/>
<path d="M59.6256 265.296C59.8021 265.355 59.9199 265.414 60.0964 265.414C60.5085 265.414 60.8616 265.178 61.0382 264.825C61.3325 264.177 61.6857 263.588 62.0388 262.94C62.3331 262.41 62.0977 261.762 61.6268 261.526C61.0971 261.232 60.4496 261.468 60.2142 261.939C59.861 262.587 59.5667 263.235 59.2135 263.824C58.9192 264.413 59.1547 265.002 59.6256 265.296Z" fill="white"/>
<path d="M66.7477 253.044C66.9242 253.162 67.1597 253.221 67.3362 253.221C67.6894 253.221 67.9837 253.044 68.2191 252.75C68.6311 252.161 69.0432 251.631 69.4552 251.042C69.8083 250.57 69.6906 249.923 69.2197 249.569C68.7489 249.216 68.1014 249.333 67.7483 249.805C67.3362 250.394 66.9242 250.983 66.5122 251.572C66.1591 252.043 66.2768 252.691 66.7477 253.044Z" fill="white"/>
<path d="M71.6912 247.567C71.9855 247.567 72.2798 247.449 72.5152 247.154C72.9861 246.624 73.3981 246.094 73.869 245.564C74.281 245.093 74.2221 244.445 73.7513 244.091C73.2804 243.679 72.6329 243.738 72.2798 244.209C71.8089 244.739 71.338 245.328 70.8671 245.858C70.514 246.33 70.5728 246.978 70.9849 247.331C71.1614 247.508 71.4557 247.567 71.6912 247.567Z" fill="white"/>
<path d="M62.9814 259.052C63.158 259.17 63.3346 259.229 63.5111 259.229C63.8643 259.229 64.2175 259.052 64.4529 258.699C64.8061 258.11 65.1592 257.521 65.5712 256.873C65.8655 256.402 65.7478 255.695 65.2181 255.401C64.7472 255.106 64.0409 255.224 63.7466 255.754C63.3934 256.343 62.9814 256.991 62.6283 257.58C62.334 258.11 62.5105 258.758 62.9814 259.052Z" fill="white"/>
<path d="M51.9143 285.087C52.032 285.146 52.1498 285.146 52.2086 285.146C52.6795 285.146 53.0915 284.852 53.2092 284.38C53.4447 283.732 53.6213 283.026 53.8567 282.378C54.0333 281.848 53.739 281.2 53.1504 281.023C52.6206 280.846 51.9732 281.141 51.7966 281.73C51.5612 282.437 51.3846 283.085 51.1491 283.791C51.0314 284.322 51.3846 284.911 51.9143 285.087Z" fill="white"/>
<path d="M47.2066 305.821C47.2655 305.821 47.3243 305.821 47.3832 305.821C47.9129 305.821 48.3249 305.467 48.4427 304.937C48.5604 304.23 48.6781 303.524 48.7958 302.876C48.9135 302.287 48.5015 301.757 47.9129 301.639C47.3243 301.521 46.7946 301.933 46.6769 302.522C46.5592 303.229 46.4414 303.936 46.3237 304.643C46.2649 305.173 46.6769 305.703 47.2066 305.821Z" fill="white"/>
<path d="M82.5823 234.255C81.9937 234.726 81.464 235.138 80.9343 235.609C80.4634 235.963 80.4045 236.67 80.8165 237.082C81.052 237.318 81.3463 237.435 81.6406 237.435C81.876 237.435 82.1114 237.376 82.3469 237.2C82.8766 236.729 83.4064 236.316 83.9361 235.845C84.407 235.492 84.4658 234.785 84.1127 234.372C83.7007 233.96 82.9943 233.901 82.5823 234.255Z" fill="white"/>
<path d="M94.7067 226.539C94.0593 226.833 93.4118 227.186 92.7644 227.54C92.2346 227.834 92.058 228.482 92.2935 228.953C92.4701 229.307 92.8821 229.543 93.2352 229.543C93.4118 229.543 93.5884 229.484 93.7061 229.425C94.2947 229.071 94.9421 228.777 95.5896 228.482C96.1193 228.247 96.3548 227.599 96.0605 227.069C95.825 226.48 95.2364 226.244 94.7067 226.539Z" fill="white"/>
<path d="M214.073 146.49C213.543 147.02 213.072 147.492 212.543 148.022C212.131 148.434 212.131 149.141 212.543 149.553C212.778 149.73 213.014 149.848 213.308 149.848C213.602 149.848 213.838 149.73 214.073 149.553C214.544 149.023 215.074 148.552 215.544 148.022C215.957 147.609 215.957 146.961 215.544 146.49C215.132 146.078 214.485 146.078 214.073 146.49Z" fill="white"/>
<path d="M209.128 151.673C208.657 152.203 208.187 152.734 207.716 153.264C207.304 153.676 207.363 154.383 207.775 154.736C207.951 154.913 208.245 155.031 208.481 155.031C208.775 155.031 209.069 154.913 209.246 154.677C209.717 154.147 210.188 153.617 210.659 153.087C211.071 152.675 211.012 151.968 210.6 151.556C210.188 151.202 209.54 151.202 209.128 151.673Z" fill="white"/>
<path d="M204.42 157.034C203.949 157.564 203.478 158.153 203.066 158.683C202.713 159.154 202.772 159.802 203.243 160.156C203.42 160.332 203.655 160.391 203.89 160.391C204.185 160.391 204.479 160.273 204.714 159.979C205.185 159.449 205.597 158.919 206.068 158.33C206.421 157.858 206.362 157.21 205.95 156.857C205.48 156.504 204.832 156.563 204.42 157.034Z" fill="white"/>
<path d="M224.608 136.889C224.078 137.36 223.49 137.832 222.96 138.244C222.489 138.597 222.489 139.304 222.842 139.716C223.078 139.952 223.372 140.07 223.666 140.07C223.902 140.07 224.137 140.011 224.372 139.834C224.902 139.363 225.432 138.951 225.962 138.48C226.433 138.126 226.491 137.419 226.079 137.007C225.726 136.595 225.079 136.536 224.608 136.889Z" fill="white"/>
<path d="M219.254 141.601C218.724 142.073 218.194 142.544 217.665 143.074C217.253 143.486 217.194 144.134 217.606 144.605C217.841 144.841 218.077 144.959 218.371 144.959C218.606 144.959 218.901 144.841 219.077 144.664C219.607 144.193 220.137 143.722 220.608 143.251C221.02 142.838 221.079 142.19 220.667 141.719C220.313 141.189 219.666 141.189 219.254 141.601Z" fill="white"/>
<path d="M193.178 173.88C192.707 173.585 192.001 173.703 191.707 174.174C191.295 174.763 190.941 175.352 190.588 176C190.294 176.471 190.412 177.178 190.941 177.473C191.118 177.591 191.295 177.649 191.53 177.649C191.883 177.649 192.236 177.473 192.413 177.178C192.766 176.589 193.178 176 193.531 175.411C193.826 174.881 193.708 174.233 193.178 173.88Z" fill="white"/>
<path d="M189.471 179.947C188.941 179.652 188.293 179.829 187.999 180.3C187.646 180.889 187.293 181.537 186.94 182.126C186.645 182.656 186.822 183.304 187.352 183.599C187.528 183.716 187.705 183.716 187.881 183.716C188.235 183.716 188.588 183.54 188.823 183.186C189.176 182.597 189.529 181.949 189.883 181.36C190.118 180.889 189.941 180.241 189.471 179.947Z" fill="white"/>
<path d="M197.18 168.048C196.709 167.695 196.061 167.813 195.708 168.284C195.296 168.873 194.884 169.462 194.472 170.051C194.119 170.522 194.237 171.17 194.766 171.524C194.943 171.642 195.178 171.7 195.355 171.7C195.708 171.7 196.002 171.524 196.238 171.229C196.65 170.64 197.062 170.051 197.415 169.521C197.768 169.05 197.709 168.402 197.18 168.048Z" fill="white"/>
<path d="M201.418 162.394C200.947 162.04 200.299 162.099 199.946 162.57C199.534 163.159 199.063 163.69 198.651 164.279C198.298 164.75 198.416 165.398 198.887 165.751C199.063 165.869 199.299 165.987 199.534 165.987C199.829 165.987 200.182 165.869 200.358 165.574C200.77 164.985 201.182 164.455 201.653 163.866C202.006 163.395 201.889 162.747 201.418 162.394Z" fill="white"/>
<path d="M185.997 186.072C185.467 185.778 184.819 186.013 184.584 186.485C184.231 187.133 183.936 187.722 183.583 188.37C183.289 188.9 183.524 189.548 184.054 189.783C184.231 189.842 184.348 189.901 184.525 189.901C184.937 189.901 185.29 189.665 185.467 189.312C185.761 188.664 186.114 188.075 186.467 187.427C186.703 187.015 186.467 186.367 185.997 186.072Z" fill="white"/>
<path d="M243.032 125.757C242.385 125.992 241.679 126.287 241.031 126.522C240.502 126.758 240.207 127.347 240.443 127.936C240.619 128.348 241.031 128.584 241.443 128.584C241.561 128.584 241.738 128.584 241.855 128.525C242.503 128.23 243.15 127.995 243.798 127.759C244.327 127.583 244.622 126.935 244.445 126.405C244.21 125.874 243.562 125.58 243.032 125.757Z" fill="white"/>
<path d="M236.44 128.761C235.793 129.114 235.204 129.467 234.556 129.821C234.027 130.115 233.909 130.763 234.203 131.293C234.38 131.647 234.733 131.824 235.145 131.824C235.322 131.824 235.498 131.765 235.675 131.647C236.263 131.293 236.852 130.94 237.499 130.645C238.029 130.351 238.206 129.703 237.911 129.232C237.617 128.643 236.97 128.466 236.44 128.761Z" fill="white"/>
<path d="M250.094 123.93C249.564 123.989 249.035 124.107 248.564 124.225C248.387 124.284 248.152 124.284 247.975 124.343C247.387 124.461 247.033 125.05 247.151 125.639C247.269 126.11 247.681 126.463 248.211 126.463C248.27 126.463 248.387 126.463 248.446 126.463C248.623 126.404 248.799 126.404 249.035 126.345C249.506 126.228 249.976 126.169 250.506 126.11C251.095 126.051 251.507 125.462 251.389 124.873C251.212 124.225 250.683 123.872 250.094 123.93Z" fill="white"/>
<path d="M230.318 132.53C229.729 132.943 229.141 133.355 228.552 133.767C228.081 134.121 227.964 134.769 228.317 135.24C228.552 135.534 228.846 135.652 229.2 135.652C229.435 135.652 229.612 135.593 229.847 135.417C230.436 135.004 230.965 134.592 231.554 134.18C232.025 133.826 232.143 133.178 231.789 132.707C231.436 132.295 230.789 132.177 230.318 132.53Z" fill="white"/>
<path d="M122.546 220.177C121.84 220.177 121.074 220.177 120.368 220.236C119.78 220.236 119.309 220.766 119.368 221.355C119.368 221.944 119.838 222.356 120.427 222.356C120.427 222.356 120.427 222.356 120.486 222.356C121.192 222.356 121.898 222.298 122.605 222.298C123.193 222.298 123.664 221.826 123.664 221.237C123.605 220.648 123.135 220.177 122.546 220.177Z" fill="white"/>
<path d="M129.727 220.53C129.021 220.471 128.314 220.412 127.549 220.354C126.961 220.295 126.431 220.766 126.431 221.355C126.372 221.944 126.843 222.474 127.432 222.474C128.138 222.533 128.844 222.592 129.492 222.651C129.551 222.651 129.551 222.651 129.609 222.651C130.139 222.651 130.61 222.238 130.669 221.708C130.728 221.119 130.316 220.589 129.727 220.53Z" fill="white"/>
<path d="M136.851 221.709C136.144 221.532 135.438 221.414 134.732 221.237C134.143 221.12 133.614 221.532 133.496 222.062C133.378 222.651 133.79 223.181 134.32 223.299C135.026 223.417 135.674 223.593 136.38 223.711C136.439 223.711 136.556 223.711 136.615 223.711C137.086 223.711 137.557 223.358 137.675 222.887C137.793 222.415 137.439 221.885 136.851 221.709Z" fill="white"/>
<path d="M156.508 230.603C155.92 230.19 155.331 229.719 154.743 229.366C154.272 229.012 153.624 229.189 153.271 229.66C152.918 230.131 153.095 230.779 153.565 231.133C154.154 231.545 154.684 231.898 155.272 232.311C155.449 232.429 155.684 232.546 155.92 232.546C156.273 232.546 156.567 232.37 156.744 232.134C157.097 231.604 156.979 230.956 156.508 230.603Z" fill="white"/>
<path d="M150.387 226.715C149.739 226.362 149.092 226.067 148.444 225.714C147.914 225.478 147.267 225.714 147.032 226.185C146.796 226.715 147.032 227.363 147.502 227.599C148.15 227.893 148.738 228.188 149.386 228.541C149.563 228.6 149.739 228.659 149.857 228.659C150.21 228.659 150.622 228.482 150.799 228.07C151.093 227.658 150.916 227.01 150.387 226.715Z" fill="white"/>
<path d="M143.795 223.77C143.089 223.534 142.442 223.299 141.735 223.063C141.206 222.886 140.558 223.181 140.381 223.77C140.205 224.3 140.499 224.948 141.088 225.125C141.735 225.36 142.383 225.537 143.089 225.831C143.207 225.89 143.324 225.89 143.442 225.89C143.854 225.89 144.266 225.596 144.443 225.184C144.619 224.595 144.325 223.947 143.795 223.77Z" fill="white"/>
<path d="M88.4088 230.014C88.0556 230.249 87.7613 230.426 87.4082 230.662C87.1139 230.838 86.8784 231.015 86.5841 231.251C86.1133 231.604 85.9955 232.252 86.2898 232.723C86.5253 233.018 86.8196 233.195 87.1727 233.195C87.4082 233.195 87.5847 233.136 87.7613 233.018C88.0556 232.841 88.2911 232.664 88.5854 232.488C88.8796 232.252 89.2328 232.075 89.5271 231.899C89.998 231.604 90.1746 230.897 89.8214 230.426C89.5271 229.837 88.8796 229.719 88.4088 230.014Z" fill="white"/>
<path d="M108.245 221.826C107.539 222.003 106.832 222.18 106.126 222.356C105.537 222.533 105.243 223.063 105.361 223.652C105.479 224.123 105.891 224.477 106.361 224.477C106.479 224.477 106.538 224.477 106.656 224.418C107.303 224.241 108.009 224.065 108.716 223.947C109.304 223.829 109.658 223.24 109.54 222.651C109.422 222.062 108.834 221.708 108.245 221.826Z" fill="white"/>
<path d="M101.356 223.77C100.649 224.006 100.002 224.241 99.2956 224.536C98.7659 224.771 98.4716 225.36 98.7071 225.89C98.8836 226.303 99.2956 226.597 99.7077 226.597C99.8254 226.597 99.9431 226.597 100.061 226.538C100.708 226.303 101.356 226.067 102.003 225.832C102.533 225.655 102.827 225.007 102.651 224.477C102.474 223.888 101.885 223.593 101.356 223.77Z" fill="white"/>
<path d="M115.365 220.589C114.659 220.648 113.953 220.766 113.246 220.884C112.658 220.943 112.246 221.532 112.363 222.062C112.422 222.592 112.893 222.945 113.423 222.945C113.482 222.945 113.541 222.945 113.599 222.945C114.306 222.827 114.953 222.769 115.66 222.651C116.248 222.592 116.66 222.062 116.601 221.473C116.484 220.943 115.954 220.53 115.365 220.589Z" fill="white"/>
<path d="M172.577 218.822C171.988 218.645 171.4 218.999 171.282 219.529C171.106 220.236 170.87 220.884 170.694 221.591C170.517 222.18 170.87 222.769 171.459 222.886C171.576 222.886 171.635 222.945 171.753 222.945C172.224 222.945 172.636 222.651 172.754 222.18C172.93 221.473 173.107 220.825 173.342 220.118C173.46 219.588 173.107 218.999 172.577 218.822Z" fill="white"/>
<path d="M174.696 212.048C174.166 211.872 173.519 212.166 173.342 212.696C173.107 213.403 172.872 214.051 172.695 214.758C172.518 215.347 172.813 215.936 173.401 216.113C173.519 216.172 173.637 216.172 173.696 216.172C174.166 216.172 174.578 215.877 174.696 215.406C174.932 214.758 175.108 214.051 175.344 213.403C175.579 212.873 175.226 212.284 174.696 212.048Z" fill="white"/>
<path d="M177.11 205.392C176.58 205.157 175.933 205.451 175.756 206.04C175.521 206.688 175.285 207.395 174.991 208.043C174.814 208.573 175.05 209.221 175.638 209.398C175.756 209.457 175.874 209.457 175.992 209.457C176.404 209.457 176.816 209.162 176.992 208.75C177.228 208.102 177.463 207.454 177.698 206.747C177.934 206.217 177.64 205.628 177.11 205.392Z" fill="white"/>
<path d="M179.759 198.854C179.229 198.619 178.582 198.854 178.346 199.443C178.052 200.091 177.817 200.739 177.522 201.446C177.287 201.976 177.581 202.624 178.111 202.86C178.229 202.919 178.405 202.919 178.523 202.919C178.935 202.919 179.347 202.683 179.523 202.271C179.818 201.623 180.053 200.975 180.348 200.327C180.583 199.679 180.348 199.09 179.759 198.854Z" fill="white"/>
<path d="M182.761 192.375C182.231 192.139 181.583 192.375 181.348 192.905C181.054 193.553 180.759 194.201 180.465 194.849C180.23 195.379 180.465 196.027 180.995 196.263C181.112 196.321 181.289 196.38 181.466 196.38C181.878 196.38 182.231 196.145 182.407 195.791C182.702 195.143 182.996 194.495 183.29 193.906C183.467 193.317 183.29 192.669 182.761 192.375Z" fill="white"/>
<path d="M169.223 232.605C168.635 232.488 168.105 232.9 167.987 233.43C167.87 234.137 167.752 234.844 167.575 235.55C167.458 236.14 167.87 236.67 168.458 236.787C168.517 236.787 168.576 236.787 168.635 236.787C169.165 236.787 169.577 236.434 169.694 235.904C169.812 235.197 169.93 234.49 170.106 233.842C170.165 233.253 169.812 232.723 169.223 232.605Z" fill="white"/>
<path d="M167.986 239.615C167.397 239.556 166.867 239.909 166.808 240.498C166.749 240.793 166.691 241.146 166.691 241.441C166.691 241.323 166.632 241.205 166.514 241.087C166.102 240.498 165.69 239.909 165.278 239.32C164.925 238.849 164.277 238.731 163.807 239.085C163.336 239.438 163.218 240.086 163.571 240.557C163.983 241.087 164.395 241.676 164.748 242.265C165.101 242.736 165.749 242.854 166.22 242.56C166.396 242.442 166.514 242.324 166.573 242.147C166.573 242.324 166.514 242.501 166.514 242.619C166.455 243.208 166.867 243.738 167.456 243.797C167.515 243.797 167.574 243.797 167.574 243.797C168.103 243.797 168.574 243.384 168.633 242.854C168.751 242.147 168.81 241.441 168.927 240.734C168.986 240.204 168.574 239.674 167.986 239.615Z" fill="white"/>
<path d="M160.393 233.842C159.981 233.43 159.274 233.43 158.862 233.901C158.45 234.313 158.509 235.02 158.921 235.433C159.451 235.904 159.922 236.375 160.393 236.905C160.628 237.141 160.864 237.259 161.158 237.259C161.452 237.259 161.688 237.141 161.923 236.964C162.335 236.552 162.335 235.904 161.982 235.433C161.452 234.844 160.923 234.372 160.393 233.842Z" fill="white"/>
<path d="M170.752 225.714C170.164 225.596 169.634 225.949 169.458 226.479C169.281 227.186 169.104 227.893 168.987 228.541C168.869 229.13 169.222 229.66 169.811 229.837C169.87 229.837 169.987 229.837 170.046 229.837C170.517 229.837 170.988 229.484 171.106 229.012C171.282 228.305 171.4 227.658 171.577 226.951C171.694 226.421 171.341 225.832 170.752 225.714Z" fill="white"/>
<path d="M257.667 132.188C261.529 128.324 261.529 122.059 257.667 118.194C253.805 114.33 247.544 114.33 243.683 118.194C239.821 122.059 239.821 128.324 243.683 132.188C247.544 136.053 253.805 136.053 257.667 132.188Z" fill="white"/>
<path opacity="0.5" d="M250.685 143.663C260.892 143.663 269.166 135.382 269.166 125.168C269.166 114.953 260.892 106.672 250.685 106.672C240.477 106.672 232.203 114.953 232.203 125.168C232.203 135.382 240.477 143.663 250.685 143.663Z" stroke="white" stroke-width="7.5627" stroke-miterlimit="10"/>
<path opacity="0.5" d="M269.945 144.475C280.587 133.825 280.587 116.558 269.945 105.907C259.303 95.2572 242.048 95.2572 231.405 105.907C220.763 116.558 220.763 133.825 231.405 144.475C242.048 155.125 259.303 155.125 269.945 144.475Z" stroke="white" stroke-width="4" stroke-miterlimit="10"/>
<path d="M145.678 111.443L133.494 130.174C139.145 141.189 145.443 147.315 151.741 150.201C152.859 143.309 156.862 137.655 159.805 134.238C148.562 127.818 145.678 111.443 145.678 111.443Z" fill="#FF609B"/>
<path d="M187.41 130.822C174.99 138.185 166.044 137.772 159.804 134.179C156.862 137.596 152.859 143.25 151.741 150.142C171.694 159.331 191.706 136.182 191.706 136.182L187.41 130.822Z" fill="url(#paint0_linear)"/>
<path d="M188.117 134.003C188.117 134.003 184.762 128.113 189.589 123.636C189.589 123.636 191.119 121.869 192.885 124.461C192.885 124.461 198.064 119.748 199.477 121.633C200.89 123.518 204.657 128.23 201.007 133.649C197.24 139.127 189.765 136.653 188.117 134.003Z" fill="url(#paint1_linear)"/>
<path d="M11.2441 256.519C10.1846 257.167 9.596 258.522 9.8903 259.877C10.8909 265.178 14.2459 279.138 22.3685 287.443C22.8982 287.973 23.6634 287.914 24.1343 287.443C22.0742 285.323 19.5432 281.671 16.5414 275.427C11.9504 265.885 11.1263 259.995 11.2441 256.519Z" fill="url(#paint2_linear)"/>
<path d="M21.7218 256.343C21.7218 256.343 16.4833 253.515 11.3037 256.519C11.3037 256.519 11.3037 256.519 11.2448 256.519C11.1271 259.995 11.9511 265.885 16.5422 275.427C19.544 281.612 22.0749 285.323 24.135 287.443C24.3116 287.266 24.4293 287.09 24.4882 286.854C25.9597 281.553 29.1969 266.886 21.7218 256.343Z" fill="url(#paint3_linear)"/>
<path d="M29.2558 256.696L24.547 261.231C23.723 262.056 22.4281 262.174 21.4863 261.526C20.6623 260.937 19.7206 260.053 19.0731 258.581C18.72 257.697 18.8965 256.637 19.544 255.93L24.2527 250.747C25.3711 249.51 27.3723 249.687 28.2552 251.159L29.7267 253.633C30.2564 254.575 30.0798 255.871 29.2558 256.696Z" fill="url(#paint4_linear)"/>
<path d="M182.289 233.842C183.407 234.49 184.878 234.254 185.879 233.371C189.999 229.895 200.476 220.059 203.655 208.926C203.89 208.219 203.419 207.513 202.772 207.395C201.948 210.222 200.005 214.286 196.062 219.941C190.058 228.6 185.408 232.252 182.289 233.842Z" fill="url(#paint5_linear)"/>
<path d="M176.935 224.83C176.935 224.83 177.052 230.779 182.232 233.842C182.232 233.842 182.232 233.842 182.291 233.842C185.41 232.252 190.06 228.6 196.123 219.882C200.066 214.227 201.95 210.222 202.833 207.336C202.597 207.277 202.421 207.277 202.126 207.336C196.77 208.691 182.408 213.167 176.935 224.83Z" fill="url(#paint6_linear)"/>
<path d="M176.579 214.993L181.523 219.293C182.406 220.059 182.641 221.296 182.112 222.356C181.641 223.239 180.817 224.241 179.345 225.007C178.462 225.478 177.462 225.36 176.697 224.771L171.105 220.53C169.751 219.529 169.81 217.526 171.164 216.525L173.518 214.816C174.401 214.169 175.696 214.227 176.579 214.993Z" fill="url(#paint7_linear)"/>
<path d="M77.3424 171.347C77.3424 171.347 67.6894 204.273 61.4503 218.704C61.4503 218.704 50.5613 220.354 43.7925 224.3C37.0236 228.246 22.4854 250.158 22.4854 250.158C22.4854 250.158 26.3112 257.403 30.8434 258.463L72.2216 229.778L105.242 191.315L103.653 173.467L77.3424 171.347Z" fill="url(#paint8_linear)"/>
<path d="M77.9329 168.637L75.1077 177.649C75.1077 177.649 77.6975 201.269 107.48 197.323C137.263 193.317 140.971 188.487 140.971 188.487C140.971 188.487 138.382 203.566 170.931 221.708C170.931 221.708 175.875 217.997 176.993 213.697L154.156 176.118C150.977 171.17 148.035 169.874 142.266 170.817C129.435 172.819 105.479 175.411 101.83 174.822L77.9329 168.637Z" fill="url(#paint9_linear)"/>
<path d="M101.181 101.665C92.5285 102.078 78.8143 106.26 69.9265 114.388C72.634 117.392 76.8131 122.281 79.9326 127.111C82.699 124.46 86.7014 122.281 92.352 120.926C87.4666 139.186 81.6984 156.562 74.6941 172.701C74.2821 173.703 74.753 174.881 75.8125 175.234C81.2275 177.119 97.2962 181.655 110.128 174.351L138.615 133.531C141.676 129.114 143.677 124.107 144.501 118.806L145.62 111.443C145.679 111.443 120.075 100.664 101.181 101.665Z" fill="#FF609B"/>
<path d="M85.6438 163.454C84.4077 160.744 80.1698 158.153 78.1686 157.034C76.4028 153.382 69.3986 137.066 79.9933 127.111C76.8737 122.281 72.6947 117.392 69.9872 114.388C59.7456 123.813 56.0375 138.597 73.9307 159.331C72.9301 164.455 76.1674 170.345 77.8743 171.229C78.6395 171.523 87.2918 167.106 85.6438 163.454Z" fill="url(#paint10_linear)"/>
<path d="M120.427 90.8274L112.952 105.435C112.481 106.319 112.658 107.379 113.305 108.145C115.13 110.147 119.368 113.446 126.784 111.09C127.608 110.854 128.197 110.088 128.315 109.264L130.257 96.0108L120.427 90.8274Z" fill="url(#paint11_linear)"/>
<path d="M132.85 73.8636C132.85 73.8636 137.205 83.877 137.5 89.1782C137.794 94.4205 138.912 97.8957 132.85 98.956C126.787 100.016 121.608 96.9533 118.841 91.711C118.841 91.711 114.486 83.6414 115.486 80.2839C116.428 76.9854 132.85 73.8636 132.85 73.8636Z" fill="url(#paint12_linear)"/>
<path d="M120.9 87.9411L121.254 87.7644C121.666 87.5877 121.901 87.0576 121.666 86.5864C120.783 84.9371 119.135 81.1084 121.312 80.2249C124.079 79.1058 135.144 76.8086 137.499 72.921C139.794 69.1513 137.734 64.2624 134.732 62.9076C134.556 62.7898 134.261 62.9076 134.203 63.0844L133.967 63.5556C133.791 63.909 133.32 63.8501 133.202 63.4967C133.084 63.1433 132.672 63.0844 132.437 63.3789C131.731 64.5569 129.729 66.4418 124.432 67.4431C116.898 68.8568 111.954 71.8608 111.836 77.0442C111.836 77.3976 111.483 77.5743 111.189 77.3976C110.659 77.0442 109.776 76.9264 108.54 77.9277C106.48 79.6359 107.304 84.1714 111.836 87.8822C112.071 88.0589 112.071 88.4123 111.836 88.5301C111.012 89.0603 109.776 90.3561 112.954 92.0054C116.25 93.7724 118.664 93.5957 119.605 93.4779C119.841 93.419 120.017 93.1834 119.959 93.0067L118.958 88.4123C118.899 88.1767 119.076 87.8822 119.37 87.8822H120.9V87.9411Z" fill="url(#paint13_linear)"/>
<path d="M121.078 88.8835C121.078 88.8835 119.43 82.4632 116.546 84.2891C113.661 86.1151 118.017 91.4752 120.371 91.7108L121.078 88.8835Z" fill="url(#paint14_linear)"/>
<path d="M421.02 479.7C421.02 479.523 421.02 479.347 421.079 479.229C423.375 469.569 434.734 463.561 434.734 463.561L439.267 463.914C441.856 472.396 441.503 477.639 441.091 479.995C441.091 480.054 441.032 480.112 441.032 480.171C437.383 480.525 429.673 480.76 421.02 479.7Z" fill="url(#paint15_linear)"/>
<path d="M441.092 480.171C440.916 480.937 440.327 481.526 439.68 481.703C434.382 482.881 425.965 481.938 422.434 481.467C421.669 481.349 421.08 480.584 421.08 479.759C429.674 480.76 437.384 480.525 441.092 480.171Z" fill="url(#paint16_linear)"/>
<path d="M441.092 456.787L439.209 466.565C439.091 467.272 438.561 467.802 437.914 467.861C437.148 467.92 436.03 467.979 434.971 467.802C433.97 467.625 433.323 466.565 433.499 465.446L434.853 456.787H441.092Z" fill="url(#paint17_linear)"/>
<path d="M401.481 480.054C406.484 479.877 409.015 479.288 410.368 478.699C410.368 479.229 410.368 479.759 410.368 480.289C410.368 480.878 409.956 481.35 409.427 481.35L382.057 481.173C381.174 481.173 380.644 480.113 381.056 479.229C384.647 479.582 393.829 480.289 401.481 480.054Z" fill="url(#paint18_linear)"/>
<path d="M381.055 479.288C381.114 479.229 381.114 479.111 381.173 479.052C383.586 475.459 389.767 468.332 401.892 465.21L407.719 465.033C407.719 465.033 410.309 469.805 410.367 478.699C409.014 479.288 406.483 479.877 401.48 480.054C393.828 480.289 384.646 479.582 381.055 479.288Z" fill="url(#paint19_linear)"/>
<path d="M408.837 455.668C408.778 456.139 407.954 463.149 407.66 465.858C407.601 466.506 407.13 466.977 406.6 467.095C405.599 467.213 404.01 467.331 402.598 467.036C401.832 466.86 401.303 466.094 401.303 465.21V454.196L408.837 455.668Z" fill="url(#paint20_linear)"/>
<path d="M413.486 327.674C413.486 327.674 399.419 384.455 399.654 455.845C399.654 457.141 400.537 458.26 401.714 458.555C403.48 458.967 406.07 459.438 408.247 459.379C409.425 459.32 410.366 458.437 410.543 457.259C412.544 445.007 423.845 375.797 430.261 364.546C430.261 364.546 434.499 426.158 433.145 458.142C433.086 458.908 433.675 459.615 434.381 459.733C435.499 459.85 437.324 459.968 439.62 459.733C440.502 459.615 441.209 458.908 441.326 458.024C442.739 447.658 450.803 385.751 450.45 341.221C450.45 338.688 444.211 327.791 444.211 327.791H413.486V327.674Z" fill="url(#paint21_linear)"/>
<path d="M391.946 251.218C394.418 244.562 399.303 240.262 403.482 235.02C419.139 238.024 444.095 240.38 454.808 241.853C458.163 242.324 461.223 244.032 463.401 246.742C472.112 257.462 491.3 286.854 468.757 316.482C465.873 314.774 461.753 312.064 458.987 308.884C461.459 301.403 461.694 291.861 456.456 280.139C456.279 281.082 456.044 281.965 455.808 282.908C448.627 307.175 448.215 327.32 448.215 331.973C448.215 332.621 447.862 333.151 447.332 333.387C437.856 337.451 419.61 335.036 413.429 334.035C412.311 333.858 411.546 332.739 411.722 331.561C414.724 308.412 399.303 270.361 395.183 260.819C394.594 259.406 393.535 258.286 392.24 257.697C391.593 257.403 390.945 257.05 390.298 256.755C390.71 254.811 391.298 252.985 391.946 251.218Z" fill="#0C58AE"/>
<path d="M438.385 219.529L439.503 240.204C439.562 240.793 439.15 241.382 438.62 241.499C436.148 242.147 429.32 243.502 423.376 239.909C422.61 239.438 422.257 238.437 422.493 237.553L427.496 218.94L438.385 219.529Z" fill="url(#paint22_linear)"/>
<path d="M426.199 196.911C425.964 197.146 415.545 218.881 415.545 218.881L427.376 224.948L440.149 205.923C440.09 205.923 430.437 192.67 426.199 196.911Z" fill="url(#paint23_linear)"/>
<path d="M434.852 206.453C435.088 207.042 435.029 207.69 434.734 208.22L428.849 218.646C428.731 218.822 428.672 218.94 428.554 219.058C427.848 219.765 425.435 221.767 423.61 218.999C422.021 216.643 420.549 214.522 418.96 213.639C418.018 213.109 416.9 213.521 416.429 214.522C415.487 216.584 413.604 220.707 412.368 224.654C412.074 225.655 412.544 226.715 413.486 227.069C415.899 228.07 420.608 229.955 424.787 230.544C425.494 230.662 426.141 230.308 426.553 229.719C428.378 227.069 433.44 219.765 435.205 217.939C436.795 216.231 439.796 216.878 441.15 217.291C441.68 217.467 442.21 217.35 442.68 217.055C444.034 216.172 446.389 213.992 444.27 210.34C443.74 209.457 444.034 208.22 444.858 207.631C446.389 206.571 448.037 204.568 446.448 201.328C444.858 198.089 442.033 197.794 440.091 198.03C439.208 198.148 438.384 197.676 438.031 196.793C437.913 196.439 437.619 196.086 437.03 195.968C436.029 195.733 435.323 194.79 435.559 193.671C435.912 191.845 435.617 189.43 432.851 187.781C427.73 184.777 423.316 189.666 422.139 193.73C421.02 197.794 426.73 200.739 430.261 201.21C432.851 201.799 434.264 204.862 434.852 206.453Z" fill="url(#paint24_linear)"/>
<path d="M432.909 221.885C432.909 221.885 435.204 214.817 438.088 215.111C440.972 215.347 443.268 218.41 439.678 221.885C435.204 226.185 432.909 221.885 432.909 221.885Z" fill="url(#paint25_linear)"/>
<path d="M356.807 241.441C371.699 247.213 403.424 234.961 403.424 234.961L405.602 262.469C380.174 271.009 363.635 268.536 352.922 261.408C352.275 253.28 354.571 246.212 356.807 241.441Z" fill="#0C58AE"/>
<path d="M333.086 213.05L339.325 211.754C339.325 211.754 341.032 232.782 354.923 240.557C355.511 240.91 356.159 241.205 356.806 241.44C354.57 246.211 352.274 253.28 352.921 261.408C331.085 246.918 333.086 213.05 333.086 213.05Z" fill="url(#paint26_linear)"/>
<path d="M339.031 213.58L339.325 211.754C339.325 211.754 340.62 207.277 337.206 202.859C332.203 196.498 328.613 198.854 328.613 198.854C328.613 198.854 328.848 200.209 328.848 201.446C328.848 202.447 327.73 202.918 327.082 202.27L318.96 194.378C318.96 194.378 316.723 206.924 334.087 215.582L339.031 213.58Z" fill="url(#paint27_linear)"/>
<path d="M458.927 308.825C461.812 312.123 465.814 314.479 468.816 316.247C464.284 322.137 453.277 331.149 453.277 331.149L448.274 328.969C448.274 328.911 454.042 323.433 458.927 308.825Z" fill="url(#paint28_linear)"/>
<path d="M451.745 324.434L448.272 328.911C448.272 328.911 440.621 332.504 440.385 334.977C440.15 337.451 439.208 339.16 439.561 339.69C439.973 340.279 445.624 341.751 445.8 339.925C445.977 338.099 446.801 335.095 449.214 334.977C451.569 334.86 453.511 332.562 454.041 330.854L457.513 324.905L451.745 324.434Z" fill="url(#paint29_linear)"/>
</g>
<defs>
<linearGradient id="paint0_linear" x1="196.534" y1="127.436" x2="105.16" y2="171.668" gradientUnits="userSpaceOnUse">
<stop stop-color="#FEBBBA"/>
<stop offset="1" stop-color="#FF928E"/>
</linearGradient>
<linearGradient id="paint1_linear" x1="196.971" y1="128.336" x2="105.598" y2="172.568" gradientUnits="userSpaceOnUse">
<stop stop-color="#FEBBBA"/>
<stop offset="1" stop-color="#FF928E"/>
</linearGradient>
<linearGradient id="paint2_linear" x1="9.81125" y1="272.191" x2="24.1122" y2="272.191" gradientUnits="userSpaceOnUse">
<stop stop-color="#090056"/>
<stop offset="1" stop-color="#020039"/>
</linearGradient>
<linearGradient id="paint3_linear" x1="11.2399" y1="271.291" x2="26.4581" y2="271.291" gradientUnits="userSpaceOnUse">
<stop stop-color="#090056"/>
<stop offset="1" stop-color="#020039"/>
</linearGradient>
<linearGradient id="paint4_linear" x1="18.8373" y1="255.892" x2="30.0282" y2="255.892" gradientUnits="userSpaceOnUse">
<stop stop-color="#FEBBBA"/>
<stop offset="1" stop-color="#FF928E"/>
</linearGradient>
<linearGradient id="paint5_linear" x1="182.291" y1="220.807" x2="203.729" y2="220.807" gradientUnits="userSpaceOnUse">
<stop stop-color="#090056"/>
<stop offset="1" stop-color="#020039"/>
</linearGradient>
<linearGradient id="paint6_linear" x1="176.949" y1="220.606" x2="202.8" y2="220.606" gradientUnits="userSpaceOnUse">
<stop stop-color="#090056"/>
<stop offset="1" stop-color="#020039"/>
</linearGradient>
<linearGradient id="paint7_linear" x1="170.094" y1="219.857" x2="182.389" y2="219.857" gradientUnits="userSpaceOnUse">
<stop stop-color="#FEBBBA"/>
<stop offset="1" stop-color="#FF928E"/>
</linearGradient>
<linearGradient id="paint8_linear" x1="22.4607" y1="214.925" x2="105.296" y2="214.925" gradientUnits="userSpaceOnUse">
<stop stop-color="#090056"/>
<stop offset="1" stop-color="#020039"/>
</linearGradient>
<linearGradient id="paint9_linear" x1="75.0895" y1="195.188" x2="176.949" y2="195.188" gradientUnits="userSpaceOnUse">
<stop stop-color="#090056"/>
<stop offset="1" stop-color="#020039"/>
</linearGradient>
<linearGradient id="paint10_linear" x1="83.1705" y1="157.329" x2="28.7441" y2="61.2032" gradientUnits="userSpaceOnUse">
<stop stop-color="#FEBBBA"/>
<stop offset="1" stop-color="#FF928E"/>
</linearGradient>
<linearGradient id="paint11_linear" x1="117.536" y1="116.177" x2="123.233" y2="99.9416" gradientUnits="userSpaceOnUse">
<stop stop-color="#FEBBBA"/>
<stop offset="1" stop-color="#FF928E"/>
</linearGradient>
<linearGradient id="paint12_linear" x1="133.743" y1="82.7014" x2="108.764" y2="101.8" gradientUnits="userSpaceOnUse">
<stop stop-color="#FEBBBA"/>
<stop offset="1" stop-color="#FF928E"/>
</linearGradient>
<linearGradient id="paint13_linear" x1="116.167" y1="67.5652" x2="139.44" y2="97.507" gradientUnits="userSpaceOnUse">
<stop stop-color="#090056"/>
<stop offset="1" stop-color="#020039"/>
</linearGradient>
<linearGradient id="paint14_linear" x1="130.646" y1="78.651" x2="105.667" y2="97.7501" gradientUnits="userSpaceOnUse">
<stop stop-color="#FEBBBA"/>
<stop offset="1" stop-color="#FF928E"/>
</linearGradient>
<linearGradient id="paint15_linear" x1="441.408" y1="472.013" x2="421.043" y2="472.013" gradientUnits="userSpaceOnUse">
<stop stop-color="#090056"/>
<stop offset="1" stop-color="#020039"/>
</linearGradient>
<linearGradient id="paint16_linear" x1="390.302" y1="448.37" x2="464.643" y2="506.701" gradientUnits="userSpaceOnUse">
<stop stop-color="#090056"/>
<stop offset="1" stop-color="#020039"/>
</linearGradient>
<linearGradient id="paint17_linear" x1="435.657" y1="447.434" x2="439.782" y2="483.407" gradientUnits="userSpaceOnUse">
<stop stop-color="#FEBBBA"/>
<stop offset="1" stop-color="#FF928E"/>
</linearGradient>
<linearGradient id="paint18_linear" x1="377.227" y1="465.164" x2="451.549" y2="523.478" gradientUnits="userSpaceOnUse">
<stop stop-color="#090056"/>
<stop offset="1" stop-color="#020039"/>
</linearGradient>
<linearGradient id="paint19_linear" x1="410.399" y1="472.588" x2="381.084" y2="472.588" gradientUnits="userSpaceOnUse">
<stop stop-color="#090056"/>
<stop offset="1" stop-color="#020039"/>
</linearGradient>
<linearGradient id="paint20_linear" x1="404.001" y1="451.287" x2="408.123" y2="487.233" gradientUnits="userSpaceOnUse">
<stop stop-color="#FEBBBA"/>
<stop offset="1" stop-color="#FF928E"/>
</linearGradient>
<linearGradient id="paint21_linear" x1="354.328" y1="287.074" x2="485.523" y2="490.504" gradientUnits="userSpaceOnUse">
<stop stop-color="#090056"/>
<stop offset="1" stop-color="#020039"/>
</linearGradient>
<linearGradient id="paint22_linear" x1="426.903" y1="213.936" x2="443.756" y2="286.712" gradientUnits="userSpaceOnUse">
<stop stop-color="#FEBBBA"/>
<stop offset="1" stop-color="#FF928E"/>
</linearGradient>
<linearGradient id="paint23_linear" x1="429.721" y1="201.026" x2="421.948" y2="246.734" gradientUnits="userSpaceOnUse">
<stop stop-color="#FEBBBA"/>
<stop offset="1" stop-color="#FF928E"/>
</linearGradient>
<linearGradient id="paint24_linear" x1="437.398" y1="222.221" x2="415.029" y2="198.476" gradientUnits="userSpaceOnUse">
<stop stop-color="#090056"/>
<stop offset="1" stop-color="#020039"/>
</linearGradient>
<linearGradient id="paint25_linear" x1="435.888" y1="250.917" x2="437.27" y2="218.822" gradientUnits="userSpaceOnUse">
<stop stop-color="#FEBBBA"/>
<stop offset="1" stop-color="#FF928E"/>
</linearGradient>
<linearGradient id="paint26_linear" x1="319.904" y1="197.584" x2="388.024" y2="306.68" gradientUnits="userSpaceOnUse">
<stop stop-color="#FEBBBA"/>
<stop offset="1" stop-color="#FF928E"/>
</linearGradient>
<linearGradient id="paint27_linear" x1="323.931" y1="195.07" x2="392.052" y2="304.166" gradientUnits="userSpaceOnUse">
<stop stop-color="#FEBBBA"/>
<stop offset="1" stop-color="#FF928E"/>
</linearGradient>
<linearGradient id="paint28_linear" x1="468.961" y1="306.322" x2="434.47" y2="348.524" gradientUnits="userSpaceOnUse">
<stop stop-color="#FEBBBA"/>
<stop offset="1" stop-color="#FF928E"/>
</linearGradient>
<linearGradient id="paint29_linear" x1="468.603" y1="306.81" x2="434.958" y2="347.977" gradientUnits="userSpaceOnUse">
<stop stop-color="#FEBBBA"/>
<stop offset="1" stop-color="#FF928E"/>
</linearGradient>
<clipPath id="clip0">
<rect width="482" height="484" fill="white"/>
</clipPath>
</defs>
</svg>
