<svg width="272" height="118" viewBox="0 0 272 118" fill="none" xmlns="http://www.w3.org/2000/svg">
<g clip-path="url(#clip0)">
<path d="M272 116.142H0.326529C0.326529 116.142 0.0950131 113.906 0.0213488 110.296C-0.0207451 108.186 0.000301875 105.614 0.14763 102.749C0.158154 102.518 0.168677 102.276 0.189724 102.035C0.273912 100.723 0.379147 99.348 0.515952 97.931C0.526475 97.805 0.536999 97.679 0.558046 97.5531C0.715898 96.0731 0.90532 94.5301 1.15788 92.9557C1.35783 91.6751 1.58935 90.3526 1.85243 89.0195C1.87348 88.9251 1.89453 88.8306 1.90505 88.7361C2.04185 88.0539 2.18918 87.3716 2.34703 86.6789C2.41018 86.406 2.47332 86.133 2.53646 85.8706C2.66274 85.3458 2.79954 84.8105 2.93635 84.2752C3.2731 82.9632 3.65194 81.6511 4.07288 80.3286C4.11498 80.1921 4.15707 80.0557 4.19916 79.9192C4.38859 79.3314 4.58853 78.7436 4.799 78.1453C5.11471 77.2426 5.45146 76.3504 5.80925 75.4478C6.03025 74.881 6.26176 74.3247 6.5038 73.7579C8.78739 68.4467 11.8392 63.2405 15.9118 58.5801C25.2461 47.9053 39.9474 40.096 63.0148 40.327C67.6557 40.3689 71.9597 40.2535 75.9902 39.9806H76.0008C77.2215 39.8966 78.4212 39.8021 79.5893 39.6972H79.5998C106.245 37.2515 119.599 28.1407 131.744 19.2503C132.175 18.9354 132.617 18.61 133.048 18.2951C137.289 15.1777 141.446 12.1128 146.024 9.4152C147.192 8.72244 148.392 8.05068 149.633 7.4104C157.221 3.48476 166.208 0.640252 178.615 0.0209669C179.825 -0.0420112 181.004 -0.0315149 182.151 0.0419596C182.593 0.0734487 183.024 0.104938 183.456 0.157419C188.286 0.682237 192.548 2.40364 196.126 5.1117C205.418 12.1757 210.049 25.9784 207.628 43.1925C205.987 54.8539 209.691 61.1832 216.036 65.3188C233.579 76.7598 271.337 71.4382 272 116.142Z" fill="#F8FBFF"/>
<path d="M140.657 71.5011V66.1795H139.405V57.0267H132.691V66.1795H126.419V51.2642H119.495V60.9418H117.916V49.3853H110.992V71.0603H102.236V83.7084H98.9633V78.0823H91.4495V81.4097H87.1349V66.5049H81.7995V77.5365H76.4746V117.947H81.7995H86.3772H87.1349H91.4495H93.891H97.7952H98.9633H102.236H105.309H110.992H112.738H116.201H117.916H119.495H123.125H125.588H126.419H132.691H139.289H139.405H140.657H146.003V71.5011H140.657Z" fill="#E7F1FB"/>
<path d="M215.805 89.8068V117.948H148.613V93.4595H153.769V86.7838H158.915V95.8107H163.083V93.7954H170.344V97.2067H173.511V89.5444H181.972V76.403H188.665V83.4145H190.191V77.5471H196.884V86.5844H202.945V81.0318H209.428V86.5844H210.638V89.8068H215.805Z" fill="#E7F1FB"/>
<path d="M77.1582 78.7751V117.811H15.9011V83.8449H20.5946V74.5766H25.288V87.0987H29.087V84.2962H35.7168V89.0301H38.6002V78.4077H46.3139V60.1861H52.407V69.9057H53.7961V61.7605H59.8997V74.3037H65.4245V66.6099H71.3387V74.3037H72.4437V78.7751H77.1582Z" fill="#E7F1FB"/>
<path d="M149.612 7.4314V117.696H146.003V9.4257C147.171 8.73294 148.381 8.07167 149.612 7.4314Z" fill="#DEEDFF"/>
<path d="M79.589 39.7181V116.142V117.696H75.9795V116.142V40.0015L79.589 39.7181Z" fill="#DEEDFF"/>
<path d="M133.027 18.3056V26.8811C133.027 27.9623 132.754 28.844 132.417 28.844H132.333C131.996 28.844 131.722 27.9623 131.722 26.8811V19.2608C132.164 18.9459 132.596 18.631 133.027 18.3056Z" fill="#F99746"/>
<path d="M132.038 25.3802C127.292 25.3802 123.44 29.4423 123.44 34.449H140.646C140.636 29.4423 136.784 25.3802 132.038 25.3802Z" fill="#F99746"/>
<path d="M132.722 25.4956C132.48 25.4431 132.227 25.4116 131.964 25.4116C128.87 25.4116 126.355 29.4632 126.355 34.4595H127.871C127.871 29.8726 129.986 26.0834 132.722 25.4956Z" fill="#FFB278"/>
<path d="M183.445 0.178387V24.8133C183.445 25.0337 183.445 25.2437 183.435 25.4431C183.393 27.3639 183.14 28.8439 182.835 28.8439H182.751C182.467 28.8439 182.235 27.5739 182.161 25.8525C182.151 25.716 182.151 25.5691 182.151 25.4221C182.151 25.4116 182.151 25.4011 182.151 25.3906C182.151 25.2017 182.14 25.0128 182.14 24.8133V0.0629272C182.582 0.0944163 183.014 0.125905 183.445 0.178387Z" fill="#F99746"/>
<path d="M182.456 25.3801C177.71 25.3801 173.858 29.4422 173.858 34.449H191.064C191.054 29.4422 187.202 25.3801 182.456 25.3801Z" fill="#F99746"/>
<path d="M183.14 25.4956C182.898 25.4431 182.646 25.4116 182.382 25.4116C179.289 25.4116 176.773 29.4632 176.773 34.4595H178.289C178.289 29.8726 180.404 26.0834 183.14 25.4956Z" fill="#FFB278"/>
<path d="M272 117.832H215.805V117.853H196.115V5.13269C205.418 12.2912 210.049 26.2933 207.628 43.7803C205.986 55.6201 209.691 62.0439 216.036 66.2424C233.579 77.8619 271.337 72.4458 272 117.832Z" fill="#DEEDFF"/>
<path d="M237.294 104.512C237.294 104.512 235.126 101.993 237.157 100.387C237.157 100.387 238.641 99.4844 239.851 99.5579C239.851 99.5579 238.136 102.434 238.694 102.717C239.251 103.001 240.377 99.3794 240.377 99.3794C240.377 99.3794 243.755 99.0541 244.85 99.5789C244.85 99.5789 241.956 101.941 242.566 102.077C243.177 102.213 246.302 99.9042 246.302 99.9042C246.302 99.9042 249.449 100.44 249.28 102.35C249.112 104.271 248.028 104.859 247.554 104.806C247.081 104.754 244.292 103.693 244.229 104.082C244.166 104.47 245.85 105.74 247.018 105.803C247.018 105.803 244.797 108.249 243.324 107.535C241.851 106.832 241.724 105.709 240.798 105.299C239.883 104.879 239.093 104.879 239.472 105.31C239.851 105.74 241.514 106.15 242.04 107.084C242.566 108.007 243.04 108.637 241.514 108.406C239.988 108.175 237.504 107.063 237.399 105.793C237.294 104.512 237.294 104.512 237.294 104.512Z" fill="#82B378"/>
<path d="M247.733 102.402C247.733 102.402 239.178 102.077 237.294 104.512C237.294 104.512 236.873 105.761 235.589 106.895L235.389 107.441C235.389 107.441 236.873 105.887 237.399 105.793C237.41 105.793 236.578 102.77 247.733 102.402Z" fill="#82B378"/>
<path d="M235.6 106.905C235.6 106.905 233.769 108.259 233.632 110.674L233.969 110.705C233.969 110.705 234.558 108.207 235.61 107.231C236.673 106.244 235.6 106.905 235.6 106.905Z" fill="#82B378"/>
<path d="M229.717 101.342C229.717 101.342 233.169 99.4109 231.558 96.7973C231.558 96.7973 230.275 95.1914 228.886 94.782C228.886 94.782 229.622 98.6867 228.886 98.7706C228.149 98.8651 228.38 94.3622 228.38 94.3622C228.38 94.3622 224.75 92.6198 223.319 92.7562C223.319 92.7562 225.571 96.5664 224.834 96.4719C224.097 96.3775 221.572 92.5253 221.572 92.5253C221.572 92.5253 217.846 91.8326 217.247 94.0368C216.647 96.241 217.615 97.3431 218.162 97.4796C218.709 97.616 222.256 97.5741 222.161 98.0254C222.066 98.4872 219.677 99.222 218.341 98.8021C218.341 98.8021 219.814 102.423 221.74 102.245C223.676 102.066 224.266 100.87 225.465 100.775C226.665 100.681 227.539 101.006 226.939 101.321C226.339 101.647 224.318 101.426 223.35 102.245C222.382 103.064 221.603 103.567 223.392 103.935C225.181 104.302 228.401 104.071 229.054 102.696C229.717 101.342 229.717 101.342 229.717 101.342Z" fill="#A8D29F"/>
<path d="M218.952 94.74C218.952 94.74 228.612 97.8574 229.717 101.342C229.717 101.342 229.675 102.906 230.633 104.691V105.383C230.633 105.383 229.622 103.043 229.065 102.717C229.075 102.717 231.233 99.6943 218.952 94.74Z" fill="#82B378"/>
<path d="M230.633 104.691C230.633 104.691 232.127 106.947 231.274 109.697L230.896 109.592C230.896 109.592 231.264 106.569 230.485 105.047C229.706 103.525 230.633 104.691 230.633 104.691Z" fill="#82B378"/>
<path d="M235.199 98.6867C235.199 98.6867 230.653 96.1466 232.779 92.7038C232.779 92.7038 234.473 90.5835 236.294 90.0377C236.294 90.0377 235.326 95.1809 236.294 95.2964C237.262 95.4224 236.957 89.4919 236.957 89.4919C236.957 89.4919 241.745 87.1932 243.629 87.3717C243.629 87.3717 240.661 92.3889 241.629 92.2734C242.597 92.1475 245.933 87.0673 245.933 87.0673C245.933 87.0673 250.848 86.1646 251.637 89.0616C252.426 91.9691 251.153 93.4175 250.427 93.596C249.701 93.7744 245.028 93.7219 245.154 94.3202C245.281 94.929 248.427 95.8947 250.185 95.3489C250.185 95.3489 248.248 100.125 245.702 99.8833C243.155 99.6419 242.366 98.0674 240.787 97.952C239.209 97.826 238.062 98.2564 238.851 98.6762C239.64 99.0961 242.303 98.8127 243.576 99.8938C244.849 100.975 245.881 101.636 243.513 102.119C241.145 102.602 236.904 102.297 236.052 100.482C235.199 98.6867 235.199 98.6867 235.199 98.6867Z" fill="#A8D29F"/>
<path d="M249.396 89.9748C249.396 89.9748 236.662 94.0894 235.21 98.6868C235.21 98.6868 235.273 100.744 234 103.106V104.008C234 104.008 235.336 100.922 236.063 100.503C236.052 100.503 233.2 96.5035 249.396 89.9748Z" fill="#82B378"/>
<path d="M233.989 103.106C233.989 103.106 232.021 106.076 233.147 109.697L233.653 109.561C233.653 109.561 233.158 105.572 234.189 103.568C235.221 101.563 233.989 103.106 233.989 103.106Z" fill="#82B378"/>
<path d="M235.052 117.549C239.977 117.549 243.955 113.571 243.955 108.658H226.139C226.139 113.571 230.127 117.549 235.052 117.549Z" fill="#F1A34F"/>
<path d="M237.241 117.475C236.883 117.517 236.504 117.538 236.136 117.538C231.211 117.538 227.233 113.56 227.233 108.648H229.443C229.443 113.193 232.842 116.94 237.241 117.475Z" fill="#FFB973"/>
<path d="M244.081 118H226.023C226.023 117.391 226.518 116.908 227.118 116.908H242.987C243.587 116.898 244.081 117.391 244.081 118Z" fill="#F1A34F"/>
<path d="M244.166 108.658H225.855V108.931H244.166V108.658Z" fill="#D86713"/>
<path d="M197.61 90.1531C197.768 86.238 198.125 82.8267 198.536 80.4545C199.199 76.6653 199.799 74.4926 199.809 74.4716C199.893 74.1357 201.167 72.7922 203.977 72.8342C206.797 72.8761 206.523 74.6395 206.523 74.6395C206.523 74.7025 206.513 74.755 206.502 74.797C206.471 74.8914 203.892 84.1072 203.998 96.0101C203.998 96.1781 204.019 96.4615 204.008 96.6609C204.008 96.6609 197.484 96.8288 197.484 96.6609C197.263 95.6217 197.368 92.7457 197.61 90.1531Z" fill="#D1A586"/>
<path d="M196.789 95.9576C196.789 96.1255 196.884 96.2515 196.989 96.2515C197.094 96.2515 197.189 96.115 197.189 95.9576H202.777C202.777 96.1255 202.872 96.2515 202.977 96.2515C203.082 96.2515 203.177 96.115 203.177 95.9471C203.145 92.5358 203.345 89.3554 203.64 86.5529C204.387 79.5518 205.755 74.8704 205.776 74.797C205.787 74.755 205.797 74.7025 205.797 74.6395C205.797 74.6395 206.06 72.8761 203.251 72.8342C200.43 72.7922 199.168 74.1357 199.083 74.4716C199.083 74.4926 198.736 75.7206 198.284 77.9354C198.136 78.6701 197.968 79.5098 197.81 80.4545C197.389 82.8267 197.042 86.238 196.884 90.1531C196.642 92.7457 196.558 94.9184 196.789 95.9576Z" fill="#E5BD9E"/>
<path d="M196.789 95.9576C196.789 96.1256 196.884 96.2515 196.989 96.2515C197.094 96.2515 197.189 96.1151 197.189 95.9576H202.777C202.777 96.1256 202.872 96.2515 202.977 96.2515C203.082 96.2515 203.177 96.1151 203.177 95.9471C203.145 92.5358 203.345 89.3554 203.64 86.5529C202.714 82.1129 199.147 78.7121 198.284 77.9459C198.136 78.6806 197.968 79.5203 197.81 80.465C197.389 82.8372 197.042 86.2485 196.884 90.1636C196.642 92.7457 196.558 94.9185 196.789 95.9576Z" fill="#DFB697"/>
<path d="M202.419 95.9051L202.409 95.8946C202.409 95.8946 202.398 95.8841 202.398 95.8631C202.398 95.8211 202.387 95.7792 202.356 95.7477C202.177 95.5692 201.504 95.5797 200.641 95.5902C199.704 95.6007 198.536 95.6112 197.378 95.4118C196.778 95.3068 197.178 90.7619 197.61 86.5004C197.683 85.7761 197.736 85.2093 197.768 84.8735C198.041 81.2522 199.651 74.8285 199.662 74.776C199.736 74.5031 200.704 73.5059 202.798 73.5374C203.587 73.5479 204.155 73.7473 204.471 74.1147C204.787 74.4926 204.734 74.9019 204.724 74.9229C204.724 74.9649 204.724 75.0069 204.703 75.0489C204.692 75.0804 203.25 83.3935 203.008 85.3878C202.619 88.6731 202.461 95.4748 202.461 95.8631V95.8736V95.8946L202.419 95.9051ZM201.167 95.5168C201.798 95.5168 202.23 95.5482 202.387 95.7057C202.387 95.5482 202.398 95.2543 202.419 94.698C202.44 94.0473 202.472 93.0291 202.514 91.885C202.598 89.8802 202.735 87.1197 202.945 85.3668C203.187 83.32 204.629 75.0384 204.64 75.0174C204.65 74.9859 204.65 74.9439 204.65 74.9124C204.65 74.9019 204.703 74.5031 204.408 74.1567C204.103 73.7998 203.556 73.6109 202.787 73.6004C200.725 73.5689 199.788 74.5346 199.715 74.797C199.693 74.86 198.094 81.2522 197.82 84.884C197.799 85.2198 197.736 85.7866 197.662 86.5109C197.378 89.3449 196.789 95.2439 197.378 95.3488C198.536 95.5482 199.693 95.5377 200.63 95.5272C200.83 95.5168 201.009 95.5168 201.167 95.5168Z" fill="#D1A586"/>
<path d="M203.587 96.2515H181.667C181.667 96.2515 182.182 94.2152 194.874 94.5196C203.861 94.74 203.587 96.2515 203.587 96.2515Z" fill="#E5BD9E"/>
<path d="M205.376 117.486C202.83 104.827 203.493 97.0597 203.493 96.9548C203.503 96.7553 203.135 96.5874 202.935 96.5769C202.735 96.5769 201.862 96.5244 201.756 96.6818C201.62 96.9023 201.114 106.475 204.903 117.475H205.376V117.486Z" fill="#D1A586"/>
<path d="M184.897 117.486C187.444 104.827 186.781 97.0597 186.781 96.9548C186.771 96.7553 187.139 96.5874 187.339 96.5769C187.539 96.5769 188.412 96.5244 188.517 96.6818C188.654 96.9023 189.159 106.475 185.371 117.475H184.897V117.486Z" fill="#D1A586"/>
<path d="M180.846 117.486C183.393 104.827 182.73 97.0597 182.73 96.9548C182.719 96.7553 183.087 96.5874 183.287 96.5769C183.487 96.5769 184.361 96.5244 184.466 96.6818C184.603 96.9023 185.108 106.475 181.319 117.475H180.846V117.486Z" fill="#A0795F"/>
<path d="M201.282 117.486C198.736 104.827 199.399 97.0597 199.399 96.9548C199.409 96.7553 199.041 96.5874 198.841 96.5769C198.641 96.5769 197.768 96.5244 197.662 96.6818C197.526 96.9023 197.02 106.475 200.809 117.475H201.282V117.486Z" fill="#A0795F"/>
<path d="M181.646 96.9023H203.576C203.819 96.9023 204.018 96.7029 204.018 96.4614V96.178C204.018 95.9366 203.819 95.7372 203.576 95.7372H181.646C181.404 95.7372 181.204 95.9366 181.204 96.178V96.4614C181.204 96.7029 181.404 96.9023 181.646 96.9023Z" fill="#D1A586"/>
<path d="M114.632 89.7753C114.79 85.8077 115.148 82.3544 115.558 79.9402C116.221 76.0985 116.821 73.8943 116.831 73.8733C116.916 73.5374 118.189 72.1729 120.999 72.2149C123.819 72.2569 123.545 74.0517 123.545 74.0517C123.545 74.1147 123.535 74.1672 123.524 74.2092C123.493 74.3037 120.915 83.6454 121.02 95.7162C121.02 95.8842 121.041 96.1781 121.03 96.3775C121.03 96.3775 114.506 96.5454 114.506 96.3775C114.285 95.3174 114.39 92.3994 114.632 89.7753Z" fill="#D1A586"/>
<path d="M113.811 95.6532C113.811 95.8212 113.906 95.9576 114.011 95.9576C114.117 95.9576 114.211 95.8212 114.211 95.6532H119.799C119.799 95.8212 119.894 95.9576 119.999 95.9576C120.105 95.9576 120.199 95.8212 120.199 95.6427C120.168 92.1894 120.368 88.9566 120.662 86.1121C121.409 79.006 122.778 74.2617 122.799 74.1987C122.809 74.1567 122.82 74.1042 122.82 74.0412C122.82 74.0412 123.083 72.2464 120.273 72.2044C117.453 72.1624 116.19 73.5269 116.106 73.8628C116.106 73.8838 115.758 75.1329 115.306 77.3791C115.158 78.1243 114.99 78.9745 114.832 79.9297C114.411 82.3334 114.064 85.7867 113.906 89.7648C113.664 92.3994 113.58 94.6036 113.811 95.6532Z" fill="#E5BD9E"/>
<path d="M113.811 95.6532C113.811 95.8212 113.906 95.9576 114.011 95.9576C114.117 95.9576 114.211 95.8212 114.211 95.6532H119.799C119.799 95.8212 119.894 95.9576 119.999 95.9576C120.105 95.9576 120.199 95.8212 120.199 95.6427C120.168 92.1894 120.368 88.9566 120.662 86.1121C119.736 81.6091 116.169 78.1558 115.306 77.3791C115.158 78.1243 114.99 78.9745 114.832 79.9297C114.411 82.3334 114.064 85.7867 113.906 89.7648C113.664 92.3994 113.58 94.6036 113.811 95.6532Z" fill="#DFB697"/>
<path d="M119.441 95.6007L119.431 95.5902C119.431 95.5902 119.42 95.5797 119.42 95.5588C119.42 95.5063 119.41 95.4748 119.378 95.4433C119.199 95.2649 118.526 95.2649 117.663 95.2754C116.726 95.2859 115.558 95.2963 114.401 95.0969C113.801 94.992 114.201 90.3841 114.632 86.0701C114.706 85.3353 114.758 84.758 114.79 84.4116C115.064 80.7589 116.674 74.2302 116.684 74.1777C116.758 73.9048 117.726 72.8866 119.82 72.9181C120.609 72.9286 121.167 73.1281 121.483 73.4954C121.809 73.8733 121.746 74.3037 121.746 74.3141C121.746 74.3561 121.746 74.3981 121.725 74.4401C121.714 74.4716 120.273 82.9002 120.031 84.926C119.641 88.2533 119.483 95.1599 119.483 95.5378V95.5483V95.5693L119.441 95.6007ZM118.199 95.2124C118.82 95.2124 119.262 95.2439 119.42 95.4013C119.42 95.2439 119.431 94.95 119.452 94.3832C119.473 93.7219 119.504 92.6933 119.546 91.5282C119.631 89.4919 119.767 86.6998 119.978 84.9155C120.22 82.8477 121.662 74.4506 121.672 74.4191C121.683 74.3876 121.683 74.3456 121.683 74.3141C121.683 74.3037 121.735 73.8943 121.43 73.5374C121.125 73.1805 120.588 72.9916 119.82 72.9811C119.789 72.9811 119.757 72.9811 119.725 72.9811C117.736 72.9811 116.821 73.9363 116.747 74.1882C116.726 74.2512 115.127 80.7379 114.853 84.4116H114.821H114.853C114.832 84.758 114.769 85.3353 114.695 86.0701C114.411 88.9461 113.822 94.929 114.411 95.0339C115.569 95.2334 116.726 95.2229 117.663 95.2124C117.852 95.2124 118.031 95.2124 118.199 95.2124Z" fill="#D1A586"/>
<path d="M120.609 95.9576H98.689C98.689 95.9576 99.2046 93.9003 111.896 94.2047C120.883 94.4251 120.609 95.9576 120.609 95.9576Z" fill="#E5BD9E"/>
<path d="M122.399 117.486C119.852 104.649 120.504 96.7763 120.515 96.6714C120.525 96.4719 120.157 96.2935 119.957 96.283C119.757 96.283 118.884 96.22 118.779 96.3985C118.642 96.6189 118.137 106.328 121.925 117.486H122.399Z" fill="#D1A586"/>
<path d="M101.919 117.486C104.466 104.649 103.814 96.7763 103.814 96.6714C103.803 96.4719 104.171 96.2935 104.371 96.283C104.571 96.283 105.445 96.22 105.55 96.3985C105.687 96.6189 106.192 106.328 102.404 117.486H101.919Z" fill="#D1A586"/>
<path d="M97.8682 117.486C100.404 104.649 99.7519 96.7763 99.7519 96.6714C99.7413 96.4719 100.11 96.2935 100.31 96.283C100.51 96.283 101.383 96.22 101.488 96.3985C101.625 96.6189 102.13 106.328 98.3417 117.486H97.8682Z" fill="#A0795F"/>
<path d="M118.315 117.486C115.769 104.649 116.421 96.7763 116.421 96.6714C116.431 96.4719 116.063 96.2935 115.863 96.283C115.663 96.283 114.79 96.22 114.685 96.3985C114.548 96.6189 114.043 106.328 117.831 117.486H118.315Z" fill="#A0795F"/>
<path d="M98.6678 96.6189H120.599C120.841 96.6189 121.051 96.4195 121.051 96.1675V95.8737C121.051 95.6322 120.851 95.4223 120.599 95.4223H98.6678C98.4258 95.4223 98.2153 95.6217 98.2153 95.8737V96.1675C98.2259 96.4195 98.4258 96.6189 98.6678 96.6189Z" fill="#D1A586"/>
<path d="M128.933 79.3629C128.933 79.3629 130.743 80.0977 132.038 78.2502C132.038 78.2502 129.944 77.8934 128.933 79.3629Z" fill="#6BB7BF"/>
<path d="M128.807 78.6072C128.807 78.6072 128.681 77.9564 127.923 77.9354C127.923 77.9354 128.207 78.5862 128.807 78.6072Z" fill="#6BB7BF"/>
<path d="M129.196 74.8285C129.196 74.8285 130.07 74.923 130.406 73.9573C130.396 73.9573 129.449 74.0622 129.196 74.8285Z" fill="#6BB7BF"/>
<path d="M131.28 62.1279C129.512 61.7501 129.48 60.3016 129.48 60.3016C131.564 60.9628 131.28 62.1279 131.28 62.1279Z" fill="#6BB7BF"/>
<path d="M131.396 61.8025C131.396 61.8025 132.501 62.2539 133.29 61.1203C133.29 61.1203 132.017 60.9103 131.396 61.8025Z" fill="#6BB7BF"/>
<path d="M128.975 83.6035L128.744 83.8659C128.712 83.9078 128.639 83.8764 128.639 83.8239C128.649 76.382 129.596 69.7693 130.396 65.8646C131.27 61.6031 132.143 59.084 132.154 59.063C132.143 59.084 131.354 61.6451 130.48 65.8961C129.68 69.8008 128.775 74.9125 129.007 83.4985C129.007 83.5405 128.996 83.572 128.975 83.6035Z" fill="#6BB7BF"/>
<path d="M132.143 58.0553C131.859 58.2862 130.775 59.2519 131.827 59.9971C131.827 59.9971 132.627 60.2491 132.901 59.6298C133.101 59.1574 133.164 58.6326 133.174 58.4122C133.174 58.3492 133.132 58.3072 133.08 58.2968C133.016 58.2863 132.932 58.2758 132.848 58.2443C132.753 58.2023 132.701 58.0553 132.564 58.0238C132.48 58.0028 132.396 57.9819 132.301 57.9924C132.238 57.9924 132.185 58.0133 132.143 58.0553Z" fill="#F99746"/>
<path d="M131.543 59.7242C131.543 59.7242 131.859 59.9762 131.743 60.3855V60.5325C131.743 60.5325 131.828 60.1546 132.217 60.0391C132.217 60.0391 131.859 60.0811 131.543 59.7242Z" fill="#6BB7BF"/>
<path d="M131.28 62.1279C129.512 61.7501 129.48 60.3016 129.48 60.3016C129.48 60.3016 130.88 61.0783 131.28 62.1279Z" fill="#8AD8DB"/>
<path d="M129.576 61.1413C129.576 61.1413 128.46 61.5716 127.702 60.4275C127.692 60.4275 128.976 60.2386 129.576 61.1413Z" fill="#6BB7BF"/>
<path d="M131.565 82.9842L131.786 83.2466C131.817 83.2886 131.891 83.2676 131.891 83.2151C132.028 75.7732 131.217 69.1395 130.491 65.2244C129.712 60.9524 128.881 58.4122 128.871 58.3912C128.881 58.4122 129.618 60.9943 130.407 65.2559C131.123 69.1815 131.933 74.3037 131.533 82.8897C131.523 82.9212 131.544 82.9527 131.565 82.9842Z" fill="#6BB7BF"/>
<path d="M128.902 57.3731C129.176 57.604 130.238 58.5907 129.176 59.3149C129.176 59.3149 128.365 59.5563 128.113 58.9265C127.923 58.4542 127.871 57.9189 127.86 57.6985C127.86 57.6355 127.902 57.5935 127.965 57.583C128.028 57.583 128.113 57.562 128.197 57.541C128.302 57.5095 128.355 57.3521 128.481 57.3206C128.565 57.2996 128.649 57.2891 128.755 57.2996C128.807 57.3206 128.86 57.3416 128.902 57.3731Z" fill="#F99746"/>
<path d="M129.47 59.0525C129.47 59.0525 129.144 59.3044 129.26 59.7138V59.8608C129.26 59.8608 129.186 59.4829 128.786 59.3569C128.786 59.3674 129.144 59.4094 129.47 59.0525Z" fill="#6BB7BF"/>
<path d="M130.048 59.8397C130.048 59.8397 131.227 60.0392 131.743 58.7691C131.743 58.7691 130.448 58.8321 130.048 59.8397Z" fill="#6BB7BF"/>
<path d="M132.448 81.6406L132.279 81.945C132.258 81.987 132.185 81.9765 132.174 81.9345C130.564 74.671 130.038 68.0058 129.964 64.0277C129.88 59.6822 130.185 57.0372 130.196 57.0057C130.196 57.0267 129.975 59.7032 130.059 64.0382C130.133 68.0268 130.364 73.212 132.469 81.5356C132.469 81.5671 132.458 81.6091 132.448 81.6406Z" fill="#6BB7BF"/>
<path d="M129.954 56.019C129.722 56.3024 128.881 57.478 130.07 57.9819C130.07 57.9819 130.912 58.0553 131.038 57.3941C131.133 56.8902 131.069 56.3654 131.038 56.145C131.027 56.0925 130.975 56.0505 130.922 56.061C130.859 56.0715 130.775 56.0715 130.691 56.061C130.585 56.04 130.501 55.9141 130.364 55.9036C130.28 55.9036 130.185 55.9036 130.101 55.9351C130.038 55.9351 129.986 55.977 129.954 56.019Z" fill="#F99746"/>
<path d="M129.733 57.7719C129.733 57.7719 130.101 57.9503 130.08 58.3807L130.112 58.5276C130.112 58.5276 130.112 58.1393 130.469 57.9399C130.459 57.9399 130.122 58.0553 129.733 57.7719Z" fill="#6BB7BF"/>
<path d="M131.017 58.5276C131.017 58.5276 131.017 57.5935 131.817 57.3101C131.817 57.3101 131.996 58.0868 131.017 58.5276Z" fill="#6BB7BF"/>
<path d="M129.134 57.0371C129.134 57.0371 129.155 56.3234 128.502 56.124C128.502 56.124 128.344 56.7852 129.134 57.0371Z" fill="#ED9F4A"/>
<path d="M131.291 61.2987C131.312 61.3197 131.638 60.6059 130.986 60.0391C130.986 60.0391 130.712 60.8053 131.291 61.2987Z" fill="#ED9F4A"/>
<path d="M131.743 61.2462C131.722 61.2462 131.743 60.8893 132.08 60.8369C132.08 60.8473 132.132 61.1412 131.743 61.2462Z" fill="#6BB7BF"/>
<path d="M128.376 60.0391C128.376 60.0391 128.092 59.4514 127.176 59.5563C127.187 59.5563 127.323 60.1861 128.376 60.0391Z" fill="#6BB7BF"/>
<path d="M133.417 84.4747H127.576C127.187 84.4747 126.882 84.1283 126.934 83.7399L129.649 65.0459C129.67 64.8675 129.828 64.7415 129.996 64.7415H130.87C131.059 64.7415 131.217 64.878 131.249 65.0669L134.037 83.7609C134.09 84.1283 133.806 84.4747 133.417 84.4747Z" fill="#01BA57"/>
<path d="M128.87 83.9079L130.312 64.7415C130.154 64.7625 130.028 64.878 130.007 65.0459L127.292 83.7399C127.239 84.1283 127.534 84.4747 127.934 84.4747H129.102C128.944 84.3382 128.849 84.1283 128.87 83.9079Z" fill="#118949"/>
<path d="M186.171 82.4279C186.171 82.4279 182.161 86.9938 181.341 86.9203C180.499 86.8468 179.994 86.5844 179.257 86.9203C178.731 87.1617 177.079 88.4948 177.521 88.4003C177.963 88.3163 178.773 88.2114 178.983 88.1904C179.278 88.1589 179.741 88.1589 180.067 88.0959C180.267 88.0644 180.993 88.0434 181.235 88.0329C182.288 88.0015 187.276 85.0939 187.276 85.0939L186.171 82.4279Z" fill="#FFB27D"/>
<path d="M179.573 77.5575C179.415 77.4631 179.099 77.4945 178.878 77.547V77.2216C178.878 77.1482 178.878 77.0747 178.868 77.0117H175.5C175.489 77.0852 175.49 77.1482 175.49 77.2216V77.8829C175.49 78.8171 176.258 79.5728 177.184 79.5728C177.689 79.5728 178.141 79.3524 178.457 78.9955C178.457 78.9955 179.257 78.7961 179.509 78.5022C179.762 78.1978 179.846 77.715 179.573 77.5575ZM179.394 78.1663C179.309 78.3867 178.931 78.5022 178.741 78.5442C178.815 78.3762 178.868 78.1873 178.878 77.9879C178.994 77.8304 179.183 77.736 179.31 77.757C179.436 77.778 179.509 77.8829 179.394 78.1663Z" fill="#C45446"/>
<path d="M175.763 77.2111V77.8724C175.763 78.8066 176.531 79.5624 177.457 79.5624C177.531 79.5624 177.615 79.5519 177.689 79.5414C176.858 79.4259 176.216 78.7226 176.216 77.8619V77.2007C176.216 77.1272 176.216 77.0537 176.226 76.9907H175.774C175.763 77.0747 175.763 77.1482 175.763 77.2111Z" fill="#E37970"/>
<path d="M177.878 79.4259H176.489V79.6358H177.878V79.4259Z" fill="#C45446"/>
<path d="M188.949 59.2414C188.949 59.2414 189.127 56.9532 192.432 57.541C193.305 57.6985 193.905 56.145 195.336 56.7013C198.42 57.8979 198.598 56.3234 199.493 58.5277C199.861 59.4514 202.24 60.5325 201.513 62.1279C200.787 63.7234 201.998 64.8045 201.145 66.0536C200.703 66.7043 200.882 67.8589 198.809 67.9009C197.778 67.9219 196.157 69.8323 194.999 70.1786C193.842 70.525 190.348 70.0212 190.485 68.4362C190.59 67.1977 189.138 67.3026 188.243 65.8751C187.465 64.6261 188.854 64.3112 188.107 62.2959C187.57 60.8369 188.991 60.48 188.949 59.2414Z" fill="#1C468A"/>
<path d="M170.775 115.659C170.849 116.426 169.775 116.614 168.533 116.677C167.292 116.74 167.671 116.992 165.966 117.297C164.261 117.601 163.587 117.139 163.461 116.908C163.356 116.709 164.145 116.384 164.987 116.027C165.092 115.985 165.198 115.932 165.303 115.89C166.25 115.47 166.787 114.631 167.523 113.843C168.228 113.098 168.891 110.716 168.891 110.716L171.196 110.222C171.196 110.222 170.543 112.363 170.322 113.287C170.186 113.822 170.386 114.431 170.554 114.883C170.649 115.135 170.743 115.386 170.775 115.659Z" fill="#FFB27D"/>
<path d="M168.533 116.677C167.292 116.74 167.67 116.992 165.966 117.297C164.261 117.601 163.587 117.139 163.461 116.908C163.356 116.709 164.145 116.384 164.987 116.027L164.998 116.037C164.998 116.037 166.197 116.447 167.576 116.069C168.702 115.764 169.786 115.092 170.564 114.883C170.659 115.134 170.754 115.386 170.775 115.659C170.838 116.426 169.775 116.614 168.533 116.677Z" fill="#C65447"/>
<path d="M191.222 86.6159C191.222 86.6159 178.425 87.1932 175.531 89.0091C172.637 90.8249 168.007 112.017 168.007 112.017C168.007 112.017 168.291 112.248 168.933 112.311C169.522 112.374 170.838 112.028 170.838 112.028C170.838 112.028 177.499 102.549 177.962 100.156C178.436 97.7631 178.32 95.6428 179.383 95.5798C180.456 95.5273 193.768 97.1962 195.778 93.659C197.799 90.1217 191.222 86.6159 191.222 86.6159Z" fill="#163560"/>
<path d="M176.047 115.743C176.121 116.51 175.048 116.698 173.806 116.761C172.564 116.824 172.943 117.076 171.238 117.381C169.544 117.685 168.86 117.223 168.734 116.992C168.628 116.793 169.418 116.468 170.26 116.111C170.365 116.069 170.47 116.016 170.575 115.974C171.522 115.554 172.059 114.715 172.796 113.927C173.501 113.182 174.164 110.8 174.164 110.8L176.468 110.306C176.468 110.306 175.816 112.447 175.595 113.371C175.458 113.906 175.658 114.515 175.826 114.967C175.932 115.219 176.026 115.481 176.047 115.743Z" fill="#FFB27D"/>
<path d="M173.806 116.761C172.564 116.824 172.943 117.076 171.238 117.381C169.544 117.685 168.86 117.223 168.734 116.992C168.628 116.793 169.418 116.468 170.259 116.111L170.27 116.121C170.27 116.121 171.47 116.531 172.848 116.153C173.974 115.848 175.058 115.177 175.837 114.967C175.932 115.219 176.026 115.47 176.047 115.743C176.121 116.51 175.048 116.698 173.806 116.761Z" fill="#C65447"/>
<path d="M196.179 86.9203C196.179 86.9203 182.551 87.5606 179.73 89.4919C176.91 91.4232 173.111 112.773 173.111 112.773C173.111 112.773 173.406 112.993 174.048 113.035C174.648 113.077 175.942 112.678 175.942 112.678C175.942 112.678 182.224 102.948 182.603 100.545C182.982 98.1409 182.782 96.0206 183.845 95.9157C184.908 95.8212 198.283 96.9653 200.156 93.3545C202.03 89.7438 196.179 86.9203 196.179 86.9203Z" fill="#1C468A"/>
<path d="M200.261 69.5488C200.261 69.5383 200.251 69.5383 200.24 69.5279C200.135 69.4019 199.998 69.2969 199.861 69.192C198.746 68.4152 196.757 68.2473 196.757 68.2473C196.757 68.2473 196.536 68.2263 196.199 68.2158C195.936 67.544 195.642 66.5469 195.547 65.0879L195.347 65.1404L192.032 66.0326C192.032 66.0326 192.179 67.0822 192.242 68.0794C192.253 68.2998 192.274 68.5097 192.274 68.7091C192.179 68.7406 190.117 69.0345 189.664 69.5174C189.212 70.0002 188.317 73.2016 188.096 73.7684L200.872 73.9783C200.861 73.9678 201.187 70.6405 200.261 69.5488Z" fill="#FFB27D"/>
<path d="M200.735 92.3259C199.22 92.4728 194.126 89.3974 192.432 88.4003C192.4 88.3793 192.369 88.3688 192.348 88.3478C191.643 87.9384 190.643 87.739 189.696 87.5816C188.486 87.3821 187.37 87.2562 187.002 86.8258C186.57 86.3115 187.833 85.7447 188.843 85.1569C189.349 84.863 189.801 84.5586 189.938 84.2542C190.043 84.0128 190.033 83.4985 189.969 82.8267C189.959 82.7007 189.938 82.5748 189.927 82.4383C189.843 82.6063 189.738 82.7847 189.622 82.9632C189.328 83.404 188.928 83.8554 188.538 84.2227C188.054 84.6741 187.581 85.0204 187.286 85.0834C187.086 85.1359 186.886 85.1044 186.686 85.0309C186.16 84.821 185.644 84.2437 185.234 83.6769C185.139 83.5405 185.044 83.4145 184.96 83.2885C184.687 82.8687 184.487 82.5223 184.413 82.4383C184.182 82.1864 185.329 81.6931 185.792 81.3257C186.255 80.9584 188.086 73.7474 188.086 73.7474C188.317 73.1806 189.212 69.9792 189.654 69.4963C189.654 69.4963 191.401 71.6271 193.674 71.5012C195.926 71.3857 199.788 69.2129 199.851 69.1815C200.051 69.2654 200.251 69.5383 200.251 69.5383C201.177 70.63 200.851 73.9573 200.851 73.9573C200.851 73.9573 199.083 81.7246 199.083 82.5013C199.083 83.9393 200.272 87.2457 200.84 89.6178C201.219 91.1398 201.335 92.2734 200.735 92.3259Z" fill="#6BB7BF"/>
<path d="M192.032 66.0221C192.032 66.0221 192.18 67.0717 192.243 68.0688C194.116 67.8904 195 66.1165 195.347 65.1404L192.032 66.0221Z" fill="#F4A269"/>
<path d="M191.464 67.0088C191.464 67.0088 195.916 66.7883 195.737 64.0173C195.558 61.2567 196.01 59.3569 193.158 59.3884C190.307 59.4094 189.823 60.501 189.654 61.4457C189.496 62.3799 190.296 66.9878 191.464 67.0088Z" fill="#FFB27D"/>
<path d="M191.275 60.3645C191.275 60.3645 192.338 60.1126 192.685 60.6374C193.032 61.1518 192.78 61.4457 193.558 61.6556C194.337 61.876 194.6 61.855 194.526 62.4008C194.453 62.9466 195.305 63.3455 195.347 63.7758C195.379 64.2062 195.737 64.4266 196.084 64.4581C196.421 64.4896 196.273 58.8636 194.947 58.6117C193.632 58.3597 192.348 58.6536 191.969 58.9685C191.58 59.2939 191.275 60.3645 191.275 60.3645Z" fill="#1C468A"/>
<path d="M191.274 60.3645C191.274 60.3645 190.243 60.2911 190.054 60.8789C189.864 61.4666 190.117 61.6031 189.854 61.96C189.591 62.3168 189.738 62.9466 189.738 62.9466C189.738 62.9466 187.686 59.1889 189.854 58.937C192.011 58.7061 191.958 59.1365 191.274 60.3645Z" fill="#1C468A"/>
<path d="M189.927 81.5671C189.633 82.4488 189.107 83.425 188.549 84.2437C188.065 84.695 187.591 85.0414 187.297 85.1044C187.097 85.1569 186.897 85.1254 186.697 85.0519C186.171 84.842 185.655 84.2647 185.245 83.6979C185.15 83.5614 185.055 83.4355 184.971 83.3095C186.381 82.1759 189.065 79.5833 189.349 76.0356C189.728 71.1968 189.938 81.7876 189.927 81.5671Z" fill="#599DAD"/>
<path d="M186.686 85.0415C187.181 84.2857 188.181 83.551 189.622 82.9632C188.959 83.9499 187.823 84.9575 187.286 85.094C187.086 85.1464 186.886 85.1255 186.686 85.0415Z" fill="#599DAD"/>
<path d="M198.462 75.7207C198.462 75.7207 197.346 86.8678 192.421 88.4003C192.39 88.3793 192.358 88.3688 192.337 88.3478C191.632 87.9385 190.632 87.739 189.685 87.5816C188.475 87.3822 187.36 87.2562 186.991 86.8258C186.56 86.3115 187.823 85.7447 188.833 85.1569C189.338 84.863 189.79 84.5586 189.927 84.2542C190.033 84.0128 190.022 83.4985 189.959 82.8267C194.758 81.0738 198.462 75.7207 198.462 75.7207Z" fill="#599DAD"/>
<path d="M199.714 72.4248C199.199 70.1051 196.863 71.4382 196.863 71.4382C196.052 71.2492 190.096 80.8744 189.622 81.0948C189.223 81.2837 183.729 79.6883 182.067 79.2055C181.635 78.8696 180.13 77.694 179.857 77.6835C179.552 77.6625 177.478 78.1873 177.499 78.5127C177.51 78.8381 177.994 79.3209 178.762 79.4364C179.341 79.5309 180.32 79.9087 180.941 80.0032C180.941 80.0032 186.992 84.1178 189.57 84.6216C191.896 85.0624 200.23 74.7445 199.714 72.4248Z" fill="#FFB27D"/>
<path d="M185.992 80.2866C185.992 80.2866 184.593 83.8659 186.266 85.2199C187.939 86.5844 191.57 86.1226 195.548 80.591C199.526 75.0594 201.136 72.047 199.073 71.1758C197.01 70.2941 195.306 71.6796 194.243 73.8314C193.138 76.0671 191.117 79.1635 189.897 79.279C188.686 79.3944 185.992 80.2866 185.992 80.2866Z" fill="#6BB7BF"/>
<path d="M150.991 46.6667V47.2021C150.991 47.2021 150.844 48.892 152.927 49.1334C155.011 49.3853 156.726 49.3433 156.663 48.0418C156.474 47.0341 156.137 45.4702 156.126 44.6304C156.126 44.3156 156.147 43.9902 156.2 43.6228L152.159 43.5388L150.97 43.7278L150.991 46.6667Z" fill="#FFB27D"/>
<path d="M150.98 43.7383L150.99 46.6562C151.422 46.8557 151.906 46.9816 152.442 46.9816C154.295 46.9816 155.505 45.6276 156.126 44.6409C156.126 44.326 156.147 44.0007 156.199 43.6333L152.158 43.5493L150.98 43.7383Z" fill="#E2915A"/>
<path d="M156.515 42.9826C156.042 45.5017 152.79 45.4177 151.38 45.2603C150.98 45.2183 150.738 45.1658 150.738 45.1658C150.296 45.0503 150.043 44.3471 149.928 43.4234C149.696 41.6075 149.991 38.9415 150.296 38.2487C150.759 37.22 151.632 36.1074 154.916 36.9157C158.188 37.7134 157.115 39.7497 156.515 42.9826Z" fill="#FFB27D"/>
<path d="M159.178 117.486H154.569C154.6 117.244 154.716 116.509 154.937 115.838C155.011 115.607 155.095 115.376 155.2 115.176C155.653 114.284 158.494 114.851 158.494 114.851C158.494 114.851 158.757 115.082 158.967 115.943C159.062 116.321 159.136 116.824 159.178 117.486Z" fill="#233862"/>
<path d="M145.245 116.037C145.234 116.667 145.15 117.255 144.929 117.486H135.805C135.921 117.16 136.247 116.656 137.184 116.51C138.247 116.342 139.909 115.827 140.877 114.809C141.225 114.442 141.477 114.022 141.593 113.518C142.025 111.608 145.139 114.106 145.139 114.106C145.139 114.106 145.266 115.103 145.245 116.037Z" fill="#233862"/>
<path d="M151.306 95.4328C151.18 96.136 151.096 96.7028 151.075 97.1122C150.78 102.759 146.307 115.659 145.508 115.964C144.266 116.425 142.319 115.439 141.298 115.113C140.877 114.977 140.593 114.557 140.688 114.127C142.898 103.966 143.719 89.3449 144.013 80.6854C144.161 76.3189 144.918 73.3065 144.918 73.3065C144.918 73.3065 155.831 70.399 155.894 74.0727C155.957 77.3161 152.285 90.0691 151.306 95.4328Z" fill="#2B478B"/>
<path d="M151.306 95.4328L144.013 80.6854C144.161 76.3189 144.918 73.3065 144.918 73.3065C144.918 73.3065 155.831 70.399 155.894 74.0727C155.958 77.3161 152.285 90.0692 151.306 95.4328Z" fill="#233862"/>
<path d="M148.886 74.0832L154.653 115.775C154.653 115.775 157.189 116.384 159.157 115.901C159.157 115.901 160.841 93.7324 160.704 88.3688C160.567 83.0052 161.914 74.0203 160.399 73.0336C158.873 72.0365 148.886 74.0832 148.886 74.0832Z" fill="#2B478B"/>
<path d="M149.296 35.8555C149.296 35.8555 150.738 35.74 152.443 35.0053C153.821 34.407 155.568 35.0683 156.136 35.3622C156.126 35.2677 156.084 35.1523 156 35.0263C156 35.0263 156.252 35.2047 156.294 35.4566C156.315 35.4776 156.336 35.4881 156.326 35.4986C156.326 35.4986 156.61 35.4462 156.799 35.5301C156.799 35.5301 156.673 35.5091 156.62 35.5931C156.62 35.6036 156.61 35.6141 156.599 35.6141C158.757 36.6532 158.957 40.054 158.262 40.8308C157.431 41.7754 156.431 43.9062 156.431 43.9062C156.431 43.9062 156.063 43.4024 156.221 42.5732C156.368 41.744 155.652 41.744 154.737 41.3661C153.832 40.9882 154.589 39.9281 153.79 39.2878C152.99 38.6475 150.075 39.0254 150.106 38.5321C149.012 38.1332 149.296 35.971 149.296 35.8555Z" fill="#233862"/>
<path d="M157.168 48.7765L155.842 77.1901C155.842 77.1901 144.76 77.3686 145.076 74.8704C145.392 72.3723 149.075 49.6477 149.075 49.6477L157.168 48.7765Z" fill="#E9F3FE"/>
<path d="M161.125 64.878C160.462 66.8513 161.703 73.4745 162.156 75.7102C162.251 76.1826 162.314 76.466 162.314 76.466C160.777 78.9536 155.158 78.9221 155.158 78.9221C154.074 74.1568 153.516 66.5679 153.516 66.5679L157.831 47.7164L163.261 52.7232C163.261 52.7232 162.85 55.7776 162.345 58.8741C161.935 61.3302 161.482 63.8388 161.125 64.878Z" fill="#22407A"/>
<path d="M151.896 43.3919C151.896 43.3919 151.79 43.7172 150.969 43.6018C150.969 43.6018 150.275 43.5073 150.328 43.1399C150.338 43.1399 151.022 42.93 151.896 43.3919Z" fill="white"/>
<path d="M145.666 49.1754C145.666 49.1754 145.666 49.1754 145.666 49.1859C145.403 49.4378 138.005 56.6068 136.573 59.4094C135.111 62.2539 143.245 67.9219 143.245 67.9219C143.245 67.9219 143.772 68.1318 144.129 68.0478C143.75 71.1967 143.319 74.1042 143.572 75.3428C144.035 77.5785 146.108 78.3343 146.108 78.1663C146.108 78.1138 146.865 70.0212 147.276 65.8016C148.16 56.7538 150.38 47.7689 150.38 47.7689C147.96 48.0208 145.666 49.1754 145.666 49.1754ZM141.267 60.6479C141.256 60.6374 141.256 60.6164 141.256 60.6059C141.256 60.1966 142.824 59.2939 144.519 58.2233C144.54 58.2023 144.55 58.1918 144.55 58.1918C144.519 59.063 144.519 59.9237 144.571 60.7109C144.666 62.1909 144.561 63.9543 144.382 65.7492C143.582 64.4896 141.425 61.1098 141.267 60.6479Z" fill="#22407A"/>
<path d="M157.484 47.6849C157.494 47.412 156.21 47.0341 156.21 47.0341C156.21 47.0341 154.737 49.0704 152.306 49.1124C152.306 49.1124 153.001 50.4559 153.811 50.8023C153.811 50.8023 157.399 49.2908 157.484 47.6849Z" fill="#D9E9F9"/>
<path d="M152.306 49.06C152.306 49.06 151.022 48.3042 151.011 47.475C151.011 47.475 150.18 47.37 149.822 47.7689C149.822 47.7689 149.517 49.1859 149.917 50.0046C149.917 50.0151 151.769 49.7317 152.306 49.06Z" fill="#D9E9F9"/>
<path d="M153.18 48.9445L151.433 48.5246C151.433 48.5246 151.201 48.5456 151.212 48.829C151.222 49.1124 151.706 49.9416 151.917 50.0046C152.127 50.0676 153.59 49.5113 153.18 48.9445Z" fill="#BA4C43"/>
<path d="M157.273 47.5484C157.284 47.2755 156.41 46.7192 156.41 46.7192C156.41 46.7192 154.727 48.6821 152.296 48.724C152.296 48.724 152.99 50.0676 153.8 50.414C153.811 50.4035 157.199 49.1544 157.273 47.5484Z" fill="#E9F3FE"/>
<path d="M152.306 48.7136C152.306 48.7136 151.001 48.0208 151.001 47.2021C151.001 47.2021 150.212 47.5485 149.854 47.9473C149.854 47.9473 149.517 48.8395 149.928 49.6582C149.917 49.6582 151.769 49.3853 152.306 48.7136Z" fill="#E9F3FE"/>
<path d="M148.896 68.3207C148.96 68.982 149.265 69.6013 149.749 70.0526L150.517 70.7664C150.706 70.9448 151.012 70.9238 151.18 70.7139L152.138 69.4963C152.39 69.1709 152.516 68.7616 152.474 68.3522C152.38 67.439 152.222 65.6652 152.085 63.9648C151.98 62.5792 151.885 61.2357 151.885 60.4275C151.864 57.8139 152.38 49.5008 152.38 49.5008L151.748 49.5323C151.748 49.5323 150.191 52.7652 149.38 57.1526C149.181 58.2338 149.023 59.3883 148.949 60.5744C148.949 60.5639 148.623 65.3188 148.896 68.3207Z" fill="#C65447"/>
<path d="M148.896 68.3208C148.96 68.982 149.265 69.6013 149.749 70.0527L150.517 70.7664C150.706 70.9449 151.012 70.9239 151.18 70.7139L152.138 69.4964C152.39 69.171 152.516 68.7616 152.474 68.3523C152.38 67.4391 152.222 65.6652 152.085 63.9648C150.349 62.023 149.654 59.3359 149.38 57.1526C149.181 58.2338 149.023 59.3884 148.949 60.5745C148.949 60.564 148.623 65.3188 148.896 68.3208Z" fill="#BA4C43"/>
<path d="M142.73 68.3942C142.73 67.6699 143.372 67.0926 144.087 67.1976C144.287 67.2291 144.466 67.3131 144.592 67.4705C145.087 68.1318 145.561 70.0316 144.677 70.1261C144.319 70.1576 143.866 69.9162 143.508 69.6433C143.151 69.3704 142.73 68.9505 142.73 68.4992V68.3942Z" fill="#FFB27D"/>
<path d="M162.145 75.7207C160.556 74.0727 157.81 70.8294 157.904 68.1633C158.031 64.4371 162.324 58.8845 162.324 58.8845C161.924 61.3407 161.472 63.8388 161.114 64.8884C160.461 66.8513 161.703 73.4745 162.145 75.7207Z" fill="#233862"/>
<path d="M162.104 69.2234C162.104 69.2234 160.956 69.7902 160.272 69.5068C159.578 69.2234 158.768 69.003 157.989 69.8847C157.21 70.7664 157.052 71.3752 157.21 71.7005C157.379 72.0259 159.178 71.9 159.483 71.7005C159.778 71.5011 160.262 70.9973 160.557 71.0813C161.388 71.3227 162.082 70.6929 162.472 70.1891C162.703 69.8952 162.072 69.7482 162.104 69.2234Z" fill="#FFB27D"/>
<path d="M157.82 47.7164C157.82 47.7164 162.366 48.2203 163.44 50.1936C164.513 52.1669 170.09 60.1756 169.912 63.5029C169.733 66.8303 162.303 70.567 162.303 70.567C162.303 70.567 160.661 69.8742 160.63 69.129C160.609 68.3837 165.765 63.9228 165.45 63.0936C165.134 62.2644 159.451 55.6832 158.904 53.5104C158.367 51.3377 157.82 47.7164 157.82 47.7164Z" fill="#22407A"/>
<path d="M144.55 58.1812C144.55 58.1812 144.539 58.1917 144.518 58.2127C142.824 59.2833 141.256 60.186 141.256 60.5954C141.025 59.8711 143.235 56.8587 143.95 56.2394C144.666 55.6201 144.55 58.1812 144.55 58.1812Z" fill="#233862"/>
<path d="M156.421 46.7087C156.421 46.7087 152.969 61.1412 153.516 66.5678C153.516 66.5678 154.79 60.7634 157.841 55.998C157.841 55.998 156.726 55.0219 156.789 54.6545C156.789 54.6545 157.62 54.4131 158.42 54.5705C158.42 54.5705 158.336 48.3462 157.831 47.6954C157.326 47.0551 156.421 46.7087 156.421 46.7087Z" fill="#233862"/>
<path d="M151.001 47.2021C151.075 47.1601 147.581 61.2987 147.286 65.8121C147.286 65.8121 147.634 57.7719 147.602 55.4522C147.602 55.4522 149.033 54.6965 149.033 54.4341C149.033 54.1717 147.507 53.4474 147.507 53.4474C147.507 53.4474 148.476 48.4932 149.002 47.9474C149.528 47.4015 151.001 47.2021 151.001 47.2021Z" fill="#233862"/>
<path d="M106.066 109.697C106.245 109.907 106.277 110.138 106.182 110.39C106.014 110.852 105.466 111.366 104.824 111.881C104.74 111.944 104.667 112.007 104.603 112.059C104.582 112.07 104.572 112.09 104.551 112.101C104.54 112.111 104.53 112.122 104.509 112.132C103.909 112.678 104.14 112.804 103.067 113.927C101.846 115.197 100.994 115.218 100.762 115.103C100.562 115.008 100.973 114.326 101.425 113.57C101.446 113.539 101.467 113.497 101.488 113.455C101.552 113.35 101.615 113.256 101.667 113.151C102.204 112.237 102.067 111.807 101.941 110.453C101.836 109.351 100.226 104.292 100.226 104.292L102.572 103.893C102.572 103.893 103.277 107.923 104.056 108.543C104.477 108.868 104.94 108.879 105.34 109.12C105.372 109.141 105.393 109.152 105.424 109.173C105.656 109.34 105.887 109.498 106.066 109.697Z" fill="#FFB27D"/>
<path d="M106.066 109.697C106.245 109.907 106.277 110.138 106.182 110.39C105.982 110.852 105.435 111.366 104.825 111.87C104.741 111.933 104.677 111.996 104.604 112.059C104.583 112.07 104.572 112.091 104.551 112.101C104.541 112.112 104.53 112.122 104.509 112.133C103.909 112.678 104.141 112.804 103.067 113.927C101.847 115.197 100.994 115.218 100.763 115.103C100.563 115.008 100.973 114.326 101.426 113.571C101.668 113.487 102.773 113.035 103.604 111.965C104.341 111.03 104.835 109.823 105.34 109.12C105.372 109.141 105.393 109.152 105.425 109.173C105.656 109.34 105.888 109.498 106.066 109.697Z" fill="#C65447"/>
<path d="M87.1451 108.238C86.9978 108.963 85.9665 108.837 84.8089 108.564C83.6513 108.28 83.9249 108.616 82.2832 108.438C80.6416 108.259 80.147 107.651 80.0943 107.399C80.0523 107.178 80.8626 107.105 81.736 107.01C81.8412 107 81.957 106.989 82.0622 106.968C83.0409 106.842 83.767 106.213 84.6615 105.698C85.5034 105.205 86.7662 103.2 86.7662 103.2L89.0183 103.379C89.0183 103.379 87.8396 105.174 87.3766 105.95C87.103 106.412 87.124 107.01 87.1556 107.483C87.1767 107.724 87.1977 107.987 87.1451 108.238Z" fill="#FFB27D"/>
<path d="M84.8089 108.564C83.6513 108.28 83.9249 108.616 82.2832 108.438C80.6416 108.259 80.147 107.651 80.0943 107.399C80.0523 107.178 80.8626 107.105 81.736 107.01L81.7465 107.031C81.7465 107.031 82.7357 107.724 84.0933 107.756C85.2088 107.787 86.3874 107.462 87.1556 107.472C87.1767 107.724 87.1872 107.986 87.1346 108.238C86.9978 108.963 85.9665 108.847 84.8089 108.564Z" fill="#C65447"/>
<path d="M92.1543 75.2483C92.1543 75.2483 91.6176 73.9363 91.0282 73.8838C90.4389 73.8313 88.5552 73.5374 88.4289 73.7998C88.2921 74.0622 88.4289 75.0279 88.8288 75.3743C89.2287 75.7207 91.7228 76.2875 91.7228 76.2875L92.1543 75.2483Z" fill="#FFB27D"/>
<path d="M95.7744 93.8794L100.626 106.905C100.626 106.905 101.373 106.979 102.089 106.769C102.751 106.58 103.499 106.087 103.499 106.087C103.499 106.087 102.299 93.575 100.089 90.9719C97.8791 88.3793 95.7744 93.8794 95.7744 93.8794Z" fill="#AA413E"/>
<path d="M114.969 88.6102C114.969 88.6102 101.026 83.9079 97.9107 84.905C94.8063 85.9022 85.4614 104.439 85.4614 104.439C85.4614 104.439 85.6719 104.722 86.2507 104.932C86.7874 105.131 88.0818 105.121 88.0818 105.121C88.0818 105.121 96.5111 97.9205 97.5108 95.8107C98.5105 93.7115 98.9104 91.7067 99.9207 91.9061C100.92 92.1055 112.865 96.8079 115.569 94.0054C118.274 91.2028 117.569 87.5606 117.569 87.5606L114.969 88.6102Z" fill="#C65447"/>
<path d="M106.445 66.7253C106.224 66.2635 105.971 65.4553 105.856 63.9963C105.877 64.1432 106.129 65.9696 106.834 67.0087C109.739 68.9086 115.295 75.2484 115.179 76.4554C115.179 76.4554 117.137 73.1386 117.168 73.1281C117.168 73.1281 120.778 68.5517 116.495 65.9276C114.316 64.5945 114.327 62.8836 114.422 61.3932C114.516 59.9027 113.832 53.5104 109.465 55.1793C109.465 55.1793 108.771 54.8644 108.455 54.9169C108.455 54.9169 108.707 54.9694 108.844 55.0953C108.339 55.0639 107.613 55.1058 107.013 55.4417C105.424 56.3549 103.993 64.4791 106.445 66.7253Z" fill="#B5453C"/>
<path d="M107.003 67.1137C106.992 67.1242 108.402 67.8485 109.465 67.5651C110.465 67.2922 111.117 66.0011 111.107 65.9906C110.686 65.9066 110.56 65.3293 110.57 62.8312L110.381 62.8732L107.161 63.5134C107.161 63.5134 107.234 64.5211 107.234 65.4763C107.234 66.2635 107.182 67.0297 107.003 67.1137Z" fill="#FFB27D"/>
<path d="M107.161 63.5029C107.161 63.5029 107.234 64.5106 107.234 65.4658C109.034 65.4133 109.991 63.7759 110.381 62.8627L107.161 63.5029Z" fill="#ED975D"/>
<path d="M110.707 62.5163C110.707 62.5163 111.654 61.0258 111.875 59.7557C112.033 58.8425 111.57 55.4732 108.181 55.9665C108.181 55.9665 107.192 56.061 106.266 56.6908C105.529 57.1841 104.467 58.2547 105.656 61.2042L105.961 62.2014L110.707 62.5163Z" fill="#B5453C"/>
<path d="M106.551 64.4056C106.551 64.4056 110.813 64.4791 110.823 61.8235C110.823 59.1679 111.381 57.394 108.655 57.2366C105.93 57.0791 105.404 58.0868 105.183 58.979C104.972 59.8607 105.446 64.3216 106.551 64.4056Z" fill="#FFB27D"/>
<path d="M106.708 57.1736C106.708 57.1736 107.876 60.2805 109.665 60.7424C111.454 61.2042 112.233 60.7214 112.233 60.7214C112.233 60.7214 110.854 59.6297 110.57 57.7299C110.581 57.7299 107.592 55.6936 106.708 57.1736Z" fill="#B5453C"/>
<path d="M107.003 57.4255C107.003 57.4255 106.13 58.1183 105.919 58.7901C105.709 59.4618 105.614 60.8578 105.204 60.8054C105.204 60.8054 104.32 58.6956 105.309 57.499C106.361 56.2394 107.003 57.4255 107.003 57.4255Z" fill="#B5453C"/>
<path d="M118.242 88.6836C118.01 89.3239 117.305 89.4814 116.358 89.3764C114.559 89.1665 111.875 87.9594 109.949 87.1197C107.003 85.8496 105.666 87.0462 104.73 86.238C103.793 85.4298 105.803 83.6244 104.056 75.2693C103.467 72.4353 107.203 66.3579 107.203 66.3579C107.203 66.3579 107.529 68.1213 111.096 66.001C111.223 65.9276 112.633 68.0058 113.99 70.5669C115.485 73.3905 116.916 76.8123 116.495 78.5652C115.695 81.9135 118.905 86.8258 118.242 88.6836Z" fill="#699DEE"/>
<path d="M107.213 66.3474L105.003 75.3638C105.003 75.3638 104.73 75.8466 104.298 76.5394C103.288 78.1663 101.425 80.9374 100.226 81.2103C99.6365 81.3467 98.3842 80.8639 96.9951 80.1606C94.3748 78.8381 91.2704 76.7598 91.2704 76.7598C91.0704 75.5632 92.1122 74.5766 92.1122 74.5766C92.1122 74.5766 98.3947 76.9383 99.0261 76.9802C100.384 77.0747 101.773 70.525 103.046 68.3417C103.962 66.7778 107.213 66.3474 107.213 66.3474Z" fill="#699DEE"/>
<path d="M107.497 62.7997C107.497 62.7997 107.413 63.1356 106.582 63.0831C106.582 63.0831 105.877 63.0411 105.898 62.6737C105.898 62.6632 106.582 62.4008 107.497 62.7997Z" fill="white"/>
<path d="M118.242 88.6836C118.01 89.3239 117.305 89.4813 116.358 89.3764C115.106 88.8306 109.718 86.7523 109.781 85.3353C109.876 83.2465 110.823 83.1835 110.149 80.6014C109.613 78.5337 114.59 74.6815 115.39 73.8418C116.884 76.6653 116.927 76.8018 116.506 78.5652C115.695 81.9135 118.905 86.8258 118.242 88.6836Z" fill="#4A75CB"/>
<path d="M104.298 76.5499C103.288 78.1768 101.425 80.9479 100.226 81.2208C99.6363 81.3572 98.384 80.8744 96.9949 80.1711C98.0051 80.4335 98.9943 80.423 99.9519 80.3286C100.994 80.2236 101.288 78.9641 102.93 77.0642C103.982 75.8256 104.246 76.1405 104.298 76.5499Z" fill="#4A75CB"/>
<path d="M109.297 80.549C109.297 80.549 108.392 79.8458 107.54 80.0137C106.687 80.1816 106.266 80.7694 106.298 81.0318C106.329 81.2942 106.782 82.05 107.434 82.1129C108.087 82.1759 109.939 81.7141 109.939 81.7141L109.297 80.549Z" fill="#FFB27D"/>
<path d="M111.107 65.9905C111.107 65.9905 114.579 66.2005 115.79 67.8799C117.484 70.2416 120.43 79.8562 119.62 82.0605L109.044 82.0185C109.044 82.0185 108.791 80.8219 109.149 80.2446C109.507 79.6673 115.306 78.7331 115.569 78.4707C115.832 78.2083 112.222 73.2645 112.222 72.4668C112.222 71.6586 111.107 65.9905 111.107 65.9905Z" fill="#699DEE"/>
<path d="M108.392 84.4852H95.5744L93.2698 76.4554H106.056L108.392 84.4852Z" fill="#1C468A"/>
<path d="M112.369 84.1807H95.6267V84.4957H112.369V84.1807Z" fill="#163560"/>
<path d="M99.647 80.3391C99.5628 80.0557 99.7312 79.8248 100.015 79.8248C100.299 79.8248 100.594 80.0557 100.678 80.3391C100.762 80.6225 100.594 80.8534 100.31 80.8534C100.026 80.8534 99.7312 80.6225 99.647 80.3391Z" fill="#163560"/>
<path d="M68.1399 66.2634C68.1399 66.2634 69.5395 65.1193 70.0446 65.1193C70.5498 65.1088 71.5074 64.8674 71.4653 65.0248C71.4232 65.1928 70.6234 65.4027 70.7603 65.4762C70.8971 65.5497 72.0652 65.2348 72.3914 65.4237C72.7176 65.6126 73.4858 66.3894 72.865 66.7253C72.2441 67.0611 70.4025 67.6069 69.9184 67.544C69.4448 67.481 68.3609 67.4075 68.3609 67.4075L68.1399 66.2634Z" fill="#FFB27D"/>
<path d="M50.2603 108.7L51.4389 113.633L53.1963 113.623L53.2594 108.7H50.2603Z" fill="#FFB27D"/>
<path d="M65.0564 108.91L68.3923 113.634L69.6972 111.965L67.6872 108.259L65.0564 108.91Z" fill="#FFB27D"/>
<path d="M58.2058 49.2699C58.2058 49.2594 58.2058 49.2489 58.2058 49.2279C58.1848 48.9865 58.1532 48.7345 58.1216 48.4931C58.0164 47.7584 57.8796 47.0446 57.7007 46.4044C57.5955 46.037 57.4902 45.7011 57.3639 45.3967C57.3429 45.3547 57.3324 45.3022 57.3113 45.2603C57.0272 44.5675 56.701 44.0637 56.3642 43.8747C55.7539 43.5284 55.0277 43.4969 54.5226 43.5179C54.6489 43.3814 54.912 43.3394 54.912 43.3394C54.5963 43.2974 53.8912 43.6018 53.8912 43.6018C49.5029 41.9119 48.8084 48.3567 48.9031 49.8577C48.9978 51.3586 47.4298 51.8415 45.1462 53.0275C40.7895 55.2738 40.4106 58.2967 40.4106 58.2967C40.4422 58.3177 40.4843 58.3387 40.5159 58.3702C40.7369 58.0028 41.1789 57.3206 41.5577 57.2156C41.5472 57.2471 41.1157 58.1603 40.9579 58.6851C41.5051 59.1049 42.2628 59.7347 43.0731 60.4485C44.1675 61.3931 45.3567 62.4743 46.3248 63.3559C46.3143 63.0516 46.3248 62.6317 46.4406 62.4113L46.6195 63.5134L46.6405 63.6603C47.2509 64.2167 47.735 64.668 47.977 64.8989C47.9981 64.9199 48.0191 64.9409 48.0402 64.9619C48.1138 65.0249 48.1454 65.0669 48.1454 65.0669C48.1138 64.6785 48.6505 63.7758 49.5029 62.6527C49.5661 62.5792 49.6187 62.4953 49.6818 62.4113C49.9554 62.0544 50.2501 61.687 50.5763 61.3092C50.6921 61.1727 50.8078 61.0363 50.9341 60.8998C51.0288 60.7843 51.1235 60.6794 51.2288 60.5639C51.4708 60.291 51.7128 60.0286 51.9549 59.7557C52.5968 59.0525 53.2703 58.3702 53.9333 57.7404C54.8909 56.8272 55.8065 56.0505 56.5536 55.5572C56.5852 55.5152 56.6063 55.4732 56.6378 55.4312C56.7746 55.2108 56.8904 54.9589 56.9956 54.6965C57.0272 54.623 57.0588 54.539 57.0798 54.4551C57.3745 53.6153 57.5008 52.7651 57.5323 52.5552C57.4587 53.3949 57.3429 54.0247 57.2166 54.4865C57.185 54.5915 57.164 54.686 57.1324 54.7699C57.0693 54.9694 57.0061 55.1268 56.9325 55.2633C57.0588 55.1478 57.1745 55.0114 57.2798 54.8644C57.3534 54.7699 57.4166 54.665 57.4797 54.56C58.2269 53.269 58.3847 51.2327 58.2058 49.2699Z" fill="#163560"/>
<path d="M56.3854 55.6306C56.3959 55.6411 54.9752 56.3759 53.9018 56.082C52.8916 55.8091 52.2391 54.5075 52.2496 54.497C52.6811 54.4131 52.7969 53.8253 52.7863 51.3167L52.9758 51.3586L56.217 51.9989C56.217 51.9989 56.1433 53.0171 56.1433 53.9722C56.1538 54.7804 56.2065 55.5467 56.3854 55.6306Z" fill="#FFB27D"/>
<path d="M52.7231 44.9454C52.7231 44.9454 54.3227 43.245 56.3327 44.8614C56.3327 44.8509 55.1646 44.6515 52.7231 44.9454Z" fill="#E37970"/>
<path d="M56.2375 51.9989C56.2375 51.9989 56.1639 53.0171 56.1639 53.9722C54.3433 53.9198 53.3857 52.2718 52.9963 51.3481L56.2375 51.9989Z" fill="#ED975D"/>
<path d="M52.6495 51.0017C52.6495 51.0017 51.7023 49.5008 51.4708 48.2202C51.313 47.307 51.776 43.9062 55.1961 44.3995C55.1961 44.3995 56.1853 44.494 57.1219 45.1238C57.8691 45.6276 58.932 46.7087 57.7428 49.6687L57.4271 50.6659L52.6495 51.0017Z" fill="#163560"/>
<path d="M69.1714 110.674L67.4561 110.726L65.5934 110.778C65.5934 110.778 61.2893 106.003 58.8795 98.3403C58.8269 98.1619 58.7637 97.9834 58.7006 97.805C57.3851 93.9633 54.6385 89.1455 53.1968 84.779C52.9653 84.0862 52.7654 83.425 52.5759 82.8057C52.5128 82.6063 52.4602 82.4173 52.4076 82.2179C51.3447 78.5337 51.0395 76.1195 50.7554 73.5269L61.1736 73.6109C61.1631 73.6214 62.8468 91.2658 69.1714 110.674Z" fill="#2B478B"/>
<path d="M59.7001 67.649C59.6791 72.5928 60.4263 74.713 60.4263 74.713C60.4263 74.713 55.9643 76.9697 50.6605 75.3113C50.5974 75.2903 46.2722 74.3037 46.2722 74.3037C46.3564 74.1042 47.1457 70.7664 47.2404 70.588C48.3559 68.1948 49.2083 67.1346 49.3451 66.3999C49.5871 65.0249 49.5976 63.5974 49.4713 62.2538C49.1451 58.6956 48.1875 55.7461 48.1875 55.7461C49.6292 55.4207 50.9867 54.8434 52.4916 54.2766C52.8389 54.7069 53.8912 55.1583 54.8067 55.1373C55.8591 55.1163 56.2064 54.665 56.1537 54.1716C57.2797 54.7909 58.1742 55.3892 58.1742 55.3892C59.1319 57.0476 61.0682 58.6536 61.2155 61.1937C61.2471 61.834 59.7107 67.5125 59.7001 67.649Z" fill="#E7F1FD"/>
<path d="M56.8379 52.9121C56.8379 52.9121 52.5444 52.9856 52.5338 50.309C52.5338 47.6429 51.9761 45.8481 54.7227 45.6906C57.4693 45.5332 57.9955 46.5513 58.2165 47.4435C58.4375 48.3357 57.9534 52.8176 56.8379 52.9121Z" fill="#FFB27D"/>
<path d="M56.6799 45.6276C56.6799 45.6276 55.5013 48.7555 53.7018 49.2279C51.8918 49.6897 51.113 49.2069 51.113 49.2069C51.113 49.2069 52.5021 48.1048 52.7863 46.1944C52.7863 46.1944 55.796 44.1372 56.6799 45.6276Z" fill="#163560"/>
<path d="M56.3855 45.8795C56.3855 45.8795 57.2589 46.5828 57.4799 47.2546C57.6904 47.9368 57.7956 49.3328 58.1955 49.2908C58.1955 49.2908 59.0795 47.1601 58.0903 45.953C57.0379 44.6829 56.3855 45.8795 56.3855 45.8795Z" fill="#163560"/>
<path d="M51.3764 113.35C51.3764 113.35 51.5132 114.326 51.1554 115.376C51.1554 115.376 50.8713 116.688 52.1551 116.709C53.4495 116.73 53.7652 116.614 53.6179 115.806C53.4706 115.009 53.197 113.613 53.197 113.613L51.3764 113.35Z" fill="#FFB27D"/>
<path d="M53.7962 117.486H50.9654C50.8496 116.908 51.1022 115.67 51.1443 115.428C51.1443 115.407 51.1548 115.397 51.1548 115.386C51.1548 115.376 51.1548 115.376 51.1548 115.376C52.6176 116.709 53.5331 115.344 53.5331 115.344C53.5331 115.344 53.5331 115.344 53.5331 115.355C53.7541 115.869 53.7962 117.286 53.7962 117.486Z" fill="#C45446"/>
<path d="M72.8126 115.943C72.8126 115.943 70.4343 113.308 69.6976 111.965L67.9297 112.867L71.8865 116.572L72.8126 116.447V115.943Z" fill="#FFB27D"/>
<path d="M74.3279 117.486C74.3279 117.486 71.3813 117.486 71.3287 117.486C70.8867 117.486 70.5395 116.761 70.0554 115.806C69.866 115.418 69.424 115.208 68.982 115.092L68.9925 117.486H68.298L67.6666 114.956C67.2456 114.179 67.635 113.487 67.9296 112.867C68.2769 112.867 69.203 113.098 70.9604 115.082C71.5392 115.733 72.1811 115.964 72.8125 115.943C72.8231 115.953 72.8336 115.953 72.8441 115.953C74.2963 116.614 74.3279 117.486 74.3279 117.486Z" fill="#C45446"/>
<path d="M67.4453 110.726L65.5827 110.779C65.5827 110.779 61.2786 106.003 58.8687 98.3404C58.8161 98.1619 58.7529 97.9835 58.6898 97.8051C57.3743 93.9634 54.6277 89.1456 53.186 84.7791C52.9545 84.0863 52.7545 83.425 52.5651 82.8058C52.502 82.6063 52.4493 82.4174 52.3967 82.218L53.9332 81.0529C53.9332 81.0529 58.5424 88.4948 59.9631 95.4959C61.2049 101.584 66.1614 108.9 67.4453 110.726Z" fill="#233862"/>
<path d="M54.0908 96.157C54.1224 99.5579 53.9435 107.388 53.5015 110.632H51.8493C50.9338 110.632 50.4813 110.621 50.4813 110.621C49.3658 104.984 48.5765 100.324 47.9978 96.3145C47.5242 93.0186 47.1033 90.1951 46.777 87.76C46.4508 85.3143 46.2193 83.257 46.1456 81.5251C46.1351 81.2522 46.1246 80.9898 46.1141 80.7274C46.1141 80.465 46.1035 80.2131 46.1141 79.9717L55.1116 79.1005C55.0064 85.0519 54.0803 94.1732 54.0908 96.157Z" fill="#2B478B"/>
<path d="M51.8597 110.632C50.9442 110.632 50.4917 110.621 50.4917 110.621C49.3762 104.985 48.5869 100.324 48.0081 96.3145C47.5346 93.0187 47.1136 90.1952 46.7874 87.76C46.4612 85.3144 46.2297 83.2571 46.156 81.5252L49.4604 83.467C49.4604 83.467 47.3557 84.2123 48.1555 89.8278C48.9552 95.4329 50.7337 109.834 51.8597 110.632Z" fill="#233862"/>
<path d="M52.2809 81.4622C52.2809 81.4622 51.6495 83.7504 49.4501 83.4565C47.2612 83.1626 44.1357 81.8505 44.1357 81.8505C44.1357 81.8505 45.0723 78.9011 46.2404 75.0174C47.6506 70.315 47.9979 63.7128 48.8292 59.8922C49.0607 58.8215 50.6182 58.4752 50.6708 57.8349L52.4914 54.3186C52.4914 54.3186 55.2064 60.396 55.3538 61.9285C55.5011 63.4504 52.2809 81.4622 52.2809 81.4622Z" fill="#01BA57"/>
<path d="M50.7445 66.4314C50.6498 68.9085 49.7764 73.1385 46.2826 74.9964C46.272 75.0069 46.251 75.0069 46.2405 75.0174C47.6506 70.315 47.6296 65.8121 48.4609 61.9914C50.3341 61.6031 50.7971 65.0669 50.7445 66.4314Z" fill="#118949"/>
<path d="M73.4438 64.9409H70.0763C70.0763 64.9619 70.0763 65.0249 70.0657 65.1089C70.0552 65.4133 70.0342 66.0115 70.0342 66.064C70.0763 66.7778 70.5814 67.1661 71.055 67.3551C71.055 67.3551 71.055 67.3551 71.0655 67.3551C71.1812 67.3971 71.297 67.4285 71.4022 67.4495C71.4864 67.4705 71.5601 67.481 71.6338 67.481C71.6759 67.481 71.7285 67.4915 71.7601 67.4915C72.0021 67.4915 72.2441 67.439 72.4546 67.3446C73.0439 67.0822 73.4649 66.4839 73.4649 65.8016V65.1403C73.4543 65.0879 73.4543 65.0144 73.4438 64.9409Z" fill="#C45446"/>
<path d="M73.1704 64.9409H72.7179C72.7284 65.0144 72.7284 65.0774 72.7284 65.1508V65.8121C72.7284 66.2739 72.539 66.6938 72.2443 66.9982C72.097 67.1451 71.9181 67.2711 71.7182 67.3551C71.6129 67.3971 71.5077 67.439 71.4025 67.46C71.3604 67.4705 71.3077 67.481 71.2551 67.481C71.3288 67.4915 71.4025 67.502 71.4866 67.502C71.5393 67.502 71.5814 67.502 71.634 67.4915C71.8234 67.481 72.0128 67.4285 72.1812 67.3551C72.4969 67.2186 72.76 66.9772 72.9389 66.6833C73.0125 66.5678 73.0652 66.4419 73.1073 66.3054C73.1599 66.148 73.1809 65.9801 73.1809 65.8016V65.1403C73.1809 65.0879 73.1704 65.0144 73.1704 64.9409Z" fill="#E37970"/>
<path d="M71.0608 67.5683H72.45V67.3584H71.0608V67.5683Z" fill="#C45446"/>
<path d="M46.9143 71.9315C46.9143 71.9315 48.4823 71.5956 48.8822 72.0364C49.2821 72.4878 49.5136 73.191 49.1137 73.4429C48.7138 73.6949 47.5457 73.0126 47.1248 73.2855C46.8196 73.4849 46.7249 73.9888 46.4302 73.8103C46.125 73.6319 45.8093 72.4878 45.8093 72.4878L46.9143 71.9315Z" fill="#FFB27D"/>
<path d="M52.4915 54.3081C52.4915 54.3081 48.2611 54.497 47.2508 55.4312C46.2301 56.3759 40.1475 63.6498 40.0528 65.5497C39.9475 67.46 45.3882 72.8761 45.3882 72.8761C45.3882 72.8761 46.893 72.5087 47.556 71.5641C47.556 71.5641 44.1885 65.5707 44.3884 65.3083C44.5884 65.0458 50.3026 60.3855 50.7657 61.4141C51.155 62.3168 52.4915 54.3081 52.4915 54.3081Z" fill="#01BA57"/>
<path d="M68.582 65.6442C68.582 65.6442 63.7517 67.2502 63.1519 67.1137C62.552 66.9772 61.6891 60.459 61.2156 58.2128C60.6157 55.3368 58.3321 54.7595 58.3321 54.7595L56.1643 54.1822C56.1643 54.1822 58.6478 60.3121 58.7215 61.5506C58.7952 62.7892 59.0162 81.8191 59.0162 81.8191C59.0162 81.8191 58.8688 82.6903 60.5526 82.3334C62.2363 81.966 62.6678 81.6092 62.6678 81.6092C62.6678 81.6092 61.9417 76.2875 61.5944 71.5642C63.3097 71.2703 68.8135 68.4887 68.8135 68.4887C69.6659 67.1452 68.582 65.6442 68.582 65.6442Z" fill="#01BA57"/>
<path d="M82.0724 86.196L81.1884 91.1608L78.7575 104.89L76.5897 117.16C76.5581 117.349 76.3898 117.486 76.2003 117.486C76.032 117.486 75.8952 117.339 75.9162 117.171L77.7894 103.263L79.7888 88.3793L80.094 86.1331L82.0724 86.196Z" fill="#C69D7F"/>
<path d="M91.6911 86.196L90.8071 91.1608L88.3762 104.89L86.2084 117.16C86.1768 117.349 86.0084 117.486 85.819 117.486C85.6506 117.486 85.5138 117.339 85.5349 117.171L87.408 103.263L89.4075 88.3793L89.7127 86.1331L91.6911 86.196Z" fill="#C69D7F"/>
<path d="M81.1885 91.1608C81.3042 89.03 79.7888 88.3793 79.7888 88.3793L80.094 86.1331L82.0725 86.1855L81.1885 91.1608Z" fill="#A0795F"/>
<path d="M165.009 117.486C164.82 117.486 164.652 117.349 164.62 117.16L162.694 106.255L159.916 90.5835L159.137 86.196L161.116 86.1436L161.463 88.6942L163.873 106.58L165.304 117.181C165.315 117.339 165.178 117.486 165.009 117.486Z" fill="#C69D7F"/>
<path d="M161.451 88.6837C160.167 89.2505 159.904 90.5835 159.904 90.5835L159.125 86.196L161.104 86.1436L161.451 88.6837Z" fill="#A0795F"/>
<path d="M176.09 117.486C175.9 117.486 175.732 117.349 175.7 117.16L173.774 106.255L170.986 90.5835L170.207 86.196L172.185 86.1436L172.533 88.6942L174.943 106.58L176.374 117.181C176.384 117.339 176.258 117.486 176.09 117.486Z" fill="#C69D7F"/>
<path d="M172.533 88.6837C171.249 89.2505 170.986 90.5835 170.986 90.5835L170.207 86.196L172.185 86.1436L172.533 88.6837Z" fill="#A0795F"/>
<path d="M175.816 87.9174H72.7173C71.7807 87.9174 71.0125 87.1512 71.0125 86.217V86.175C71.0125 85.2408 71.7807 84.4746 72.7173 84.4746H175.816C176.752 84.4746 177.52 85.2408 177.52 86.175V86.2065C177.531 87.1512 176.752 87.9174 175.816 87.9174Z" fill="#E0B594"/>
<path d="M93.1959 82.3974C93.038 82.3029 92.7223 82.3344 92.5013 82.3869V82.0615C92.5013 81.988 92.5013 81.9145 92.4908 81.8516H89.1233C89.1128 81.925 89.1128 81.988 89.1128 82.0615V82.7228C89.1128 83.6569 89.881 84.4127 90.8071 84.4127C91.3122 84.4127 91.7647 84.1923 92.0804 83.8354C92.0804 83.8354 92.8802 83.6359 93.1327 83.342C93.3853 83.0481 93.4695 82.5653 93.1959 82.3974ZM93.017 83.0062C92.9328 83.2266 92.554 83.342 92.3645 83.384C92.4382 83.2161 92.4908 83.0272 92.5013 82.8277C92.6171 82.6703 92.8065 82.5758 92.9328 82.5968C93.0591 82.6283 93.1327 82.7333 93.017 83.0062Z" fill="#C45446"/>
<path d="M89.3867 82.0604V82.7217C89.3867 83.6559 90.1549 84.4116 91.081 84.4116C91.1547 84.4116 91.2388 84.4011 91.3125 84.3906C90.4812 84.2752 89.8392 83.5719 89.8392 82.7112V82.05C89.8392 81.9765 89.8392 81.903 89.8497 81.84H89.3972C89.3867 81.924 89.3867 81.987 89.3867 82.0604Z" fill="#E37970"/>
<path d="M91.5016 84.2647H90.1125V84.4746H91.5016V84.2647Z" fill="#C45446"/>
<path d="M141.078 82.3974C140.92 82.3029 140.604 82.3344 140.383 82.3869V82.0615C140.383 81.988 140.383 81.9145 140.373 81.8516H137.005C136.995 81.925 136.995 81.988 136.995 82.0615V82.7228C136.995 83.6569 137.763 84.4127 138.689 84.4127C139.194 84.4127 139.647 84.1923 139.962 83.8354C139.962 83.8354 140.762 83.6359 141.015 83.342C141.257 83.0481 141.341 82.5653 141.078 82.3974ZM140.899 83.0062C140.815 83.2266 140.436 83.342 140.246 83.384C140.32 83.2161 140.373 83.0272 140.383 82.8277C140.499 82.6703 140.688 82.5758 140.815 82.5968C140.93 82.6283 141.004 82.7333 140.899 83.0062Z" fill="#C45446"/>
<path d="M137.258 82.0604V82.7217C137.258 83.6559 138.026 84.4116 138.952 84.4116C139.026 84.4116 139.11 84.4011 139.184 84.3906C138.352 84.2752 137.71 83.5719 137.71 82.7112V82.05C137.71 81.9765 137.71 81.903 137.721 81.84H137.268C137.268 81.924 137.258 81.987 137.258 82.0604Z" fill="#E37970"/>
<path d="M139.373 84.2647H137.984V84.4746H139.373V84.2647Z" fill="#C45446"/>
<path d="M15.9013 58.5906V117.486H0.326529C0.326529 117.486 0.0950131 115.197 0.0213488 111.492C-0.0207451 109.34 0.000301875 106.706 0.14763 103.767C0.158154 103.526 0.168677 103.284 0.189724 103.043C0.273912 101.699 0.379147 100.293 0.515952 98.8442C0.526475 98.7182 0.536999 98.5817 0.558046 98.4558C0.715898 96.9443 0.90532 95.3699 1.15788 93.7429C1.35783 92.4309 1.58935 91.0873 1.85243 89.7228C1.87348 89.6284 1.89453 89.5339 1.90505 89.4394C2.04185 88.7467 2.18918 88.0434 2.34703 87.3401C2.41018 87.0672 2.47332 86.7838 2.53646 86.5109C2.66274 85.9651 2.79954 85.4193 2.93635 84.8735C3.2731 83.5405 3.65194 82.1864 4.07288 80.8324C4.11498 80.696 4.15707 80.5595 4.19916 80.4126C4.38859 79.8143 4.58853 79.2055 4.799 78.6072C5.11471 77.6835 5.45146 76.7703 5.80925 75.8466C6.03025 75.2693 6.26176 74.692 6.5038 74.1252C8.77687 68.6881 11.8287 63.356 15.9013 58.5906Z" fill="#DEEDFF"/>
</g>
<defs>
<clipPath id="clip0">
<rect width="272" height="118" fill="white"/>
</clipPath>
</defs>
</svg>
