<svg width="247" height="126" viewBox="0 0 247 126" fill="none" xmlns="http://www.w3.org/2000/svg">
<g clip-path="url(#clip0)">
<path d="M22.4885 125.94C22.4885 125.94 -21.1233 71.4514 13.1226 38.054C64.0827 -11.6578 98.7635 58.9885 118.4 29.7571C150.871 -18.6098 257.105 -6.19929 224.607 53.9492C207.554 85.5038 264.61 80.7876 241.347 126.01L22.4885 125.94Z" fill="#EBF3FA"/>
<path d="M168.42 58.1572L169.994 54.4542L170.029 54.3668C170.22 53.9127 170.037 53.3974 169.62 53.1529L166.698 51.5022C166.646 51.476 166.602 51.4411 166.568 51.4149C166.281 51.1791 166.15 50.786 166.255 50.428C166.863 48.2795 167.037 46.035 166.768 43.8166C166.759 43.7205 166.759 43.6332 166.776 43.5459C166.829 43.214 167.063 42.9258 167.385 42.8035L170.003 41.8166C170.342 41.6856 170.577 41.3625 170.611 41.0131C170.62 40.9083 170.611 40.786 170.585 40.6725L169.559 36.69C169.437 36.2009 168.95 35.8865 168.446 35.9738L164.785 36.6026C164.42 36.6638 164.063 36.5066 163.854 36.2096C163.55 35.7729 163.228 35.3537 162.872 34.952C162.219 34.1834 161.506 33.4935 160.759 32.8821C160.445 32.6288 160.324 32.2096 160.445 31.8253L161.628 28.2271L161.689 28.0437C161.846 27.5808 161.619 27.0655 161.167 26.8734L157.402 25.2576C156.941 25.0655 156.41 25.2402 156.158 25.6769L154.332 28.9432C154.132 29.3101 153.715 29.5022 153.315 29.4149C151.61 29.1004 149.871 29.048 148.149 29.2664C147.714 29.3188 147.297 29.0655 147.14 28.6463L145.966 25.5371C145.784 25.0655 145.288 24.8122 144.81 24.9345L140.827 25.9651C140.357 26.0873 140.061 26.5502 140.14 27.0306L140.861 31.3625C140.922 31.7293 140.775 32.0961 140.47 32.3232C140.096 32.5939 139.74 32.8821 139.383 33.1878C138.713 33.7642 138.105 34.3756 137.557 35.0218C137.313 35.3188 136.913 35.4323 136.548 35.3101L132.243 33.8777C131.765 33.7205 131.261 33.9563 131.061 34.4105L129.443 38.2096C129.278 38.6114 129.4 39.083 129.739 39.345C129.774 39.3712 129.809 39.3974 129.852 39.4236L133.452 41.4585C133.791 41.6419 133.983 42.0087 133.939 42.393C133.939 42.428 133.931 42.4629 133.922 42.4891C133.904 42.5852 133.878 42.6812 133.87 42.786C133.644 43.9563 133.557 45.1616 133.583 46.3581C133.6 46.7598 133.348 47.1267 132.965 47.2664L129.695 48.5153C129.235 48.69 128.974 49.1965 129.104 49.6769L129.33 50.559L130.13 53.6507C130.252 54.1398 130.73 54.4454 131.217 54.3581L134.826 53.7467C135.209 53.6769 135.592 53.869 135.792 54.2009C136.305 55.0917 136.913 55.9564 137.609 56.7686C138.122 57.3712 138.679 57.9389 139.261 58.4454L139.009 59.1965L137.992 62.297C137.861 62.6812 137.992 63.1005 138.305 63.3363C138.366 63.3887 138.435 63.4236 138.513 63.4585L142.305 65.0917C142.757 65.2839 143.27 65.1005 143.514 64.6725L144.757 62.4454C144.966 62.0699 145.418 61.8778 145.836 61.9913C147.558 62.4629 149.34 62.655 151.106 62.559C151.523 62.5328 151.906 62.7861 152.036 63.1703L153.515 67.1005C153.68 67.5371 154.149 67.7817 154.61 67.6682L158.637 66.6201C159.115 66.4978 159.411 66.0262 159.332 65.5546L158.576 61.0481C158.506 60.6638 158.68 60.2795 159.019 60.0699C159.732 59.6245 160.428 59.1179 161.089 58.5415C161.446 58.2358 161.785 57.9127 162.106 57.5808C162.359 57.3188 162.741 57.2315 163.08 57.3363L167.229 58.69C167.707 58.8472 168.22 58.6201 168.42 58.1572ZM157.68 40.7773C159.541 43.5197 159.767 46.6201 158.741 48.9957C155.141 57.3275 143.966 56.5852 141.435 47.9913C140.818 45.7817 141.079 43.3275 142.662 40.9258C146.384 35.3887 154.123 35.5459 157.68 40.7773Z" fill="#DFEDFB"/>
<path d="M117.147 108.795L120.764 102.568L120.851 102.419C121.286 101.659 121.086 100.699 120.39 100.175L115.573 96.5939C115.494 96.5328 115.416 96.4716 115.355 96.4018C114.903 95.9127 114.755 95.1965 115.025 94.5764C116.573 90.8909 117.381 86.9433 117.399 82.9433C117.399 82.7773 117.425 82.6201 117.468 82.4629C117.642 81.8865 118.112 81.4324 118.703 81.2839L123.565 80.1136C124.199 79.9564 124.686 79.4411 124.834 78.821C124.869 78.6289 124.886 78.428 124.86 78.2184L123.921 70.9171C123.808 70.0175 123.017 69.345 122.112 69.3887L115.468 69.6769C114.816 69.7031 114.207 69.3538 113.903 68.7686C113.451 67.9302 112.972 67.1179 112.442 66.3145C111.451 64.8035 110.338 63.4236 109.146 62.166L109.137 62.1573C108.633 61.6332 108.511 60.8647 108.816 60.2097L111.703 54.0787L111.842 53.773C112.225 52.987 111.929 52.0263 111.172 51.5808L104.841 47.8691C104.068 47.4236 103.076 47.6245 102.546 48.3407L98.5802 53.7206C98.1367 54.3232 97.3714 54.5677 96.6757 54.3319C93.719 53.3887 90.6405 52.9084 87.5359 52.9171C86.7446 52.9084 86.0663 52.3756 85.875 51.5983L84.4836 45.8167C84.2662 44.9346 83.44 44.3756 82.5617 44.4891L75.2655 45.4324C74.4046 45.5459 73.7698 46.3057 73.8133 47.1704L74.1437 55.0132C74.1785 55.6769 73.822 56.3057 73.2393 56.6289C72.5262 57.0219 71.8131 57.4498 71.1261 57.9127C69.813 58.7861 68.6042 59.738 67.4824 60.7599C66.978 61.2315 66.2388 61.3538 65.6214 61.0481L58.2731 57.5546C57.4643 57.1704 56.5077 57.476 56.0555 58.2446L52.3422 64.6289C51.9509 65.3101 52.0726 66.166 52.6118 66.7075C52.664 66.7599 52.7336 66.821 52.8031 66.8647L58.7514 71.2839C59.3079 71.6944 59.5688 72.3843 59.4123 73.0568C59.4036 73.1179 59.3862 73.1791 59.3688 73.2315C59.3079 73.4062 59.2557 73.5634 59.2123 73.7468C58.56 75.7817 58.1252 77.8865 57.9165 80.0262C57.8556 80.7424 57.3339 81.3363 56.6295 81.5022L50.5421 82.9869C49.6812 83.1965 49.1159 84.035 49.229 84.9171L49.4377 86.5415L50.1682 92.2009C50.2725 93.0917 51.0552 93.738 51.9509 93.7118L58.4992 93.4236C59.1949 93.3887 59.8297 93.8079 60.108 94.4542C60.8211 96.1485 61.7081 97.8166 62.769 99.4236C63.5517 100.611 64.4213 101.738 65.3344 102.769L64.7257 104.052L62.2386 109.328C61.9255 109.974 62.0646 110.751 62.5603 111.24C62.6647 111.345 62.7777 111.432 62.9082 111.511L69.2825 115.266C70.0391 115.703 71.0044 115.493 71.5175 114.795L74.222 111.109C74.6742 110.489 75.5177 110.245 76.2308 110.541C79.1875 111.755 82.3008 112.498 85.4575 112.725C86.2054 112.777 86.8229 113.301 86.9794 114.017L88.736 121.328C88.936 122.148 89.71 122.681 90.5536 122.576L97.928 121.616C98.8063 121.502 99.4411 120.742 99.3976 119.869L99.0498 111.703C99.015 111.004 99.415 110.358 100.059 110.061C101.433 109.432 102.763 108.681 104.068 107.808C104.772 107.345 105.442 106.847 106.094 106.341C106.607 105.939 107.294 105.86 107.885 106.131L114.92 109.485C115.712 109.869 116.686 109.572 117.147 108.795ZM101.92 75.5459C102.824 77.3188 103.459 79.3275 103.763 81.5721C103.833 82.0437 103.85 82.5852 103.85 83.1529C103.798 85.5896 103.067 88.5415 101.998 90.3756C93.7625 104.367 74.0828 100.55 71.4914 84.7337C71.4479 84.4716 71.4131 84.2096 71.3783 83.9476C71.0652 81.476 71.8392 77.6682 73.0828 75.5197C73.735 74.3931 74.4568 73.3712 75.2394 72.4717C83.0487 63.4498 96.754 65.4586 101.92 75.5459Z" fill="#D6E8FC"/>
<path d="M32.3847 125.467C32.3847 125.467 32.1934 123.965 31.7499 123.074C31.3064 122.183 28.4714 122.751 28.4714 122.751C28.4714 122.751 27.9062 123.24 27.7844 125.511L32.3847 125.467Z" fill="#233862"/>
<path d="M42.0374 125.45C41.3678 125.039 41.7504 122 41.7504 122C41.7504 122 44.855 119.511 45.2811 121.415C45.7072 123.319 48.2292 124.175 49.664 124.411C50.6554 124.568 50.9598 125.127 51.0555 125.45H42.0374Z" fill="#233862"/>
<path d="M35.6111 103.319C35.7416 104.018 35.8198 104.594 35.8372 105.004C36.1242 110.646 40.568 123.563 41.368 123.86C42.5942 124.323 44.5335 123.336 45.551 123.013C45.9684 122.882 46.2553 122.454 46.1597 122.018C43.9595 111.86 43.1508 97.2228 42.8551 88.5677C42.7073 84.2009 41.9594 81.1878 41.9594 81.1878C41.9594 81.1878 31.1238 78.2795 31.0543 81.9564C31.0021 85.2053 34.6458 97.9564 35.6111 103.319Z" fill="#213F7A"/>
<path d="M35.6111 103.319L42.8551 88.559C42.7073 84.1922 41.9594 81.179 41.9594 81.179C41.9594 81.179 31.1238 78.2707 31.0543 81.9476C31.0021 85.2053 34.6458 97.9564 35.6111 103.319Z" fill="#233862"/>
<path d="M38.0289 81.9651L32.2981 123.668C32.2981 123.668 29.7849 124.279 27.8282 123.79C27.8282 123.79 26.1498 101.607 26.289 96.2446C26.4281 90.8821 25.0889 81.8952 26.5933 80.9083C28.0978 79.9215 38.0289 81.9651 38.0289 81.9651Z" fill="#213F7A"/>
<path d="M25.4715 81.2751C25.4454 81.6506 25.6802 81.9912 26.0454 82.096C26.8455 82.3319 27.7673 82.4891 29.5413 82.8646C31.211 83.2139 33.4546 83.5196 36.22 83.5371C40.6116 83.5633 42.2726 82.0436 42.2726 82.0436C42.4639 82.0436 42.177 81.1266 41.9161 76.7423C41.8291 75.2576 41.7422 73.3712 41.6813 70.9956C41.6291 68.8559 41.5856 66.3056 41.5856 63.2925C41.5769 59.6594 35.9852 55.7554 35.8809 55.7554C35.8809 56.2794 35.0634 57.2401 33.7938 57.3275C32.298 57.4236 30.4544 56.6725 30.4544 55.8078C30.4544 55.7991 27.7412 60.1659 26.7759 64.8122C26.6541 65.4061 26.5585 66.0262 26.4802 66.6812C26.2541 68.6463 26.4715 67.2401 25.4715 81.2751Z" fill="#01BA57"/>
<path d="M35.8721 55.7468C35.8721 55.7468 41.0724 55.7031 42.3247 57.4673C43.5769 59.2315 46.3249 68.725 44.8901 71.8778C43.4552 75.0394 40.7767 70.5678 39.2897 68.6376C37.8026 66.7075 35.8721 55.7468 35.8721 55.7468Z" fill="#01BA57"/>
<path d="M35.9333 54.952V55.4934C35.9333 55.4934 36.0811 57.179 34.0114 57.4323C31.9417 57.6769 30.3937 57.1179 30.4546 55.8166C30.6372 54.8035 30.8199 53.7642 30.8286 52.9258C30.8372 52.6113 30.8112 52.2882 30.759 51.9127L34.7767 51.834L35.9593 52.0262L35.9333 54.952Z" fill="#FFB27D"/>
<path d="M35.9419 52.0262L35.9245 54.9519C35.4984 55.1528 35.0201 55.2751 34.4809 55.2751C32.6373 55.2751 31.4459 53.9126 30.8198 52.9345C30.8285 52.6201 30.8024 52.2969 30.7502 51.9214L34.7679 51.8428L35.9419 52.0262Z" fill="#E2915A"/>
<path d="M30.4363 51.2664C30.9059 53.7817 34.1409 53.7031 35.5323 53.5459C35.9237 53.5022 36.1758 53.4498 36.1758 53.4498C36.6194 53.3276 36.8629 52.6289 36.9846 51.7118C37.2107 49.8952 36.9237 47.2228 36.6194 46.5415C36.1585 45.511 35.2888 44.4018 32.0364 45.2053C28.7754 46 29.845 48.035 30.4363 51.2664Z" fill="#FFB27D"/>
<path d="M41.1945 62.821C41.1945 62.821 43.2033 67.2839 43.1511 68.6201C43.1511 68.6201 42.1511 68.5852 41.1945 68.8734C39.6204 69.345 41.1945 62.821 41.1945 62.821Z" fill="#118547"/>
<path d="M37.6204 44.1398C37.6204 44.1398 36.1855 44.0262 34.4985 43.2926C33.1244 42.69 31.3939 43.3537 30.8286 43.6507C30.846 43.5633 30.8808 43.4323 30.9678 43.3101C30.9678 43.3101 30.7156 43.4935 30.6808 43.738C30.6547 43.7555 30.646 43.773 30.646 43.773C30.646 43.773 30.359 43.7206 30.1764 43.7992C30.1764 43.7992 30.3068 43.7817 30.3503 43.8603C30.359 43.869 30.359 43.8778 30.3677 43.8865C28.2284 44.9258 28.0284 48.3232 28.7154 49.1092C29.5416 50.0524 30.7764 52.1573 30.7764 52.1573C30.7764 52.1573 30.9069 51.6769 30.7504 50.8472C30.6025 50.0175 31.3156 50.0175 32.22 49.6332C33.1244 49.2577 32.3679 48.1922 33.1592 47.5546C33.9506 46.9083 36.8552 47.2926 36.8117 46.7948C37.8987 46.4105 37.6204 44.2533 37.6204 44.1398Z" fill="#233862"/>
<path d="M29.7847 71.1791C30.6369 74.6027 39.8202 76.3756 41.916 76.7337C41.829 75.249 41.742 73.3625 41.6812 70.9869L29.7847 71.1791Z" fill="#118547"/>
<path d="M31.802 72.297C31.715 72.297 29.7584 72 29.4105 71.8254C29.0627 71.6507 27.4626 69.3625 28.5061 68.7773C29.5584 68.1922 32.3672 70.5328 32.3672 70.5328L31.802 72.297Z" fill="#FFB27D"/>
<path d="M43.69 72.9782C43.69 72.9782 36.1242 73.3887 31.0543 72.297C31.0543 72.297 30.9239 70.821 32.524 70.1747C32.524 70.1747 40.4376 68.4892 42.3334 68.9608C44.2291 69.4237 43.69 72.9782 43.69 72.9782Z" fill="#01BA57"/>
<path d="M26.3235 67.0131C27.8888 68.917 29.9411 70.4629 32.2021 70.8297C32.2195 70.8035 32.8892 69.7817 32.7587 68.2969C32.6978 67.607 32.4717 66.8122 31.9326 65.9651C31.7673 65.7031 31.6195 65.3974 31.4891 65.0655C30.2542 61.9039 30.4368 55.7991 30.4368 55.7991C30.4368 55.7991 25.193 56.3493 23.5581 58.6987C22.5667 60.131 23.845 64.0087 26.3235 67.0131Z" fill="#01BA57"/>
<path d="M35.5418 53.5371C35.9331 53.4935 36.1853 53.4411 36.1853 53.4411C36.6288 53.3188 36.8723 52.6201 36.9941 51.7031C36.1592 51.9127 35.7853 52.5502 35.6201 52.8297C35.5418 52.952 35.5244 53.2314 35.5418 53.5371Z" fill="#E2915A"/>
<path d="M37.6549 54.9607C37.6549 54.9607 39.4637 51.9564 38.0549 51.8254C36.6461 51.6944 36.0809 52.6551 35.8808 53.0044C35.6808 53.3537 35.933 54.9433 35.933 54.9433L37.6549 54.9607Z" fill="#FFB27D"/>
<path d="M30.7502 68.1922C30.8023 68.5765 30.9154 68.9258 31.0632 69.2315C31.5067 70.2184 32.2198 70.8297 32.2198 70.8297C36.9245 68.6987 37.8724 61.3712 38.0376 57.3538C38.0985 55.7381 38.0376 54.6551 38.0376 54.6551C35.9157 53.9477 35.3157 55.1791 35.3157 55.1791C35.3157 55.1791 32.8112 61.1616 31.5067 65.0743C31.0023 66.559 30.6806 67.7555 30.7502 68.1922Z" fill="#01BA57"/>
<path d="M26.3232 67.0131C27.8886 68.9171 29.9409 70.4629 32.2019 70.8297C36.9066 68.6987 37.8545 61.3712 38.0197 57.3538C38.0197 57.3538 35.7935 65.4586 32.7672 68.297C32.2193 68.8123 31.6453 69.1529 31.054 69.2402C31.054 69.2402 27.2363 68.1573 26.4363 67.1354C26.3754 67.0568 26.3406 67.0219 26.3232 67.0131Z" fill="#118547"/>
<path d="M222.397 110.926C222.397 110.926 220.093 108.227 222.258 106.515C222.258 106.515 223.832 105.555 225.119 105.633C225.119 105.633 223.293 108.699 223.884 109.004C224.476 109.31 225.667 105.441 225.667 105.441C225.667 105.441 229.259 105.092 230.407 105.651C230.407 105.651 227.337 108.175 227.989 108.323C228.632 108.472 231.946 106 231.946 106C231.946 106 235.285 106.568 235.111 108.62C234.937 110.664 233.781 111.301 233.276 111.24C232.772 111.188 229.815 110.053 229.746 110.472C229.685 110.891 231.459 112.245 232.711 112.315C232.711 112.315 230.354 114.926 228.789 114.166C227.224 113.415 227.093 112.218 226.111 111.773C225.137 111.328 224.302 111.328 224.702 111.782C225.102 112.236 226.867 112.681 227.424 113.677C227.98 114.664 228.485 115.336 226.867 115.092C225.25 114.847 222.615 113.66 222.502 112.297C222.397 110.926 222.397 110.926 222.397 110.926Z" fill="#C8DBF4"/>
<path d="M233.477 108.673C233.477 108.673 224.407 108.323 222.406 110.926C222.406 110.926 221.963 112.262 220.598 113.476L220.389 114.061C220.389 114.061 221.963 112.393 222.52 112.297C222.52 112.288 221.632 109.066 233.477 108.673Z" fill="#C8DBF4"/>
<path d="M220.598 113.476C220.598 113.476 218.65 114.926 218.519 117.502L218.876 117.537C218.876 117.537 219.502 114.865 220.624 113.817C221.737 112.777 220.598 113.476 220.598 113.476Z" fill="#C8DBF4"/>
<path d="M214.354 107.537C214.354 107.537 218.015 105.476 216.302 102.681C216.302 102.681 214.937 100.969 213.476 100.524C213.476 100.524 214.258 104.69 213.476 104.786C212.693 104.882 212.937 100.079 212.937 100.079C212.937 100.079 209.084 98.2184 207.571 98.3669C207.571 98.3669 209.963 102.437 209.18 102.341C208.397 102.245 205.719 98.1223 205.719 98.1223C205.719 98.1223 201.762 97.3887 201.136 99.7381C200.501 102.087 201.527 103.266 202.11 103.415C202.692 103.563 206.449 103.511 206.354 104C206.258 104.489 203.719 105.275 202.301 104.83C202.301 104.83 203.866 108.699 205.91 108.507C207.962 108.314 208.597 107.039 209.867 106.935C211.137 106.838 212.067 107.179 211.432 107.52C210.797 107.86 208.649 107.633 207.623 108.507C206.597 109.38 205.771 109.921 207.675 110.314C209.58 110.707 212.998 110.463 213.676 108.987C214.354 107.537 214.354 107.537 214.354 107.537Z" fill="#C8DBF4"/>
<path d="M202.936 100.48C202.936 100.48 213.18 103.817 214.354 107.537C214.354 107.537 214.302 109.205 215.328 111.118V111.852C215.328 111.852 214.258 109.354 213.667 109.013C213.676 109.004 215.963 105.773 202.936 100.48Z" fill="#C8DBF4"/>
<path d="M215.336 111.118C215.336 111.118 216.919 113.528 216.015 116.463L215.606 116.349C215.606 116.349 215.997 113.118 215.171 111.494C214.345 109.869 215.336 111.118 215.336 111.118Z" fill="#C8DBF4"/>
<path d="M220.18 104.699C220.18 104.699 215.354 101.983 217.606 98.3057C217.606 98.3057 219.407 96.0437 221.337 95.4673C221.337 95.4673 220.311 100.961 221.337 101.092C222.363 101.223 222.041 94.8909 222.041 94.8909C222.041 94.8909 227.12 92.4367 229.12 92.6289C229.12 92.6289 225.972 97.9913 226.998 97.8603C228.024 97.7293 231.564 92.3057 231.564 92.3057C231.564 92.3057 236.773 91.3363 237.608 94.4367C238.443 97.5372 237.095 99.0918 236.321 99.2839C235.547 99.4761 230.599 99.4149 230.72 100.061C230.851 100.707 234.19 101.738 236.06 101.162C236.06 101.162 233.999 106.262 231.303 106.009C228.598 105.747 227.764 104.07 226.094 103.939C224.424 103.808 223.198 104.262 224.033 104.716C224.868 105.17 227.703 104.865 229.051 106.018C230.399 107.17 231.494 107.878 228.99 108.402C226.485 108.917 221.981 108.594 221.076 106.655C220.18 104.699 220.18 104.699 220.18 104.699Z" fill="#D4E4F8"/>
<path d="M235.234 95.3975C235.234 95.3975 221.729 99.7905 220.181 104.699C220.181 104.699 220.241 106.891 218.894 109.415V110.384C218.894 110.384 220.311 107.092 221.076 106.638C221.076 106.638 218.059 102.376 235.234 95.3975Z" fill="#D4E4F8"/>
<path d="M218.894 109.415C218.894 109.415 216.806 112.594 217.998 116.463L218.537 116.314C218.537 116.314 218.015 112.052 219.111 109.913C220.189 107.773 218.894 109.415 218.894 109.415Z" fill="#D4E4F8"/>
<path d="M220.015 124.847C225.233 124.847 229.468 120.594 229.468 115.354H210.571C210.562 120.594 214.797 124.847 220.015 124.847Z" fill="#D4E4F8"/>
<path d="M229.599 125.328H210.441C210.441 124.681 210.962 124.157 211.606 124.157H228.433C229.077 124.157 229.599 124.681 229.599 125.328Z" fill="#D4E4F8"/>
<path d="M229.685 115.354H210.258V115.642H229.685V115.354Z" fill="#9FC1F4"/>
<path d="M187.152 52.0612C185.761 51.3363 184.648 51.7904 184.648 51.7904C180.395 51.2926 179.152 56.2708 179.204 57.9913C179.265 59.7031 179.456 61.5459 177.552 63.773C172.064 70.2097 183.561 70.4979 183.561 70.4979C183.656 65.3538 189.796 67.2315 189.526 67.7555C197.397 69.6507 190.318 53.7118 187.152 52.0612Z" fill="#163560"/>
<path d="M170.733 73.5022C170.733 73.5022 169.985 72.3582 169.385 72.332C168.785 72.3058 167.663 71.9914 167.75 72.2184C167.837 72.4455 168.533 72.463 168.603 72.6027C168.672 72.7337 167.576 72.9433 167.263 72.9608C166.95 72.987 166.211 72.9608 166.237 73.118C166.263 73.2752 167.568 73.9214 168.49 73.8341C169.411 73.7468 170.551 74.1048 170.551 74.1048L170.733 73.5022Z" fill="#FFB27D"/>
<path d="M181.56 73.8778C181.56 73.8778 181.152 74.69 180.412 75.6158C179.525 76.7337 178.151 78.0262 176.43 78.2795C175.603 78.4018 174.803 78.2271 174.064 77.8952C171.977 76.9607 170.403 74.821 170.403 74.821C170.038 73.8079 170.638 73.1267 170.638 73.1267C170.638 73.1267 174.864 74.0786 175.264 73.8778C175.664 73.6769 178.012 66.8909 178.569 66.035C179.125 65.1791 181.03 64.7424 181.03 64.7424L181.56 73.8778Z" fill="#F9DDBF"/>
<path d="M180.412 75.6158C179.525 76.7337 178.151 78.0263 176.429 78.2795C175.603 78.4018 174.803 78.2271 174.064 77.8953C174.142 77.904 176.238 78.166 177.064 76.6726C177.916 75.1442 178.829 72.7249 180.09 73.5284C180.638 73.8778 180.612 74.7424 180.412 75.6158Z" fill="#F2CCAA"/>
<path d="M197.309 119.651C197.309 119.651 198.596 120.83 198.344 121.668C198.091 122.507 196.926 123.066 196.769 124.096C196.613 125.118 195.987 125.677 195.422 125.677C194.856 125.677 192.726 125.677 192.726 125.677C192.726 125.677 192.308 124.952 193.317 124.734C194.326 124.515 194.7 123.31 194.639 122.192C194.578 121.074 194.735 119.581 194.735 119.581L196.874 119.083L197.309 119.651Z" fill="#233862"/>
<path d="M186.404 120.157C186.404 120.157 186.865 125.162 186.299 125.441L179.064 125.424C179.064 125.424 179.064 124.585 180.229 124.402C181.395 124.218 183.438 123.528 183.778 122.009C184.125 120.48 186.404 120.157 186.404 120.157Z" fill="#233862"/>
<path d="M191.56 84.262C190.073 80.9083 189.16 79.9476 189.334 78.8996C189.465 78.1223 188.943 64.4454 188.943 64.4454C188.769 64.393 188.412 64.3406 188.221 64.297C187.612 64.1572 187.108 63.7293 186.891 63.1354C186.638 62.4192 186.438 61.3712 186.438 60.0524L186.247 60.0874L183.038 60.7249C183.038 60.7249 183.108 61.738 183.116 62.6987C183.116 62.7075 183.116 62.7162 183.116 62.7249C183.116 63.5546 182.577 64.2882 181.786 64.5153C181.377 64.6289 181.029 64.7337 181.029 64.7337C181.029 64.7337 179.855 68.1136 179.629 71.5808C179.403 75.0481 181.768 76.559 179.612 83.4935C177.394 90.5852 192.387 86.1136 191.56 84.262Z" fill="#FFB27D"/>
<path d="M183.038 60.7337C183.038 60.7337 183.108 61.7468 183.117 62.7075C184.908 62.6551 185.865 61.0132 186.247 60.0961L183.038 60.7337Z" fill="#E8945B"/>
<path d="M182.438 61.6419C182.438 61.6419 186.691 61.7118 186.691 59.0568C186.691 56.4018 187.247 54.6201 184.534 54.4629C181.821 54.3057 181.29 55.3188 181.082 56.2096C180.864 57.083 181.334 61.5546 182.438 61.6419Z" fill="#FFB27D"/>
<path d="M182.595 54.393C182.595 54.393 183.761 57.5109 185.543 57.9738C187.326 58.4367 188.1 57.9563 188.1 57.9563C188.1 57.9563 186.735 56.8646 186.448 54.9607C186.448 54.952 183.474 52.9083 182.595 54.393Z" fill="#163560"/>
<path d="M182.882 54.6463C182.882 54.6463 182.021 54.9695 181.664 55.5983C181.317 56.2184 181.021 57.0306 181.09 58.035C181.09 58.035 180.212 55.9127 181.195 54.7162C182.247 53.4498 182.882 54.6463 182.882 54.6463Z" fill="#163560"/>
<path d="M183.36 59.9913C183.36 59.9913 183.064 60.3756 182.482 60.3494C182.012 60.3232 181.83 59.9127 181.83 59.9127C181.83 59.9127 182.699 59.7031 183.36 59.9913Z" fill="#EBF3FA"/>
<path d="M191.969 70.4978C191.969 70.4978 192.074 72.0262 191.969 73.8603C191.9 75.0743 190.674 76.6987 190.5 77.1092C190.065 78.1223 189.569 78.2795 189.569 78.2795L185.769 79.214L184.43 79.5459L180.212 78.2795C180.212 78.2795 178.29 72.8996 179.064 69.869C179.838 66.8384 181.012 64.7336 181.012 64.7336C181.012 64.7336 184.447 68.1136 188.926 64.4454L191.969 70.4978Z" fill="#F9DDBF"/>
<path d="M190.865 74.3581C190.795 75.5721 190.682 76.7074 190.508 77.1092C190.073 78.1223 189.578 78.2795 189.578 78.2795L185.778 79.2139L184.125 78.7249C184.125 78.7249 189.639 77.8865 189.021 73.1267L190.865 74.3581Z" fill="#F2CCAA"/>
<path d="M180.49 79.1005C180.49 79.1005 178.403 85.6245 178.273 87.8428C178.142 90.0612 182.264 119.397 182.429 120.419C182.586 121.38 183.777 122 183.777 122C183.777 122 184.325 122.323 185.108 122.105C186.195 121.799 186.534 121.424 186.534 121.424C186.534 121.424 188.16 100.498 187.151 93.0306C186.143 85.5546 186.134 79.0917 186.134 79.0917H180.49V79.1005Z" fill="#118547"/>
<path d="M189.335 78.8997C189.335 78.8997 192.517 83.1879 192.813 86.0874C193.109 88.987 193.283 99.1704 193.909 102C194.544 104.83 196.866 110.271 196.866 119.083C196.866 119.083 196.622 119.59 195.874 119.86C195.639 119.948 195.318 120.026 195.005 120.105C194.387 120.245 193.761 119.948 193.474 119.38C191.9 116.201 186.9 105.956 186.647 103.834C186.465 102.332 184.882 92.3669 181.438 86.5241C180.612 85.118 181.943 79.5459 181.943 79.5459L189.335 78.8997Z" fill="#01BA57"/>
<path d="M183.273 60.0612C183.273 60.0612 183.204 60.3756 182.421 60.3232C182.421 60.3232 181.769 60.2796 181.786 59.9389C181.786 59.9389 182.421 59.6944 183.273 60.0612Z" fill="white"/>
<path d="M180.16 78.0873C180.16 78.0873 180.995 78.7511 182.664 78.786C184.656 78.8297 189.578 78.2795 189.578 78.2795C189.578 78.2795 189.795 78.8908 189.787 79.5459C189.787 79.5459 183.769 81.0742 180.282 79.7642C180.282 79.7642 179.838 78.917 180.16 78.0873Z" fill="#233862"/>
<path d="M182.186 80.5066C181.682 80.5066 181.282 80.0437 181.282 79.476C181.282 78.9083 181.69 78.4454 182.186 78.4454C182.682 78.4454 183.091 78.9083 183.091 79.476C183.091 80.0437 182.682 80.5066 182.186 80.5066ZM182.186 78.7511C181.856 78.7511 181.577 79.0743 181.577 79.476C181.577 79.8777 181.847 80.2009 182.186 80.2009C182.525 80.2009 182.795 79.8777 182.795 79.476C182.795 79.0743 182.517 78.7511 182.186 78.7511Z" fill="white"/>
<path d="M188.718 70.797L182.553 76.1882L189.903 84.6656L196.068 79.2743L188.718 70.797Z" fill="#B5453C"/>
<path d="M188.186 79.2926C188.186 79.2926 185.925 79.5546 185.934 80.0961C185.943 80.6376 186.499 81.738 186.778 81.7904C187.056 81.8428 188.613 80.297 188.613 80.297L188.186 79.2926Z" fill="#FFB27D"/>
<path d="M188.943 64.4542C188.943 64.4542 191.961 64.6638 193.118 67.4847C194.274 70.3057 196.466 75.048 196.466 75.8428C196.466 76.6376 195.24 79.1004 188.665 80.5066C188.665 80.5066 187.987 79.7904 188.022 79.2227C188.022 79.2227 192.126 75.6769 192.118 75.2664C192.1 74.4804 191.448 73.4498 187.839 69.8253C186.856 68.8384 188.943 64.4542 188.943 64.4542Z" fill="#F9DDBF"/>
<path d="M213.015 47.5557L214.815 53.8701C214.841 53.9661 214.85 54.0535 214.841 54.1495C214.815 54.4814 214.589 54.7784 214.259 54.8744L203.345 58.0098C203.006 58.1059 202.658 57.9749 202.466 57.7041C202.414 57.6342 202.371 57.5469 202.345 57.4596L200.544 51.1539C200.423 50.726 200.666 50.2718 201.101 50.1495L212.015 47.0142C212.441 46.8744 212.893 47.1277 213.015 47.5557Z" fill="#CDE0FB"/>
<path d="M214.841 54.1485C214.815 54.4804 214.589 54.7773 214.258 54.8734L203.344 58.0088C203.005 58.1048 202.657 57.9738 202.466 57.7031L208.023 52.6201L214.841 54.1485Z" fill="#BED7FB"/>
<path d="M213.015 47.5546L208.128 53.6507L200.64 51.4673L200.544 51.1442C200.423 50.7162 200.666 50.2621 201.101 50.1398L212.015 47.0044C212.441 46.8734 212.893 47.1267 213.015 47.5546Z" fill="#DFEBFD"/>
<path d="M126.452 125.511H126.417C126.235 125.511 126.087 125.363 126.087 125.179L126.583 103.625L128.044 103.45L126.8 125.179C126.791 125.363 126.635 125.511 126.452 125.511Z" fill="#B0D4FF"/>
<path d="M117.947 125.511H117.912C117.729 125.511 117.582 125.363 117.582 125.179L118.077 103.625L119.538 103.45L118.295 125.179C118.295 125.363 118.138 125.511 117.947 125.511Z" fill="#95C0F4"/>
<path d="M141.409 125.511H141.444C141.627 125.511 141.775 125.363 141.775 125.179L141.279 103.625L139.818 103.45L141.061 125.179C141.07 125.363 141.218 125.511 141.409 125.511Z" fill="#B0D4FF"/>
<path d="M116.982 102.28V87.511C116.982 84.9083 119.078 82.8035 121.669 82.8035H132.27C134.861 82.8035 136.957 84.9083 136.957 87.511V102.847L116.982 102.28Z" fill="#B0D4FF"/>
<path d="M138.853 104.611H118.391C117.617 104.611 116.982 103.983 116.982 103.197V102.28H138.853V104.611Z" fill="#95C0F4"/>
<path d="M141.305 104.611H125.826C125.252 104.611 124.782 104.14 124.782 103.563V103.319C124.782 102.742 125.252 102.271 125.826 102.271H141.305C141.879 102.271 142.349 102.742 142.349 103.319V103.563C142.349 104.14 141.879 104.611 141.305 104.611Z" fill="#B0D4FF"/>
<path d="M140.706 98.5939C139.184 101.249 137.279 102.271 137.279 102.271H129.34C129.331 102.28 141.862 96.5764 140.706 98.5939Z" fill="#233862"/>
<path d="M134.601 119.127C134.392 119.362 134.366 119.633 134.471 119.913C134.662 120.437 135.288 121.022 136.01 121.616C136.105 121.694 136.184 121.755 136.253 121.825C136.271 121.843 136.288 121.86 136.305 121.878C136.323 121.886 136.332 121.904 136.349 121.913C137.027 122.541 136.775 122.681 137.993 123.956C139.384 125.406 140.341 125.432 140.61 125.301C140.836 125.188 140.375 124.419 139.854 123.555C139.827 123.511 139.801 123.467 139.775 123.432C139.706 123.319 139.636 123.196 139.567 123.083C138.958 122.044 139.114 121.555 139.262 120C139.375 118.742 141.21 112.961 141.21 112.961L138.549 112.498C138.549 112.498 137.749 117.1 136.862 117.808C136.392 118.183 135.862 118.192 135.41 118.472C135.375 118.489 135.349 118.515 135.314 118.533C135.071 118.716 134.81 118.891 134.601 119.127Z" fill="#FFB27D"/>
<path d="M134.601 119.127C134.392 119.363 134.366 119.633 134.471 119.913C134.705 120.437 135.314 121.022 136.018 121.607C136.114 121.686 136.192 121.756 136.262 121.817C136.279 121.834 136.297 121.852 136.314 121.869C136.331 121.878 136.34 121.895 136.358 121.904C137.036 122.533 136.784 122.673 138.001 123.948C139.393 125.397 140.349 125.424 140.619 125.293C140.845 125.179 140.384 124.411 139.862 123.546C139.593 123.45 138.332 122.935 137.384 121.712C136.549 120.638 135.992 119.266 135.418 118.463C135.384 118.48 135.358 118.507 135.323 118.524C135.071 118.716 134.81 118.891 134.601 119.127Z" fill="#233862"/>
<path d="M156.063 117.459C156.228 118.28 157.402 118.149 158.706 117.825C160.011 117.502 159.707 117.887 161.568 117.677C163.429 117.467 163.994 116.769 164.055 116.498C164.107 116.253 163.185 116.166 162.202 116.052C162.081 116.035 161.95 116.026 161.828 116.009C160.715 115.869 159.898 115.144 158.889 114.55C157.933 113.991 156.498 111.703 156.498 111.703L153.941 111.904C153.941 111.904 155.28 113.948 155.802 114.838C156.106 115.363 156.089 116.052 156.054 116.585C156.028 116.873 156.011 117.17 156.063 117.459Z" fill="#FFB27D"/>
<path d="M158.707 117.825C160.011 117.502 159.707 117.886 161.568 117.677C163.429 117.467 163.994 116.769 164.055 116.498C164.107 116.253 163.185 116.166 162.203 116.052L162.194 116.07C162.194 116.07 161.081 116.865 159.524 116.9C158.263 116.935 156.924 116.568 156.055 116.585C156.037 116.873 156.02 117.17 156.072 117.459C156.228 118.288 157.402 118.148 158.707 117.825Z" fill="#233862"/>
<path d="M146.28 101.057L143.888 107.511L140.775 115.939C140.775 115.939 139.931 116.018 139.123 115.79C138.375 115.572 137.522 115.004 137.522 115.004C137.522 115.004 138.392 105.956 140.001 100.769C140.418 99.4323 140.879 98.3581 141.392 97.7467C143.888 94.7773 146.28 101.057 146.28 101.057Z" fill="#233862"/>
<path d="M143.853 90.8123C142.288 90.3057 137.827 90.952 133.348 91.8341L132.409 90.2795L122.73 89.5197C122.73 89.5197 119.538 96.6289 121.286 101.162C121.547 101.825 122.051 102.253 122.921 102.271H123.06C123.06 102.271 128.817 102.271 130.696 102.271C135.513 102.271 140.879 98.952 141.575 98.8123C142.714 98.5852 143.166 100.873 144.305 103.266C145.444 105.668 155.002 113.895 155.002 113.895C155.002 113.895 156.471 113.913 157.08 113.686C157.732 113.441 157.967 113.118 157.967 113.118C157.967 113.118 147.375 91.9564 143.853 90.8123Z" fill="#2B478B"/>
<path d="M132.027 61.9826C130.783 61.3275 128.896 61.2402 128.592 61.1965C124.922 60.6987 122.713 66.0524 122.583 67.6769C122.339 70.6638 120.765 71.1179 118.556 72.9957C114.112 76.7511 115.417 81.1092 117.843 82.7336C119.304 83.7031 121.869 82.7336 121.869 82.7336C121.904 82.7598 128.896 78.8122 132.348 76.8996C137.514 76.1572 135.183 63.642 132.027 61.9826Z" fill="#233862"/>
<path d="M129.462 75.2752C129.479 75.2839 127.766 75.8691 126.618 75.3625C125.54 74.8822 124.722 73.1093 124.74 73.1093C125.227 73.0831 125.766 72.6551 126.183 69.8342L126.392 69.9128L129.896 71.1791C129.896 71.1791 129.644 72.3058 129.479 73.38C129.34 74.2796 129.27 75.1442 129.462 75.2752Z" fill="#FFB27D"/>
<path d="M129.896 71.1703C129.896 71.1703 129.644 72.2969 129.478 73.3711C127.461 73.0043 126.678 70.9956 126.391 69.8952L129.896 71.1703Z" fill="#ED975D"/>
<path d="M130.418 72.2969C130.418 72.2969 125.617 71.6506 126.07 68.655C126.513 65.6594 126.2 63.5633 129.279 63.8515C132.357 64.1397 132.783 65.3712 132.879 66.4017C132.975 67.441 131.679 72.3843 130.418 72.2969Z" fill="#FFB27D"/>
<path d="M132.705 64.7599C132.705 64.7599 129.636 67.4149 127.548 67.6333C125.461 67.8516 124.67 67.1704 124.67 67.1704C124.67 67.1704 125.905 66.1398 126.644 64.4891C126.861 64 127.322 63.6681 127.853 63.6157C129.34 63.4935 132.166 63.4323 132.705 64.7599Z" fill="#233862"/>
<path d="M130.783 64.5241C130.783 64.5241 131.809 65.5197 132.131 66.2621C132.444 66.9782 132.539 68.6813 132.287 69.3625C132.287 69.3625 133.887 66.2359 132.983 64.7162C132.026 63.1092 130.783 64.5241 130.783 64.5241Z" fill="#233862"/>
<path d="M133.496 82.3669C133.348 92.1136 133.452 90.0787 132.391 91.0044C132.139 91.2315 131.417 91.3625 130.47 91.4237C127.495 91.6245 122.26 91.1267 122.06 90.5765C121.373 88.6638 121.86 88.0699 121.286 85.1442C121.225 84.8298 121.156 84.4979 121.069 84.1311C120.591 82.1223 120.13 81.4411 121.817 78.2097C123.356 75.2839 124.947 72.9083 125.095 72.9957C129.148 75.4149 129.478 73.38 129.478 73.38C129.478 73.38 133.565 77.6158 133.496 82.3669Z" fill="white"/>
<path d="M143.888 107.511L140.775 115.939C140.775 115.939 139.931 116.018 139.123 115.79C138.375 115.572 137.522 115.004 137.522 115.004C137.522 115.004 138.392 105.956 140.001 100.769L143.888 107.511Z" fill="#2B478B"/>
<path d="M129.478 73.3799C129.478 73.3799 133.652 74.0874 134.139 75.8952C134.626 77.7031 137.514 88.3057 137.514 88.3057C137.514 88.3057 135.392 88.69 134.409 87.7031C133.426 86.7162 131 78.5765 131 78.5765L129.478 73.3799Z" fill="white"/>
<path d="M130.479 91.4237C127.505 91.6246 122.27 91.1267 122.07 90.5765C121.383 88.6639 121.87 88.07 121.296 85.1442L122.731 81.0831C122.731 81.0831 122.496 85.6071 123.818 86.7949C125.148 87.9826 129.253 89.0918 129.896 90.0874C130.209 90.5678 130.418 91.0394 130.479 91.4237Z" fill="#EBF3FF"/>
<path d="M127.061 89.5284C127.061 89.5284 130.001 88.8734 130.47 89.1354C130.94 89.3974 132.105 90.3494 132.244 90.6813C132.392 91.0132 131.192 90.428 130.801 90.3232C130.548 90.2534 129.879 90.4892 129.557 90.594C128.174 91.0569 127.322 90.8211 127.322 90.8211L127.061 89.5284Z" fill="#FFB27D"/>
<path d="M125.096 72.9957C125.096 72.9957 121.156 73.2402 119.791 75.1529C117.869 77.8428 114.06 89.3188 116.243 90.8471C118.704 92.5676 127.444 91.3013 127.444 91.3013C127.444 91.3013 127.73 89.9388 127.33 89.2751C126.922 88.6113 120.347 87.5458 120.052 87.2402C119.747 86.9345 123.843 81.3013 123.843 80.3843C123.835 79.4673 125.096 72.9957 125.096 72.9957Z" fill="white"/>
<path d="M130.618 89.9476C130.618 89.9476 131.235 90.7424 131.435 90.8385C131.635 90.9345 131.766 90.9083 131.766 90.9083L131.348 90.1572L130.618 89.9476Z" fill="#FFB27D"/>
<path d="M130.478 89.1267L132.27 90.0001C132.27 90.0001 132.192 90.1223 131.974 90.1136C131.757 90.1049 131.2 89.8953 131.2 89.8953L130.478 89.1267Z" fill="#FFB27D"/>
<path d="M131.436 92.0612H145.585L149.846 81.4323H135.714L131.436 92.0612Z" fill="#01BA57"/>
<path d="M145.75 91.6507H127.061V92.0612H145.584L145.75 91.6507Z" fill="#118547"/>
<path d="M142.019 86.7512C142.123 86.3756 141.915 86.0787 141.541 86.0787C141.167 86.0787 140.784 86.3844 140.671 86.7512C140.567 87.1268 140.775 87.4237 141.149 87.4237C141.523 87.4237 141.906 87.118 142.019 86.7512Z" fill="white"/>
<path d="M65.9783 104.105H65.9349C65.4131 104.105 64.9783 103.677 64.9783 103.144V82.952C64.9783 82.428 65.4044 81.9913 65.9349 81.9913H65.9783C66.5001 81.9913 66.9349 82.4192 66.9349 82.952V103.144C66.9349 103.677 66.5088 104.105 65.9783 104.105Z" fill="#B0D4FF"/>
<path d="M65.9524 125.511H65.9176C65.735 125.511 65.5872 125.363 65.5872 125.179L66.0829 103.625L67.5439 103.45L66.3003 125.179C66.2916 125.363 66.135 125.511 65.9524 125.511Z" fill="#95C0F4"/>
<path d="M89.4065 125.511H89.4412C89.6239 125.511 89.7717 125.363 89.7717 125.179L89.276 103.625L87.8149 103.45L89.0586 125.179C89.0673 125.363 89.2238 125.511 89.4065 125.511Z" fill="#B0D4FF"/>
<path d="M89.3017 102.28H86.8494H73.8224H64.9783V103.197C64.9783 103.974 65.6044 104.611 66.3871 104.611H73.8224H86.8494H89.3017C89.8757 104.611 90.3453 104.14 90.3453 103.563V103.319C90.3453 102.742 89.8757 102.28 89.3017 102.28Z" fill="#B0D4FF"/>
<path d="M101.476 120.9C101.476 120.9 101.12 125.371 101.911 125.432C102.016 125.441 105.955 125.441 105.955 125.441L110.981 125.415C110.981 125.415 110.947 124.201 109.477 123.939C108.007 123.686 105.103 122.437 104.216 120.489C103.285 118.437 101.476 120.9 101.476 120.9Z" fill="#163560"/>
<path d="M71.2485 96.4105C71.2485 96.4105 71.4138 100.804 72.1877 102.28H89.9629C89.9629 102.28 94.2327 102.725 94.6241 103.013C95.111 103.38 92.9109 106.996 101.164 121.144L105.207 121.039C105.207 121.039 100.981 98.0961 100.233 97.5197C99.1113 96.6551 85.9626 93.6245 83.7103 93.5634C81.4579 93.4935 71.2485 96.4105 71.2485 96.4105Z" fill="#1C468A"/>
<path d="M81.2143 70.3843C82.5883 71.2402 82.6665 72.9345 82.6665 72.9345C79.3185 73.7992 74.4573 70.0699 74.4573 70.0699C74.4573 70.0699 76.6139 68.6201 77.4053 65.4236C77.4488 65.2664 77.4836 65.1005 77.5184 64.9258C77.6227 64.3843 77.6836 63.8079 77.701 63.1791L79.2402 64.559L81.7969 66.8559C81.7969 66.8559 81.736 67.8079 81.423 69.4498C81.3534 69.7468 81.2838 70.0524 81.2143 70.3843Z" fill="#FFB27D"/>
<path d="M83.101 88.0175C82.9879 88.7686 83.214 89.3713 83.3271 89.9302C83.3706 90.1398 83.3967 90.3494 83.3793 90.559C83.1967 92.6289 83.9358 92.8997 83.701 93.5634C83.701 93.5634 82.9184 94.0263 81.4748 94.5765C80.8487 94.8123 80.1008 95.0656 79.2312 95.3101C79.1877 95.3189 79.1442 95.3363 79.092 95.3451C75.7526 96.2534 72.2307 96.4455 71.2393 96.4193C69.3435 96.3669 68.9609 91.5372 69.6653 85.4586C70.761 75.9826 72.2394 71.3887 76.1527 68.0699C76.3962 67.8603 76.2309 68.5765 77.5441 69.2053C78.7616 69.7905 80.2225 69.9302 81.353 69.6769L82.2488 70.594C84.0228 73.4062 84.2054 76.7512 84.0576 79.5372C83.875 83.0481 83.4315 85.8603 83.101 88.0175Z" fill="#B0D4FF"/>
<path d="M81.7792 66.8647C81.7792 66.8647 81.9183 66.725 81.5966 68.3581C78.7703 67.5372 77.8485 66.0874 77.4658 65.1267C77.3615 64.856 78.5181 64.7075 79.2225 64.559L81.7792 66.8647Z" fill="#ED975D"/>
<path d="M83.1012 66.8734C83.1012 66.8734 77.6399 67.6594 77.2051 64.2358C76.7703 60.8123 75.7702 58.6114 79.2401 57.9651C82.7099 57.3188 83.5534 58.5415 83.9708 59.642C84.397 60.7511 84.51 66.5852 83.1012 66.8734Z" fill="#FFB27D"/>
<path d="M103.653 92.2477L104.068 92.3781L107.489 81.392L107.074 81.2616L103.653 92.2477Z" fill="#1C468A"/>
<path d="M92.0434 92.2531L104.069 92.3785L104.077 91.6536L92.0509 91.5282L92.0434 92.2531Z" fill="#1C468A"/>
<path d="M75.4662 58.035C75.4227 57.9826 75.3184 57.9389 75.0923 57.9302C75.0923 57.9302 75.2749 57.8166 75.5184 57.8166C75.5706 57.5022 75.7445 56.9433 76.2837 56.8123C76.2837 56.8123 75.988 56.9695 75.9532 57.3014C76.588 56.6551 77.936 56.1922 81.6667 56.5241C86.58 56.952 84.9365 60.1049 84.2929 60.4717C83.6494 60.8472 82.058 59.7992 80.8753 59.8865C79.6839 59.9739 79.4491 61.6944 79.0491 61.9215C78.6491 62.1573 78.8056 61.7381 78.2664 61.4848C77.7273 61.2315 77.6664 62.1398 77.8142 62.7337C77.9707 63.3276 77.2142 64.0961 77.2142 64.0961C77.2142 64.0961 77.2142 64.0961 76.4663 63.2752C75.7184 62.4542 75.0314 58.9782 75.3793 58.2446C75.3967 58.166 75.4314 58.1049 75.4662 58.035Z" fill="#2C3A64"/>
<path d="M83.7017 93.5546C83.7017 93.5546 82.9191 94.0175 81.4755 94.5677C75.249 90 75.2751 79.1966 75.249 79.0132L83.0756 85.9302L83.3365 89.9302C83.38 90.1398 83.4061 90.3494 83.3887 90.559C83.1974 92.6289 83.9365 92.8909 83.7017 93.5546Z" fill="#91B8EF"/>
<path d="M94.9805 88.4716C94.9805 88.4716 95.4849 88.5502 96.0066 88.3057C96.5371 88.0524 98.3633 87.2664 98.7025 87.3799C99.0416 87.4847 100.163 88.1223 100.424 88.2446C100.685 88.3668 101.155 88.9869 101.155 88.9869C100.964 89.1791 100.285 88.7337 99.9808 88.7424C99.6765 88.7511 97.4328 89.9826 96.7719 90.0088C96.1023 90.035 95.0674 89.8953 95.0674 89.8953L94.9805 88.4716Z" fill="#FFB27D"/>
<path d="M99.0505 88.5764C99.0592 88.6114 99.868 89.5197 100.494 89.2315L99.8158 88.559L99.0505 88.5764Z" fill="#FFB27D"/>
<path d="M96.0151 88.3058C96.0151 88.3058 96.7456 87.6245 96.9891 87.3014C96.9891 87.3014 97.1369 87.3713 97.1369 87.4935C97.1456 87.7031 96.9456 88.0787 96.9456 88.0787L96.0151 88.3058Z" fill="#FFB27D"/>
<path d="M81.6582 72.1835C77.6493 69.7293 72.9185 74.0175 74.9012 78.2883C77.2057 83.2403 81.0495 89.284 84.1019 89.6421C86.276 89.8953 92.4938 90.6988 95.1288 90.201C95.1288 90.201 96.4071 90.2621 95.7114 88.201C95.7114 88.201 87.2065 85.8167 85.789 83.9739C85.0324 82.987 83.7366 80.9783 81.7452 72.2446C81.7452 72.2097 81.693 72.2009 81.6582 72.1835Z" fill="#B0D4FF"/>
<path d="M189.492 125.511H189.536C189.788 125.511 189.997 125.301 189.988 125.048L189.301 95.2665L187.283 95.0306L189.005 125.048C189.022 125.31 189.231 125.511 189.492 125.511Z" fill="#739AF0"/>
<path d="M90.4068 125.511H90.3633C90.1112 125.511 89.9025 125.301 89.9112 125.048L90.5982 95.2665L92.6157 95.0306L90.8938 125.048C90.8764 125.31 90.659 125.511 90.4068 125.511Z" fill="#739AF0"/>
<path d="M191.249 95.8079H88.3891C87.6412 95.8079 87.0325 95.1966 87.0325 94.4455V93.5721C87.0325 92.821 87.6412 92.2097 88.3891 92.2097H191.24C191.988 92.2097 192.596 92.821 192.596 93.5721V94.4455C192.605 95.2053 191.996 95.8079 191.249 95.8079Z" fill="#739AF0"/>
<path d="M174.299 19.6682C174.299 22.166 175.177 24.4542 176.647 26.2359C177.916 27.7817 178.621 29.7118 178.621 31.7118V34.5939C178.621 36.428 180.116 37.9302 181.943 37.9302H187.256C189.082 37.9302 190.578 36.428 190.578 34.5939V31.7031C190.578 29.6944 191.291 27.7642 192.561 26.2184C194.03 24.4193 194.909 22.1136 194.891 19.5983C194.857 13.8953 190.274 9.32758 184.604 9.32758C183.969 9.32758 183.351 9.38871 182.76 9.49351C182.63 9.51971 182.499 9.54592 182.369 9.57212C177.742 10.6114 174.299 14.7337 174.299 19.6682Z" fill="#F9DDBF"/>
<path d="M187.23 37.9302L187.221 38.0175L187.074 39.1442L187.039 39.4411L187.004 39.738L186.856 40.8647L186.821 41.1616L186.787 41.4586L186.769 41.6245C186.691 42.1922 186.047 42.6289 185.273 42.6289H183.526C183.343 42.6289 183.16 42.6027 183.004 42.559C182.856 42.5154 182.717 42.463 182.595 42.3931L182.586 42.3844C182.491 42.3232 182.395 42.2533 182.325 42.1835C182.169 42.0263 182.065 41.8429 182.038 41.6333L181.978 41.1966L181.934 40.9258V40.9171L181.899 40.6463L181.752 39.607L181.717 39.3363V39.3276L181.682 39.0568L181.525 37.9302H187.23Z" fill="#95C0F4"/>
<path d="M186.534 37.9302H186.525H185.551C183.96 38.3931 182.377 38.8472 181.638 39.0568L181.672 39.3275V39.3363L181.707 39.607C182.299 39.4411 183.725 39.0306 187.212 38.0175L187.221 37.9302H186.534Z" fill="#739AF0"/>
<path d="M181.908 40.9171L181.951 41.1966C182.638 41.0044 184.056 40.5939 187.004 39.738L187.039 39.4411L187.073 39.1442C185.212 39.6856 182.951 40.3407 181.864 40.6551L181.908 40.9171Z" fill="#739AF0"/>
<path d="M182.559 42.3843L182.568 42.393C182.69 42.4629 182.829 42.524 182.977 42.559C183.785 42.3232 184.986 41.9738 186.768 41.4585L186.803 41.1616L186.838 40.8646C185.246 41.3275 183.412 41.8603 182.281 42.1834C182.368 42.262 182.464 42.3319 182.559 42.3843Z" fill="#739AF0"/>
<path d="M180.753 24.6723L180.29 24.7511L182.521 37.9781L182.984 37.8994L180.753 24.6723Z" fill="white"/>
<path d="M188.375 24.8694L186.003 37.8851L186.465 37.97L188.837 24.9543L188.375 24.8694Z" fill="white"/>
<path d="M185.821 27.1092C185.761 27.1092 185.691 27.1005 185.621 27.083C185.5 27.0568 185.421 26.9695 185.395 26.8297C185.343 26.5415 185.569 26 185.891 25.5459C185.726 25.2489 185.5 25.0131 185.265 24.9345C184.917 24.8297 184.387 25.1529 184.021 25.5633C184.091 25.6594 184.152 25.7555 184.204 25.8603C184.395 26.2184 184.526 26.6812 184.343 26.8909C184.273 26.9695 184.134 27.0393 183.856 26.9345C183.508 26.8035 183.378 26.5066 183.508 26.1223C183.569 25.9302 183.691 25.738 183.839 25.5546C183.552 25.1791 183.169 24.8996 182.795 24.9433C182.595 24.9695 182.421 25.0393 182.282 25.1354C182.526 25.5895 182.578 26.1572 182.412 26.4629C182.299 26.6725 182.099 26.7336 181.856 26.6463C181.682 26.5852 181.586 26.3406 181.621 26.0175C181.656 25.6943 181.821 25.3363 182.108 25.0917C182.03 24.9782 181.943 24.8734 181.839 24.7861C181.186 24.2795 180.656 24.821 180.63 24.8472L180.525 24.7511C180.534 24.7424 181.178 24.0961 181.917 24.6812C182.03 24.7686 182.126 24.8821 182.212 25.0044C182.369 24.8996 182.56 24.821 182.786 24.7861C183.213 24.7336 183.63 25.0306 183.943 25.4323C184.343 24.9957 184.917 24.6725 185.317 24.7948C185.569 24.8734 185.804 25.1179 185.987 25.4149C186.152 25.1965 186.343 25.0044 186.526 24.8821C186.821 24.69 187.013 24.7337 187.117 24.8035C187.23 24.8734 187.326 24.9782 187.404 25.0917C187.491 25.0219 187.587 24.9607 187.674 24.9171C188.013 24.7424 188.326 24.7599 188.552 24.952L188.465 25.0568C188.222 24.8472 187.909 24.9607 187.735 25.0393C187.639 25.083 187.552 25.1441 187.474 25.2053C187.7 25.6157 187.743 26.1485 187.613 26.4105C187.535 26.5764 187.387 26.6288 187.213 26.5677C186.908 26.4542 186.83 26.2446 186.821 26.0786C186.804 25.773 187.013 25.4323 187.291 25.1791C187.222 25.0743 187.135 24.9782 187.039 24.9171C186.908 24.8297 186.726 24.9083 186.595 24.9957C186.413 25.1179 186.221 25.3188 186.048 25.5459C186.256 25.9476 186.369 26.4192 186.291 26.7249C186.256 26.8909 186.143 27.1092 185.821 27.1092ZM185.961 25.6856C185.682 26.0961 185.482 26.559 185.534 26.8035C185.552 26.8821 185.587 26.9258 185.656 26.9433C185.934 27.0044 186.1 26.9258 186.161 26.6987C186.221 26.4454 186.134 26.0437 185.961 25.6856ZM183.926 25.6769C183.795 25.8341 183.7 26.0088 183.639 26.166C183.534 26.4804 183.621 26.6987 183.9 26.8035C184.013 26.8472 184.16 26.8821 184.23 26.7948C184.343 26.6725 184.273 26.3144 184.073 25.9214C184.03 25.8428 183.978 25.7642 183.926 25.6769ZM182.16 25.2315C181.917 25.4498 181.778 25.7642 181.743 26.0437C181.717 26.2882 181.778 26.4804 181.891 26.524C182.073 26.5852 182.204 26.5502 182.282 26.4018C182.421 26.1398 182.369 25.6332 182.16 25.2315ZM187.361 25.3188C187.117 25.5546 186.952 25.8603 186.961 26.0874C186.969 26.2533 187.074 26.3756 187.256 26.4454C187.361 26.4804 187.43 26.4542 187.482 26.3581C187.595 26.1485 187.552 25.6856 187.361 25.3188Z" fill="white"/>
<path d="M64.0478 46.2795H62.3259V52.6288H64.0478V46.2795Z" fill="#D6E8FC"/>
<path d="M63.8297 45.6507H62.6122C62.4904 45.6507 62.3948 45.5547 62.3948 45.4324C62.3948 45.3101 62.4904 45.2141 62.6122 45.2141H63.8297C63.9514 45.2141 64.0471 45.3101 64.0471 45.4324C64.0384 45.5547 63.9427 45.6507 63.8297 45.6507Z" fill="#D6E8FC"/>
<path d="M61.082 41.2927H59.3601V52.6202H61.082V41.2927Z" fill="#D6E8FC"/>
<path d="M60.8298 40.821H59.621C59.4992 40.821 59.4036 40.725 59.4036 40.6027C59.4036 40.4804 59.4992 40.3843 59.621 40.3843H60.8298C60.9515 40.3843 61.0472 40.4804 61.0472 40.6027C61.0385 40.725 60.9428 40.821 60.8298 40.821Z" fill="#D6E8FC"/>
<path d="M58.2465 33.4061H56.5247V52.6288H58.2465V33.4061Z" fill="#D6E8FC"/>
<path d="M57.9862 32.8822H56.7775C56.6557 32.8822 56.5601 32.7861 56.5601 32.6638C56.5601 32.5416 56.6557 32.4455 56.7775 32.4455H57.9862C58.108 32.4455 58.2036 32.5416 58.2036 32.6638C58.2036 32.7861 58.108 32.8822 57.9862 32.8822Z" fill="#D6E8FC"/>
<path d="M55.3334 36.8909H53.6116V52.6201H55.3334V36.8909Z" fill="#D6E8FC"/>
<path d="M55.0732 36.4717H53.8644C53.7426 36.4717 53.647 36.3756 53.647 36.2533C53.647 36.131 53.7426 36.035 53.8644 36.035H55.0732C55.1949 36.035 55.2906 36.131 55.2906 36.2533C55.2906 36.3756 55.1949 36.4717 55.0732 36.4717Z" fill="#D6E8FC"/>
<path d="M52.499 28.1572H50.7771V52.6201H52.499V28.1572Z" fill="#D6E8FC"/>
<path d="M52.2377 27.6944H51.0289C50.9072 27.6944 50.8115 27.5983 50.8115 27.476C50.8115 27.3538 50.9072 27.2577 51.0289 27.2577H52.2377C52.3595 27.2577 52.4551 27.3538 52.4551 27.476C52.4551 27.5983 52.3595 27.6944 52.2377 27.6944Z" fill="#D6E8FC"/>
<path d="M49.7333 31.9826H48.0115V52.6201H49.7333V31.9826Z" fill="#D6E8FC"/>
<path d="M49.4721 31.5459H48.2633C48.1416 31.5459 48.0459 31.4498 48.0459 31.3275C48.0459 31.2053 48.1416 31.1092 48.2633 31.1092H49.4721C49.5938 31.1092 49.6895 31.2053 49.6895 31.3275C49.6895 31.4498 49.5938 31.5459 49.4721 31.5459Z" fill="#D6E8FC"/>
<path d="M175.968 92.2184H161.82L157.558 81.5808H171.69L175.968 92.2184Z" fill="#2B478B"/>
<path d="M161.646 91.7991H180.343V92.2184H161.819L161.646 91.7991Z" fill="#2B478B"/>
<path d="M165.385 86.8995C165.281 86.524 165.49 86.2271 165.864 86.2271C166.237 86.2271 166.62 86.5327 166.733 86.8995C166.838 87.2751 166.629 87.572 166.255 87.572C165.881 87.572 165.498 87.2751 165.385 86.8995Z" fill="white"/>
</g>
<defs>
<clipPath id="clip0">
<rect width="247" height="126" fill="white"/>
</clipPath>
</defs>
</svg>
