<svg width="210" height="123" viewBox="0 0 210 123" fill="none" xmlns="http://www.w3.org/2000/svg">
<g clip-path="url(#clip0)">
<path d="M16.594 122.939C16.594 122.939 -9.10021 91.8982 3.45273 59.9376C11.6354 39.103 42.3416 27.6933 59.6773 39.103C67.0578 43.961 90.735 39.2639 103.38 19.1419C127.951 -19.968 213.697 3.78604 198.081 63.8378C190.524 92.902 221.07 93.9518 205.507 123.008L16.594 122.939Z" fill="#EBF3FA"/>
<path d="M35.6191 71.8522C35.6191 71.8522 33.0291 68.8178 35.4587 66.8945C35.4587 66.8945 37.2312 65.814 38.6829 65.906C38.6829 65.906 36.6276 69.3542 37.2923 69.699C37.957 70.0438 39.3017 65.6914 39.3017 65.6914C39.3017 65.6914 43.3434 65.3006 44.6423 65.929C44.6423 65.929 41.1889 68.7641 41.9147 68.9327C42.6405 69.1013 46.3766 66.3198 46.3766 66.3198C46.3766 66.3198 50.1356 66.9634 49.9369 69.2622C49.7383 71.561 48.4395 72.2736 47.8741 72.2123C47.3011 72.151 43.9699 70.8714 43.9011 71.3464C43.8247 71.8139 45.8341 73.3464 47.2399 73.4153C47.2399 73.4153 44.5888 76.3501 42.8239 75.4996C41.059 74.6567 40.9138 73.3081 39.8136 72.81C38.7134 72.3043 37.7737 72.3043 38.2321 72.8177C38.6829 73.3311 40.677 73.8291 41.3035 74.9479C41.93 76.0589 42.4953 76.8175 40.6693 76.5417C38.8433 76.2658 35.8789 74.9249 35.749 73.3924C35.6191 71.8522 35.6191 71.8522 35.6191 71.8522Z" fill="#C8DBF4"/>
<path d="M48.0877 69.3158C48.0877 69.3158 37.8727 68.9174 35.6112 71.8521C35.6112 71.8521 35.1146 73.354 33.5789 74.7179L33.342 75.3692C33.342 75.3692 35.1146 73.4996 35.7487 73.3847C35.7487 73.3847 34.7555 69.7526 48.0877 69.3158Z" fill="#C8DBF4"/>
<path d="M33.579 74.7103C33.579 74.7103 31.3862 76.3348 31.2334 79.2465L31.6307 79.2849C31.6307 79.2849 32.3336 76.2811 33.5942 75.1011C34.8625 73.9287 33.579 74.7103 33.579 74.7103Z" fill="#C8DBF4"/>
<path d="M26.5575 68.0363C26.5575 68.0363 30.6833 65.7221 28.7579 62.5805C28.7579 62.5805 27.2223 60.6495 25.572 60.1514C25.572 60.1514 26.4506 64.8409 25.572 64.9482C24.6933 65.0555 24.9684 59.6534 24.9684 59.6534C24.9684 59.6534 20.6287 57.5615 18.9249 57.7224C18.9249 57.7224 21.6219 62.297 20.7357 62.1897C19.857 62.0824 16.8315 57.4465 16.8315 57.4465C16.8315 57.4465 12.3772 56.619 11.6667 59.2626C10.9485 61.9062 12.1098 63.2318 12.7669 63.4004C13.4239 63.569 17.6566 63.5077 17.5497 64.0594C17.4427 64.6111 14.5853 65.4923 12.9885 64.9942C12.9885 64.9942 14.7457 69.3466 17.0531 69.132C19.3604 68.9098 20.0786 67.4769 21.5073 67.3696C22.9361 67.2623 23.9828 67.6455 23.2646 68.0286C22.5464 68.4117 20.1321 68.1589 18.9784 69.1397C17.8247 70.1205 16.8926 70.7335 19.0319 71.1703C21.1788 71.6147 25.0219 71.3388 25.7935 69.6837C26.5575 68.0363 26.5575 68.0363 26.5575 68.0363Z" fill="#C8DBF4"/>
<path d="M13.6912 60.0978C13.6912 60.0978 25.2356 63.8448 26.5497 68.0362C26.5497 68.0362 26.4962 69.9136 27.6499 72.0591V72.8866C27.6499 72.8866 26.4427 70.0745 25.778 69.6913C25.7857 69.6913 28.3681 66.0516 13.6912 60.0978Z" fill="#C8DBF4"/>
<path d="M27.6575 72.0591C27.6575 72.0591 29.4376 74.7717 28.4215 78.0666L27.9631 77.944C27.9631 77.944 28.4062 74.3119 27.4741 72.4805C26.542 70.6568 27.6575 72.0591 27.6575 72.0591Z" fill="#C8DBF4"/>
<path d="M33.1126 64.8409C33.1126 64.8409 27.6804 61.7912 30.217 57.6457C30.217 57.6457 32.2493 55.1018 34.4191 54.4504C34.4191 54.4504 33.2578 60.6265 34.4191 60.7721C35.5804 60.9177 35.2137 53.7991 35.2137 53.7991C35.2137 53.7991 40.9363 51.0406 43.1825 51.2551C43.1825 51.2551 39.6298 57.2856 40.7911 57.14C41.9524 56.9944 45.933 50.8873 45.933 50.8873C45.933 50.8873 51.8007 49.7992 52.7405 53.2857C53.6802 56.7722 52.1598 58.5193 51.2888 58.7338C50.4178 58.9484 44.8404 58.8794 44.9856 59.6074C45.1308 60.3353 48.8974 61.5 50.9985 60.841C50.9985 60.841 48.6835 66.5803 45.635 66.2892C42.5942 65.998 41.6468 64.1053 39.7673 63.9674C37.8802 63.8218 36.5049 64.3275 37.4523 64.8409C38.3921 65.3467 41.5857 65.0095 43.1061 66.3045C44.6265 67.5995 45.8566 68.404 43.0373 68.9787C40.2104 69.5611 35.1373 69.1933 34.1288 67.0171C33.1126 64.8409 33.1126 64.8409 33.1126 64.8409Z" fill="#D4E4F8"/>
<path d="M50.0665 54.3815C50.0665 54.3815 34.8471 59.3238 33.1128 64.8486C33.1128 64.8486 33.1815 67.3159 31.6611 70.1511V71.2392C31.6611 71.2392 33.2579 67.5305 34.1213 67.0248C34.1289 67.0248 30.7214 62.228 50.0665 54.3815Z" fill="#D4E4F8"/>
<path d="M31.6609 70.1511C31.6609 70.1511 29.3154 73.7219 30.6524 78.0742L31.256 77.9133C31.256 77.9133 30.6677 73.1242 31.8978 70.7105C33.1279 68.2967 31.6609 70.1511 31.6609 70.1511Z" fill="#D4E4F8"/>
<path d="M32.9292 87.5069C38.8046 87.5069 43.5721 82.7255 43.5721 76.8329H22.2864C22.2864 82.7255 27.0539 87.5069 32.9292 87.5069Z" fill="#D4E4F8"/>
<path d="M43.7253 88.0509H22.1416C22.1416 87.323 22.7299 86.733 23.4557 86.733H42.4112C43.137 86.733 43.7253 87.323 43.7253 88.0509Z" fill="#D4E4F8"/>
<path d="M43.817 76.8329H21.9353V77.1624H43.817V76.8329Z" fill="#9FC1F4"/>
<path d="M87.8556 122.717H87.9091C88.337 122.709 88.6731 122.356 88.6273 121.95L85.7546 93.2079L83.2485 93.4301L87.3667 122.326C87.4125 122.556 87.6188 122.724 87.8556 122.717Z" fill="#8CB4F4"/>
<path d="M60.2283 122.717H60.1748C59.7469 122.709 59.4107 122.356 59.4566 121.95L62.3293 93.2079L64.8353 93.4301L60.7172 122.326C60.6714 122.556 60.4727 122.724 60.2283 122.717Z" fill="#8CB4F4"/>
<path d="M108.102 122.717H108.155C108.583 122.709 108.919 122.356 108.874 121.95L106.001 93.2079L103.495 93.4301L107.613 122.326C107.651 122.556 107.857 122.724 108.102 122.717Z" fill="#8CB4F4"/>
<path d="M61.0839 89.0317L55.9879 63.8065C55.3308 60.389 58.1577 57.2703 61.8174 57.3546L71.6428 57.5768C75.035 57.6534 77.9765 59.9292 78.9163 63.1935L86.3655 89.0317H61.0839Z" fill="#8CB4F4"/>
<path d="M64.1628 89.0317L59.0667 63.8065C58.4097 60.389 61.2366 57.2703 64.8962 57.3546L74.7216 57.5768C78.1139 57.6534 81.0554 59.9292 81.9951 63.1935L89.4444 89.0317H64.1628Z" fill="#8CB4F4"/>
<path d="M62.5048 93.637H101.371C102.15 93.637 102.792 92.9933 102.792 92.2117V90.457C102.792 89.6754 102.15 89.0317 101.371 89.0317H61.0837V92.2117C61.0837 92.9933 61.7179 93.637 62.5048 93.637Z" fill="#8CB4F4"/>
<path d="M80.7421 93.637H105.512C106.138 93.637 106.658 93.1236 106.658 92.4876V90.1811C106.658 89.5528 106.146 89.0317 105.512 89.0317H80.7344C80.1079 89.0317 79.5884 89.5451 79.5884 90.1811V92.4876C79.596 93.1159 80.1079 93.637 80.7421 93.637Z" fill="#8CB4F4"/>
<path d="M49.486 88.7022V89.5605C49.486 89.8593 49.3866 90.1045 49.272 90.1045H17.9546C17.8324 90.1045 17.7407 89.8593 17.7407 89.5605V88.7022C17.7407 88.4034 17.84 88.1582 17.9546 88.1582H49.272C49.3866 88.1582 49.486 88.4034 49.486 88.7022Z" fill="#9ABFE2"/>
<path d="M49.486 88.7022V89.5605C49.486 89.8593 49.3943 90.1045 49.2873 90.1045H24.4259C24.319 90.1045 24.2273 89.8593 24.2273 89.5605V88.7022C24.2273 88.4034 24.319 88.1582 24.4259 88.1582H49.2873C49.3943 88.1582 49.486 88.4034 49.486 88.7022Z" fill="#BAD4F4"/>
<path d="M41.5632 90.1122H19.3301V122.609H41.5632V90.1122Z" fill="#C8DBF4"/>
<path d="M47.7973 90.1122H25.5642V122.609H47.7973V90.1122Z" fill="#DFEBFD"/>
<path d="M46.5978 120.816H26.7561V91.0317H46.5978V120.816ZM26.97 120.602H46.3839V91.2462H26.97V120.602Z" fill="#B7D3F3"/>
<path d="M46.4906 100.886H26.8628V101.1H46.4906V100.886Z" fill="#B7D3F3"/>
<path d="M46.4906 110.931H26.8628V111.146H46.4906V110.931Z" fill="#B7D3F3"/>
<path d="M38.6901 92.9473H35.0457C34.87 92.9473 34.7249 92.8017 34.7249 92.6255C34.7249 92.4492 34.87 92.3036 35.0457 92.3036H38.6901C38.8659 92.3036 39.011 92.4492 39.011 92.6255C39.011 92.8094 38.8659 92.9473 38.6901 92.9473Z" fill="#B7D3F3"/>
<path d="M38.6901 102.771H35.0457C34.87 102.771 34.7249 102.625 34.7249 102.449C34.7249 102.273 34.87 102.127 35.0457 102.127H38.6901C38.8659 102.127 39.011 102.273 39.011 102.449C39.011 102.633 38.8659 102.771 38.6901 102.771Z" fill="#B7D3F3"/>
<path d="M38.6901 113.016H35.0457C34.87 113.016 34.7249 112.87 34.7249 112.694C34.7249 112.518 34.87 112.372 35.0457 112.372H38.6901C38.8659 112.372 39.011 112.518 39.011 112.694C39.011 112.87 38.8659 113.016 38.6901 113.016Z" fill="#B7D3F3"/>
<path d="M136.76 31.6849H122.672C122.022 31.6849 121.495 31.1562 121.495 30.5049V16.8578C121.495 16.2065 122.022 15.6777 122.672 15.6777H136.76C137.41 15.6777 137.937 16.2065 137.937 16.8578V30.4972C137.937 31.1485 137.41 31.6849 136.76 31.6849Z" fill="#C0D8FB"/>
<path d="M136.149 30.9876H123.275C122.687 30.9876 122.198 30.5048 122.198 29.9072V17.4554C122.198 16.8654 122.679 16.375 123.275 16.375H136.149C136.737 16.375 137.226 16.8577 137.226 17.4554V29.9148C137.226 30.5048 136.737 30.9876 136.149 30.9876Z" fill="#DFEBFD"/>
<path d="M129.716 18.1834C129.906 18.1834 130.06 18.029 130.06 17.8386C130.06 17.6482 129.906 17.4938 129.716 17.4938C129.526 17.4938 129.373 17.6482 129.373 17.8386C129.373 18.029 129.526 18.1834 129.716 18.1834Z" fill="#B7D3F3"/>
<path d="M132.123 18.3213C132.215 18.1527 132.421 18.0991 132.589 18.1911C132.757 18.283 132.811 18.4899 132.719 18.6585C132.627 18.827 132.421 18.8807 132.253 18.7887C132.093 18.6891 132.031 18.4822 132.123 18.3213Z" fill="#B7D3F3"/>
<path d="M134.476 20.191C134.636 20.0914 134.843 20.1374 134.95 20.2906C135.049 20.4515 135.003 20.6584 134.85 20.7657C134.69 20.8653 134.484 20.8193 134.377 20.6661C134.27 20.5052 134.316 20.2983 134.476 20.191Z" fill="#B7D3F3"/>
<path d="M135.646 23.0952C135.837 23.0952 135.989 23.2484 135.989 23.44C135.989 23.6315 135.837 23.7848 135.646 23.7848C135.455 23.7848 135.302 23.6315 135.302 23.44C135.302 23.2484 135.455 23.0952 135.646 23.0952Z" fill="#B7D3F3"/>
<path d="M135.049 26.4667C135.179 26.5969 135.179 26.8191 135.049 26.9494C134.92 27.0797 134.698 27.0797 134.568 26.9494C134.438 26.8191 134.438 26.5969 134.568 26.4667C134.698 26.3364 134.912 26.3364 135.049 26.4667Z" fill="#B7D3F3"/>
<path d="M132.91 28.6199C133.04 28.7501 133.04 28.9723 132.91 29.1026C132.78 29.2329 132.559 29.2329 132.429 29.1026C132.299 28.9723 132.299 28.7501 132.429 28.6199C132.559 28.4819 132.773 28.4819 132.91 28.6199Z" fill="#B7D3F3"/>
<path d="M129.373 29.7309C129.373 29.5394 129.525 29.3861 129.716 29.3861C129.907 29.3861 130.06 29.5394 130.06 29.7309C130.06 29.9225 129.907 30.0757 129.716 30.0757C129.525 30.0681 129.373 29.9148 129.373 29.7309Z" fill="#B7D3F3"/>
<path d="M127.294 18.3213C127.202 18.1527 126.996 18.0991 126.828 18.1911C126.66 18.283 126.607 18.4899 126.698 18.6585C126.79 18.827 126.996 18.8807 127.164 18.7887C127.325 18.6891 127.386 18.4822 127.294 18.3213Z" fill="#B7D3F3"/>
<path d="M124.941 20.1909C124.781 20.0913 124.575 20.1373 124.468 20.2906C124.368 20.4515 124.414 20.6584 124.567 20.7656C124.727 20.8653 124.934 20.8193 125.041 20.666C125.148 20.5051 125.102 20.2982 124.941 20.1909Z" fill="#B7D3F3"/>
<path d="M123.772 23.0951C123.581 23.0951 123.428 23.2483 123.428 23.4399C123.428 23.6315 123.581 23.7847 123.772 23.7847C123.963 23.7847 124.116 23.6315 124.116 23.4399C124.116 23.2483 123.963 23.0951 123.772 23.0951Z" fill="#B7D3F3"/>
<path d="M124.368 26.4667C124.238 26.5969 124.238 26.8191 124.368 26.9494C124.498 27.0797 124.719 27.0797 124.849 26.9494C124.979 26.8191 124.979 26.5969 124.849 26.4667C124.719 26.3364 124.505 26.3364 124.368 26.4667Z" fill="#B7D3F3"/>
<path d="M126.752 29.2022C126.941 29.2022 127.095 29.0478 127.095 28.8574C127.095 28.667 126.941 28.5126 126.752 28.5126C126.562 28.5126 126.408 28.667 126.408 28.8574C126.408 29.0478 126.562 29.2022 126.752 29.2022Z" fill="#B7D3F3"/>
<path d="M129.624 23.4399C129.624 23.2483 129.777 23.0951 129.968 23.0951C130.159 23.0951 130.312 23.2483 130.312 23.4399C130.312 23.6315 130.159 23.7847 129.968 23.7847C129.777 23.7847 129.624 23.6315 129.624 23.4399Z" fill="#B7D3F3"/>
<path d="M130.006 19.1719H129.915V23.44H130.006V19.1719Z" fill="#B7D3F3"/>
<path d="M132.091 21.5437L129.837 23.3181L130.012 23.5411L132.265 21.7668L132.091 21.5437Z" fill="#B7D3F3"/>
<path d="M94.9377 83.7522C92.8366 87.4226 90.1931 88.8402 90.1931 88.8402H79.1912C79.1912 88.8402 96.5421 80.9554 94.9377 83.7522Z" fill="#233862"/>
<path d="M108.507 120.211C108.384 121.368 109.997 121.667 111.853 121.782C113.717 121.897 113.144 122.272 115.696 122.762C118.24 123.253 119.272 122.563 119.463 122.218C119.631 121.912 118.447 121.422 117.186 120.862C117.026 120.793 116.865 120.724 116.712 120.648C115.299 120.004 114.512 118.717 113.412 117.514C112.373 116.38 111.41 112.763 111.41 112.763L107.949 111.981C107.949 111.981 108.889 115.23 109.21 116.617C109.401 117.429 109.095 118.341 108.828 119.031C108.698 119.422 108.545 119.805 108.507 120.211Z" fill="#FFB27D"/>
<path d="M111.853 121.782C113.717 121.897 113.144 122.272 115.696 122.763C118.241 123.253 119.272 122.563 119.463 122.218C119.631 121.912 118.447 121.422 117.186 120.862L117.163 120.885C117.163 120.885 115.36 121.475 113.297 120.893C111.616 120.418 109.989 119.383 108.828 119.046C108.683 119.422 108.537 119.805 108.499 120.211C108.385 121.368 109.997 121.667 111.853 121.782Z" fill="#0F2549"/>
<path d="M103.266 79.9976C101.401 78.6873 89.0852 76.3502 82.7973 75.6682L75.8447 69.6147C75.8447 69.6147 69.9311 78.4037 69.8853 85.1238C69.8624 88.2578 71.3064 88.572 71.3064 88.572C71.3064 88.572 93.5853 88.7406 94.5633 88.8402C96.1601 89.0088 98.2688 93.001 98.796 96.633C99.3231 100.273 108.614 115.062 108.614 115.062C108.614 115.062 110.554 115.682 111.448 115.629C112.411 115.575 112.854 115.245 112.854 115.245C112.854 115.245 107.46 82.9553 103.266 79.9976Z" fill="#233862"/>
<path d="M102.746 120.211C102.624 121.368 104.236 121.667 106.093 121.782C107.957 121.897 107.384 122.272 109.936 122.762C112.488 123.253 113.511 122.563 113.702 122.218C113.87 121.912 112.686 121.422 111.426 120.862C111.265 120.793 111.105 120.724 110.952 120.648C109.538 120.004 108.751 118.717 107.651 117.514C106.612 116.38 105.65 112.763 105.65 112.763L102.188 111.981C102.188 111.981 103.128 115.23 103.449 116.617C103.64 117.429 103.335 118.341 103.067 119.031C102.93 119.422 102.784 119.805 102.746 120.211Z" fill="#FFB27D"/>
<path d="M106.092 121.782C107.956 121.897 107.383 122.272 109.935 122.763C112.487 123.253 113.511 122.563 113.702 122.218C113.87 121.912 112.686 121.422 111.425 120.862L111.402 120.885C111.402 120.885 109.599 121.475 107.536 120.893C105.855 120.418 104.228 119.383 103.066 119.046C102.921 119.422 102.776 119.805 102.738 120.211C102.623 121.368 104.228 121.667 106.092 121.782Z" fill="#233862"/>
<path d="M97.4516 79.9976C95.8318 78.8558 90.965 77.9746 85.5939 77.3156C84.1117 77.1317 82.8892 76.0513 82.5225 74.5954L70.0307 69.6147C70.0307 69.6147 64.1172 78.4037 64.0713 85.1238C64.0484 88.2578 65.4924 88.572 65.4924 88.572C65.4924 88.572 87.7714 88.7406 88.7493 88.8402C90.3461 89.0088 92.4548 93.001 92.982 96.633C93.5092 100.273 102.8 115.062 102.8 115.062C102.8 115.062 104.74 115.682 105.634 115.629C106.597 115.575 107.04 115.245 107.04 115.245C107.04 115.245 101.654 82.9553 97.4516 79.9976Z" fill="#2B478B"/>
<path d="M80.7268 33.1101C79.0077 32.2059 76.3947 32.0833 75.9745 32.0297C70.8938 31.3477 67.8377 38.7498 67.6619 40.9873C67.3334 45.1251 65.1483 45.7534 62.0769 48.3434C55.9189 53.5386 57.7296 59.5691 61.0913 61.8065C63.1083 63.1552 66.6687 61.8065 66.6687 61.8065C66.7222 61.8449 76.4024 56.3814 81.1775 53.7455C88.3364 52.7187 85.1046 35.4165 80.7268 33.1101Z" fill="#233862"/>
<path d="M79.6726 51.1938C79.6955 51.2015 77.4187 52.2436 75.7684 51.6995C74.2174 51.1862 72.8575 48.8491 72.8804 48.8491C73.5528 48.7495 74.2327 48.0905 74.4237 44.1519L74.7217 44.2285L79.726 45.4929C79.726 45.4929 79.5274 47.079 79.4433 48.5809C79.3746 49.8452 79.3899 51.0406 79.6726 51.1938Z" fill="#FFB27D"/>
<path d="M79.7258 45.4929C79.7258 45.4929 79.7258 45.8223 79.5425 47.3012C76.7156 46.5886 75.4626 45.6461 74.584 44.5657L79.7258 45.4929Z" fill="#ED975D"/>
<path d="M80.7877 45.6921C80.7877 45.6921 74.1712 46.7725 73.5676 42.627C72.9641 38.4892 71.6958 35.838 75.8979 34.9721C80.0924 34.1062 81.1468 35.5698 81.6892 36.9031C82.2241 38.2364 82.4915 45.3013 80.7877 45.6921Z" fill="#FFB27D"/>
<path d="M80.7954 34.7959C80.7954 34.7959 77.7928 39.5544 75.1111 40.6808C72.4294 41.8072 71.1152 41.2325 71.1152 41.2325C71.1152 41.2325 72.3377 39.3782 72.6509 36.8878C72.7426 36.1522 73.2239 35.5239 73.9039 35.248C75.8293 34.4741 79.55 33.2558 80.7954 34.7959Z" fill="#233862"/>
<path d="M78.1597 35.2556C78.1597 35.2556 79.9169 36.1598 80.6428 37.0104C81.3457 37.8303 82.1479 40.0524 82.0944 41.0485C82.0944 41.0485 82.9654 36.2671 81.1546 34.6273C79.2369 32.8802 78.1597 35.2556 78.1597 35.2556Z" fill="#233862"/>
<path d="M84.9593 61.3085C84.7607 74.7947 84.9058 71.9749 83.4313 73.2545C83.0798 73.561 82.0789 73.7449 80.7725 73.8292C76.6467 74.1051 69.4038 73.4231 69.1287 72.6568C68.1813 70.0132 68.846 69.1933 68.0591 65.1398C67.9751 64.7107 67.8757 64.2433 67.7535 63.7376C67.0888 60.956 66.447 60.0135 68.7926 55.5462C70.9242 51.5004 73.4226 48.2131 73.6212 48.3357C79.2368 51.6766 79.4278 48.8798 79.4278 48.8798C79.4278 48.8798 85.0586 54.734 84.9593 61.3085Z" fill="white"/>
<path d="M79.4277 48.8797C79.4277 48.8797 85.1732 49.8605 85.8532 52.3508C86.5332 54.8489 90.5214 69.515 90.5214 69.515C90.5214 69.515 87.5875 70.0438 86.2276 68.6798C84.8676 67.3159 81.5059 56.0519 81.5059 56.0519L79.4277 48.8797Z" fill="white"/>
<path d="M80.7727 73.8368C76.6469 74.1127 69.404 73.4307 69.129 72.6645C68.1816 70.0209 68.8463 69.201 68.0593 65.1475L70.0458 59.5308C70.0458 59.5308 69.7173 65.7834 71.5586 67.4309C73.3922 69.0784 79.0842 70.6032 79.9781 71.9825C80.406 72.6415 80.6886 73.3081 80.7727 73.8368Z" fill="#EBF3FF"/>
<path d="M76.051 71.2085C76.051 71.2085 80.1156 70.2967 80.7727 70.6645C81.4298 71.0246 83.0342 72.3426 83.2329 72.8024C83.4315 73.2621 81.7736 72.4575 81.2311 72.312C80.8797 72.22 79.9628 72.5418 79.5044 72.6951C77.5867 73.3387 76.4101 73.0092 76.4101 73.0092L76.051 71.2085Z" fill="#FFB27D"/>
<path d="M73.6215 48.3433C73.6215 48.3433 67.8684 48.6805 65.9736 51.3241C63.3148 55.0481 58.0354 70.9097 61.0609 73.0245C64.4685 75.4076 76.5706 73.6452 76.5706 73.6452C76.5706 73.6452 76.9755 71.7602 76.4102 70.8407C75.8524 69.9288 66.7453 68.45 66.325 68.0285C65.9048 67.6071 71.5739 59.8142 71.5739 58.5499C71.5739 57.2932 73.6215 48.3433 73.6215 48.3433Z" fill="white"/>
<path d="M80.9709 71.7985C80.9709 71.7985 81.8266 72.9019 82.1017 73.0322C82.3844 73.1624 82.5601 73.1318 82.5601 73.1318L81.9871 72.0974L80.9709 71.7985Z" fill="#FFB27D"/>
<path d="M80.7725 70.6568L83.2479 71.8598C83.2479 71.8598 83.1409 72.0361 82.8353 72.0208C82.5297 72.0054 81.7581 71.7219 81.7581 71.7219L80.7725 70.6568Z" fill="#FFB27D"/>
<path d="M89.9027 73.5227H78.3965C78.3965 73.0169 78.8091 72.6031 79.3133 72.6031H89.9027V73.5227Z" fill="#078A44"/>
<path d="M89.8644 60.9483H107.659L103.395 73.5227H85.4866L89.8644 60.9483Z" fill="#078A44"/>
<path d="M107.919 60.9483L103.655 73.5227H85.7466L90.1321 60.9483H107.919Z" fill="#01BA57"/>
<path d="M98.3299 67.1167C98.223 67.5995 97.7416 67.9826 97.2603 67.9826C96.7789 67.9826 96.481 67.5918 96.5956 67.1167C96.7025 66.634 97.1839 66.2509 97.6652 66.2509C98.1389 66.2509 98.4369 66.6417 98.3299 67.1167Z" fill="white"/>
<path d="M74.4158 76.3502H152.385C152.713 76.3502 152.981 76.082 152.981 75.7525V74.1127C152.981 73.7832 152.713 73.515 152.385 73.515H74.4158C74.0872 73.515 73.8198 73.7832 73.8198 74.1127V75.7525C73.8198 76.082 74.0872 76.3502 74.4158 76.3502Z" fill="#182D4F"/>
<path d="M154.294 122.931L154.325 122.923C154.722 122.877 155.005 122.517 154.959 122.127L148.014 74.9556L145.47 75.0322L153.645 122.456C153.691 122.763 153.981 122.969 154.294 122.931Z" fill="#182D4F"/>
<path d="M71.8029 122.931L71.7723 122.923C71.375 122.877 71.0923 122.517 71.1382 122.127L78.0831 74.9556L80.6273 75.0322L72.4523 122.456C72.4065 122.763 72.1161 122.969 71.8029 122.931Z" fill="#182D4F"/>
<path d="M87.8856 122.931L87.8551 122.923C87.4578 122.877 87.1751 122.517 87.2209 122.127L94.166 74.9556L96.7102 75.0322L88.5351 122.456C88.4892 122.763 88.1989 122.969 87.8856 122.931Z" fill="#182D4F"/>
<path d="M128.875 122.893H142.666C143.331 122.081 143.086 119.084 142.987 118.111C142.964 117.912 142.949 117.797 142.949 117.797C142.949 117.797 138.242 114.02 137.593 116.916C137.57 117.008 137.547 117.092 137.524 117.184C136.707 119.889 133.055 121.115 130.946 121.46C129.571 121.674 129.066 122.395 128.875 122.893Z" fill="#233862"/>
<path d="M166.496 77.9594C166 77.9594 142.88 82.3117 139.053 87.0625C137.143 89.4379 136.86 116.824 136.86 116.824C136.86 116.824 139.221 119.766 144.324 118.058C144.324 118.058 148.068 99.315 147.793 93.637C147.717 92.0662 163.586 93.4071 166.496 92.6562C169.407 91.9053 176.498 85.5606 174.939 82.4726C173.373 79.3846 166.496 77.9594 166.496 77.9594Z" fill="#233862"/>
<path d="M139.159 71.2545C139.159 71.2545 134.499 71.3158 133.391 71.7909C132.291 72.266 130.052 73.3541 130.648 73.5227C131.244 73.6912 134.101 73.4537 134.72 73.5457C135.339 73.6376 136.096 73.5227 136.478 73.5227C136.852 73.5227 138.617 73.5227 138.617 73.5227L139.159 71.2545Z" fill="#FFB27D"/>
<path d="M133.704 60.0288C133.704 60.0288 132.115 58.8871 130.572 58.6649C129.693 58.5423 128.837 58.3814 128.318 58.1975C126.897 57.6917 124.039 55.1248 124.261 54.8183C124.949 53.8528 128.28 55.8987 128.86 55.6765C129.441 55.4543 127.745 54.2436 128.333 53.8221C128.639 53.5999 129.365 54.711 129.953 54.8259C130.748 54.9792 131.374 56.1056 131.611 56.1669C132.077 56.2818 134.124 57.8067 134.124 57.8067L133.704 60.0288Z" fill="#FFB27D"/>
<path d="M164.197 46.7266C164.197 46.7266 160.644 47.83 157.152 57.4925C153.653 67.1551 152.324 67.6761 151.055 68.0516C149.787 68.4271 138.625 70.6569 138.625 70.6569V73.5227H155.823C155.823 73.5227 162.271 67.3696 164.204 63.2318C166.13 59.0863 164.197 46.7266 164.197 46.7266Z" fill="#0C954B"/>
<path d="M122.786 122.893H136.577C137.242 122.081 136.997 119.084 136.898 118.111C136.875 117.912 136.86 117.797 136.86 117.797C136.86 117.797 132.153 114.02 131.504 116.916C131.481 117.008 131.458 117.092 131.435 117.184C130.618 119.889 126.966 121.115 124.857 121.46C123.482 121.674 122.977 122.395 122.786 122.893Z" fill="#1B3051"/>
<path d="M159.689 77.9594C159.192 77.9594 136.073 82.3117 132.245 87.0625C130.335 89.4379 130.052 116.824 130.052 116.824C130.052 116.824 132.413 119.766 137.517 118.058C137.517 118.058 141.261 99.315 140.986 93.637C140.909 92.0662 156.778 93.4071 159.689 92.6562C162.592 91.9053 169.69 85.5606 168.131 82.4726C166.565 79.3846 159.689 77.9594 159.689 77.9594Z" fill="#2B478B"/>
<path d="M161.133 49.784C162.799 49.646 164.541 49.2016 166.046 48.7112C167.933 48.0982 169.446 47.2017 168.468 45.4776C167.566 43.8838 166.107 40.3283 166.206 37.3859L162.699 40.221L160.316 42.1443C160.316 42.1443 160.323 43.2784 160.583 45.2707C160.629 45.6308 160.69 46.0216 160.751 46.4431C160.805 46.7802 160.652 47.1174 160.361 47.3013C160.346 47.3089 160.323 47.3243 160.308 47.3319C159.131 48.0675 159.743 49.8989 161.133 49.784Z" fill="#FFB27D"/>
<path d="M160.323 41.6693C160.323 41.6693 160.201 42.0831 160.407 43.6003C162.531 43.2554 164.517 41.5544 164.517 41.5544C163.44 41.2555 163.043 40.0831 162.241 40.1981L160.323 41.6693Z" fill="#ED975D"/>
<path d="M158.359 42.0218C158.359 42.0218 166.527 43.3857 167.291 38.2671C168.055 33.1561 169.629 29.8842 164.449 28.8038C159.269 27.7157 157.962 29.5164 157.29 31.1639C156.617 32.8037 156.251 41.5314 158.359 42.0218Z" fill="#FFB27D"/>
<path d="M156.083 28.8957C155.732 30.1294 156.671 31.6236 158.245 32.1217C160.583 32.8573 160.064 35.7308 161.118 35.6924C162.172 35.6541 162.593 34.0373 163.532 35.3323C164.335 36.4357 162.868 37.7384 162.967 38.3437C163.143 39.3782 164.755 41.5007 166.214 41.3934C167.673 41.2861 170.401 34.3362 169.858 32.1906C169.316 30.0375 167.131 27.777 165.068 27.4628C163.005 27.1487 160.132 28.0452 159.468 28.0452C158.803 28.0452 156.274 28.2291 156.083 28.8957Z" fill="#2B478B"/>
<path d="M175.046 53.8221C173.869 49.056 170.607 44.06 168.399 44.06C164.64 44.0677 159.238 45.0638 157.053 50.4583C155.448 54.4352 153.301 77.3003 155.723 78.9248C161.263 82.6412 174.098 90.2348 176.375 82.4956C178.468 75.4077 177.093 62.0901 175.046 53.8221Z" fill="#01BA57"/>
<path d="M165.915 49.079C164.846 46.2821 161.385 45.3166 159.024 47.1557C157.748 48.1518 156.189 49.5694 154.302 51.5847C147.289 59.0787 145.86 59.0327 144.546 58.8718C143.232 58.7185 132.1 56.3508 132.1 56.3508C132.1 56.3508 131.527 56.7722 131.19 57.4542C130.74 58.3661 130.969 58.9867 130.969 58.9867C130.533 58.7032 134.911 61.7299 137.096 62.9406C139.977 64.5345 144.316 66.0287 146.043 66.5957C146.532 66.7566 147.059 66.7489 147.548 66.5727C150.115 65.6455 158.726 62.2663 165.74 56.4044C167.589 54.8566 166.916 51.6766 165.915 49.079Z" fill="#01BA57"/>
<path d="M168.78 44.106L167.932 42.1827C167.932 42.1827 160.315 42.8033 159.031 47.1557C159.031 47.1557 164.937 44.1979 168.78 44.106Z" fill="white"/>
<path d="M187.27 122.717H187.324C187.751 122.709 188.088 122.356 188.042 121.95L185.169 93.2079L182.663 93.4301L186.781 122.326C186.827 122.556 187.033 122.724 187.27 122.717Z" fill="#8CB4F4"/>
<path d="M172.502 122.717H172.555C172.983 122.709 173.319 122.356 173.273 121.95L170.401 93.2079L167.895 93.4301L172.013 122.326C172.058 122.556 172.265 122.724 172.502 122.717Z" fill="#8CB4F4"/>
<path d="M144.775 122.717H144.722C144.294 122.709 143.958 122.356 144.003 121.95L146.876 93.2079L149.382 93.4301L145.264 122.326C145.226 122.556 145.02 122.724 144.775 122.717Z" fill="#73A2E5"/>
<path d="M186.46 89.139L189.18 65.1321C189.539 61.6763 188.385 58.2894 183.404 58.0212L174.648 57.4848C169.46 57.2703 167.115 61.5997 166.458 64.9406L161.262 91.3305L186.46 89.139Z" fill="#8CB4F4"/>
<path d="M185.001 93.637H146.135C145.356 93.637 144.714 92.9933 144.714 92.2117V90.457C144.714 89.6754 145.356 89.0317 146.135 89.0317H186.415V92.2117C186.415 92.9933 185.781 93.637 185.001 93.637Z" fill="#73A2E5"/>
<path d="M185.314 93.637H162.371C161.767 93.637 161.271 93.1389 161.271 92.5336V90.1428C161.271 89.5375 161.767 89.0394 162.371 89.0394H186.422V92.5336C186.415 93.1389 185.918 93.637 185.314 93.637Z" fill="#8CB4F4"/>
</g>
<defs>
<clipPath id="clip0">
<rect width="210" height="123" fill="white"/>
</clipPath>
</defs>
</svg>
