<svg width="184" height="109" viewBox="0 0 184 109" fill="none" xmlns="http://www.w3.org/2000/svg">
<g clip-path="url(#clip0)">
<path d="M14.5415 108.951C14.5415 108.951 -7.97073 81.4423 3.02893 53.1191C10.2026 34.6614 37.1092 24.5455 52.2883 34.6614C58.755 38.968 79.4998 34.8075 90.5826 16.969C112.111 -17.6923 187.244 3.36049 173.562 56.5769C166.943 82.3328 193.704 83.2651 180.07 109.007L14.5415 108.951Z" fill="#EBF3FA"/>
<path d="M103.329 108.687H103.273C102.795 108.68 102.428 108.29 102.476 107.838L105.651 76.0085L108.423 76.2589L103.862 108.256C103.821 108.506 103.592 108.687 103.329 108.687Z" fill="#ACC7EB"/>
<path d="M133.902 108.687H133.957C134.435 108.68 134.803 108.29 134.754 107.838L131.58 76.0085L128.807 76.2589L133.368 108.256C133.41 108.506 133.631 108.687 133.902 108.687Z" fill="#C8DBF4"/>
<path d="M80.9274 108.687H80.8719C80.3937 108.68 80.0263 108.29 80.0749 107.838L83.2493 76.0085L86.0218 76.2589L81.4611 108.256C81.4264 108.506 81.1977 108.687 80.9274 108.687Z" fill="#BAD4F4"/>
<path d="M132.952 71.3749L138.587 43.4414C139.308 39.6566 136.189 36.1988 132.135 36.2962L121.267 36.5467C117.517 36.6302 114.259 39.1487 113.213 42.7665L104.965 71.3818H132.952V71.3749Z" fill="#BAD4F4"/>
<path d="M129.542 71.3749L135.177 43.4414C135.898 39.6566 132.779 36.1988 128.724 36.2962L117.856 36.5467C114.107 36.6302 110.849 39.1487 109.802 42.7665L101.554 71.3818H129.542V71.3749Z" fill="#ACC7EB"/>
<path d="M131.386 76.4746H88.3856C87.5192 76.4746 86.8123 75.765 86.8123 74.8953V72.9542C86.8123 72.0846 87.5192 71.3749 88.3856 71.3749H132.96V74.8953C132.953 75.765 132.246 76.4746 131.386 76.4746Z" fill="#C8DBF4"/>
<path d="M111.203 76.4746H83.7901C83.097 76.4746 82.5217 75.9041 82.5217 75.2015V72.6481C82.5217 71.9524 83.0901 71.3749 83.7901 71.3749H111.203C111.896 71.3749 112.471 71.9454 112.471 72.6481V75.2015C112.471 75.8972 111.903 76.4746 111.203 76.4746Z" fill="#ACC7EB"/>
<path d="M94.4778 44.9372C93.8748 44.4363 107.079 33.2489 109.906 39.5244C109.906 39.5244 116.685 34.2786 110.44 31.2104C106.926 29.485 106.42 25.8464 105.588 23.7035C104.757 21.5607 100.543 15.7304 95.6769 19.8283C95.6769 19.8283 93.2094 20.2666 91.8786 21.9016C88.8567 25.6098 82.1335 50.4195 94.4778 44.9372Z" fill="#163560"/>
<path d="M103.017 40.7071C103.017 40.7071 100.723 44.8537 97.4998 48.2906C95.8017 50.1065 93.8402 51.7275 91.8302 52.4302C90.846 52.7781 89.8548 52.9033 88.8706 52.7294C88.2399 52.6181 88.5171 48.8959 89.3904 46.0643C90.541 42.3352 94.1244 33.068 94.1244 33.068L96.176 33.9446C96.176 33.9446 93.3273 45.612 93.6669 45.6607L96.675 38.0147L103.017 40.7071Z" fill="#E5925A"/>
<path d="M107.397 59.6171C107.397 59.6171 84.5315 59.2553 81.4818 61.1964C78.4322 63.1444 84.5315 94.2435 84.5315 94.2435C84.5315 94.2435 90.4437 94.4314 90.9151 92.859C90.9151 92.859 89.8546 78.2905 90.7834 75.7719C91.7121 73.2534 91.1369 69.7678 91.1369 69.7678C91.1369 69.7678 102.705 71.5419 106.378 70.6653C110.052 69.7956 107.397 59.6171 107.397 59.6171Z" fill="#10A053"/>
<path d="M85.7863 92.6643C85.7863 92.6643 87.0893 96.1638 86.8121 97.4579C86.5348 98.7519 86.9784 101.27 86.4517 102.398C85.9249 103.525 84.9753 105.16 85.8833 105.57C86.2299 105.73 90.2291 102.606 90.4579 101.688C90.6866 100.77 90.8668 98.0562 91.6292 96.5812C92.3986 95.1063 91.754 93.9166 90.645 93.3809C89.536 92.8382 87.9904 89.8744 87.9904 89.8744L85.7863 92.6643Z" fill="#163560"/>
<path d="M81.905 98.091C81.905 98.091 80.6505 101.604 79.6039 102.418C78.5573 103.232 77.282 105.438 76.1522 105.96C75.0224 106.475 73.255 107.115 73.6778 108.019C73.8372 108.36 78.9038 108.576 79.6663 108.019C80.4356 107.462 82.3139 105.507 83.8457 104.881C85.3775 104.255 85.6478 102.926 85.1557 101.799C84.6566 100.665 85.3844 97.4022 85.3844 97.4022L81.905 98.091Z" fill="#2A4E96"/>
<path d="M120.365 58.7961C120.365 58.7961 93.2298 63.0609 91.1436 65.4821C89.0504 67.9032 80.7747 99.4685 80.7747 99.4685C80.7747 99.4685 83.1936 100.832 85.3908 99.5729C85.3908 99.5729 91.6911 88.8725 94.4774 85.5191C97.2637 82.1657 98.3311 71.7784 98.7886 71.6741C99.246 71.5697 113.85 73.4412 119.228 69.8721C122.396 67.7641 120.365 58.7961 120.365 58.7961Z" fill="#01BA57"/>
<path d="M110.994 36.1084C109.393 34.8978 104.576 33.562 101.561 34.9256C100.133 35.5727 97.9707 36.4145 96.6746 38.0286C95.2745 39.7749 93.6665 45.6747 93.6665 45.6747C94.1933 48.7846 96.6538 49.1603 96.6538 49.1603C95.2121 54.6287 102.005 53.2024 101.561 56.2358C100.799 61.5303 105.727 64.3063 108.416 65.5447C111.937 67.1588 121.821 69.1973 121.834 65.5447C121.883 48.9168 115.597 39.587 110.994 36.1084Z" fill="white"/>
<path d="M110.447 42.0082C110.447 42.0082 108.666 51.6719 103.835 54.5035H99.2881L104.084 48.4854L110.447 42.0082Z" fill="#EBF3FA"/>
<path d="M94.2836 34.056C94.2836 34.056 92.8073 32.2888 92.5509 31.7531C92.2945 31.2174 92.7796 28.9145 93.3757 28.9284C93.7569 28.9354 94.2213 30.3338 94.6371 30.8417C95.053 31.3496 96.855 32.0731 96.0926 34.2021C96.0025 34.4386 94.2836 34.056 94.2836 34.056Z" fill="#E5925A"/>
<path d="M98.0334 37.5833C97.6176 38.2095 98.1235 39.9697 100.487 39.42C102.04 39.0583 105.055 36.5397 104.514 35.2526C104.258 34.6404 102.767 33.2072 101.839 29.4711L101.568 29.6033L97.0215 31.7809C97.0215 31.7809 97.5136 33.2628 97.8809 34.6891C98.179 35.8718 98.2067 37.3259 98.0334 37.5833Z" fill="#FFB27D"/>
<path d="M97.0144 31.767C97.0144 31.767 97.5065 33.2489 97.8739 34.6752C100.535 33.9168 101.326 31.0991 101.561 29.5894L97.0144 31.767Z" fill="#F4A269"/>
<path d="M94.4289 32.588C94.4289 32.588 100.799 34.0699 101.658 30.0764C102.518 26.0829 103.918 23.5783 99.8907 22.4651C95.8567 21.3519 94.7408 22.7017 94.1309 23.9679C93.514 25.2272 92.7932 32.101 94.4289 32.588Z" fill="#FFB27D"/>
<path d="M97.0007 21.7346C97.0007 21.7346 97.0423 26.3334 100.418 28.5667C102.393 29.8746 102.483 31.2104 102.483 31.2104C102.483 31.2104 103.655 27.2726 103.835 24.3157C103.835 24.3157 98.7959 19.7865 97.0007 21.7346Z" fill="#163560"/>
<path d="M97.3955 22.5486C97.3955 22.5486 95.5103 23.1748 94.6717 23.8705C93.431 24.9002 93.1053 28.2536 93.2578 29.0885C93.2578 29.0885 92.9181 23.2652 94.7895 21.7833C96.7718 20.204 97.3955 22.5486 97.3955 22.5486Z" fill="#163560"/>
<path d="M110.447 42.0082C109.795 43.5596 109.047 45.0207 108.25 46.3426C105.207 51.3866 101.492 54.4339 100.147 53.0146C99.7729 52.625 98.8372 52.0476 99.8214 49.9395C100.577 48.3045 101.513 46.266 102.434 44.2554C104.334 40.1158 106.15 36.1084 106.15 36.1084C106.732 36.1084 112.824 36.3171 110.447 42.0082Z" fill="#FFB27D"/>
<path d="M104.085 48.4785C103.877 48.3532 92.4126 51.1501 88.8639 52.0197C88.2124 52.1798 87.8242 52.2772 87.8242 52.2772V53.6199C87.8242 53.6199 99.6833 54.1765 101.541 53.3277C103.391 52.472 105.159 50.4891 105.159 50.4891L104.085 48.4785Z" fill="#FFB27D"/>
<path d="M110.447 42.0082C109.795 43.5596 109.047 45.0207 108.25 46.3426C105.775 46.0225 103.488 44.8606 102.435 44.2554C104.334 40.1158 106.15 36.1084 106.15 36.1084C106.732 36.1084 112.824 36.3171 110.447 42.0082Z" fill="white"/>
<path d="M66.9753 53.6199H79.7078C79.7078 53.0564 79.2503 52.6041 78.6958 52.6041H66.9753V53.6199Z" fill="#017638"/>
<path d="M67.0103 39.6983H47.3259L52.046 53.6199H71.8621L67.0103 39.6983Z" fill="#017638"/>
<path d="M47.0347 39.6983L51.7547 53.6199H71.5708L66.7259 39.6983H47.0347Z" fill="#01BA57"/>
<path d="M57.6532 46.5304C57.7779 47.0592 58.3047 47.4905 58.8315 47.4905C59.3583 47.4905 59.6909 47.0592 59.5662 46.5304C59.4414 46.0017 58.9147 45.5703 58.3879 45.5703C57.8611 45.5703 57.5284 46.0017 57.6532 46.5304Z" fill="white"/>
<path d="M140.48 76.4329V77.2399C140.48 77.5252 140.57 77.7548 140.681 77.7548H170.131C170.242 77.7548 170.332 77.5252 170.332 77.2399V76.4329C170.332 76.1476 170.242 75.918 170.131 75.918H140.681C140.577 75.918 140.48 76.1546 140.48 76.4329Z" fill="#9ABFE2"/>
<path d="M140.48 76.4329V77.2399C140.48 77.5252 140.563 77.7548 140.667 77.7548H164.052C164.156 77.7548 164.24 77.5252 164.24 77.2399V76.4329C164.24 76.1476 164.156 75.918 164.052 75.918H140.667C140.563 75.918 140.48 76.1546 140.48 76.4329Z" fill="#BAD4F4"/>
<path d="M147.934 108.352H168.845V77.7609H147.934V108.352Z" fill="#C8DBF4"/>
<path d="M142.078 108.352H162.99V77.7609H142.078V108.352Z" fill="#DFEBFD"/>
<path d="M143.197 78.6244H161.862V106.662H143.197V78.6244ZM161.661 78.8262H143.405V106.461H161.661V78.8262Z" fill="#B7D3F3"/>
<path d="M161.765 87.8985H143.301V88.1003H161.765V87.8985Z" fill="#B7D3F3"/>
<path d="M161.765 97.3535H143.301V97.5552H161.765V97.3535Z" fill="#B7D3F3"/>
<path d="M150.641 80.4333H154.065C154.231 80.4333 154.37 80.2942 154.37 80.1272C154.37 79.9602 154.231 79.8211 154.065 79.8211H150.641C150.474 79.8211 150.336 79.9602 150.336 80.1272C150.336 80.2942 150.474 80.4333 150.641 80.4333Z" fill="#B7D3F3"/>
<path d="M150.641 89.6796H154.065C154.231 89.6796 154.37 89.5404 154.37 89.3734C154.37 89.2065 154.231 89.0673 154.065 89.0673H150.641C150.474 89.0673 150.336 89.2065 150.336 89.3734C150.336 89.5474 150.474 89.6796 150.641 89.6796Z" fill="#B7D3F3"/>
<path d="M150.641 99.3224H154.065C154.231 99.3224 154.37 99.1832 154.37 99.0163C154.37 98.8493 154.231 98.7101 154.065 98.7101H150.641C150.474 98.7101 150.336 98.8493 150.336 99.0163C150.336 99.1832 150.474 99.3224 150.641 99.3224Z" fill="#B7D3F3"/>
<path d="M136.065 24.0027H124.102C123.554 24.0027 123.104 23.5505 123.104 23.0008V11.41C123.104 10.8603 123.554 10.4081 124.102 10.4081H136.065C136.612 10.4081 137.063 10.8603 137.063 11.41V23.0008C137.063 23.5505 136.612 24.0027 136.065 24.0027Z" fill="#C0D8FB"/>
<path d="M135.545 23.4183H124.621C124.122 23.4183 123.707 23.0078 123.707 22.4999V11.9178C123.707 11.4169 124.115 10.9995 124.621 10.9995H135.545C136.044 10.9995 136.46 11.41 136.46 11.9178V22.4999C136.46 23.0008 136.051 23.4183 135.545 23.4183Z" fill="#DFEBFD"/>
<path d="M129.792 12.2379C129.792 12.0779 129.923 11.9457 130.083 11.9457C130.242 11.9457 130.374 12.0779 130.374 12.2379C130.374 12.3979 130.242 12.5301 130.083 12.5301C129.923 12.5301 129.792 12.3979 129.792 12.2379Z" fill="#B7D3F3"/>
<path d="M132.128 12.6484C132.204 12.5092 132.384 12.4605 132.523 12.5371C132.661 12.6136 132.71 12.7945 132.633 12.9336C132.557 13.0728 132.377 13.1215 132.238 13.0449C132.1 12.9684 132.051 12.7875 132.128 12.6484Z" fill="#B7D3F3"/>
<path d="M134.131 14.2416C134.263 14.1581 134.443 14.1929 134.533 14.3251C134.623 14.4573 134.582 14.6382 134.45 14.7286C134.318 14.8121 134.138 14.7773 134.048 14.6451C133.958 14.5129 133.992 14.332 134.131 14.2416Z" fill="#B7D3F3"/>
<path d="M135.115 16.7114C135.275 16.7114 135.406 16.8436 135.406 17.0036C135.406 17.1636 135.275 17.2958 135.115 17.2958C134.956 17.2958 134.824 17.1636 134.824 17.0036C134.824 16.8436 134.956 16.7114 135.115 16.7114Z" fill="#B7D3F3"/>
<path d="M134.609 19.5778C134.72 19.6892 134.72 19.877 134.609 19.9883C134.498 20.0996 134.311 20.0996 134.2 19.9883C134.089 19.877 134.089 19.6892 134.2 19.5778C134.318 19.4596 134.498 19.4596 134.609 19.5778Z" fill="#B7D3F3"/>
<path d="M132.793 21.4007C132.904 21.512 132.904 21.6998 132.793 21.8111C132.682 21.9225 132.495 21.9225 132.384 21.8111C132.273 21.6998 132.273 21.512 132.384 21.4007C132.502 21.2893 132.682 21.2893 132.793 21.4007Z" fill="#B7D3F3"/>
<path d="M129.792 22.3468C129.792 22.1868 129.923 22.0546 130.083 22.0546C130.242 22.0546 130.374 22.1868 130.374 22.3468C130.374 22.5069 130.242 22.639 130.083 22.639C129.923 22.6321 129.792 22.5069 129.792 22.3468Z" fill="#B7D3F3"/>
<path d="M128.032 12.6484C127.955 12.5092 127.775 12.4605 127.637 12.5371C127.498 12.6136 127.45 12.7945 127.526 12.9336C127.602 13.0728 127.782 13.1215 127.921 13.0449C128.059 12.9684 128.108 12.7875 128.032 12.6484Z" fill="#B7D3F3"/>
<path d="M126.035 14.2416C125.903 14.1581 125.723 14.1929 125.633 14.3251C125.55 14.4573 125.585 14.6382 125.716 14.7286C125.848 14.8121 126.028 14.7773 126.118 14.6451C126.201 14.5129 126.167 14.332 126.035 14.2416Z" fill="#B7D3F3"/>
<path d="M125.044 16.7114C124.885 16.7114 124.753 16.8436 124.753 17.0036C124.753 17.1637 124.885 17.2958 125.044 17.2958C125.204 17.2958 125.335 17.1637 125.335 17.0036C125.335 16.8436 125.204 16.7114 125.044 16.7114Z" fill="#B7D3F3"/>
<path d="M125.55 19.5778C125.439 19.6892 125.439 19.877 125.55 19.9883C125.661 20.0996 125.848 20.0996 125.959 19.9883C126.07 19.877 126.07 19.6892 125.959 19.5778C125.841 19.4596 125.661 19.4596 125.55 19.5778Z" fill="#B7D3F3"/>
<path d="M127.366 21.4007C127.255 21.512 127.255 21.6998 127.366 21.8111C127.477 21.9225 127.664 21.9225 127.775 21.8111C127.886 21.6998 127.886 21.512 127.775 21.4007C127.664 21.2893 127.477 21.2893 127.366 21.4007Z" fill="#B7D3F3"/>
<path d="M130.007 17.0036C130.007 16.8436 130.139 16.7114 130.298 16.7114C130.458 16.7114 130.589 16.8436 130.589 17.0036C130.589 17.1636 130.458 17.2958 130.298 17.2958C130.139 17.2958 130.007 17.1636 130.007 17.0036Z" fill="#B7D3F3"/>
<path d="M130.333 13.3789H130.257V17.0036H130.333V13.3789Z" fill="#B7D3F3"/>
<path d="M132.107 15.4005L130.194 16.9085L130.339 17.0945L132.253 15.5866L132.107 15.4005Z" fill="#B7D3F3"/>
<path d="M37.7608 86.9245C37.7608 86.9245 41.1847 82.9101 37.9687 80.3637C37.9687 80.3637 35.619 78.9375 33.7061 79.0488C33.7061 79.0488 36.4231 83.6198 35.5428 84.072C34.6626 84.5242 32.8813 78.7636 32.8813 78.7636C32.8813 78.7636 27.5374 78.2418 25.8185 79.0697C25.8185 79.0697 30.3861 82.8266 29.4226 83.0493C28.4592 83.2719 23.5243 79.5915 23.5243 79.5915C23.5243 79.5915 18.5477 80.4403 18.8111 83.4876C19.0745 86.5349 20.7934 87.4741 21.542 87.3906C22.2975 87.3071 26.7056 85.6235 26.7958 86.2427C26.8928 86.8619 24.2382 88.8864 22.3806 88.9838C22.3806 88.9838 25.8878 92.866 28.2166 91.7459C30.5455 90.6257 30.7465 88.8516 32.202 88.1837C33.6575 87.5158 34.8982 87.5158 34.2952 88.1977C33.6922 88.8795 31.0653 89.5404 30.2336 91.0154C29.4018 92.4903 28.6602 93.4852 31.0722 93.1234C33.4843 92.7616 37.4073 90.9875 37.5736 88.956C37.7608 86.9245 37.7608 86.9245 37.7608 86.9245Z" fill="#C8DBF4"/>
<path d="M21.2644 83.5711C21.2644 83.5711 34.7801 83.0493 37.7604 86.9245C37.7604 86.9245 38.4189 88.9073 40.4497 90.7162L40.7685 91.5789C40.7685 91.5789 38.4258 89.1021 37.5872 88.949C37.5872 88.956 38.8971 84.1485 21.2644 83.5711Z" fill="#C8DBF4"/>
<path d="M40.4499 90.7162C40.4499 90.7162 43.3471 92.866 43.555 96.7134L43.0282 96.7621C43.0282 96.7621 42.0995 92.7825 40.4291 91.2311C38.7518 89.6796 40.4499 90.7162 40.4499 90.7162Z" fill="#C8DBF4"/>
<path d="M49.7443 81.8804C49.7443 81.8804 44.2895 78.8192 46.8332 74.6587C46.8332 74.6587 48.8709 72.1054 51.0473 71.4514C51.0473 71.4514 49.8829 77.6504 51.0473 77.7965C52.2117 77.9426 51.8444 70.7905 51.8444 70.7905C51.8444 70.7905 57.5903 68.0145 59.8429 68.2371C59.8429 68.2371 56.2803 74.29 57.4447 74.1508C58.6092 74.0047 62.6084 67.8754 62.6084 67.8754C62.6084 67.8754 68.4999 66.7831 69.4425 70.2826C70.3851 73.7821 68.8603 75.5353 67.987 75.758C67.1136 75.9737 61.5202 75.9041 61.6658 76.6346C61.8113 77.3651 65.5888 78.5339 67.6958 77.873C67.6958 77.873 65.367 83.6406 62.3173 83.3484C59.2676 83.0562 58.318 81.1568 56.4259 81.0107C54.5337 80.8646 53.1544 81.3725 54.097 81.8874C55.0396 82.3952 58.2418 82.0543 59.7667 83.3553C61.2915 84.6564 62.5322 85.4634 59.6973 86.0478C56.8625 86.6322 51.7751 86.2635 50.7562 84.0789C49.7443 81.8804 49.7443 81.8804 49.7443 81.8804Z" fill="#C8DBF4"/>
<path d="M66.7535 71.3749C66.7535 71.3749 51.4912 76.3355 49.7446 81.8804C49.7446 81.8804 49.8139 84.3642 48.2891 87.2097V88.302C48.2891 88.302 49.8901 84.5799 50.7635 84.072C50.7635 84.072 47.3464 79.2506 66.7535 71.3749Z" fill="#C8DBF4"/>
<path d="M48.2891 87.2097C48.2891 87.2097 45.9325 90.7997 47.2771 95.1689L47.8801 95.0089C47.8801 95.0089 47.291 90.1944 48.5247 87.7802C49.7584 85.3521 48.2891 87.2097 48.2891 87.2097Z" fill="#C8DBF4"/>
<path d="M41.0666 77.6573C41.0666 77.6573 48.2542 73.6152 44.8995 68.1328C44.8995 68.1328 42.2172 64.7655 39.3407 63.9028C39.3407 63.9028 40.8725 72.0776 39.3407 72.2724C37.809 72.4672 38.2872 63.0401 38.2872 63.0401C38.2872 63.0401 30.7185 59.3875 27.745 59.6727C27.745 59.6727 32.4374 67.6528 30.9056 67.4649C29.3738 67.2701 24.0993 59.1927 24.0993 59.1927C24.0993 59.1927 16.3364 57.7525 15.0888 62.3652C13.8412 66.9849 15.8582 69.2877 17.0018 69.5799C18.1524 69.8652 25.5271 69.7747 25.3399 70.7348C25.1458 71.6949 20.1624 73.2325 17.3899 72.3698C17.3899 72.3698 20.4535 79.9672 24.4805 79.5845C28.5074 79.2019 29.7481 76.6972 32.2433 76.5094C34.7316 76.3146 36.5544 76.9894 35.3068 77.6643C34.0592 78.3392 29.8451 77.8869 27.8351 79.6054C25.8251 81.3238 24.1963 82.3813 27.9322 83.1466C31.668 83.9189 38.3773 83.4319 39.715 80.5516C41.0666 77.6573 41.0666 77.6573 41.0666 77.6573Z" fill="#D4E4F8"/>
<path d="M18.6443 63.8054C18.6443 63.8054 38.7653 70.3452 41.0664 77.6573C41.0664 77.6573 40.9694 80.9273 42.9794 84.6773V86.1174C42.9794 86.1174 40.8723 81.2125 39.7218 80.5377C39.7287 80.5377 44.2339 74.1926 18.6443 63.8054Z" fill="#D4E4F8"/>
<path d="M42.9865 84.6773C42.9865 84.6773 46.0916 89.4082 44.3173 95.1688L43.5202 94.9532C43.5202 94.9532 44.2965 88.6081 42.6746 85.4217C41.0527 82.2283 42.9865 84.6773 42.9865 84.6773Z" fill="#D4E4F8"/>
<path d="M41.3092 107.65C33.5325 107.65 27.2322 101.326 27.2322 93.52H55.3863C55.3863 101.326 49.0859 107.65 41.3092 107.65Z" fill="#D4E4F8"/>
<path d="M27.0383 108.367H55.5806C55.5806 107.407 54.8043 106.621 53.8409 106.621H28.778C27.8146 106.628 27.0383 107.407 27.0383 108.367Z" fill="#D4E4F8"/>
<path d="M26.9152 93.9521H55.8525V93.5207H26.9152V93.9521Z" fill="#9FC1F4"/>
<path d="M46.9443 56.7507H113.199C113.857 56.7507 114.384 56.215 114.384 55.561V54.8166C114.384 54.1556 113.85 53.6269 113.199 53.6269H46.9443C46.2859 53.6269 45.7591 54.1626 45.7591 54.8166V55.561C45.7522 56.215 46.2859 56.7507 46.9443 56.7507Z" fill="#2A4E96"/>
<path d="M47.776 108.339L47.7413 108.332C47.2977 108.276 46.9858 107.88 47.0413 107.449L53.7714 55.1853L57.5419 55.2966L48.4968 107.817C48.4414 108.151 48.1225 108.381 47.776 108.339Z" fill="#2A4E96"/>
<path d="M113.441 108.339L113.476 108.332C113.92 108.276 114.232 107.88 114.176 107.449L107.446 55.1853L103.676 55.2966L112.721 107.817C112.776 108.151 113.095 108.381 113.441 108.339Z" fill="#2A4E96"/>
<path d="M154.716 63.04L153.936 63.1658L155.41 72.377L156.19 72.2512L154.716 63.04Z" fill="#B5453C"/>
<path d="M154.078 61.4817L153.947 63.1653L154.723 63.0401L154.078 61.4817Z" fill="#EFCBAB"/>
<path d="M163.167 63.9658L162.39 63.8209L160.692 72.9939L161.469 73.1388L163.167 63.9658Z" fill="#B5453C"/>
<path d="M163.075 62.2748L162.389 63.8193L163.158 63.9654L163.075 62.2748Z" fill="#EFCBAB"/>
<path d="M162.18 61.2764L161.403 61.1316L159.706 70.3046L160.483 70.4494L162.18 61.2764Z" fill="#B5453C"/>
<path d="M162.091 59.5893L161.405 61.1268L162.181 61.2729L162.091 59.5893Z" fill="#EFCBAB"/>
<path d="M163.075 66.9362H156.865V75.925H163.075V66.9362Z" fill="#017638"/>
<path d="M159.97 66.9362H153.76V75.925H159.97V66.9362Z" fill="#01BA57"/>
<path d="M151.5 106.008C151.438 106.141 151.292 106.871 151.029 107.469C150.876 107.831 150.675 108.144 150.433 108.256C149.781 108.562 148.693 108.04 148.693 108.04C148.693 108.04 146.822 108.256 146.641 108.172C146.461 108.089 146.281 105.271 146.281 105.271C146.281 105.271 147.737 103.754 147.861 103.712C147.993 103.671 149.053 104.234 149.234 104.234C149.414 104.234 150.481 103.539 150.765 103.712C151.064 103.886 151.604 105.786 151.5 106.008Z" fill="white"/>
<path d="M149.247 104.227C149.247 104.227 148.921 104.965 148.831 105.027C148.741 105.09 147.868 103.705 147.868 103.705C147.999 103.664 149.06 104.227 149.247 104.227Z" fill="#F2F7FE"/>
<path d="M150.752 104.436C150.752 104.436 149.421 105.667 149.442 105.786C149.462 105.904 150.876 106.725 150.932 106.697C150.98 106.669 150.627 105.73 150.648 105.57C150.662 105.417 150.752 104.436 150.752 104.436Z" fill="#F2F7FE"/>
<path d="M151.5 106.008C151.438 106.141 151.292 106.871 151.029 107.469L151.188 106.092L150.772 103.706C151.063 103.886 151.604 105.786 151.5 106.008Z" fill="#F2F7FE"/>
<path d="M148.7 108.04C148.7 108.04 146.829 108.256 146.649 108.172C146.469 108.089 146.288 105.271 146.288 105.271C146.288 105.271 146.697 106.718 146.704 106.788C146.711 106.857 147.286 106.704 147.286 106.704L148.7 108.04Z" fill="#F2F7FE"/>
<path d="M146.773 105.271L146.981 106.015H147.411L147.092 105.702L146.773 105.271Z" fill="#F2F7FE"/>
<path d="M70.4891 106.008C70.4267 106.141 70.2812 106.871 70.0178 107.469C69.8653 107.831 69.6643 108.144 69.4217 108.256C68.7702 108.562 67.682 108.04 67.682 108.04C67.682 108.04 65.8106 108.256 65.6304 108.172C65.4502 108.089 65.27 105.271 65.27 105.271C65.27 105.271 66.7255 103.754 66.8503 103.712C66.982 103.671 68.0424 104.234 68.2226 104.234C68.4028 104.234 69.4702 103.539 69.7544 103.712C70.0455 103.886 70.5931 105.786 70.4891 106.008Z" fill="white"/>
<path d="M68.2299 104.227C68.2299 104.227 67.9041 104.965 67.814 105.027C67.7239 105.09 66.8506 103.705 66.8506 103.705C66.9823 103.664 68.0497 104.227 68.2299 104.227Z" fill="#F2F7FE"/>
<path d="M69.7404 104.436C69.7404 104.436 68.4096 105.667 68.4304 105.786C68.4512 105.904 69.8651 106.725 69.9206 106.697C69.9691 106.669 69.6156 105.73 69.6364 105.57C69.6503 105.417 69.7404 104.436 69.7404 104.436Z" fill="#F2F7FE"/>
<path d="M70.4895 106.008C70.4271 106.141 70.2816 106.871 70.0182 107.469L70.1776 106.092L69.7617 103.706C70.0459 103.886 70.5935 105.786 70.4895 106.008Z" fill="#F2F7FE"/>
<path d="M67.682 108.04C67.682 108.04 65.8106 108.256 65.6304 108.172C65.4502 108.089 65.27 105.271 65.27 105.271C65.27 105.271 65.6789 106.718 65.6859 106.788C65.6928 106.857 66.2681 106.704 66.2681 106.704L67.682 108.04Z" fill="#F2F7FE"/>
<path d="M65.7551 105.271L65.9631 106.015H66.3928L66.074 105.702L65.7551 105.271Z" fill="#F2F7FE"/>
<path d="M157.35 73.4969C157.294 73.636 157.184 74.3874 156.955 75.0066C156.816 75.3823 156.636 75.7093 156.393 75.8415C155.749 76.1893 154.612 75.7163 154.612 75.7163C154.612 75.7163 152.727 76.0432 152.54 75.9667C152.353 75.8902 152.006 73.0377 152.006 73.0377C152.006 73.0377 153.399 71.4167 153.524 71.368C153.656 71.3193 154.765 71.8271 154.952 71.8202C155.139 71.8132 156.179 71.041 156.477 71.201C156.782 71.368 157.44 73.2673 157.35 73.4969Z" fill="white"/>
<path d="M154.959 71.8202C154.959 71.8202 154.668 72.5855 154.584 72.6551C154.494 72.7247 153.538 71.368 153.538 71.368C153.663 71.3193 154.772 71.8272 154.959 71.8202Z" fill="#F2F7FE"/>
<path d="M156.498 71.9454C156.498 71.9454 155.215 73.2743 155.243 73.3925C155.264 73.5108 156.754 74.2622 156.803 74.2344C156.851 74.1996 156.442 73.2673 156.449 73.1073C156.463 72.9403 156.498 71.9454 156.498 71.9454Z" fill="#F2F7FE"/>
<path d="M157.35 73.4969C157.295 73.636 157.184 74.3874 156.955 75.0066L157.038 73.6013L156.484 71.201C156.782 71.368 157.44 73.2673 157.35 73.4969Z" fill="#F2F7FE"/>
<path d="M154.619 75.7233C154.619 75.7233 152.734 76.0503 152.547 75.9737C152.359 75.8972 152.013 73.0447 152.013 73.0447C152.013 73.0447 152.505 74.4849 152.519 74.5614C152.533 74.6379 153.108 74.4431 153.108 74.4431L154.619 75.7233Z" fill="#F2F7FE"/>
<path d="M152.505 73.0168L152.754 73.7613L153.191 73.7335L152.851 73.4343L152.505 73.0168Z" fill="#F2F7FE"/>
<path d="M146.683 74.1439C146.635 74.2413 146.551 74.7423 146.378 75.1736C146.274 75.431 146.129 75.6537 145.941 75.7441C145.442 75.9876 144.562 75.6815 144.562 75.6815C144.562 75.6815 143.1 75.925 142.954 75.8763C142.809 75.8276 142.545 73.9074 142.545 73.9074C142.545 73.9074 143.626 72.7942 143.723 72.7594C143.82 72.7247 144.687 73.0586 144.832 73.0447C144.978 73.0377 145.782 72.502 146.018 72.6133C146.246 72.7107 146.759 73.9909 146.683 74.1439Z" fill="white"/>
<path d="M144.833 73.0377C144.833 73.0377 144.611 73.5595 144.541 73.6082C144.472 73.6569 143.73 72.7525 143.73 72.7525C143.828 72.7177 144.687 73.0447 144.833 73.0377Z" fill="#C4D9E8"/>
<path d="M146.032 73.1073C146.032 73.1073 145.041 74.0188 145.055 74.0953C145.075 74.1718 146.226 74.6658 146.267 74.6449C146.309 74.6241 145.99 73.9979 145.997 73.8866C145.997 73.7822 146.032 73.1073 146.032 73.1073Z" fill="#DFEBF5"/>
<path d="M146.683 74.1439C146.635 74.2413 146.552 74.7423 146.378 75.1736L146.441 74.2205L146.011 72.6064C146.247 72.7107 146.76 73.9909 146.683 74.1439Z" fill="#C4D9E8"/>
<path d="M144.569 75.6815C144.569 75.6815 143.107 75.925 142.961 75.8763C142.815 75.8276 142.552 73.9074 142.552 73.9074C142.552 73.9074 142.933 74.8745 142.947 74.9232C142.954 74.9719 143.405 74.8327 143.405 74.8327L144.569 75.6815Z" fill="#DFEBF5"/>
<path d="M142.926 73.8726L143.12 74.3736L143.46 74.3527L143.197 74.1579L142.926 73.8726Z" fill="#DFEBF5"/>
<path d="M88.8637 52.0197C88.8637 52.0197 85.0862 50.9274 84.0396 51.2336C83.298 51.4492 82.3484 52.5485 81.8563 53.1746C81.7108 53.3555 81.8425 53.6269 82.0781 53.6269C82.7088 53.6199 83.7347 53.5782 84.2684 53.2999C84.7743 53.0355 85.5229 53.6199 86.3615 53.6269C87.0061 53.6269 87.8309 53.6269 87.8309 53.6269L88.8637 52.0197Z" fill="#FFB27D"/>
</g>
<defs>
<clipPath id="clip0">
<rect width="184" height="109" fill="white"/>
</clipPath>
</defs>
</svg>
