<svg width="219" height="122" viewBox="0 0 219 122" fill="none" xmlns="http://www.w3.org/2000/svg">
<g clip-path="url(#clip0)">
<path d="M10.3152 122C10.3152 122 -5.72077 103.982 2.20468 69.1872C7.19329 47.3034 28.3627 33.8203 56.2185 37.4931C82.0064 40.8921 81.5799 27.2479 104.141 14.2159C152.41 -13.6443 222.227 -1.81236 205.523 60.8589C197.436 91.1918 230.957 91.6751 214.301 121.992H10.3152V122Z" fill="#EBF3FA"/>
<path d="M147.075 8.53763L144.822 8.43292H144.766C144.492 8.42487 144.251 8.61817 144.211 8.88397L143.921 10.7445C143.913 10.7768 143.913 10.809 143.897 10.8331C143.824 11.0264 143.647 11.1795 143.438 11.1875C142.191 11.2922 140.976 11.6386 139.866 12.2185C139.817 12.2427 139.769 12.2588 139.721 12.2668C139.536 12.299 139.343 12.2346 139.214 12.0977L138.184 10.9137C138.047 10.7606 137.83 10.6962 137.637 10.7526C137.581 10.7687 137.516 10.7929 137.468 10.8331L135.577 12.1541C135.344 12.3151 135.271 12.6373 135.416 12.879L136.462 14.6912C136.567 14.8684 136.559 15.0939 136.438 15.2631C136.269 15.5127 136.116 15.7624 135.971 16.0282C135.698 16.5276 135.481 17.035 135.304 17.5505C135.231 17.768 135.038 17.913 134.813 17.921L132.689 18.0096L132.584 18.0177C132.31 18.0257 132.085 18.2432 132.077 18.5251L131.972 20.8286C131.964 21.1106 132.157 21.3602 132.439 21.4005L134.507 21.7227C134.74 21.7549 134.917 21.9402 134.958 22.1657C135.127 23.1242 135.44 24.0585 135.899 24.9203C136.012 25.1378 135.963 25.4116 135.77 25.5727L134.37 26.805C134.161 26.9903 134.121 27.3044 134.282 27.538L135.609 29.4388C135.77 29.6643 136.068 29.7288 136.301 29.5918L138.425 28.3595C138.602 28.2548 138.828 28.2629 139.005 28.3756C139.222 28.5206 139.439 28.6495 139.673 28.7783C140.107 29.02 140.55 29.2133 140.992 29.3824C141.193 29.4549 141.338 29.6402 141.346 29.8576L141.443 32.4109C141.459 32.6928 141.676 32.9183 141.958 32.9264L144.267 33.0311C144.508 33.0391 144.734 32.878 144.806 32.6525C144.814 32.6283 144.822 32.6042 144.822 32.58L145.184 30.2765C145.216 30.059 145.369 29.8899 145.578 29.8335C145.595 29.8254 145.619 29.8254 145.635 29.8174C145.691 29.8093 145.747 29.8013 145.804 29.7851C146.464 29.6724 147.107 29.4871 147.735 29.2374C147.944 29.1488 148.185 29.2133 148.33 29.3824L149.626 30.8644C149.811 31.0739 150.125 31.1141 150.35 30.953L150.768 30.6631L152.233 29.6321C152.466 29.471 152.53 29.165 152.394 28.9153L151.356 27.1352C151.243 26.9419 151.267 26.7084 151.404 26.5392C151.774 26.0962 152.104 25.6049 152.394 25.0733C152.611 24.6787 152.796 24.2759 152.949 23.8732L153.391 23.8571L155.218 23.7846C155.443 23.7766 155.636 23.6235 155.701 23.4141C155.717 23.3738 155.725 23.3255 155.725 23.2772L155.837 20.9575C155.845 20.6837 155.652 20.442 155.379 20.4018L153.963 20.1843C153.721 20.144 153.536 19.9507 153.512 19.7091C153.415 18.7103 153.166 17.7358 152.772 16.8176C152.675 16.6001 152.732 16.3504 152.909 16.2054L154.679 14.6509C154.872 14.4737 154.912 14.1838 154.759 13.9663L153.415 12.0493C153.255 11.8238 152.949 11.7513 152.715 11.8963L150.503 13.177C150.31 13.2897 150.076 13.2736 149.899 13.1367C149.529 12.8467 149.119 12.5809 148.692 12.3474C148.459 12.2185 148.226 12.1057 147.992 11.993C147.807 11.9124 147.687 11.7272 147.67 11.5258L147.574 9.07727C147.582 8.77926 147.365 8.55374 147.075 8.53763ZM140.083 17.6149C140.445 17.1075 140.904 16.6323 141.483 16.2215C141.604 16.1329 141.748 16.0524 141.909 15.9718C142.593 15.6336 143.519 15.408 144.178 15.4403C149.256 15.706 151.066 21.7388 147.067 24.7592C147.003 24.8075 146.93 24.8559 146.866 24.9042C146.23 25.3552 145.055 25.6855 144.283 25.6532C143.873 25.6371 143.486 25.5807 143.124 25.5002C139.479 24.6303 138.039 20.5226 140.083 17.6149Z" fill="#DFEDFB"/>
<path d="M177.634 24.5901L174.198 24.0021L174.118 23.986C173.699 23.9135 173.297 24.1713 173.184 24.574L172.388 27.3689C172.372 27.4172 172.356 27.4575 172.34 27.4977C172.195 27.7877 171.897 27.9729 171.567 27.9568C169.636 27.8763 167.713 28.1743 165.903 28.8509C165.83 28.875 165.75 28.8911 165.677 28.8992C165.388 28.9153 165.098 28.7784 164.929 28.5367L163.569 26.5231C163.392 26.2573 163.07 26.1285 162.773 26.1687C162.684 26.1849 162.588 26.209 162.491 26.2573L159.345 27.9166C158.959 28.1179 158.79 28.5931 158.959 28.9958L160.222 31.9679C160.343 32.2579 160.286 32.5962 160.077 32.8378C159.771 33.1841 159.49 33.5385 159.216 33.9171C158.701 34.6259 158.267 35.3588 157.897 36.124C157.744 36.4381 157.422 36.6314 157.068 36.5992L153.801 36.3253L153.64 36.3092C153.222 36.269 152.836 36.567 152.763 36.9858L152.152 40.5136C152.079 40.9405 152.337 41.3593 152.755 41.4802L155.869 42.3742C156.215 42.4709 156.456 42.785 156.473 43.1394C156.553 44.6455 156.851 46.1276 157.382 47.5371C157.511 47.8995 157.382 48.3022 157.068 48.5117L154.686 50.1225C154.324 50.3722 154.212 50.8394 154.413 51.226L156.078 54.3833C156.279 54.7538 156.73 54.9149 157.108 54.7538L160.6 53.2718C160.898 53.1429 161.236 53.1993 161.485 53.4087C161.783 53.6665 162.097 53.9162 162.427 54.1497C163.046 54.6008 163.682 54.9874 164.334 55.3257C164.631 55.4787 164.808 55.7928 164.776 56.1231L164.438 60.0536C164.406 60.4885 164.704 60.8752 165.13 60.9476L168.654 61.5517C169.025 61.6162 169.395 61.4148 169.548 61.0765C169.564 61.0443 169.58 61.004 169.588 60.9638L170.577 57.5084C170.666 57.1862 170.94 56.9527 171.269 56.9043C171.302 56.8963 171.326 56.8963 171.358 56.8963C171.446 56.8963 171.527 56.8963 171.615 56.8802C172.645 56.8318 173.675 56.6708 174.681 56.405C175.011 56.3083 175.373 56.4452 175.566 56.7432L177.272 59.2562C177.513 59.6106 177.988 59.7314 178.366 59.5301L179.066 59.1596L181.504 57.8628C181.89 57.6615 182.051 57.2024 181.882 56.7996L180.643 53.8678C180.506 53.5537 180.587 53.1993 180.836 52.9657C181.48 52.3536 182.083 51.669 182.631 50.9119C183.033 50.3561 183.395 49.7681 183.709 49.1802L184.393 49.2365L187.201 49.4701C187.547 49.5023 187.877 49.309 188.013 48.9949C188.046 48.9305 188.062 48.866 188.078 48.7936L188.689 45.2577C188.762 44.8388 188.496 44.4361 188.094 44.3153L185.97 43.7112C185.608 43.6065 185.358 43.2682 185.366 42.8977C185.415 41.3513 185.221 39.8048 184.787 38.3309C184.682 37.9846 184.811 37.6141 185.109 37.4207L188.118 35.383C188.456 35.1494 188.569 34.7064 188.376 34.344L186.686 31.1544C186.485 30.7759 186.034 30.6148 185.648 30.7839L182.011 32.3223C181.697 32.4592 181.343 32.3867 181.094 32.1451C180.579 31.6296 180.008 31.1464 179.396 30.7034C179.066 30.4617 178.728 30.2362 178.382 30.0349C178.117 29.8738 177.964 29.5677 177.98 29.2536L178.302 25.4841C178.358 25.0572 178.06 24.6706 177.634 24.5901ZM165.17 37.1469C165.822 36.4381 166.619 35.8018 167.584 35.2863C167.785 35.1736 168.027 35.0769 168.284 34.9803C169.395 34.5937 170.859 34.4245 171.865 34.6017C179.597 35.979 181.214 45.5799 174.496 49.4379C174.383 49.5023 174.271 49.5587 174.158 49.6232C173.096 50.187 171.237 50.4769 170.054 50.2756C169.435 50.1709 168.848 50.0098 168.308 49.8165C162.909 47.7868 161.485 41.2063 165.17 37.1469Z" fill="#CDE3FD"/>
<path d="M63.5963 49.5587C63.4032 44.7663 67.4182 42.64 71.5217 42.64C75.6253 42.64 80.0909 43.7031 80.4771 50.0742C80.7265 54.1739 78.546 56.6949 72.2539 56.6949C70.1378 56.6949 68.4883 56.3566 67.2251 55.7606L64.0791 58.5555L65.6239 54.6893C64.2561 53.4167 63.6768 51.6206 63.5963 49.5587Z" fill="#DFEDFB"/>
<path d="M24.5567 121.766C24.5567 121.766 24.3877 120.437 23.9935 119.648C23.5992 118.859 21.0888 119.358 21.0888 119.358C21.0888 119.358 20.5899 119.785 20.4773 121.799L24.5567 121.766Z" fill="#233862"/>
<path d="M33.1096 121.75C32.5222 121.388 32.8521 118.698 32.8521 118.698C32.8521 118.698 35.6039 116.499 35.982 118.182C36.3602 119.866 38.597 120.623 39.8683 120.832C40.7454 120.977 41.0189 121.46 41.0994 121.75H33.1096Z" fill="#233862"/>
<path d="M27.4205 102.194C27.5332 102.814 27.6056 103.314 27.6217 103.684C27.8791 108.67 31.8137 120.083 32.5218 120.349C33.616 120.76 35.3299 119.882 36.231 119.6C36.6012 119.479 36.8506 119.108 36.7701 118.722C34.823 109.741 34.0988 96.8139 33.8413 89.1622C33.7126 85.3042 33.0448 82.6462 33.0448 82.6462C33.0448 82.6462 23.4377 80.0769 23.3813 83.3228C23.325 86.1902 26.5596 97.4583 27.4205 102.194Z" fill="#213F7A"/>
<path d="M27.4205 102.194L33.8413 89.1541C33.7126 85.2961 33.0448 82.6381 33.0448 82.6381C33.0448 82.6381 23.4377 80.0688 23.3813 83.3147C23.325 86.1901 26.5596 97.4582 27.4205 102.194Z" fill="#233862"/>
<path d="M29.5526 83.3308L24.4755 120.188C24.4755 120.188 22.2467 120.727 20.5087 120.292C20.5087 120.292 19.0202 100.688 19.1489 95.9521C19.2696 91.2161 18.0788 83.2745 19.4225 82.3965C20.7582 81.5186 29.5526 83.3308 29.5526 83.3308Z" fill="#213F7A"/>
<path d="M19.0606 73.8669L18.425 82.7187C18.4008 83.0489 18.61 83.355 18.9319 83.4436C19.64 83.653 20.4607 83.7899 22.0297 84.1202C23.5102 84.4262 25.4976 84.7001 27.9436 84.7162C31.8379 84.7403 33.3104 83.3953 33.3104 83.3953C33.4793 83.3953 33.2219 82.5818 32.9885 78.7076C32.9081 77.3947 32.8356 75.7275 32.7793 73.6253C32.731 71.7325 32.6989 69.4853 32.6908 66.8193C32.6828 63.6137 27.7263 60.1583 27.6298 60.1583C27.6298 60.6174 26.9056 61.4712 25.7792 61.5437C24.4516 61.6323 22.8182 60.9718 22.8182 60.1986C22.8182 60.1905 20.4124 64.0486 19.5595 68.1563C19.4468 68.6799 19.3664 69.2276 19.302 69.8075C19.302 69.8155 19.302 69.8236 19.302 69.8317C19.2859 69.9364 19.2779 70.0411 19.2698 70.1538C19.2698 70.1699 19.2698 70.1941 19.2618 70.2102C19.2537 70.3069 19.2457 70.4035 19.2296 70.5082C19.2296 70.5324 19.2216 70.5646 19.2216 70.5968C19.2135 70.6854 19.2055 70.774 19.1974 70.8707C19.1974 70.8787 19.1974 70.8868 19.1974 70.8948C19.1894 70.9593 19.1894 71.0318 19.1813 71.0962C19.1813 71.1445 19.1733 71.1928 19.1733 71.2412C19.1652 71.3217 19.1652 71.4023 19.1572 71.4828C19.1572 71.5231 19.1491 71.5633 19.1491 71.6036C19.1411 71.6842 19.1411 71.7567 19.133 71.8372C19.133 71.8694 19.125 71.9097 19.125 71.9419C19.117 72.0547 19.1089 72.1674 19.1089 72.2802C19.1089 72.2882 19.1089 72.2963 19.1089 72.3044C19.1009 72.4171 19.1009 72.5218 19.0928 72.6346C19.0928 72.6587 19.0928 72.691 19.0928 72.7151C19.0848 72.8198 19.0848 72.9245 19.0767 73.0293C19.0767 73.0454 19.0767 73.0615 19.0767 73.0776C19.0848 73.3434 19.0767 73.6011 19.0606 73.8669C19.0606 73.875 19.0606 73.883 19.0606 73.8911V73.8669Z" fill="#01BA57"/>
<path d="M27.6538 60.1584C27.6538 60.1584 32.2642 60.1181 33.3746 61.6806C34.485 63.2432 36.923 71.6278 35.6517 74.4147C34.3804 77.2015 32.0068 73.2629 30.6872 71.5473C29.3596 69.8398 27.6538 60.1584 27.6538 60.1584Z" fill="#01BA57"/>
<path d="M27.7027 59.4576V59.9328C27.7027 59.9328 27.8314 61.4229 25.9969 61.6404C24.1624 61.8578 22.8026 61.3585 22.8509 60.2067C23.0198 59.3126 23.1647 58.4025 23.1807 57.6695C23.1888 57.3957 23.1647 57.1057 23.1164 56.7755L26.6728 56.703L27.7188 56.8721L27.7027 59.4576Z" fill="#FFB27D"/>
<path d="M27.7105 56.8721L27.6945 59.4576C27.3163 59.6348 26.8898 59.7395 26.4151 59.7395C24.7818 59.7395 23.7197 58.5394 23.1725 57.6695C23.1806 57.3957 23.1564 57.1057 23.1082 56.7755L26.6645 56.703L27.7105 56.8721Z" fill="#E2915A"/>
<path d="M22.8348 56.1955C23.2452 58.4186 26.1177 58.3461 27.3568 58.2091C27.7028 58.1689 27.928 58.1286 27.928 58.1286C28.3223 58.0239 28.5396 57.4037 28.6442 56.5902C28.8453 54.9793 28.5878 52.6274 28.3223 52.0234C27.912 51.1132 27.1476 50.1306 24.259 50.8394C21.3544 51.5481 22.3038 53.3523 22.8348 56.1955Z" fill="#FFB27D"/>
<path d="M32.3694 66.4085C32.3694 66.4085 34.1556 70.3552 34.0993 71.5392C34.0993 71.5392 33.2142 71.5069 32.3694 71.7647C30.9774 72.1755 32.3694 66.4085 32.3694 66.4085Z" fill="#12954F"/>
<path d="M29.1986 49.9051C29.1986 49.9051 27.9273 49.8084 26.4307 49.156C25.2157 48.6244 23.6789 49.2124 23.18 49.4701C23.1961 49.3896 23.2283 49.2768 23.3007 49.1721C23.3007 49.1721 23.0754 49.3332 23.0433 49.5507C23.0191 49.5668 23.0111 49.5829 23.0191 49.5829C23.0191 49.5829 22.7616 49.5346 22.6007 49.6071C22.6007 49.6071 22.7134 49.5909 22.7536 49.6634C22.7616 49.6715 22.7616 49.6795 22.7697 49.6876C20.8708 50.6058 20.6938 53.6101 21.3053 54.3028C22.0375 55.1404 22.9226 57.0252 22.9226 57.0252C22.9226 57.0252 23.2444 56.5822 23.1076 55.8412C22.9708 55.1082 23.6065 55.1082 24.4111 54.7699C25.2157 54.4316 24.5479 53.4973 25.2479 52.9335C25.9479 52.3617 28.5227 52.6999 28.4905 52.265C29.4399 51.9106 29.1986 50.0017 29.1986 49.9051Z" fill="#233862"/>
<path d="M22.2471 73.8025C23.0034 76.8309 31.1461 78.3935 32.9967 78.7157C32.9163 77.4028 32.8438 75.7356 32.7875 73.6334L22.2471 73.8025Z" fill="#12954F"/>
<path d="M24.0414 74.7851C23.9609 74.7851 22.231 74.5274 21.9172 74.3744C21.6034 74.2213 20.1873 72.1997 21.1206 71.6842C22.054 71.1687 24.5483 73.2387 24.5483 73.2387L24.0414 74.7851Z" fill="#FFB27D"/>
<path d="M34.5818 75.3811C34.5818 75.3811 27.8793 75.7436 23.3815 74.777C23.3815 74.777 23.2689 73.4722 24.685 72.9004C24.685 72.9004 31.6932 71.4103 33.3829 71.8291C35.0565 72.2479 34.5818 75.3811 34.5818 75.3811Z" fill="#01BA57"/>
<path d="M19.1896 70.1136C20.5815 71.7889 22.4 73.1662 24.4035 73.4884C24.4196 73.4642 25.0069 72.5621 24.9023 71.2493C24.8541 70.6371 24.6529 69.9364 24.1701 69.1954C24.0253 68.9699 23.8885 68.696 23.7759 68.398C22.6816 65.6031 22.8425 60.2147 22.8425 60.2147C22.8425 60.2147 18.1918 60.706 16.7435 62.776C15.8585 64.0325 16.9849 67.4637 19.1896 70.1136Z" fill="#01BA57"/>
<path d="M27.3486 58.2091C27.6946 58.1689 27.9199 58.1286 27.9199 58.1286C28.3141 58.0239 28.5314 57.4037 28.636 56.5902C27.8957 56.7755 27.5578 57.3393 27.421 57.589C27.3566 57.6937 27.3405 57.9353 27.3486 58.2091Z" fill="#E2915A"/>
<path d="M29.2233 59.4657C29.2233 59.4657 30.8325 56.8158 29.5773 56.695C28.3301 56.5822 27.8232 57.4279 27.6462 57.734C27.4692 58.0481 27.6945 59.4496 27.6945 59.4496L29.2233 59.4657Z" fill="#FFB27D"/>
<path d="M23.1082 71.1606C23.1565 71.4989 23.2611 71.805 23.3818 72.0788C23.776 72.9487 24.4036 73.4884 24.4036 73.4884C28.5715 71.6036 29.4164 65.136 29.5612 61.5759C29.6175 60.1503 29.5612 59.1918 29.5612 59.1918C27.6784 58.5716 27.1474 59.6509 27.1474 59.6509C27.1474 59.6509 24.9266 64.9426 23.776 68.398C23.3335 69.7189 23.0519 70.774 23.1082 71.1606Z" fill="#01BA57"/>
<path d="M19.1895 70.1135C20.5814 71.7888 22.3999 73.1661 24.4033 73.4883C28.5712 71.6036 29.4161 65.1359 29.5609 61.5759C29.5609 61.5759 27.5896 68.7443 24.9022 71.2411C24.4194 71.6922 23.9045 71.9983 23.3815 72.0707C23.3815 72.0707 19.9941 71.1123 19.286 70.2102C19.2297 70.1538 19.1975 70.1216 19.1895 70.1135Z" fill="#12954F"/>
<path d="M152.329 93.2055C152.329 93.2055 154.976 90.0965 152.482 88.1313C152.482 88.1313 150.656 87.0359 149.175 87.1245C149.175 87.1245 151.291 90.6523 150.607 91.0067C149.924 91.3611 148.532 86.907 148.532 86.907C148.532 86.907 144.388 86.5123 143.052 87.1647C143.052 87.1647 146.609 90.0563 145.86 90.2335C145.112 90.4107 141.274 87.5675 141.274 87.5675C141.274 87.5675 137.42 88.236 137.629 90.5879C137.838 92.9478 139.174 93.6646 139.761 93.6002C140.349 93.5358 143.76 92.2229 143.833 92.6981C143.905 93.1733 141.853 94.752 140.413 94.8245C140.413 94.8245 143.141 97.8207 144.951 96.9508C146.753 96.081 146.906 94.7037 148.033 94.1882C149.159 93.6727 150.117 93.6646 149.658 94.1962C149.191 94.7198 147.156 95.2433 146.512 96.379C145.868 97.5227 145.297 98.2959 147.164 98.006C149.03 97.716 152.072 96.3387 152.201 94.7681C152.329 93.2055 152.329 93.2055 152.329 93.2055Z" fill="#C8DBF4"/>
<path d="M139.528 90.6442C139.528 90.6442 150.012 90.2093 152.329 93.2055C152.329 93.2055 152.844 94.7358 154.421 96.1292L154.671 96.7978C154.671 96.7978 152.852 94.8889 152.2 94.7681C152.2 94.7761 153.206 91.055 139.528 90.6442Z" fill="#C8DBF4"/>
<path d="M154.429 96.1293C154.429 96.1293 156.682 97.7885 156.851 100.761L156.441 100.801C156.441 100.801 155.717 97.7241 154.413 96.524C153.11 95.3319 154.429 96.1293 154.429 96.1293Z" fill="#C8DBF4"/>
<path d="M166.386 84.9981C166.386 84.9981 162.154 82.6381 164.117 79.4164C164.117 79.4164 165.694 77.435 167.384 76.9275C167.384 76.9275 166.499 81.728 167.4 81.8407C168.301 81.9535 168.004 76.4201 168.004 76.4201C168.004 76.4201 172.453 74.2615 174.199 74.4307C174.199 74.4307 171.447 79.1264 172.349 79.0056C173.25 78.8848 176.339 74.1407 176.339 74.1407C176.339 74.1407 180.902 73.2789 181.642 75.9852C182.382 78.6915 181.199 80.0527 180.523 80.2218C179.848 80.3909 175.503 80.3507 175.623 80.9145C175.736 81.4783 178.673 82.3723 180.306 81.8649C180.306 81.8649 178.512 86.327 176.146 86.1096C173.781 85.8921 173.04 84.4262 171.576 84.3134C170.112 84.2007 169.042 84.6034 169.774 84.9981C170.506 85.3927 172.984 85.1189 174.175 86.1257C175.366 87.1325 176.323 87.7446 174.127 88.2037C171.93 88.6628 167.979 88.389 167.191 86.6975C166.386 84.9981 166.386 84.9981 166.386 84.9981Z" fill="#C8DBF4"/>
<path d="M179.558 76.8389C179.558 76.8389 167.73 80.7131 166.386 85.0061C166.386 85.0061 166.451 86.9231 165.268 89.13V89.9757C165.268 89.9757 166.499 87.0922 167.175 86.6975C167.183 86.6895 164.52 82.9764 179.558 76.8389Z" fill="#C8DBF4"/>
<path d="M165.276 89.1219C165.276 89.1219 163.457 91.9007 164.511 95.2754L164.978 95.1466C164.978 95.1466 164.511 91.4254 165.461 89.5488C166.41 87.6801 165.276 89.1219 165.276 89.1219Z" fill="#C8DBF4"/>
<path d="M159.651 81.7521C159.651 81.7521 165.219 78.6109 162.604 74.3743C162.604 74.3743 160.512 71.7728 158.283 71.1123C158.283 71.1123 159.49 77.435 158.299 77.588C157.109 77.7411 157.463 70.4438 157.463 70.4438C157.463 70.4438 151.581 67.6328 149.28 67.8664C149.28 67.8664 152.941 74.028 151.75 73.883C150.559 73.738 146.456 67.4959 146.456 67.4959C146.456 67.4959 140.429 66.4005 139.48 69.9686C138.522 73.5447 140.091 75.3247 140.984 75.5422C141.877 75.7597 147.598 75.6711 147.453 76.4201C147.308 77.1611 143.446 78.3693 141.29 77.7008C141.29 77.7008 143.688 83.5724 146.802 83.2664C149.923 82.9603 150.881 81.0192 152.812 80.8662C154.743 80.7131 156.159 81.2286 155.194 81.7521C154.228 82.2757 150.961 81.9374 149.4 83.2664C147.84 84.5954 146.584 85.425 149.481 86.0049C152.378 86.5928 157.583 86.2062 158.621 83.9671C159.651 81.7521 159.651 81.7521 159.651 81.7521Z" fill="#D4E4F8"/>
<path d="M142.231 71.0801C142.231 71.0801 157.857 76.098 159.651 81.7441C159.651 81.7441 159.587 84.2732 161.156 87.1728V88.2923C161.156 88.2923 159.507 84.4987 158.613 83.9832C158.613 83.9832 162.097 79.062 142.231 71.0801Z" fill="#D4E4F8"/>
<path d="M161.156 87.1728C161.156 87.1728 163.57 90.8214 162.21 95.2835L161.59 95.1225C161.59 95.1225 162.178 90.2173 160.915 87.7527C159.643 85.288 161.156 87.1728 161.156 87.1728Z" fill="#D4E4F8"/>
<path d="M195.987 121.122L150.221 121.235C143.414 113.43 142.722 102.887 151.766 94.0029C152.9 92.8833 155.081 92.094 157.438 91.5382C161.775 90.5073 166.683 90.2737 166.724 90.2576C166.74 90.2495 169.322 88.1554 170.875 86.2707C175.703 80.4232 179.815 80.9225 179.815 80.9225C184.739 79.9641 188.931 79.6902 192.045 81.4219C194.925 83.0328 196.88 86.3754 197.605 92.5128C197.741 93.6727 197.838 94.9372 197.886 96.3064C198.063 101.292 199.045 105.722 199.624 109.475C200.469 114.904 200.469 118.915 195.987 121.122Z" fill="#01BA57"/>
<path d="M189.607 87.5675C186.622 89.1945 186.284 94.5587 181.617 95.944C176.942 97.3294 169.009 97.2005 164.511 102.081C160.166 106.793 155.387 94.8003 157.446 91.4255C161.783 90.3946 166.691 90.161 166.732 90.1449C166.748 90.1368 169.33 88.0427 170.883 86.158C175.711 80.3105 179.823 80.8099 179.823 80.8099C184.747 79.8514 188.939 79.5775 192.053 81.3092C193.622 83.0409 192.592 85.9405 189.607 87.5675Z" fill="#12954F"/>
<path d="M171.27 89.1058C171.27 89.1058 156.288 88.9125 154.285 90.1851C152.289 91.4658 156.345 111.779 156.345 111.779C156.345 111.779 160.223 111.892 160.529 110.861C160.529 110.861 159.804 101.34 160.408 99.6893C161.011 98.0462 160.633 95.7668 160.633 95.7668C160.633 95.7668 168.221 96.9025 170.618 96.3306C173.016 95.7588 171.27 89.1058 171.27 89.1058Z" fill="#233862"/>
<path d="M174.738 78.6029C174.738 78.611 172.63 83.5241 171.6 84.0477C170.57 84.5712 166.852 88.8481 166.056 88.7756C165.259 88.7031 166.989 89.428 166.989 89.428C166.989 89.428 173.49 86.4237 173.869 86.2385C174.247 86.0532 176.242 82.767 176.516 81.1078C176.789 79.4406 174.738 78.6029 174.738 78.6029Z" fill="#FFB27D"/>
<path d="M161.011 113.293C160.512 114.26 160.4 116.032 160.247 116.636C160.102 117.24 157.479 119.286 157.254 119.181C156.682 118.923 157.229 117.924 157.575 117.192C157.591 117.159 157.6 117.135 157.616 117.103C157.962 116.37 157.664 114.727 157.841 113.873C158.018 113.027 157.157 110.74 157.157 110.74L158.605 108.912C158.605 108.912 159.619 110.845 160.351 111.199C160.48 111.264 160.601 111.336 160.705 111.425C161.204 111.835 161.421 112.504 161.011 113.293Z" fill="#FFB27D"/>
<path d="M155.926 118.947C154.92 119.358 153.697 120.647 153.19 121.009C152.691 121.372 149.368 121.243 149.264 121.017C148.982 120.429 150.141 120.011 150.881 119.664C150.889 119.656 150.905 119.656 150.913 119.648C151.645 119.278 152.458 117.868 153.134 117.345C153.818 116.813 154.63 114.509 154.63 114.509L156.916 114.042C156.916 114.042 156.449 116.177 156.771 116.918C156.803 116.99 156.827 117.055 156.851 117.127C157.06 117.828 156.835 118.569 155.926 118.947Z" fill="#FFB27D"/>
<path d="M179.043 76.4282C178.737 76.0738 183.557 74.624 184.587 78.5787C184.587 78.5787 193.453 76.2188 188.006 72.2641C186.115 70.8948 185.93 69.437 185.657 68.1C185.383 66.7629 183.5 62.921 180.234 64.8299C180.234 64.8299 178.737 64.8379 177.796 65.6595C175.639 67.512 173.29 79.36 179.043 76.4282Z" fill="#163560"/>
<path d="M177.538 89.7986C177.538 89.7986 162.001 91.3772 160.633 92.964C159.265 94.5507 153.898 115.202 153.898 115.202C153.898 115.202 155.483 116.088 156.924 115.259C156.924 115.259 161.035 108.251 162.854 106.052C164.672 103.854 165.356 97.0636 165.654 96.9912C165.951 96.9187 175.695 98.3524 179.042 95.7749C182.398 93.2136 177.538 89.7986 177.538 89.7986Z" fill="#2A4E96"/>
<path d="M186.187 75.6872C186.187 75.6872 182.478 74.028 177.779 74.7851C176.822 74.9382 175.953 75.2523 175.269 76.388C174.295 77.9908 173.844 78.8445 173.844 78.8445C173.844 78.8445 173.941 79.5855 175.261 80.1735C174.899 81.5025 175.59 83.8141 174.955 84.7162C174.319 85.6183 170.369 87.8413 170.175 89.0817C169.813 91.3611 176.926 95.493 179.042 95.05C185.141 93.7935 189.285 77.435 186.187 75.6872Z" fill="#F9DDBF"/>
<path d="M184.095 70.9915C184.095 70.9915 184.827 69.5498 184.924 68.3739C184.996 67.5281 184.28 64.4997 181.239 65.2326C181.239 65.2326 180.354 65.4018 179.565 66.0542C178.938 66.5697 178.061 67.6409 179.396 70.2183L179.758 71.0962L184.095 70.9915Z" fill="#163560"/>
<path d="M179.919 75.8483C179.613 76.1705 179.734 77.2497 181.174 77.1692C182.124 77.1128 184.143 75.9449 183.958 75.1395C183.87 74.7529 183.138 73.7622 182.969 71.4828L182.8 71.5311L179.911 72.3446C179.911 72.3446 180.048 73.2628 180.12 74.1327C180.177 74.8656 180.048 75.7114 179.919 75.8483Z" fill="#FFB27D"/>
<path d="M179.911 72.3447C179.911 72.3447 180.048 73.2629 180.12 74.1328C181.754 73.9556 182.51 72.393 182.8 71.5312L179.911 72.3447Z" fill="#F4A269"/>
<path d="M179.847 73.6817C179.847 73.6817 183.62 72.7313 182.993 70.3874C182.365 68.0436 182.43 66.3361 179.992 66.8435C177.554 67.3509 177.328 68.3738 177.344 69.2034C177.369 70.0411 178.849 73.8669 179.847 73.6817Z" fill="#FFB27D"/>
<path d="M178.27 67.2462C178.27 67.2462 179.541 69.6625 181.931 69.9283C183.331 70.0814 183.717 71.0076 183.717 71.0076C183.717 71.0076 183.299 68.3658 182.591 66.7549C182.591 66.7468 178.688 65.7239 178.27 67.2462Z" fill="#163560"/>
<path d="M178.696 67.5684C178.696 67.5684 177.868 68.4141 177.61 69.0101C177.232 69.8961 177.972 71.7486 178.27 72.1513C178.27 72.1513 176.516 69.1631 177.103 67.8744C177.731 66.4971 178.696 67.5684 178.696 67.5684Z" fill="#163560"/>
<path d="M167.183 89.3394C167.183 89.3394 166.434 90.1368 166.338 90.1771C165.839 90.4107 165.211 90.2738 164.905 90.3543C164.6 90.4268 164.656 90.2416 164.881 90.0885C165.107 89.9355 165.654 89.9919 165.428 89.9355C165.203 89.8791 163.988 89.6536 163.53 89.7744C162.805 89.9677 162.234 89.7422 162.186 89.6697C162.138 89.5972 163.843 88.7676 164.326 88.7917C164.809 88.8159 166.209 88.7515 166.209 88.7515L167.183 89.3394Z" fill="#FFB27D"/>
<path d="M187.467 77.1611C187.467 77.1611 187.917 88.252 186.614 89.8065C185.318 91.353 177.393 89.6374 177.393 89.6374L176.846 88.8239C176.846 88.8239 183.878 87.7929 184.353 87.656C185.029 87.4627 184.562 79.8271 184.562 79.8271L187.467 77.1611Z" fill="#FFB27D"/>
<path d="M185.721 75.51C185.833 75.51 187.233 75.9772 188.239 77.9666C189.229 79.9238 189.583 80.8742 189.583 80.8742C189.583 80.8742 185.198 84.2732 183.46 83.0247C181.714 81.7683 184.111 75.4697 185.721 75.51Z" fill="#F9DDBF"/>
<path d="M177.393 89.6293C177.393 89.6293 176.766 90.2656 176.524 90.5959C176.283 90.9261 174.609 91.5141 174.569 91.3369C174.529 91.1597 175.317 90.6281 175.39 90.4348C175.462 90.2334 176.323 89.2347 176.846 89.1219C177.369 89.0092 177.393 89.6293 177.393 89.6293Z" fill="#FFB27D"/>
<path d="M176.846 88.8239C176.846 88.8239 174.263 89.4199 173.82 89.6052C173.378 89.7824 172.452 91.1033 172.823 91.2966C173.056 91.4174 174.078 90.8858 174.593 90.7731C175.108 90.6603 176.58 90.9181 177.248 89.5891C177.328 89.436 176.846 88.8239 176.846 88.8239Z" fill="#FFB27D"/>
<path d="M155.926 118.947C154.92 119.358 153.697 120.647 153.19 121.009C152.691 121.372 149.368 121.243 149.264 121.017C148.982 120.429 150.141 120.011 150.881 119.664C150.889 119.656 150.905 119.656 150.913 119.648L151.018 119.616C151.018 119.616 152.45 120.123 153.641 119.616C154.566 119.221 155.942 117.739 156.851 117.135C157.06 117.828 156.835 118.569 155.926 118.947Z" fill="#2E3552"/>
<path d="M161.011 113.293C160.512 114.26 160.4 116.032 160.247 116.636C160.102 117.24 157.479 119.286 157.254 119.181C156.682 118.923 157.229 117.925 157.575 117.192C157.785 117.175 158.058 117.111 158.372 116.894C159.024 116.459 160.134 114.807 160.239 113.833C160.319 113.044 160.271 111.908 160.705 111.425C161.204 111.835 161.421 112.504 161.011 113.293Z" fill="#2E3552"/>
<path d="M173.515 91.6269H162.25L158.863 83.1939H170.111L173.515 91.6269Z" fill="#F99746"/>
<path d="M162.121 91.2966H176.99V91.6269H162.25L162.121 91.2966Z" fill="#ED7D2B"/>
<path d="M165.099 87.4144C165.01 87.1164 165.187 86.8748 165.485 86.8748C165.783 86.8748 166.088 87.1164 166.177 87.4144C166.265 87.7124 166.088 87.954 165.791 87.954C165.493 87.946 165.179 87.7124 165.099 87.4144Z" fill="white"/>
<path d="M186.405 91.5786C186.405 91.5786 184.932 92.9558 178.769 93.1572C172.605 93.3586 164.575 100.165 164.495 102.09C164.423 104.015 176.894 106.938 177.087 106.664C177.28 106.391 185.005 99.7538 185.005 99.7538L186.405 91.5786Z" fill="#01BA57"/>
<path d="M199.624 109.363C196.309 103.386 188.73 111.626 186.847 108.839C184.964 106.052 189.51 102.508 193.606 99.4557C197.621 96.4676 197.605 92.5612 197.605 92.4001C197.741 93.5599 197.838 94.8245 197.886 96.1937C198.063 101.179 199.045 105.609 199.624 109.363Z" fill="#12954F"/>
<path d="M50.5779 66.3924C50.3204 65.893 56.1861 64.105 56.2826 69.0101C56.2826 69.0101 67.2737 68.7362 62.0276 62.6068C60.2092 60.4805 60.3942 58.7327 60.4505 57.0976C60.5069 55.4626 59.316 50.7105 55.2527 51.1938C55.2527 51.1938 54.1906 50.7588 52.855 51.4515C49.8296 53.014 43.0548 68.1966 50.5779 66.3924Z" fill="#163560"/>
<path d="M68.5449 71.8694C68.5449 71.8694 69.261 70.7821 69.8404 70.7579C70.4197 70.7337 71.4818 70.4357 71.4013 70.6532C71.3128 70.8707 70.653 70.8868 70.5886 71.0156C70.5243 71.1445 71.5703 71.3378 71.868 71.3539C72.1657 71.3781 72.8738 71.3539 72.8496 71.507C72.8255 71.66 71.5783 72.2802 70.7013 72.1916C69.8162 72.103 68.73 72.4493 68.73 72.4493L68.5449 71.8694Z" fill="#FFB27D"/>
<path d="M58.1978 72.2238C58.1978 72.2238 58.584 72.997 59.292 73.883C60.1449 74.9462 61.4565 76.1785 63.0979 76.4201C63.8864 76.5329 64.6508 76.3637 65.3588 76.0496C67.3543 75.1636 68.8589 73.1178 68.8589 73.1178C69.213 72.1593 68.6336 71.5069 68.6336 71.5069C68.6336 71.5069 64.5945 72.4171 64.2163 72.2238C63.8301 72.0305 61.5932 65.5628 61.0541 64.7493C60.5231 63.9358 58.6966 63.517 58.6966 63.517L58.1978 72.2238Z" fill="#F9DDBF"/>
<path d="M59.292 73.8749C60.1449 74.9381 61.4564 76.1704 63.0978 76.4121C63.8863 76.5248 64.6507 76.3557 65.3588 76.0416C65.2783 76.0496 63.2829 76.2993 62.4863 74.8737C61.6736 73.4239 60.7966 71.1123 59.5897 71.8774C59.0747 72.2238 59.0989 73.0453 59.292 73.8749Z" fill="#F2CCAA"/>
<path d="M43.1434 115.83C43.1434 115.83 41.9123 116.958 42.1537 117.755C42.3951 118.553 43.5054 119.084 43.6583 120.067C43.8112 121.041 44.4066 121.573 44.9537 121.573C45.5009 121.573 47.5285 121.573 47.5285 121.573C47.5285 121.573 47.9228 120.888 46.9653 120.679C46.0078 120.47 45.6377 119.326 45.702 118.255C45.7583 117.191 45.6135 115.766 45.6135 115.766L43.5698 115.291L43.1434 115.83Z" fill="#233862"/>
<path d="M53.5633 116.306C53.5633 116.306 53.1207 121.074 53.6598 121.34L60.5795 121.323C60.5795 121.323 60.5795 120.526 59.4691 120.349C58.3587 120.172 56.4035 119.519 56.0736 118.069C55.7438 116.62 53.5633 116.306 53.5633 116.306Z" fill="#233862"/>
<path d="M48.631 82.1146C50.0552 78.917 50.9242 77.9988 50.7633 77.0081C50.6426 76.2671 51.1414 63.2432 51.1414 63.2432C51.3104 63.1868 51.6483 63.1465 51.8334 63.1062C52.4208 62.9774 52.9035 62.5666 53.1047 62.0028C53.3461 61.3262 53.5392 60.3194 53.5392 59.0629L53.7243 59.0951L56.7898 59.6992C56.7898 59.6992 56.7174 60.6658 56.7174 61.5759C56.7174 61.584 56.7174 61.592 56.7174 61.6001C56.7174 62.3894 57.2324 63.0901 57.9887 63.3076C58.3749 63.4204 58.7129 63.517 58.7129 63.517C58.7129 63.517 59.8393 66.7388 60.0566 70.0411C60.2738 73.3434 58.0048 74.7851 60.0727 81.3897C62.1727 88.1393 47.8425 83.8785 48.631 82.1146Z" fill="#FFB27D"/>
<path d="M56.7816 59.6992C56.7816 59.6992 56.7092 60.6658 56.7092 61.5759C54.9954 61.5276 54.0862 59.957 53.7161 59.0952L56.7816 59.6992Z" fill="#E8945B"/>
<path d="M57.3528 60.561C57.3528 60.561 53.2895 60.6254 53.2895 58.0964C53.2895 55.5673 52.7585 53.8678 55.3493 53.7148C57.9402 53.5617 58.4471 54.5283 58.6563 55.374C58.8655 56.2277 58.4069 60.4805 57.3528 60.561Z" fill="#FFB27D"/>
<path d="M57.1997 53.6584C57.1997 53.6584 56.0893 56.6305 54.3835 57.0654C52.6777 57.5084 51.9375 57.0493 51.9375 57.0493C51.9375 57.0493 53.249 56.0103 53.5145 54.19C53.5145 54.19 56.3629 52.2408 57.1997 53.6584Z" fill="#163560"/>
<path d="M56.926 53.9C56.926 53.9 57.7467 54.2061 58.0927 54.8102C58.4226 55.3982 58.7042 56.1794 58.6398 57.1379C58.6398 57.1379 59.4766 55.1163 58.5352 53.9806C57.5375 52.7644 56.926 53.9 56.926 53.9Z" fill="#163560"/>
<path d="M56.4675 58.9904C56.4675 58.9904 56.7491 59.3609 57.3043 59.3368C57.7549 59.3126 57.9319 58.926 57.9319 58.926C57.9319 58.926 57.1032 58.7246 56.4675 58.9904Z" fill="#EBF3FA"/>
<path d="M48.2445 69.0021C48.2445 69.0021 48.1399 70.4599 48.2445 72.1996C48.3169 73.3595 49.4836 74.9059 49.6526 75.2925C50.071 76.251 50.5376 76.4121 50.5376 76.4121L54.1745 77.3061L55.4538 77.6203L59.485 76.4121C59.485 76.4121 61.3195 71.2895 60.5792 68.398C59.839 65.5145 58.7206 63.509 58.7206 63.509C58.7206 63.509 55.4297 66.7307 51.1572 63.2351L48.2445 69.0021Z" fill="#F9DDBF"/>
<path d="M49.3064 72.6829C49.3788 73.8427 49.4834 74.922 49.6443 75.3006C50.0627 76.2591 50.5294 76.4201 50.5294 76.4201L54.1663 77.3142L55.7433 76.847C55.7433 76.847 50.4731 76.0496 51.0605 71.515L49.3064 72.6829Z" fill="#F2CCAA"/>
<path d="M59.2118 77.1934C59.2118 77.1934 61.2072 83.4114 61.3359 85.5216C61.4647 87.6399 57.5221 115.589 57.3611 116.563C57.2083 117.481 56.0738 118.069 56.0738 118.069C56.0738 118.069 55.5508 118.375 54.8025 118.166C53.7645 117.876 53.4346 117.522 53.4346 117.522C53.4346 117.522 51.8817 97.5871 52.8392 90.467C53.7967 83.3469 53.8128 77.1934 53.8128 77.1934H59.2118Z" fill="#12954F"/>
<path d="M50.7631 77.0081C50.7631 77.0081 47.7216 81.0916 47.44 83.8543C47.1584 86.617 46.9975 96.3225 46.394 99.0127C45.7906 101.703 43.5698 106.89 43.5698 115.291C43.5698 115.291 43.8032 115.774 44.5112 116.032C44.7365 116.112 45.0423 116.193 45.34 116.265C45.9273 116.402 46.5308 116.112 46.7963 115.573C48.301 112.544 53.0804 102.79 53.3218 100.76C53.4988 99.3268 55.0034 89.8387 58.3023 84.2731C59.0908 82.9361 57.8195 77.6202 57.8195 77.6202L50.7631 77.0081Z" fill="#01BA57"/>
<path d="M56.5566 59.0629C56.5566 59.0629 56.6291 59.3609 57.3693 59.3126C57.3693 59.3126 57.9888 59.2723 57.9728 58.9502C57.9728 58.9421 57.3693 58.7166 56.5566 59.0629Z" fill="white"/>
<path d="M59.5337 76.2349C59.5337 76.2349 58.7291 76.8712 57.144 76.9034C55.2451 76.9437 50.5381 76.4202 50.5381 76.4202C50.5381 76.4202 50.3289 77.0082 50.3369 77.6203C50.3369 77.6203 56.0899 79.0701 59.421 77.8297C59.413 77.8297 59.8475 77.0243 59.5337 76.2349Z" fill="#233862"/>
<path d="M56.7253 77.5558C56.7253 77.0162 57.1116 76.5732 57.5943 76.5732C58.069 76.5732 58.4633 77.0162 58.4633 77.5558C58.4633 78.0955 58.0771 78.5385 57.5943 78.5385C57.1196 78.5385 56.7253 78.1035 56.7253 77.5558ZM57.015 77.5558C57.015 77.9425 57.2725 78.2485 57.5943 78.2485C57.9162 78.2485 58.1736 77.9344 58.1736 77.5558C58.1736 77.1692 57.9162 76.8631 57.5943 76.8631C57.2805 76.8631 57.015 77.1773 57.015 77.5558Z" fill="white"/>
<path d="M44.3383 77.3541L50.2307 82.4901L57.253 74.4169L51.3606 69.2809L44.3383 77.3541Z" fill="#B5453C"/>
<path d="M51.8571 77.3786C51.8571 77.3786 54.0135 77.6283 54.0055 78.1438C53.9974 78.6592 53.4664 79.7144 53.2008 79.7546C52.9353 79.803 51.4468 78.329 51.4468 78.329L51.8571 77.3786Z" fill="#FFB27D"/>
<path d="M51.1415 63.2432C51.1415 63.2432 48.261 63.4445 47.1506 66.1347C46.0483 68.8249 43.9482 73.3353 43.9482 74.1005C43.9482 74.8576 45.123 77.2015 51.407 78.5465C51.407 78.5465 52.0587 77.8619 52.0185 77.3223C52.0185 77.3223 48.092 73.9475 48.1 73.5528C48.1161 72.8037 48.7437 71.8211 52.1875 68.3738C53.1369 67.4234 51.1415 63.2432 51.1415 63.2432Z" fill="#F9DDBF"/>
<path d="M76.0601 121.428H76.036C75.8751 121.428 75.7463 121.299 75.7463 121.138L76.1808 102.267L77.4602 102.114L76.3659 121.138C76.3578 121.299 76.2211 121.428 76.0601 121.428Z" fill="#95C0F4"/>
<path d="M96.6661 121.428H96.6903C96.8512 121.428 96.9799 121.299 96.9799 121.138L96.5454 102.267L95.2661 102.114L96.3604 121.138C96.3604 121.299 96.4972 121.428 96.6661 121.428Z" fill="#B0D4FF"/>
<path d="M75.207 101.091V88.1554C75.207 85.876 77.0496 84.0316 79.3267 84.0316H88.636C90.9131 84.0316 92.7557 85.876 92.7557 88.1554V101.582L75.207 101.091Z" fill="#B0D4FF"/>
<path d="M94.4212 103.137H76.4461C75.7622 103.137 75.207 102.581 75.207 101.896V101.091H94.4132V103.137H94.4212Z" fill="#95C0F4"/>
<path d="M96.5699 103.137H82.9719C82.465 103.137 82.0547 102.726 82.0547 102.218V102.009C82.0547 101.502 82.465 101.091 82.9719 101.091H96.5699C97.0769 101.091 97.4872 101.502 97.4872 102.009V102.218C97.4872 102.726 97.0769 103.137 96.5699 103.137Z" fill="#B0D4FF"/>
<path d="M96.0468 97.869C94.7111 100.189 93.0375 101.091 93.0375 101.091H86.0615C86.0535 101.091 97.0606 96.0971 96.0468 97.869Z" fill="#233862"/>
<path d="M90.6877 115.846C90.5026 116.056 90.4865 116.289 90.575 116.539C90.744 116.998 91.2911 117.514 91.9268 118.029C92.0072 118.094 92.0796 118.158 92.144 118.214C92.1601 118.231 92.1762 118.247 92.1923 118.255C92.2084 118.263 92.2164 118.279 92.2325 118.287C92.8279 118.835 92.6026 118.964 93.6728 120.075C94.8958 121.348 95.7326 121.372 95.974 121.251C96.1751 121.154 95.7648 120.478 95.3142 119.721C95.29 119.68 95.2739 119.648 95.2498 119.608C95.1854 119.503 95.1291 119.406 95.0728 119.302C94.5417 118.392 94.6785 117.965 94.7992 116.604C94.9038 115.5 96.513 110.442 96.513 110.442L94.1716 110.039C94.1716 110.039 93.4636 114.066 92.6911 114.687C92.2727 115.017 91.8141 115.025 91.4118 115.267C91.3796 115.283 91.3555 115.299 91.3313 115.323C91.098 115.476 90.8647 115.637 90.6877 115.846Z" fill="#FFB27D"/>
<path d="M90.6877 115.846C90.5026 116.056 90.4865 116.289 90.575 116.539C90.7762 116.998 91.3152 117.514 91.9348 118.021C92.0153 118.086 92.0877 118.15 92.152 118.206C92.1681 118.223 92.1842 118.239 92.2003 118.247C92.2164 118.255 92.2245 118.271 92.2406 118.279C92.836 118.827 92.6107 118.955 93.6808 120.067C94.9038 121.34 95.7406 121.364 95.982 121.243C96.1831 121.146 95.7728 120.47 95.3222 119.713C95.0808 119.624 93.9785 119.173 93.1498 118.11C92.4176 117.175 91.9268 115.967 91.4279 115.267C91.3957 115.283 91.3716 115.299 91.3474 115.323C91.098 115.476 90.8647 115.637 90.6877 115.846Z" fill="#233862"/>
<path d="M109.532 114.381C109.677 115.105 110.706 114.985 111.857 114.703C113.008 114.421 112.734 114.759 114.367 114.574C116.001 114.389 116.5 113.785 116.548 113.535C116.596 113.317 115.784 113.245 114.915 113.14C114.802 113.124 114.697 113.116 114.585 113.1C113.603 112.979 112.887 112.343 112.002 111.827C111.157 111.336 109.902 109.33 109.902 109.33L107.657 109.508C107.657 109.508 108.832 111.296 109.29 112.077C109.556 112.536 109.548 113.14 109.508 113.607C109.5 113.865 109.483 114.131 109.532 114.381Z" fill="#FFB27D"/>
<path d="M111.857 114.703C113.008 114.421 112.734 114.759 114.367 114.574C116.001 114.389 116.5 113.785 116.548 113.535C116.596 113.317 115.784 113.245 114.915 113.14L114.907 113.156C114.907 113.156 113.925 113.849 112.565 113.881C111.455 113.905 110.28 113.591 109.516 113.599C109.5 113.857 109.483 114.115 109.532 114.364C109.677 115.105 110.706 114.985 111.857 114.703Z" fill="#233862"/>
<path d="M100.938 100.028L98.8384 105.674L96.1027 113.052C96.1027 113.052 95.3625 113.124 94.6464 112.915C93.9946 112.721 93.2383 112.23 93.2383 112.23C93.2383 112.23 93.9946 104.313 95.4188 99.7699C95.7809 98.602 96.1912 97.6597 96.6418 97.1281C98.8384 94.5184 100.938 100.028 100.938 100.028Z" fill="#233862"/>
<path d="M98.806 91.055C97.4301 90.612 93.5116 91.1838 89.5771 91.949L88.7564 90.5878L80.2516 89.9193C80.2516 89.9193 77.4435 96.1454 78.9803 100.116C79.2056 100.696 79.6562 101.075 80.4206 101.083H80.5413C80.5413 101.083 85.6023 101.083 87.2437 101.083C91.4679 101.083 96.191 98.1751 96.8025 98.0543C97.8002 97.8529 98.2025 99.8584 99.2003 101.953C100.198 104.055 108.598 111.255 108.598 111.255C108.598 111.255 109.886 111.272 110.425 111.07C110.996 110.853 111.205 110.579 111.205 110.579C111.205 110.579 101.904 92.0537 98.806 91.055Z" fill="#2B478B"/>
<path d="M88.4187 65.8125C87.3325 65.2407 85.675 65.1601 85.4014 65.1279C82.1829 64.693 80.2438 69.3806 80.1231 70.7982C79.9139 73.4159 78.53 73.8105 76.5828 75.4536C72.6804 78.7398 73.823 82.5576 75.9552 83.9752C77.2345 84.8289 79.4955 83.9752 79.4955 83.9752C79.5277 83.9993 85.6669 80.536 88.6923 78.8687C93.2464 78.2243 91.1946 67.2704 88.4187 65.8125Z" fill="#B5453C"/>
<path d="M86.1658 77.4511C86.1819 77.4592 84.6773 77.9747 83.6715 77.5317C82.7301 77.1129 82.014 75.5584 82.022 75.5584C82.4485 75.5422 82.9232 75.1637 83.2853 72.691L83.4703 72.7554L86.552 73.8669C86.552 73.8669 86.3267 74.8576 86.1819 75.8C86.0692 76.5813 85.9968 77.3384 86.1658 77.4511Z" fill="#FFB27D"/>
<path d="M86.5519 73.8589C86.5519 73.8589 86.3266 74.8496 86.1818 75.7919C84.4116 75.4698 83.7196 73.7059 83.4702 72.7554L86.5519 73.8589Z" fill="#ED975D"/>
<path d="M87.0105 74.8415C87.0105 74.8415 82.7944 74.2777 83.1886 71.6519C83.5829 69.0343 83.3013 67.1898 86.0048 67.4475C88.7083 67.6972 89.0864 68.7765 89.1669 69.6867C89.2554 70.5888 88.1209 74.922 87.0105 74.8415Z" fill="#FFB27D"/>
<path d="M89.014 68.245C89.014 68.245 86.3185 70.5727 84.484 70.7579C82.6495 70.9432 81.9575 70.3552 81.9575 70.3552C81.9575 70.3552 83.0357 69.4531 83.6874 68.0033C83.8805 67.5764 84.2829 67.2865 84.7495 67.2462C86.0611 67.1334 88.5473 67.0851 89.014 68.245Z" fill="#B5453C"/>
<path d="M87.3325 68.0356C87.3325 68.0356 88.2337 68.9055 88.5153 69.5579C88.7889 70.1861 88.8693 71.6762 88.6521 72.2722C88.6521 72.2722 90.0601 69.5337 89.2636 68.2047C88.4187 66.7952 87.3325 68.0356 87.3325 68.0356Z" fill="#B5453C"/>
<path d="M89.7144 83.6611C89.5857 92.1988 89.6822 90.4107 88.7489 91.2242C88.5236 91.4175 87.896 91.5383 87.0592 91.5867C84.4442 91.7639 79.8499 91.3289 79.6728 90.8457C79.0694 89.1703 79.4958 88.6549 78.9889 86.0936C78.9326 85.8197 78.8682 85.5298 78.7958 85.2076C78.3774 83.4437 77.9671 82.8476 79.4556 80.0205C80.8073 77.4592 82.2074 75.3812 82.3361 75.4537C85.9006 77.572 86.1822 75.792 86.1822 75.792C86.1822 75.792 89.7788 79.497 89.7144 83.6611Z" fill="#F9DDBF"/>
<path d="M98.8384 105.674L96.1027 113.052C96.1027 113.052 95.3625 113.124 94.6464 112.915C93.9946 112.721 93.2383 112.23 93.2383 112.23C93.2383 112.23 93.9946 104.313 95.4188 99.7699L98.8384 105.674Z" fill="#2B478B"/>
<path d="M86.1902 75.7919C86.1902 75.7919 89.8512 76.4121 90.2857 77.9908C90.7121 79.5694 93.2467 88.8562 93.2467 88.8562C93.2467 88.8562 91.38 89.1944 90.5271 88.3326C89.6661 87.4708 87.5339 80.3427 87.5339 80.3427L86.1902 75.7919Z" fill="#F9DDBF"/>
<path d="M87.0588 91.5947C84.4438 91.7719 79.8495 91.3369 79.6725 90.8537C79.069 89.1783 79.4954 88.6629 78.9885 86.1016L80.2518 82.5496C80.2518 82.5496 80.0426 86.5043 81.2093 87.5513C82.376 88.5904 85.9806 89.565 86.5519 90.4348C86.8255 90.8375 87.0106 91.2564 87.0588 91.5947Z" fill="#F2CCAA"/>
<path d="M84.0662 89.9274C84.0662 89.9274 86.6489 89.3555 87.0593 89.581C87.4777 89.8066 88.4915 90.6442 88.6202 90.9342C88.749 91.2242 87.6949 90.7167 87.349 90.6201C87.1237 90.5637 86.5443 90.7651 86.2547 90.8617C85.0397 91.2644 84.2914 91.055 84.2914 91.055L84.0662 89.9274Z" fill="#FFB27D"/>
<path d="M82.3359 75.4536C82.3359 75.4536 78.876 75.6711 77.6772 77.3383C75.9875 79.6983 72.6403 89.7341 74.5633 91.0792C76.7277 92.5853 84.3957 91.4738 84.3957 91.4738C84.3957 91.4738 84.6532 90.2818 84.2991 89.7019C83.9451 89.1219 78.168 88.1876 77.9025 87.9218C77.6369 87.656 81.2336 82.7187 81.2336 81.9213C81.2255 81.1159 82.3359 75.4536 82.3359 75.4536Z" fill="#F9DDBF"/>
<path d="M87.188 90.2979C87.188 90.2979 87.7271 90.9986 87.9041 91.0792C88.0811 91.1597 88.1938 91.1436 88.1938 91.1436L87.8317 90.4912L87.188 90.2979Z" fill="#FFB27D"/>
<path d="M87.0593 89.5811L88.6283 90.3462C88.6283 90.3462 88.564 90.459 88.3709 90.4509C88.1778 90.4429 87.6869 90.2657 87.6869 90.2657L87.0593 89.5811Z" fill="#FFB27D"/>
<path d="M87.9043 92.1504H100.336L104.069 82.8395H91.6618L87.9043 92.1504Z" fill="#01BA57"/>
<path d="M100.48 91.788H84.0662V92.1504H100.335L100.48 91.788Z" fill="#ED7D2B"/>
<path d="M97.197 87.495C97.2936 87.1648 97.1005 86.899 96.7786 86.899C96.4567 86.899 96.1108 87.1648 96.0142 87.495C95.9176 87.8252 96.1108 88.091 96.4326 88.091C96.7545 88.091 97.1004 87.8252 97.197 87.495Z" fill="white"/>
<path d="M127.29 121.686H127.33C127.539 121.686 127.716 121.493 127.708 121.259L127.137 93.721L125.439 93.5035L126.888 121.259C126.896 121.501 127.073 121.686 127.29 121.686Z" fill="#233862"/>
<path d="M84.4758 121.686H84.4436C84.2344 121.686 84.0574 121.493 84.0654 121.259L84.6367 93.721L86.3344 93.5035L84.8861 121.259C84.8701 121.501 84.693 121.686 84.4758 121.686Z" fill="#233862"/>
<path d="M130.074 94.1237H82.3277C81.9496 94.1237 81.6438 93.8177 81.6438 93.4391V92.8431C81.6438 92.4645 81.9496 92.1584 82.3277 92.1584H130.074C130.452 92.1584 130.757 92.4645 130.757 92.8431V93.4391C130.757 93.8096 130.452 94.1237 130.074 94.1237Z" fill="#233862"/>
<path d="M164.535 16.3907L173.853 17.8646L167.722 13.5394L167.384 14.8926L165.107 15.2711L164.535 16.3907Z" fill="#9EC3F6"/>
<path d="M173.853 17.8647L166.136 13.7328L158.525 13.2334L173.853 17.8647Z" fill="white"/>
<path d="M167.722 13.5394L173.853 17.8647L169.154 11.1876L167.722 13.5394Z" fill="white"/>
<path d="M75.1504 25.5566L63.0168 29.0522L70.4515 22.3026L71.1193 24.0424L74.201 24.1632L75.1504 25.5566Z" fill="#9EC3F6"/>
<path d="M63.0168 29.0522L72.5757 22.2945L82.6012 20.3856L63.0168 29.0522Z" fill="#EBF3FA"/>
<path d="M70.4515 22.3026L63.0168 29.0522L68.1583 19.403L70.4515 22.3026Z" fill="#EBF3FA"/>
</g>
<defs>
<clipPath id="clip0">
<rect width="219" height="122" fill="white"/>
</clipPath>
</defs>
</svg>
