<svg width="219" height="137" viewBox="0 0 219 137" fill="none" xmlns="http://www.w3.org/2000/svg">
<path d="M26.4371 123.855L84.7595 123.547L100.309 123.54H105.462L121.038 123.533L192.2 123.512C192.2 123.512 208.474 102.428 191.091 82.4055C173.064 61.6431 164.298 78.5489 158.761 49.3268C144.813 -24.2353 6.91874 18.5772 43.088 81.1793C56.0979 103.723 17.4376 91.742 26.4371 123.855Z" fill="#EBF3FA"/>
<path d="M93.8957 120.307C93.8957 120.307 94.1147 122.875 93.5741 123.136L86.6414 123.122C86.6414 123.122 86.6414 122.321 87.7569 122.142C88.8724 121.964 90.8297 121.314 91.1582 119.861C91.4936 118.409 93.8957 120.307 93.8957 120.307Z" fill="#233862"/>
<path d="M113.797 119.313C113.797 119.313 114.002 122.868 113.462 123.136L106.529 123.122C106.529 123.122 106.529 122.32 107.644 122.142C108.76 121.964 110.717 121.314 111.046 119.861C111.374 118.409 113.797 119.313 113.797 119.313Z" fill="#233862"/>
<path d="M114.03 119.752C114.03 119.752 112.654 120.464 112.066 120.587C111.409 120.731 110.184 120.642 110.184 120.642C107.822 114.313 100.513 88.5911 100.513 88.5911C100.199 95.7014 98.9119 102.798 97.5774 108.504C97.5431 108.655 97.5089 108.805 97.4679 108.956C97.4336 109.093 97.3994 109.23 97.3721 109.367C97.3721 109.374 97.372 109.381 97.3652 109.388C95.7501 116.114 94.1281 120.697 94.1281 120.697C94.1281 120.697 93.7106 121.224 92.5404 120.985C91.2058 120.704 90.761 120.122 90.761 120.122C91.6233 92.7147 92.1092 77.2543 92.1092 77.2543C92.1092 77.2543 103.682 70.9934 106.83 76.3433C109.971 81.6931 114.03 119.752 114.03 119.752Z" fill="#2A4E96"/>
<path d="M109.363 80.0423C107.864 74.6719 107.618 69.5755 107.624 65.349C107.638 59.3416 108.179 55.1083 106.372 54.3959C106.372 54.3959 100.787 52.7724 96.9481 52.0532C96.339 51.7175 95.6546 51.3613 95.1414 51.1558C93.93 50.6626 89.201 43.7784 88.4003 42.1344C87.5995 40.4835 86.2719 33.3116 86.2719 33.3116L84.4309 33.9007C84.4309 33.9007 83.8766 41.9563 84.1435 44.0592C84.4104 46.1622 90.2618 55.1905 90.7477 55.9782C92.835 63.6023 90.7477 76.0145 91.699 78.7819C92.1917 80.2067 101.28 82.8165 106.256 82.4877C106.502 82.474 106.742 82.4466 106.967 82.4192C108.144 82.2548 109 81.8781 109.315 81.2205C109.472 80.8917 109.493 80.5081 109.363 80.0423Z" fill="#AEC3FF"/>
<path d="M86.2719 33.3115C86.2719 33.3115 87.3121 30.2838 86.5525 30.1948C85.7928 30.1057 83.8766 30.1194 83.6439 30.6263C83.4112 31.1401 84.4309 33.9006 84.4309 33.9006L86.2719 33.3115Z" fill="#FFB27D"/>
<path d="M66.445 40.8534L60.2993 37.1339C60.5731 36.6818 61.0042 36.3872 61.4764 36.2639C61.9487 36.1475 62.4688 36.2091 62.9205 36.4831C63.3174 36.7229 63.8375 36.5927 64.0771 36.1954L65.7401 33.4417L67.1773 34.3117L65.5143 37.0654C65.3911 37.264 65.3637 37.4901 65.4185 37.7024C65.4732 37.9148 65.6032 38.0997 65.8017 38.223C66.2534 38.497 66.5477 38.9286 66.6709 39.4012C66.7872 39.8807 66.7188 40.4013 66.445 40.8534Z" fill="#ED7D2B"/>
<path d="M66.4451 40.8534L62.3594 38.3806C61.4149 37.5928 61.8735 36.9147 62.3525 36.7982C62.8247 36.6818 63.3449 36.7434 63.7966 37.0174C64.1935 37.2572 64.7136 37.127 64.9532 36.7297L66.6162 33.976L67.1842 34.3185L65.5212 37.0722C65.398 37.2709 65.3706 37.4969 65.4254 37.7093C65.4801 37.9216 65.6101 38.1066 65.8086 38.2299C66.2603 38.5039 66.5546 38.9354 66.6778 39.4081C66.7873 39.8807 66.7188 40.4013 66.4451 40.8534Z" fill="#F99746"/>
<path d="M84.4309 22.9132L79.4555 29.1878C77.724 32.0511 74.7333 33.4211 71.8726 33.5376C70.8939 33.5787 69.9358 33.4691 69.0461 33.2293C68.307 33.0307 67.4584 33.428 66.993 34.1952L66.8972 34.3596C66.6098 34.8391 66.3634 35.2364 66.3634 35.2364L65.3163 34.5993C65.3163 34.5993 65.5627 34.1952 65.8501 33.7157C66.3634 32.8663 66.336 31.8319 65.7748 31.2086C63.3795 28.5302 62.483 24.0914 64.7688 20.3034L68.1359 13.0561L84.4309 22.9132Z" fill="#F99746"/>
<path d="M63.6188 25.3998C64.0226 23.0502 62.8865 21.7693 61.6889 20.413C60.7239 19.3307 59.7315 18.2073 59.5194 16.5359C59.2798 14.6864 60.1422 12.7958 61.6615 11.8299C62.8181 11.097 64.091 11.0764 65.1655 11.7614C66.6848 12.741 67.2528 14.6316 66.8011 17.2414C66.4795 19.1046 65.754 20.6801 65.7198 20.7486L64.7617 20.3034C64.7891 20.2486 67.4171 14.4672 64.5906 12.6519C63.612 12.0217 62.688 12.4259 62.2158 12.7204C61.0524 13.4534 60.368 14.9672 60.5528 16.3989C60.7239 17.7483 61.5725 18.7005 62.469 19.7074C63.7215 21.1186 65.145 22.7214 64.6522 25.5779L63.6188 25.3998Z" fill="#ED7D2B"/>
<path d="M75.4793 32.5786C77.3681 31.1264 79.0311 31.5374 80.79 31.9758C82.1998 32.3251 83.6507 32.6882 85.2247 32.0991C86.9767 31.4483 88.2428 29.8112 88.3934 28.0165C88.5029 26.6533 87.928 25.5094 86.8262 24.8792C85.2521 23.9819 83.3153 24.3655 81.2211 25.9752C79.7224 27.126 78.6616 28.5028 78.6205 28.5576L79.4555 29.2015C79.4965 29.1536 83.3838 24.1394 86.306 25.7971C87.3121 26.3725 87.3874 27.3794 87.3463 27.9343C87.2368 29.3043 86.2171 30.6126 84.862 31.1127C83.5891 31.5853 82.3504 31.2771 81.0432 30.9551C79.2091 30.503 77.1286 29.9824 74.8359 31.7429L75.4793 32.5786Z" fill="#F99746"/>
<path d="M71.8653 33.5445C70.8866 33.5856 69.9285 33.476 69.0388 33.2362C68.2997 33.0376 67.4511 33.4348 66.9857 34.202L66.8899 34.3665C66.5203 34.5583 66.2465 34.7912 66.1165 35.0994L65.309 34.6131C65.309 34.6131 65.5553 34.2089 65.8428 33.7294C66.356 32.88 66.3287 31.8456 65.7675 31.2223C63.3722 28.5439 62.4756 24.1051 64.7615 20.3171L68.1286 13.0698L70.825 14.7001C70.825 14.6864 59.8887 29.5166 71.8653 33.5445Z" fill="#ED7D2B"/>
<path d="M67.0202 35.8734L64.3374 34.25C63.9747 34.0308 63.8584 33.5513 64.0774 33.1882C64.2964 32.8252 64.7754 32.7087 65.1382 32.9279L67.8209 34.5514C68.1836 34.7706 68.3 35.2501 68.081 35.6131C67.862 35.9762 67.3829 36.0995 67.0202 35.8734Z" fill="#F99746"/>
<path d="M67.8411 26.852L68.1285 26.3725C69.4904 27.1123 69.6683 27.0232 70.2295 26.0985L73.0491 21.4336C73.4461 20.776 73.2476 20.5842 72.7549 20.2006L72.4058 19.8992L72.6659 19.4745C73.7267 19.9609 74.9928 20.3719 75.9098 20.5568L71.9405 27.126C71.3656 28.0781 71.3724 28.2425 72.6454 29.0988L72.3579 29.5783L67.8411 26.852Z" fill="white"/>
<path d="M83.6439 30.6264C83.6439 30.6264 83.5481 31.6676 83.8766 31.8662C84.2119 32.0649 84.3282 30.6264 84.3282 30.6264C84.3282 30.6264 84.3488 31.8046 84.602 31.8868C84.8552 31.969 85.0126 30.5305 85.0126 30.5305C85.0126 30.5305 85.04 31.6744 85.2111 31.6333C85.3822 31.5922 85.5054 30.5305 85.5054 30.5305C85.5054 30.5305 85.5807 31.3593 85.8202 31.2086C86.0529 31.0579 86.2787 30.1743 86.2787 30.1743L83.6439 30.6264Z" fill="#FFB27D"/>
<path d="M86.2715 33.3115C86.2715 33.3115 86.9832 32.7498 87.1406 32.2429C87.298 31.7292 87.7566 30.873 87.517 30.7702C87.2707 30.6675 86.5521 31.7703 86.5521 31.7703L86.2715 33.3115Z" fill="#FFB27D"/>
<path d="M98.6178 51.2312L98.5288 51.697C98.5288 51.697 98.1114 53.1286 99.8634 53.6972C101.615 54.2657 103.087 54.526 103.258 53.3958C103.272 52.4916 103.244 51.0873 103.374 50.3612C103.422 50.094 103.497 49.8132 103.607 49.5049L100.151 48.7514L99.0969 48.7172L98.6178 51.2312Z" fill="#FFB27D"/>
<path d="M99.1036 48.7104L98.782 50.4092C102.067 51.2791 103.504 49.8132 103.614 49.505L100.158 48.7515L99.1036 48.7104Z" fill="#E2915A"/>
<path d="M104.12 48.7994C103.101 50.8681 100.302 50.005 99.1244 49.5255C98.7891 49.3885 98.5906 49.2857 98.5906 49.2857C98.2347 49.0734 98.1868 48.4021 98.31 47.5801C98.5564 45.9429 99.4529 43.6961 99.8909 43.1824C100.541 42.4015 101.568 41.648 104.209 43.1413C106.851 44.6346 105.427 46.1416 104.12 48.7994Z" fill="#FFB27D"/>
<path d="M99.6031 40.8534C99.6031 40.8534 100.876 41.1068 102.532 40.8808C103.874 40.6958 105.222 41.6959 105.639 42.0864C105.646 42.0042 105.646 41.8877 105.605 41.7576C105.605 41.7576 105.783 41.9768 105.756 42.2028C105.776 42.2234 105.783 42.2371 105.776 42.2439C105.776 42.2439 106.036 42.2713 106.18 42.3878C106.18 42.3878 106.07 42.3398 106.009 42.4015C106.002 42.4083 105.995 42.4152 105.988 42.4152C107.603 43.84 106.946 46.8403 106.153 47.354C105.201 47.9705 103.566 49.6762 103.566 49.6762C103.566 49.6762 103.62 49.0528 103.956 48.3678C104.291 47.6828 103.668 47.5047 102.97 46.9567C102.272 46.4087 103.189 45.6689 102.655 44.9223C102.122 44.1688 99.5004 43.792 99.6579 43.3742C98.8024 42.7645 99.5757 40.9493 99.6031 40.8534Z" fill="#233862"/>
<path d="M100.021 48.0322C100.021 48.0322 99.8495 48.2856 99.1651 47.9843C99.1651 47.9843 98.5902 47.7308 98.7271 47.4294C98.7271 47.4294 99.3773 47.4226 100.021 48.0322Z" fill="white"/>
<path d="M99.2541 55.0397C99.2541 55.0397 97.68 65.5134 85.8882 72.7813L84.7864 75.9802H89.0432C89.0432 75.9802 99.6031 67.1163 100.315 55.3411L99.2541 55.0397Z" fill="#0F984E"/>
<path d="M99.2539 55.0397V53.4505L101.198 54.0054L100.308 55.3411L99.2539 55.0397Z" fill="#01BA57"/>
<path d="M98.6176 51.2311L97.4815 52.2038C97.4815 52.2038 97.1667 53.5601 97.9332 55.0397L100.226 53.7245C100.226 53.7245 98.8708 53.0738 98.6176 51.2311Z" fill="#9DB0F4"/>
<path d="M100.226 53.7245C100.226 53.7245 100.452 54.9575 101.048 55.5672C101.048 55.5672 103.628 55.1151 104.346 53.8752L103.265 52.1833C103.272 52.1833 103.012 53.3409 100.226 53.7245Z" fill="#9DB0F4"/>
<path d="M115.699 80.8711C115.699 80.8711 115.706 83.2138 115.487 83.6796C115.268 84.1454 114.303 85.6661 113.858 85.9881C113.414 86.31 113.954 84.1112 113.817 83.707C113.681 83.3029 113.509 84.5016 113.297 84.5496C113.092 84.5975 113.037 83.5426 112.989 83.159C112.941 82.7754 113.865 81.7274 114.146 80.878C114.42 80.0285 115.699 80.8711 115.699 80.8711Z" fill="#FFB27D"/>
<path d="M106.344 54.3958C106.344 54.3958 108.616 55.0123 110.156 58.4031C111.771 61.9582 116.09 69.8563 116.247 70.9454C116.405 72.0346 115.96 82.2136 115.96 82.2136C115.96 82.2136 114.071 82.289 113.482 81.3916C113.482 81.3916 112.825 72.4593 112.531 71.9729C112.237 71.4866 104.798 62.609 105.427 60.3553C106.057 58.0948 106.344 54.3958 106.344 54.3958Z" fill="#AEC3FF"/>
<path d="M109.315 81.2136C108.753 81.7 107.994 82.1178 106.967 82.4124C106.714 82.4877 106.481 82.5083 106.256 82.4809C102.101 82.0493 102.738 65.8833 104.75 64.6914C106.871 63.431 107.624 65.3422 107.624 65.3422C107.611 69.5618 107.857 74.665 109.363 80.0354C109.493 80.5081 109.472 80.8917 109.315 81.2136Z" fill="#9DB0F4"/>
<path d="M97.3721 109.367C97.3994 109.244 97.4337 109.107 97.4679 108.956C97.4337 109.093 97.3994 109.23 97.3721 109.367Z" fill="#233862"/>
<path d="M97.5771 108.504C98.8501 102.476 97.4813 86.3305 98.0904 86.0223C98.7201 85.7072 100.513 88.591 100.513 88.591C100.191 95.7082 98.9048 102.798 97.5771 108.504Z" fill="#233862"/>
<path d="M66.4723 120.807L66.1028 118.169L67.6426 116.875L68.1285 120.375L66.4723 120.807Z" fill="#FFB27D"/>
<path d="M71.585 123.17H65.3093C65.3093 123.17 65.1588 122.211 65.4873 121.485C65.8021 120.786 66.288 120.354 66.3359 119.82C66.7328 120.231 67.2256 120.498 68.1358 120.375C68.2453 120.553 68.8544 121.519 69.224 121.786C69.6277 122.088 71.4618 121.978 71.585 123.17Z" fill="#233862"/>
<path d="M70.3256 85.1181C69.915 88.4266 69.5797 91.5434 69.3059 94.4478C67.8413 109.929 68.1288 119.389 68.1288 119.389C68.1288 119.389 68.0261 119.669 67.1159 119.669C66.6026 119.669 66.103 119.56 66.103 119.56C66.103 119.56 62.8317 109.449 63.0849 103.702C63.1123 103.01 63.1944 102.38 63.3382 101.839C64.1252 98.8934 60.4364 87.6389 64.4468 83.4535C68.4573 79.2613 70.5104 83.6042 70.3256 85.1181Z" fill="#01BA57"/>
<path d="M70.3256 85.1181C69.915 88.4266 69.5797 91.5434 69.3059 94.4478L63.0849 103.702C63.1123 103.01 63.1944 102.38 63.3382 101.839C64.1252 98.8934 60.4364 87.6389 64.4468 83.4535C68.4573 79.2613 70.5104 83.6042 70.3256 85.1181Z" fill="#0F984E"/>
<path d="M75.2669 53.5807C75.2669 53.5807 75.1163 52.8272 74.9452 52.2518C74.87 51.9983 75.3969 50.3201 75.7596 50.1146C76.1224 49.9091 77.0736 51.0393 76.7999 51.9024C76.663 52.3477 76.4372 53.793 76.4372 53.793L75.2669 53.5807Z" fill="#FFB27D"/>
<path d="M75.2669 53.5807C75.2669 53.5807 75.0684 53.1423 74.8905 53.0738C74.7125 53.0053 74.5209 52.286 74.3909 52.0052C74.3909 52.0052 74.5141 51.8202 74.7399 52.06C74.8768 52.2038 75.1779 52.6354 75.1779 52.6354L75.2669 53.5807Z" fill="#FFB27D"/>
<path d="M49.3496 56.1221C49.3085 56.2043 49.2606 56.3413 49.2127 56.4783C49.2127 56.444 49.2127 56.4029 49.2127 56.3687C49.2127 56.1015 48.2203 54.6562 47.8097 54.5671C47.3991 54.4781 46.8242 55.8344 47.3375 56.581C47.5975 56.9646 48.2409 58.2867 48.2409 58.2867L49.3016 57.7387C49.3016 57.7387 49.3632 57.2592 49.5138 57.1427C49.6644 57.0194 49.637 56.2796 49.6781 55.9714C49.6644 55.9714 49.4864 55.8275 49.3496 56.1221Z" fill="#FFB27D"/>
<path d="M55.9398 120.019C55.8509 119.169 55.8303 116.943 55.8303 116.943C55.8303 116.943 58.1025 116.217 58.0135 116.717C57.6029 119.169 57.7124 120.382 57.7124 120.382L56.7953 120.93L55.9398 120.019Z" fill="#FFB27D"/>
<path d="M68.4298 84.9606C68.4298 84.9606 59.6629 109.011 57.9383 119.443C57.9383 119.443 57.5414 119.717 56.7954 119.628C55.9468 119.526 55.7209 118.937 55.7209 118.937C55.7209 118.937 54.1332 106.435 57.2813 102.092C59.4439 99.1126 56.3506 86.0086 61.3876 84.9606C66.4177 83.9125 68.4298 84.9606 68.4298 84.9606Z" fill="#01BA57"/>
<path d="M66.8696 61.8281C66.8696 61.8212 66.8696 61.8212 66.8696 61.8281C66.8696 61.8144 66.8628 61.8075 66.8628 61.7938C66.8149 61.5815 66.7533 61.376 66.6986 61.1636C66.5138 60.5334 66.2948 59.9306 66.0621 59.3963C65.9252 59.0949 65.7883 58.8072 65.6446 58.5606C65.6241 58.5195 65.6036 58.4853 65.583 58.451C65.2477 57.8825 64.8986 57.4852 64.5838 57.3687C64.009 57.1495 63.3725 57.2112 62.9345 57.3002C63.0303 57.1632 63.2493 57.0879 63.2493 57.0879C62.9687 57.0879 62.3938 57.4509 62.3938 57.4509C58.356 56.5467 58.5956 62.2665 58.8693 63.5611C59.1431 64.8558 57.8427 65.486 56.0086 66.8149C52.5115 69.3425 52.5662 72.0277 52.5662 72.0277C52.6004 72.0414 52.6347 72.0551 52.6689 72.0757C52.8126 71.7263 53.1069 71.0687 53.4217 70.9317C53.4148 70.966 53.1616 71.8154 53.0863 72.288C53.6202 72.5826 54.3593 73.0347 55.16 73.5484C56.2345 74.2334 57.4116 75.028 58.3629 75.6651C58.315 75.4048 58.2739 75.0349 58.3423 74.8225L58.6435 75.761L58.6845 75.8843C59.2868 76.2953 59.7658 76.6241 60.0122 76.7885C60.0396 76.8022 60.0601 76.8227 60.0807 76.8364C60.1491 76.8844 60.1901 76.9118 60.1901 76.9118C60.108 76.583 60.4639 75.7199 61.0525 74.6307C61.0935 74.5554 61.1346 74.48 61.1825 74.3978C61.3741 74.0553 61.5863 73.6923 61.819 73.3155C61.9011 73.1785 61.9832 73.0484 62.0722 72.9114C62.1406 72.8018 62.2091 72.6922 62.2843 72.5757C62.4554 72.3086 62.6334 72.0414 62.8181 71.7743C63.2904 71.0824 63.7831 70.3906 64.2759 69.7604C64.9876 68.8425 65.6857 68.041 66.2742 67.5204C66.2948 67.4793 66.3085 67.4382 66.329 67.3971C66.418 67.1848 66.4932 66.945 66.548 66.7053C66.5617 66.6299 66.5822 66.5614 66.5959 66.4861C66.7396 65.7189 66.7465 64.9517 66.7396 64.7736C66.7875 65.5134 66.767 66.0751 66.7191 66.4998C66.7054 66.5957 66.6986 66.6779 66.6849 66.7601C66.6506 66.9382 66.6164 67.0889 66.5822 67.2122C66.678 67.0957 66.7601 66.9656 66.8354 66.8217C66.8833 66.7258 66.9312 66.6299 66.9655 66.5272C67.4103 65.3147 67.2803 63.5132 66.8696 61.8281Z" fill="#163560"/>
<path d="M66.117 67.6163C66.1307 67.6232 64.9878 68.452 64.016 68.3356C63.1058 68.226 62.3598 67.1711 62.3735 67.1711C62.7362 67.0409 62.7636 66.5135 62.4282 64.3215L62.5993 64.3283L65.5079 64.4653C65.5079 64.4653 65.5763 65.3627 65.6995 66.2052C65.8022 66.9039 65.9391 67.5684 66.117 67.6163Z" fill="#FFB27D"/>
<path d="M65.5074 64.4653C65.5074 64.4653 65.5759 65.3627 65.6991 66.2052C64.1113 66.397 63.0642 65.075 62.5989 64.3283L65.5074 64.4653Z" fill="#ED975D"/>
<path d="M62.2634 64.0612C62.2634 64.0612 61.2437 62.8761 60.8741 61.787C60.6141 61.0061 60.5798 57.9852 63.6185 57.9715C63.6185 57.9715 64.4945 57.9304 65.391 58.3551C66.1028 58.6976 67.1773 59.4991 66.5134 62.2391L66.3697 63.1502L62.2634 64.0612Z" fill="#163560"/>
<path d="M70.6882 84.5016C70.6882 84.5016 66.9037 86.7484 62.1609 85.5976C62.1062 85.5839 58.2532 84.9674 58.2532 84.9674C58.3216 84.7893 58.8144 81.8027 58.8828 81.6383C59.7246 79.46 61.2644 67.6506 62.551 67.0683C62.8795 67.4245 63.8171 67.6711 64.6247 67.6026C65.5486 67.5204 65.8566 67.1231 65.7813 66.6916C66.8078 67.1779 67.5949 67.6232 67.5949 67.6232C68.5256 69.0274 70.6882 84.5016 70.6882 84.5016Z" fill="white"/>
<path d="M66.1508 65.1778C66.1508 65.1778 62.4209 65.7943 62.0719 63.4653C61.7229 61.1363 61.0043 59.643 63.3722 59.1497C65.7402 58.6565 66.3356 59.4786 66.6435 60.2252C66.9515 60.9787 67.1158 64.9586 66.1508 65.1778Z" fill="#FFB27D"/>
<path d="M65.0695 58.8415C65.0695 58.8415 64.4535 61.7253 62.941 62.3692C61.4286 63.0063 60.6895 62.6843 60.6895 62.6843C60.6895 62.6843 61.7502 61.5472 61.7502 59.8347C61.7502 59.8416 64.1045 57.6564 65.0695 58.8415Z" fill="#163560"/>
<path d="M64.8506 59.1018C64.8506 59.1018 65.7061 59.595 65.9798 60.1635C66.2536 60.7321 66.5205 61.9377 66.8695 61.8418C66.8695 61.8418 67.3623 59.869 66.3425 58.9442C65.2544 57.9716 64.8506 59.1018 64.8506 59.1018Z" fill="#163560"/>
<path d="M76.4646 53.6355C76.3141 53.5807 76.0882 53.4574 75.8008 53.43C75.5407 53.4094 75.2122 53.4916 75.2122 53.4916C75.2122 53.4916 74.1583 60.0402 74.083 60.3827C74.0077 60.7321 69.5729 65.7257 68.3753 65.712C67.294 65.6915 66.0142 66.5272 65.7815 66.6916C65.7815 66.6916 68.2932 72.014 68.4232 73.0141C68.5601 74.1033 69.8604 90.8515 69.8604 90.8515C69.8604 90.8515 69.7851 91.6324 71.236 91.2146C72.6937 90.7967 73.0564 90.4474 73.0564 90.4474C73.0564 90.4474 71.7219 77.2611 71.4413 73.1648C71.4071 72.6168 71.3113 72.1031 71.1881 71.6373C71.0649 71.1852 71.1607 70.6988 71.4413 70.3221C73.2823 67.7944 76.184 63.705 76.3483 62.835C76.5673 61.5335 76.4646 53.6355 76.4646 53.6355Z" fill="#2B478B"/>
<path d="M61.1754 123.17H54.8997C54.8997 123.17 54.7491 122.211 55.0776 121.485C55.3924 120.786 55.8783 120.354 55.9262 119.82C56.3232 120.231 56.8159 120.498 57.7261 120.375C57.8356 120.553 58.4447 121.519 58.8143 121.786C59.2181 122.088 61.0454 121.978 61.1754 123.17Z" fill="#233862"/>
<path d="M65.4867 73.521C65.2746 72.2195 62.5713 66.9861 62.5713 66.9861C62.5713 66.9861 60.8604 66.4724 59.738 66.8834C58.6156 67.2944 52.7984 64.0064 52.6136 63.6981C52.4289 63.3967 49.315 57.5879 49.315 57.5879C49.315 57.5879 49.0549 57.4372 48.6443 57.6564C48.2336 57.8688 48.2336 58.2866 48.2336 58.2866C48.2336 58.2866 50.6358 65.6024 51.2791 66.7327C51.6624 67.4177 54.9063 69.7878 57.4248 71.5688C57.9039 71.9113 58.1571 72.4867 58.075 73.0689C57.7396 75.5692 57.6506 76.9803 57.2605 81.2684C56.9389 84.8304 56.8157 91.7215 56.8157 91.7215C56.8157 91.7215 59.6285 92.6942 61.5721 92.8243C63.5157 92.9545 63.94 90.9063 63.94 90.9063C63.94 90.9063 65.7057 74.8636 65.4867 73.521Z" fill="#2B478B"/>
<path d="M64.9326 64.0269C64.9326 64.0269 65.3843 64.2941 65.9181 64.2119C66.2877 64.1571 66.3698 63.7187 66.3698 63.7187C66.3698 63.7187 66.1166 63.6365 65.706 63.7187C65.3022 63.8077 64.9326 64.0269 64.9326 64.0269Z" fill="white"/>
<path d="M137.566 63.5406C137.566 63.5406 138.723 65.4517 136.546 66.6573C136.546 66.6573 138.223 67.2601 138.805 67.0341C138.805 67.0341 138.661 67.1848 138.551 67.2396C138.551 67.2396 140.126 67.7396 140.906 67.4656C141.693 67.1916 143.376 59.5676 138.736 59.1635C138.736 59.1635 135.075 57.8483 134.302 61.9445C133.528 66.0408 132.118 65.6367 132.118 65.6367C132.118 65.6367 132.461 65.9244 132.652 65.9792C132.652 65.9792 132.953 65.9586 133.049 65.8353C133.049 65.8353 132.933 66.0408 132.844 66.0956C132.844 66.0956 134.329 66.6573 135.239 66.3422C136.149 66.0271 137.552 64.4242 137.566 63.5406Z" fill="#163560"/>
<path d="M132.898 123.725H138.825C138.825 123.725 138.969 122.821 138.661 122.136C138.367 121.478 137.901 121.074 137.86 120.567C137.484 120.957 137.018 121.204 136.163 121.087C136.06 121.259 135.485 122.17 135.136 122.423C134.746 122.704 133.022 122.608 132.898 123.725Z" fill="#233862"/>
<path d="M137.799 121.464C137.799 121.464 137.293 121.629 136.766 121.677C135.835 121.759 135.698 121.485 135.698 121.485C135.698 121.485 134.774 113.224 131.77 97.4275C131.339 95.1465 131.168 93.8861 131.01 91.8585C130.962 91.2488 130.914 90.5775 130.866 89.7829C130.73 87.6526 131.051 84.07 132.646 83.1316C133.371 82.7 134.357 82.8233 135.691 83.8714C135.794 83.9536 135.903 84.0426 136.013 84.1385C139.9 87.5087 138.306 97.1741 138.463 101.722C138.49 102.476 138.566 103.092 138.716 103.51C138.915 104.051 139.346 104.805 139.448 105.517C140.263 111.402 137.799 121.464 137.799 121.464Z" fill="#2B478B"/>
<path d="M138.463 101.716L131.01 91.8517C130.962 91.242 130.914 90.5707 130.866 89.7761C130.73 87.6458 131.051 84.0632 132.646 83.1248L135.691 83.8646C135.794 83.9468 135.904 84.0358 136.013 84.1317C139.9 87.4951 138.306 97.1673 138.463 101.716Z" fill="#233862"/>
<path d="M159.535 111.251L157.071 105.86C157.071 105.86 156.188 106.106 155.695 106.675C155.223 107.216 154.881 107.12 153.8 106.374C154.203 107.004 154.258 107.374 154.511 108.203C154.71 108.23 155.839 109.319 156.996 109.621C157.461 109.737 158.467 111.607 159.535 111.251Z" fill="#233862"/>
<path d="M133.686 85.4948C133.686 85.4948 138.997 103.962 140.94 105.154C142.884 106.346 153.109 107.977 155.189 108.867C155.189 108.867 155.442 108.504 155.292 107.73C155.257 107.559 154.963 106.935 154.963 106.935C154.963 106.935 148.612 102.154 144.431 101.675C143.39 101.558 146.545 85.7004 139.531 85.0633C133.139 84.4879 133.686 85.4948 133.686 85.4948Z" fill="#2B478B"/>
<path d="M126.11 55.1905C126.11 55.1905 126.254 54.4781 126.411 53.9369C126.479 53.6972 125.987 52.1148 125.644 51.923C125.302 51.7312 124.406 52.793 124.659 53.6081C124.789 54.026 125.001 55.396 125.001 55.396L126.11 55.1905Z" fill="#FFB27D"/>
<path d="M126.11 55.1905C126.11 55.1905 126.294 54.7795 126.466 54.711C126.637 54.6425 126.815 53.9712 126.938 53.6972C126.938 53.6972 126.821 53.519 126.609 53.7451C126.479 53.8821 126.199 54.2863 126.199 54.2863L126.11 55.1905Z" fill="#FFB27D"/>
<path d="M150.569 57.588C150.604 57.6633 150.658 57.8003 150.699 57.9236C150.699 57.8894 150.699 57.8551 150.699 57.8209C150.699 57.5674 151.637 56.2043 152.02 56.1152C152.404 56.033 152.951 57.3071 152.465 58.0195C152.219 58.3826 151.617 59.6293 151.617 59.6293L150.617 59.1155C150.617 59.1155 150.563 58.6634 150.419 58.5538C150.275 58.4374 150.303 57.7387 150.261 57.451C150.268 57.4441 150.433 57.3071 150.569 57.588Z" fill="#FFB27D"/>
<path d="M134.746 68.4315C134.733 68.4383 135.814 69.2192 136.731 69.1096C137.593 69.0069 138.291 68.0136 138.285 68.0068C137.942 67.8835 137.915 67.3903 138.23 65.3148L138.066 65.3216L135.321 65.4518C135.321 65.4518 135.26 66.3012 135.143 67.0889C135.041 67.7602 134.911 68.3835 134.746 68.4315Z" fill="#FFB27D"/>
<path d="M135.321 65.4517C135.321 65.4517 135.26 66.3011 135.144 67.0889C136.642 67.267 137.628 66.0271 138.066 65.3216L135.321 65.4517Z" fill="#ED975D"/>
<path d="M138.381 65.075C138.381 65.075 139.346 63.9584 139.688 62.9309C139.934 62.198 139.969 59.3415 137.101 59.3278C137.101 59.3278 136.273 59.2867 135.431 59.6909C134.76 60.0128 133.748 60.7732 134.37 63.3556L134.5 64.2187L138.381 65.075Z" fill="#163560"/>
<path d="M131.311 84.7825C131.311 84.7825 134 86.4813 138.483 85.3921C138.538 85.3784 141.029 84.9811 141.029 84.9811C140.967 84.8099 138.346 80.4738 138.285 80.3163C137.491 78.2613 139.332 68.4589 138.113 67.9109C137.806 68.2466 136.916 68.4795 136.163 68.411C135.287 68.3356 135 67.9589 135.068 67.5479C134.103 68.0068 133.357 68.4315 133.357 68.4315C132.474 69.7604 131.311 84.7825 131.311 84.7825Z" fill="#FFB27D"/>
<path d="M134.712 66.1299C134.712 66.1299 138.23 66.7121 138.559 64.5133C138.887 62.3144 139.565 60.9102 137.334 60.4444C135.103 59.9786 134.541 60.7526 134.247 61.4582C133.96 62.1637 133.802 65.9175 134.712 66.1299Z" fill="#FFB27D"/>
<path d="M135.732 60.1498C135.732 60.1498 136.314 62.8761 137.737 63.4721C139.161 64.0749 139.866 63.7735 139.866 63.7735C139.866 63.7735 138.867 62.698 138.86 61.0883C138.867 61.0951 136.642 59.0333 135.732 60.1498Z" fill="#163560"/>
<path d="M135.944 60.3964C135.944 60.3964 135.137 60.8622 134.877 61.3965C134.617 61.9308 134.37 63.0679 134.035 62.9789C134.035 62.9789 133.57 61.1157 134.535 60.2457C135.561 59.3278 135.944 60.3964 135.944 60.3964Z" fill="#163560"/>
<path d="M151.39 59.6224C151.39 59.6224 149.125 66.5272 148.516 67.5889C148.153 68.2328 144.068 70.781 141.693 72.4593C141.665 72.4798 141.638 72.5141 141.604 72.5689C141.008 73.4868 139.174 79.1586 139.612 80.1724C141.46 84.4536 142.733 86.1045 143.192 87.3032C143.424 87.8992 143.116 88.5705 142.507 88.7897C141.748 89.0637 140.625 89.3993 139.304 89.6254C139.051 89.6665 138.791 89.7076 138.524 89.7418C134.876 90.2076 132.413 89.3514 131.153 88.7143C130.558 88.4129 130.202 87.7896 130.243 87.132C130.318 85.7757 130.996 84.4399 131.297 81.1862C131.53 78.7133 129.401 74.9595 129.49 73.6443C129.525 73.1237 129.935 72.5004 130.154 72.0962C130.544 71.3838 130.763 70.7399 130.503 70.3769C128.765 67.9931 125.021 64.7051 124.871 63.8831C124.645 62.6775 124.748 55.2247 124.748 55.2247C124.891 55.1768 125.104 55.0535 125.377 55.0329C125.624 55.0124 125.932 55.0877 125.932 55.0877C125.932 55.0877 126.924 61.2664 126.999 61.5883C127.075 61.9171 131.256 66.6299 132.385 66.6162C133.405 66.5957 134.842 67.3834 135.061 67.541C135.061 67.541 134.144 69.1644 133.918 71.3496C133.761 72.884 134.781 72.199 135.424 71.1509C136.293 69.733 138.045 67.7054 138.045 67.7054C138.045 67.7054 139.469 67.3355 140.529 67.7191C141.59 68.1027 147.079 64.9996 147.257 64.7188C147.435 64.4311 150.371 58.9511 150.371 58.9511C150.371 58.9511 150.617 58.8073 151.007 59.0128C151.39 59.232 151.39 59.6224 151.39 59.6224Z" fill="#01BA57"/>
<path d="M135.732 64.938C135.732 64.938 135.582 65.2394 135.376 65.2462C135.171 65.2531 134.658 65.2051 134.624 65.1503C134.589 65.0955 134.5 64.7804 134.5 64.7804C134.5 64.7804 135.356 64.7462 135.732 64.938Z" fill="white"/>
<path d="M142.514 88.8034C141.754 89.0774 140.632 89.413 139.311 89.6391C138.052 87.906 135.923 85.7209 136.471 81.6999C137.039 77.5488 141.118 73.1785 141.604 72.5757C141.008 73.4936 139.174 79.1654 139.612 80.1792C141.46 84.4605 142.733 86.1113 143.191 87.3101C143.424 87.9129 143.116 88.5842 142.514 88.8034Z" fill="#0F984E"/>
<path d="M130.168 72.1031C130.558 71.3907 130.777 70.7468 130.517 70.3838C128.779 68 125.036 64.712 124.885 63.89C125.255 64.7805 129.792 67.4451 131.072 68.5891C132.324 69.733 130.216 72.0483 130.168 72.1031Z" fill="#0F984E"/>
<path d="M54.011 39.2368C54.011 39.2368 54.8596 40.4013 54.7707 41.7302C54.7022 42.7166 53.8262 43.7167 53.7646 43.7578L55.1539 44.4976C55.1539 44.4976 56.1805 42.6686 55.8383 41.1411C55.7288 40.6753 55.2429 39.9218 54.8802 39.593C54.4764 39.2231 54.011 39.2368 54.011 39.2368Z" fill="#6BB7BF"/>
<path d="M51.1773 39.3601L50.3013 37.4147C50.3013 37.4147 54.4007 37.5517 55.7626 40.8945C55.7557 40.9014 52.8882 38.8532 51.1773 39.3601Z" fill="#86D1CD"/>
<path d="M35.6903 88.8171C35.6903 88.8171 34.7116 88.0773 34.4584 86.9745C34.2736 86.1525 34.739 85.1249 34.78 85.0838L33.4729 84.8235C33.4729 84.8235 33.0828 86.5635 33.7398 87.7211C33.9382 88.0773 34.5268 88.5637 34.9032 88.7486C35.3138 88.9404 35.6903 88.8171 35.6903 88.8171Z" fill="#6BB7BF"/>
<path d="M37.9695 88.0156L39.1603 89.3788C39.1603 89.3788 35.7932 90.2761 33.8701 87.8923C33.8633 87.8923 36.7034 88.8513 37.9695 88.0156Z" fill="#86D1CD"/>
<path d="M185.555 95.167C185.555 95.167 185.466 93.8861 187.875 93.2627C188.949 92.9819 191.351 93.4819 189.832 95.8383C188.251 98.2975 186.841 97.407 186.841 97.407C186.841 97.407 190.14 94.8245 188.819 93.6395C187.361 92.338 186.8 94.9204 186.8 94.9204C186.8 94.9204 186.212 94.8999 185.555 95.167Z" fill="#F1A34F"/>
<path d="M186.403 97.5645C186.403 97.5645 185.507 97.0782 185.863 95.9959L187.156 96.2219C187.156 96.2219 186.656 97.3933 187.875 97.5371C187.875 97.5303 186.704 97.8111 186.403 97.5645Z" fill="#DB7714"/>
<path d="M102.095 28.8111C102.095 28.8111 103.436 26.8725 105.496 28.2425L106.748 27.0438C106.748 27.0438 105.578 26.1533 102.875 27.7493C101.109 28.7974 102.095 28.8111 102.095 28.8111Z" fill="#5685D8"/>
<path d="M100.767 30.7085C100.767 30.7085 100.5 28.4891 104.216 27.0986C104.216 27.0986 102.875 27.7493 102.457 29.9687L100.767 30.7085Z" fill="#739AF0"/>
<path d="M115.7 18.9265C115.7 18.9265 116.802 18.2347 116.912 17.3922C116.912 17.3922 117.979 17.447 118.212 17.7963C118.212 17.7963 117.719 19.1868 117.144 19.4471C117.151 19.4471 115.851 19.5293 115.7 18.9265Z" fill="#F99746"/>
<path d="M80.3517 98.1536C80.3517 98.1536 79.1814 97.4138 79.0582 96.5165C79.0582 96.5165 77.9153 96.5782 77.6689 96.9481C77.6689 96.9481 78.1959 98.4276 78.8118 98.7085C78.8118 98.7085 80.2011 98.8044 80.3517 98.1536Z" fill="#F99746"/>
<path d="M128.457 40.7986C128.457 40.7986 129.634 40.0519 129.757 39.1546C129.757 39.1546 130.9 39.2163 131.153 39.5862C131.153 39.5862 130.626 41.0726 130.01 41.3534C130.003 41.3603 128.607 41.4493 128.457 40.7986Z" fill="#86D1CD"/>
<path d="M151.363 74.9116C151.363 74.9116 150.685 74.0827 150.315 73.9663C149.953 73.8498 149.241 73.3018 149.152 73.5279C149.063 73.7539 149.631 74.1033 149.597 74.3636C149.569 74.6239 147.79 75.0349 147.804 75.3089C147.817 75.5829 148.221 76.2405 148.899 76.1652C149.576 76.0898 151.294 75.6788 151.65 75.8569C151.999 76.0419 151.363 74.9116 151.363 74.9116Z" fill="#FFB27D"/>
<path d="M169.683 70.8907C168.677 72.2401 167.507 73.3019 166.295 74.1444C162.456 76.8159 158.295 77.2132 158.295 77.2132C157.296 76.8913 154.237 76.5625 152.423 76.2679C151.636 76.1378 151.082 76.0213 151.048 75.9186L151.096 74.3431C151.096 74.3431 157.741 73.9937 158.843 73.48C160.581 71.9867 162.114 70.0413 163.106 68.5206C163.948 67.2396 164.892 66.2943 166.453 65.7395C168.704 64.9311 172.804 66.7053 169.683 70.8907Z" fill="#AEC3FF"/>
<path d="M166.638 73.1512L166.302 74.1444C162.463 76.8159 158.302 77.2132 158.302 77.2132C157.501 77.2132 154.244 76.5625 152.43 76.2679C152.499 76.2748 157.358 76.6515 158.432 76.5419C159.513 76.4323 164.55 72.062 164.55 72.062L166.638 73.1512Z" fill="#9DB0F4"/>
<path d="M162.306 123.17H169.649C170.176 122.814 169.506 119.32 169.506 119.32C169.506 119.32 167.5 118.56 167.158 120.108C166.809 121.656 164.605 122.149 163.435 122.334C162.634 122.464 162.381 122.903 162.306 123.17Z" fill="#233862"/>
<path d="M173.194 123.17H180.538C181.065 122.814 180.394 119.32 180.394 119.32C180.394 119.32 178.389 118.56 178.047 120.108C177.698 121.656 175.494 122.149 174.324 122.334C173.523 122.464 173.27 122.903 173.194 123.17Z" fill="#233862"/>
<path d="M164.277 87.5498C164.277 87.5498 164.605 91.6735 164.995 96.6261C165.522 103.36 166.946 120.039 166.946 120.039C166.946 120.039 167.876 120.834 169.943 120.402C169.943 120.402 171.702 114.648 172.229 108.072C172.236 107.963 172.243 107.853 172.256 107.75C172.742 101.065 173.509 86.9744 173.509 86.9744L164.277 87.5498Z" fill="#2B478B"/>
<path d="M164.167 86.1251C164.167 86.1251 164.612 91.6736 164.995 96.6261L172.222 108.079C172.229 107.97 172.236 107.86 172.249 107.757C172.735 101.072 173.502 86.9813 173.502 86.9813L164.167 86.1251Z" fill="#233862"/>
<path d="M166.275 86.125C166.275 86.125 171.517 99.188 173.194 104.141C174.385 107.668 177.759 120.046 177.759 120.046C177.759 120.046 179.224 120.491 180.455 119.628C180.455 119.628 181.708 106.983 179.176 103.421C177.834 101.531 178.84 83.7618 173.399 83.6111C167.952 83.4604 166.275 86.125 166.275 86.125Z" fill="#2B478B"/>
<path d="M168.616 66.8697C169.417 67.2944 170.197 67.3149 170.874 67.1711C171.497 67.0409 172.024 66.7669 172.407 66.5272C172.797 66.2806 173.023 66.0614 173.023 66.0614C173.023 66.0614 172.996 66.0203 172.948 65.9449C172.708 65.5408 171.997 64.0817 172.311 61.7459C172.318 61.7185 172.086 61.7596 171.737 61.8418C170.696 62.0884 168.602 62.6843 168.513 62.7117H168.506C168.506 62.7117 168.479 63.2049 168.397 64.0886C168.39 64.1639 168.383 64.2461 168.376 64.3283C168.363 64.4311 168.356 64.5407 168.342 64.6571C168.246 65.5682 168.616 66.8697 168.616 66.8697Z" fill="#FFB27D"/>
<path d="M168.396 64.0818C169.95 64.438 172.27 62.1432 172.27 62.1432C172.099 62.0199 171.921 61.9171 171.736 61.8418C170.696 62.0884 168.602 62.6844 168.513 62.7118H168.506C168.506 62.7118 168.485 63.1981 168.396 64.0818Z" fill="#ED975D"/>
<path d="M167.87 62.5816C167.87 62.5816 168.506 62.8076 169.321 62.9172C170.512 63.0748 172.079 62.9857 172.572 61.5404C173.4 59.1155 174.46 57.6564 172.017 56.6632C170.71 56.1357 169.875 56.1015 169.307 56.307C168.814 56.4851 168.527 56.8276 168.301 57.1769C167.836 57.9304 166.884 62.1569 167.87 62.5816Z" fill="#FFB27D"/>
<path d="M166.391 57.3756C167.801 58.3894 169.758 57.3961 170.361 57.6633C170.97 57.9304 171.079 58.9511 171.086 59.273C171.1 59.595 171.141 59.869 171.962 59.6772C172.099 59.6429 172.195 59.6566 172.263 59.6977C172.605 59.9032 172.167 60.8828 172.037 61.0951C172.037 61.0951 171.846 61.8007 172.27 62.1432C172.318 62.1843 173.146 62.5473 175.138 59.4991C175.452 59.0196 175.747 57.9441 175.268 56.9029C174.782 55.8617 172.77 54.8616 171.059 54.3273C170.415 54.1287 169.943 54.1355 169.574 54.2725C168.951 54.4986 168.622 55.0877 168.294 55.6768C167.74 56.6632 166.391 57.3756 166.391 57.3756Z" fill="#A9453D"/>
<path d="M175.473 87.0429C175.473 87.0429 174.789 87.1936 173.926 87.3375C173.085 87.4813 172.065 87.6183 171.34 87.6115C167.658 87.5841 164.578 86.4949 164.578 86.4949C163.887 86.4949 163.572 85.4195 163.456 83.9262C163.38 82.9124 163.394 81.7068 163.449 80.5012C163.469 80.1107 163.49 79.7203 163.51 79.3436C163.558 78.5832 163.613 77.8571 163.668 77.2201C163.716 76.6173 163.764 76.0898 163.784 75.6788C163.784 75.6788 163.688 72.8087 163.722 70.2879C163.75 68.4795 164.763 66.8286 165.023 66.5615C165.762 65.7806 167.897 65.2874 168.321 65.2189C168.356 65.212 168.369 65.212 168.369 65.212C170.128 66.1984 172.489 64.8627 172.489 64.8627C172.544 64.8695 172.592 64.8832 172.647 64.8969C172.818 64.8627 174.597 65.123 175.008 65.349C176.028 65.9039 176.623 72.0894 176.623 72.0894C176.794 76.2885 176.582 83.0083 176.91 85.577C177.034 86.4127 176.212 86.8717 175.473 87.0429Z" fill="#AEC3FF"/>
<path d="M172.647 64.8969C172.647 64.8969 170.033 67.5958 168.158 67.0478C168.158 67.0478 167.911 66.6848 168.753 66.5683C169.595 66.445 170.505 66.493 172.647 64.8969Z" fill="#9DB0F4"/>
<path d="M167.849 61.0198C167.849 61.0198 167.801 61.3349 168.527 61.5815C168.527 61.5815 169.143 61.7939 169.252 61.4719C169.252 61.4719 168.766 61.0061 167.849 61.0198Z" fill="white"/>
<path d="M174.084 75.1103C174.084 75.1103 170.286 81.4739 168.13 82.5905C166.672 83.3508 164.633 83.7481 163.462 83.9262C163.387 82.9124 163.401 81.7068 163.456 80.5012C165.002 80.3163 167.35 80.0149 167.35 80.0149L174.084 75.1103Z" fill="#9DB0F4"/>
<path d="M169.074 71.9182L167.048 79.2339C167.048 79.2339 164.667 79.3846 163.517 79.3435C163.565 78.5832 163.565 78.5626 163.62 77.9187C163.62 77.9187 166.357 76.4871 169.074 71.9182Z" fill="#9DB0F4"/>
<path d="M156.879 79.7751C156.879 79.7751 156.201 78.9462 155.832 78.8298C155.469 78.7133 154.757 78.1653 154.668 78.3914C154.579 78.6174 155.147 78.9668 155.113 79.2271C155.086 79.4874 153.306 79.8984 153.32 80.1724C153.334 80.4464 153.738 81.104 154.415 81.0287C155.093 80.9533 156.81 80.5423 157.166 80.7204C157.515 80.8985 156.879 79.7751 156.879 79.7751Z" fill="#FFB27D"/>
<path d="M176.849 69.6234C176.849 69.6234 176.965 73.5005 168.144 81.2752L166.371 78.0968C166.043 77.905 172.072 64.9312 173.803 65.0339C177.157 65.2326 176.849 69.6234 176.849 69.6234Z" fill="#AEC3FF"/>
<path d="M167.425 77.7201C167.425 77.7201 157.385 78.8709 157.016 79.0695C156.646 79.2682 155.846 80.0491 156.113 81.0218C156.113 81.0218 161.307 81.6725 164.168 81.6657C166.631 81.652 168.226 81.2615 168.226 81.2615L167.425 77.7201Z" fill="#AEC3FF"/>
</svg>
