<svg width="194" height="105" viewBox="0 0 194 105" fill="none" xmlns="http://www.w3.org/2000/svg">
<g clip-path="url(#clip0)">
<path opacity="0.5" d="M190.234 104.333C190.22 104.36 190.2 104.387 190.187 104.414C190.08 104.607 189.967 104.801 189.854 105.001L15.3276 104.947C15.3276 104.947 15.161 104.761 14.8543 104.394C14.8343 104.374 14.821 104.354 14.801 104.327C14.0209 103.393 12.4542 101.417 10.6142 98.641C5.74065 91.2669 -1.00625 78.2003 0.127125 63.6989C0.447136 59.608 1.39384 55.3971 3.1939 51.1728C8.64742 38.3531 24.908 29.711 39.5618 29.5375C45.2353 29.4708 50.6622 30.672 55.129 33.3881C55.9224 33.8686 56.9157 34.2423 58.0758 34.4959C59.0492 34.7094 60.1425 34.8429 61.3292 34.8829C70.8429 35.2166 86.3234 29.8511 95.5037 16.3441C100.377 9.17013 107.864 4.4787 116.464 2.02954C116.864 1.91609 117.271 1.80932 117.671 1.70254C119.625 1.20203 121.638 0.8083 123.678 0.534688C124.045 0.487974 124.418 0.44126 124.785 0.394546C133.858 -0.659859 143.579 0.427913 152.499 3.44431C153.672 3.83804 154.832 4.27182 155.979 4.73229C172.76 11.5325 185.814 25.42 184.667 44.813C184.62 45.5805 184.553 46.3546 184.46 47.142C184.287 48.6369 184.033 50.1584 183.693 51.7134C183.493 52.6276 183.26 53.5552 182.993 54.4962C176.08 79.0745 203.721 80.189 190.234 104.333Z" fill="#DCEAFF"/>
<path d="M190.233 104.333L54.3884 104.346L55.5618 63.7047V52.6668H60.642V44.0447H70.7757V51.3655H73.8691V37.8251H74.5425V36.8775H74.6625V37.8251H77.1092V36.8775H77.2292V37.8251H80.6893V36.8775H80.8093V37.8251H82.9894V36.8775H83.1094V37.8251H84.0028V50.4646H87.4229V48.4225L91.4564 48.4425V45.1325H92.2697V44.4785H92.3764V45.1325H95.4898H96.1099V44.4785H96.2165V45.1325H96.9699V51.7192H101.77V54.1417H104.443V52.7336H106.917V47.1479H108.15V44.5386H108.337V47.1479H111.297V42.2629H111.59V47.1479H113.55V47.0812V46.4605V45.8733V44.8989V44.2783V43.304V42.6834V41.709V41.035V40.0407V39.1798V38.2055V37.5582H114.13V36.8307H114.224V37.5582H118.544V36.8307H118.637V37.5582H119.424V42.6633H119.977H119.971V41.689H119.977V41.015H119.971V40.0407H119.977V39.3667H119.971V38.3923H119.977H125.218H126.118C126.164 38.419 126.211 38.4457 126.258 38.4724V44.9857H127.224V44.0447H138.291V51.3655H141.671V37.8251H142.405V36.8775H142.538V37.8251H145.205V36.8775H145.338V37.8251H149.118V36.8775H149.252V37.8251H151.632V36.8775H151.765V37.8251H152.745V50.4646H156.479V48.4225L160.879 48.4425V45.1325H161.765V44.4785H161.885V45.1325H165.286H165.966V44.4785H166.086V45.1325H166.906V51.7192H172.146V54.1417H175.059V52.7336H177.759V47.1479H179.106V44.5386H179.313V47.1479H182.546V42.2629H182.866V47.1479H184.453C184.28 48.6427 184.026 50.1643 183.686 51.7192C183.486 52.6335 183.253 53.5611 182.986 54.502C176.079 79.0737 203.72 80.1881 190.233 104.333Z" fill="#DFEBFA"/>
<path d="M155.978 4.73147V104.333H152.498V3.4435C153.678 3.83723 154.838 4.271 155.978 4.73147Z" fill="#AFCDFB"/>
<path d="M58.0753 34.4884V104.393H14.8538C14.8338 104.373 14.8205 104.353 14.8005 104.326C14.0204 103.392 12.4537 101.416 10.6137 98.6402C5.74016 91.2661 -1.00674 78.1995 0.126636 63.6981C0.446647 59.6072 1.39335 55.3963 3.19341 51.172C8.64693 38.3523 24.9075 29.7102 39.5613 29.5367C45.1815 29.5967 50.535 30.8113 54.9819 33.3873C55.8152 33.8677 56.8619 34.2348 58.0753 34.4884Z" fill="#CEE1FD"/>
<path d="M124.791 0.393723V12.6595C124.791 13.6138 124.557 14.3946 124.271 14.3946H124.197C123.911 14.3946 123.677 13.6138 123.677 12.6595V0.533865C124.051 0.480477 124.417 0.433763 124.791 0.393723Z" fill="#9FC1F4"/>
<path d="M123.944 11.4449C119.904 11.4449 116.63 14.9085 116.63 19.1862H131.258C131.258 14.9085 127.984 11.4449 123.944 11.4449Z" fill="#FF9843"/>
<path d="M124.53 11.5384C124.317 11.4917 124.104 11.4716 123.89 11.4716C121.257 11.4716 119.124 14.9285 119.124 19.1861H120.41C120.404 15.2755 122.204 12.0456 124.53 11.5384Z" fill="#FFC48A"/>
<path d="M172.106 92.9211C172.106 92.9211 170.159 90.6454 171.986 89.2039C171.986 89.2039 173.319 88.3965 174.406 88.4632C174.406 88.4632 172.866 91.0525 173.366 91.3061C173.866 91.5663 174.873 88.303 174.873 88.303C174.873 88.303 177.906 88.0094 178.886 88.4765C178.886 88.4765 176.293 90.5987 176.839 90.7255C177.386 90.8523 180.186 88.7635 180.186 88.7635C180.186 88.7635 183.013 89.244 182.86 90.9724C182.706 92.6942 181.733 93.228 181.306 93.1813C180.88 93.1346 178.373 92.1803 178.32 92.5273C178.266 92.881 179.773 94.0222 180.826 94.0756C180.826 94.0756 178.833 96.2711 177.513 95.6371C176.186 95.0032 176.079 93.9955 175.253 93.6218C174.426 93.2414 173.726 93.2481 174.066 93.6284C174.406 94.0155 175.899 94.3892 176.373 95.2234C176.846 96.0576 177.266 96.6248 175.899 96.4179C174.533 96.2111 172.306 95.2101 172.206 94.0622C172.106 92.9211 172.106 92.9211 172.106 92.9211Z" fill="#77A4E5"/>
<path d="M181.473 91.0191C181.473 91.0191 173.8 90.7255 172.106 92.9211C172.106 92.9211 171.733 94.0422 170.579 95.0699L170.399 95.5571C170.399 95.5571 171.726 94.1556 172.206 94.0689C172.199 94.0689 171.459 91.3461 181.473 91.0191Z" fill="#77A4E5"/>
<path d="M170.573 95.0632C170.573 95.0632 168.926 96.2845 168.813 98.46L169.113 98.4867C169.113 98.4867 169.639 96.2311 170.586 95.3502C171.539 94.476 170.573 95.0632 170.573 95.0632Z" fill="#77A4E5"/>
<path d="M165.299 90.0582C165.299 90.0582 168.392 88.3231 166.952 85.9673C166.952 85.9673 165.799 84.5192 164.559 84.1522C164.559 84.1522 165.219 87.6624 164.559 87.7491C163.899 87.8292 164.106 83.7851 164.106 83.7851C164.106 83.7851 160.846 82.2169 159.565 82.337C159.565 82.337 161.586 85.7671 160.926 85.6804C160.266 85.5936 157.992 82.1301 157.992 82.1301C157.992 82.1301 154.652 81.5095 154.112 83.4915C153.579 85.4735 154.445 86.4678 154.939 86.588C155.432 86.7148 158.612 86.668 158.532 87.0818C158.452 87.4956 156.305 88.1562 155.105 87.7825C155.105 87.7825 156.425 91.0458 158.159 90.879C159.892 90.7122 160.432 89.6377 161.499 89.5576C162.572 89.4776 163.359 89.7645 162.819 90.0515C162.286 90.3384 160.466 90.1449 159.599 90.8857C158.732 91.6264 158.032 92.0802 159.639 92.4072C161.246 92.7409 164.139 92.534 164.712 91.2927C165.299 90.0582 165.299 90.0582 165.299 90.0582Z" fill="#77A4E5"/>
<path d="M155.639 84.1121C155.639 84.1121 164.306 86.9216 165.299 90.0582C165.299 90.0582 165.259 91.4596 166.126 93.0745V93.6952C166.126 93.6952 165.219 91.5864 164.726 91.2994C164.719 91.2994 166.659 88.57 155.639 84.1121Z" fill="#77A4E5"/>
<path d="M166.126 93.0745C166.126 93.0745 167.459 95.1033 166.699 97.5791L166.352 97.4857C166.352 97.4857 166.686 94.7629 165.986 93.3882C165.292 92.0268 166.126 93.0745 166.126 93.0745Z" fill="#77A4E5"/>
<path d="M170.226 87.669C170.226 87.669 166.146 85.38 168.052 82.2769C168.052 82.2769 169.579 80.3683 171.206 79.8811C171.206 79.8811 170.333 84.5125 171.206 84.6193C172.079 84.726 171.806 79.394 171.806 79.394C171.806 79.394 176.106 77.3252 177.793 77.4854C177.793 77.4854 175.126 82.0033 175.999 81.8965C176.873 81.7897 179.86 77.2118 179.86 77.2118C179.86 77.2118 184.266 76.3976 184.973 79.0069C185.68 81.6229 184.54 82.9309 183.886 83.091C183.233 83.2512 179.046 83.1978 179.153 83.745C179.259 84.2923 182.093 85.1598 183.666 84.6727C183.666 84.6727 181.926 88.977 179.639 88.7568C177.353 88.5366 176.646 87.1218 175.233 87.015C173.819 86.9082 172.786 87.2886 173.493 87.669C174.199 88.0494 176.593 87.7958 177.739 88.7635C178.886 89.7311 179.806 90.3317 177.686 90.7722C175.566 91.2059 171.753 90.9323 170.993 89.304C170.233 87.6757 170.226 87.669 170.226 87.669Z" fill="#9FC1F4"/>
<path d="M182.953 79.8278C182.953 79.8278 171.526 83.5315 170.219 87.6691C170.219 87.6691 170.272 89.5176 169.132 91.6464V92.4606C169.132 92.4606 170.332 89.6844 170.979 89.304C170.986 89.304 168.426 85.7071 182.953 79.8278Z" fill="#9FC1F4"/>
<path d="M169.139 91.6398C169.139 91.6398 167.379 94.3158 168.379 97.5792L168.833 97.4591C168.833 97.4591 168.393 93.8687 169.313 92.0602C170.233 90.2517 169.139 91.6398 169.139 91.6398Z" fill="#9FC1F4"/>
<path d="M170.086 104.653C174.5 104.653 178.08 101.069 178.08 96.6515H162.093C162.093 101.069 165.673 104.653 170.086 104.653Z" fill="#9FC1F4"/>
<path d="M172.052 104.593C171.725 104.633 171.399 104.653 171.059 104.653C166.645 104.653 163.065 101.069 163.065 96.6515H165.052C165.052 100.736 168.105 104.099 172.052 104.593Z" fill="#AFCDFB"/>
<path d="M178.266 96.6515H161.832V96.8984H178.266V96.6515Z" fill="#9FC1F4"/>
<path d="M132.878 104.259L125.025 71.6261L125.571 70.3448L133.352 104.259C133.372 104.346 133.305 104.426 133.218 104.426H133.092C132.985 104.426 132.898 104.353 132.878 104.259Z" fill="#77A4E5"/>
<path d="M97.4303 104.426C97.2703 104.426 97.1436 104.279 97.1703 104.119L99.4837 90.0848H100.477L97.717 104.186C97.6903 104.326 97.5703 104.426 97.4303 104.426Z" fill="#77A4E5"/>
<path d="M119.618 104.426C119.458 104.426 119.331 104.279 119.358 104.119L121.671 90.0848H122.665L119.905 104.186C119.878 104.326 119.758 104.426 119.618 104.426Z" fill="#77A4E5"/>
<path d="M124.998 90.1115H97.3701L103.097 54.195H130.725L124.998 90.1115Z" fill="#F5FBFF"/>
<path d="M127.064 89.8379H95.3367V90.8923H127.064V89.8379Z" fill="#77A4E5"/>
<path d="M114.037 61.7094C114.017 61.9963 113.977 62.2699 113.911 62.5435C113.337 65.1128 111.051 67.0748 108.47 67.0815C105.617 67.0881 103.477 64.6857 103.697 61.7227C103.917 58.7597 106.404 56.3506 109.264 56.3506C109.864 56.3506 110.431 56.4574 110.951 56.6509C111.184 56.7376 111.411 56.8444 111.624 56.9645C112.084 57.2248 112.497 57.5651 112.844 57.9656C113.037 58.1858 113.211 58.4327 113.364 58.6863C113.451 58.8331 113.531 58.9933 113.604 59.1534C113.804 59.6005 113.944 60.081 114.011 60.5882C114.044 60.8418 114.057 61.1087 114.057 61.3757C114.051 61.4825 114.044 61.5959 114.037 61.7094Z" fill="#BDD1F9"/>
<path d="M113.597 59.1468L108.864 61.716C108.864 61.716 110.817 58.2726 111.617 56.9579C112.077 57.2182 112.491 57.5585 112.837 57.9589C113.031 58.1791 113.204 58.426 113.357 58.6796C113.451 58.8331 113.531 58.9933 113.597 59.1468Z" fill="white"/>
<path d="M114.091 58.4994L109.771 60.8485C109.771 60.8485 111.551 57.7053 112.284 56.5041C112.704 56.7443 113.084 57.0513 113.398 57.4183C113.571 57.6185 113.731 57.8454 113.871 58.079C113.951 58.2125 114.024 58.3526 114.091 58.4994Z" fill="#F99746"/>
<path d="M122.798 87.3821H100.057L102.357 74.2487H125.098L122.798 87.3821ZM100.244 87.2486H122.664L124.918 74.3822H102.497L100.244 87.2486Z" fill="#BDD1F9"/>
<path d="M121.444 85.5803H101.277C101.277 85.5803 104.857 83.6583 105.837 83.7584C106.817 83.8585 108.23 84.6393 109.137 84.666C110.044 84.6994 111.024 81.9699 112.037 82.0967C113.044 82.2235 113.424 84.6393 113.951 84.3991C114.471 84.1655 116.044 84.0587 116.944 84.3991C117.851 84.7394 119.164 83.3246 119.958 83.3714C120.751 83.4247 121.444 85.5803 121.444 85.5803Z" fill="#F99746"/>
<path d="M106.125 81.723H102.279L102.312 81.5161H106.165L106.125 81.723Z" fill="#F99746"/>
<path d="M106.05 82.1568H102.197L102.23 81.9566H106.084L106.05 82.1568Z" fill="#F99746"/>
<path d="M102.43 79.0003H122.598C122.598 79.0003 119.691 77.0783 118.678 77.1784C117.658 77.2785 115.978 78.0593 115.058 78.086C114.138 78.1194 114.111 75.3899 113.057 75.5167C112.004 75.6435 110.777 78.0526 110.337 77.8191C109.897 77.5855 108.364 77.4787 107.344 77.8191C106.324 78.1594 105.497 76.7446 104.691 76.7913C103.877 76.8381 102.43 79.0003 102.43 79.0003Z" fill="#BDD1F9"/>
<path d="M107.219 75.5167H103.365L103.399 75.3098H107.252L107.219 75.5167Z" fill="#BDD1F9"/>
<path d="M107.137 75.9505H103.284L103.324 75.7436H107.171L107.137 75.9505Z" fill="#BDD1F9"/>
<path d="M103.737 72.4136H102.85L103.623 68.2693H104.503L103.737 72.4136Z" fill="#BDD1F9"/>
<path d="M104.943 72.4136H104.056L104.656 69.2036H105.536L104.943 72.4136Z" fill="#BDD1F9"/>
<path d="M106.15 72.4136H105.263L105.883 69.0635H106.77L106.15 72.4136Z" fill="#BDD1F9"/>
<path d="M107.35 72.4136H106.47L106.944 69.8643H107.824L107.35 72.4136Z" fill="#BDD1F9"/>
<path d="M108.557 72.4136H107.67L108.177 69.6841H109.064L108.557 72.4136Z" fill="#BDD1F9"/>
<path d="M109.763 72.4136H108.876L109.27 70.2981H110.157L109.763 72.4136Z" fill="#BDD1F9"/>
<path d="M115.57 72.4136H114.684L115.457 68.2693H116.337L115.57 72.4136Z" fill="#F99746"/>
<path d="M116.777 72.4136H115.89L116.483 69.2036H117.37L116.777 72.4136Z" fill="#F99746"/>
<path d="M117.984 72.4136H117.097L117.717 69.0635H118.604L117.984 72.4136Z" fill="#F99746"/>
<path d="M119.184 72.4136H118.304L118.771 69.8643H119.657L119.184 72.4136Z" fill="#F99746"/>
<path d="M120.391 72.4136H119.504L120.011 69.6841H120.898L120.391 72.4136Z" fill="#F99746"/>
<path d="M121.597 72.4136H120.71L121.104 70.2981H121.99L121.597 72.4136Z" fill="#F99746"/>
<path d="M119.832 58.8731H116.951L117.025 58.4795H119.905L119.832 58.8731Z" fill="#BDD1F9"/>
<path d="M123.365 58.8731H120.185L120.258 58.4795H123.439L123.365 58.8731Z" fill="#BDD1F9"/>
<path d="M125.632 58.8731H123.605L123.678 58.4795H125.705L125.632 58.8731Z" fill="#BDD1F9"/>
<path d="M127.525 58.8731H125.958L126.032 58.4795H127.599L127.525 58.8731Z" fill="#BDD1F9"/>
<path d="M119.518 60.5548H116.638L116.711 60.1611H119.591L119.518 60.5548Z" fill="#BDD1F9"/>
<path d="M123.044 60.5548H119.864L119.944 60.1611H123.118L123.044 60.5548Z" fill="#BDD1F9"/>
<path d="M125.311 60.5548H123.284L123.358 60.1611H125.384L125.311 60.5548Z" fill="#BDD1F9"/>
<path d="M127.205 60.5548H125.638L125.718 60.1611H127.278L127.205 60.5548Z" fill="#BDD1F9"/>
<path d="M121.545 57.9522H117.125L117.198 57.5585H121.618L121.545 57.9522Z" fill="#BDD1F9"/>
<path d="M124.512 57.9522H121.965L122.038 57.5585H124.585L124.512 57.9522Z" fill="#BDD1F9"/>
<path d="M127.698 57.9522H124.871L124.944 57.5585H127.771L127.698 57.9522Z" fill="#BDD1F9"/>
<path d="M121.204 59.7407H116.791L116.864 59.347H121.278L121.204 59.7407Z" fill="#BDD1F9"/>
<path d="M124.171 59.7407H121.625L121.698 59.347H124.245L124.171 59.7407Z" fill="#BDD1F9"/>
<path d="M127.358 59.7407H124.531L124.605 59.347H127.432L127.358 59.7407Z" fill="#BDD1F9"/>
<path d="M119.198 62.2432H116.318L116.391 61.8495H119.271L119.198 62.2432Z" fill="#BDD1F9"/>
<path d="M122.731 62.2432H119.551L119.625 61.8495H122.805L122.731 62.2432Z" fill="#BDD1F9"/>
<path d="M124.998 62.2432H122.972L123.045 61.8495H125.072L124.998 62.2432Z" fill="#BDD1F9"/>
<path d="M126.892 62.2432H125.325L125.399 61.8495H126.965L126.892 62.2432Z" fill="#BDD1F9"/>
<path d="M120.891 61.429H116.471L116.544 61.0287H120.964L120.891 61.429Z" fill="#BDD1F9"/>
<path d="M123.858 61.429H121.311L121.385 61.0287H123.931L123.858 61.429Z" fill="#BDD1F9"/>
<path d="M127.044 61.429H124.218L124.291 61.0287H127.118L127.044 61.429Z" fill="#BDD1F9"/>
<path d="M118.905 63.8181H116.024L116.098 63.4244H118.978L118.905 63.8181Z" fill="#BDD1F9"/>
<path d="M122.431 63.8181H119.258L119.331 63.4244H122.511L122.431 63.8181Z" fill="#BDD1F9"/>
<path d="M124.698 63.8181H122.671L122.744 63.4244H124.778L124.698 63.8181Z" fill="#BDD1F9"/>
<path d="M126.592 63.8181H125.031L125.105 63.4244H126.665L126.592 63.8181Z" fill="#BDD1F9"/>
<path d="M120.592 63.004H116.178L116.251 62.6103H120.665L120.592 63.004Z" fill="#BDD1F9"/>
<path d="M123.558 63.004H121.012L121.092 62.6103H123.638L123.558 63.004Z" fill="#BDD1F9"/>
<path d="M126.752 63.004H123.918L123.992 62.6103H126.825L126.752 63.004Z" fill="#BDD1F9"/>
<path d="M112.351 68.8833H110.938L110.978 68.6898H112.384L112.351 68.8833Z" fill="#BDD1F9"/>
<path d="M114.077 68.8833H112.523L112.557 68.6898H114.117L114.077 68.8833Z" fill="#BDD1F9"/>
<path d="M112.197 69.7108H110.784L110.824 69.5173H112.231L112.197 69.7108Z" fill="#BDD1F9"/>
<path d="M113.924 69.7108H112.364L112.404 69.5173H113.957L113.924 69.7108Z" fill="#BDD1F9"/>
<path d="M113.184 68.4362H111.024L111.057 68.2426H113.224L113.184 68.4362Z" fill="#BDD1F9"/>
<path d="M114.637 68.4362H113.39L113.43 68.2426H114.677L114.637 68.4362Z" fill="#BDD1F9"/>
<path d="M113.024 69.3104H110.857L110.897 69.1169H113.057L113.024 69.3104Z" fill="#BDD1F9"/>
<path d="M114.477 69.3104H113.23L113.264 69.1169H114.511L114.477 69.3104Z" fill="#BDD1F9"/>
<path d="M123.638 68.8833H122.231L122.265 68.6898H123.678L123.638 68.8833Z" fill="#BDD1F9"/>
<path d="M125.371 68.8833H123.811L123.851 68.6898H125.404L125.371 68.8833Z" fill="#BDD1F9"/>
<path d="M123.484 69.7108H122.078L122.111 69.5173H123.518L123.484 69.7108Z" fill="#BDD1F9"/>
<path d="M125.211 69.7108H123.658L123.691 69.5173H125.251L125.211 69.7108Z" fill="#BDD1F9"/>
<path d="M124.478 68.4362H122.318L122.351 68.2426H124.511L124.478 68.4362Z" fill="#BDD1F9"/>
<path d="M125.931 68.4362H124.685L124.718 68.2426H125.965L125.931 68.4362Z" fill="#BDD1F9"/>
<path d="M124.311 69.3104H122.151L122.184 69.1169H124.351L124.311 69.3104Z" fill="#BDD1F9"/>
<path d="M125.765 69.3104H124.518L124.558 69.1169H125.798L125.765 69.3104Z" fill="#BDD1F9"/>
<path d="M131.138 103.892C131.091 104.566 130.138 104.573 129.058 104.446C127.978 104.319 128.264 104.593 126.751 104.613C125.238 104.633 124.718 104.132 124.644 103.919C124.578 103.725 125.304 103.565 126.084 103.378C126.184 103.352 126.278 103.332 126.378 103.305C127.258 103.085 127.838 102.424 128.591 101.85C129.305 101.303 130.225 99.3342 130.225 99.3342L132.291 99.2408C132.291 99.2408 131.425 101.009 131.098 101.77C130.905 102.217 130.985 102.771 131.071 103.191C131.111 103.418 131.158 103.652 131.138 103.892Z" fill="#FFB27D"/>
<path d="M129.058 104.446C127.978 104.319 128.264 104.593 126.751 104.613C125.238 104.633 124.718 104.132 124.644 103.919C124.578 103.725 125.304 103.565 126.084 103.378L126.091 103.392C126.091 103.392 127.064 103.912 128.311 103.792C129.324 103.692 130.365 103.265 131.065 103.191C131.111 103.418 131.151 103.659 131.138 103.892C131.091 104.566 130.138 104.573 129.058 104.446Z" fill="#233862"/>
<path d="M145.405 104.032C145.358 104.706 144.405 104.713 143.325 104.593C142.245 104.466 142.532 104.74 141.018 104.766C139.505 104.786 138.985 104.293 138.911 104.072C138.845 103.879 139.572 103.719 140.352 103.525C140.452 103.498 140.545 103.478 140.645 103.452C141.525 103.225 142.105 102.571 142.858 101.99C143.572 101.443 142.858 98.2198 142.858 98.2198L145.132 97.9996C145.132 97.9996 145.025 100.716 145.025 101.95C145.025 102.437 145.252 102.905 145.332 103.332C145.378 103.559 145.418 103.792 145.405 104.032Z" fill="#FFB27D"/>
<path d="M143.325 104.593C142.245 104.466 142.532 104.74 141.018 104.766C139.505 104.786 138.985 104.293 138.911 104.072C138.845 103.879 139.572 103.719 140.352 103.525L140.358 103.539C140.358 103.539 141.332 104.059 142.578 103.932C143.592 103.832 144.625 103.405 145.332 103.325C145.378 103.552 145.418 103.792 145.405 104.026C145.352 104.706 144.405 104.713 143.325 104.593Z" fill="#233862"/>
<path d="M138.772 48.2557C138.378 46.6474 138.945 45.8933 139.458 45.4996C139.698 44.9056 139.978 44.4785 140.258 44.3184C140.772 44.0247 141.392 43.9914 141.825 44.0181C141.712 43.9046 141.492 43.8579 141.492 43.8579C141.758 43.8179 142.359 44.0848 142.359 44.0848C146.092 42.6433 146.679 48.1489 146.599 49.4236C146.519 50.7049 146.532 52.2064 148.472 53.2141C152.179 55.136 147.239 62.3767 147.239 62.3767C147.332 61.3423 142.572 55.8901 140.085 54.2618C139.478 53.3676 139.265 51.7993 139.252 51.6725C139.358 52.9204 139.572 53.6212 139.758 54.0149C138.638 52.9738 138.472 50.4713 138.772 48.2557Z" fill="#A9453D"/>
<path d="M140.245 54.3486C140.231 54.3552 141.445 54.9825 142.358 54.7356C143.218 54.502 143.778 53.3876 143.765 53.3876C143.405 53.3142 143.298 52.8137 143.305 50.6715L143.138 50.7048L140.378 51.2521C140.378 51.2521 140.438 52.1196 140.445 52.9405C140.445 53.6211 140.405 54.2751 140.245 54.3486Z" fill="#FFB27D"/>
<path d="M140.378 51.2454C140.378 51.2454 140.438 52.113 140.445 52.9338C141.992 52.8871 142.805 51.479 143.139 50.6982L140.378 51.2454Z" fill="#ED975D"/>
<path d="M129.151 100.429C129.018 100.856 129.318 101.29 129.764 101.31L130.844 101.363L131.984 101.396C132.271 101.403 132.545 101.283 132.725 101.056C133.638 99.9348 136.438 96.211 138.138 90.7922C138.185 90.6387 138.238 90.4852 138.291 90.3318C139.411 87.0551 141.745 82.9376 142.972 79.2138C143.165 78.6199 143.345 78.0593 143.498 77.5321C143.552 77.3653 143.598 77.1984 143.645 77.0316C144.552 73.8884 144.812 71.8196 145.052 69.6174L136.191 69.6908C136.185 69.6975 134.325 84.2122 129.151 100.429Z" fill="#2A4E96"/>
<path d="M137.425 64.6056C137.445 68.8232 136.805 70.6384 136.805 70.6384C136.805 70.6384 140.598 72.567 145.105 71.1456C145.158 71.1256 148.332 70.2313 148.332 70.2313C148.259 70.0578 147.632 67.235 147.559 67.0815C146.605 65.0327 146.345 64.1785 146.232 63.5446C146.025 62.37 146.018 61.1555 146.125 60.0076C146.398 56.9712 147.219 54.4553 147.219 54.4553C145.992 54.1751 144.838 53.6812 143.558 53.2074C143.265 53.5744 142.365 53.9548 141.585 53.9415C140.685 53.9215 140.398 53.5344 140.445 53.114C139.485 53.6479 138.725 54.1484 138.725 54.1484C137.911 55.5631 136.265 56.9379 136.145 59.1067C136.118 59.6406 137.425 64.4855 137.425 64.6056Z" fill="white"/>
<path d="M145.045 65.0728C145.432 65.62 146.172 68.9567 148.025 69.3771C147.072 67.0014 146.352 65.9603 146.238 65.2262C146.032 63.8649 146.025 62.4501 146.132 61.1221C145.512 60.0343 145.052 59.2936 145.052 59.2936C145.005 59.1201 144.072 56.2238 143.772 58.8131C143.465 61.3957 144.612 64.4588 145.045 65.0728Z" fill="#5F9AA8"/>
<path d="M139.865 52.0195C139.865 52.0195 143.518 52.0795 143.525 49.8039C143.525 47.5283 143.998 46.0001 141.665 45.8666C139.331 45.7331 138.878 46.6007 138.691 47.3614C138.505 48.1155 138.911 51.9461 139.865 52.0195Z" fill="#FFB27D"/>
<path d="M139.998 45.8065C139.998 45.8065 140.998 48.4826 142.531 48.8763C144.065 49.2701 144.731 48.863 144.731 48.863C144.731 48.863 143.551 47.9287 143.311 46.2937C143.318 46.287 140.751 44.5319 139.998 45.8065Z" fill="#A9453D"/>
<path d="M140.245 46.0201C140.245 46.0201 139.498 46.614 139.318 47.1946C139.138 47.7752 139.051 48.9698 138.705 48.9297C138.705 48.9297 137.951 47.1145 138.798 46.0868C139.698 44.9991 140.245 46.0201 140.245 46.0201Z" fill="#A9453D"/>
<path d="M134.111 67.5353L132.391 72.8006L133.371 73.1944L136.225 68.543L134.111 67.5353Z" fill="#FFB27D"/>
<path d="M138.765 53.8347C138.765 53.8347 136.731 54.6421 136.138 55.9034C135.551 57.1647 134.658 65.62 134.305 66.4875C133.951 67.3551 133.685 68.0424 133.685 68.0424C133.685 68.0424 134.711 68.91 135.745 68.9701C136.778 69.0368 138.765 53.8347 138.765 53.8347Z" fill="#01BA57"/>
<path d="M140.445 53.114C140.445 53.114 138.331 58.3393 138.271 59.4004C138.211 60.4615 138.025 76.7046 138.025 76.7046C138.025 76.7046 138.151 77.4521 136.718 77.1384C135.284 76.8248 134.918 76.5178 134.918 76.5178C134.918 76.5178 136.284 66.4943 135.911 63.0107C135.538 59.5272 138.771 53.8414 138.771 53.8414L140.445 53.114Z" fill="#01BA57"/>
<path d="M130.845 101.363L132.085 101.403C132.305 101.41 132.518 101.316 132.658 101.143C133.492 100.135 136.392 96.3579 138.138 90.7989C138.185 90.6454 138.238 90.4919 138.292 90.3384C139.412 87.0618 141.745 82.9443 142.972 79.2205C143.165 78.6265 143.345 78.066 143.499 77.5388C143.552 77.3719 143.599 77.2051 143.645 77.0383L142.339 76.0506C142.339 76.0506 138.418 82.3971 137.212 88.3765C136.152 93.5684 131.931 99.8081 130.845 101.363Z" fill="#1E3D70"/>
<path d="M142.198 88.9303C142.178 91.6798 142.305 97.806 142.638 100.802C142.672 101.076 142.898 101.283 143.178 101.283H144.105C144.492 101.283 144.785 101.283 144.978 101.276C145.145 101.276 145.292 101.156 145.318 100.989C146.238 96.3045 146.898 92.4139 147.378 89.0571C147.779 86.2409 148.139 83.8318 148.412 81.7564C148.692 79.6676 148.885 77.9192 148.952 76.4377C148.965 76.2041 148.972 75.9772 148.972 75.757C148.979 75.5367 148.979 75.3232 148.979 75.1096L141.325 74.3622C141.425 79.4607 142.212 87.242 142.198 88.9303Z" fill="#2A4E96"/>
<path d="M144.105 101.283C144.458 101.283 144.725 101.283 144.918 101.276C145.125 101.276 145.298 101.129 145.338 100.929C146.252 96.2712 146.905 92.4006 147.385 89.0572C147.785 86.241 148.145 83.8319 148.418 81.7564C148.698 79.6676 148.892 77.9192 148.958 76.4377L146.152 78.0927C146.152 78.0927 147.945 78.7267 147.258 83.5182C146.572 88.3097 145.058 100.602 144.105 101.283Z" fill="#1E3D70"/>
<path d="M143.745 76.3909C143.745 76.3909 144.285 78.3396 146.152 78.0927C148.018 77.8457 150.672 76.7246 150.672 76.7246C150.672 76.7246 149.872 74.202 148.885 70.892C147.685 66.8813 146.198 61.7093 145.498 58.4527C145.305 57.5384 145.165 56.7776 145.118 56.2304L143.571 53.2274C143.571 53.2274 141.265 58.4126 141.138 59.7206C141.005 61.0153 143.745 76.3909 143.745 76.3909Z" fill="#01BA57"/>
<path d="M145.605 59.5138L143.565 53.214C143.571 53.214 146.145 53.9815 147.438 54.6355C147.438 54.6355 148.245 55.6832 148.751 58.0923C148.751 58.0923 149.278 63.8782 148.098 65.9937C148.098 65.9937 144.365 66.7411 138.398 64.6857V63.3176C138.398 63.3176 144.925 63.658 146.265 63.8182L145.605 59.5138Z" fill="#FFB27D"/>
<path d="M143.825 62.4501C143.912 64.5656 144.405 68.6764 148.839 70.872C148.852 70.8787 148.865 70.8853 148.872 70.892C147.672 66.8813 146.185 61.7093 145.485 58.4527C144.679 59.6672 143.779 61.2822 143.825 62.4501Z" fill="#10934D"/>
<path d="M143.565 53.2207C143.565 53.2207 147.352 53.4876 148.265 55.5231C149.179 57.5585 149.466 64.3187 148.305 66.3141C148.305 66.3141 146.705 66.7679 143.879 66.2407C143.845 66.234 143.812 66.2273 143.772 66.2206C143.772 66.2206 142.872 64.0117 143.679 63.5779C143.679 63.5779 146.065 63.7047 145.812 62.9173C145.565 62.1165 143.565 53.2207 143.565 53.2207Z" fill="#01BA57"/>
<path d="M134.071 64.1652L134.185 64.5255L140.398 62.5903C140.398 62.5903 140.478 62.4968 140.438 62.37C140.392 62.2299 140.285 62.2299 140.285 62.2299L134.071 64.1652Z" fill="#A9453D"/>
<path d="M133.618 64.5055L134.071 64.1652L134.178 64.5255L133.618 64.5055Z" fill="#A9453D"/>
<path d="M132.631 72.6538C132.631 72.6538 131.058 73.528 130.844 74.1887C130.638 74.856 130.778 76.2441 131.031 76.224C131.284 76.204 131.658 74.7292 131.864 74.6224C132.071 74.5157 132.364 74.2087 132.364 74.4356C132.364 74.6625 132.158 75.0762 132.258 75.143C132.364 75.203 132.691 74.5624 132.924 74.4356C133.151 74.3088 133.251 73.2878 133.471 73.0075C133.691 72.7406 132.631 72.6538 132.631 72.6538Z" fill="#FFB27D"/>
<path d="M138.398 63.3177C138.398 63.3177 136.992 62.4501 136.398 62.5835C135.805 62.717 134.298 63.8115 135.025 64.0451C135.751 64.2787 136.338 64.0317 136.618 64.2053C136.898 64.3788 137.105 64.6924 138.405 64.6858C139.692 64.6858 138.398 63.3177 138.398 63.3177Z" fill="#FFB27D"/>
<g opacity="0.6">
<g opacity="0.6">
<path opacity="0.6" d="M70.1292 104.419H70.1092C69.9692 104.419 69.8625 104.306 69.8625 104.172L70.2359 88.1162L71.3293 87.9894L70.4026 104.172C70.3826 104.313 70.2692 104.419 70.1292 104.419Z" fill="#77A4E5"/>
</g>
<g opacity="0.6">
<path opacity="0.6" d="M63.7755 104.419H63.7555C63.6155 104.419 63.5088 104.306 63.5088 104.172L63.8821 88.1162L64.9755 87.9894L64.0421 104.172C64.0288 104.313 63.9155 104.419 63.7755 104.419Z" fill="#77A4E5"/>
</g>
<g opacity="0.6">
<path opacity="0.6" d="M81.3094 104.419H81.3294C81.4694 104.419 81.5761 104.306 81.5761 104.172L81.2027 88.1162L80.1094 87.9894L81.0361 104.172C81.0494 104.313 81.1694 104.419 81.3094 104.419Z" fill="#77A4E5"/>
</g>
<path opacity="0.6" d="M63.0554 87.1218V76.1173C63.0554 74.182 64.6221 72.6137 66.5555 72.6137H74.4758C76.4092 72.6137 77.976 74.182 77.976 76.1173V87.5422L63.0554 87.1218Z" fill="#77A4E5"/>
<path opacity="0.6" d="M79.396 88.8569H64.1088C63.5288 88.8569 63.0554 88.3831 63.0554 87.8025V87.1151H79.396V88.8569Z" fill="#77A4E5"/>
<path opacity="0.6" d="M81.2292 88.8569H69.6621C69.2354 88.8569 68.8821 88.5099 68.8821 88.0761V87.8959C68.8821 87.4688 69.2288 87.1151 69.6621 87.1151H81.2292C81.6559 87.1151 82.0092 87.4622 82.0092 87.8959V88.0761C82.0092 88.5099 81.6559 88.8569 81.2292 88.8569Z" fill="#77A4E5"/>
</g>
<path d="M89.8834 98.0195C89.9967 98.5734 90.7834 98.48 91.6635 98.2665C92.5435 98.0529 92.3368 98.3065 93.5835 98.1664C94.8369 98.0262 95.2169 97.5591 95.2503 97.3722C95.2836 97.2054 94.6636 97.1453 94.0036 97.0719C93.9169 97.0652 93.8369 97.0519 93.7502 97.0385C93.0035 96.9451 92.4502 96.458 91.7701 96.0642C91.1235 95.6905 90.1634 94.1556 90.1634 94.1556L88.4434 94.2891C88.4434 94.2891 89.3434 95.6572 89.6901 96.2578C89.8967 96.6115 89.8834 97.0719 89.8567 97.4323C89.8567 97.6258 89.8434 97.826 89.8834 98.0195Z" fill="#FFB27D"/>
<path d="M91.6632 98.2665C92.5432 98.0529 92.3366 98.3065 93.5833 98.1664C94.8367 98.0262 95.2167 97.5591 95.25 97.3722C95.2833 97.2054 94.6633 97.1453 94.0033 97.0719L93.9966 97.0853C93.9966 97.0853 93.2433 97.6191 92.2032 97.6458C91.3565 97.6659 90.4565 97.4256 89.8698 97.4323C89.8564 97.6258 89.8431 97.826 89.8831 98.0196C89.9964 98.5734 90.7832 98.48 91.6632 98.2665Z" fill="#233862"/>
<path d="M75.1229 100.495C74.7829 100.943 75.3695 101.476 76.1162 101.99C76.8562 102.511 76.5296 102.517 77.4629 103.372C78.3963 104.219 78.9963 104.192 79.163 104.099C79.3097 104.012 78.943 103.512 78.563 102.965C78.5163 102.898 78.4696 102.824 78.4163 102.758C77.9896 102.13 77.9896 101.403 77.8363 100.629C77.6896 99.8948 78.8897 97.1987 78.8897 97.1987L76.9696 96.9585C76.9696 96.9585 76.7162 98.5868 76.5029 99.2408C76.3762 99.6279 75.8429 99.8815 75.5562 100.095C75.4029 100.215 75.2429 100.335 75.1229 100.495Z" fill="#FFB27D"/>
<path d="M76.1161 101.99C76.8561 102.511 76.5294 102.517 77.4628 103.372C78.3961 104.219 78.9962 104.192 79.1628 104.099C79.3095 104.012 78.9428 103.512 78.5628 102.965L78.5495 102.971C78.5495 102.971 77.6561 102.758 76.9428 101.997C76.3627 101.37 75.9494 100.535 75.5561 100.102C75.4027 100.222 75.2427 100.342 75.1227 100.502C74.7827 100.943 75.376 101.47 76.1161 101.99Z" fill="#233862"/>
<path d="M82.9696 86.7214L81.2162 91.4462L78.9228 97.6192C78.9228 97.6192 78.3028 97.6792 77.7027 97.5057C77.1561 97.3456 76.5227 96.9318 76.5227 96.9318C76.5227 96.9318 77.1561 90.3051 78.3428 86.5012C78.6494 85.5269 78.9895 84.7327 79.3628 84.2923C81.2162 82.1167 82.9696 86.7214 82.9696 86.7214Z" fill="#163560"/>
<path d="M81.1895 79.2138C80.0428 78.8401 76.576 79.067 73.2826 79.7076L72.7759 78.8267L65.6623 78.2728C65.6623 78.2728 63.3156 83.4848 64.6023 86.8015C64.789 87.2887 65.169 87.6023 65.809 87.6157H65.9157C65.9157 87.6157 70.1491 87.6157 71.5225 87.6157C75.0626 87.6157 79.0094 85.1799 79.5228 85.0798C80.3562 84.9129 80.6962 86.588 81.5295 88.3431C82.3629 90.0982 89.3898 96.1243 89.3898 96.1243C89.3898 96.1243 90.4698 96.1377 90.9165 95.9708C91.3965 95.7906 91.5699 95.5571 91.5699 95.5571C91.5699 95.5571 83.7829 80.0546 81.1895 79.2138Z" fill="#2A4E96"/>
<path d="M70.2824 57.2715C69.2824 57.0312 67.9223 57.3115 67.6957 57.3382C64.9956 57.6518 64.3889 61.8561 64.5889 63.0306C64.9622 65.1928 63.9222 65.8068 62.6822 67.5352C60.1954 71.0054 61.9155 73.8683 63.9355 74.5757C65.1489 75.0028 66.8023 73.8416 66.8023 73.8416C66.8356 73.855 71.0958 69.7775 73.2092 67.7955C76.7626 66.3407 72.8358 57.8854 70.2824 57.2715Z" fill="#233862"/>
<path d="M70.8622 67.1749C70.8755 67.1816 69.7621 67.909 68.8554 67.7555C68.0021 67.6153 67.102 66.5009 67.1087 66.4942C67.4554 66.3874 67.7554 65.987 67.542 63.9115L67.702 63.9249L70.4288 64.1851C70.4288 64.1851 70.4555 65.0327 70.5288 65.8268C70.6021 66.4942 70.7021 67.1215 70.8622 67.1749Z" fill="#FFB27D"/>
<path d="M70.436 64.1852C70.436 64.1852 70.4626 65.0327 70.536 65.8268C69.0359 65.9336 68.1092 64.6457 67.7092 63.925L70.436 64.1852Z" fill="#ED975D"/>
<path d="M71.0092 64.8859C71.0092 64.8859 67.4757 65.2997 67.2557 63.0908C67.0357 60.8818 66.429 59.4537 68.6691 59.0933C70.9158 58.7329 71.4358 59.5338 71.6959 60.2545C71.9492 60.9752 71.9225 64.7258 71.0092 64.8859Z" fill="#FFB27D"/>
<path d="M71.2688 59.1267C71.2688 59.1267 69.5621 61.5692 68.1154 62.1031C66.6686 62.637 65.9819 62.3033 65.9819 62.3033C65.9819 62.3033 66.6753 61.349 66.902 60.041C66.9686 59.6539 67.2353 59.3336 67.6087 59.2068C68.6487 58.8331 70.6488 58.2792 71.2688 59.1267Z" fill="#233862"/>
<path d="M69.8628 59.3069C69.8628 59.3069 70.7761 59.8274 71.1361 60.2945C71.4895 60.7417 71.8628 61.9362 71.8095 62.4634C71.8095 62.4634 72.3828 59.9542 71.4628 59.04C70.4895 58.0723 69.8628 59.3069 69.8628 59.3069Z" fill="#233862"/>
<path d="M73.5822 73.0342C73.4755 80.1748 73.5555 78.6866 72.7755 79.3606C72.5888 79.5208 72.0554 79.6209 71.3621 79.6676C69.1754 79.8144 65.3286 79.454 65.1819 79.047C64.6752 77.6455 65.0352 77.2118 64.6152 75.0696C64.5686 74.8427 64.5152 74.5958 64.4552 74.3288C64.1019 72.854 63.7619 72.3535 65.0086 69.9911C66.1353 67.8489 67.3553 66.1338 67.462 66.2006C70.4421 67.969 70.6354 66.4542 70.6354 66.4542C70.6354 66.4542 73.6288 69.544 73.5822 73.0342Z" fill="white"/>
<path d="M81.2162 91.4462L78.8761 97.8728C78.8761 97.8728 78.0361 98.1464 77.4228 98.0596C76.7961 97.9662 76.4561 97.6258 76.4561 97.6258C76.4561 97.6258 77.1694 90.3051 78.3561 86.5012L81.2162 91.4462Z" fill="#2A4E96"/>
<path d="M70.6294 66.4475C70.6294 66.4475 73.6962 66.968 74.0562 68.2893C74.4162 69.6107 77.0496 76.8914 77.0496 76.8914C77.0496 76.8914 74.9762 77.6589 74.2562 76.9381C73.5362 76.2174 71.7494 70.2513 71.7494 70.2513L70.6294 66.4475Z" fill="white"/>
<path d="M71.356 79.6677C69.1693 79.8145 65.3225 79.4541 65.1758 79.047C64.6691 77.6456 65.0291 77.2118 64.6091 75.0696L65.6358 72.7339C65.6358 72.7339 65.4892 75.41 66.4692 76.2842C67.4426 77.1584 70.4627 77.9659 70.936 78.6933C71.1627 79.0337 71.316 79.3807 71.356 79.6677Z" fill="#DFEBFD"/>
<path d="M71.5364 78.1394C71.5364 78.1394 72.1897 78.6999 72.3764 78.7466C72.5631 78.7933 72.6698 78.7466 72.6698 78.7466L72.1964 78.1928L71.5364 78.1394Z" fill="#FFB27D"/>
<path d="M71.2759 77.4787L72.9226 77.9058C72.9226 77.9058 72.8826 78.0259 72.6959 78.0526C72.5093 78.0793 72.0092 78.0059 72.0092 78.0059L71.2759 77.4787Z" fill="#FFB27D"/>
<path d="M68.4827 78.3863C68.4827 78.3863 70.8361 77.3385 71.2828 77.4787C71.7228 77.6188 72.8561 78.2194 73.0361 78.473C73.2162 78.7266 72.1095 78.4397 71.7628 78.4196C71.5361 78.4063 71.0228 78.7133 70.7627 78.8601C69.676 79.4807 68.9227 79.4273 68.9227 79.4273L68.4827 78.3863Z" fill="#FFB27D"/>
<path d="M67.4557 66.1872C67.4557 66.1872 64.1223 66.8145 63.5089 67.7355C62.1622 69.7509 59.2955 78.1127 60.9022 79.2338C62.7089 80.4951 69.1291 79.5608 69.1291 79.5608C69.1291 79.5608 69.3424 78.5598 69.0424 78.0793C68.7424 77.5988 63.9156 76.8114 63.6889 76.5911C63.4689 76.3709 65.889 73.141 65.6356 72.5203C64.809 70.545 67.4557 66.1872 67.4557 66.1872Z" fill="white"/>
<path d="M80.6229 78.0326C80.6229 78.0326 82.9563 78.6599 83.1963 79.0269C83.4363 79.3873 83.903 80.4951 83.883 80.7887C83.863 81.0757 83.2297 80.2148 82.9897 79.9946C82.8363 79.8544 82.2763 79.7677 82.003 79.721C81.3096 79.6075 80.9763 79.2939 80.7163 79.1337C80.5429 79.0269 80.3296 79.047 80.3296 79.047L80.6229 78.0326Z" fill="#FFB27D"/>
<path d="M82.9963 79.6609C82.9963 79.6609 83.1363 80.4551 83.243 80.5952C83.3497 80.7353 83.4497 80.7687 83.4497 80.7687L83.4364 80.0814L82.9963 79.6609Z" fill="#FFB27D"/>
<path d="M83.1963 79.0269L84.143 80.3149C84.143 80.3149 84.043 80.375 83.8896 80.2883C83.7363 80.2015 83.4163 79.8478 83.4163 79.8478L83.1963 79.0269Z" fill="#FFB27D"/>
<path d="M80.7163 79.1337C80.7163 79.1337 80.9297 79.6609 81.363 79.8477C81.7964 80.0346 82.1097 80.3215 82.183 80.2148C82.2497 80.1147 81.8564 79.5808 81.8564 79.5808L80.7163 79.1337Z" fill="#FFB27D"/>
<path d="M76.4295 75.1697L81.3363 78.2729C81.3363 78.2729 80.823 78.9602 80.6496 79.027C79.743 79.3606 75.6562 79.0403 74.2561 76.9382L76.4295 75.1697Z" fill="white"/>
<path d="M74.4821 78.5398C74.7687 78.5398 77.6488 78.3396 77.6488 78.3396C77.6488 78.3396 77.5688 78.8535 77.7422 79.1204L74.9354 79.6609L74.3621 79.4941L74.4821 78.5398Z" fill="#F9DDBF"/>
<path d="M69.6822 79.0069L74.4824 78.5465C74.4824 78.5465 74.3157 79.434 74.9424 79.6676L69.6489 80.0547C69.6489 80.048 69.2222 79.4474 69.6822 79.0069Z" fill="#F99746"/>
<path d="M77.6423 78.4063L74.3955 78.6532C74.3955 78.6532 74.4222 78.5398 74.4822 78.5398C74.5422 78.5398 77.709 78.3062 77.709 78.3062L77.6956 78.393L77.6423 78.4063Z" fill="#F99746"/>
<path d="M74.9421 79.6609L77.7955 79.1204L77.7755 79.047L74.7288 79.6276L74.9421 79.6609Z" fill="#F99746"/>
<path d="M41.6875 104.399H41.6608C41.5075 104.399 41.3875 104.273 41.3875 104.119L41.8008 86.1876L43.0142 86.0474L41.9808 104.119C41.9675 104.273 41.8408 104.399 41.6875 104.399Z" fill="#77A4E5"/>
<path d="M34.6342 104.399H34.6076C34.4542 104.399 34.3342 104.273 34.3342 104.119L34.7476 86.1876L35.961 86.0474L34.9276 104.119C34.9143 104.273 34.7876 104.399 34.6342 104.399Z" fill="#77A4E5"/>
<path d="M54.095 104.399H54.1217C54.275 104.399 54.395 104.273 54.395 104.119L53.9817 86.1876L52.7683 86.0474L53.8017 104.119C53.8083 104.273 53.9417 104.399 54.095 104.399Z" fill="#77A4E5"/>
<path d="M33.8347 85.0798V72.794C33.8347 70.6318 35.5748 68.8766 37.7215 68.8766H46.5152C48.6619 68.8766 50.402 70.6318 50.402 72.794V85.5469L33.8347 85.0798Z" fill="#77A4E5"/>
<path d="M51.9747 87.0151H35.0008C34.3541 87.0151 33.8274 86.4879 33.8274 85.8406V85.0731H51.968V87.0151H51.9747Z" fill="#77A4E5"/>
<path d="M54.0082 87.0151H41.1677C40.6877 87.0151 40.301 86.628 40.301 86.1475V85.9407C40.301 85.4602 40.6877 85.0731 41.1677 85.0731H54.0015C54.4816 85.0731 54.8682 85.4602 54.8682 85.9407V86.1475C54.8682 86.628 54.4816 87.0151 54.0082 87.0151Z" fill="#77A4E5"/>
<path d="M47.101 64.3387C47.101 64.3387 46.3677 64.966 46.2077 66.5876C46.0877 67.8222 46.941 77.3986 47.5877 78.1594C49.4011 80.3016 51.6679 79.394 52.5546 79.721L53.3946 78.9669C53.3946 78.9669 50.4478 76.7913 50.2212 76.0773C49.3545 73.3478 49.8878 65.373 47.101 64.3387Z" fill="#F9DDBF"/>
<path d="M46.5741 56.524C46.5741 56.524 46.6208 54.7689 44.3074 54.4219C41.994 54.0749 41.354 54.6221 40.9606 55.2094C40.5673 55.8033 39.8272 58.2124 39.9006 59.1734C39.9739 60.1344 42.614 61.3223 42.574 61.8828C42.5273 62.4434 46.5741 56.524 46.5741 56.524Z" fill="#163560"/>
<path d="M57.3079 102.878C57.2345 103.472 58.0412 103.645 58.9813 103.732C59.9213 103.812 59.6279 103.999 60.9147 104.286C62.2014 104.573 62.7281 104.233 62.8281 104.059C62.9147 103.906 62.328 103.639 61.6947 103.332C61.6147 103.292 61.5347 103.258 61.4547 103.218C60.748 102.871 60.368 102.197 59.828 101.563C59.3146 100.963 58.8746 99.094 58.8746 99.094L57.1345 98.6469C57.1345 98.6469 57.5679 100.329 57.7145 101.049C57.8012 101.47 57.6345 101.93 57.4879 102.284C57.4145 102.477 57.3345 102.671 57.3079 102.878Z" fill="#FFB27D"/>
<path d="M58.981 103.732C59.9211 103.812 59.6277 103.999 60.9144 104.286C62.2011 104.573 62.7278 104.233 62.8278 104.059C62.9145 103.906 62.3278 103.639 61.6944 103.332L61.6811 103.345C61.6811 103.345 60.7611 103.625 59.7211 103.298C58.8744 103.031 58.0677 102.477 57.481 102.291C57.401 102.484 57.3276 102.678 57.301 102.885C57.2343 103.472 58.041 103.652 58.981 103.732Z" fill="#233862"/>
<path d="M44.2676 78.6733C44.2676 78.6733 55.9147 79.8812 57.8347 81.6697C59.7548 83.4515 59.4148 100.082 59.4148 100.082C59.1148 100.395 58.8948 100.382 58.4214 100.349C57.9681 100.315 57.0414 99.9216 57.0414 99.9216C57.0414 99.9216 54.548 91.7599 54.5146 89.8647C54.4813 87.9761 54.0879 84.7661 53.2946 84.5793C52.5012 84.3924 43.0742 85.4468 42.0409 82.4705C41.0075 79.4874 42.7209 77.0383 42.7209 77.0383L44.2676 78.6733Z" fill="#10934D"/>
<path d="M38.8273 81.6763C39.3273 82.01 40.2274 82.5305 41.7341 82.5839C44.4342 82.684 47.801 82.357 48.461 81.7364C48.6343 81.5762 48.7143 81.3093 48.741 80.9689C48.8143 79.9345 48.321 78.2261 47.9876 76.818C47.7743 75.9038 47.6276 75.1096 47.7476 74.7025C48.1143 73.468 49.2477 70.9587 49.3477 70.1379C49.4477 69.3104 48.461 64.8926 47.1009 64.3454C45.7409 63.7981 40.494 64.3454 40.494 64.3454C38.4406 64.7591 38.354 69.1369 39.0407 72.8607C39.0607 72.9541 39.074 73.0542 39.094 73.1476C39.8274 76.9248 37.4273 80.7353 38.8273 81.6763Z" fill="#F9DDBF"/>
<path d="M45.6077 65.1461C45.5677 65.3864 44.9143 65.7734 43.5143 65.4064C42.1676 65.0527 42.0076 64.6123 42.0076 64.3253C42.0076 63.985 42.5943 63.5245 42.5876 61.4157L42.7476 61.4491L45.461 61.9896C45.461 61.9896 45.401 62.8438 45.3944 63.6446C45.3877 64.312 45.6677 64.7457 45.6077 65.1461Z" fill="#FFB27D"/>
<path d="M45.4544 61.9763C45.4544 61.9763 45.3944 62.8305 45.3877 63.6313C43.8677 63.5913 43.0676 62.2032 42.741 61.4357L45.4544 61.9763Z" fill="#ED975D"/>
<path d="M45.9609 62.737C45.9609 62.737 42.3741 62.7971 42.3674 60.5615C42.3674 58.3259 41.9007 56.8244 44.1942 56.6909C46.4876 56.5574 46.9343 57.4116 47.1143 58.1591C47.2943 58.9065 46.8943 62.6636 45.9609 62.737Z" fill="#FFB27D"/>
<path d="M45.8276 56.6375C45.8276 56.6375 44.8475 59.2602 43.3341 59.6539C41.8208 60.0476 41.1741 59.6405 41.1741 59.6405C41.1741 59.6405 42.3274 58.7196 42.5675 57.118C42.5741 57.1113 45.0875 55.3896 45.8276 56.6375Z" fill="#163560"/>
<path d="M45.5876 56.8511C45.5876 56.8511 46.321 57.4383 46.501 58.0056C46.681 58.5728 46.761 59.7474 47.101 59.7073C47.101 59.7073 47.8411 57.9255 47.0077 56.9111C46.121 55.8434 45.5876 56.8511 45.5876 56.8511Z" fill="#163560"/>
<path d="M48.5608 103.372C48.5542 103.972 49.3742 104.052 50.3209 104.026C51.2676 103.999 50.9943 104.219 52.301 104.353C53.6077 104.486 54.0944 104.086 54.1744 103.906C54.2477 103.739 53.6277 103.545 52.9677 103.318C52.8877 103.292 52.801 103.258 52.721 103.232C51.981 102.965 51.5276 102.344 50.9209 101.777C50.3476 101.243 51.6143 98.6536 51.6143 98.6536L49.9542 97.8327C49.9542 97.8327 49.6409 99.6813 49.2342 101.296C49.1275 101.717 48.7875 102.404 48.6808 102.764C48.6208 102.951 48.5675 103.158 48.5608 103.372Z" fill="#FFB27D"/>
<path d="M38.9003 81.2292C39.4004 81.5629 40.2271 82.5305 41.7404 82.5839C44.2272 82.0166 47.0606 81.356 48.7474 80.9622C48.8207 79.9279 48.3274 78.2195 47.994 76.8114C46.0273 77.412 43.1072 75.3632 42.1205 74.5557C41.0871 73.7082 41.1204 70.8787 41.1204 70.8787L39.0403 72.854C39.0603 72.9474 39.0737 73.0475 39.0937 73.141C39.827 76.9248 37.4936 80.2882 38.9003 81.2292Z" fill="#F2CCAA"/>
<path d="M50.3209 104.019C51.2676 103.992 50.9943 104.213 52.301 104.346C53.6077 104.479 54.0944 104.079 54.1744 103.899C54.2477 103.732 53.6277 103.538 52.9677 103.312L52.961 103.325C52.961 103.325 52.081 103.712 51.0076 103.505C50.1342 103.338 49.2742 102.884 48.6742 102.764C48.6208 102.965 48.5608 103.165 48.5608 103.378C48.5542 103.966 49.3742 104.046 50.3209 104.019Z" fill="#233862"/>
<path d="M41.7541 79.3873C44.7142 79.3006 53.5412 80.0079 55.2412 81.2892C57.328 82.8642 51.3611 99.9081 51.3611 99.9081C51.3611 99.9081 50.6677 99.9749 50.4477 99.9482C49.501 99.8414 49.1143 99.5544 49.1143 99.5544C49.1143 99.5544 49.1343 89.5243 49.8344 87.6023C50.4811 85.8272 50.8744 85.1999 50.0677 85.0931C49.261 84.9863 39.1873 86.2743 38.3473 83.2312C37.6939 80.8555 38.6606 78.6532 38.6606 78.6532C38.6606 78.6532 39.0273 79.4674 41.7541 79.3873Z" fill="#01BA57"/>
<path d="M40.494 64.3387C40.494 64.3387 38.4406 64.5122 38.2806 66.1405C38.1606 67.3751 37.2672 76.124 37.9073 76.8848C39.7207 79.0269 45.7542 79.4807 46.6409 79.8077L46.8876 78.7934C46.8876 78.7934 40.4407 75.5434 40.5407 74.8027C40.6407 74.0686 42.4607 64.0451 40.494 64.3387Z" fill="#F9DDBF"/>
<path d="M42.0807 55.3095C42.0807 55.3095 42.2274 54.3752 40.9274 54.1283C39.6273 53.8881 39.6073 56.6509 39.4673 57.3116C39.3273 57.9789 39.674 58.3793 40.1674 58.4194C40.6607 58.4594 42.0807 55.3095 42.0807 55.3095Z" fill="#163560"/>
<path d="M46.9542 78.7467C46.9542 78.7467 48.7876 78.2261 49.2276 78.3462C49.6676 78.4664 51.161 79.4607 50.9543 79.7277C50.741 79.9946 49.4209 79.5675 48.8142 79.6476C48.2075 79.7277 47.7342 80.028 47.3008 79.9612C46.8608 79.8945 46.4075 79.7277 46.4075 79.7277L46.9542 78.7467Z" fill="#FFB27D"/>
<path d="M46.9539 78.7466C46.9539 78.7466 47.8539 78.2862 48.1072 78.0193C48.1406 77.9859 48.1939 77.9926 48.2206 78.0326C48.2872 78.1394 48.3539 78.3462 48.0406 78.5598C47.5872 78.8601 46.9539 78.7466 46.9539 78.7466Z" fill="#FFB27D"/>
<path d="M53.3876 78.9736C53.3876 78.9736 55.2943 79.0803 55.6677 79.3339C56.041 79.5942 57.1344 81.0157 56.8477 81.2025C56.561 81.3894 55.4543 80.5552 54.8543 80.4351C54.2543 80.3149 53.7142 80.4484 53.3209 80.2415C52.9275 80.0347 52.5542 79.7277 52.5542 79.7277L53.3876 78.9736Z" fill="#FFB27D"/>
<path d="M40.3077 104.553H32.5541C32.1807 104.099 32.3207 102.417 32.3741 101.87C32.3874 101.757 32.3941 101.697 32.3941 101.697C32.3941 101.697 35.0408 99.5812 35.4008 101.203C35.4142 101.256 35.4275 101.303 35.4408 101.35C35.9009 102.865 37.9543 103.559 39.141 103.752C39.9143 103.872 40.201 104.273 40.3077 104.553Z" fill="#1B3051"/>
<path d="M19.1607 79.3473C19.4407 79.3473 32.4345 81.7898 34.5812 84.4525C35.6546 85.7805 35.8146 101.149 35.8146 101.149C35.8146 101.149 34.4879 102.798 31.6145 101.843C31.6145 101.843 29.5077 91.3328 29.6677 88.1429C29.7077 87.262 20.7874 88.0161 19.154 87.589C17.5207 87.1686 13.5338 83.6116 14.4139 81.8765C15.3006 80.1481 19.1607 79.3473 19.1607 79.3473Z" fill="#233862"/>
<path d="M28.5676 78.6266C28.5676 78.6266 29.401 79.3473 30.2544 79.5475C30.741 79.6609 31.2144 79.7944 31.4944 79.9212C32.2678 80.2749 33.7278 81.8565 33.5945 82.0166C33.1611 82.5238 31.4011 81.2092 31.0611 81.3026C30.7277 81.396 31.6144 82.1568 31.2611 82.3636C31.0744 82.4704 30.7277 81.8098 30.4077 81.7163C29.9677 81.5895 29.681 80.9289 29.5477 80.8822C29.2943 80.7954 28.2209 79.8344 28.2209 79.8344L28.5676 78.6266Z" fill="#FFB27D"/>
<path d="M43.7349 104.553H35.9813C35.608 104.099 35.748 102.417 35.8013 101.87C35.8147 101.757 35.8213 101.697 35.8213 101.697C35.8213 101.697 38.4681 99.5812 38.8281 101.203C38.8414 101.256 38.8548 101.303 38.8681 101.35C39.3281 102.865 41.3815 103.559 42.5682 103.752C43.3416 103.872 43.6283 104.273 43.7349 104.553Z" fill="#1E3C68"/>
<path d="M22.9942 79.3473C23.2742 79.3473 36.268 81.7898 38.4147 84.4525C39.4881 85.7805 39.6481 101.149 39.6481 101.149C39.6481 101.149 38.3214 102.798 35.448 101.843C35.448 101.843 33.3412 91.3328 33.5012 88.1429C33.5412 87.262 24.6209 88.0161 22.9875 87.589C21.3541 87.1686 17.3673 83.6116 18.2474 81.8765C19.1274 80.1481 22.9942 79.3473 22.9942 79.3473Z" fill="#2B478B"/>
<path d="M22.1811 63.5446C21.2478 63.4645 20.2677 63.2176 19.421 62.944C18.361 62.597 17.5076 62.0964 18.061 61.1288C18.5677 60.2345 19.3877 58.2392 19.3344 56.5908L21.3078 58.1791L22.6478 59.2602C22.6478 59.2602 22.6411 59.8942 22.4945 61.0153C22.4678 61.2155 22.4345 61.4358 22.4011 61.676C22.3745 61.8629 22.4611 62.0564 22.6211 62.1565C22.6345 62.1632 22.6411 62.1699 22.6545 62.1765C23.3012 62.5769 22.9611 63.6046 22.1811 63.5446Z" fill="#FFB27D"/>
<path d="M22.6339 58.9932C22.6339 58.9932 22.7006 59.2268 22.5873 60.081C21.3939 59.8875 20.2805 58.9332 20.2805 58.9332C20.8872 58.7663 21.1072 58.1123 21.5606 58.1724L22.6339 58.9932Z" fill="#ED975D"/>
<path d="M23.7407 59.1868C23.7407 59.1868 19.1539 59.9476 18.7205 57.0847C18.2872 54.2151 17.4071 52.3799 20.3206 51.7726C23.234 51.1653 23.9674 52.173 24.3474 53.0939C24.7141 54.0149 24.9207 58.9132 23.7407 59.1868Z" fill="#FFB27D"/>
<path d="M25.0146 51.826C25.2146 52.52 24.6813 53.3609 23.8012 53.6345C22.4878 54.0482 22.7745 55.6565 22.1878 55.6365C21.5945 55.6165 21.3545 54.7089 20.8278 55.4296C20.3744 56.0436 21.2011 56.7777 21.1478 57.118C21.0478 57.6986 20.1411 58.8865 19.3211 58.8264C18.501 58.7663 16.9677 54.8691 17.2743 53.6612C17.581 52.4533 18.8077 51.1853 19.9678 51.0052C21.1278 50.8316 22.7412 51.3322 23.1145 51.3322C23.4812 51.3388 24.9079 51.4523 25.0146 51.826Z" fill="#2B478B"/>
<path d="M26.1544 78.4864C26.0744 79.1471 25.9411 79.6009 25.721 79.7477C25.0344 80.2082 24.1277 80.7754 23.1143 81.3427C19.5208 83.3447 14.6073 85.28 13.6073 81.8966C12.4339 77.9192 13.2073 70.4516 14.354 65.8069C15.014 63.1308 16.8541 60.328 18.0874 60.3346C20.2008 60.3413 23.2343 60.8952 24.461 63.925C24.9344 65.0995 25.6344 69.1636 25.9877 72.8874C26.2077 75.103 26.3011 77.1985 26.1544 78.4864Z" fill="white"/>
<path d="M17.8804 60.3547L18.3604 59.2736C18.3604 59.2736 22.6005 59.7073 23.3206 62.1432C23.3206 62.1498 20.0404 60.4081 17.8804 60.3547Z" fill="#DFEBFD"/>
<path d="M26.1542 78.4864C26.0742 79.1471 25.9409 79.6009 25.7209 79.7477C25.0342 80.2082 24.1275 80.7754 23.1141 81.3427C22.0607 80.702 19.8873 79.1671 19.3806 77.3586C18.7206 74.9962 19.1806 72.0866 19.1806 72.0866L26.1542 78.4864Z" fill="#DFEBFD"/>
<path d="M18.741 63.9917C18.741 63.9917 19.1076 74.1554 19.6877 76.1641C20.6744 79.5876 29.648 80.8088 29.648 80.8088C29.648 80.8088 30.1747 80.2082 29.9413 79.2138C29.9413 79.2138 24.5745 74.9762 24.4145 74.1754C24.2545 73.3679 25.5812 67.909 24.0678 65.9204C22.5544 63.9317 19.761 62.2099 18.741 63.9917Z" fill="white"/>
<path d="M7.48706 104.459H7.4604C7.22039 104.453 7.03371 104.259 7.05372 104.032L8.6671 87.9093L10.0738 88.0361L7.75374 104.239C7.7404 104.366 7.6204 104.459 7.48706 104.459Z" fill="#77A4E5"/>
<path d="M15.7874 104.459H15.7607C15.5207 104.453 15.334 104.259 15.354 104.032L16.9674 87.9093L18.3741 88.0361L16.054 104.239C16.0407 104.366 15.9207 104.459 15.7874 104.459Z" fill="#77A4E5"/>
<path d="M31.3746 104.459H31.4013C31.6413 104.453 31.8279 104.259 31.8079 104.032L30.1945 87.9093L28.7878 88.0361L31.1012 104.246C31.1212 104.366 31.2346 104.459 31.3746 104.459Z" fill="#77A4E5"/>
<path d="M7.94045 85.6203L6.40707 72.1533C6.20706 70.2113 6.85375 68.3093 9.65384 68.1625L14.574 67.8622C17.4941 67.7421 18.8075 70.1712 19.1742 72.0398L22.0943 86.8416L7.94045 85.6203Z" fill="#77A4E5"/>
<path d="M8.76682 88.1362H30.6076C31.0476 88.1362 31.4076 87.7758 31.4076 87.3354V86.3544C31.4076 85.914 31.0476 85.5536 30.6076 85.5536H7.9668V87.3354C7.9668 87.7825 8.32681 88.1362 8.76682 88.1362Z" fill="#77A4E5"/>
<path d="M8.58682 88.1362H21.4873C21.8273 88.1362 22.1073 87.8559 22.1073 87.5156V86.1742C22.1073 85.8339 21.8273 85.5536 21.4873 85.5536H7.9668V87.5156C7.9668 87.8626 8.24681 88.1362 8.58682 88.1362Z" fill="#77A4E5"/>
<path d="M42.5542 44.7187H34.994C34.6473 44.7187 34.3606 44.4318 34.3606 44.0848V36.7773C34.3606 36.4303 34.6473 36.1434 34.994 36.1434H42.5542C42.9009 36.1434 43.1876 36.4303 43.1876 36.7773V44.0848C43.1876 44.4318 42.9009 44.7187 42.5542 44.7187Z" fill="#77A4E5"/>
<path d="M42.2278 44.345H35.3209C35.0009 44.345 34.7476 44.0848 34.7476 43.7711V37.0977C34.7476 36.7773 35.0076 36.5237 35.3209 36.5237H42.2278C42.5478 36.5237 42.8012 36.784 42.8012 37.0977V43.7711C42.8012 44.0848 42.5478 44.345 42.2278 44.345Z" fill="#DFEBFD"/>
<path d="M38.7738 37.4781C38.8732 37.4781 38.9538 37.3974 38.9538 37.2979C38.9538 37.1984 38.8732 37.1177 38.7738 37.1177C38.6743 37.1177 38.5938 37.1984 38.5938 37.2979C38.5938 37.3974 38.6743 37.4781 38.7738 37.4781Z" fill="#77A4E5"/>
<path d="M40.0674 37.5582C40.1141 37.4714 40.2275 37.438 40.3141 37.4847C40.4008 37.5315 40.4341 37.6449 40.3875 37.7317C40.3408 37.8184 40.2274 37.8518 40.1408 37.8051C40.0474 37.7584 40.0141 37.6449 40.0674 37.5582Z" fill="#77A4E5"/>
<path d="M41.3267 38.5658C41.4134 38.5124 41.5267 38.5325 41.58 38.6192C41.6334 38.706 41.6134 38.8194 41.5267 38.8728C41.44 38.9262 41.3267 38.9062 41.2734 38.8194C41.22 38.7327 41.2467 38.6192 41.3267 38.5658Z" fill="#77A4E5"/>
<path d="M41.9539 40.1208C42.0539 40.1208 42.1339 40.2008 42.1339 40.3009C42.1339 40.401 42.0539 40.4811 41.9539 40.4811C41.8539 40.4811 41.7739 40.401 41.7739 40.3009C41.7739 40.2008 41.8539 40.1208 41.9539 40.1208Z" fill="#77A4E5"/>
<path d="M41.5074 42.2363C41.6068 42.2363 41.6874 42.1556 41.6874 42.0561C41.6874 41.9566 41.6068 41.8759 41.5074 41.8759C41.408 41.8759 41.3274 41.9566 41.3274 42.0561C41.3274 42.1556 41.408 42.2363 41.5074 42.2363Z" fill="#77A4E5"/>
<path d="M40.4874 43.0771C40.5607 43.1505 40.5607 43.264 40.4874 43.3374C40.414 43.4108 40.3007 43.4108 40.2274 43.3374C40.154 43.264 40.154 43.1505 40.2274 43.0771C40.3007 43.0037 40.414 43.0037 40.4874 43.0771Z" fill="#77A4E5"/>
<path d="M38.7738 43.8512C38.8732 43.8512 38.9538 43.7705 38.9538 43.671C38.9538 43.5715 38.8732 43.4908 38.7738 43.4908C38.6743 43.4908 38.5938 43.5715 38.5938 43.671C38.5938 43.7705 38.6743 43.8512 38.7738 43.8512Z" fill="#77A4E5"/>
<path d="M37.4737 37.5582C37.427 37.4714 37.3137 37.438 37.227 37.4847C37.1404 37.5315 37.107 37.6449 37.1537 37.7317C37.2004 37.8184 37.3137 37.8518 37.4004 37.8051C37.4937 37.7584 37.527 37.6449 37.4737 37.5582Z" fill="#77A4E5"/>
<path d="M36.2137 38.5658C36.127 38.5124 36.0137 38.5325 35.9603 38.6192C35.907 38.706 35.927 38.8194 36.0137 38.8728C36.1003 38.9262 36.2137 38.9062 36.267 38.8194C36.3204 38.7327 36.3004 38.6192 36.2137 38.5658Z" fill="#77A4E5"/>
<path d="M35.587 40.1208C35.487 40.1208 35.407 40.2008 35.407 40.3009C35.407 40.401 35.487 40.4811 35.587 40.4811C35.687 40.4811 35.767 40.401 35.767 40.3009C35.767 40.2008 35.687 40.1208 35.587 40.1208Z" fill="#77A4E5"/>
<path d="M36.0335 42.2363C36.1329 42.2363 36.2135 42.1556 36.2135 42.0561C36.2135 41.9566 36.1329 41.8759 36.0335 41.8759C35.9341 41.8759 35.8535 41.9566 35.8535 42.0561C35.8535 42.1556 35.9341 42.2363 36.0335 42.2363Z" fill="#77A4E5"/>
<path d="M37.0538 43.0771C36.9804 43.1505 36.9804 43.264 37.0538 43.3374C37.1271 43.4108 37.2404 43.4108 37.3138 43.3374C37.3871 43.264 37.3871 43.1505 37.3138 43.0771C37.2404 43.0037 37.1271 43.0037 37.0538 43.0771Z" fill="#77A4E5"/>
<path d="M38.7275 40.301C38.7275 40.2008 38.8075 40.1208 38.9075 40.1208C39.0075 40.1208 39.0875 40.2008 39.0875 40.301C39.0875 40.4011 39.0075 40.4812 38.9075 40.4812C38.8075 40.4878 38.7275 40.4011 38.7275 40.301Z" fill="#77A4E5"/>
<path d="M38.9278 38.0186H38.8811V40.3076H38.9278V38.0186Z" fill="#77A4E5"/>
<path d="M40.0513 39.2845L38.8398 40.2364L38.9304 40.3519L40.1418 39.4L40.0513 39.2845Z" fill="#77A4E5"/>
</g>
<defs>
<clipPath id="clip0">
<rect width="194" height="105" fill="white"/>
</clipPath>
</defs>
</svg>
