<svg width="259" height="116" viewBox="0 0 259 116" fill="none" xmlns="http://www.w3.org/2000/svg">
<g clip-path="url(#clip0)">
<path d="M10.0385 115.274C10.0385 115.274 -15.2879 60.3304 14.5089 35.0215C59.9211 -3.53901 104.041 54.2973 124.56 27.3784C158.509 -17.1533 269.561 -5.72401 235.586 49.6442C217.757 78.6951 277.404 74.3516 253.087 115.991L10.0385 115.274Z" fill="#EBF3FA"/>
<path d="M149.976 93.5307H124.72C123.764 93.5307 122.985 92.7522 122.985 91.7968V90.6645H149.976V93.5307Z" fill="#77A4E5"/>
<path d="M137.096 114.24H135.467L135.016 93.5306H137.503L137.096 114.24Z" fill="#94B0ED"/>
<path d="M144.178 114.24H128.332V112.815L136.405 112.081L144.178 112.815V114.24Z" fill="#94B0ED"/>
<path d="M126.792 114.018C126.792 113.302 127.376 112.718 128.093 112.718C128.81 112.718 129.394 113.302 129.394 114.018C129.394 114.735 128.81 115.319 128.093 115.319C127.376 115.319 126.792 114.735 126.792 114.018Z" fill="#94B0ED"/>
<path d="M142.637 114.018C142.637 113.302 143.221 112.718 143.938 112.718C144.655 112.718 145.24 113.302 145.24 114.018C145.24 114.735 144.655 115.319 143.938 115.319C143.221 115.319 142.637 114.735 142.637 114.018Z" fill="#94B0ED"/>
<path d="M141.734 94.8841H130.784C130.129 94.8841 129.597 94.3533 129.597 93.6987V93.5306H142.929V93.6987C142.92 94.3533 142.389 94.8841 141.734 94.8841Z" fill="#94B0ED"/>
<path d="M125.251 93.5307C124.003 93.5307 122.985 92.5222 122.985 91.2661V73.211C122.985 69.6371 125.322 66.7356 128.208 66.7356H140.017C142.903 66.7356 145.24 69.6371 145.24 73.211V93.5307H125.251Z" fill="#F99746"/>
<path d="M125.481 93.5307C124.8 93.5307 124.242 92.9734 124.242 92.2922V73.211C124.242 69.6371 126.579 66.7356 129.465 66.7356H141.274C144.159 66.7356 146.496 69.6371 146.496 73.211V78.1118V93.5218H125.481V93.5307Z" fill="#CC6A27"/>
<path d="M152.853 93.5307H123.959C123.171 93.5307 122.525 92.8937 122.525 92.0976C122.525 91.3103 123.162 90.6645 123.959 90.6645H152.853C153.64 90.6645 154.287 91.3014 154.287 92.0976C154.287 92.8849 153.649 93.5307 152.853 93.5307Z" fill="#F99746"/>
<path d="M153.729 33.0405H142.778C142.274 33.0405 141.867 32.6336 141.867 32.1293V21.567C141.867 21.0627 142.274 20.6558 142.778 20.6558H153.729C154.233 20.6558 154.641 21.0627 154.641 21.567V32.1293C154.649 32.6247 154.233 33.0405 153.729 33.0405Z" fill="#C0D8FB"/>
<path d="M153.259 32.5009H143.256C142.796 32.5009 142.424 32.1293 142.424 31.6693V22.027C142.424 21.567 142.796 21.1954 143.256 21.1954H153.259C153.72 21.1954 154.092 21.567 154.092 22.027V31.6693C154.092 32.1205 153.72 32.5009 153.259 32.5009Z" fill="#DFEBFD"/>
<path d="M147.993 22.3189C147.993 22.1685 148.108 22.0535 148.258 22.0535C148.409 22.0535 148.524 22.1685 148.524 22.3189C148.524 22.4693 148.409 22.5843 148.258 22.5843C148.108 22.5843 147.993 22.4605 147.993 22.3189Z" fill="#B7D3F3"/>
<path d="M150.126 22.6905C150.197 22.5666 150.356 22.5135 150.489 22.5843C150.613 22.6551 150.666 22.8143 150.595 22.947C150.525 23.0709 150.365 23.1239 150.233 23.0532C150.1 22.9824 150.055 22.8143 150.126 22.6905Z" fill="#B7D3F3"/>
<path d="M151.959 24.1412C152.083 24.0616 152.242 24.097 152.322 24.2208C152.401 24.3447 152.366 24.5039 152.242 24.5835C152.118 24.6631 151.959 24.6277 151.879 24.5039C151.8 24.3889 151.835 24.2208 151.959 24.1412Z" fill="#B7D3F3"/>
<path d="M152.861 26.3882C153.012 26.3882 153.127 26.5032 153.127 26.6536C153.127 26.804 153.012 26.919 152.861 26.919C152.711 26.919 152.596 26.804 152.596 26.6536C152.596 26.512 152.72 26.3882 152.861 26.3882Z" fill="#B7D3F3"/>
<path d="M152.401 28.9978C152.507 29.1039 152.507 29.272 152.401 29.3693C152.295 29.4755 152.126 29.4755 152.029 29.3693C151.923 29.2632 151.923 29.0951 152.029 28.9978C152.126 28.9005 152.295 28.9005 152.401 28.9978Z" fill="#B7D3F3"/>
<path d="M150.737 30.6697C150.843 30.7759 150.843 30.9439 150.737 31.0413C150.631 31.1474 150.462 31.1474 150.365 31.0413C150.259 30.9351 150.259 30.767 150.365 30.6697C150.471 30.5635 150.639 30.5635 150.737 30.6697Z" fill="#B7D3F3"/>
<path d="M147.993 31.5278C147.993 31.3774 148.108 31.2624 148.258 31.2624C148.409 31.2624 148.524 31.3774 148.524 31.5278C148.524 31.6782 148.409 31.7932 148.258 31.7932C148.108 31.7843 147.993 31.6693 147.993 31.5278Z" fill="#B7D3F3"/>
<path d="M146.381 22.6905C146.31 22.5666 146.151 22.5135 146.018 22.5843C145.894 22.6551 145.841 22.8143 145.912 22.947C145.983 23.0709 146.142 23.1239 146.275 23.0532C146.399 22.9824 146.452 22.8143 146.381 22.6905Z" fill="#B7D3F3"/>
<path d="M144.55 24.1412C144.426 24.0616 144.266 24.097 144.187 24.2208C144.107 24.3447 144.142 24.5039 144.266 24.5835C144.39 24.6631 144.55 24.6277 144.629 24.5039C144.709 24.3889 144.673 24.2208 144.55 24.1412Z" fill="#B7D3F3"/>
<path d="M143.646 26.3882C143.496 26.3882 143.381 26.5032 143.381 26.6536C143.381 26.804 143.496 26.919 143.646 26.919C143.797 26.919 143.912 26.804 143.912 26.6536C143.903 26.512 143.788 26.3882 143.646 26.3882Z" fill="#B7D3F3"/>
<path d="M144.107 28.9978C144.001 29.1039 144.001 29.272 144.107 29.3693C144.213 29.4755 144.381 29.4755 144.479 29.3693C144.585 29.2632 144.585 29.0951 144.479 28.9978C144.372 28.9005 144.204 28.9005 144.107 28.9978Z" fill="#B7D3F3"/>
<path d="M145.771 30.6697C145.665 30.7759 145.665 30.9439 145.771 31.0413C145.877 31.1474 146.045 31.1474 146.143 31.0413C146.249 30.9351 146.249 30.767 146.143 30.6697C146.036 30.5635 145.868 30.5635 145.771 30.6697Z" fill="#B7D3F3"/>
<path d="M148.187 26.6535C148.187 26.5031 148.302 26.3881 148.452 26.3881C148.603 26.3881 148.718 26.5031 148.718 26.6535C148.718 26.8039 148.603 26.9189 148.452 26.9189C148.302 26.9189 148.187 26.8039 148.187 26.6535Z" fill="#B7D3F3"/>
<path d="M148.488 23.3539H148.417V26.6624H148.488V23.3539Z" fill="#B7D3F3"/>
<path d="M150.112 25.1906L148.357 26.567L148.488 26.734L150.243 25.3576L150.112 25.1906Z" fill="#B7D3F3"/>
<path d="M169.495 115.832H158.74C158.226 115.204 157.934 112.232 158.014 111.471C158.031 111.32 158.226 110.604 158.226 110.604C158.226 110.604 162.201 108.932 162.705 111.179C162.723 111.25 162.741 111.32 162.759 111.382C163.396 113.488 166.246 114.443 167.893 114.708C168.946 114.885 169.345 115.443 169.495 115.832Z" fill="#1B3051"/>
<path d="M140.158 82.2784C140.548 82.2784 154.888 84.2776 157.871 87.6303C159.359 89.3022 163.263 111.241 163.263 111.241C163.263 111.241 161.448 112.523 157.464 111.32C157.464 111.32 152.206 97.1223 152.418 93.115C152.48 92.0092 139.671 91.5403 137.405 91.0096C135.139 90.4788 132.324 89.1696 133.545 86.9934C134.767 84.8084 140.158 82.2784 140.158 82.2784Z" fill="#233862"/>
<path d="M162.324 115.832H151.569C151.055 115.204 151.241 112.868 151.321 112.117C151.339 111.966 151.348 111.878 151.348 111.878C151.348 111.878 155.021 108.941 155.526 111.188C155.544 111.258 155.561 111.329 155.579 111.391C156.216 113.497 159.067 114.452 160.713 114.717C161.784 114.885 162.183 115.443 162.324 115.832Z" fill="#1E3C68"/>
<path d="M134.448 83.4372C134.838 83.4372 151.967 84.2865 154.95 87.9753C156.437 89.8153 156.659 111.117 156.659 111.117C156.659 111.117 154.817 113.399 150.834 112.072C150.834 112.072 147.178 100.776 147.444 93.0796C147.488 91.8588 136.785 91.7173 133.846 91.4873C130.12 91.1953 129.172 84.9411 130.394 82.5349C131.607 80.1376 134.448 83.4372 134.448 83.4372Z" fill="#23417C"/>
<path d="M138.078 59.349L137.865 59.3933C136.909 59.5879 135.971 58.9598 135.776 58.0044L135.546 56.8809C135.351 55.9256 135.98 54.9879 136.936 54.7932L137.148 54.749C138.104 54.5544 139.043 55.1825 139.237 56.1379L139.467 57.2613C139.662 58.2167 139.043 59.1544 138.078 59.349Z" fill="#122544"/>
<path d="M145.78 83.2072C143.629 86.6307 130.226 87.6657 130.226 87.6657C129.996 87.1172 128.978 78.2799 128.81 77.6783C128.376 76.1568 128.093 74.476 127.907 72.8306C127.907 72.8129 127.898 72.7864 127.898 72.7687C127.588 69.9114 127.588 67.169 127.633 65.5237C127.659 64.5683 127.694 63.9844 127.694 63.949C127.73 63.9313 127.756 63.9225 127.792 63.9048C128.606 63.5686 129.385 63.2679 130.129 63.0202H130.138C130.766 62.8079 131.368 62.6221 131.952 62.4629C132.97 62.1798 133.927 61.9852 134.803 61.8436C135.839 61.6844 136.777 61.6048 137.618 61.5871C137.653 61.5871 137.689 61.5871 137.733 61.5871C137.954 61.5871 138.167 61.5871 138.379 61.5871C140.477 61.6313 141.867 62.0471 142.575 62.3302C142.673 62.3656 142.761 62.4009 142.832 62.4363C142.841 62.4363 142.85 62.4452 142.858 62.4452C142.938 62.4806 143 62.5071 143.044 62.5336C143.053 62.5336 143.053 62.5425 143.062 62.5425C143.08 62.5513 143.106 62.569 143.124 62.5779L144.231 74.1664L145.78 83.2072Z" fill="#D2E3FC"/>
<path d="M159.952 76.9175C158.421 77.6252 149.303 78.2268 148.426 77.9702C147.975 77.8376 146.098 76.1833 144.204 74.1487C142.416 72.2202 140.61 69.9556 139.999 68.3279C138.751 64.9752 139.822 62.0029 139.822 62.0029C139.822 62.0029 142.15 61.994 143.097 62.569C144.044 63.144 149.471 73.1225 150.197 73.3879C150.923 73.6533 159.509 74.1398 160.492 74.6087C160.492 74.5998 161.483 76.2099 159.952 76.9175Z" fill="#D2E3FC"/>
<path d="M137.715 61.9852V62.5513C137.715 62.5513 137.874 64.3117 135.697 64.5771C133.519 64.8425 131.872 63.896 131.934 62.5337C132.129 61.481 132.342 60.7556 132.359 59.8798C132.368 59.5525 132.342 59.2075 132.28 58.8271L136.493 58.7386L137.733 58.9421L137.715 61.9852Z" fill="#EA9E6A"/>
<path d="M137.724 58.9333L137.715 61.9852C137.263 62.1975 136.759 62.3214 136.201 62.3214C134.262 62.3214 132.342 59.2075 132.28 58.8183L137.724 58.9333Z" fill="#D88D59"/>
<path d="M137.981 60.4106C137.981 60.4106 132.59 61.5075 131.952 58.1371C131.324 54.7667 130.199 52.6436 133.616 51.8032C137.033 50.9629 137.945 52.1217 138.432 53.1921C138.91 54.2625 139.361 60.039 137.981 60.4106Z" fill="#EA9E6A"/>
<path d="M139.477 50.6886C139.477 50.6886 137.972 50.5736 136.193 49.804C134.75 49.1848 132.935 49.8748 132.342 50.1844C132.36 50.0871 132.395 49.9632 132.484 49.8305C132.484 49.8305 132.218 50.0163 132.183 50.2817C132.156 50.2994 132.147 50.3171 132.147 50.3171C132.147 50.3171 131.846 50.264 131.651 50.3525C131.651 50.3525 131.784 50.3348 131.837 50.4232C131.846 50.4321 131.846 50.4409 131.855 50.4498C129.607 51.5379 129.412 55.0852 130.129 55.9079C130.996 56.8986 132.05 59.119 132.05 59.119C132.05 59.119 132.43 58.5971 132.271 57.7213C132.112 56.8544 132.864 56.8544 133.811 56.4563C134.759 56.0583 133.971 54.9525 134.794 54.2802C135.626 53.6079 138.671 53.9971 138.627 53.484C139.769 53.0682 139.477 50.8036 139.477 50.6886Z" fill="#8E342E"/>
<path d="M129.721 84.4102C129.465 82.6675 128.845 80.4471 128.562 78.5629C128.323 76.9971 128.093 74.476 127.916 72.8306C127.916 72.8129 127.907 72.7864 127.907 72.7687C127.916 72.7775 127.933 72.8041 127.951 72.7864C128.544 72.061 130.173 71.2737 132.138 74.1487C132.528 74.7237 134.139 78.2533 134.086 78.9698C133.811 82.2783 129.721 84.4102 129.721 84.4102Z" fill="#B7D3F3"/>
<path d="M131.005 79.421C130.961 79.1645 131.014 78.8372 131.209 78.4303C131.209 78.4303 131.465 78.271 131.793 78.0764C132.289 77.7934 132.979 77.4572 133.289 77.5103C133.342 77.5191 133.422 77.5368 133.51 77.5545C134.245 77.7314 135.954 78.2534 136.21 78.563C136.423 78.8195 136.715 79.138 136.91 79.421H131.005Z" fill="#EA9E6A"/>
<path d="M132.129 79.4211H117.718C117.682 79.2353 117.673 79.0672 117.727 78.9345C118.16 77.8464 118.992 76.0595 119.966 74.1487C120.674 72.7422 121.453 71.256 122.188 69.9291C123.206 68.0891 124.144 66.5498 124.693 65.9218C125.127 65.4264 125.676 65.0106 126.242 64.6656C126.729 64.3737 127.225 64.1348 127.685 63.9402C127.721 63.9225 127.747 63.9137 127.783 63.896C128.783 63.4891 129.58 63.3121 129.58 63.3121C129.58 63.3121 129.589 63.7633 129.589 64.471C129.589 66.5056 129.518 70.5925 128.863 71.5922C128.686 71.8664 128.349 72.291 127.924 72.7864C127.916 72.8041 127.898 72.8129 127.889 72.8306C127.659 73.096 127.411 73.3879 127.145 73.6799C125.641 75.3607 123.737 77.3422 123.507 77.581C123.489 77.5987 123.481 77.6076 123.481 77.6076H123.507L127.553 77.6607L128.792 77.6784L131.359 77.7137C131.536 77.7934 131.678 77.9172 131.784 78.0676C132.041 78.4391 132.12 78.961 132.129 79.4211Z" fill="#D2E3FC"/>
<path d="M159.952 76.9175C158.42 77.6252 149.303 78.2268 148.426 77.9702C147.975 77.8375 146.098 76.1833 144.204 74.1487C144.301 74.1575 145.16 72.7245 149.108 76.1656C149.108 76.1656 150.143 76.6256 152.95 76.3691C155.756 76.1214 159.368 76.0241 159.952 76.9175Z" fill="#B7D3F3"/>
<path d="M133.519 59.349L133.307 59.3933C132.351 59.5879 131.412 58.9598 131.217 58.0044L130.987 56.8809C130.793 55.9256 131.421 54.9879 132.377 54.7932L132.59 54.749C133.546 54.5544 134.484 55.1825 134.679 56.1379L134.909 57.2613C135.095 58.2167 134.475 59.1544 133.519 59.349Z" fill="#122544"/>
<path d="M131.846 55.3063C131.704 55.0498 131.492 52.9621 132.067 51.299C132.342 50.494 132.793 50.034 133.36 49.7244C133.563 49.6094 133.793 49.5563 134.024 49.5563L134.59 49.5652C132.722 50.3525 132.297 54.5721 132.439 55.0233C132.43 55.0056 132.43 54.9967 132.421 54.9879L131.846 55.3063Z" fill="#122544"/>
<path d="M137.29 59.7029C134.156 59.7029 132.607 57.2259 132.589 57.1994L132.873 57.0313L132.731 57.1198L132.873 57.0313C132.89 57.0578 134.351 59.3756 137.29 59.3756C137.308 59.3756 137.325 59.3756 137.352 59.3756V59.7029C137.325 59.7029 137.308 59.7029 137.29 59.7029Z" fill="#122544"/>
<path d="M133.014 58.2521L132.908 58.2698C132.43 58.3671 131.961 58.0575 131.864 57.5798L131.749 57.0225C131.651 56.5448 131.961 56.0759 132.439 55.9786L132.545 55.9609C133.023 55.8636 133.493 56.1733 133.59 56.6509L133.705 57.2083C133.802 57.686 133.493 58.1548 133.014 58.2521Z" fill="#2B478B"/>
<path d="M137.68 59.809H137.388C137.237 59.809 137.113 59.6852 137.113 59.5348C137.113 59.3844 137.237 59.2606 137.388 59.2606H137.68C137.83 59.2606 137.954 59.3844 137.954 59.5348C137.945 59.6852 137.83 59.809 137.68 59.809Z" fill="#122544"/>
<path d="M238.888 103.129C238.888 103.129 236.94 100.855 238.764 99.4134C238.764 99.4134 240.101 98.6084 241.189 98.6703C241.189 98.6703 239.649 101.262 240.145 101.519C240.641 101.775 241.659 98.5111 241.659 98.5111C241.659 98.5111 244.704 98.2191 245.678 98.688C245.678 98.688 243.075 100.811 243.624 100.944C244.173 101.068 246.979 98.9799 246.979 98.9799C246.979 98.9799 249.812 99.4576 249.661 101.191C249.511 102.916 248.537 103.447 248.103 103.403C247.678 103.359 245.164 102.403 245.111 102.748C245.058 103.093 246.563 104.243 247.625 104.296C247.625 104.296 245.633 106.499 244.305 105.862C242.978 105.225 242.863 104.217 242.039 103.845C241.216 103.465 240.508 103.465 240.844 103.854C241.189 104.243 242.685 104.615 243.155 105.446C243.624 106.287 244.049 106.844 242.677 106.641C241.305 106.437 239.074 105.429 238.976 104.279C238.879 103.129 238.888 103.129 238.888 103.129Z" fill="#C8DBF4"/>
<path d="M248.271 101.227C248.271 101.227 240.579 100.935 238.879 103.129C238.879 103.129 238.507 104.252 237.347 105.278L237.17 105.765C237.17 105.765 238.507 104.358 238.976 104.279C238.985 104.279 238.233 101.554 248.271 101.227Z" fill="#C8DBF4"/>
<path d="M237.356 105.278C237.356 105.278 235.71 106.499 235.595 108.675L235.896 108.702C235.896 108.702 236.427 106.446 237.374 105.57C238.321 104.686 237.356 105.278 237.356 105.278Z" fill="#C8DBF4"/>
<path d="M232.063 100.271C232.063 100.271 235.161 98.5376 233.718 96.1757C233.718 96.1757 232.558 94.7249 231.319 94.3533C231.319 94.3533 231.983 97.8653 231.319 97.9538C230.655 98.0334 230.867 93.9818 230.867 93.9818C230.867 93.9818 227.601 92.4072 226.317 92.531C226.317 92.531 228.345 95.9634 227.681 95.8837C227.017 95.8041 224.742 92.3276 224.742 92.3276C224.742 92.3276 221.387 91.7083 220.856 93.6899C220.316 95.6714 221.183 96.6622 221.679 96.786C222.175 96.9099 225.361 96.8657 225.282 97.2814C225.202 97.6972 223.051 98.3607 221.847 97.9803C221.847 97.9803 223.175 101.245 224.91 101.076C226.645 100.908 227.185 99.838 228.265 99.7495C229.345 99.6699 230.124 99.953 229.593 100.245C229.053 100.537 227.238 100.342 226.362 101.076C225.494 101.811 224.786 102.271 226.406 102.598C228.017 102.925 230.912 102.722 231.496 101.483C232.063 100.271 232.063 100.271 232.063 100.271Z" fill="#C8DBF4"/>
<path d="M222.387 94.318C222.387 94.318 231.071 97.1311 232.072 100.271C232.072 100.271 232.027 101.678 232.895 103.288V103.907C232.895 103.907 231.983 101.802 231.487 101.51C231.487 101.51 233.426 98.7853 222.387 94.318Z" fill="#C8DBF4"/>
<path d="M232.895 103.288C232.895 103.288 234.232 105.323 233.47 107.8L233.125 107.711C233.125 107.711 233.461 104.986 232.762 103.615C232.054 102.235 232.895 103.288 232.895 103.288Z" fill="#C8DBF4"/>
<path d="M237.002 97.8742C237.002 97.8742 232.912 95.583 234.824 92.478C234.824 92.478 236.347 90.5672 237.985 90.0806C237.985 90.0806 237.108 94.7161 237.985 94.8222C238.861 94.9284 238.587 89.5941 238.587 89.5941C238.587 89.5941 242.898 87.5241 244.588 87.6833C244.588 87.6833 241.915 92.2037 242.791 92.0976C243.668 91.9914 246.66 87.4091 246.66 87.4091C246.66 87.4091 251.077 86.5952 251.785 89.2049C252.493 91.8233 251.351 93.1326 250.696 93.2918C250.041 93.451 245.845 93.398 245.952 93.9464C246.058 94.4949 248.899 95.3618 250.475 94.8753C250.475 94.8753 248.731 99.1834 246.438 98.9622C244.146 98.7411 243.438 97.3257 242.021 97.2195C240.605 97.1134 239.569 97.4938 240.277 97.8742C240.985 98.2545 243.384 97.998 244.526 98.9711C245.668 99.9442 246.598 100.546 244.473 100.979C242.349 101.413 238.533 101.138 237.763 99.5107C237.002 97.8742 237.002 97.8742 237.002 97.8742Z" fill="#D4E4F8"/>
<path d="M249.758 90.0276C249.758 90.0276 238.303 93.7341 237.002 97.8742C237.002 97.8742 237.055 99.723 235.913 101.855V102.669C235.913 102.669 237.117 99.8911 237.763 99.5107C237.763 99.5107 235.205 95.9191 249.758 90.0276Z" fill="#D4E4F8"/>
<path d="M235.913 101.855C235.913 101.855 234.143 104.535 235.152 107.8L235.603 107.676C235.603 107.676 235.161 104.084 236.09 102.28C237.019 100.475 235.913 101.855 235.913 101.855Z" fill="#D4E4F8"/>
<path d="M236.861 114.868C241.287 114.868 244.872 111.285 244.872 106.862H228.849C228.849 111.285 232.435 114.868 236.861 114.868Z" fill="#D4E4F8"/>
<path d="M244.987 115.275H228.743C228.743 114.726 229.186 114.284 229.735 114.284H244.005C244.545 114.293 244.987 114.735 244.987 115.275Z" fill="#D4E4F8"/>
<path d="M245.049 106.862H228.584V107.11H245.049V106.862Z" fill="#9FC1F4"/>
<path d="M44.8455 114.487C44.9075 115.354 46.1291 115.363 47.5189 115.204C48.9087 115.045 48.5369 115.39 50.4756 115.425C52.4142 115.452 53.087 114.815 53.1844 114.532C53.264 114.284 52.3346 114.08 51.3342 113.833C51.2103 113.806 51.0864 113.771 50.9536 113.735C49.8294 113.452 49.0769 112.603 48.112 111.869C47.2002 111.17 46.0229 108.649 46.0229 108.649L43.3672 108.525C43.3672 108.525 44.4826 110.79 44.9075 111.763C45.1553 112.338 45.0491 113.045 44.9429 113.585C44.8809 113.877 44.8278 114.178 44.8455 114.487Z" fill="#FFB27D"/>
<path d="M47.5188 115.195C48.9086 115.036 48.5368 115.381 50.4754 115.416C52.4141 115.443 53.0869 114.806 53.1842 114.523C53.2639 114.275 52.3344 114.071 51.3341 113.824L51.3253 113.842C51.3253 113.842 50.0771 114.514 48.4748 114.355C47.1735 114.222 45.8457 113.682 44.9428 113.585C44.8897 113.877 44.8277 114.178 44.8543 114.487C44.9074 115.354 46.129 115.363 47.5188 115.195Z" fill="#233862"/>
<path d="M26.5215 114.664C26.5835 115.531 27.8051 115.54 29.1949 115.381C30.5847 115.222 30.2129 115.575 32.1516 115.602C34.0903 115.628 34.763 114.992 34.8604 114.717C34.9489 114.47 34.0106 114.266 33.0103 114.018C32.8863 113.992 32.7624 113.957 32.6296 113.921C31.5054 113.629 30.7529 112.789 29.788 112.055C28.8762 111.356 29.788 107.216 29.788 107.216L26.8668 106.933C26.8668 106.933 27.0084 110.418 27.0084 112.002C27.0084 112.63 26.7163 113.231 26.6101 113.771C26.5569 114.063 26.5038 114.363 26.5215 114.664Z" fill="#FFB27D"/>
<path d="M29.1945 115.381C30.5843 115.222 30.2125 115.575 32.1512 115.602C34.0898 115.628 34.7626 114.992 34.86 114.717C34.9485 114.47 34.0101 114.266 33.0098 114.019L33.001 114.036C33.001 114.036 31.7528 114.708 30.1505 114.54C28.8493 114.408 27.5214 113.859 26.6185 113.762C26.5565 114.054 26.5034 114.355 26.53 114.664C26.5919 115.531 27.8135 115.54 29.1945 115.381Z" fill="#233862"/>
<path d="M35.0373 43.1605C35.5418 41.0994 34.8071 40.1352 34.152 39.6221C33.8422 38.8613 33.4881 38.3128 33.1252 38.1094C32.4612 37.729 31.6645 37.6936 31.1157 37.7202C31.2573 37.5698 31.5406 37.5167 31.5406 37.5167C31.1954 37.4636 30.4252 37.8086 30.4252 37.8086C25.6273 35.9598 24.8748 43.019 24.9811 44.6556C25.0784 46.2921 25.0696 48.2206 22.5732 49.5121C17.8107 51.9802 24.1578 61.2598 24.1578 61.2598C24.0339 59.9329 30.1508 52.9444 33.3376 50.8567C34.1166 49.7156 34.391 47.6986 34.4087 47.5394C34.276 49.1406 34.0015 50.034 33.7537 50.5471C35.2143 49.2025 35.4268 45.9913 35.0373 43.1605Z" fill="#A9453D"/>
<path d="M33.1427 50.9629C33.1604 50.9717 31.6024 51.7767 30.4339 51.4583C29.3362 51.1575 28.6103 49.7332 28.628 49.7244C29.0972 49.6359 29.23 48.9902 29.2211 46.239L29.4336 46.2832L32.9745 46.9821C32.9745 46.9821 32.8948 48.0967 32.8948 49.1494C32.8948 50.034 32.9479 50.8744 33.1427 50.9629Z" fill="#FFB27D"/>
<path d="M32.9747 46.991C32.9747 46.991 32.8951 48.1056 32.8951 49.1583C30.9122 49.1052 29.8587 47.2917 29.4338 46.2921L32.9747 46.991Z" fill="#ED975D"/>
<path d="M47.3948 110.047C47.5719 110.595 47.1735 111.152 46.607 111.179L45.226 111.241L43.7565 111.285C43.3936 111.294 43.0395 111.135 42.8093 110.852C41.6408 109.418 38.038 104.642 35.8603 97.6973C35.7983 97.5027 35.7364 97.308 35.6655 97.1046C34.2226 92.9026 31.2305 87.6303 29.6548 82.8534C29.407 82.0926 29.1768 81.3761 28.9732 80.7038C28.9112 80.4826 28.8493 80.2703 28.7873 80.0668C27.6277 76.033 27.2913 73.388 26.9814 70.5572L38.3566 70.6457C38.3566 70.6457 40.7556 89.2492 47.3948 110.047Z" fill="#2A4E96"/>
<path d="M36.7724 64.1171C36.7458 69.531 37.5691 71.8487 37.5691 71.8487C37.5691 71.8487 32.7003 74.3256 26.9109 72.5033C26.8401 72.4856 25.3175 63.5687 25.468 62.7548C25.7336 61.251 25.7424 59.694 25.6097 58.2256C25.2556 54.3333 24.2021 51.1044 24.2021 51.1044C25.7779 50.7417 27.2562 50.1136 28.9027 49.5032C29.2834 49.9721 30.4342 50.4675 31.4345 50.4409C32.5853 50.4144 32.9659 49.919 32.9039 49.3794C34.1344 50.0606 35.117 50.7063 35.117 50.7063C36.1616 52.5198 38.2773 54.2802 38.4366 57.0579C38.4543 57.7479 36.7724 63.9667 36.7724 64.1171Z" fill="#D2E3FC"/>
<path d="M26.9819 64.7187C26.4862 65.4264 25.5301 69.6991 23.1577 70.2387C24.3793 67.1956 25.3088 65.8599 25.4505 64.9222C25.716 63.1706 25.7249 61.366 25.5921 59.6587C26.3888 58.2698 26.9819 57.3145 26.9819 57.3145C27.0439 57.0933 28.2478 53.3868 28.6284 56.6952C29.0179 60.0037 27.5396 63.9314 26.9819 64.7187Z" fill="#5F9AA8"/>
<path d="M35.0461 50.3171C35.0461 50.3171 36.7369 51.2282 37.4451 52.1394C38.1533 53.0417 42.3227 60.5256 42.3227 61.2775C42.3227 62.0294 38.0913 61.534 38.0913 61.534L35.0461 50.3171Z" fill="#01BA57"/>
<path d="M33.6384 47.9817C33.6384 47.9817 28.9467 48.0613 28.9378 45.1421C28.9378 42.2229 28.327 40.259 31.3191 40.0909C34.3111 39.914 34.8954 41.0286 35.1344 42.0105C35.3823 42.9748 34.86 47.8844 33.6384 47.9817Z" fill="#FFB27D"/>
<path d="M33.4614 40.0113C33.4614 40.0113 32.1778 43.4347 30.2038 43.9478C28.2297 44.4521 27.3799 43.9301 27.3799 43.9301C27.3799 43.9301 28.8936 42.7271 29.2035 40.6305C29.2035 40.6305 32.4965 38.3836 33.4614 40.0113Z" fill="#A9453D"/>
<path d="M33.1428 40.2944C33.1428 40.2944 34.0989 41.0552 34.3379 41.8071C34.568 42.5502 34.6743 44.0806 35.1257 44.0275C35.1257 44.0275 36.0906 41.7009 35.0018 40.3829C33.851 38.9763 33.1428 40.2944 33.1428 40.2944Z" fill="#A9453D"/>
<path d="M32.895 49.3794C32.895 49.3794 35.6127 56.0848 35.6923 57.4383C35.772 58.7917 36.011 79.6245 36.011 79.6245C36.011 79.6245 35.8517 80.5799 37.6841 80.1818C39.5165 79.7837 40.0034 79.3857 40.0034 79.3857C40.0034 79.3857 38.2418 66.541 38.7198 62.0737C39.1978 57.6063 35.0461 50.3171 35.0461 50.3171L32.895 49.3794Z" fill="#01BA57"/>
<path d="M45.2263 111.241L43.6329 111.285C43.3496 111.294 43.0752 111.17 42.8981 110.949C41.827 109.657 38.1002 104.81 35.8606 97.6884C35.7986 97.4938 35.7366 97.2992 35.6658 97.0957C34.2229 92.8938 31.2308 87.6215 29.6551 82.8445C29.4073 82.0837 29.1771 81.3672 28.9735 80.6949C28.9115 80.4737 28.8496 80.2614 28.7876 80.058L30.4607 78.7841C30.4607 78.7841 35.4888 86.9226 37.0468 94.5834C38.41 101.245 43.8276 109.25 45.2263 111.241Z" fill="#1E3D70"/>
<path d="M30.6374 95.3088C30.6639 98.8296 30.4958 106.685 30.0708 110.524C30.0354 110.878 29.7345 111.143 29.3804 111.143H28.1942C27.6896 111.143 27.3178 111.143 27.0699 111.135C26.8575 111.135 26.6716 110.975 26.6273 110.763C25.45 104.756 24.6001 99.7761 23.9805 95.468C23.4671 91.8587 23.0067 88.7714 22.6526 86.1087C22.2986 83.4283 22.0507 81.1902 21.9622 79.2883C21.9445 78.9875 21.9356 78.6956 21.9356 78.4214C21.9268 78.1383 21.9268 77.8641 21.9268 77.5987L31.7528 76.6433C31.6377 83.163 30.6285 93.1415 30.6374 95.3088Z" fill="#2A4E96"/>
<path d="M28.1944 111.144C27.7429 111.144 27.3976 111.144 27.1498 111.135C26.8842 111.135 26.6629 110.94 26.6186 110.684C25.4501 104.712 24.6092 99.7496 23.9895 95.4592C23.4761 91.85 23.0158 88.7627 22.6617 86.0999C22.3076 83.4196 22.0597 81.1815 21.9712 79.2795L25.5741 81.4026C25.5741 81.4026 23.2725 82.2165 24.1489 88.3557C25.0252 94.5038 26.9727 110.268 28.1944 111.144Z" fill="#1E3D70"/>
<path d="M28.6548 79.2264C28.6548 79.2264 27.9643 81.7299 25.5653 81.4114C23.1664 81.093 19.7671 79.6599 19.7671 79.6599C19.7671 79.6599 20.794 76.431 22.0598 72.176C23.6001 67.0364 25.5122 60.4106 26.4063 56.2263C26.663 55.0586 26.8312 54.0767 26.8932 53.3779L28.8849 49.5209C28.8849 49.5209 31.8504 56.1644 32.0098 57.8452C32.1691 59.5171 28.6548 79.2264 28.6548 79.2264Z" fill="#01BA57"/>
<path d="M28.5483 61.3483C28.4421 64.0641 27.8047 69.3276 22.1038 72.1495C22.0861 72.1583 22.0773 72.1672 22.0596 72.1672C23.5999 67.0276 25.512 60.4018 26.406 56.2175C27.4595 57.7833 28.6103 59.8622 28.5483 61.3483Z" fill="#10974F"/>
<path d="M26.2647 57.5886L28.8849 49.5121C28.8761 49.5121 25.5742 50.494 23.91 51.3344C23.91 51.3344 22.8743 52.6702 22.228 55.7663C22.228 55.7663 21.5464 63.1794 23.069 65.8952C23.069 65.8952 27.8581 66.8506 35.5242 64.2233V62.4717C35.5242 62.4717 27.1411 62.9141 25.4237 63.1087L26.2647 57.5886Z" fill="#FFB27D"/>
<path d="M28.8941 49.5209C28.8941 49.5209 24.0342 49.8659 22.8569 52.4667C21.6884 55.0763 21.3166 63.7456 22.8038 66.3021C22.8038 66.3021 24.8575 66.886 28.4869 66.2048C28.5312 66.196 28.5754 66.1871 28.6197 66.1783C28.6197 66.1783 29.7793 63.3475 28.7436 62.7902C28.7436 62.7902 25.6807 62.9494 25.9994 61.941C26.3181 60.9237 28.8941 49.5209 28.8941 49.5209Z" fill="#01BA57"/>
<path d="M41.0835 63.551L40.9419 64.011L32.9659 61.534C32.9659 61.534 32.8597 61.4102 32.9128 61.251C32.9748 61.074 33.1076 61.074 33.1076 61.074L41.0835 63.551Z" fill="#A9453D"/>
<path d="M41.6587 63.9845L41.0833 63.551L40.9417 64.011L41.6587 63.9845Z" fill="#A9453D"/>
<path d="M35.5243 62.4717C35.5243 62.4717 37.3301 61.3571 38.0914 61.5252C38.8527 61.6933 40.7825 63.0998 39.853 63.4006C38.9235 63.7014 38.1711 63.3829 37.8082 63.6041C37.4541 63.8252 37.1885 64.2233 35.5154 64.2233C33.86 64.2233 35.5243 62.4717 35.5243 62.4717Z" fill="#FFB27D"/>
<path d="M34.8601 72.3264L43.1547 72.3353L46.3415 60.2867H38.0558L34.8601 72.3264Z" fill="#233862"/>
<path d="M38.4098 59.4552C38.4098 59.4552 37.7725 59.5614 38.0469 60.2867H40.8796L39.9767 59.4552H38.4098Z" fill="#9DB0F4"/>
<path d="M38.4102 59.4552C38.4102 59.4552 39.6583 59.4552 40.0921 60.4637C40.6232 61.6933 40.3931 65.1256 40.3931 65.1256H47.0411C47.0411 65.1256 48.0946 61.0829 45.8992 59.4552H38.4102Z" fill="white"/>
<path d="M44.7303 66.2844C44.7303 66.2844 43.73 65.5325 43.4202 65.966C43.1104 66.3995 43.6592 68.6022 44.3143 68.4429C44.9605 68.2748 44.9693 66.7356 44.7303 66.2844Z" fill="#FFB27D"/>
<path opacity="0.5" d="M87.8144 48.3709C87.602 43.0632 92.0547 40.7013 96.6048 40.7013C101.155 40.7013 106.112 41.8778 106.546 48.9371C106.82 53.4752 104.395 56.2706 97.4192 56.2706C95.0645 56.2706 93.2409 55.899 91.8334 55.2356L88.3456 58.3317L90.0629 54.0502C88.5492 52.6436 87.9118 50.6621 87.8144 48.3709Z" fill="#D2E3FC"/>
<path d="M192.148 44.0805C192.449 36.6674 186.235 33.3766 179.879 33.3766C173.523 33.3766 166.609 35.022 166.007 44.8767C165.618 51.2194 168.999 55.1117 178.737 55.1117C182.021 55.1117 184.57 54.5898 186.527 53.6698L191.395 57.9956L189.005 52.0244C191.121 50.0605 192.015 47.2828 192.148 44.0805Z" fill="#D2E3FC"/>
<path d="M88.3722 93.5307H63.1166C62.1606 93.5307 61.3816 92.7522 61.3816 91.7968V90.6645H88.3722V93.5307Z" fill="#77A4E5"/>
<path d="M75.4919 114.24H73.8631L73.4116 93.5307H75.8991L75.4919 114.24Z" fill="#94B0ED"/>
<path d="M82.5741 114.24H66.7285V112.815L74.8018 112.081L82.5741 112.815V114.24Z" fill="#94B0ED"/>
<path d="M65.1882 114.018C65.1882 113.302 65.7725 112.718 66.4895 112.718C67.2066 112.718 67.7908 113.302 67.7908 114.018C67.7908 114.735 67.2066 115.319 66.4895 115.319C65.7725 115.319 65.1882 114.735 65.1882 114.018Z" fill="#94B0ED"/>
<path d="M81.0339 114.018C81.0339 113.302 81.6182 112.718 82.3352 112.718C83.0523 112.718 83.6365 113.302 83.6365 114.018C83.6365 114.735 83.0523 115.319 82.3352 115.319C81.6182 115.319 81.0339 114.735 81.0339 114.018Z" fill="#94B0ED"/>
<path d="M80.1306 94.8842H69.1804C68.5253 94.8842 67.9941 94.3534 67.9941 93.6988V93.5307H81.3257V93.6988C81.3168 94.3534 80.7857 94.8842 80.1306 94.8842Z" fill="#94B0ED"/>
<path d="M63.6392 93.5307C62.3911 93.5307 61.373 92.5222 61.373 91.2661V73.211C61.373 69.6371 63.71 66.7356 66.5959 66.7356H78.4048C81.2907 66.7356 83.6277 69.6371 83.6277 73.211V93.5307H63.6392Z" fill="#F99746"/>
<path d="M63.8777 93.5307C63.1961 93.5307 62.6384 92.9734 62.6384 92.2922V73.211C62.6384 69.6371 64.9754 66.7356 67.8613 66.7356H79.6702C82.5561 66.7356 84.8931 69.6371 84.8931 73.211V78.1118V93.5218H63.8777V93.5307Z" fill="#CC6A27"/>
<path d="M91.2493 93.5307H62.3555C61.5676 93.5307 60.9214 92.8937 60.9214 92.0976C60.9214 91.3103 61.5588 90.6645 62.3555 90.6645H91.2493C92.0371 90.6645 92.6833 91.3014 92.6833 92.0976C92.6833 92.8849 92.046 93.5307 91.2493 93.5307Z" fill="#F99746"/>
<path d="M99.0129 113.576C98.9243 114.408 100.084 114.62 101.43 114.709C102.775 114.788 102.368 115.062 104.2 115.416C106.042 115.77 106.785 115.275 106.918 115.027C107.042 114.806 106.183 114.452 105.28 114.054C105.165 114.001 105.05 113.957 104.935 113.904C103.908 113.444 103.342 112.515 102.554 111.648C101.801 110.834 101.111 108.233 101.111 108.233L98.6145 107.676C98.6145 107.676 99.2961 110.011 99.5263 111.011C99.6679 111.595 99.4466 112.249 99.2519 112.745C99.1456 113.01 99.0483 113.284 99.0129 113.576Z" fill="#FFB27D"/>
<path d="M101.429 114.708C102.775 114.788 102.368 115.062 104.2 115.416C106.042 115.77 106.785 115.275 106.918 115.027C107.042 114.806 106.183 114.452 105.28 114.054L105.263 114.072C105.263 114.072 103.961 114.496 102.474 114.072C101.261 113.727 100.084 112.983 99.2518 112.745C99.1456 113.01 99.0394 113.293 99.0128 113.585C98.9243 114.408 100.084 114.629 101.429 114.708Z" fill="#0F2549"/>
<path d="M95.2333 84.6579C93.8877 83.7114 85 82.0306 80.4588 81.5441L75.4484 77.1918C75.4484 77.1918 71.1816 83.5079 71.1462 88.3468C71.1285 90.6026 72.1731 90.8237 72.1731 90.8237C72.1731 90.8237 88.2488 90.9387 88.957 91.0184C90.1078 91.1334 91.6304 94.0084 92.011 96.6268C92.3917 99.2453 99.0929 109.878 99.0929 109.878C99.0929 109.878 100.492 110.33 101.138 110.285C101.837 110.241 102.156 110.011 102.156 110.011C102.156 110.011 98.2607 86.7899 95.2333 84.6579Z" fill="#233862"/>
<path d="M94.8522 113.576C94.7637 114.408 95.9233 114.62 97.2689 114.709C98.6144 114.788 98.2072 115.062 100.04 115.416C101.881 115.77 102.625 115.275 102.757 115.027C102.881 114.806 102.023 114.452 101.12 114.054C101.005 114.001 100.889 113.957 100.774 113.904C99.7475 113.444 99.181 112.515 98.3931 111.648C97.6407 110.834 96.9502 108.233 96.9502 108.233L94.4539 107.676C94.4539 107.676 95.1355 110.011 95.3656 111.011C95.5073 111.595 95.286 112.249 95.0912 112.745C94.9938 113.01 94.8876 113.284 94.8522 113.576Z" fill="#FFB27D"/>
<path d="M97.2692 114.708C98.6147 114.788 98.2075 115.062 100.04 115.416C101.881 115.77 102.625 115.275 102.758 115.027C102.882 114.806 102.023 114.452 101.12 114.054L101.102 114.072C101.102 114.072 99.8009 114.496 98.3138 114.072C97.101 113.727 95.9236 112.983 95.0915 112.745C94.9853 113.01 94.8791 113.293 94.8525 113.585C94.7728 114.408 95.9325 114.629 97.2692 114.708Z" fill="#233862"/>
<path d="M91.037 84.6579C89.8685 83.8353 86.3542 83.2072 82.4769 82.7295C81.4058 82.5968 80.5294 81.8183 80.2638 80.7745L71.2433 77.1918C71.2433 77.1918 66.9765 83.5079 66.9411 88.3468C66.9234 90.6026 67.968 90.8237 67.968 90.8237C67.968 90.8237 84.0437 90.9387 84.7519 91.0184C85.9027 91.1334 87.4253 94.0084 87.806 96.6268C88.1866 99.2453 94.8878 109.878 94.8878 109.878C94.8878 109.878 96.2864 110.33 96.9326 110.285C97.632 110.241 97.9507 110.011 97.9507 110.011C97.9507 110.011 94.0645 86.7899 91.037 84.6579Z" fill="#2B478B"/>
<path d="M78.9801 54.9082C78.9801 54.9082 76.351 56.2528 78.2631 59.1367C78.2631 59.1367 76.0058 59.3932 75.4392 58.7475C75.4392 58.7475 75.5278 59.0305 75.6251 59.1721C75.6251 59.1721 73.4386 58.889 72.6508 58.0575C71.8629 57.2259 74.315 46.2036 80.1398 48.4594C80.1398 48.4594 85.3184 48.9282 83.8489 54.7667C82.3794 60.6052 84.3092 60.9236 84.3092 60.9236C84.3092 60.9236 83.7249 61.1005 83.4682 61.0563C83.4682 61.0563 83.1141 60.844 83.0699 60.6228C83.0699 60.6228 83.0876 60.9679 83.1673 61.0829C83.1673 61.0829 81.0516 60.9325 80.1398 59.9682C79.2368 59.0217 78.4756 56.0848 78.9801 54.9082Z" fill="#8E342E"/>
<path d="M82.7341 57.7921L82.5216 57.8187C81.5832 57.9514 80.7157 57.2879 80.5829 56.3502L80.4324 55.2533C80.2997 54.3156 80.9636 53.4487 81.9019 53.316L82.1144 53.2894C83.0527 53.1567 83.9203 53.8202 84.0531 54.7579L84.2035 55.8548C84.3275 56.7925 83.6635 57.6683 82.7341 57.7921Z" fill="#ED7D2B"/>
<path d="M83.3267 66.6118C82.5388 67.2133 82.0431 69.3983 80.7772 69.761C76.0324 71.1145 73.4918 65.4883 72.6597 62.746C73.297 62.3391 73.9078 62.2241 74.2619 62.1621C74.6072 62.1002 74.9701 62.056 75.2711 62.0294C75.7845 61.5871 76.5016 59.8621 76.5458 57.2348L76.776 57.2879L80.609 58.1283C80.609 58.1283 80.4939 59.3402 80.4674 60.4814C80.4497 61.3748 80.4143 61.5871 80.4851 61.6933C80.7861 61.7464 81.1313 62.5071 81.1313 62.5071C81.2021 62.5691 82.3883 64.3206 83.3267 66.6118Z" fill="#FFB27D"/>
<path d="M80.6179 58.1194C80.6179 58.1194 80.5028 59.3313 80.4763 60.4725C78.3252 60.3663 77.2275 58.3759 76.7849 57.279L80.6179 58.1194Z" fill="#ED985F"/>
<path d="M100.11 77.9791C100.11 77.9791 97.8531 78.0587 95.4099 78.0676C95.1178 78.0676 94.8257 78.0676 94.5335 78.0676C92.5418 78.0587 90.5766 77.988 89.7445 77.7757C88.93 77.5633 85.7963 75.4403 83.2912 72.8749C83.0964 73.3349 82.9548 73.6887 82.9459 73.7152C82.8751 74.2903 82.7512 74.8741 82.6007 75.4226C82.5918 75.4579 82.583 75.5022 82.5741 75.5376C82.5653 75.5641 82.5653 75.5995 82.5564 75.6349C82.5476 75.6614 82.5476 75.6968 82.5387 75.7233C82.2731 77.3687 83.0875 79.8722 83.3266 81.146C83.4062 81.553 83.4239 81.8272 83.3266 81.9157C79.2457 85.7815 71.5796 84.9057 68.2157 84.2864C67.4013 84.1361 66.9587 83.2426 67.3394 82.5084C68.6318 79.943 71.0662 74.2814 70.6767 68.5137C70.659 68.3191 72.5002 62.0206 72.5002 62.0206C72.5002 62.0206 73.9254 61.7729 75.5808 61.6402C75.7402 61.7817 76.0588 65.9306 78.1214 66.1694C78.4578 66.2048 80.6089 69.4956 80.6089 69.4956L81.264 66.1341L80.4938 61.6756C81.4853 61.9675 82.0253 62.0737 82.8485 62.401C83.4062 62.6221 83.8754 63.0379 84.1675 63.5687C85.6104 66.2048 90.2933 74.706 90.7713 74.9006C91.2228 75.0864 92.9047 75.4226 94.6929 75.7499C97.083 76.1833 99.6413 76.5991 99.6413 76.5991L100.11 77.9791Z" fill="#D2E3FC"/>
<path d="M81.2551 59.2694C81.2551 59.2694 76.1561 59.1721 76.2712 55.9963C76.3863 52.8294 75.802 50.6798 79.0597 50.609C82.3173 50.5382 82.9104 51.7679 83.1317 52.8382C83.3442 53.8998 82.5829 59.2075 81.2551 59.2694Z" fill="#FFB27D"/>
<path d="M95.41 78.0764C95.1179 78.0764 94.8258 78.0764 94.5337 78.0764C92.5419 78.0676 90.5767 77.9968 89.7446 77.7845C88.9302 77.5722 85.7965 75.4491 83.2913 72.8837C83.2913 72.8837 83.8224 70.8579 84.0437 70.5218C84.2739 70.1856 85.1679 73.4764 87.2748 74.8122C89.3728 76.1479 92.6658 77.0856 94.2592 76.7141C95.3481 76.4487 95.4543 77.4129 95.41 78.0764Z" fill="#B7D3F3"/>
<path d="M80.2551 57.5002C80.2551 57.5002 80.2905 57.8806 81.1227 57.9425C81.1227 57.9425 81.822 57.9956 81.8574 57.5887C81.8574 57.5798 81.2112 57.1994 80.2551 57.5002Z" fill="white"/>
<path d="M80.5297 58.7829C77.635 57.8717 76.9268 55.1294 76.918 55.1029L77.2278 55.0233L77.0773 55.0586L77.2278 55.0233C77.2366 55.0498 77.9094 57.6152 80.6271 58.4821C80.6448 58.4909 80.6625 58.4909 80.6802 58.4998L80.5916 58.8006C80.5651 58.8006 80.5474 58.7917 80.5297 58.7829Z" fill="#122544"/>
<path d="M80.857 58.9952L80.5826 58.9067C80.441 58.8625 80.3613 58.7121 80.4055 58.5706C80.4498 58.429 80.6003 58.3494 80.7419 58.3936L81.0164 58.4821C81.158 58.5263 81.2377 58.6767 81.1934 58.8183C81.1491 58.9687 80.9987 59.0394 80.857 58.9952Z" fill="#ED7D2B"/>
<path d="M81.5473 50.1844C81.5473 50.1844 80.246 54.0502 78.2808 54.7048C76.3244 55.3594 75.6782 54.581 75.6782 54.581C75.6782 54.581 77.1211 53.254 77.2893 51.1133C77.2805 51.1133 80.4496 48.6009 81.5473 50.1844Z" fill="#8E342E"/>
<path d="M79.104 51.3255C79.104 51.3255 81.7597 51.1751 82.5564 51.9359C83.1318 52.4844 83.1141 52.7675 83.1584 53.4928C83.1584 53.4928 84.318 51.6971 83.123 50.4498C81.8571 49.114 79.104 51.3255 79.104 51.3255Z" fill="#8E342E"/>
<path d="M81.4323 50.5913C81.4323 50.5913 80.7684 54.289 78.334 55.6336C78.334 55.6336 80.6887 53.2275 80.7329 50.8125C80.7684 48.3975 81.4323 50.5913 81.4323 50.5913Z" fill="#8E342E"/>
<path d="M72.6507 58.0575C73.4386 58.889 75.6251 59.1721 75.6251 59.1721C75.5277 59.0306 75.4392 58.7475 75.4392 58.7475C76.5634 59.6586 79.3253 58.9952 79.3253 58.9952C77.1211 58.5086 77.8382 55.3329 78.5818 55.2002C79.0155 52.8029 79.883 49.8217 80.2902 48.4859C80.1929 48.4682 80.1397 48.4682 80.1397 48.4682C74.315 46.2036 71.8717 57.2348 72.6507 58.0575Z" fill="#8E342E"/>
<path d="M77.4403 57.4736L77.2279 57.5002C76.2895 57.6329 75.422 56.9694 75.2892 56.0317L75.1387 54.9348C75.006 53.9971 75.6699 53.1302 76.6082 52.9975L76.8207 52.9709C77.759 52.8382 78.6265 53.5017 78.7593 54.4394L78.9098 55.5363C79.0337 56.4652 78.3698 57.341 77.4403 57.4736Z" fill="#ED7D2B"/>
<path d="M76.0592 53.4575C75.9353 53.2275 76.3691 51.4052 77.0153 49.9898C77.3251 49.3086 78.113 48.3975 78.6795 48.1586C78.8831 48.0702 79.1487 48.1055 79.37 48.1586C79.5293 48.194 79.9808 48.4063 79.9808 48.4063C78.1307 48.9813 76.5284 52.8471 76.6435 53.2452C76.6435 53.2363 76.6346 53.2275 76.6346 53.2186L76.0592 53.4575Z" fill="#ED7D2B"/>
<path d="M77.0153 56.3767L76.909 56.3944C76.4399 56.4563 76.0061 56.129 75.9441 55.6602L75.8645 55.1117C75.8025 54.6428 76.13 54.2094 76.5992 54.1475L76.7054 54.1298C77.1746 54.0678 77.6084 54.3952 77.6703 54.864L77.75 55.4125C77.812 55.8725 77.4844 56.3148 77.0153 56.3767Z" fill="#F99746"/>
<path d="M89.3817 76.148C89.3817 76.148 91.5682 76.0241 91.7806 76.1391C92.1259 76.3249 93.3032 77.0768 93.4803 77.298C93.6662 77.5191 94.1442 78.3949 94.1442 78.3949C94.1442 78.3949 93.9317 78.4568 93.8432 78.3684C93.7458 78.2799 93.0377 77.528 93.0377 77.528L93.7724 78.6426C93.7724 78.6426 93.5157 78.6338 93.4183 78.5188C93.3209 78.4126 92.6305 77.7137 92.6305 77.7137L92.4003 77.6695C92.4003 77.6695 92.6393 77.8641 92.7632 78.0322C92.896 78.2003 92.9757 78.3861 92.9757 78.3861C92.9757 78.3861 92.7632 78.3507 92.7013 78.3153C92.6393 78.2799 92.0196 77.7491 92.0196 77.7491L92.3472 78.1914C92.3472 78.1914 92.1259 78.1826 92.0551 78.1295C91.9842 78.0764 91.5062 77.643 91.4177 77.643C91.3292 77.643 90.7184 77.6164 90.4616 77.4837C90.1961 77.3422 89.3728 77.0237 89.3728 77.0237L89.3817 76.148Z" fill="#FFB27D"/>
<path d="M75.8822 61.0298C75.8822 61.0298 74.4216 61.4544 74.0852 61.7906C74.0852 61.7906 75.6167 65.6917 77.8209 67.514L78.414 67.0983V68.0448L80.6182 69.4867C80.6182 69.4956 75.776 62.2152 75.8822 61.0298Z" fill="#B7D3F3"/>
<path d="M83.3268 81.1549C82.1672 80.7037 78.2899 79.1379 76.7319 77.6783C74.988 76.0418 71.3762 70.1502 71.3762 70.1502L77.6968 68.6021C77.6968 68.6021 80.2993 72.406 81.0429 73.1225C81.6095 73.6798 82.9373 73.7241 82.9373 73.7241L82.5921 75.4314C82.5832 75.4668 82.5744 75.511 82.5655 75.5464C82.5567 75.5729 82.5567 75.6083 82.5478 75.6437C82.539 75.6702 82.539 75.7056 82.5301 75.7321C82.2734 77.3775 83.0878 79.881 83.3268 81.1549Z" fill="#B7D3F3"/>
<path d="M80.494 61.6756C80.494 61.6756 81.1667 66.9832 80.609 69.4956C80.609 69.4956 81.512 67.8413 81.6359 67.5317L81.4854 66.6206L82.0697 66.824C82.0697 66.824 81.5563 62.5867 81.0871 61.8436C80.6179 61.1006 80.4497 61.0298 80.4497 61.0298L80.494 61.6756Z" fill="#B7D3F3"/>
<path d="M100.11 77.9791C100.11 77.9791 97.2865 78.0853 94.5334 78.0676C93.8518 77.006 94.6839 75.741 94.6839 75.741C97.0741 76.1745 99.6324 76.5903 99.6324 76.5903L100.11 77.9791Z" fill="#FFB27D"/>
<path d="M100.385 79.3945H89.9658C89.9658 78.9345 90.3376 78.5629 90.7979 78.5629H100.385V79.3945Z" fill="#10974F"/>
<path d="M116.47 68.0536L112.601 79.3945H96.3838L100.35 68.0536H116.47Z" fill="#10974F"/>
<path d="M116.47 68.0536L112.637 79.2883L112.601 79.3945H96.6228L100.589 68.0536H116.47Z" fill="#01BA57"/>
<path d="M108.016 73.6179C107.918 74.0514 107.485 74.4052 107.051 74.4052C106.617 74.4052 106.343 74.0514 106.449 73.6179C106.546 73.1845 106.98 72.8306 107.414 72.8306C107.848 72.8306 108.113 73.1845 108.016 73.6179Z" fill="#FFC397"/>
<path d="M116.47 68.0536L112.637 79.2883H105.29L114.248 68.0536H116.47Z" fill="#10974F"/>
<path d="M89.3818 77.0326C89.3818 77.0326 84.0173 77.5014 81.0518 77.3687V74.4584C82.9904 74.998 89.3818 76.148 89.3818 76.148V77.0326Z" fill="#FFB27D"/>
<path d="M74.0934 61.7906C74.0934 61.7906 71.0217 61.8614 70.0745 62.8875C69.1273 63.9137 71.0128 69.7079 71.0128 69.7079C71.0128 69.7079 76.7314 76.7052 79.5907 77.2006C79.5907 77.2006 80.8389 77.3687 81.4231 77.3775C81.4231 77.3775 80.8477 75.7145 81.9189 74.6706C81.9189 74.6706 80.6972 74.3256 80.6441 74.1752C80.591 74.0248 74.0934 61.7906 74.0934 61.7906Z" fill="#D2E3FC"/>
<path d="M55.8846 115.929H55.858C55.6898 115.929 55.5659 115.69 55.5659 115.39L56.0085 80.8541L57.3187 80.5798L56.2033 115.398C56.1944 115.699 56.0528 115.929 55.8846 115.929Z" fill="#233862"/>
<path d="M53.4323 81.4915H129.686C130.173 81.4915 130.571 81.0934 130.571 80.6069V80.2973C130.571 79.8107 130.173 79.4127 129.686 79.4127H53.4323C52.9455 79.4127 52.5471 79.8107 52.5471 80.2973V80.6069C52.5471 81.0934 52.9455 81.4915 53.4323 81.4915Z" fill="#233862"/>
<path d="M223.971 115.929H223.998C224.166 115.929 224.29 115.69 224.29 115.39L223.847 80.8541L222.537 80.5798L223.653 115.398C223.662 115.699 223.803 115.929 223.971 115.929Z" fill="#233862"/>
<path d="M124.038 81.491H225.769C226.335 81.491 226.795 81.031 226.795 80.4649V80.4295C226.795 79.8633 226.335 79.4033 225.769 79.4033H124.038C123.472 79.4033 123.011 79.8633 123.011 80.4295V80.4649C123.011 81.031 123.472 81.491 124.038 81.491Z" fill="#233862"/>
<path d="M151.746 79.3945H141.326C141.326 78.9345 141.698 78.5629 142.159 78.5629H151.754V79.3945H151.746Z" fill="#10974F"/>
<path d="M167.83 68.0536L163.962 79.3945H147.744L151.71 68.0536H167.83Z" fill="#10974F"/>
<path d="M167.83 68.0536L163.997 79.2883L163.962 79.3945H147.975L151.95 68.0536H167.83Z" fill="#01BA57"/>
<path d="M159.376 73.6179C159.279 74.0514 158.845 74.4052 158.411 74.4052C157.977 74.4052 157.703 74.0514 157.809 73.6179C157.907 73.1845 158.34 72.8306 158.774 72.8306C159.208 72.8306 159.473 73.1845 159.376 73.6179Z" fill="#FFC397"/>
<path d="M167.83 68.0536L163.997 79.2883H156.65L165.608 68.0536H167.83Z" fill="#10974F"/>
<path d="M170.76 68.0536L174.655 79.4033L190.846 79.3945L186.872 68.0536H170.76Z" fill="#ED7D2B"/>
<path d="M171.221 68.3013L174.965 79.2883L175.001 79.3944H190.607L186.73 68.3013H171.221Z" fill="#B0D4FF"/>
<path d="M174.655 79.4033L197.273 79.3945C197.273 78.9345 196.901 78.5629 196.441 78.5629H174.425L174.655 79.4033Z" fill="#ED7D2B"/>
<path d="M204.151 60.1275H203.939C202.992 60.1275 202.221 59.3579 202.221 58.4113V57.3056C202.221 56.359 202.992 55.5894 203.939 55.5894H204.151C205.098 55.5894 205.869 56.359 205.869 57.3056V58.4113C205.869 59.349 205.09 60.1275 204.151 60.1275Z" fill="#ED7D2B"/>
<path d="M195.078 111.922C195.078 111.922 194.848 115.478 194.157 115.522C194.069 115.531 190.67 115.522 190.67 115.522L186.332 115.487C186.332 115.487 186.359 114.443 187.633 114.222C188.899 114.001 191.024 113.116 191.794 111.444C192.608 109.693 195.078 111.922 195.078 111.922Z" fill="#0E2C4F"/>
<path d="M207.489 82.6941C207.657 82.8356 212.074 87.6214 211.711 91.2926C211.605 92.3718 210.676 93.1857 209.587 93.1857H204.205C204.205 93.1857 198.716 94.1676 198.583 95.353C198.451 96.5384 197.326 102.934 195.105 112.019C195.105 112.019 193.467 112.585 192.467 112.178C191.148 111.648 190.962 111.081 190.962 111.081C190.962 111.081 192.29 90.7441 193.334 89.311C194.379 87.878 205.178 83.6229 208.675 83.1983C212.172 82.7649 207.489 82.6941 207.489 82.6941Z" fill="#163560"/>
<path d="M176.285 77.6253C176.285 77.6253 173.16 76.8999 172.363 77.6253C171.566 78.3506 171.31 79.4033 171.31 79.4033H176.285V77.6253Z" fill="#FFB27D"/>
<path d="M187.474 111.922C187.474 111.922 187.244 115.478 186.553 115.522C186.465 115.531 183.065 115.522 183.065 115.522L178.728 115.487C178.728 115.487 178.754 114.443 180.029 114.222C181.295 114.001 183.419 113.116 184.19 111.444C185.004 109.693 187.474 111.922 187.474 111.922Z" fill="#163560"/>
<path d="M211.57 82.6941C211.693 82.8002 212.649 85.3745 213.287 88.2937C213.836 90.806 211.924 93.1857 209.348 93.1857H196.83C196.83 93.1857 191.342 94.1676 191.209 95.353C191.076 96.5384 189.952 102.934 187.73 112.019C187.73 112.019 186.084 112.453 184.8 111.904C184.119 111.612 183.579 110.913 183.579 110.913C183.579 110.913 184.915 90.7441 185.969 89.311C187.013 87.878 197.813 83.6229 201.31 83.1983C204.798 82.7649 211.57 82.6941 211.57 82.6941Z" fill="#2B478B"/>
<path d="M204.63 64.5064L202.691 66.3641H199.389C199.389 66.0987 199.398 64.9929 199.407 63.9933C199.407 63.9313 199.407 63.8783 199.407 63.8163C199.407 63.5952 199.415 63.3829 199.415 63.1794C199.424 62.631 199.424 62.224 199.424 62.224L200.274 61.6402L202.16 60.3486L203.178 59.6498C203.178 59.6675 203.266 60.5786 203.275 60.7113C203.514 63.091 204.63 64.5064 204.63 64.5064Z" fill="#FFB27D"/>
<path d="M199.841 64.179C199.903 64.1525 203.47 62.5513 203.886 62.6929C204.302 62.8344 204.824 64.1083 204.824 64.1083L198.539 65.5325C198.539 65.5148 199.035 64.5152 199.841 64.179Z" fill="#B7D3F3"/>
<path d="M215.278 74.8652C214.597 70.6721 211.729 67.5405 210.498 66.364C209.675 65.1255 204.824 64.0994 204.824 64.0994C204.824 64.0994 200.805 65.0105 198.539 65.5236C198.539 65.5236 194.998 65.904 192.997 69.2125C191.758 71.2559 188.226 75.9267 185.898 76.0683C183.57 76.2098 176.275 77.6252 176.275 77.6252V79.421L187.403 79.7217C187.535 79.7217 187.677 79.7129 187.81 79.6863C188.766 79.5094 192.873 78.6867 194.909 77.6252C195.237 82.8798 195.618 90.8945 197.459 92.1683C199.398 93.5129 213.057 93.6987 214.499 91.6464C215.243 90.5937 214.331 84.3748 213.198 78.3771C214.606 77.7136 215.562 76.6167 215.278 74.8652Z" fill="#D2E3FC"/>
<path d="M202.664 61.4633L202.496 61.5694C202.496 61.5694 200.947 62.684 199.433 63.1883C199.442 62.6398 199.442 62.2329 199.442 62.2329L200.292 61.649L202.664 61.4633Z" fill="#EAA16E"/>
<path d="M198.282 62.2682C198.282 62.2682 203.355 62.8698 203.682 59.7028C204.01 56.5359 204.886 54.4836 201.655 53.9705C198.424 53.4574 197.672 54.5986 197.309 55.6247C196.946 56.6509 196.972 62.0294 198.282 62.2682Z" fill="#FFB27D"/>
<path d="M197.442 55.2974C197.442 55.2974 198.398 58.7298 199.097 58.4467C199.787 58.1636 200.425 57.9248 200.513 58.9952C200.602 60.0656 201.009 61.3217 203.266 61.0917C205.524 60.8617 206.48 54.6782 205.665 53.7051C203.319 50.9009 194.184 51.9536 197.442 55.2974Z" fill="#163560"/>
<path d="M193.847 93.8668H218.952C219.909 93.8668 220.679 93.0972 220.679 92.1418V91.0184H193.847V93.8668Z" fill="#77A4E5"/>
<path d="M190.838 93.8668H209.835C210.543 93.8668 211.109 93.2918 211.109 92.5929V92.301C211.109 91.5933 210.534 91.0272 209.835 91.0272H190.838C190.13 91.0272 189.563 91.6022 189.563 92.301V92.5929C189.563 93.2918 190.138 93.8668 190.838 93.8668Z" fill="#F99746"/>
<path d="M206.657 114.461H208.277L208.728 93.8668H206.259L206.657 114.461Z" fill="#2B478B"/>
<path d="M199.62 114.461H215.368V113.036L207.339 112.311L199.62 113.036V114.461Z" fill="#2B478B"/>
<path d="M216.899 114.231C216.899 113.514 216.315 112.939 215.607 112.939C214.89 112.939 214.314 113.523 214.314 114.231C214.314 114.947 214.899 115.522 215.607 115.522C216.315 115.531 216.899 114.947 216.899 114.231Z" fill="#2B478B"/>
<path d="M201.151 114.231C201.151 113.514 200.567 112.939 199.858 112.939C199.141 112.939 198.566 113.523 198.566 114.231C198.566 114.947 199.15 115.522 199.858 115.522C200.567 115.531 201.151 114.947 201.151 114.231Z" fill="#2B478B"/>
<path d="M200.177 95.2114H214.801C215.545 95.2114 216.156 94.6099 216.156 93.858H198.832C198.832 94.6099 199.433 95.2114 200.177 95.2114Z" fill="#2B478B"/>
<path d="M218.2 93.8668C218.882 93.8668 219.431 93.3183 219.431 92.6372V73.671C219.431 70.1148 217.102 67.2398 214.234 67.2398H202.487C199.619 67.2398 197.291 70.1237 197.291 73.671V93.8668H218.2Z" fill="#F99746"/>
<path d="M218.439 93.8668C219.679 93.8668 220.688 92.8583 220.688 91.6199V73.671C220.688 70.1148 218.36 67.2398 215.492 67.2398H203.745C200.877 67.2398 198.548 70.1237 198.548 73.671V93.8668H218.439Z" fill="#CC6A27"/>
<path d="M196.476 62.3302C199.371 61.419 200.079 58.6767 200.088 58.6502L199.778 58.5706L199.929 58.6059L199.778 58.5706C199.769 58.5971 199.097 61.1625 196.379 62.0294C196.361 62.0382 196.344 62.0383 196.326 62.0471L196.414 62.3479C196.441 62.3479 196.459 62.339 196.476 62.3302Z" fill="#122544"/>
<path d="M196.149 62.5514L196.423 62.4629C196.565 62.4187 196.645 62.2683 196.6 62.1268C196.556 61.9852 196.406 61.9056 196.264 61.9498L195.99 62.0383C195.848 62.0825 195.768 62.2329 195.813 62.3745C195.866 62.516 196.016 62.5956 196.149 62.5514Z" fill="#ED7D2B"/>
<path d="M200.141 61.2598L199.929 61.2863C198.99 61.419 198.114 60.7556 197.99 59.8179L197.84 58.7209C197.707 57.7832 198.371 56.9163 199.309 56.7836L199.522 56.7571C200.46 56.6244 201.327 57.2878 201.46 58.2255L201.611 59.3225C201.735 60.2602 201.08 61.1359 200.141 61.2598Z" fill="#ED7D2B"/>
<path d="M198.76 57.2524C198.636 57.0224 199.07 55.2001 199.716 53.7848C200.026 53.1036 200.814 52.1924 201.381 51.9536C201.584 51.8651 201.85 51.9005 202.071 51.9536C202.231 51.989 202.682 52.2455 202.682 52.2455C200.832 52.8205 199.23 56.6332 199.345 57.0313C199.345 57.0224 199.336 57.0136 199.336 57.0048L198.76 57.2524Z" fill="#ED7D2B"/>
<path d="M199.716 60.1717L199.61 60.1894C199.141 60.2513 198.707 59.924 198.645 59.4551L198.566 58.9067C198.504 58.4378 198.831 58.0044 199.3 57.9424L199.407 57.9248C199.876 57.8628 200.309 58.1901 200.371 58.659L200.451 59.2075C200.513 59.6675 200.186 60.1009 199.716 60.1717Z" fill="#F99746"/>
</g>
<defs>
<clipPath id="clip0">
<rect width="259" height="116" fill="white"/>
</clipPath>
</defs>
</svg>
