<svg width="324" height="136" viewBox="0 0 324 136" fill="none" xmlns="http://www.w3.org/2000/svg">
<g clip-path="url(#clip0)">
<path d="M12.7067 135.624C12.7067 135.624 -14.6549 102.905 10.9246 77.6432C26.9741 61.787 32.3756 73.029 42.0052 48.1106C54.8891 14.7718 103.945 -2.79944 142.729 32.8741C168.453 56.5311 176.754 62.4952 189.384 56.9848C203.861 50.6667 210.226 31.657 232.894 35.6736C259.094 40.3209 255.585 68.4924 274.888 63.5795C312.112 54.1189 339.695 108.16 313.961 135.989L12.7067 135.624Z" fill="#E9F3FE"/>
<path d="M221.671 80.6307C221.671 84.0166 221.361 87.325 220.774 90.545C216.103 116.205 193.634 135.657 166.627 135.657C144.157 135.657 124.843 122.202 116.287 102.916C115.158 100.371 114.217 97.7261 113.486 95.0041C112.247 90.4232 111.594 85.61 111.594 80.6418C111.594 76.5809 112.036 72.6196 112.866 68.8022C115.158 58.379 120.404 49.0512 127.676 41.7593C129.746 39.6902 131.971 37.787 134.339 36.0609C143.405 29.4882 154.562 25.6044 166.627 25.6044C168.021 25.6044 169.416 25.6598 170.788 25.7593C172.725 25.9032 174.629 26.1466 176.511 26.4896C189.328 28.8133 200.596 35.5629 208.665 45.112C210.292 47.0373 211.786 49.0733 213.148 51.2089C218.549 59.7178 221.671 69.8091 221.671 80.6307Z" fill="#CAE2FF"/>
<path d="M221.671 80.6307C221.671 84.0166 221.361 87.3251 220.775 90.545C218.539 90.2241 215.617 89.9032 213.812 90.1134C210.569 90.4897 207.326 97.1729 200.641 97.4385C193.955 97.704 185.754 92.592 176.976 96.0332C168.199 99.4634 163.616 95.8451 162.089 93.3666C160.561 90.888 165.908 85.1674 165.421 82.6778C164.934 80.1992 166.096 71.8009 173.534 71.8009C180.972 71.8009 184.414 67.9834 185.366 66.2684C186.318 64.5533 192.052 65.8921 195.095 62.639C198.15 59.397 192.804 53.6764 195.095 49.8589C197.387 46.0415 208.643 45.1121 208.643 45.1121C216.79 54.6944 221.671 67.0982 221.671 80.6307Z" fill="#AFCDFB"/>
<path d="M140.538 71.2808C137.871 75.0429 141.49 82.8658 139.199 86.8714C136.908 90.8769 132.514 90.1134 129.27 92.0277C126.448 93.6874 125.33 100.515 116.287 102.916C113.265 96.1107 111.583 88.5643 111.583 80.6418C111.583 76.5809 112.026 72.6196 112.856 68.8022C114.704 66.9433 117.228 65.2725 120.67 64.3652C131.551 61.4993 134.251 60.8465 138.59 61.5436C141.889 62.0747 143.206 67.5187 140.538 71.2808Z" fill="#AFCDFB"/>
<path d="M181.57 50.5228C181.57 50.5228 174.884 49.184 171.265 51.4744C167.634 53.7649 160.296 57.87 161.248 60.249C162.2 62.639 169.173 64.4426 172.029 64.3541C174.895 64.2545 183.285 59.9613 186.816 60.249C190.347 60.5367 188.333 50.7441 181.57 50.5228Z" fill="#AFCDFB"/>
<path d="M149.781 115.994C146.859 118.119 146.161 124.669 144.302 125.577C143.361 126.03 141.922 127.668 140.715 129.184C133.133 125.134 126.603 119.347 121.677 112.376C124.987 110.086 131.174 106.213 135.469 106.102C135.469 106.102 137.616 106.08 139.21 101.721C139.841 100.006 140.505 98.4786 141.291 97.3278C142.486 95.5574 143.936 94.6943 145.862 95.3804C146.681 95.6791 147.202 96.1328 147.589 96.7192C148.696 98.379 148.773 101.001 151.906 103.535C156.123 106.954 152.703 113.87 149.781 115.994Z" fill="#AFCDFB"/>
<path d="M117.316 112.531H116.243V135.425H117.316V112.531Z" fill="#1C468A"/>
<path d="M115.789 111.734C115.789 111.148 116.231 110.683 116.785 110.683C117.338 110.683 117.781 111.159 117.781 111.734C117.781 112.321 117.338 112.786 116.785 112.786C116.231 112.786 115.789 112.321 115.789 111.734Z" fill="#1C468A"/>
<path d="M117.715 135.115H115.789V135.657H117.715V135.115Z" fill="#1C468A"/>
<path d="M117.604 112.354H115.977V112.797H117.604V112.354Z" fill="#1C468A"/>
<path d="M69.0795 118.783C62.9696 118.783 56.4059 118.628 49.4216 118.252C31.4905 117.3 19.0605 115.386 18.9387 115.364L19.1269 114.036C19.2486 114.058 31.6344 115.961 49.5102 116.913C65.9913 117.787 90.6522 117.997 114.483 114.036L114.682 115.364C104.532 117.046 89.2022 118.783 69.0795 118.783Z" fill="#739AF0"/>
<path d="M168.265 118.783C162.155 118.783 155.591 118.628 148.607 118.252C130.676 117.3 118.246 115.386 118.124 115.364L118.312 114.036C118.434 114.058 130.82 115.961 148.696 116.913C165.177 117.787 189.838 117.997 213.668 114.036L213.868 115.364C203.718 117.046 188.377 118.783 168.265 118.783Z" fill="#739AF0"/>
<path d="M267.384 118.783C261.275 118.783 254.711 118.628 247.727 118.252C229.795 117.3 217.365 115.386 217.244 115.364L217.432 114.036C217.554 114.058 229.939 115.961 247.815 116.913C264.296 117.787 288.957 117.997 312.788 114.036L312.987 115.364C302.837 117.046 287.507 118.783 267.384 118.783Z" fill="#739AF0"/>
<path d="M18.2194 112.531H17.1458V135.425H18.2194V112.531Z" fill="#1C468A"/>
<path d="M16.6917 111.734C16.6917 111.148 17.1344 110.683 17.6878 110.683C18.2413 110.683 18.684 111.159 18.684 111.734C18.684 112.321 18.2413 112.786 17.6878 112.786C17.1344 112.786 16.6917 112.321 16.6917 111.734Z" fill="#1C468A"/>
<path d="M18.6176 135.115H16.6917V135.657H18.6176V135.115Z" fill="#1C468A"/>
<path d="M18.507 112.354H16.8799V112.797H18.507V112.354Z" fill="#1C468A"/>
<path d="M21.2963 114.224L21.0418 115.806L18.7727 115.419L19.0494 113.881L21.2963 114.224Z" fill="#1C468A"/>
<path d="M20.0789 114.368C19.9903 114.246 19.8796 114.169 19.7468 114.124H19.7357C19.7247 114.124 19.7136 114.113 19.7025 114.113L19.0384 114.003L18.651 113.936C18.5071 113.914 18.3632 113.947 18.2415 114.025C18.2304 114.036 18.2193 114.036 18.2083 114.047C18.0754 114.147 17.998 114.29 17.9758 114.456C17.9426 114.711 18.0533 114.954 18.2415 115.087C18.3079 115.131 18.3854 115.165 18.4739 115.176L18.817 115.231L18.9609 115.253L19.5254 115.342C19.5586 115.342 19.5918 115.353 19.614 115.353C19.9018 115.353 20.1563 115.131 20.2006 114.81C20.2117 114.678 20.1785 114.512 20.0789 114.368ZM20.0457 114.822C20.0014 115.087 19.78 115.264 19.5254 115.231L18.9609 115.142L18.817 115.12L18.4628 115.065C18.3632 115.043 18.2747 114.999 18.2083 114.932C18.1086 114.833 18.0533 114.678 18.0754 114.512C18.0976 114.412 18.1419 114.313 18.2083 114.246C18.2304 114.224 18.2415 114.213 18.2636 114.202C18.3632 114.124 18.485 114.091 18.6067 114.113L18.9941 114.18L19.0938 114.202L19.6583 114.29C19.78 114.313 19.8796 114.379 19.9571 114.479C20.0346 114.567 20.0678 114.689 20.0457 114.822Z" fill="#1C468A"/>
<path d="M113.409 115.685L113.21 114.102L115.49 113.759L115.656 115.319L113.409 115.685Z" fill="#1C468A"/>
<path d="M116.531 114.401C116.509 114.202 116.398 114.036 116.243 113.947C116.132 113.87 115.999 113.848 115.856 113.87L115.512 113.925L114.804 114.036C114.771 114.036 114.738 114.047 114.715 114.058C114.638 114.08 114.561 114.124 114.505 114.18C114.35 114.313 114.273 114.534 114.306 114.755C114.328 114.921 114.417 115.076 114.538 115.176C114.572 115.209 114.616 115.231 114.66 115.253C114.76 115.297 114.87 115.319 114.981 115.297L115.645 115.187L116.033 115.12C116.11 115.109 116.177 115.087 116.243 115.043C116.309 114.999 116.376 114.943 116.42 114.877C116.52 114.733 116.553 114.567 116.531 114.401ZM116.309 114.788C116.287 114.822 116.265 114.844 116.243 114.866C116.177 114.932 116.099 114.965 116.01 114.988L115.623 115.054L114.959 115.165C114.848 115.187 114.727 115.153 114.627 115.076C114.627 115.076 114.616 115.076 114.616 115.065C114.516 114.988 114.45 114.877 114.439 114.744C114.417 114.611 114.461 114.479 114.527 114.379C114.594 114.279 114.704 114.213 114.826 114.191L115.535 114.08L115.889 114.025C116.033 114.003 116.165 114.047 116.254 114.147C116.331 114.213 116.387 114.324 116.409 114.434C116.409 114.545 116.387 114.678 116.309 114.788Z" fill="#1C468A"/>
<path d="M216.491 112.531H215.417V135.425H216.491V112.531Z" fill="#1C468A"/>
<path d="M214.963 111.734C214.963 111.148 215.406 110.683 215.96 110.683C216.513 110.683 216.956 111.159 216.956 111.734C216.956 112.321 216.513 112.786 215.96 112.786C215.406 112.786 214.963 112.321 214.963 111.734Z" fill="#1C468A"/>
<path d="M216.889 135.115H214.963V135.657H216.889V135.115Z" fill="#1C468A"/>
<path d="M216.778 112.354H215.151V112.797H216.778V112.354Z" fill="#1C468A"/>
<path d="M120.471 114.224L120.217 115.806L117.948 115.419L118.224 113.881L120.471 114.224Z" fill="#1C468A"/>
<path d="M119.253 114.368C119.165 114.246 119.054 114.169 118.921 114.124H118.91C118.899 114.124 118.888 114.113 118.877 114.113L118.213 114.003L117.825 113.936C117.681 113.914 117.538 113.947 117.416 114.025C117.405 114.036 117.394 114.036 117.383 114.047C117.25 114.147 117.172 114.29 117.15 114.456C117.117 114.711 117.228 114.954 117.416 115.087C117.482 115.131 117.56 115.165 117.648 115.176L117.991 115.231L118.135 115.253L118.7 115.342C118.733 115.342 118.766 115.353 118.788 115.353C119.076 115.353 119.331 115.131 119.375 114.81C119.386 114.678 119.353 114.512 119.253 114.368ZM119.231 114.822C119.187 115.087 118.965 115.264 118.711 115.231L118.146 115.142L118.002 115.12L117.648 115.065C117.549 115.043 117.46 114.999 117.394 114.932C117.294 114.833 117.239 114.678 117.261 114.512C117.283 114.412 117.327 114.313 117.394 114.246C117.416 114.224 117.427 114.213 117.449 114.202C117.549 114.124 117.67 114.091 117.792 114.113L118.18 114.18L118.279 114.202L118.844 114.29C118.965 114.313 119.065 114.379 119.143 114.479C119.22 114.567 119.242 114.689 119.231 114.822Z" fill="#1C468A"/>
<path d="M212.595 115.685L212.396 114.102L214.676 113.759L214.831 115.319L212.595 115.685Z" fill="#1C468A"/>
<path d="M215.705 114.401C215.683 114.202 215.572 114.036 215.417 113.947C215.307 113.87 215.174 113.848 215.03 113.87L214.687 113.925L213.979 114.036C213.945 114.036 213.912 114.047 213.89 114.058C213.813 114.08 213.735 114.124 213.68 114.18C213.525 114.313 213.447 114.534 213.48 114.755C213.503 114.921 213.591 115.076 213.713 115.176C213.746 115.209 213.79 115.231 213.835 115.253C213.934 115.297 214.045 115.319 214.156 115.297L214.82 115.187L215.207 115.12C215.285 115.109 215.351 115.087 215.417 115.043C215.484 114.999 215.55 114.943 215.595 114.877C215.694 114.733 215.738 114.567 215.705 114.401ZM215.484 114.788C215.462 114.822 215.44 114.844 215.417 114.866C215.351 114.932 215.274 114.965 215.185 114.988L214.798 115.054L214.134 115.165C214.023 115.187 213.901 115.153 213.801 115.076C213.801 115.076 213.79 115.076 213.79 115.065C213.691 114.988 213.624 114.877 213.613 114.744C213.591 114.611 213.635 114.479 213.702 114.379C213.768 114.279 213.879 114.213 214.001 114.191L214.709 114.08L215.063 114.025C215.207 114.003 215.34 114.047 215.429 114.147C215.506 114.213 215.561 114.324 215.583 114.434C215.595 114.545 215.561 114.678 215.484 114.788Z" fill="#1C468A"/>
<path d="M315.621 112.531H314.548V135.425H315.621V112.531Z" fill="#1C468A"/>
<path d="M314.083 111.734C314.083 111.148 314.526 110.683 315.079 110.683C315.633 110.683 316.075 111.159 316.075 111.734C316.075 112.321 315.633 112.786 315.079 112.786C314.526 112.786 314.083 112.321 314.083 111.734Z" fill="#1C468A"/>
<path d="M316.009 135.115H314.083V135.657H316.009V135.115Z" fill="#1C468A"/>
<path d="M315.898 112.354H314.271V112.797H315.898V112.354Z" fill="#1C468A"/>
<path d="M219.59 114.224L219.335 115.806L217.066 115.419L217.354 113.881L219.59 114.224Z" fill="#1C468A"/>
<path d="M218.383 114.368C218.295 114.246 218.184 114.169 218.051 114.124H218.04C218.029 114.124 218.018 114.113 218.007 114.113L217.343 114.003L216.956 113.936C216.812 113.914 216.668 113.947 216.546 114.025C216.535 114.036 216.524 114.036 216.513 114.047C216.38 114.147 216.303 114.29 216.281 114.456C216.247 114.711 216.358 114.954 216.546 115.087C216.613 115.131 216.69 115.165 216.779 115.176L217.122 115.231L217.266 115.253L217.83 115.342C217.863 115.342 217.896 115.353 217.919 115.353C218.206 115.353 218.461 115.131 218.505 114.81C218.516 114.678 218.472 114.512 218.383 114.368ZM218.35 114.822C218.306 115.087 218.085 115.264 217.83 115.231L217.266 115.142L217.122 115.12L216.768 115.065C216.668 115.043 216.579 114.999 216.513 114.932C216.413 114.833 216.358 114.678 216.38 114.512C216.402 114.412 216.447 114.313 216.513 114.246C216.535 114.224 216.546 114.213 216.568 114.202C216.668 114.124 216.79 114.091 216.911 114.113L217.299 114.18L217.398 114.202L217.963 114.29C218.085 114.313 218.184 114.379 218.262 114.479C218.339 114.567 218.372 114.689 218.35 114.822Z" fill="#1C468A"/>
<path d="M311.714 115.685L311.515 114.102L313.795 113.759L313.95 115.319L311.714 115.685Z" fill="#1C468A"/>
<path d="M314.836 114.401C314.814 114.202 314.703 114.036 314.548 113.947C314.437 113.87 314.304 113.848 314.161 113.87L313.817 113.925L313.109 114.036C313.076 114.036 313.043 114.047 313.02 114.058C312.943 114.08 312.865 114.124 312.81 114.18C312.655 114.313 312.578 114.534 312.611 114.755C312.633 114.921 312.722 115.076 312.843 115.176C312.877 115.209 312.921 115.231 312.965 115.253C313.065 115.297 313.175 115.319 313.286 115.297L313.95 115.187L314.338 115.12C314.415 115.109 314.482 115.087 314.548 115.043C314.614 114.999 314.681 114.943 314.725 114.877C314.814 114.733 314.858 114.567 314.836 114.401ZM314.614 114.788C314.592 114.822 314.57 114.844 314.548 114.866C314.482 114.932 314.404 114.965 314.315 114.988L313.928 115.054L313.264 115.165C313.153 115.187 313.031 115.153 312.932 115.076C312.932 115.076 312.921 115.076 312.921 115.065C312.821 114.988 312.755 114.877 312.744 114.744C312.722 114.611 312.766 114.479 312.832 114.379C312.899 114.279 313.009 114.213 313.131 114.191L313.84 114.08L314.194 114.025C314.338 114.003 314.47 114.047 314.559 114.147C314.636 114.213 314.692 114.324 314.714 114.434C314.714 114.545 314.681 114.678 314.614 114.788Z" fill="#1C468A"/>
<path d="M105.107 44.6473C105.107 44.6473 98.9088 41.6708 90.884 43.3084C90.884 43.3084 100.049 42.6777 105.484 48.4979C105.484 48.4979 109.28 42.6666 115.567 41.3388C115.578 41.3278 110.896 40.7635 105.107 44.6473Z" fill="#9FC1F4"/>
<path d="M87.63 41.8368C87.63 41.8368 82.8484 39.5021 76.6389 40.7303C76.6389 40.7303 83.7339 40.2877 87.9067 44.8133C87.9067 44.8133 90.8731 40.3209 95.7433 39.3139C95.7433 39.3139 92.1239 38.8603 87.63 41.8368Z" fill="#9FC1F4"/>
<path d="M72.2006 39.7123C72.2006 39.7123 67.7621 37.7759 62.1614 39.1369C62.1614 39.1369 68.5922 38.462 72.5659 42.4122C72.5659 42.4122 75.0895 38.2185 79.4837 37.112C79.4837 37.101 76.1742 36.8354 72.2006 39.7123Z" fill="#9FC1F4"/>
<path d="M63.5447 35.242C63.5447 35.242 60.4234 34.2129 56.7375 35.4854C56.7375 35.4854 61.0322 34.6224 63.9654 37.0345C63.9654 37.0345 65.4043 34.047 68.2932 33.029C68.2932 33.029 66.0462 33.0622 63.5447 35.242Z" fill="#9FC1F4"/>
<path d="M94.5144 24.2766C94.5144 24.2766 91.4595 23.0926 87.7073 24.166C87.7073 24.166 92.0462 23.5242 94.8465 26.0913C94.8465 26.0913 96.4404 23.1812 99.3736 22.3181C99.3736 22.3181 97.1266 22.2185 94.5144 24.2766Z" fill="#9FC1F4"/>
<path d="M109.601 34.8437C109.601 34.8437 105.329 32.6971 99.739 33.7261C99.739 33.7261 106.115 33.4163 109.811 37.5214C109.811 37.5214 112.534 33.527 116.917 32.675C116.917 32.675 113.663 32.2324 109.601 34.8437Z" fill="#9FC1F4"/>
<path d="M103.646 28.1604C103.646 28.1604 99.6282 26.3236 94.5034 27.4633C94.5034 27.4633 100.381 26.9544 103.945 30.6169C103.945 30.6169 106.314 26.8326 110.332 25.8921C110.332 25.9142 107.321 25.6044 103.646 28.1604Z" fill="#9FC1F4"/>
<path d="M197.187 24.8188C191.841 24.8188 187.513 29.4772 187.513 35.22C187.513 40.9627 197.187 50.1356 197.187 50.1356C197.187 50.1356 206.861 40.9627 206.861 35.22C206.861 29.4772 202.533 24.8188 197.187 24.8188ZM197.187 40.3099C194.033 40.3099 191.487 37.7649 191.487 34.6114C191.487 31.4689 194.033 28.9129 197.187 28.9129C200.331 28.9129 202.887 31.4689 202.887 34.6114C202.887 37.7649 200.331 40.3099 197.187 40.3099Z" fill="#F78E48"/>
<path d="M197.276 133.079C197.276 133.079 197.021 135.535 197.575 135.801C198.128 136.066 204.725 135.834 204.725 135.834C204.725 135.834 204.703 135.004 203.574 134.849C202.434 134.694 200.43 134.053 200.054 132.559C199.689 131.065 197.276 133.079 197.276 133.079Z" fill="#182C4C"/>
<path d="M195.715 70.5505C195.715 70.5505 200.032 72.2434 200.486 71.2697C200.552 70.8824 200.607 70.5173 200.641 70.2074C200.784 69.0567 200.796 68.4038 200.796 68.4038L197.951 66.1023L197.309 65.5823C197.331 66.1245 197.298 66.6335 197.22 67.0982C197.22 67.1314 197.209 67.1756 197.198 67.2088C196.744 69.9751 195.715 70.5505 195.715 70.5505Z" fill="#FFB27D"/>
<path d="M197.176 67.1645C197.176 67.1645 197.187 67.1756 197.198 67.2088C197.375 67.5297 198.604 69.6099 200.64 70.2074C200.784 69.0567 200.795 68.4038 200.795 68.4038L197.951 66.1023C197.574 66.5449 197.32 66.9432 197.22 67.0981C197.198 67.1424 197.176 67.1645 197.176 67.1645Z" fill="#E8945B"/>
<path d="M201.615 68.3374C201.615 68.3374 197.176 69.0788 196.755 66.3015C196.335 63.5352 195.483 61.7648 198.305 61.1673C201.117 60.5809 201.836 61.5546 202.201 62.4398C202.567 63.3361 202.766 68.0719 201.615 68.3374Z" fill="#FFB27D"/>
<path d="M197.574 65.5823C197.574 65.5823 196.988 64.9848 197.32 64.6086C197.663 64.2323 197.851 64.8077 198.128 64.7856C198.393 64.7635 198.88 63.9778 198.914 63.2697C198.947 62.5505 201.526 63.6459 202.566 63.3029C203.607 62.9599 204.514 61.5767 202.887 60.8354C201.935 60.3928 197.176 58.1355 195.372 60.426C193.069 63.3471 196.147 66.4122 196.556 66.8769C196.966 67.3416 197.198 67.2088 197.198 67.2088C197.198 67.2088 197.929 66.2351 197.574 65.5823Z" fill="#2C3A64"/>
<path d="M195.283 60.7026C195.294 60.4924 195.339 59.9281 195.538 59.574C195.538 59.574 195.527 60.1604 195.604 60.4592C195.682 60.7579 195.283 60.7026 195.283 60.7026Z" fill="#2C3A64"/>
<path d="M194.807 60.2268C194.807 60.2268 195.372 60.2821 195.405 60.7247L195.206 60.9903C195.206 60.9903 195.239 60.437 194.807 60.2268Z" fill="#2C3A64"/>
<path d="M190.701 133.079C190.701 133.079 190.435 135.602 190.988 135.867C191.221 135.978 198.415 135.911 198.415 135.911C198.415 135.911 198.128 135.015 196.988 134.849C195.848 134.694 193.844 134.052 193.468 132.559C193.114 131.065 190.701 133.079 190.701 133.079Z" fill="#233862"/>
<path d="M194.121 95.325C194.121 95.325 194.132 95.5906 194.132 96.0774C194.199 99.2088 194.464 111.325 194.719 118.075C194.73 118.318 194.741 118.562 194.752 118.794C194.752 118.916 194.763 119.037 194.763 119.159C194.918 122.423 195.361 125.621 195.804 128.177C196.379 131.441 196.955 133.654 196.955 133.654C199.135 134.097 200.541 133.267 200.541 133.267C200.541 133.267 201.127 128.21 201.349 125.145C201.426 124.149 201.781 120.763 202.234 116.636C202.577 113.449 202.987 109.82 203.352 106.523C203.374 106.346 203.385 106.169 203.408 106.003C204.005 100.669 204.503 96.3209 204.503 96.3209L200.652 95.9557L194.121 95.325Z" fill="#2B478B"/>
<path d="M195.815 128.177L202.246 116.636C202.589 113.45 202.998 109.82 203.363 106.523C203.386 106.346 203.397 106.169 203.419 106.003C204.017 100.669 204.515 96.3209 204.515 96.3209L200.663 95.9557L194.132 96.0885L195.815 128.177Z" fill="#233862"/>
<path d="M203.795 96.343C203.795 96.343 200.198 114.113 197.265 122.689C194.331 131.264 194.298 133.643 194.298 133.643C194.298 133.643 191.609 134.23 190.424 133.555C190.424 133.555 189.749 117.3 191.52 112.985C192.693 110.13 193.59 104.055 193.28 101.864C192.97 99.6736 192.693 95.2808 192.693 95.2808L203.795 96.343Z" fill="#2B478B"/>
<path d="M193.656 97.2946C194.509 97.8921 195.848 98.1134 197.32 98.0913C199.047 98.0581 200.95 97.704 202.478 97.2503C203.297 97.0069 204.005 96.7303 204.515 96.4647C206.795 95.2807 205.002 77.4771 201.969 72.6417C200.585 70.4287 196.379 69.7427 196.379 69.7427C195.704 70.0636 193.844 73.6044 193.734 76.0497C193.612 78.7717 193.855 82.1908 193.855 85.3222C193.855 87.9004 193.368 90.1908 193.014 92.083C192.56 94.5394 192.317 96.343 193.656 97.2946Z" fill="#B64C41"/>
<path d="M197.331 98.0912C199.058 98.058 200.961 97.704 202.489 97.2503C203.131 95.7123 203.408 93.1562 202.821 88.9294C202.367 85.7095 199.08 72.7302 199.08 72.7302C196.401 72.3872 191.011 90.9432 197.331 98.0912Z" fill="#963333"/>
<path d="M196.589 104.487C196.567 103.823 196.899 103.203 197.453 102.849C198.349 102.263 199.888 101.566 202.002 101.699C205.566 101.92 206.363 103.9 206.474 105.427C206.584 106.954 207.78 109.156 208.056 110.86C208.344 112.553 208.809 116.869 206.285 117.212C203.762 117.555 195.294 117.212 195.294 117.212C195.294 117.212 193.324 114.899 195.294 110.462C196.468 107.84 196.612 105.649 196.589 104.487Z" fill="#056D35"/>
<path d="M197.674 102.207L198.35 102.086C198.35 102.086 198.327 101.466 198.56 101.012C198.748 100.658 199.047 100.459 199.468 100.426C199.866 100.393 200.176 100.537 200.375 100.858C200.663 101.311 200.663 102.008 200.663 102.008H201.338C201.338 101.964 201.338 100.835 200.84 100.028C200.497 99.4744 200.021 99.231 199.423 99.2641C198.803 99.3195 198.338 99.6514 198.029 100.26C197.619 101.112 197.674 102.163 197.674 102.207Z" fill="#D37129"/>
<path d="M193.579 117.212C193.579 117.212 202.046 117.555 204.57 117.212C207.093 116.88 206.629 112.564 206.341 110.86C206.064 109.167 204.869 106.954 204.758 105.427C204.736 105.14 204.692 104.819 204.603 104.509C204.238 103.203 203.164 101.876 200.297 101.699C198.183 101.566 196.645 102.263 195.748 102.849C195.195 103.214 194.863 103.823 194.874 104.487C194.874 104.62 194.885 104.786 194.885 104.952C194.863 106.191 194.619 108.16 193.59 110.473C191.597 114.91 193.579 117.212 193.579 117.212Z" fill="#01BA57"/>
<path opacity="0.4" d="M205.201 111.491H200.142C200.142 111.491 199.799 115.187 202.212 115.297C204.636 115.408 205.278 113.859 205.201 111.491Z" fill="#056D35"/>
<path d="M205.201 111.491C205.201 111.491 204.338 112.808 202.744 112.775C201.161 112.741 200.143 111.491 200.143 111.491H205.201Z" fill="#056D35"/>
<path opacity="0.4" d="M199.124 111.491H194.066C194.066 111.491 193.723 115.187 196.136 115.297C198.56 115.408 199.202 113.859 199.124 111.491Z" fill="#056D35"/>
<path d="M199.124 111.491C199.124 111.491 198.261 112.808 196.667 112.775C195.084 112.741 194.066 111.491 194.066 111.491H199.124Z" fill="#056D35"/>
<path opacity="0.4" d="M194.863 104.487C194.863 104.62 194.874 104.786 194.874 104.952C195.803 106.124 197.386 107.519 199.522 107.452C203.142 107.342 204.603 104.52 204.603 104.52C204.238 103.214 203.164 101.887 200.297 101.71C198.183 101.577 196.645 102.274 195.748 102.86C195.173 103.214 194.84 103.823 194.863 104.487Z" fill="#056D35"/>
<path d="M199.633 108.183C199.866 108.183 200.043 107.994 200.043 107.773V107.397C200.043 107.165 199.855 106.988 199.633 106.988C199.401 106.988 199.224 107.176 199.224 107.397V107.773C199.213 107.994 199.401 108.183 199.633 108.183Z" fill="#056D35"/>
<path d="M200.12 98.1577C200.12 98.1577 201.216 100.282 200.674 101.101C200.12 101.92 198.161 100.869 198.006 100.393C197.851 99.917 198.006 97.6487 198.006 97.6487L200.12 98.1577Z" fill="#DA935B"/>
<path d="M200.297 98.0912C200.297 98.0912 200.795 98.556 200.829 98.9101C200.862 99.2641 201.249 100.028 201.15 100.105C200.829 100.337 200.297 99.3859 200.297 99.3859L200.109 98.3457L200.297 98.0912Z" fill="#DA935B"/>
<path d="M194.497 76.9017C194.497 76.9017 195.018 84.2821 195.007 87.336C194.996 90.39 197.431 98.5117 197.431 98.5117C197.431 98.5117 199.036 98.6445 199.666 98.5559C200.397 98.4674 200.829 98.1244 200.829 98.1244C200.829 98.1244 200.297 88.531 201.316 84.8575C202.334 81.1839 202.389 73.7925 202.389 73.7925C202.389 73.7925 201.825 72.1991 198.438 72.697C194.42 73.2945 194.497 76.9017 194.497 76.9017Z" fill="#B64C41"/>
<path d="M94.9798 68.2047C94.9798 68.2047 91.8363 66.556 87.3425 66.2241C84.9296 66.047 82.7048 67.5297 81.941 69.8313C81.8968 69.964 81.8525 70.0968 81.8193 70.2407C80.7678 74.036 81.3433 85.5436 84.8963 88.5422C88.4494 91.5408 94.9798 90.2794 94.9798 90.2794V68.2047Z" fill="#233862"/>
<path d="M104.776 95.0042C104.776 95.0042 104.399 99.7621 103.946 105.472C103.337 113.228 101.023 132.57 101.023 132.57C101.023 132.57 101.51 133.344 99.1307 132.835C99.1307 132.835 96.2086 126.252 95.5998 118.672C95.5887 118.551 95.5777 118.418 95.5666 118.296C95.0021 110.584 94.1277 94.3403 94.1277 94.3403L104.776 95.0042Z" fill="#2B478B"/>
<path d="M104.909 93.3555C104.909 93.3555 104.399 99.7511 103.946 105.461L95.5998 118.661C95.5887 118.539 95.5777 118.407 95.5666 118.285C95.0021 110.573 94.1277 94.3292 94.1277 94.3292L104.909 93.3555Z" fill="#233862"/>
<path d="M103.038 92.1605L88.6929 133.433C88.6929 133.433 87.1875 133.145 86.8555 132.492C86.8555 132.492 86.4459 115.032 88.87 110.827C90.2425 108.448 90.9398 101.776 91.0394 99.5187C91.3272 92.8133 92.0356 90.9876 92.0356 90.9876L103.038 92.1605Z" fill="#2B478B"/>
<path d="M98.787 135.956H99.9492C100.337 135.889 100.624 135.779 101.034 135.723C101.643 135.646 101.919 135.889 101.975 135.956C101.986 135.967 101.986 135.967 101.986 135.967H106.945C107.066 135.79 106.945 135.38 106.834 135.071C106.756 134.86 106.579 134.705 106.369 134.65C105.838 134.495 104.808 134.362 103.856 133.499C103.325 133.012 101.277 131.729 101.277 131.729H101.266C101.222 131.729 101.012 131.795 100.071 132.581C99.595 132.99 98.7649 132.006 98.7649 132.006C98.7649 132.006 98.6099 132.138 98.4992 132.371C98.4107 132.559 98.3442 132.813 98.3885 133.134C98.466 133.577 98.2225 134.407 98.0343 134.971C97.9236 135.314 97.824 135.557 97.824 135.557C97.824 135.557 97.7797 135.823 98.787 135.956Z" fill="#233862"/>
<path d="M98.7872 135.967H99.9494C100.337 135.9 100.636 135.779 101.034 135.723C101.643 135.646 101.92 135.889 101.975 135.956C101.986 135.967 101.986 135.967 101.986 135.967H106.945C107.066 135.79 106.945 135.38 106.834 135.071C106.679 134.938 106.646 135.657 106.557 135.768C106.469 135.878 102.506 135.812 102.285 135.646C102.052 135.48 101.366 135.192 100.414 135.414C99.5841 135.613 98.3555 135.104 98.0456 134.971C97.9349 135.314 97.8353 135.557 97.8353 135.557C97.8353 135.557 97.7799 135.845 98.7872 135.967Z" fill="#233862"/>
<path d="M86.8555 135.956H88.0288C88.4162 135.889 88.704 135.779 89.1135 135.723C89.7223 135.646 89.999 135.889 90.0543 135.956C90.0654 135.967 90.0654 135.967 90.0654 135.967H95.0242C95.1459 135.79 95.0242 135.38 94.9135 135.071C94.836 134.86 94.6589 134.705 94.4486 134.65C93.9173 134.495 92.8879 134.362 91.936 133.499C91.4047 133.012 89.357 131.729 89.357 131.729H89.346C89.3017 131.729 89.0914 131.795 88.1506 132.581C87.6746 132.99 86.8445 132.006 86.8445 132.006C86.8445 132.006 86.6895 132.138 86.5788 132.371C86.4903 132.559 86.4238 132.813 86.4681 133.134C86.5456 133.577 86.3021 134.407 86.1139 134.971C86.0032 135.314 85.9036 135.557 85.9036 135.557C85.9036 135.557 85.8483 135.823 86.8555 135.956Z" fill="#233862"/>
<path d="M86.8555 135.967H88.0177C88.4051 135.9 88.704 135.779 89.1024 135.723C89.7112 135.646 89.9879 135.889 90.0433 135.956C90.0543 135.967 90.0543 135.967 90.0543 135.967H95.0131C95.1348 135.79 95.0131 135.38 94.9024 135.071C94.7474 134.938 94.7142 135.657 94.6257 135.768C94.5371 135.878 90.5746 135.812 90.3532 135.646C90.1208 135.48 89.4345 135.192 88.4826 135.414C87.6525 135.613 86.4238 135.104 86.1139 134.971C86.0032 135.314 85.9036 135.557 85.9036 135.557C85.9036 135.557 85.8483 135.845 86.8555 135.967Z" fill="#233862"/>
<path d="M94.2275 67.5408C94.2275 67.5408 98.8763 69.8313 101.566 68.9793C101.566 68.9793 100.902 68.1383 99.7508 67.4966C99.8172 67.1093 99.8725 66.7441 99.9057 66.4343C100.05 65.2836 100.061 64.6307 100.061 64.6307L97.2161 62.3292L96.5741 61.8091C96.5962 62.3513 96.563 62.8603 96.4855 63.3251C96.4855 63.3582 96.4745 63.4025 96.4634 63.4357C95.9985 66.202 94.2275 67.5408 94.2275 67.5408Z" fill="#FFB27D"/>
<path d="M91.5709 91.8838C91.5599 92.1826 92.1687 92.5035 92.4343 92.6252C93.6076 93.1563 94.7366 93.5878 95.8988 93.8866C96.7068 94.0968 97.5259 94.2517 98.3892 94.3402C100.88 94.5947 103.824 94.0304 104.831 94.0526C104.942 94.0526 105.03 94.0083 105.119 93.9419C105.185 93.8866 105.241 90.8437 105.185 87.0152C105.185 86.8714 105.185 86.7054 105.174 86.5615V86.5062C105.163 85.0124 105.108 83.4412 105.041 81.8811C104.898 78.4398 104.621 75.1093 104.167 73.2725C103.625 71.1037 101.588 68.3928 100.238 67.6515C99.0976 67.0207 95.3343 66.3679 95.1461 66.5007C92.9435 68.1494 91.7259 73.029 91.7481 78.5615C91.7481 78.7386 91.7481 78.9156 91.7481 79.0927C91.7591 79.668 91.7813 80.2434 91.8145 80.8299C92.058 84.9129 91.8034 88.4537 91.6706 90.5118C91.6152 91.0871 91.582 91.5519 91.5709 91.8838Z" fill="#01BA57"/>
<path d="M96.4412 63.4025C96.4412 63.4025 96.4522 63.4136 96.4633 63.4468C96.6404 63.7677 97.869 65.8479 99.9056 66.4454C100.049 65.2946 100.061 64.6418 100.061 64.6418L97.216 62.3403C96.8396 62.7829 96.5851 63.1812 96.4854 63.3361C96.4633 63.3804 96.4412 63.4025 96.4412 63.4025Z" fill="#E8945B"/>
<path d="M100.879 64.5643C100.879 64.5643 96.4409 65.3057 96.0203 62.5284C95.5997 59.7621 94.7475 57.9917 97.5699 57.3942C100.381 56.8078 101.101 57.7815 101.466 58.6667C101.831 59.574 102.031 64.2988 100.879 64.5643Z" fill="#FFB27D"/>
<path d="M96.8395 61.8202C96.8395 61.8202 96.2529 61.2227 96.5849 60.8465C96.9281 60.4703 97.1162 61.0457 97.3929 61.0236C97.6586 61.0014 98.1456 60.2158 98.1788 59.5077C98.212 58.7884 100.791 59.8839 101.831 59.5408C102.872 59.1978 103.78 57.8147 102.152 57.0733C101.201 56.6307 96.441 54.3735 94.6369 56.6639C92.3346 59.5851 95.4117 62.6501 95.8212 63.1149C96.2307 63.5796 96.4632 63.4468 96.4632 63.4468C96.4632 63.4468 97.1937 62.462 96.8395 61.8202Z" fill="#2C3A64"/>
<path d="M94.5376 56.9406C94.5487 56.7304 94.593 56.166 94.7922 55.812C94.7922 55.812 94.7811 56.3984 94.8586 56.6972C94.9472 56.9849 94.5376 56.9406 94.5376 56.9406Z" fill="#2C3A64"/>
<path d="M94.072 56.4648C94.072 56.4648 94.6365 56.5201 94.6697 56.9627L94.4705 57.2283C94.4594 57.2172 94.5037 56.664 94.072 56.4648Z" fill="#2C3A64"/>
<path d="M91.6372 81.5713L91.5043 80.7304C93.5631 80.3984 95.2234 79.4026 96.452 77.7871C97.3818 76.5699 98.0237 74.9655 98.234 73.4053C98.6436 70.3735 97.8466 68.6474 95.7879 68.1273C93.9505 67.6626 91.8253 69.101 91.8032 69.1121L91.3162 68.4039C91.4158 68.3375 93.7734 66.7331 95.9982 67.2974C97.7249 67.74 99.6619 69.1674 99.0752 73.527C98.9424 74.5339 98.5108 76.4925 97.1161 78.3182C95.7657 80.0996 93.9173 81.1951 91.6372 81.5713Z" fill="#233862"/>
<path d="M99.7395 86.628C99.7395 86.628 100.326 86.3292 100.647 86.1854C100.968 86.0416 101.588 85.6543 101.643 85.9309C101.688 86.2075 101.942 86.7276 101.356 86.8271C100.758 86.9157 99.7395 86.628 99.7395 86.628Z" fill="#FFB27D"/>
<path d="M103.193 84.5478L103.602 84.6695C103.802 84.7248 104.023 84.6142 104.078 84.415L104.156 84.1605C104.211 83.9613 104.1 83.74 103.901 83.6847L103.492 83.563C103.292 83.5077 103.071 83.6183 103.016 83.8175L102.938 84.072C102.872 84.2711 102.982 84.4814 103.193 84.5478Z" fill="#415DA5"/>
<path d="M101.831 84.3043L100.392 89.1397C100.293 89.4717 100.481 89.8147 100.813 89.9143L102.65 90.4565C102.982 90.5561 103.326 90.368 103.425 90.036L104.864 85.2006C104.964 84.8686 104.776 84.5256 104.443 84.426L102.606 83.8838C102.274 83.7842 101.931 83.9724 101.831 84.3043Z" fill="#CADEFF"/>
<path d="M101.776 84.5035L100.392 89.1397C100.293 89.4717 100.481 89.8147 100.813 89.9143L102.65 90.4565C102.982 90.5561 103.326 90.368 103.425 90.036L104.776 85.4883C104.51 85.3997 103.879 85.2116 103.436 85.2448C102.994 85.278 102.163 84.769 101.776 84.5035Z" fill="#86B1FC"/>
<path d="M100.747 87.9593L103.771 88.8571L104.672 85.8235L101.648 84.9257L100.747 87.9593Z" fill="#415DA5"/>
<path d="M102.451 86.5063C101.632 86.2961 100.89 86.805 99.739 86.628C99.739 86.628 94.0608 82.6446 93.0647 81.6488C92.3452 80.9295 95.2341 77.6764 96.7394 75.1647C96.6619 75.1536 96.5845 75.1315 96.507 75.0872C95.3559 74.4012 93.0425 73.1619 91.1387 72.9738C91.0612 72.9627 90.9948 72.9517 90.9395 72.9185C89.7219 75.563 88.4601 78.971 88.0727 82.4344C88.0284 82.877 88.1945 83.3085 88.5265 83.5962C89.9212 84.8023 93.762 86.9489 98.3776 88.2767C98.3776 88.2767 99.407 88.9738 100.392 89.1508C101.377 89.3389 101.787 88.7857 103.226 89.6156C103.89 89.9918 104.1 89.184 104.011 88.7636C103.912 88.1882 103.37 86.7387 102.451 86.5063Z" fill="#FFB27D"/>
<path d="M93.574 68.2711C93.574 68.2711 91.2275 70.5616 90.1206 73.8036C90.1206 73.8036 92.3232 75.7178 96.4408 76.1051C96.4408 76.1051 98.1343 72.9959 96.8946 71.4136C95.666 69.8423 93.574 68.2711 93.574 68.2711Z" fill="#01BA57"/>
<path d="M63.3566 80.8409C63.3566 80.8409 63.2348 86.8603 63.5226 88.6196C63.8214 90.379 63.1352 98.5449 63.1352 98.5449L61.7295 98.3679C61.7295 98.3679 58.1986 85.0235 58.5639 83.3195C58.9181 81.5934 63.3566 80.8409 63.3566 80.8409Z" fill="#FFB27D"/>
<path d="M63.1351 98.5339C63.1351 98.5339 63.6774 100.36 63.5446 100.714C63.4118 101.068 62.7255 101.787 62.15 102.241C61.5744 102.683 62.0836 101.068 62.1942 100.548C62.3049 100.028 61.4637 99.9834 61.5965 99.1757C61.7294 98.3679 61.7294 98.3679 61.7294 98.3679L63.1351 98.5339Z" fill="#FFB27D"/>
<path d="M61.5963 99.1757C61.5963 99.1757 61.5963 100.692 61.5853 100.99C61.5742 101.289 61.8841 101.012 61.9284 100.758C61.9726 100.492 62.2383 100.061 62.3711 100.017C62.5039 99.9724 61.5963 99.1757 61.5963 99.1757Z" fill="#FFB27D"/>
<path d="M52.963 121.737C53.4722 126.838 55.2985 134.672 55.2985 134.672L56.7263 133.643C56.7263 133.643 59.2278 116.061 59.6374 114.622C62.482 104.686 62.803 94.9156 62.803 94.9156L54.4794 92.4592C53.6271 93.8866 52.9741 96.2323 53.1733 98.8769C54.0588 110.473 52.3542 115.629 52.963 121.737Z" fill="#233862"/>
<path d="M44.5509 98.7884C44.5509 98.7884 44.5177 99.3527 44.086 99.906C43.9864 100.028 43.6986 100.36 43.599 100.238C43.4883 100.116 43.8979 99.231 43.6543 98.6888C43.5769 98.5007 44.5509 98.7884 44.5509 98.7884Z" fill="#FFB27D"/>
<path d="M61.3864 135.181C61.3199 135.015 61.1871 134.882 61.01 134.838C60.5894 134.716 59.7482 134.606 58.9845 133.909C58.5528 133.521 56.9036 132.47 56.9036 132.47H56.8925C56.8593 132.47 56.6822 132.526 55.9295 133.156C55.5421 133.488 54.878 132.692 54.878 132.692C54.878 132.692 54.7563 132.791 54.6566 132.99C54.5792 133.145 54.5238 133.344 54.5681 133.61C54.6234 133.975 54.4353 134.639 54.2803 135.093C54.1918 135.369 54.1032 135.557 54.1032 135.557C54.1032 135.557 54.0589 135.779 54.867 135.889H55.8078C56.1288 135.834 56.3612 135.746 56.6822 135.701C57.1692 135.635 57.4017 135.834 57.4459 135.889C57.457 135.9 57.457 135.9 57.457 135.9H61.4638C61.5745 135.757 61.486 135.425 61.3864 135.181Z" fill="#37598C"/>
<path d="M48.2926 121.35C48.8017 126.451 50.5174 134.451 50.5174 134.451L51.7792 134.86C51.7792 134.86 54.5574 115.674 54.9669 114.246C57.8116 104.31 58.2543 92.5035 58.2543 92.5035L49.82 92.083C48.9677 93.5104 48.3147 95.8562 48.5139 98.5007C49.3884 110.086 47.6838 115.242 48.2926 121.35Z" fill="#2B478B"/>
<path d="M56.6378 135.181C56.5714 135.015 56.4386 134.882 56.2615 134.838C55.8409 134.716 54.9997 134.606 54.2359 133.909C53.8043 133.521 52.155 132.47 52.155 132.47H52.144C52.1108 132.47 51.9337 132.526 51.181 133.156C50.7936 133.488 50.1627 132.669 50.1627 132.669C50.1627 132.669 50.0077 132.791 49.9081 132.979C49.8306 133.134 49.7753 133.333 49.8196 133.599C49.8749 133.964 49.6867 134.628 49.5318 135.082C49.4432 135.358 49.3547 135.546 49.3547 135.546C49.3547 135.546 49.3104 135.768 50.1184 135.878H51.0592C51.3802 135.823 51.6127 135.734 51.9337 135.69C52.4207 135.624 52.6531 135.823 52.6974 135.878C52.7085 135.889 52.7085 135.889 52.7085 135.889H56.7153C56.826 135.757 56.7264 135.425 56.6378 135.181Z" fill="#466AA5"/>
<path d="M29.0991 133.909C29.4201 134.639 29.077 135.48 28.3243 135.79C27.5717 136.1 26.7083 135.768 26.3873 135.037C26.0663 134.307 26.4095 133.466 27.1621 133.156C27.9037 132.847 28.7781 133.178 29.0991 133.909Z" fill="#1C468A"/>
<path d="M39.6807 133.909C40.0016 134.639 39.6585 135.48 38.9059 135.79C38.1532 136.1 37.2898 135.768 36.9689 135.037C36.6479 134.307 36.991 133.466 37.7437 133.156C38.4853 132.847 39.3597 133.178 39.6807 133.909Z" fill="#1C468A"/>
<path d="M26.0442 133.732L28.1362 134.462C28.3465 134.539 28.5678 134.573 28.8003 134.573L40.699 134.451L41.994 132.36L26.0442 133.732Z" fill="#DD772A"/>
<path d="M32.807 110.628L36.1276 102.606V102.595C36.1497 102.528 36.6699 100.802 39.6585 100.415H39.6695L42.1378 99.9613C42.4588 99.8838 43.3775 99.74 43.7981 100.083C43.9863 100.238 44.0638 100.481 44.0306 100.813C43.9641 101.488 41.7615 106.689 40.2894 110.019L40.7653 110.219C41.1416 109.367 44.4622 101.82 44.5508 100.858C44.595 100.349 44.4622 99.9613 44.1412 99.6957C43.455 99.1314 42.171 99.4302 42.0271 99.4634L39.592 99.906C36.3711 100.326 35.707 102.219 35.6406 102.44L32.3311 110.44L32.807 110.628Z" fill="#DD772A"/>
<path d="M39.1831 108.249L45.6028 109.499C45.6028 109.499 47.4734 110.241 47.1082 113.427C46.7761 116.227 45.3483 131.961 45.3483 131.961C45.3483 131.961 45.0494 135.237 37.8438 134.285L39.1831 108.249Z" fill="#DD772A"/>
<path d="M42.7469 112.575L41.0202 130.202C40.9538 130.91 40.6882 131.574 40.2897 132.116C39.5481 133.134 38.3305 133.798 36.9691 133.798L31.0142 133.831H30.8703L27.1402 133.853C26.7639 133.853 26.3986 133.809 26.0555 133.721C25.978 133.699 25.9005 133.676 25.823 133.654C24.528 133.234 23.5429 132.216 23.1666 130.965C23.0116 130.434 22.9673 129.859 23.0559 129.261L25.7566 112.398C26.0444 110.606 27.5497 109.223 29.4203 109.046L30.4718 108.946L30.7264 108.924L30.9367 108.902L34.4565 108.57L34.8882 108.526L38.2863 108.216C38.8176 108.172 39.3378 108.216 39.8137 108.349C39.8469 108.36 39.8801 108.371 39.9133 108.382L40.1126 108.448C41.7618 109.068 42.924 110.717 42.7469 112.575Z" fill="#F99746"/>
<path d="M40.29 132.116C39.5484 133.134 38.3308 133.798 36.9694 133.798L31.0145 133.831H30.8706L27.1405 133.853C26.7641 133.853 26.3989 133.809 26.0557 133.721C25.9783 133.698 25.9008 133.676 25.8233 133.654C24.5283 133.234 23.0451 131.718 23.0229 130.113C23.0229 130.113 35.619 129.959 38.2533 130.346C39.6037 130.556 40.0022 131.474 40.29 132.116Z" fill="#EF8A3F"/>
<path d="M30.9256 108.924C30.9035 108.935 28.1363 110.573 27.7711 112.011C27.3947 113.483 24.9043 130.689 24.8822 130.866C24.8822 130.877 24.8157 132.548 26.2325 133.776L26.0444 133.732C25.9669 133.709 25.8894 133.687 25.8119 133.665C24.4837 132.382 24.6608 130.899 24.6719 130.833C24.7715 130.124 27.1955 113.438 27.5718 111.956C27.9039 110.65 29.852 109.355 30.4829 108.968L30.7375 108.946L30.9256 108.924Z" fill="#DD772A"/>
<path d="M34.8772 108.548C34.4787 108.813 32.9623 109.931 32.6413 112C32.265 114.423 30.7818 132.039 30.7596 132.216V132.227V132.238C30.7596 132.249 30.5493 133.201 31.1581 133.842H31.0032H30.8593C30.2726 133.145 30.5051 132.304 30.5383 132.183C30.5825 131.64 32.0436 114.379 32.4199 111.967C32.6966 110.185 33.8256 109.079 34.4455 108.592L34.8772 108.548Z" fill="#DD772A"/>
<path d="M40.0904 108.47C40.0794 108.481 39.5038 108.791 39.0057 109.333C38.5076 109.876 37.9763 110.716 37.7881 111.9C37.4118 114.324 36.2275 131.873 36.2164 132.05V132.061V132.072C36.2164 132.083 36.1611 133.156 36.7698 133.798H36.3935C35.9286 133.212 35.9508 132.138 35.995 132.017C36.0282 131.452 37.1904 114.268 37.5668 111.856C37.921 109.599 39.4706 108.559 39.7916 108.36C39.8248 108.371 39.858 108.382 39.8912 108.393L40.0904 108.47Z" fill="#DD772A"/>
<path d="M62.9249 96.6307C62.1944 97.4938 55.7746 97.3278 54.3357 97.0069C53.3506 96.7856 52.5758 95.7455 52.0335 93.8755C51.8564 95.1812 51.4468 96.6971 50.5392 96.7967C49.0449 96.9516 48.4362 96.6971 48.248 96.1328C48.2148 96.0443 48.5247 92.1051 48.7793 88.1549C48.9564 85.4329 49.1224 82.6888 49.1445 81.195C49.1445 81.0069 49.1445 80.841 49.1445 80.6971C46.7869 80.5643 45.8572 80.675 45.8572 80.675C45.8572 80.675 46.9751 77.0346 49.5652 74.0802C51.956 71.3472 57.6452 72.166 59.9586 72.841C61.4085 73.2725 62.781 74.8327 62.0727 78.1411C61.6521 80.0885 62.2498 83.2089 62.4933 87.8119C62.7146 92.2158 63.0799 96.4426 62.9249 96.6307Z" fill="#739AF0"/>
<path d="M61.1542 73.4827C61.1542 73.4827 62.9362 74.9322 63.9656 81.5048C63.9656 81.5048 63.3901 82.3015 61.6855 82.0802C59.9699 81.87 61.1542 73.4827 61.1542 73.4827Z" fill="#739AF0"/>
<path d="M59.1727 62.0526C59.1727 62.0526 55.033 57.361 53.0074 60.4924C53.0074 60.4924 51.4468 61.1895 50.9487 63.9005C50.4395 66.6557 52.3212 68.6916 53.251 68.1494C53.8487 67.8064 54.3357 68.8465 54.3357 68.8465L59.1727 62.0526Z" fill="#233862"/>
<path d="M53.4283 59.9945C53.4283 59.9945 52.8306 57.8589 49.6871 58.6224C49.6871 58.6224 51.1924 58.3901 51.6241 58.9654C51.6241 58.9654 50.4065 58.4454 49.676 58.9322C48.9344 59.408 48.8569 60.9571 48.9787 61.4329C49.1004 61.8977 49.9749 63.2808 50.5172 63.2586C51.0707 63.2476 51.7016 62.7386 51.7016 62.7386L53.4283 59.9945Z" fill="#233862"/>
<path d="M54.0369 72.1107C53.9484 71.646 54.4132 70.8272 54.3358 68.2269L54.535 68.2601L57.9441 68.8354C57.9441 68.8354 58.0216 71.6017 58.0548 72.6086C58.0659 73.4385 53.9705 72.8521 54.0369 72.1107Z" fill="#FFB27D"/>
<path d="M57.9328 68.8354C57.9328 68.8354 57.966 69.8424 57.9882 70.8382C56.0954 70.8382 54.9664 69.2006 54.5237 68.2601L57.9328 68.8354Z" fill="#E8945B"/>
<path d="M54.1694 67.8949C54.1694 67.8949 53.129 66.3568 52.8523 65.018C52.653 64.0664 53.0405 60.5035 56.6267 60.9129C56.6267 60.9129 57.6671 60.9903 58.6522 61.621C59.4381 62.1189 60.5892 63.2144 59.427 66.3458L59.1282 67.3969L54.1694 67.8949Z" fill="#233862"/>
<path d="M58.5969 69.7649C58.5969 69.7649 54.1141 69.9641 54.0366 67.1757C53.9592 64.3873 53.3283 62.5284 56.184 62.2849C59.0397 62.0415 59.6263 63.0927 59.8809 64.0111C60.1355 64.9405 59.7591 69.6432 58.5969 69.7649Z" fill="#FFB27D"/>
<path d="M58.221 62.1632C58.221 62.1632 57.0809 65.4717 55.2103 66.0028C53.3397 66.5339 52.5095 66.0581 52.5095 66.0581C52.5095 66.0581 53.9263 64.8742 54.1698 62.8603C54.1698 62.8603 57.2469 60.6252 58.221 62.1632Z" fill="#233862"/>
<path d="M57.9219 62.4288C57.9219 62.4288 58.8627 63.137 59.1062 63.8341C59.3497 64.5422 59.4936 66.0028 59.9142 65.9364C59.9142 65.9364 60.7776 63.6902 59.7039 62.4509C58.5639 61.1563 57.9219 62.4288 57.9219 62.4288Z" fill="#233862"/>
<path d="M58.0991 62.5394C58.0991 62.5394 57.3243 65.9917 54.9778 67.1535C54.9778 67.1535 57.2911 64.9848 57.435 62.7165C57.5678 60.4481 58.0991 62.5394 58.0991 62.5394Z" fill="#233862"/>
<path d="M43.5107 96.4316C43.5107 96.4316 42.3927 97.7373 42.271 98.4122C42.1492 99.0872 42.2156 100.902 42.5588 100.968C42.924 101.035 43.1454 99.7843 43.2672 99.5298C43.6656 98.6999 44.4515 99.0872 44.5622 98.7884C44.6618 98.4897 44.7725 97.0512 44.7725 97.0512L43.5107 96.4316Z" fill="#FFB27D"/>
<path d="M47.3072 78.5284C47.3072 78.5284 44.2855 84.426 44.1084 86.8935C43.9423 89.361 43.5217 96.4205 43.5217 96.4205L44.7725 97.0512C44.7725 97.0512 47.3625 87.7455 47.5286 86.3403C47.7057 84.769 52.8415 79.5574 52.8415 79.5574L47.3072 78.5284Z" fill="#FFB27D"/>
<path d="M52.6865 76.2601H48.1705L45.8572 80.6529C45.8572 80.6529 49.543 83.6957 53.2067 82.4675C56.8704 81.2282 52.6865 76.2601 52.6865 76.2601Z" fill="#739AF0"/>
<path d="M278.928 125.123H283.123C283.123 125.123 284.042 125.278 284.419 128.066C284.795 130.855 285.902 135.823 285.902 135.823H280.345L278.928 125.123Z" fill="#163560"/>
<path d="M281.762 135.812C281.275 135.757 259.182 135.812 259.182 135.812C259.182 135.812 258.286 135.69 259.083 131.895C259.127 131.707 259.149 131.497 259.16 131.286C259.227 130.257 259.05 129.018 259.116 128.033C259.116 128.033 258.828 124.858 263.067 125.123C267.307 125.389 275.022 125.411 277.933 125.112C280.844 124.813 281.508 127.071 281.375 128.498C281.353 128.73 281.364 129.073 281.386 129.494C281.53 131.674 282.172 135.867 281.762 135.812Z" fill="#1C468A"/>
<path d="M275.21 126.429C275.199 126.407 273.749 124.072 271.347 123.917C268.923 123.773 266.499 126.152 266.466 126.174L265.945 125.654C266.056 125.544 268.624 123.01 271.391 123.176C274.18 123.342 275.774 125.931 275.841 126.042L275.21 126.429Z" fill="#1C468A"/>
<path d="M256.028 120.553C256.006 119.757 256.404 119.026 257.068 118.595C258.142 117.898 259.979 117.068 262.503 117.223C266.764 117.488 267.705 119.856 267.849 121.682C267.982 123.508 269.399 126.141 269.742 128.166C270.085 130.191 270.649 135.347 267.628 135.757C264.606 136.166 254.5 135.757 254.5 135.757C254.5 135.757 252.143 133.001 254.5 127.69C255.895 124.548 256.072 121.925 256.028 120.553Z" fill="#5D8FE8"/>
<path d="M253.98 120.553C253.958 119.757 254.356 119.026 255.021 118.595C256.094 117.898 257.932 117.068 260.455 117.223C264.717 117.488 265.657 119.856 265.801 121.682C265.934 123.508 267.351 126.141 267.694 128.166C268.037 130.191 268.602 135.347 265.58 135.757C262.558 136.166 252.453 135.757 252.453 135.757C252.453 135.757 250.095 133.001 252.453 127.69C253.836 124.548 254.013 121.925 253.98 120.553Z" fill="#739AF0"/>
<path d="M266.144 128.907H260.112C260.112 128.907 259.702 133.322 262.591 133.455C265.469 133.599 266.244 131.751 266.144 128.907Z" fill="#5D8FE8"/>
<path d="M266.145 128.907C266.145 128.907 265.104 130.49 263.211 130.434C261.319 130.39 260.101 128.907 260.101 128.907H266.145Z" fill="#739AF0"/>
<path d="M258.883 128.907H252.84C252.84 128.907 252.431 133.322 255.319 133.455C258.208 133.599 258.972 131.751 258.883 128.907Z" fill="#5D8FE8"/>
<path d="M258.883 128.907C258.883 128.907 257.843 130.49 255.95 130.434C254.057 130.39 252.84 128.907 252.84 128.907H258.883Z" fill="#739AF0"/>
<path d="M257.976 125.499H261.186C262.669 125.499 263.887 124.282 263.887 122.799C263.887 121.317 262.669 120.1 261.186 120.1H257.976C256.493 120.1 255.275 121.317 255.275 122.799C255.275 124.282 256.493 125.499 257.976 125.499Z" fill="#5D8FE8"/>
<path d="M263.643 119.867C263.643 119.867 262.204 122.058 259.581 121.992C256.958 121.925 255.275 119.867 255.275 119.867H263.643Z" fill="#739AF0"/>
<path d="M257.345 117.82L258.153 117.743C258.153 117.743 258.12 117.311 258.407 116.979C258.629 116.725 258.994 116.592 259.492 116.57C259.968 116.548 260.344 116.647 260.577 116.88C260.92 117.201 260.931 117.687 260.931 117.699H261.739C261.739 117.665 261.739 116.869 261.141 116.293C260.732 115.895 260.167 115.729 259.448 115.751C258.717 115.784 258.153 116.028 257.788 116.459C257.267 117.046 257.334 117.787 257.345 117.82Z" fill="#739AF0"/>
<path d="M242.048 132.614C242.048 132.614 242.247 135.768 242.856 135.812C242.934 135.823 245.944 135.823 245.944 135.823L249.785 135.801C249.785 135.801 249.763 134.871 248.634 134.683C247.505 134.484 245.634 133.699 244.948 132.216C244.24 130.645 242.048 132.614 242.048 132.614Z" fill="#163560"/>
<path d="M241.827 132.835C241.827 132.835 243 133.223 243.908 133.223C244.926 133.223 245.856 132.946 245.856 132.946C245.856 132.946 246.077 130.822 247.284 126.13C247.914 123.674 248.822 120.52 250.117 116.592C253.681 105.748 254.766 99.397 254.866 98.7995C254.866 98.7663 254.877 98.7552 254.877 98.7552H254.866L243.908 93.942C243.908 93.942 245.258 108.891 243.531 114.622C243.288 115.419 243.077 116.36 242.9 117.367C241.805 123.607 241.827 132.835 241.827 132.835Z" fill="#01BA57"/>
<path d="M242.9 117.378L247.283 126.141C247.914 123.685 248.822 120.531 250.117 116.603C253.681 105.759 254.766 99.4081 254.865 98.8106C254.865 98.7884 254.865 98.7774 254.865 98.7552L243.907 93.942C243.907 93.942 245.258 108.891 243.531 114.622C243.288 115.43 243.077 116.36 242.9 117.378Z" fill="#0B924A"/>
<path d="M250.615 132.614C250.615 132.614 250.814 135.768 251.423 135.812C251.501 135.823 254.511 135.823 254.511 135.823L258.352 135.801C258.352 135.801 258.33 134.871 257.201 134.683C256.072 134.484 254.201 133.699 253.515 132.216C252.807 130.645 250.615 132.614 250.615 132.614Z" fill="#163560"/>
<path d="M256.824 94.296C256.824 94.296 256.968 103.978 255.286 115.873C253.614 127.768 254.179 132.813 254.179 132.813C254.179 132.813 253.028 133.189 252.563 133.223C251.379 133.322 250.161 132.946 250.161 132.946C250.161 132.946 247.759 121.051 248.445 115.098C249.132 109.145 245.158 94.6722 245.158 94.6722L256.824 94.296Z" fill="#01BA57"/>
<path d="M247.97 71.3251C247.97 71.3251 242.413 76.9904 242.137 79.2255C241.86 81.4606 244.871 84.9572 244.871 84.9572L247.97 71.3251Z" fill="#5D8FE8"/>
<path d="M249.055 71.6238L251.191 73.029L254.279 72.4537C254.235 72.1992 254.036 71.1701 253.848 70.2296C253.837 70.1743 253.825 70.1189 253.814 70.0636C253.659 69.2669 253.516 68.5809 253.516 68.5809L250.627 67.3084L249.553 66.8326C249.553 66.8548 249.642 67.7178 249.653 67.8396C249.863 70.0968 249.055 71.6238 249.055 71.6238Z" fill="#FFB27D"/>
<path d="M253.493 70.9157C253.438 70.8936 249.995 69.6321 249.597 69.7649C249.198 69.8977 248.435 70.9599 248.435 70.9599L254.733 72.1882C254.733 72.1992 254.257 71.2366 253.493 70.9157Z" fill="#5D8FE8"/>
<path d="M243.631 95.491C244.251 98.3237 254.589 98.6556 257.246 96.0885C257.544 95.8008 257.566 94.4288 257.445 92.592C257.223 88.9959 256.504 83.5961 256.471 80.841C256.46 79.5132 256.271 78.1411 256.028 76.9129C255.508 74.2794 254.722 72.2103 254.722 72.2103C254.722 72.2103 249.675 70.5837 248.734 70.8603C244.196 72.1771 243.011 92.6584 243.631 95.491Z" fill="#739AF0"/>
<path d="M257.455 92.592C257.234 88.9959 256.515 83.5962 256.481 80.841C256.47 79.5132 256.282 78.1411 256.039 76.9129L253.006 76.3818C253.006 76.3707 250.04 88.498 257.455 92.592Z" fill="#5D8FE8"/>
<path d="M249.874 67.8839C250.504 68.9572 252.873 69.8866 253.858 70.2296C253.847 70.1743 253.836 70.119 253.825 70.0637C253.67 69.267 253.526 68.5809 253.526 68.5809L250.637 67.3085C249.995 67.3085 249.608 67.4413 249.874 67.8839Z" fill="#FCA56B"/>
<path d="M254.611 68.415C254.611 68.415 249.962 69.8645 249.099 66.9544C248.236 64.0443 247.062 62.2739 249.995 61.2227C252.929 60.1716 253.836 61.1121 254.357 62.0194C254.888 62.9157 255.807 67.9613 254.611 68.415Z" fill="#FFB27D"/>
<path d="M254.179 61.7317C254.179 61.7317 253.88 65.1176 253.183 64.9738C252.486 64.8299 251.844 64.7193 251.954 65.7372C252.054 66.7552 251.954 68.1937 249.796 68.3707C247.637 68.5477 245.612 62.7276 246.199 61.6764C247.903 58.6335 256.658 58.0249 254.179 61.7317Z" fill="#163560"/>
<path d="M256.083 87.137C256.083 87.137 256.481 88.0222 256.847 88.1992C257.311 88.4316 257.621 88.7857 257.655 88.9406C257.787 89.4496 257.732 90.4011 257.334 90.8991C257.068 91.2421 257.356 89.7262 255.917 89.3832C255.452 89.2725 254.788 88.9184 254.788 88.2767C254.777 87.5132 254.876 86.9378 254.876 86.9378L256.083 87.137Z" fill="#FFB27D"/>
<path d="M254.876 88.675C254.876 88.675 255.596 90.3126 255.784 90.2573C256.282 90.1024 255.729 89.527 255.773 89.0623C255.806 88.7524 254.876 88.675 254.876 88.675Z" fill="#FFB27D"/>
<path d="M252.419 71.4689C252.419 71.4689 255.385 72.0222 257.743 75.4966C260.101 78.971 261.65 81.5602 261.219 82.8106C260.787 84.0609 257.865 88.4095 257.19 88.4095C256.503 88.4095 254.699 87.9558 254.633 86.8382C254.633 86.8382 256.581 82.5118 256.304 81.7262C255.994 80.8853 252.917 78.9821 252.43 80.2214C251.622 82.2684 252.419 71.4689 252.419 71.4689Z" fill="#739AF0"/>
<path d="M148.352 92.6915C148.352 92.6915 148.607 92.9903 148.762 93.1673C148.905 93.3443 149.094 94.0414 148.994 94.1631C148.894 94.2848 148.286 94.4508 148.275 94.0857C148.241 93.7316 148.352 92.6915 148.352 92.6915Z" fill="#FFB27D"/>
<path d="M170.898 89.8478C170.898 89.8478 171.452 91.1092 172.514 91.3527C173.81 91.6625 174.385 93.3001 174.385 93.6653C174.385 94.0415 172.725 92.8243 172.072 92.8022C171.419 92.7801 171.064 93.112 170.622 92.2489C170.179 91.3748 169.615 90.5339 169.615 90.5339L170.898 89.8478Z" fill="#FFB27D"/>
<path d="M154.296 90.3679C154.883 90.3679 155.403 90.2462 155.857 90.0249C161.479 87.2365 156.255 68.0719 156.255 68.0719C156.255 68.0719 156.023 67.1203 154.971 66.7441C154.584 66.6113 153.709 66.6224 152.68 66.5449C149.315 66.3015 149.149 68.26 149.038 68.9571C148.905 69.6431 146.238 90.3236 154.296 90.3679Z" fill="#2B478B"/>
<path d="M155.857 90.0138C161.48 87.2254 156.255 68.0608 156.255 68.0608C156.255 68.0608 155.99 67.1978 154.971 66.733C152.802 67.3084 152.348 68.3375 152.226 68.946C152.116 69.5989 149.824 87.3471 155.857 90.0138Z" fill="#233862"/>
<path d="M159.996 132.835C159.996 132.835 159.686 135.336 160.251 135.613C160.815 135.889 167.534 135.801 167.534 135.801C167.534 135.801 167.534 134.96 166.383 134.772C165.232 134.584 163.195 133.898 162.852 132.371C162.498 130.844 159.996 132.835 159.996 132.835Z" fill="#233862"/>
<path d="M166.073 94.6942C166.073 94.6942 165.696 99.4301 165.243 105.117C164.634 112.852 163.903 122.346 163.837 124.138C163.715 127.259 163.217 132.26 163.217 132.26C163.217 132.26 162.033 133.444 159.653 132.946C159.653 132.946 157.539 125.809 156.93 118.263C156.919 118.141 156.908 118.019 156.897 117.887C156.332 110.207 155.458 94.0303 155.458 94.0303L166.073 94.6942Z" fill="#2B478B"/>
<path d="M166.073 94.6943C166.073 94.6943 165.696 99.4301 165.243 105.118L156.93 118.274C156.919 118.152 156.908 118.03 156.897 117.898C156.332 110.218 155.458 94.0414 155.458 94.0414L166.073 94.6943Z" fill="#233862"/>
<path d="M164.346 95.2586C164.346 95.2586 157.506 112.398 153.012 120.465C148.518 128.52 147.112 130.766 147.112 130.766C147.112 130.766 144.533 129.737 144.301 129.029C144.301 129.029 146.016 113.472 149.038 109.687C150.743 107.541 152.735 101.112 152.835 98.8658C152.923 96.6196 153.443 92.1714 153.443 92.1714L164.346 95.2586Z" fill="#2B478B"/>
<path d="M162.642 70.1742C159.963 71.0152 155.347 68.7358 155.347 68.7358C155.347 68.7358 157.074 67.4412 157.561 64.7634C157.65 64.2434 157.705 63.668 157.683 63.0483L160.184 65.0622L161.158 65.8478C161.158 65.8478 161.158 66.1134 161.114 66.6002C161.07 67.0871 160.992 67.8063 160.849 68.7026C161.978 69.3333 162.642 70.1742 162.642 70.1742Z" fill="#FFB27D"/>
<path d="M170.932 91.3859C171.53 90.899 171.651 90.5228 171.651 90.5228C171.651 90.5228 166.814 83.9059 166.405 83.2531C165.995 82.6113 162.952 72.2434 162.952 72.2434L155.248 70.6832C155.248 70.6832 161.679 83.9502 162.741 85.5657C164.501 88.2323 170.035 91.8838 170.035 91.8838C170.035 91.8838 170.489 91.74 170.932 91.3859Z" fill="#0B924A"/>
<path d="M152.901 92.9571C152.89 93.112 153.067 93.289 153.278 93.4329C153.444 93.5546 153.643 93.6431 153.765 93.6984C154.351 93.964 154.938 94.1964 155.502 94.4066C156.864 94.9156 158.214 95.2586 159.675 95.4025C161.236 95.5574 162.974 95.4025 164.302 95.2697C165.044 95.1812 165.663 95.1148 166.029 95.1148H166.073C166.184 95.1148 166.283 95.0705 166.361 95.0041C166.416 94.9598 166.471 92.6251 166.438 89.4827C166.438 89.0401 166.427 88.5864 166.427 88.1217C166.427 87.9778 166.427 87.8119 166.405 87.6569V87.6127C166.394 86.141 166.35 84.5809 166.272 83.0318V82.9986C166.128 79.5684 165.863 76.2711 165.398 74.4343C164.977 72.7413 163.306 70.8271 162.055 69.5878C161.491 69.0235 160.793 68.603 160.03 68.3596C158.701 67.9502 156.654 67.3969 156.233 67.7621C155.912 68.0166 155.613 68.3374 155.348 68.7247C155.325 68.7358 155.325 68.7358 155.325 68.7469C155.314 68.7469 155.314 68.7469 155.314 68.7469C155.093 69.0567 154.894 69.4108 154.706 69.8091C154.396 70.4287 154.141 71.148 153.92 71.9446C153.322 74.0913 153.023 76.8022 153.034 79.7012C153.034 80.4426 153.056 81.1839 153.101 81.9363C153.112 82.1576 153.123 82.3568 153.134 82.567C153.222 84.4481 153.211 86.1853 153.167 87.7012V87.7455C153.123 89.2835 153.034 90.6002 152.957 91.5629C152.946 92.1604 152.912 92.6362 152.901 92.9571Z" fill="#01BA57"/>
<path d="M152.979 91.5739C153.123 89.5269 153.366 86.0082 153.123 81.9363C153.079 81.1839 153.056 80.4315 153.056 79.6901C153.975 77.4771 154.717 75.8616 154.717 75.8616H157.019C157.03 75.8616 158.724 87.4024 152.979 91.5739Z" fill="#058A43"/>
<path d="M161.147 65.8478C161.147 65.8478 161.147 66.1134 161.103 66.6003C159.111 66.3679 157.605 64.8188 157.55 64.7745L160.173 65.0733L161.147 65.8478Z" fill="#E8945B"/>
<path d="M161.966 65.7814C161.966 65.7814 157.55 66.5117 157.141 63.7565C156.731 61.0013 155.879 59.242 158.679 58.6556C161.479 58.0691 162.188 59.0428 162.553 59.928C162.907 60.8132 163.107 65.5159 161.966 65.7814Z" fill="#FFB27D"/>
<path d="M157.129 63.4909C157.129 63.4909 157.583 63.4135 157.506 62.7939C157.428 62.1742 157.428 61.3554 157.937 61.5103C158.446 61.6652 158.468 62.0636 158.679 61.8312C158.889 61.5988 158.889 60.5919 160.405 60.5255C161.911 60.4591 162.531 60.9792 163.228 60.6694C163.925 60.3596 163.97 59.2973 163.97 59.2973C163.97 59.2973 163.77 59.6735 163.471 59.7952C163.471 59.7952 164.645 58.1908 163.283 57.0954C161.922 56 160.549 56.7192 159.764 56.7634C158.037 56.863 156.919 56.9737 156.354 58.1023C155.79 59.242 156.022 62.3955 157.129 63.4909Z" fill="#2B478B"/>
<path d="M133.774 133.366C134.14 134.196 133.741 135.17 132.889 135.524C132.026 135.878 131.029 135.491 130.664 134.661C130.299 133.831 130.697 132.857 131.55 132.503C132.413 132.149 133.409 132.537 133.774 133.366Z" fill="#1C468A"/>
<path d="M145.917 133.366C146.282 134.196 145.884 135.17 145.032 135.524C144.168 135.878 143.172 135.491 142.807 134.661C142.441 133.831 142.84 132.857 143.692 132.503C144.556 132.149 145.552 132.537 145.917 133.366Z" fill="#1C468A"/>
<path d="M130.277 133.167L132.679 134.008C132.922 134.097 133.177 134.13 133.442 134.13L147.101 133.997L148.595 131.596L130.277 133.167Z" fill="#DD772A"/>
<path d="M138.036 106.645L141.855 97.4384V97.4163C141.877 97.3388 142.475 95.3582 145.906 94.9156H145.917L148.74 94.3955C149.105 94.307 150.156 94.141 150.644 94.5394C150.854 94.7164 150.942 94.993 150.909 95.3803C150.843 96.1549 148.297 102.13 146.615 105.947L147.157 106.169C147.589 105.184 151.396 96.5311 151.507 95.4246C151.562 94.8381 151.396 94.3955 151.031 94.0968C150.245 93.455 148.762 93.798 148.607 93.8312L145.818 94.3402C142.121 94.816 141.357 96.9958 141.28 97.2392L137.472 106.423L138.036 106.645Z" fill="#DD772A"/>
<path d="M145.353 103.922L152.724 105.35C152.724 105.35 154.872 106.202 154.451 109.853C154.075 113.073 152.426 131.131 152.426 131.131C152.426 131.131 152.082 134.893 143.814 133.798L145.353 103.922Z" fill="#DD772A"/>
<path d="M149.437 108.891L147.456 129.118C147.378 129.936 147.079 130.689 146.614 131.319C145.762 132.492 144.367 133.245 142.796 133.256L135.955 133.3H135.789L131.506 133.322C131.074 133.322 130.665 133.267 130.266 133.167C130.177 133.145 130.078 133.112 129.989 133.09C128.506 132.614 127.366 131.441 126.945 130.003C126.768 129.394 126.713 128.73 126.824 128.044L129.923 108.692C130.255 106.633 131.982 105.04 134.129 104.841L135.335 104.73L135.623 104.708L135.867 104.686L139.907 104.31L140.405 104.266L144.301 103.9C144.91 103.845 145.507 103.9 146.05 104.055C146.083 104.066 146.127 104.077 146.161 104.088L146.382 104.166C148.319 104.863 149.647 106.744 149.437 108.891Z" fill="#F99746"/>
<path d="M146.614 131.32C145.762 132.492 144.367 133.245 142.795 133.256L135.955 133.3H135.789L131.505 133.322C131.074 133.322 130.664 133.267 130.266 133.167C130.177 133.145 130.077 133.112 129.989 133.09C128.506 132.614 126.801 130.866 126.779 129.018C126.779 129.018 141.246 128.83 144.267 129.284C145.828 129.527 146.293 130.578 146.614 131.32Z" fill="#EF8A3F"/>
<path d="M135.878 104.686C135.845 104.708 132.679 106.578 132.258 108.227C131.827 109.92 128.971 129.671 128.938 129.87C128.938 129.881 128.86 131.795 130.487 133.212L130.266 133.156C130.178 133.134 130.078 133.101 129.989 133.079C128.462 131.607 128.661 129.903 128.672 129.826C128.794 129.007 131.561 109.864 131.993 108.16C132.369 106.667 134.605 105.173 135.336 104.73L135.623 104.708L135.878 104.686Z" fill="#DD772A"/>
<path d="M140.416 104.266C139.962 104.564 138.214 105.848 137.848 108.227C137.417 111.004 135.712 131.22 135.69 131.419V131.43V131.441C135.69 131.452 135.447 132.548 136.144 133.278H135.967H135.801C135.126 132.481 135.391 131.508 135.435 131.375C135.491 130.755 137.162 110.938 137.594 108.171C137.915 106.124 139.21 104.852 139.918 104.299L140.416 104.266Z" fill="#DD772A"/>
<path d="M146.393 104.166C146.382 104.177 145.718 104.531 145.154 105.162C144.589 105.792 143.969 106.755 143.759 108.105C143.327 110.882 141.977 131.032 141.955 131.231V131.242V131.253C141.955 131.264 141.888 132.492 142.597 133.234H142.165C141.634 132.559 141.667 131.331 141.711 131.187C141.756 130.545 143.084 110.816 143.515 108.05C143.925 105.449 145.696 104.266 146.072 104.033C146.106 104.044 146.15 104.055 146.183 104.066L146.393 104.166Z" fill="#DD772A"/>
<path d="M149.404 89.8699L148.441 92.2268C148.33 92.5145 148.319 92.8243 148.408 93.1009C148.596 93.7095 148.729 94.9045 147.312 95.7565C147.312 95.7565 146.449 96.188 146.316 95.5241C146.183 94.8602 146.338 95.1037 146.117 94.1632C145.929 93.3443 146.349 92.8354 146.626 92.271C146.759 91.9944 146.803 91.7178 146.836 91.4854L147.035 90.0027L149.404 89.8699Z" fill="#FFB27D"/>
<path d="M147.334 92.4923C148.164 92.6583 149.061 92.5919 149.061 92.5919C149.061 92.5919 151.529 84.9792 151.839 84.2821C152.16 83.585 159.155 75.8616 159.155 75.8616L154.717 69.798C154.717 69.798 148.662 80.7081 147.888 82.4895C146.615 85.4217 146.172 92.0054 146.172 92.0054C146.172 92.0054 146.692 92.3706 147.334 92.4923Z" fill="#01BA57"/>
<path d="M153.189 87.7012V87.7454C154.451 87.4467 155.513 86.8713 156.443 86.1078C158.159 84.7026 159.332 82.6445 160.073 80.4979C161.214 77.1452 161.302 73.549 160.726 71.7786C160.649 71.5573 160.56 71.3471 160.461 71.1922C160.228 70.7938 159.963 70.4619 159.653 70.1853C158.69 69.2669 157.461 68.9128 156.554 68.7911C156.288 68.7468 156.056 68.7468 155.856 68.7358C155.58 68.7247 155.403 68.7358 155.358 68.7358C155.347 68.7358 155.347 68.7358 155.347 68.7358C154.772 68.9017 154.34 69.3001 154.738 69.798C154.916 69.7759 155.082 69.7759 155.236 69.7759C155.934 69.7537 156.532 69.8423 157.03 70.0193C157.893 70.2959 158.502 70.816 158.922 71.4135C160.14 73.1175 159.874 75.5739 159.874 75.5739C159.775 76.8575 159.575 78.0082 159.321 79.0262C158.745 81.3499 157.827 82.9986 156.886 84.1493C155.126 86.3291 153.211 86.8049 153.211 86.8049C153.211 86.8049 153.156 86.9709 153.145 87.2697C153.133 87.5352 153.189 87.7012 153.189 87.7012Z" fill="#233862"/>
<path d="M170.699 92.4038C170.699 92.4038 171.054 92.9571 171.441 93.1009C171.828 93.2448 172.437 93.7538 172.493 93.621C172.548 93.4882 172.459 93.2558 172.227 93.0899C171.994 92.9239 171.928 92.7247 171.983 92.603C172.05 92.4702 170.699 92.4038 170.699 92.4038Z" fill="#FFB27D"/>
<path d="M135.966 41.8368C130.233 41.8368 125.595 46.8271 125.595 52.9903C125.595 59.1535 135.966 68.9903 135.966 68.9903C135.966 68.9903 146.338 59.1425 146.338 52.9903C146.338 46.8382 141.689 41.8368 135.966 41.8368ZM135.966 58.4454C132.579 58.4454 129.856 55.7123 129.856 52.3375C129.856 48.9737 132.59 46.2296 135.966 46.2296C139.331 46.2296 142.076 48.9737 142.076 52.3375C142.076 55.7234 139.331 58.4454 135.966 58.4454Z" fill="#F78E48"/>
<path d="M139.298 40.6307C139.276 40.6307 139.265 40.6307 139.243 40.6307C139.033 40.5975 138.889 40.4094 138.911 40.1992C138.911 40.1881 138.944 39.9226 139.022 39.4357C139.055 39.2255 139.254 39.0816 139.464 39.1148C139.675 39.148 139.819 39.3472 139.785 39.5574C139.708 40.0332 139.675 40.3098 139.675 40.3098C139.653 40.4979 139.487 40.6307 139.298 40.6307Z" fill="#F99746"/>
<path d="M139.675 38.3403C139.652 38.3403 139.63 38.3403 139.608 38.3292C139.398 38.296 139.265 38.0968 139.298 37.8866C139.387 37.3776 139.486 36.8575 139.586 36.3375C139.63 36.1273 139.83 35.9945 140.04 36.0387C140.25 36.083 140.383 36.2822 140.339 36.4924C140.239 37.0125 140.14 37.5214 140.051 38.0304C140.018 38.2075 139.863 38.3403 139.675 38.3403ZM140.283 35.2642C140.261 35.2642 140.228 35.2642 140.206 35.2531C139.996 35.2089 139.863 35.0097 139.907 34.7994C140.018 34.2905 140.128 33.7704 140.239 33.2614C140.283 33.0512 140.494 32.9295 140.693 32.9737C140.903 33.018 141.025 33.2282 140.981 33.4274C140.87 33.9364 140.759 34.4454 140.649 34.9544C140.615 35.1425 140.46 35.2642 140.283 35.2642ZM140.97 32.2102C140.936 32.2102 140.914 32.2102 140.881 32.1992C140.671 32.1549 140.549 31.9447 140.593 31.7344C140.715 31.2255 140.848 30.7165 140.97 30.2075C141.025 29.9972 141.235 29.8755 141.435 29.9308C141.645 29.9862 141.767 30.1964 141.711 30.3956C141.578 30.8935 141.457 31.4025 141.335 31.9115C141.302 32.0996 141.147 32.2102 140.97 32.2102ZM141.744 29.1895C141.711 29.1895 141.678 29.1895 141.645 29.1784C141.446 29.1231 141.324 28.9129 141.379 28.7026C141.512 28.1936 141.656 27.6847 141.8 27.1978C141.855 26.9986 142.077 26.8769 142.276 26.9322C142.475 26.9876 142.597 27.2089 142.541 27.408C142.397 27.8949 142.254 28.4039 142.121 28.9018C142.065 29.0788 141.91 29.1895 141.744 29.1895ZM142.619 26.1798C142.586 26.1798 142.541 26.1798 142.508 26.1577C142.309 26.0913 142.187 25.8811 142.254 25.6819C142.409 25.184 142.564 24.675 142.73 24.1881C142.796 23.9889 143.017 23.8783 143.217 23.9447C143.416 24.0111 143.526 24.2324 143.46 24.4315C143.305 24.9184 143.139 25.4163 142.995 25.9142C142.929 26.0802 142.785 26.1798 142.619 26.1798ZM143.582 23.2144C143.538 23.2144 143.493 23.2033 143.46 23.1923C143.261 23.1259 143.15 22.9046 143.228 22.7054C143.405 22.2075 143.582 21.7095 143.759 21.2227C143.836 21.0235 144.058 20.9239 144.257 20.9903C144.456 21.0678 144.556 21.2891 144.489 21.4882C144.312 21.964 144.135 22.462 143.969 22.9488C143.892 23.1148 143.748 23.2144 143.582 23.2144ZM189.041 22.3071C188.897 22.3071 188.753 22.2185 188.686 22.0858C188.476 21.621 188.255 21.1563 188.022 20.6805C187.934 20.4924 188.011 20.26 188.199 20.1715C188.388 20.083 188.62 20.1604 188.709 20.3485C188.941 20.8243 189.173 21.3001 189.384 21.7649C189.472 21.953 189.384 22.1853 189.196 22.2739C189.151 22.296 189.096 22.3071 189.041 22.3071ZM144.667 20.2822C144.622 20.2822 144.578 20.2711 144.523 20.26C144.323 20.1826 144.224 19.9613 144.301 19.7621C144.489 19.2752 144.689 18.7884 144.888 18.3126C144.965 18.1134 145.198 18.0249 145.386 18.1024C145.585 18.1798 145.674 18.4122 145.596 18.6003C145.397 19.065 145.209 19.5519 145.01 20.0387C144.965 20.1936 144.822 20.2822 144.667 20.2822ZM187.657 19.4965C187.524 19.4965 187.38 19.4191 187.314 19.2863C187.07 18.8216 186.827 18.3679 186.572 17.9142C186.473 17.7261 186.539 17.4938 186.716 17.3942C186.904 17.2946 187.137 17.361 187.236 17.538C187.491 17.9917 187.746 18.4564 187.989 18.9212C188.089 19.1093 188.011 19.3416 187.823 19.4412C187.779 19.4855 187.723 19.4965 187.657 19.4965ZM145.873 17.4053C145.818 17.4053 145.762 17.3942 145.718 17.3721C145.53 17.2835 145.441 17.0622 145.519 16.8631C145.74 16.3762 145.962 15.9004 146.183 15.4357C146.271 15.2476 146.504 15.1591 146.692 15.2586C146.88 15.3472 146.969 15.5795 146.869 15.7676C146.648 16.2213 146.426 16.6971 146.216 17.184C146.161 17.3167 146.017 17.4053 145.873 17.4053ZM186.141 16.7635C186.008 16.7635 185.886 16.6971 185.809 16.5754C185.543 16.1328 185.277 15.6791 185.001 15.2476C184.89 15.0705 184.945 14.8271 185.122 14.7165C185.299 14.6058 185.543 14.6611 185.654 14.8382C185.93 15.2808 186.207 15.7344 186.473 16.177C186.583 16.3541 186.517 16.5975 186.34 16.6971C186.273 16.7524 186.207 16.7635 186.141 16.7635ZM147.223 14.5837C147.168 14.5837 147.102 14.5726 147.046 14.5394C146.858 14.4398 146.781 14.2075 146.88 14.0194C147.124 13.5436 147.378 13.0788 147.622 12.6362C147.721 12.4481 147.954 12.3817 148.142 12.4924C148.33 12.592 148.397 12.8243 148.286 13.0124C148.042 13.455 147.799 13.9087 147.555 14.3734C147.5 14.5062 147.367 14.5837 147.223 14.5837ZM184.48 14.1189C184.359 14.1189 184.237 14.0636 184.159 13.953C183.872 13.5214 183.573 13.0899 183.274 12.6805C183.152 12.5035 183.185 12.2711 183.362 12.1494C183.539 12.0277 183.772 12.0609 183.894 12.2379C184.193 12.6584 184.491 13.0899 184.79 13.5325C184.912 13.7095 184.857 13.9419 184.68 14.0636C184.624 14.0968 184.547 14.1189 184.48 14.1189ZM148.74 11.8506C148.673 11.8506 148.607 11.8285 148.541 11.7953C148.363 11.6846 148.297 11.4523 148.408 11.2642C148.684 10.8105 148.961 10.3568 149.249 9.92531C149.371 9.74827 149.603 9.70401 149.78 9.81466C149.957 9.93638 150.002 10.1687 149.891 10.3458C149.614 10.7663 149.338 11.2089 149.072 11.6515C148.994 11.7842 148.873 11.8506 148.74 11.8506ZM182.654 11.574C182.543 11.574 182.422 11.5187 182.344 11.4191C182.023 11.0097 181.702 10.6003 181.381 10.2019C181.248 10.036 181.27 9.79253 181.436 9.65975C181.602 9.52697 181.846 9.5491 181.979 9.71508C182.311 10.1134 182.632 10.5339 182.964 10.9544C183.097 11.1203 183.064 11.3638 182.898 11.4965C182.82 11.5519 182.743 11.574 182.654 11.574ZM150.455 9.25035C150.378 9.25035 150.3 9.22822 150.234 9.17289C150.057 9.05118 150.024 8.80775 150.146 8.64177C150.455 8.21024 150.776 7.78977 151.097 7.38036C151.23 7.21438 151.474 7.19225 151.64 7.32503C151.806 7.45781 151.828 7.70125 151.695 7.86722C151.385 8.2545 151.064 8.67497 150.765 9.09544C150.699 9.19502 150.577 9.25035 150.455 9.25035ZM180.673 9.17289C180.562 9.17289 180.462 9.12863 180.385 9.04011C180.042 8.65284 179.688 8.26556 179.333 7.91148C179.19 7.75657 179.19 7.51314 179.344 7.3693C179.499 7.22545 179.743 7.22545 179.887 7.38036C180.241 7.7455 180.606 8.14385 180.96 8.53112C181.104 8.68603 181.082 8.92946 180.927 9.07331C180.85 9.1397 180.761 9.17289 180.673 9.17289ZM178.492 6.92669C178.393 6.92669 178.304 6.8935 178.227 6.82711C177.85 6.47303 177.463 6.13001 177.075 5.79806C176.909 5.66528 176.898 5.42185 177.031 5.25588C177.164 5.0899 177.407 5.07884 177.574 5.21162C177.972 5.54357 178.359 5.89765 178.758 6.26279C178.913 6.40664 178.924 6.65007 178.78 6.80498C178.691 6.8935 178.592 6.92669 178.492 6.92669ZM152.415 6.81604C152.326 6.81604 152.226 6.78285 152.16 6.71646C152.005 6.57261 151.994 6.32918 152.127 6.17427C152.481 5.77593 152.857 5.38866 153.223 5.02351C153.378 4.87967 153.621 4.87967 153.765 5.02351C153.909 5.17842 153.909 5.42185 153.765 5.5657C153.411 5.91978 153.057 6.28492 152.702 6.6722C152.625 6.77178 152.514 6.81604 152.415 6.81604ZM176.112 4.91286C176.035 4.91286 175.946 4.89073 175.88 4.83541C175.47 4.52559 175.05 4.22683 174.629 3.95021C174.452 3.82849 174.408 3.59613 174.519 3.41909C174.64 3.24205 174.873 3.19779 175.05 3.30844C175.482 3.59613 175.913 3.90595 176.345 4.22683C176.511 4.35961 176.544 4.59198 176.422 4.76902C176.345 4.85754 176.223 4.91286 176.112 4.91286ZM154.639 4.63624C154.529 4.63624 154.418 4.59198 154.352 4.50346C154.219 4.33748 154.23 4.10512 154.396 3.96127C154.805 3.61826 155.226 3.28631 155.647 2.97649C155.824 2.85477 156.056 2.88797 156.178 3.06501C156.3 3.24205 156.266 3.47441 156.089 3.59613C155.691 3.88382 155.281 4.2047 154.883 4.53665C154.816 4.60304 154.728 4.63624 154.639 4.63624ZM173.511 3.19779C173.445 3.19779 173.379 3.18672 173.323 3.14246C172.869 2.88797 172.416 2.6556 171.962 2.4343C171.774 2.34578 171.685 2.11342 171.774 1.92531C171.862 1.73721 172.095 1.64869 172.283 1.73721C172.748 1.95851 173.224 2.20194 173.688 2.4675C173.877 2.56708 173.943 2.81051 173.832 2.98755C173.766 3.1314 173.644 3.19779 173.511 3.19779ZM157.174 2.82158C157.041 2.82158 156.919 2.75519 156.842 2.63347C156.731 2.45643 156.798 2.213 156.975 2.11342C157.44 1.83679 157.916 1.59336 158.392 1.37206C158.58 1.28354 158.812 1.37206 158.901 1.56017C158.989 1.74827 158.901 1.98064 158.713 2.06916C158.259 2.27939 157.805 2.51176 157.362 2.77732C157.307 2.79945 157.24 2.82158 157.174 2.82158ZM170.689 1.86999C170.645 1.86999 170.6 1.85892 170.556 1.84786C170.08 1.67082 169.593 1.50484 169.106 1.37206C168.907 1.31674 168.785 1.1065 168.84 0.896266C168.896 0.697096 169.106 0.57538 169.316 0.630705C169.825 0.77455 170.335 0.940526 170.833 1.12863C171.032 1.20609 171.132 1.42739 171.054 1.62656C170.988 1.78147 170.844 1.86999 170.689 1.86999ZM159.997 1.51591C159.842 1.51591 159.687 1.41632 159.631 1.25035C159.565 1.05118 159.676 0.829876 159.875 0.763486C160.384 0.59751 160.893 0.4426 161.413 0.33195C161.624 0.28769 161.823 0.42047 161.867 0.61964C161.911 0.829876 161.779 1.02905 161.579 1.07331C161.092 1.18396 160.605 1.31674 160.118 1.48271C160.074 1.51591 160.03 1.51591 159.997 1.51591ZM167.689 1.04011C167.667 1.04011 167.645 1.04011 167.623 1.02905C167.125 0.940526 166.616 0.874136 166.118 0.829876C165.907 0.807746 165.752 0.630705 165.763 0.409405C165.785 0.19917 165.963 0.04426 166.184 0.055325C166.715 0.0995851 167.246 0.17704 167.767 0.26556C167.977 0.298755 168.11 0.50899 168.077 0.708161C168.032 0.907331 167.866 1.04011 167.689 1.04011ZM163.029 0.852006C162.83 0.852006 162.664 0.70816 162.653 0.50899C162.631 0.298755 162.786 0.11065 162.996 0.0885201C163.162 0.06639 163.317 0.055325 163.483 0.04426C163.848 0.02213 164.225 0 164.59 0C164.8 0 164.977 0.165975 164.977 0.37621C164.977 0.586445 164.811 0.763486 164.601 0.763486C164.247 0.763486 163.893 0.774551 163.539 0.807746C163.384 0.818811 163.229 0.829876 163.074 0.852006C163.052 0.852006 163.04 0.852006 163.029 0.852006Z" fill="#F99746"/>
<path d="M189.937 24.4094C189.782 24.4094 189.638 24.3098 189.583 24.166C189.583 24.166 189.483 23.9115 189.295 23.4689C189.217 23.2697 189.306 23.0484 189.505 22.971C189.705 22.8935 189.926 22.982 190.003 23.1812C190.192 23.6349 190.291 23.8894 190.302 23.9004C190.38 24.0996 190.28 24.3209 190.081 24.3984C190.037 24.3984 189.981 24.4094 189.937 24.4094Z" fill="#F99746"/>
</g>
<defs>
<clipPath id="clip0">
<rect width="324" height="136" fill="white"/>
</clipPath>
</defs>
</svg>
