<svg width="76" height="76" viewBox="0 0 76 76" fill="none" xmlns="http://www.w3.org/2000/svg">
<path d="M40.3454 26.2079C39.5864 26.0572 38.8025 25.9766 38 25.9766C31.3702 25.9766 25.9766 31.3702 25.9766 38C25.9766 44.6298 31.3702 50.0234 38 50.0234C44.6298 50.0234 50.0234 44.6298 50.0234 38C50.0234 37.1975 49.9428 36.4136 49.7921 35.6546L42.7233 42.7233C41.4616 43.985 39.7841 44.6797 38 44.6797C36.2159 44.6797 34.5384 43.985 33.2767 42.7233C32.015 41.4616 31.3203 39.7841 31.3203 38C31.3203 36.2159 32.015 34.5384 33.2767 33.2767L40.3454 26.2079Z" fill="#01BA57"/>
<path d="M72.5993 22.2935L67.8087 27.084C67.3292 27.5636 66.7888 27.9613 66.2054 28.2698C67.2607 31.3215 67.8359 34.5946 67.8359 38C67.8359 54.4516 54.4516 67.8359 38 67.8359C21.5484 67.8359 8.16406 54.4516 8.16406 38C8.16406 21.5484 21.5484 8.16406 38 8.16406C41.4065 8.16406 44.6814 8.73984 47.7337 9.79572C48.0427 9.21182 48.4376 8.6691 48.9165 8.19073L53.7065 3.40073C48.9165 1.21765 43.5983 0 38 0C17.0465 0 0 17.0465 0 38C0 58.9535 17.0465 76 38 76C58.9535 76 76 58.9535 76 38C76 32.4017 74.7823 27.0835 72.5993 22.2935Z" fill="#01BA57"/>
<path d="M47.4571 19.0963L47.0512 14.2859C44.2384 13.208 41.1873 12.6172 38 12.6172C24.004 12.6172 12.6172 24.004 12.6172 38C12.6172 51.996 24.004 63.3828 38 63.3828C51.996 63.3828 63.3828 51.996 63.3828 38C63.3828 34.8127 62.792 31.7616 61.7141 28.9488L56.9037 28.5429L53.3731 32.0729C54.0852 33.9133 54.4766 35.9114 54.4766 38C54.4766 47.0854 47.0854 54.4766 38 54.4766C28.9146 54.4766 21.5234 47.0854 21.5234 38C21.5234 28.9146 28.9146 21.5234 38 21.5234C40.0886 21.5234 42.0867 21.9148 43.9271 22.6269L47.4571 19.0963Z" fill="#01BA57"/>
<path d="M51.4203 13.1013L52.0685 20.783L36.4258 36.4258C35.556 37.2949 35.556 38.7051 36.4258 39.5742C36.86 40.0091 37.43 40.2266 38 40.2266C38.57 40.2266 39.14 40.0091 39.5742 39.5742L55.217 23.9315L62.8987 24.5792C62.9613 24.5844 63.0233 24.5873 63.0859 24.5873C63.6739 24.5873 64.241 24.3542 64.6602 23.935L74.1063 14.4883C74.7192 13.876 74.9209 12.9633 74.6235 12.1493C74.3254 11.3352 73.5827 10.7681 72.7193 10.6956L65.8807 10.1187L65.3044 3.2807C65.2313 2.41675 64.6642 1.67398 63.8507 1.37653C63.0367 1.07849 62.124 1.28086 61.5111 1.89316L52.065 11.3398C51.6012 11.8037 51.3652 12.4479 51.4203 13.1013Z" fill="#01BA57"/>
</svg>
