<svg width="84" height="84" viewBox="0 0 84 84" fill="none" xmlns="http://www.w3.org/2000/svg">
<g clip-path="url(#clip0)">
<path d="M83.4561 23.5264C82.9828 23.1721 82.3407 23.1669 81.8592 23.5077L60.0717 39.0304C59.5641 39.3917 59.3709 40.0455 59.5954 40.6221C59.8042 41.1588 59.9076 41.6985 59.9076 42.2295C59.9076 44.6565 57.9355 46.629 55.5085 46.629C53.084 46.629 51.1089 44.6565 51.1089 42.2295C51.1089 39.9083 52.9386 37.9888 55.2705 37.8621C55.7199 37.8369 56.1272 37.5911 56.3569 37.2064C56.587 36.8166 56.6135 36.3433 56.4181 35.9308L43.2191 8.1035C42.7697 7.15308 41.2201 7.15308 40.7707 8.1035L27.5626 35.9534C27.3763 36.3511 27.3946 36.8192 27.6143 37.2064C27.8335 37.5942 28.2291 37.8395 28.6706 37.8833C30.9548 38.0826 32.6746 39.9561 32.6746 42.2295C32.6746 44.6565 30.7013 46.629 28.2755 46.629C25.8498 46.629 23.8764 44.6565 23.8764 42.2295C23.8764 41.7988 23.9598 41.3359 24.1326 40.8205C24.3193 40.26 24.1274 39.6426 23.6515 39.2992L2.1545 23.5181C1.67604 23.169 1.02303 23.1664 0.549778 23.5207C0.0739183 23.8763 -0.119291 24.4937 0.0739183 25.0542L13.4423 63.5385C18.2577 59.5649 33.3259 58.4121 42.0003 58.4121C50.673 58.4121 65.7373 59.5644 70.5566 63.5385L83.9237 25.0542C84.1199 24.4963 83.9293 23.8815 83.4561 23.5264ZM43.2299 21.8921L37.5708 33.8142C39.6605 36.1106 40.8042 39.0608 40.8042 42.2242C40.8042 42.9697 40.1976 43.5776 39.4504 43.5776C38.7023 43.5776 38.0966 42.9697 38.0966 42.2242C38.0966 39.4694 37.0021 36.9351 35.0153 35.0755C34.5885 34.6774 34.4652 34.0391 34.7179 33.5116L40.7785 20.7251C41.1011 20.0482 41.9191 19.7664 42.5813 20.0825C43.2616 20.4103 43.5482 21.2178 43.2299 21.8921ZM69.4178 66.2877C69.4178 64.7438 60.093 61.127 42.0081 61.127C23.9207 61.127 14.595 64.7438 14.595 66.2877C14.595 66.4149 14.5542 66.5261 14.5247 66.6372L15.6045 69.7459C15.6149 69.775 15.6457 69.7885 15.6561 69.8119C16.132 75.1684 33.0059 76.609 42.0077 76.609C51.0082 76.609 67.8786 75.1731 68.3545 69.8119C68.3649 69.7854 68.397 69.7668 68.4075 69.7459L69.486 66.6372C69.4547 66.5261 69.4178 66.4149 69.4178 66.2877ZM42.0081 73.9019C27.1623 73.9019 18.5699 71.0493 18.3172 69.5896C18.5525 68.1251 27.1315 65.2617 42.0081 65.2617C56.8861 65.2617 65.4598 68.1251 65.6952 69.5792C65.4442 71.0493 56.8518 73.9019 42.0081 73.9019Z" fill="#01BA57"/>
</g>
<defs>
<clipPath id="clip0">
<rect width="84" height="84" fill="white"/>
</clipPath>
</defs>
</svg>
