<svg width="80" height="80" viewBox="0 0 80 80" fill="none" xmlns="http://www.w3.org/2000/svg">
<g clip-path="url(#clip0)">
<path d="M40 11.5233C38.62 11.5233 37.5 10.4033 37.5 9.02333V2.5C37.5 1.12 38.62 0 40 0C41.38 0 42.5 1.12 42.5 2.5V9.02333C42.5 10.4033 41.38 11.5233 40 11.5233Z" fill="#01BA57"/>
<path d="M61.9035 20.5967C61.2635 20.5967 60.6235 20.3533 60.1368 19.8633C59.1601 18.8867 59.1601 17.3033 60.1368 16.3267L64.7501 11.7133C65.7268 10.7367 67.3101 10.7367 68.2868 11.7133C69.2634 12.69 69.2634 14.2733 68.2868 15.25L63.6735 19.8633C63.1835 20.35 62.5435 20.5967 61.9035 20.5967Z" fill="#01BA57"/>
<path d="M77.4997 42.5H70.9763C69.5963 42.5 68.4763 41.38 68.4763 40C68.4763 38.62 69.5963 37.5 70.9763 37.5H77.4997C78.8797 37.5 79.9997 38.62 79.9997 40C79.9997 41.38 78.8797 42.5 77.4997 42.5Z" fill="#01BA57"/>
<path d="M66.5168 69.0166C65.8768 69.0166 65.2368 68.7733 64.7501 68.2833L60.1368 63.67C59.1601 62.6933 59.1601 61.11 60.1368 60.1333C61.1135 59.1567 62.6968 59.1567 63.6735 60.1333L68.2868 64.7466C69.2634 65.7233 69.2634 67.3066 68.2868 68.2833C67.7968 68.7733 67.1568 69.0166 66.5168 69.0166Z" fill="#01BA57"/>
<path d="M13.4833 69.0166C12.8433 69.0166 12.2033 68.7733 11.7166 68.2833C10.74 67.3066 10.74 65.7233 11.7166 64.7466L16.33 60.1333C17.3066 59.1567 18.89 59.1567 19.8666 60.1333C20.8433 61.11 20.8433 62.6933 19.8666 63.67L15.2533 68.2833C14.7633 68.7733 14.1233 69.0166 13.4833 69.0166Z" fill="#01BA57"/>
<path d="M9.02333 42.5H2.5C1.12 42.5 0 41.38 0 40C0 38.62 1.12 37.5 2.5 37.5H9.02333C10.4033 37.5 11.5233 38.62 11.5233 40C11.5233 41.38 10.4033 42.5 9.02333 42.5Z" fill="#01BA57"/>
<path d="M18.0966 20.5967C17.4566 20.5967 16.8166 20.3533 16.33 19.8633L11.7166 15.25C10.74 14.2733 10.74 12.69 11.7166 11.7133C12.6933 10.7367 14.2766 10.7367 15.2533 11.7133L19.8666 16.3267C20.8433 17.3033 20.8433 18.8867 19.8666 19.8633C19.3733 20.35 18.7366 20.5967 18.0966 20.5967Z" fill="#01BA57"/>
<path d="M50 70V74.1667C50 77.3667 47.3667 80 44.1667 80H35.8333C33.0333 80 30 77.8667 30 73.2V70H50Z" fill="#01BA57"/>
<path d="M54.6997 21.8666C49.2331 17.4333 42.0331 15.7 34.9997 17.2C26.1664 19.0333 18.9997 26.2333 17.1664 35.0666C15.2997 44.1333 18.6997 53.1333 25.9664 58.6333C27.9331 60.1 29.2997 62.3666 29.7664 65V65.0333C29.8331 65 29.9331 65 29.9997 65H49.9997C50.0664 65 50.0997 65 50.1664 65.0333V65C50.6331 62.4666 52.1331 60.1333 54.4331 58.3333C60.0664 53.8666 63.3331 47.2 63.3331 40C63.3331 32.9333 60.1997 26.3333 54.6997 21.8666ZM52.4997 41.6666C51.1331 41.6666 49.9997 40.5333 49.9997 39.1666C49.9997 34.1 45.8997 30 40.8331 30C39.4664 30 38.3331 28.8666 38.3331 27.5C38.3331 26.1333 39.4664 25 40.8331 25C48.6331 25 54.9997 31.3666 54.9997 39.1666C54.9997 40.5333 53.8664 41.6666 52.4997 41.6666Z" fill="#01BA57"/>
<path d="M29.7666 65H29.9999C29.9333 65 29.8333 65 29.7666 65.0333V65Z" fill="#01BA57"/>
<path d="M50.1667 65V65.0333C50.1 65 50.0667 65 50 65H50.1667Z" fill="#01BA57"/>
</g>
<defs>
<clipPath id="clip0">
<rect width="80" height="80" fill="white"/>
</clipPath>
</defs>
</svg>
