<svg width="73" height="73" viewBox="0 0 73 73" fill="none" xmlns="http://www.w3.org/2000/svg">
<g clip-path="url(#clip0)">
<path d="M36.5713 56.5341C40.5085 56.5341 43.7002 53.3425 43.7002 49.4055C43.7002 45.4684 40.5085 42.2769 36.5713 42.2769C32.6341 42.2769 29.4424 45.4684 29.4424 49.4055C29.4424 53.3425 32.6341 56.5341 36.5713 56.5341Z" fill="#01BA57"/>
<path d="M70.8613 0H2.13867C0.957555 0 0 0.957412 0 2.13853V53.4641C0 54.6452 0.957555 55.6026 2.13867 55.6026H27.0032C22.1005 48.0601 27.539 37.9996 36.5713 37.9996C45.6036 37.9996 51.0421 48.06 46.1394 55.6026H70.8613C72.0424 55.6026 73 54.6452 73 53.4641V2.13853C73 0.957412 72.0424 0 70.8613 0V0ZM27.9453 8.69684H45.0547C46.2358 8.69684 47.1934 9.65425 47.1934 10.8354C47.1934 12.0165 46.2358 12.9739 45.0547 12.9739H27.9453C26.7642 12.9739 25.8066 12.0165 25.8066 10.8354C25.8066 9.65425 26.7642 8.69684 27.9453 8.69684ZM57.8867 34.3596H15.1133C13.9322 34.3596 12.9746 33.4022 12.9746 32.2211C12.9746 31.04 13.9322 30.0826 15.1133 30.0826H57.8867C59.0678 30.0826 60.0254 31.04 60.0254 32.2211C60.0254 33.4022 59.0678 34.3596 57.8867 34.3596ZM57.8867 25.8054H15.1133C13.9322 25.8054 12.9746 24.8479 12.9746 23.6668C12.9746 22.4857 13.9322 21.5283 15.1133 21.5283H57.8867C59.0678 21.5283 60.0254 22.4857 60.0254 23.6668C60.0254 24.8479 59.0678 25.8054 57.8867 25.8054Z" fill="#01BA57"/>
<path d="M28.052 56.9786V70.8579C28.052 72.5536 29.9454 73.5863 31.3724 72.6403L36.6425 69.1465L41.9126 72.6403C43.3177 73.5719 45.233 72.5735 45.233 70.8579V56.8141C40.7273 62.0737 32.661 62.1572 28.052 56.9786Z" fill="#01BA57"/>
</g>
<defs>
<clipPath id="clip0">
<rect width="73" height="73" fill="white"/>
</clipPath>
</defs>
</svg>
