<svg width="20" height="16" viewBox="0 0 20 16" fill="none" xmlns="http://www.w3.org/2000/svg">
<path d="M3.05944 0.360107C3.0589 0.360107 3.0583 0.360107 3.05776 0.360107C2.8686 0.360107 2.69069 0.433845 2.55634 0.567852C2.42052 0.703341 2.3457 0.883745 2.3457 1.0758V11.8075C2.3457 12.201 2.66712 12.522 3.06227 12.523C4.72814 12.527 7.51912 12.8742 9.44452 14.889V3.65803C9.44452 3.52463 9.41044 3.39931 9.34613 3.29561C7.76586 0.750681 4.72908 0.364013 3.05944 0.360107Z" fill="#01B555"/>
<path d="M17.6544 11.8076V1.0758C17.6544 0.883746 17.5796 0.703341 17.4438 0.567852C17.3094 0.433845 17.1314 0.360107 16.9424 0.360107C16.9418 0.360107 16.9412 0.360107 16.9407 0.360107C15.2711 0.36408 12.2343 0.750748 10.654 3.29567C10.5897 3.39938 10.5557 3.5247 10.5557 3.6581V14.889C12.4811 12.8742 15.272 12.527 16.9379 12.523C17.333 12.522 17.6544 12.201 17.6544 11.8076Z" fill="#01B555"/>
<path d="M19.2844 2.83508H18.7655V11.8076C18.7655 12.8124 17.9468 13.6317 16.9405 13.6342C15.5275 13.6375 13.1976 13.9138 11.5476 15.4755C14.4014 14.7768 17.4097 15.231 19.1242 15.6217C19.3383 15.6705 19.5595 15.6201 19.731 15.4834C19.9019 15.347 20 15.1432 20 14.9244V3.55064C20 3.15609 19.679 2.83508 19.2844 2.83508Z" fill="#01B555"/>
<path d="M1.23448 11.8076V2.83508H0.715558C0.321079 2.83508 0 3.15609 0 3.55064V14.9242C0 15.1431 0.0980475 15.3468 0.268957 15.4832C0.440338 15.6198 0.661349 15.6704 0.875761 15.6215C2.59024 15.2308 5.59867 14.7766 8.45228 15.4753C6.80231 13.9137 4.47247 13.6375 3.05947 13.6341C2.05321 13.6317 1.23448 12.8124 1.23448 11.8076Z" fill="#01B555"/>
</svg>
