<svg width="18" height="18" viewBox="0 0 18 18" fill="none" xmlns="http://www.w3.org/2000/svg">
<path d="M16.2 1.8H15.3V0.9C15.3 0.36 14.94 0 14.4 0C13.86 0 13.5 0.36 13.5 0.9V1.8H4.5V0.9C4.5 0.36 4.14 0 3.6 0C3.06 0 2.7 0.36 2.7 0.9V1.8H0.9C0.45 1.8 0 2.16 0 2.7V15.3C0 15.84 0.45 16.2 0.9 16.2H6.39C5.76 15.12 5.4 13.86 5.4 12.6C5.4 8.64 8.64 5.4 12.6 5.4C14.31 5.4 15.84 6.03 17.1 7.02V2.7C17.1 2.25 16.65 1.8 16.2 1.8Z" fill="#01B555"/>
<path d="M12.6002 7.20007C9.63019 7.20007 7.2002 9.63007 7.2002 12.6001C7.2002 15.5701 9.63019 18.0001 12.6002 18.0001C15.5702 18.0001 18.0002 15.5701 18.0002 12.6001C18.0002 9.63007 15.5702 7.20007 12.6002 7.20007ZM14.4002 13.5001H12.6002C12.0602 13.5001 11.7002 13.1401 11.7002 12.6001V9.90007C11.7002 9.36007 12.0602 9.00007 12.6002 9.00007C13.1402 9.00007 13.5002 9.36007 13.5002 9.90007V11.7001H14.4002C14.9402 11.7001 15.3002 12.0601 15.3002 12.6001C15.3002 13.1401 14.9402 13.5001 14.4002 13.5001Z" fill="#01B555"/>
</svg>
