<svg width="32" height="32" viewBox="0 0 32 32" fill="none" xmlns="http://www.w3.org/2000/svg">
<g clip-path="url(#clip0)">
<path d="M29.1425 28.5715C29.8618 28.5715 30.4851 28.334 31.0149 27.865L21.9488 18.7986C21.7313 18.9543 21.5205 19.1058 21.3213 19.2498C20.6428 19.7497 20.0922 20.1398 19.6693 20.4193C19.2466 20.6994 18.6841 20.985 17.9819 21.2765C17.2793 21.5684 16.6247 21.7139 16.0174 21.7139H15.9996H15.9819C15.3746 21.7139 14.72 21.5685 14.0174 21.2765C13.3148 20.985 12.7523 20.6994 12.33 20.4193C11.9072 20.1398 11.3568 19.7498 10.678 19.2498C10.4888 19.1112 10.279 18.959 10.0522 18.7961L0.984375 27.865C1.51417 28.334 2.13785 28.5715 2.8571 28.5715H29.1425Z" fill="#01BA57"/>
<path d="M1.80376 13.0894C1.12536 12.6371 0.523752 12.1191 0 11.5356V25.3295L7.99083 17.3387C6.39221 16.2226 4.33247 14.8078 1.80376 13.0894Z" fill="#01BA57"/>
<path d="M30.2146 13.0894C27.7824 14.7357 25.7151 16.1529 24.0127 17.3419L32.0003 25.3299V11.5356C31.4882 12.1074 30.893 12.625 30.2146 13.0894Z" fill="#01BA57"/>
<path d="M29.1428 3.42847H2.85745C1.94043 3.42847 1.23542 3.73813 0.741526 4.35681C0.24723 4.97579 0.000488281 5.74988 0.000488281 6.67823C0.000488281 7.4281 0.327928 8.24059 0.982516 9.11595C1.6371 9.99097 2.33364 10.6783 3.07177 11.1782C3.47642 11.4641 4.69671 12.3124 6.73263 13.7229C7.83167 14.4845 8.78744 15.1484 9.60877 15.7212C10.3088 16.209 10.9126 16.6314 11.4111 16.982C11.4683 17.0221 11.5583 17.0865 11.6777 17.1719C11.8064 17.2644 11.9693 17.3817 12.1702 17.5267C12.5571 17.8065 12.8785 18.0327 13.1344 18.2055C13.3901 18.3783 13.6998 18.5714 14.0631 18.7858C14.4262 18.9998 14.7686 19.1608 15.09 19.2679C15.4115 19.3749 15.709 19.4286 15.9828 19.4286H16.0006H16.0184C16.2921 19.4286 16.5897 19.3749 16.9112 19.2679C17.2325 19.1608 17.5747 19.0002 17.938 18.7858C18.301 18.5714 18.6103 18.3779 18.8668 18.2055C19.1228 18.0327 19.4442 17.8066 19.8311 17.5267C20.0316 17.3817 20.1944 17.2643 20.3231 17.1722C20.4426 17.0865 20.5326 17.0225 20.5901 16.982C20.9785 16.7118 21.5836 16.2911 22.3972 15.7262C23.8777 14.6975 26.058 13.1836 28.9473 11.1782C29.8162 10.5712 30.5422 9.83881 31.1257 8.98192C31.7081 8.12504 32.0001 7.22621 32.0001 6.28572C32.0001 5.49995 31.717 4.82758 31.152 4.26757C30.5864 3.70827 29.9166 3.42847 29.1428 3.42847Z" fill="#01BA57"/>
</g>
<defs>
<clipPath id="clip0">
<rect width="32" height="32" fill="white"/>
</clipPath>
</defs>
</svg>
