<svg width="16" height="16" viewBox="0 0 16 16" fill="none" xmlns="http://www.w3.org/2000/svg">
<path d="M14.4921 1.50786C12.4816 -0.50264 9.21043 -0.502609 7.19993 1.50789C5.82665 2.88117 5.34965 4.90495 5.94428 6.74104L0.137344 12.548C0.0494375 12.6359 0 12.7549 0 12.8794V15.5312C0 15.7903 0.209656 16 0.46875 16H3.12056C3.24506 16 3.36409 15.9506 3.45197 15.8627L4.11481 15.1993C4.21596 15.0982 4.2654 14.9563 4.24893 14.8139L4.16653 14.1016L5.15346 14.0087C5.37778 13.9876 5.55493 13.8105 5.57599 13.5862L5.66893 12.5992L6.38121 12.6821C6.51349 12.6999 6.64671 12.6555 6.74696 12.5667C6.84674 12.4775 6.90396 12.3502 6.90396 12.2165V11.3438H7.7609C7.8854 11.3438 8.00443 11.2943 8.0923 11.2064L9.2944 10.0202C11.13 10.6153 13.1188 10.1743 14.4921 8.80004C16.5026 6.78957 16.5026 3.51836 14.4921 1.50786ZM13.166 4.82254C12.6176 5.37095 11.7259 5.37095 11.1775 4.82254C10.6291 4.27414 10.6291 3.38242 11.1775 2.83401C11.7259 2.28561 12.6176 2.28561 13.166 2.83401C13.7144 3.38242 13.7144 4.27414 13.166 4.82254Z" fill="#FF609B"/>
</svg>
