<svg width="13" height="17" viewBox="0 0 13 17" fill="none" xmlns="http://www.w3.org/2000/svg">
<path d="M11.4253 7.32841H11.1135V5.86928C11.1135 3.1705 8.97188 0.916054 6.29506 0.86793C6.22192 0.866615 6.07577 0.866615 6.00267 0.86793C3.32578 0.916054 1.18416 3.1705 1.18416 5.86928V7.32841H0.872363C0.391903 7.32841 0 7.82419 0 8.4365V15.7549C0 16.3665 0.391903 16.8669 0.872396 16.8669H11.4253C11.9058 16.8669 12.2977 16.3665 12.2977 15.7549V8.4365C12.2977 7.82422 11.9058 7.32841 11.4253 7.32841ZM7.13751 12.0883V14.2996C7.13751 14.5528 6.92552 14.7671 6.67211 14.7671H5.62565C5.37221 14.7671 5.16022 14.5528 5.16022 14.2996V12.0883C4.91443 11.8463 4.77134 11.5118 4.77134 11.1417C4.77134 10.4404 5.31343 9.83781 6.0027 9.80997C6.07574 9.80701 6.22206 9.80701 6.2951 9.80997C6.98436 9.83781 7.52646 10.4404 7.52646 11.1417C7.52639 11.5118 7.3833 11.8463 7.13751 12.0883ZM9.0587 7.32841H6.29506H6.00267H3.23903V5.86928C3.23903 4.26166 4.54551 2.9324 6.14885 2.9324C7.75219 2.9324 9.05873 4.26166 9.05873 5.86928V7.32841H9.0587Z" fill="#FF609B"/>
</svg>
