<svg width="32" height="32" viewBox="0 0 32 32" fill="none" xmlns="http://www.w3.org/2000/svg">
<g clip-path="url(#clip0)">
<path d="M22.1102 16.778C22.048 16.8713 22.048 16.9646 22.0169 17.089C21.9858 17.4932 22.2968 17.8664 22.7011 17.8975C23.1054 17.9286 23.4786 17.6176 23.5097 17.2134C23.5097 17.1201 23.5097 17.0268 23.5408 16.8713C23.5408 16.7158 23.5408 16.6225 23.5408 16.5292C23.5408 15.6273 23.3853 14.7566 23.1054 13.9169C22.7322 12.8285 22.0791 11.8644 21.3017 11.0558C20.3376 10.0918 19.1559 9.40762 17.8187 9.03443C17.1967 8.87894 16.5125 8.78564 15.8594 8.78564C15.6418 8.78564 15.4241 8.78564 15.1753 8.81674C14.9576 8.84784 14.7399 8.87894 14.5222 8.91004C14.1179 8.97224 13.838 9.37652 13.9313 9.7497C13.9935 10.154 14.3978 10.4339 14.771 10.3406C14.9576 10.3095 15.1131 10.2784 15.2997 10.2784C15.3308 10.2784 15.3619 10.2784 15.393 10.2784C15.5485 10.2784 15.704 10.2473 15.8594 10.2473C17.5699 10.2473 19.1559 10.9314 20.2754 12.0821C21.395 13.2016 22.0791 14.7255 22.1102 16.4359V16.4981C22.1102 16.6225 22.1102 16.7158 22.1102 16.778Z" fill="#01BA57"/>
<path d="M26.2158 17.462C26.1847 17.8663 26.4957 18.2395 26.9 18.2706C27.3042 18.3017 27.6774 17.9907 27.7085 17.5864C27.7396 17.2443 27.7396 16.9022 27.7396 16.5601C27.7396 15.876 27.6774 15.2229 27.5841 14.5698C27.1798 12.082 25.967 9.84286 24.2566 8.13245C22.2974 6.17324 19.6851 4.8982 16.7929 4.68051C16.4819 4.64941 16.1399 4.64941 15.8289 4.64941C15.4868 4.64941 15.1447 4.64941 14.8026 4.68051C14.4605 4.71161 14.1184 4.74271 13.7764 4.80491C13.3721 4.8671 13.0922 5.27138 13.1855 5.64457C13.2477 6.04885 13.652 6.32873 14.0252 6.23544C14.2428 6.20434 14.4294 6.17324 14.6471 6.14214C14.7404 6.14214 14.8337 6.11104 14.927 6.11104C15.238 6.07995 15.549 6.07995 15.8289 6.07995C16.8862 6.07995 17.8814 6.23544 18.8454 6.51532C20.5248 7.0129 22.0175 7.91476 23.2303 9.1276C24.2255 10.1228 25.034 11.3356 25.5627 12.6417C26.0292 13.8235 26.3091 15.1296 26.3091 16.4979C26.3091 16.5912 26.3091 16.7156 26.3091 16.8089C26.2469 17.0577 26.2158 17.2443 26.2158 17.462Z" fill="#01BA57"/>
<path d="M27.273 5.14699C24.3187 2.19263 20.2758 0.388916 15.7976 0.388916C15.3312 0.388916 14.8647 0.420015 14.3982 0.451113C13.9317 0.482212 13.4653 0.544409 12.9988 0.637704C12.5945 0.699901 12.3146 1.10418 12.4079 1.47736C12.4701 1.88165 12.8744 2.16153 13.2476 2.06824C13.4653 2.03714 13.6518 2.00604 13.8695 1.97494C14.0872 1.94384 14.3049 1.91274 14.5226 1.91274C14.958 1.88165 15.3623 1.85055 15.7976 1.85055C19.8405 1.85055 23.5101 3.49877 26.1846 6.14214C28.8279 8.78552 30.4762 12.4551 30.4762 16.5291C30.4762 16.7467 30.4762 16.9955 30.4762 17.2132C30.4762 17.3998 30.4451 17.5864 30.4451 17.8041C30.414 18.2084 30.725 18.5816 31.1292 18.6127C31.5335 18.6438 31.9067 18.3328 31.9378 17.9285C31.9689 17.462 32 16.9955 32 16.5602C32 12.1131 30.1963 8.07025 27.273 5.14699Z" fill="#01BA57"/>
<path d="M30.8491 23.9926L25.3447 21.0383C23.5099 20.0431 23.4477 20.6962 21.5196 22.7487C21.0531 23.2463 20.1823 24.5524 19.1561 24.3036C17.0103 23.7749 12.9986 20.634 11.6924 19.2035C11.0705 18.5193 8.39599 15.2539 8.36489 14.1966C8.30269 12.5795 11.8479 11.7709 10.6973 8.69215L8.2405 3.18771C5.9392 -2.09904 -0.498191 6.35976 0.0304838 10.3093C1.39882 20.0431 18.4719 35.779 27.9881 30.5855C30.1028 29.4038 32.9638 25.2677 30.8491 23.9926Z" fill="#01BA57"/>
</g>
<defs>
<clipPath id="clip0">
<rect width="32" height="32" fill="white"/>
</clipPath>
</defs>
</svg>
