<svg width="20" height="20" viewBox="0 0 20 20" fill="none" xmlns="http://www.w3.org/2000/svg">
<g clip-path="url(#clip0)">
<path d="M13.3452 14.2018C13.1449 14.0026 12.8675 13.8932 12.5623 13.8932C12.241 13.8932 11.9314 14.0184 11.7126 14.2371L10.329 15.6211L9.95505 15.4136C9.13256 14.9576 8.00542 14.3321 6.81557 13.1405C5.62087 11.9472 4.99494 10.8176 4.5373 9.99168L4.33292 9.62821L5.71892 8.24238C6.17736 7.78234 6.19335 7.05025 5.75353 6.60979L3.19275 4.04942C2.99374 3.85035 2.71592 3.74048 2.41127 3.74048C2.09028 3.74048 1.78082 3.86628 1.56137 4.08528L0.932524 4.71772L0.87422 4.81492C0.639974 5.11518 0.448328 5.45255 0.305165 5.82031C0.171938 6.1706 0.0891357 6.50352 0.0505896 6.83753C-0.279422 9.58161 0.985689 12.1008 4.41869 15.533C8.48727 19.6008 11.8872 19.9173 12.8325 19.9173C12.9948 19.9173 13.0925 19.9084 13.1195 19.9057C13.469 19.8631 13.803 19.7791 14.14 19.6488C14.5038 19.5072 14.8406 19.3169 15.1403 19.0827L15.283 18.9698L15.8717 18.3924C16.3295 17.9344 16.3442 17.2032 15.9046 16.7633L13.3452 14.2018Z" fill="#FF609B"/>
<path d="M10.6345 9.46618C10.0773 8.90928 9.3774 8.50858 8.61259 8.30854L8.26076 8.21545L8.15991 8.56283C8.12205 8.6916 8.07745 8.81352 8.02686 8.92305L7.83618 9.32924L8.27304 9.44208C8.851 9.58815 9.37768 9.88579 9.79587 10.3048C10.1955 10.7036 10.4877 11.2039 10.6406 11.7505L10.7143 12.0138L11.2643 12.0451C11.3199 12.0516 11.3755 12.0578 11.4286 12.0626L11.9457 12.1113L11.8257 11.6058C11.633 10.7927 11.2216 10.0529 10.6345 9.46618Z" fill="#FF609B"/>
<path d="M12.4316 7.66819C11.3971 6.6335 10.075 5.95834 8.61014 5.71622L8.10059 5.63062L8.18065 6.14C8.20418 6.29104 8.2249 6.4414 8.24221 6.5933L8.27476 6.86129L8.54447 6.91463C9.71204 7.13032 10.7661 7.68155 11.5926 8.50747C12.5414 9.45661 13.1213 10.6674 13.268 12.0109L13.2992 12.2953L13.7302 12.3573C13.7995 12.3628 13.8698 12.3621 13.9689 12.3628L14.4881 12.3806L14.4469 11.9568C14.2854 10.3078 13.5879 8.8252 12.4316 7.66819Z" fill="#FF609B"/>
<path d="M14.3839 5.71635C12.6865 4.01929 10.4256 3.00841 8.01756 2.87073L7.5498 2.84155L7.62781 3.30222C7.65162 3.45224 7.68081 3.60568 7.71164 3.76552L7.76858 4.04499L8.0513 4.06246C10.1293 4.20477 12.0803 5.09002 13.5455 6.55488C14.9871 7.99662 15.8681 9.92547 16.0258 11.9835L16.0529 12.3498L16.4188 12.3282C16.5055 12.3237 16.5909 12.3162 16.7157 12.3052L17.2393 12.264L17.2105 11.893C17.0315 9.5536 16.0278 7.36001 14.3839 5.71635Z" fill="#FF609B"/>
<path d="M19.9697 11.6304C19.7304 8.66061 18.4408 5.86599 16.3377 3.76257C14.0937 1.51844 11.1067 0.217296 7.929 0.0977745L7.56878 0.0826416L7.54137 0.444747C7.53503 0.545881 7.53075 0.645872 7.52698 0.746321L7.50488 1.27203L7.87846 1.2854C10.76 1.39207 13.4663 2.5701 15.4984 4.60219C17.4018 6.50569 18.5698 9.03665 18.7878 11.7277L18.8183 12.1056L19.1986 12.0686C19.3275 12.0549 19.4582 12.045 19.5899 12.0347L20 12.0031L19.9697 11.6304Z" fill="#FF609B"/>
</g>
<defs>
<clipPath id="clip0">
<rect width="20" height="20" fill="white"/>
</clipPath>
</defs>
</svg>
