<svg width="21" height="21" viewBox="0 0 21 21" fill="none" xmlns="http://www.w3.org/2000/svg">
<path d="M10.2 -4.45857e-07C4.57586 -2.00017e-07 -6.91696e-07 4.57586 -4.45857e-07 10.2C-2.00017e-07 15.8242 4.57586 20.4 10.2 20.4C15.8242 20.4 20.4 15.8242 20.4 10.2C20.4 4.57586 15.8242 -6.91696e-07 10.2 -4.45857e-07ZM10.2 19.3809C5.13744 19.3809 1.01917 15.2626 1.01917 10.2C1.01917 5.13745 5.13744 1.01917 10.2 1.01917C15.2626 1.01917 19.3809 5.13744 19.3809 10.2C19.3809 15.2626 15.2626 19.3809 10.2 19.3809Z" fill="#01BA57"/>
<path d="M14.9924 9.83809L12.1263 6.97194C11.9266 6.77227 11.6063 6.77227 11.4066 6.97194C11.2069 7.17161 11.2069 7.49192 11.4066 7.6916L13.4033 9.68834L5.76997 9.68834C5.48709 9.68834 5.2583 9.91713 5.2583 10.2C5.2583 10.4829 5.48709 10.7117 5.76997 10.7117L13.3992 10.7117L11.4024 12.7084C11.2028 12.9081 11.2028 13.2284 11.4024 13.4281C11.6021 13.6277 11.9224 13.6277 12.1221 13.4281L14.9882 10.5619C15.0881 10.4621 15.138 10.3331 15.138 10.2C15.138 10.0669 15.0922 9.93793 14.9924 9.83809Z" fill="#01BA57"/>
</svg>
