<svg width="5" height="5" viewBox="0 0 5 5" fill="none" xmlns="http://www.w3.org/2000/svg">
<g clip-path="url(#clip0)">
<path d="M4.92008 2.30572L3.11441 0.500003C3.06286 0.448458 2.99416 0.420166 2.92091 0.420166C2.84758 0.420166 2.77892 0.448499 2.72738 0.500003L2.56343 0.663985C2.51193 0.715448 2.48356 0.784187 2.48356 0.857479C2.48356 0.930731 2.51193 1.00179 2.56343 1.05325L3.61684 2.10897H0.27012C0.119227 2.10897 0 2.2271 0 2.37804V2.60986C0 2.7608 0.119227 2.89084 0.27012 2.89084H3.62879L2.56347 3.95245C2.51197 4.004 2.4836 4.07087 2.4836 4.14416C2.4836 4.21737 2.51197 4.28522 2.56347 4.33672L2.72742 4.50017C2.77896 4.55172 2.84762 4.57981 2.92095 4.57981C2.9942 4.57981 3.0629 4.55135 3.11445 4.49981L4.92012 2.69413C4.97179 2.64242 5.0002 2.5734 5 2.50003C5.00016 2.42641 4.97179 2.35735 4.92008 2.30572Z" fill="black" fill-opacity="0.2"/>
</g>
<defs>
<clipPath id="clip0">
<rect width="5" height="5" fill="white"/>
</clipPath>
</defs>
</svg>
