<svg width="52" height="52" viewBox="0 0 52 52" fill="none" xmlns="http://www.w3.org/2000/svg">
<g clip-path="url(#clip0)">
<path d="M13.8664 11.2676V7.80098C13.8664 7.32237 13.4783 6.93433 12.9997 6.93433H0.866649C0.388046 6.93433 0 7.32237 0 7.80098V11.2676H13.8664Z" fill="#01BA57"/>
<path d="M0 13.0006V41.6H13.8664V13.0006H0ZM10.3998 24.2671H3.4666C2.98799 24.2671 2.59995 23.879 2.59995 23.4004V16.4672C2.59995 15.9886 2.98799 15.6006 3.4666 15.6006H10.3998C10.8784 15.6006 11.2664 15.9886 11.2664 16.4672V23.4004C11.2664 23.879 10.8784 24.2671 10.3998 24.2671Z" fill="#01BA57"/>
<path d="M0 46.8V51.1333C0 51.6119 0.388046 51.9999 0.866649 51.9999H12.9997C13.4783 51.9999 13.8664 51.6119 13.8664 51.1333V46.8H0Z" fill="#01BA57"/>
<path d="M0 43.3334H13.8664V45.0667H0V43.3334Z" fill="#01BA57"/>
<path d="M15.5996 43.3334H26.8661V45.0667H15.5996V43.3334Z" fill="#01BA57"/>
<path d="M26.8661 3.46733V0.867383C26.8661 0.388779 26.478 0.000732422 25.9994 0.000732422H16.4663C15.9877 0.000732422 15.5996 0.388779 15.5996 0.867383V3.46733H26.8661Z" fill="#01BA57"/>
<path d="M15.5996 9.53418H26.8661V41.6002H15.5996V9.53418Z" fill="#01BA57"/>
<path d="M15.5996 46.8V51.1333C15.5996 51.6119 15.9877 51.9999 16.4663 51.9999H25.9994C26.478 51.9999 26.8661 51.6119 26.8661 51.1333V46.8H15.5996Z" fill="#01BA57"/>
<path d="M15.5996 5.20068H26.8661V7.80064H15.5996V5.20068Z" fill="#01BA57"/>
<path d="M28.5781 17.9475L29.0419 19.7277L43.7191 15.8138L43.2549 14.0336L28.5781 17.9475Z" fill="#01BA57"/>
<path d="M35.8217 45.7107L50.4985 41.7968L49.5692 38.2341L34.8916 42.148L35.8217 45.7107Z" fill="#01BA57"/>
<path d="M49.1318 36.5574L44.1583 17.4911L29.4807 21.405L34.4542 40.4713L49.1318 36.5574Z" fill="#01BA57"/>
<path d="M28.141 16.2704L42.8173 12.3569L41.5732 7.58399C41.445 7.12189 40.9728 6.84556 40.5073 6.96024L27.5075 10.4268C27.0484 10.5525 26.7746 11.0227 26.8918 11.4839L28.141 16.2704Z" fill="#01BA57"/>
<path d="M50.9357 43.4739L36.2581 47.3878L37.2919 51.3499C37.3519 51.5733 37.4984 51.7637 37.6994 51.8788C37.8301 51.958 37.9799 51.9999 38.1327 51.9999C38.2084 51.9999 38.2842 51.991 38.3578 51.974L51.3576 48.5075C51.8167 48.3818 52.0905 47.9112 51.9733 47.45L50.9357 43.4739Z" fill="#01BA57"/>
</g>
<defs>
<clipPath id="clip0">
<rect width="52" height="52" fill="white"/>
</clipPath>
</defs>
</svg>
