<svg width="52" height="52" viewBox="0 0 52 52" fill="none" xmlns="http://www.w3.org/2000/svg">
<path d="M38.1333 0.000610352V13.8666H51.9993L38.1333 0.000610352Z" fill="#01BA57"/>
<path d="M17.2866 49.8456L14.6313 39.193C16.2883 37.6158 17.3352 35.3972 17.3352 32.9325C17.3352 28.1557 13.4457 24.2662 8.66888 24.2662C3.89203 24.2662 0.00261045 28.1557 0.00261045 32.9325C0.00261045 35.3972 1.0495 37.6158 2.70649 39.193L0.0511416 49.8456C-0.111784 50.5008 0.123938 51.1941 0.650847 51.6204C1.17776 52.0434 1.90572 52.1162 2.5089 51.818L8.66888 48.7363L14.8254 51.818C15.0715 51.9359 15.3384 51.9983 15.6019 51.9983C15.9867 51.9983 16.3715 51.87 16.6869 51.6204C17.2138 51.1941 17.4495 50.5042 17.2866 49.8456ZM8.66888 38.1323C5.80208 38.1323 3.46912 35.7993 3.46912 32.9325C3.46912 30.0657 5.80208 27.7327 8.66888 27.7327C11.5357 27.7327 13.8686 30.0657 13.8686 32.9325C13.8686 35.7993 11.5357 38.1323 8.66888 38.1323Z" fill="#01BA57"/>
<path d="M38.1329 17.3332C36.2229 17.3332 34.6664 15.7767 34.6664 13.8666V0.000610352H13.8674C11.9573 0.000610352 10.4009 1.55707 10.4009 3.46712V20.9765C16.2662 21.8257 20.8004 26.8349 20.8004 32.9324C20.8004 35.5531 19.9684 38.0421 18.4293 40.1116L20.53 48.5317H48.5325C50.446 48.5317 51.999 46.9787 51.999 45.0652V17.3332H38.1329ZM19.0671 13.8666C18.1104 13.8666 17.3339 13.0901 17.3339 12.1334C17.3339 11.1766 18.1104 10.4001 19.0671 10.4001H29.4667C30.4234 10.4001 31.1999 11.1766 31.1999 12.1334C31.1999 13.0901 30.4234 13.8666 29.4667 13.8666H19.0671ZM43.3327 34.6657H26.0002C25.0434 34.6657 24.2669 33.8892 24.2669 32.9324C24.2669 31.9757 25.0434 31.1992 26.0002 31.1992H43.3327C44.2895 31.1992 45.066 31.9757 45.066 32.9324C45.066 33.8892 44.2895 34.6657 43.3327 34.6657ZM43.3327 24.2662H22.5337C21.5769 24.2662 20.8004 23.4897 20.8004 22.5329C20.8004 21.5762 21.5769 20.7997 22.5337 20.7997H43.3327C44.2895 20.7997 45.066 21.5762 45.066 22.5329C45.066 23.4897 44.2895 24.2662 43.3327 24.2662Z" fill="#01BA57"/>
</svg>
