<svg width="52" height="52" viewBox="0 0 52 52" fill="none" xmlns="http://www.w3.org/2000/svg">
<g clip-path="url(#clip0)">
<path d="M33.8401 11.6832C30.9045 5.68905 24.7637 1.72607 17.8756 1.72607C8.0195 1.72607 0.00102681 9.69905 0.00102681 19.4991C0.00102681 22.1624 0.57281 24.7151 1.70135 27.0952L0.0305808 35.45C-0.182086 36.5136 0.756126 37.4536 1.81987 37.2432L10.2777 35.571C11.4165 36.1112 12.5946 36.522 13.8051 36.805C11.0917 23.9535 20.8329 11.8902 33.8401 11.6832Z" fill="#01BA57"/>
<path d="M50.2993 40.0948C50.5912 39.4792 50.845 38.852 51.0622 38.2145H51.0064C54.8096 27.0513 46.8115 15.3187 35.0039 14.7474C35.0037 14.7468 35.0036 14.7462 35.0034 14.7456C24.8437 14.2774 16.4028 22.4119 16.4028 32.4987C16.4028 42.2905 24.3612 50.2572 34.1498 50.2714C36.8048 50.2678 39.3497 49.6963 41.7229 48.5706C50.9859 50.4019 50.2635 50.2717 50.4763 50.2717C51.4389 50.2717 52.1581 49.3895 51.9701 48.4496L50.2993 40.0948Z" fill="#01BA57"/>
</g>
<defs>
<clipPath id="clip0">
<rect width="52" height="52" fill="white"/>
</clipPath>
</defs>
</svg>
