<svg width="52" height="52" viewBox="0 0 52 52" fill="none" xmlns="http://www.w3.org/2000/svg">
<g clip-path="url(#clip0)">
<path d="M13.7109 0C11.1908 0 9.14062 2.05014 9.14062 4.57031C9.14062 7.09048 11.1908 9.14062 13.7109 9.14062C16.2311 9.14062 18.2812 7.09048 18.2812 4.57031C18.2812 2.05014 16.2311 0 13.7109 0Z" fill="#01BA57"/>
<path d="M47.4297 0H25.8984C23.3783 0 21.3281 2.05014 21.3281 4.57031V9.9838C21.7793 10.2465 22.2105 10.5468 22.5897 10.9259L25.5771 13.9132L27.7432 12.8302C29.1955 12.1066 30.4583 12.0757 31.7778 12.3647L39.0887 8.70919C41.3422 7.59281 44.0759 8.47092 45.2182 10.7489C46.3565 13.0224 45.4328 15.7578 43.177 16.8858L36.1707 20.3889C35.6327 21.8474 34.5904 23.0357 33.1913 23.7338L31.9089 24.375H47.4297C49.9499 24.375 52 22.3249 52 19.8047V4.57031C52 2.05014 49.9499 0 47.4297 0Z" fill="#01BA57"/>
<path d="M42.4956 12.1155C42.1177 11.3627 41.2057 11.0607 40.4514 11.4341L31.9555 15.682C31.1096 15.197 30.0691 15.076 29.106 15.5557L24.976 17.6207L20.4355 13.0801C19.8597 12.5043 19.0951 12.1874 18.2812 12.1874H6.09375C2.73295 12.1874 0 14.9204 0 18.2812V27.5234C0 29.6235 2.09249 31.098 4.06301 30.3961L6.09375 29.6791C6.09375 36.4052 6.09375 42.1988 6.09375 48.953C6.09375 50.6356 7.45784 51.9999 9.14062 51.9999C10.8234 51.9999 12.1875 50.6356 12.1875 48.953C12.1875 44.941 12.1875 41.9889 12.1875 38.1874C12.1875 37.3459 12.8696 36.664 13.7109 36.664C14.5523 36.664 15.2344 37.3459 15.2344 38.1874C15.2344 42.1121 15.2344 44.9267 15.2344 48.953C15.2344 50.6356 16.5985 51.9999 18.2812 51.9999C19.964 51.9999 21.3281 50.6356 21.3281 48.953C21.3281 39.5719 21.3281 32.772 21.3281 23.4689L23.3589 24.1845C24.208 24.485 25.0095 24.4164 25.7378 24.0536L31.8315 21.0067C32.8852 20.481 33.4613 19.4247 33.4799 18.3268L41.8142 14.1597C42.567 13.7833 42.872 12.8683 42.4956 12.1155Z" fill="#01BA57"/>
</g>
<defs>
<clipPath id="clip0">
<rect width="52" height="52" fill="white"/>
</clipPath>
</defs>
</svg>
