<svg width="52" height="52" viewBox="0 0 52 52" fill="none" xmlns="http://www.w3.org/2000/svg">
<g clip-path="url(#clip0)">
<path d="M25.4648 24.3793C25.8007 24.5039 26.1766 24.5126 26.5361 24.3793L45.8071 17.1528V33.8133C46.2965 33.6902 46.8036 33.6176 47.3307 33.6176C47.8577 33.6176 48.3649 33.6902 48.8543 33.8133V16.01L51.015 15.2377C52.3276 14.7443 52.3302 12.8784 51.015 12.384L26.5361 3.24247C26.1908 3.11449 25.81 3.11449 25.4648 3.24247L0.985904 12.384C-0.326714 12.8774 -0.329253 14.7433 0.985904 15.2377L25.4648 24.3793Z" fill="#01BA57"/>
<path d="M47.331 36.6646C44.7258 36.6646 42.7603 39.9393 42.7603 44.2825V47.3297C42.7603 48.1718 43.4417 48.8532 44.2838 48.8532H50.3782C51.2203 48.8532 51.9018 48.1718 51.9018 47.3297V44.2825C51.9018 39.9393 49.9363 36.6646 47.331 36.6646Z" fill="#01BA57"/>
<path d="M41.7597 21.9255L27.6066 27.2331C26.5465 27.6247 25.4256 27.6143 24.4062 27.2361L10.2428 21.9253C8.97188 26.5828 9.29508 29.6394 9.24176 30.5704C9.24176 31.6482 10.3372 32.3841 11.3293 31.9854C11.365 31.972 14.927 30.5704 18.3833 30.5704C21.5985 30.5704 25.0177 33.2575 25.0519 33.2857C25.5967 33.7192 26.3897 33.7334 26.9533 33.2842C27.8967 32.5284 30.9334 30.5703 33.6191 30.5703C37.0754 30.5703 40.6374 31.9719 40.6731 31.9853C41.6628 32.383 42.7606 31.6501 42.7606 30.5703C42.7095 29.677 43.0231 26.555 41.7597 21.9255Z" fill="#01BA57"/>
</g>
<defs>
<clipPath id="clip0">
<rect width="52" height="52" fill="white"/>
</clipPath>
</defs>
</svg>
