<svg width="25" height="24" viewBox="0 0 25 24" fill="none" xmlns="http://www.w3.org/2000/svg">
<path d="M14.8926 12C14.8926 13.2686 13.8214 14.2969 12.5 14.2969C11.1786 14.2969 10.1074 13.2686 10.1074 12C10.1074 10.7314 11.1786 9.70312 12.5 9.70312C13.8214 9.70312 14.8926 10.7314 14.8926 12Z" fill="#0C58AE"/>
<path d="M18.0954 7.9361C17.9804 7.6369 17.7969 7.36609 17.5585 7.1438C17.327 6.91492 17.045 6.73877 16.7332 6.62836C16.4803 6.53406 16.1003 6.42181 15.4005 6.39124C14.6435 6.35809 14.4165 6.35095 12.5 6.35095C10.5833 6.35095 10.3564 6.35791 9.59952 6.39105C8.89972 6.42181 8.51958 6.53406 8.26686 6.62836C7.95501 6.73877 7.67291 6.91492 7.44155 7.1438C7.20313 7.36609 7.01965 7.63672 6.90444 7.9361C6.80621 8.17889 6.68929 8.54382 6.65744 9.21564C6.62292 9.9422 6.61548 10.1601 6.61548 12.0001C6.61548 13.84 6.62292 14.0579 6.65744 14.7846C6.68929 15.4564 6.80621 15.8212 6.90444 16.064C7.01965 16.3633 7.20294 16.634 7.44136 16.8563C7.67291 17.0851 7.95482 17.2613 8.26667 17.3717C8.51958 17.4662 8.89972 17.5784 9.59952 17.609C10.3564 17.6421 10.5831 17.6491 12.4998 17.6491C14.4167 17.6491 14.6437 17.6421 15.4003 17.609C16.1001 17.5784 16.4803 17.4662 16.7332 17.3717C17.3592 17.1399 17.854 16.6649 18.0954 16.064C18.1937 15.8212 18.3106 15.4564 18.3426 14.7846C18.3771 14.0579 18.3844 13.84 18.3844 12.0001C18.3844 10.1601 18.3771 9.9422 18.3426 9.21564C18.3108 8.54382 18.1938 8.17889 18.0954 7.9361ZM12.5 15.5383C10.4643 15.5383 8.81408 13.9542 8.81408 11.9999C8.81408 10.0457 10.4643 8.46161 12.5 8.46161C14.5356 8.46161 16.1858 10.0457 16.1858 11.9999C16.1858 13.9542 14.5356 15.5383 12.5 15.5383ZM16.3315 9.14862C15.8558 9.14862 15.4702 8.77838 15.4702 8.32172C15.4702 7.86505 15.8558 7.49481 16.3315 7.49481C16.8072 7.49481 17.1929 7.86505 17.1929 8.32172C17.1927 8.77838 16.8072 9.14862 16.3315 9.14862Z" fill="#0C58AE"/>
<path d="M12.5 0C5.5975 0 0 5.3736 0 12C0 18.6264 5.5975 24 12.5 24C19.4025 24 25 18.6264 25 12C25 5.3736 19.4025 0 12.5 0ZM19.6344 14.8409C19.5997 15.5744 19.4782 16.0752 19.3008 16.5135C18.928 17.4391 18.1658 18.1708 17.2016 18.5288C16.7452 18.6991 16.2233 18.8156 15.4594 18.8491C14.694 18.8826 14.4495 18.8906 12.5002 18.8906C10.5507 18.8906 10.3064 18.8826 9.54075 18.8491C8.77686 18.8156 8.255 18.6991 7.79858 18.5288C7.31945 18.3558 6.88572 18.0846 6.52714 17.7339C6.16207 17.3899 5.87959 16.9733 5.69935 16.5135C5.52197 16.0754 5.40047 15.5744 5.36575 14.8411C5.33047 14.1061 5.32227 13.8713 5.32227 12C5.32227 10.1287 5.33047 9.89392 5.36556 9.15912C5.40028 8.4256 5.52158 7.9248 5.69897 7.48645C5.87921 7.02667 6.16188 6.61011 6.52714 6.26605C6.88553 5.91541 7.31945 5.64423 7.79839 5.47119C8.255 5.3009 8.77666 5.18445 9.54075 5.15094C10.3062 5.11743 10.5507 5.10938 12.5 5.10938C14.4493 5.10938 14.6938 5.11743 15.4593 5.15112C16.2233 5.18445 16.745 5.3009 17.2016 5.47101C17.6805 5.64404 18.1145 5.91541 18.4731 6.26605C18.8381 6.61029 19.1208 7.02667 19.3008 7.48645C19.4784 7.9248 19.5997 8.4256 19.6346 9.15912C19.6695 9.89392 19.6777 10.1287 19.6777 12C19.6777 13.8713 19.6695 14.1061 19.6344 14.8409Z" fill="#0C58AE"/>
</svg>
