<svg width="24" height="24" viewBox="0 0 24 24" fill="none" xmlns="http://www.w3.org/2000/svg">
<path d="M12.0003 0C5.39106 0 0.0209961 5.37007 0.0209961 11.9793C0.0209961 16.895 2.95388 21.1084 7.2086 22.9673C7.16728 22.1411 7.2086 21.1084 7.41515 20.1996C7.66302 19.2083 8.94355 13.673 8.94355 13.673C8.94355 13.673 8.57176 12.8881 8.57176 11.7728C8.57176 9.99652 9.60447 8.67468 10.885 8.67468C11.959 8.67468 12.496 9.50083 12.496 10.4922C12.496 11.5662 11.7938 13.2185 11.422 14.7469C11.1329 16.0275 12.0416 17.0602 13.3222 17.0602C15.5941 17.0602 17.1225 14.1273 17.1225 10.6987C17.1225 8.05498 15.3463 6.11353 12.1242 6.11353C8.48913 6.11353 6.21722 8.83986 6.21722 11.8553C6.21722 12.888 6.50636 13.6316 7.00205 14.2099C7.2086 14.4578 7.24992 14.5817 7.16728 14.8708C7.12596 15.0774 6.96073 15.6144 6.91941 15.8209C6.83677 16.11 6.58895 16.234 6.29981 16.11C4.60618 15.4078 3.86262 13.5902 3.86262 11.5248C3.86262 8.13758 6.71286 4.04808 12.4134 4.04808C16.9986 4.04808 20.0141 7.35274 20.0141 10.9052C20.0141 15.6143 17.4117 19.1255 13.5701 19.1255C12.2895 19.1255 11.0503 18.4233 10.6372 17.6385C10.6372 17.6385 9.93493 20.4061 9.81102 20.9431C9.56315 21.8519 9.06746 22.802 8.61308 23.5042C9.68711 23.8347 10.8437 23.9999 12.0003 23.9999C18.6096 23.9999 23.9797 18.6298 23.9797 12.0206C23.9797 5.41129 18.6097 0 12.0003 0Z" fill="#0C58AE"/>
</svg>
