<svg width="24" height="24" viewBox="0 0 24 24" fill="none" xmlns="http://www.w3.org/2000/svg">
<path d="M12.0005 0C5.39119 0 0.0211182 5.37007 0.0211182 11.9793C0.0211182 16.895 2.954 21.1084 7.20872 22.9673C7.1674 22.1411 7.20872 21.1084 7.41527 20.1996C7.66314 19.2083 8.94367 13.673 8.94367 13.673C8.94367 13.673 8.57189 12.8881 8.57189 11.7728C8.57189 9.99652 9.60459 8.67468 10.8851 8.67468C11.9591 8.67468 12.4962 9.50083 12.4962 10.4922C12.4962 11.5662 11.7939 13.2185 11.4221 14.7469C11.133 16.0275 12.0417 17.0602 13.3223 17.0602C15.5943 17.0602 17.1227 14.1273 17.1227 10.6987C17.1227 8.05498 15.3464 6.11353 12.1244 6.11353C8.48925 6.11353 6.21734 8.83986 6.21734 11.8553C6.21734 12.888 6.50648 13.6316 7.00217 14.2099C7.20872 14.4578 7.25004 14.5817 7.1674 14.8708C7.12608 15.0774 6.96085 15.6144 6.91953 15.8209C6.83689 16.11 6.58907 16.234 6.29993 16.11C4.6063 15.4078 3.86274 13.5902 3.86274 11.5248C3.86274 8.13758 6.71298 4.04808 12.4135 4.04808C16.9987 4.04808 20.0142 7.35274 20.0142 10.9052C20.0142 15.6143 17.4118 19.1255 13.5702 19.1255C12.2896 19.1255 11.0504 18.4233 10.6373 17.6385C10.6373 17.6385 9.93505 20.4061 9.81114 20.9431C9.56327 21.8519 9.06758 22.802 8.61321 23.5042C9.68723 23.8347 10.8438 23.9999 12.0005 23.9999C18.6097 23.9999 23.9798 18.6298 23.9798 12.0206C23.9798 5.41129 18.6098 0 12.0005 0Z" fill="white"/>
</svg>
